<?xml version="1.0" encoding="iso-8859-1"?>
<!-- Generator: Adobe Illustrator 16.2.1, SVG Export Plug-In . SVG Version: 6.00 Build 0)  -->
<!DOCTYPE svg PUBLIC "-//W3C//DTD SVG 1.1 Basic//EN" "http://www.w3.org/Graphics/SVG/1.1/DTD/svg11-basic.dtd">
<svg version="1.1" baseProfile="basic" xmlns="http://www.w3.org/2000/svg" xmlns:xlink="http://www.w3.org/1999/xlink" x="0px"
	 y="0px" width="572px" height="32px" viewBox="0 0 572 32" xml:space="preserve">
<g id="Layer_2_copy">
	
		<line style="fill:none;stroke:#000000;stroke-width:4;stroke-linecap:round;stroke-miterlimit:10;" x1="0" y1="14" x2="0" y2="14"/>
	
		<line style="fill:none;stroke:#000000;stroke-width:4;stroke-linecap:round;stroke-miterlimit:10;" x1="32" y1="14" x2="32" y2="14"/>
	
		<line style="fill:none;stroke:#000000;stroke-width:4;stroke-linecap:round;stroke-miterlimit:10;" x1="160" y1="14" x2="144" y2="14"/>
	
		<line style="fill:none;stroke:#000000;stroke-width:4;stroke-linecap:round;stroke-miterlimit:10;" x1="40" y1="14" x2="36" y2="14"/>
	
		<line style="fill:none;stroke:#000000;stroke-width:4;stroke-linecap:round;stroke-miterlimit:10;" x1="200" y1="14" x2="180" y2="14"/>
	<polyline style="fill:none;stroke:#000000;stroke-width:4;stroke-linecap:round;stroke-miterlimit:10;" points="536,14 532,14 
		528,14 	"/>
	
		<line style="fill:none;stroke:#000000;stroke-width:4;stroke-linecap:round;stroke-miterlimit:10;" x1="572" y1="14" x2="568" y2="14"/>
	<polyline style="fill:none;stroke:#000000;stroke-width:4;stroke-linecap:round;stroke-miterlimit:10;" points="80,14 76,14 72,14 
			"/>
	<polyline style="fill:none;stroke:#000000;stroke-width:4;stroke-linecap:round;stroke-miterlimit:10;" points="240,14 220,14 
		216,14 	"/>
	<polyline style="fill:none;stroke:#000000;stroke-width:4;stroke-linecap:round;stroke-miterlimit:10;" points="120,14 116,14 
		112,14 108,14 	"/>
	<polyline style="fill:none;stroke:#000000;stroke-width:4;stroke-linecap:round;stroke-miterlimit:10;" points="280,14 260,14 
		256,14 252,14 	"/>
	<polyline style="fill:none;stroke:#000000;stroke-width:4;stroke-linecap:round;stroke-miterlimit:10;" points="320,14 296,14 
		292,14 288,14 	"/>
	<polyline style="fill:none;stroke:#000000;stroke-width:4;stroke-linecap:round;stroke-miterlimit:10;" points="356,14 352,14 
		348,14 344,14 340,14 336,14 332,14 328,14 	"/>
	<polyline style="fill:none;stroke:#000000;stroke-width:4;stroke-linecap:round;stroke-miterlimit:10;" points="392,14 388,14 
		384,14 380,14 376,14 372,14 368,14 	"/>
	<polyline style="fill:none;stroke:#000000;stroke-width:4;stroke-linecap:round;stroke-miterlimit:10;" points="428,14 424,14 
		420,14 416,14 412,14 408,14 	"/>
	<polyline style="fill:none;stroke:#000000;stroke-width:4;stroke-linecap:round;stroke-miterlimit:10;" points="464,14 460,14 
		456,14 452,14 448,14 	"/>
	<polyline style="fill:none;stroke:#000000;stroke-width:4;stroke-linecap:round;stroke-miterlimit:10;" points="500,14 496,14 
		492,14 488,14 	"/>
	<g>
		<path style="fill:#FFFFFF;" d="M0,0v32h32V0H0z M20.065,17.479C20.065,17.479,20.065,17.479,20.065,17.479
			c-0.619,1.073-1.512,1.968-2.586,2.586c0,0,0,0,0,0C16.453,20.656,15.267,21,14,21c-3.86,0-7-3.141-7-7c0-3.86,3.14-7,7-7
			s7,3.14,7,7C21,15.267,20.657,16.453,20.065,17.479z"/>
	</g>
	<g>
		<path style="fill:#FFFFFF;" d="M36,0v32h32V0H36z M56.065,17.479C56.065,17.479,56.065,17.479,56.065,17.479
			c-0.619,1.073-1.512,1.968-2.586,2.586c0,0,0,0,0,0C52.453,20.656,51.267,21,50,21c-3.86,0-7-3.141-7-7c0-3.86,3.14-7,7-7
			s7,3.14,7,7C57,15.267,56.657,16.453,56.065,17.479z"/>
	</g>
	<g>
		<path style="fill:#FFFFFF;" d="M72,0v32h32V0H72z M92.065,17.479C92.065,17.479,92.065,17.479,92.065,17.479
			c-0.618,1.073-1.513,1.968-2.587,2.586c0.001,0,0.001,0,0.001,0C88.453,20.656,87.268,21,86,21c-3.859,0-7-3.141-7-7
			c0-3.86,3.141-7,7-7s7,3.14,7,7C93,15.267,92.656,16.453,92.065,17.479z"/>
	</g>
	<g>
		<path style="fill:#FFFFFF;" d="M108,0v32h32V0H108z M128.065,17.479C128.065,17.479,128.065,17.479,128.065,17.479
			c-0.618,1.073-1.513,1.968-2.587,2.586c0.001,0,0.001,0,0.001,0C124.453,20.656,123.268,21,122,21c-3.859,0-7-3.141-7-7
			c0-3.86,3.141-7,7-7s7,3.14,7,7C129,15.267,128.656,16.453,128.065,17.479z"/>
	</g>
	<g>
		<path style="fill:#FFFFFF;" d="M144,0v32h32V0H144z M164.065,17.479C164.065,17.479,164.065,17.479,164.065,17.479
			c-0.619,1.073-1.512,1.968-2.586,2.586c0,0,0,0,0,0C160.453,20.656,159.267,21,158,21c-3.86,0-7-3.141-7-7c0-3.86,3.14-7,7-7
			s7,3.14,7,7C165,15.267,164.657,16.453,164.065,17.479z"/>
	</g>
	<g>
		<path style="fill:#FFFFFF;" d="M180,0v32h32V0H180z M200.065,17.479C200.065,17.479,200.065,17.479,200.065,17.479
			c-0.619,1.073-1.512,1.968-2.586,2.586c0,0,0,0,0,0C196.453,20.656,195.267,21,194,21c-3.86,0-7-3.141-7-7c0-3.86,3.14-7,7-7
			s7,3.14,7,7C201,15.267,200.657,16.453,200.065,17.479z"/>
	</g>
	<g>
		<path style="fill:#FFFFFF;" d="M216,0v32h32V0H216z M236.065,17.479C236.065,17.479,236.065,17.479,236.065,17.479
			c-0.618,1.073-1.513,1.968-2.587,2.586c0.001,0,0.001,0,0.001,0C232.453,20.656,231.268,21,230,21c-3.859,0-7-3.141-7-7
			c0-3.86,3.141-7,7-7s7,3.14,7,7C237,15.267,236.656,16.453,236.065,17.479z"/>
	</g>
	<g>
		<path style="fill:#FFFFFF;" d="M252,0v32h32V0H252z M272.065,17.479C272.065,17.479,272.065,17.479,272.065,17.479
			c-0.618,1.073-1.513,1.968-2.587,2.586c0.001,0,0.001,0,0.001,0C268.453,20.656,267.268,21,266,21c-3.859,0-7-3.141-7-7
			c0-3.86,3.141-7,7-7s7,3.14,7,7C273,15.267,272.656,16.453,272.065,17.479z"/>
	</g>
	<g>
		<path style="fill:#FFFFFF;" d="M288,0v32h32V0H288z M308.065,17.479C308.065,17.479,308.065,17.479,308.065,17.479
			c-0.618,1.073-1.513,1.968-2.587,2.586c0.001,0,0.001,0,0.001,0C304.453,20.656,303.268,21,302,21c-3.859,0-7-3.141-7-7
			s3.141-7,7-7s7,3.141,7,7C309,15.268,308.656,16.453,308.065,17.479z"/>
	</g>
	<g>
		<path style="fill:#FFFFFF;" d="M324,0v32h32V0H324z M344.065,17.479C344.065,17.479,344.065,17.479,344.065,17.479
			c-0.618,1.073-1.513,1.968-2.587,2.586c0.001,0,0.001,0,0.001,0C340.453,20.656,339.268,21,338,21c-3.859,0-7-3.141-7-7
			s3.141-7,7-7s7,3.141,7,7C345,15.268,344.656,16.453,344.065,17.479z"/>
	</g>
	<g>
		<path style="fill:#FFFFFF;" d="M360,0v32h32V0H360z M380.065,17.479C380.065,17.479,380.065,17.479,380.065,17.479
			c-0.618,1.073-1.513,1.968-2.587,2.586c0.001,0,0.001,0,0.001,0C376.453,20.656,375.268,21,374,21c-3.859,0-7-3.141-7-7
			s3.141-7,7-7s7,3.141,7,7C381,15.268,380.656,16.453,380.065,17.479z"/>
	</g>
	<g>
		<path style="fill:#FFFFFF;" d="M396,0v32h32V0H396z M416.065,17.479C416.065,17.479,416.065,17.479,416.065,17.479
			c-0.618,1.073-1.513,1.968-2.587,2.586c0.001,0,0.001,0,0.001,0C412.453,20.656,411.268,21,410,21c-3.859,0-7-3.141-7-7
			s3.141-7,7-7s7,3.141,7,7C417,15.268,416.656,16.453,416.065,17.479z"/>
	</g>
	<g>
		<path style="fill:#FFFFFF;" d="M432,0v32h32V0H432z M452.065,17.479C452.065,17.479,452.065,17.479,452.065,17.479
			c-0.618,1.073-1.513,1.968-2.587,2.586c0.001,0,0.001,0,0.001,0C448.453,20.656,447.268,21,446,21c-3.859,0-7-3.141-7-7
			s3.141-7,7-7s7,3.141,7,7C453,15.268,452.656,16.453,452.065,17.479z"/>
	</g>
	<g>
		<path style="fill:#FFFFFF;" d="M468,0v32h32V0H468z M488.065,17.479C488.065,17.479,488.065,17.479,488.065,17.479
			c-0.618,1.073-1.513,1.968-2.587,2.586c0.001,0,0.001,0,0.001,0C484.453,20.656,483.268,21,482,21c-3.859,0-7-3.141-7-7
			s3.141-7,7-7s7,3.141,7,7C489,15.268,488.656,16.453,488.065,17.479z"/>
	</g>
	<g>
		<path style="fill:#FFFFFF;" d="M504,0v32h32V0H504z M524.065,17.479C524.065,17.479,524.065,17.479,524.065,17.479
			c-0.618,1.073-1.513,1.968-2.587,2.586c0.001,0,0.001,0,0.001,0C520.453,20.656,519.268,21,518,21c-3.859,0-7-3.141-7-7
			s3.141-7,7-7s7,3.141,7,7C525,15.268,524.656,16.453,524.065,17.479z"/>
	</g>
	<g>
		<path style="fill:#FFFFFF;" d="M540,0v32h32V0H540z M560.065,17.479C560.065,17.479,560.065,17.479,560.065,17.479
			c-0.618,1.073-1.513,1.968-2.587,2.586c0.001,0,0.001,0,0.001,0C556.453,20.656,555.268,21,554,21c-3.859,0-7-3.141-7-7
			s3.141-7,7-7s7,3.141,7,7C561,15.268,560.656,16.453,560.065,17.479z"/>
	</g>
</g>
<g id="Layer_2">
	
		<line style="fill:none;stroke:#000000;stroke-width:2;stroke-linecap:round;stroke-miterlimit:10;" x1="0" y1="14" x2="0" y2="14"/>
	
		<line style="fill:none;stroke:#000000;stroke-width:2;stroke-linecap:round;stroke-miterlimit:10;" x1="32" y1="14" x2="32" y2="14"/>
	
		<line style="fill:none;stroke:#000000;stroke-width:2;stroke-linecap:round;stroke-miterlimit:10;" x1="160" y1="14" x2="144" y2="14"/>
	
		<line style="fill:none;stroke:#000000;stroke-width:2;stroke-linecap:round;stroke-miterlimit:10;" x1="40" y1="14" x2="36" y2="14"/>
	
		<line style="fill:none;stroke:#000000;stroke-width:2;stroke-linecap:round;stroke-miterlimit:10;" x1="200" y1="14" x2="180" y2="14"/>
	<polyline style="fill:none;stroke:#000000;stroke-width:2;stroke-linecap:round;stroke-miterlimit:10;" points="536,14 532,14 
		528,14 	"/>
	
		<line style="fill:none;stroke:#000000;stroke-width:2;stroke-linecap:round;stroke-miterlimit:10;" x1="572" y1="14" x2="568" y2="14"/>
	<polyline style="fill:none;stroke:#000000;stroke-width:2;stroke-linecap:round;stroke-miterlimit:10;" points="80,14 76,14 72,14 
			"/>
	<polyline style="fill:none;stroke:#000000;stroke-width:2;stroke-linecap:round;stroke-miterlimit:10;" points="240,14 220,14 
		216,14 	"/>
	<polyline style="fill:none;stroke:#000000;stroke-width:2;stroke-linecap:round;stroke-miterlimit:10;" points="120,14 116,14 
		112,14 108,14 	"/>
	<polyline style="fill:none;stroke:#000000;stroke-width:2;stroke-linecap:round;stroke-miterlimit:10;" points="280,14 260,14 
		256,14 252,14 	"/>
	<polyline style="fill:none;stroke:#000000;stroke-width:2;stroke-linecap:round;stroke-miterlimit:10;" points="320,14 296,14 
		292,14 288,14 	"/>
	<polyline style="fill:none;stroke:#000000;stroke-width:2;stroke-linecap:round;stroke-miterlimit:10;" points="356,14 352,14 
		348,14 344,14 340,14 336,14 332,14 328,14 	"/>
	<polyline style="fill:none;stroke:#000000;stroke-width:2;stroke-linecap:round;stroke-miterlimit:10;" points="392,14 388,14 
		384,14 380,14 376,14 372,14 368,14 	"/>
	<polyline style="fill:none;stroke:#000000;stroke-width:2;stroke-linecap:round;stroke-miterlimit:10;" points="428,14 424,14 
		420,14 416,14 412,14 408,14 	"/>
	<polyline style="fill:none;stroke:#000000;stroke-width:2;stroke-linecap:round;stroke-miterlimit:10;" points="464,14 460,14 
		456,14 452,14 448,14 	"/>
	<polyline style="fill:none;stroke:#000000;stroke-width:2;stroke-linecap:round;stroke-miterlimit:10;" points="500,14 496,14 
		492,14 488,14 	"/>
</g>
<g id="Layer_1">
	<g>
		<g>
			<path d="M14,9c2.757,0,5,2.243,5,5s-2.243,5-5,5s-5-2.243-5-5S11.243,9,14,9 M14,8c-3.312,0-6,2.687-6,6c0,3.312,2.688,6,6,6
				s6-2.688,6-6C20,10.687,17.312,8,14,8L14,8z"/>
		</g>
	</g>
	<path d="M24.586,19.172l-2.14-2.141C22.791,16.082,23,15.068,23,14c0-4.962-4.038-9-9-9s-9,4.038-9,9c0,4.963,4.038,9,9,9
		c1.068,0,2.082-0.209,3.032-0.555l2.14,2.141c0.766,0.766,1.815,1.205,2.879,1.205c1.014,0,1.957-0.385,2.656-1.084
		C26.2,23.215,26.146,20.731,24.586,19.172z M14,21c-3.86,0-7-3.141-7-7c0-3.86,3.14-7,7-7s7,3.14,7,7
		c0,1.267-0.343,2.453-0.935,3.479c0,0,0,0,0-0.001c-0.619,1.074-1.512,1.969-2.586,2.587c0,0,0,0,0,0
		C16.453,20.656,15.267,21,14,21z M23.293,23.293c-0.682,0.682-1.963,0.622-2.707-0.121l-2.382-2.382
		c0.051-0.031,0.106-0.056,0.156-0.088c0.935-0.609,1.732-1.407,2.342-2.341c0.033-0.051,0.057-0.106,0.088-0.157l2.382,2.382
		C23.952,21.365,24.006,22.58,23.293,23.293z"/>
	<g>
		<g>
			<path d="M50,9c2.757,0,5,2.243,5,5s-2.243,5-5,5s-5-2.243-5-5S47.243,9,50,9 M50,8c-3.312,0-6,2.687-6,6c0,3.312,2.688,6,6,6
				s6-2.688,6-6C56,10.687,53.312,8,50,8L50,8z"/>
		</g>
	</g>
	<path d="M60.586,19.172l-2.14-2.141C58.791,16.082,59,15.068,59,14c0-4.962-4.038-9-9-9s-9,4.038-9,9c0,4.963,4.038,9,9,9
		c1.068,0,2.082-0.209,3.032-0.555l2.14,2.141c0.766,0.766,1.815,1.205,2.879,1.205c1.014,0,1.957-0.385,2.656-1.084
		C62.2,23.215,62.146,20.731,60.586,19.172z M50,21c-3.86,0-7-3.141-7-7c0-3.86,3.14-7,7-7s7,3.14,7,7
		c0,1.267-0.343,2.453-0.935,3.479c0,0,0,0,0-0.001c-0.619,1.074-1.512,1.969-2.586,2.587c0,0,0,0,0,0
		C52.453,20.656,51.267,21,50,21z M59.293,23.293c-0.682,0.682-1.963,0.622-2.707-0.121l-2.382-2.382
		c0.051-0.031,0.106-0.056,0.156-0.088c0.935-0.609,1.732-1.407,2.342-2.341c0.033-0.051,0.057-0.106,0.088-0.157l2.382,2.382
		C59.952,21.365,60.006,22.58,59.293,23.293z"/>
	<g>
		<g>
			<path d="M86,9c2.757,0,5,2.243,5,5s-2.243,5-5,5s-5-2.243-5-5S83.243,9,86,9 M86,8c-3.312,0-6,2.687-6,6c0,3.312,2.688,6,6,6
				s6-2.688,6-6C92,10.687,89.312,8,86,8L86,8z"/>
		</g>
	</g>
	<path d="M96.586,19.172l-2.141-2.141C94.791,16.082,95,15.068,95,14c0-4.962-4.037-9-9-9s-9,4.038-9,9c0,4.963,4.037,9,9,9
		c1.068,0,2.082-0.209,3.031-0.555l2.141,2.141c0.766,0.766,1.814,1.205,2.879,1.205c1.014,0,1.957-0.385,2.656-1.084
		C98.199,23.215,98.146,20.731,96.586,19.172z M86,21c-3.859,0-7-3.141-7-7c0-3.86,3.141-7,7-7s7,3.14,7,7
		c0,1.267-0.344,2.453-0.935,3.479c0,0,0,0,0-0.001c-0.618,1.074-1.513,1.969-2.587,2.587c0.001,0,0.001,0,0.001,0
		C88.453,20.656,87.268,21,86,21z M95.293,23.293c-0.682,0.682-1.963,0.622-2.707-0.121l-2.382-2.382
		c0.051-0.031,0.106-0.056,0.155-0.088c0.936-0.609,1.732-1.407,2.342-2.341c0.033-0.051,0.058-0.106,0.089-0.157l2.382,2.382
		C95.951,21.365,96.006,22.58,95.293,23.293z"/>
	<g>
		<g>
			<path d="M122,9c2.757,0,5,2.243,5,5s-2.243,5-5,5s-5-2.243-5-5S119.243,9,122,9 M122,8c-3.312,0-6,2.687-6,6c0,3.312,2.688,6,6,6
				s6-2.688,6-6C128,10.687,125.312,8,122,8L122,8z"/>
		</g>
	</g>
	<path d="M132.586,19.172l-2.141-2.141C130.791,16.082,131,15.068,131,14c0-4.962-4.037-9-9-9s-9,4.038-9,9c0,4.963,4.037,9,9,9
		c1.068,0,2.082-0.209,3.031-0.555l2.141,2.141c0.766,0.766,1.814,1.205,2.879,1.205c1.014,0,1.957-0.385,2.656-1.084
		C134.199,23.215,134.146,20.731,132.586,19.172z M122,21c-3.859,0-7-3.141-7-7c0-3.86,3.141-7,7-7s7,3.14,7,7
		c0,1.267-0.344,2.453-0.935,3.479c0,0,0,0,0-0.001c-0.618,1.074-1.513,1.969-2.587,2.587c0.001,0,0.001,0,0.001,0
		C124.453,20.656,123.268,21,122,21z M131.293,23.293c-0.682,0.682-1.963,0.622-2.707-0.121l-2.382-2.382
		c0.051-0.031,0.106-0.056,0.155-0.088c0.936-0.609,1.732-1.407,2.342-2.341c0.033-0.051,0.058-0.106,0.089-0.157l2.382,2.382
		C131.951,21.365,132.006,22.58,131.293,23.293z"/>
	<g>
		<g>
			<path d="M338,9c2.757,0,5,2.243,5,5s-2.243,5-5,5s-5-2.243-5-5S335.243,9,338,9 M338,8c-3.312,0-6,2.687-6,6c0,3.312,2.688,6,6,6
				s6-2.688,6-6C344,10.687,341.312,8,338,8L338,8z"/>
		</g>
	</g>
	<path d="M348.586,19.172l-2.141-2.141C346.791,16.082,347,15.068,347,14c0-4.963-4.037-9-9-9s-9,4.037-9,9s4.037,9,9,9
		c1.068,0,2.082-0.209,3.031-0.555l2.141,2.141c0.766,0.766,1.814,1.205,2.879,1.205c1.014,0,1.957-0.385,2.656-1.084
		C350.199,23.215,350.146,20.731,348.586,19.172z M338,21c-3.859,0-7-3.141-7-7s3.141-7,7-7s7,3.141,7,7
		c0,1.268-0.344,2.453-0.935,3.479c0,0,0,0,0-0.001c-0.618,1.074-1.513,1.969-2.587,2.587c0.001,0,0.001,0,0.001,0
		C340.453,20.656,339.268,21,338,21z M347.293,23.293c-0.682,0.682-1.963,0.622-2.707-0.121l-2.382-2.382
		c0.051-0.031,0.106-0.056,0.155-0.088c0.936-0.609,1.732-1.407,2.342-2.341c0.033-0.051,0.058-0.106,0.089-0.157l2.382,2.382
		C347.951,21.365,348.006,22.58,347.293,23.293z"/>
	<g>
		<g>
			<path d="M374,9c2.757,0,5,2.243,5,5s-2.243,5-5,5s-5-2.243-5-5S371.243,9,374,9 M374,8c-3.312,0-6,2.687-6,6c0,3.312,2.688,6,6,6
				s6-2.688,6-6C380,10.687,377.312,8,374,8L374,8z"/>
		</g>
	</g>
	<path d="M384.586,19.172l-2.141-2.141C382.791,16.082,383,15.068,383,14c0-4.963-4.037-9-9-9s-9,4.037-9,9s4.037,9,9,9
		c1.068,0,2.082-0.209,3.031-0.555l2.141,2.141c0.766,0.766,1.814,1.205,2.879,1.205c1.014,0,1.957-0.385,2.656-1.084
		C386.199,23.215,386.146,20.731,384.586,19.172z M374,21c-3.859,0-7-3.141-7-7s3.141-7,7-7s7,3.141,7,7
		c0,1.268-0.344,2.453-0.935,3.479c0,0,0,0,0-0.001c-0.618,1.074-1.513,1.969-2.587,2.587c0.001,0,0.001,0,0.001,0
		C376.453,20.656,375.268,21,374,21z M383.293,23.293c-0.682,0.682-1.963,0.622-2.707-0.121l-2.382-2.382
		c0.051-0.031,0.106-0.056,0.155-0.088c0.936-0.609,1.732-1.407,2.342-2.341c0.033-0.051,0.058-0.106,0.089-0.157l2.382,2.382
		C383.951,21.365,384.006,22.58,383.293,23.293z"/>
	<g>
		<g>
			<path d="M410,9c2.757,0,5,2.243,5,5s-2.243,5-5,5s-5-2.243-5-5S407.243,9,410,9 M410,8c-3.312,0-6,2.687-6,6c0,3.312,2.688,6,6,6
				s6-2.688,6-6C416,10.687,413.312,8,410,8L410,8z"/>
		</g>
	</g>
	<path d="M420.586,19.172l-2.141-2.141C418.791,16.082,419,15.068,419,14c0-4.963-4.037-9-9-9s-9,4.037-9,9s4.037,9,9,9
		c1.068,0,2.082-0.209,3.031-0.555l2.141,2.141c0.766,0.766,1.814,1.205,2.879,1.205c1.014,0,1.957-0.385,2.656-1.084
		C422.199,23.215,422.146,20.731,420.586,19.172z M410,21c-3.859,0-7-3.141-7-7s3.141-7,7-7s7,3.141,7,7
		c0,1.268-0.344,2.453-0.935,3.479c0,0,0,0,0-0.001c-0.618,1.074-1.513,1.969-2.587,2.587c0.001,0,0.001,0,0.001,0
		C412.453,20.656,411.268,21,410,21z M419.293,23.293c-0.682,0.682-1.963,0.622-2.707-0.121l-2.382-2.382
		c0.051-0.031,0.106-0.056,0.155-0.088c0.936-0.609,1.732-1.407,2.342-2.341c0.033-0.051,0.058-0.106,0.089-0.157l2.382,2.382
		C419.951,21.365,420.006,22.58,419.293,23.293z"/>
	<g>
		<g>
			<path d="M446,9c2.757,0,5,2.243,5,5s-2.243,5-5,5s-5-2.243-5-5S443.243,9,446,9 M446,8c-3.312,0-6,2.687-6,6c0,3.312,2.688,6,6,6
				s6-2.688,6-6C452,10.687,449.312,8,446,8L446,8z"/>
		</g>
	</g>
	<path d="M456.586,19.172l-2.141-2.141C454.791,16.082,455,15.068,455,14c0-4.963-4.037-9-9-9s-9,4.037-9,9s4.037,9,9,9
		c1.068,0,2.082-0.209,3.031-0.555l2.141,2.141c0.766,0.766,1.814,1.205,2.879,1.205c1.014,0,1.957-0.385,2.656-1.084
		C458.199,23.215,458.146,20.731,456.586,19.172z M446,21c-3.859,0-7-3.141-7-7s3.141-7,7-7s7,3.141,7,7
		c0,1.268-0.344,2.453-0.935,3.479c0,0,0,0,0-0.001c-0.618,1.074-1.513,1.969-2.587,2.587c0.001,0,0.001,0,0.001,0
		C448.453,20.656,447.268,21,446,21z M455.293,23.293c-0.682,0.682-1.963,0.622-2.707-0.121l-2.382-2.382
		c0.051-0.031,0.106-0.056,0.155-0.088c0.936-0.609,1.732-1.407,2.342-2.341c0.033-0.051,0.058-0.106,0.089-0.157l2.382,2.382
		C455.951,21.365,456.006,22.58,455.293,23.293z"/>
	<g>
		<g>
			<path d="M482,9c2.757,0,5,2.243,5,5s-2.243,5-5,5s-5-2.243-5-5S479.243,9,482,9 M482,8c-3.312,0-6,2.687-6,6c0,3.312,2.688,6,6,6
				s6-2.688,6-6C488,10.687,485.312,8,482,8L482,8z"/>
		</g>
	</g>
	<path d="M492.586,19.172l-2.141-2.141C490.791,16.082,491,15.068,491,14c0-4.963-4.037-9-9-9s-9,4.037-9,9s4.037,9,9,9
		c1.068,0,2.082-0.209,3.031-0.555l2.141,2.141c0.766,0.766,1.814,1.205,2.879,1.205c1.014,0,1.957-0.385,2.656-1.084
		C494.199,23.215,494.146,20.731,492.586,19.172z M482,21c-3.859,0-7-3.141-7-7s3.141-7,7-7s7,3.141,7,7
		c0,1.268-0.344,2.453-0.935,3.479c0,0,0,0,0-0.001c-0.618,1.074-1.513,1.969-2.587,2.587c0.001,0,0.001,0,0.001,0
		C484.453,20.656,483.268,21,482,21z M491.293,23.293c-0.682,0.682-1.963,0.622-2.707-0.121l-2.382-2.382
		c0.051-0.031,0.106-0.056,0.155-0.088c0.936-0.609,1.732-1.407,2.342-2.341c0.033-0.051,0.058-0.106,0.089-0.157l2.382,2.382
		C491.951,21.365,492.006,22.58,491.293,23.293z"/>
	<g>
		<g>
			<path d="M518,9c2.757,0,5,2.243,5,5s-2.243,5-5,5s-5-2.243-5-5S515.243,9,518,9 M518,8c-3.312,0-6,2.687-6,6c0,3.312,2.688,6,6,6
				s6-2.688,6-6C524,10.687,521.312,8,518,8L518,8z"/>
		</g>
	</g>
	<path d="M528.586,19.172l-2.141-2.141C526.791,16.082,527,15.068,527,14c0-4.963-4.037-9-9-9s-9,4.037-9,9s4.037,9,9,9
		c1.068,0,2.082-0.209,3.031-0.555l2.141,2.141c0.766,0.766,1.814,1.205,2.879,1.205c1.014,0,1.957-0.385,2.656-1.084
		C530.199,23.215,530.146,20.731,528.586,19.172z M518,21c-3.859,0-7-3.141-7-7s3.141-7,7-7s7,3.141,7,7
		c0,1.268-0.344,2.453-0.935,3.479c0,0,0,0,0-0.001c-0.618,1.074-1.513,1.969-2.587,2.587c0.001,0,0.001,0,0.001,0
		C520.453,20.656,519.268,21,518,21z M527.293,23.293c-0.682,0.682-1.963,0.622-2.707-0.121l-2.382-2.382
		c0.051-0.031,0.106-0.056,0.155-0.088c0.936-0.609,1.732-1.407,2.342-2.341c0.033-0.051,0.058-0.106,0.089-0.157l2.382,2.382
		C527.951,21.365,528.006,22.58,527.293,23.293z"/>
	<g>
		<g>
			<path d="M554,9c2.757,0,5,2.243,5,5s-2.243,5-5,5s-5-2.243-5-5S551.243,9,554,9 M554,8c-3.312,0-6,2.687-6,6c0,3.312,2.688,6,6,6
				s6-2.688,6-6C560,10.687,557.312,8,554,8L554,8z"/>
		</g>
	</g>
	<path d="M564.586,19.172l-2.141-2.141C562.791,16.082,563,15.068,563,14c0-4.963-4.037-9-9-9s-9,4.037-9,9s4.037,9,9,9
		c1.068,0,2.082-0.209,3.031-0.555l2.141,2.141c0.766,0.766,1.814,1.205,2.879,1.205c1.014,0,1.957-0.385,2.656-1.084
		C566.199,23.215,566.146,20.731,564.586,19.172z M554,21c-3.859,0-7-3.141-7-7s3.141-7,7-7s7,3.141,7,7
		c0,1.268-0.344,2.453-0.935,3.479c0,0,0,0,0-0.001c-0.618,1.074-1.513,1.969-2.587,2.587c0.001,0,0.001,0,0.001,0
		C556.453,20.656,555.268,21,554,21z M563.293,23.293c-0.682,0.682-1.963,0.622-2.707-0.121l-2.382-2.382
		c0.051-0.031,0.106-0.056,0.155-0.088c0.936-0.609,1.732-1.407,2.342-2.341c0.033-0.051,0.058-0.106,0.089-0.157l2.382,2.382
		C563.951,21.365,564.006,22.58,563.293,23.293z"/>
	<g>
		<path style="fill:#FFFFFF;" d="M21,14c0-3.86-3.14-7-7-7s-7,3.14-7,7c0,3.859,3.14,7,7,7c1.267,0,2.453-0.344,3.479-0.935
			c0,0,0,0,0,0c1.074-0.618,1.968-1.513,2.586-2.587c0,0.001,0,0.001,0,0.001C20.657,16.453,21,15.267,21,14z M14,20
			c-3.312,0-6-2.688-6-6c0-3.313,2.688-6,6-6s6,2.687,6,6C20,17.312,17.312,20,14,20z"/>
	</g>
	<g>
		<g>
			<path d="M158,9c2.757,0,5,2.243,5,5s-2.243,5-5,5s-5-2.243-5-5S155.243,9,158,9 M158,8c-3.312,0-6,2.687-6,6c0,3.312,2.688,6,6,6
				s6-2.688,6-6C164,10.687,161.312,8,158,8L158,8z"/>
		</g>
	</g>
	<path d="M168.586,19.172l-2.141-2.141C166.791,16.082,167,15.068,167,14c0-4.962-4.037-9-9-9s-9,4.038-9,9c0,4.963,4.037,9,9,9
		c1.068,0,2.082-0.209,3.031-0.555l2.141,2.141c0.766,0.766,1.814,1.205,2.879,1.205c1.014,0,1.957-0.385,2.656-1.084
		C170.199,23.215,170.146,20.731,168.586,19.172z M158,21c-3.859,0-7-3.141-7-7c0-3.86,3.141-7,7-7s7,3.14,7,7
		c0,1.267-0.344,2.453-0.935,3.479c0,0,0,0,0-0.001c-0.618,1.074-1.513,1.969-2.587,2.587c0.001,0,0.001,0,0.001,0
		C160.453,20.656,159.268,21,158,21z M167.293,23.293c-0.682,0.682-1.963,0.622-2.707-0.121l-2.382-2.382
		c0.051-0.031,0.106-0.056,0.155-0.088c0.936-0.609,1.732-1.407,2.342-2.341c0.033-0.051,0.058-0.106,0.089-0.157l2.382,2.382
		C167.951,21.365,168.006,22.58,167.293,23.293z"/>
	<g>
		<path style="fill:#FFFFFF;" d="M165,14c0-3.86-3.141-7-7-7s-7,3.14-7,7c0,3.859,3.141,7,7,7c1.268,0,2.453-0.344,3.479-0.935
			c0,0,0,0-0.001,0c1.074-0.618,1.969-1.513,2.587-2.587c0,0.001,0,0.001,0,0.001C164.656,16.453,165,15.267,165,14z M158,20
			c-3.312,0-6-2.688-6-6c0-3.313,2.688-6,6-6s6,2.687,6,6C164,17.312,161.312,20,158,20z"/>
	</g>
	<g>
		<path style="fill:#FFFFFF;" d="M57,14c0-3.86-3.14-7-7-7s-7,3.14-7,7c0,3.859,3.14,7,7,7c1.267,0,2.453-0.344,3.479-0.935
			c0,0,0,0,0,0c1.074-0.618,1.968-1.513,2.586-2.587c0,0.001,0,0.001,0,0.001C56.657,16.453,57,15.267,57,14z M50,20
			c-3.312,0-6-2.688-6-6c0-3.313,2.688-6,6-6s6,2.687,6,6C56,17.312,53.312,20,50,20z"/>
	</g>
	<g>
		<g>
			<path d="M194,9c2.757,0,5,2.243,5,5s-2.243,5-5,5s-5-2.243-5-5S191.243,9,194,9 M194,8c-3.312,0-6,2.687-6,6c0,3.312,2.688,6,6,6
				s6-2.688,6-6C200,10.687,197.312,8,194,8L194,8z"/>
		</g>
	</g>
	<path d="M204.586,19.172l-2.141-2.141C202.791,16.082,203,15.068,203,14c0-4.962-4.037-9-9-9s-9,4.038-9,9c0,4.963,4.037,9,9,9
		c1.068,0,2.082-0.209,3.031-0.555l2.141,2.141c0.766,0.766,1.814,1.205,2.879,1.205c1.014,0,1.957-0.385,2.656-1.084
		C206.199,23.215,206.146,20.731,204.586,19.172z M194,21c-3.859,0-7-3.141-7-7c0-3.86,3.141-7,7-7s7,3.14,7,7
		c0,1.267-0.344,2.453-0.935,3.479c0,0,0,0,0-0.001c-0.618,1.074-1.513,1.969-2.587,2.587c0.001,0,0.001,0,0.001,0
		C196.453,20.656,195.268,21,194,21z M203.293,23.293c-0.682,0.682-1.963,0.622-2.707-0.121l-2.382-2.382
		c0.051-0.031,0.106-0.056,0.155-0.088c0.936-0.609,1.732-1.407,2.342-2.341c0.033-0.051,0.058-0.106,0.089-0.157l2.382,2.382
		C203.951,21.365,204.006,22.58,203.293,23.293z"/>
	<g>
		<path style="fill:#FFFFFF;" d="M201,14c0-3.86-3.141-7-7-7s-7,3.14-7,7c0,3.859,3.141,7,7,7c1.268,0,2.453-0.344,3.479-0.935
			c0,0,0,0-0.001,0c1.074-0.618,1.969-1.513,2.587-2.587c0,0.001,0,0.001,0,0.001C200.656,16.453,201,15.267,201,14z M194,20
			c-3.312,0-6-2.688-6-6c0-3.313,2.688-6,6-6s6,2.687,6,6C200,17.312,197.312,20,194,20z"/>
	</g>
	<g>
		<path style="fill:#FFFFFF;" d="M93,14c0-3.86-3.141-7-7-7s-7,3.14-7,7c0,3.859,3.141,7,7,7c1.268,0,2.453-0.344,3.479-0.935
			c0,0,0,0-0.001,0c1.074-0.618,1.969-1.513,2.587-2.587c0,0.001,0,0.001,0,0.001C92.656,16.453,93,15.267,93,14z M86,20
			c-3.312,0-6-2.688-6-6c0-3.313,2.688-6,6-6s6,2.687,6,6C92,17.312,89.312,20,86,20z"/>
	</g>
	<g>
		<g>
			<path d="M230,9c2.757,0,5,2.243,5,5s-2.243,5-5,5s-5-2.243-5-5S227.243,9,230,9 M230,8c-3.312,0-6,2.687-6,6c0,3.312,2.688,6,6,6
				s6-2.688,6-6C236,10.687,233.312,8,230,8L230,8z"/>
		</g>
	</g>
	<path d="M240.586,19.172l-2.141-2.141C238.791,16.082,239,15.068,239,14c0-4.962-4.037-9-9-9s-9,4.038-9,9c0,4.963,4.037,9,9,9
		c1.068,0,2.082-0.209,3.031-0.555l2.141,2.141c0.766,0.766,1.814,1.205,2.879,1.205c1.014,0,1.957-0.385,2.656-1.084
		C242.199,23.215,242.146,20.731,240.586,19.172z M230,21c-3.859,0-7-3.141-7-7c0-3.86,3.141-7,7-7s7,3.14,7,7
		c0,1.267-0.344,2.453-0.935,3.479c0,0,0,0,0-0.001c-0.618,1.074-1.513,1.969-2.587,2.587c0.001,0,0.001,0,0.001,0
		C232.453,20.656,231.268,21,230,21z M239.293,23.293c-0.682,0.682-1.963,0.622-2.707-0.121l-2.382-2.382
		c0.051-0.031,0.106-0.056,0.155-0.088c0.936-0.609,1.732-1.407,2.342-2.341c0.033-0.051,0.058-0.106,0.089-0.157l2.382,2.382
		C239.951,21.365,240.006,22.58,239.293,23.293z"/>
	<g>
		<path style="fill:#FFFFFF;" d="M237,14c0-3.86-3.141-7-7-7s-7,3.14-7,7c0,3.859,3.141,7,7,7c1.268,0,2.453-0.344,3.479-0.935
			c0,0,0,0-0.001,0c1.074-0.618,1.969-1.513,2.587-2.587c0,0.001,0,0.001,0,0.001C236.656,16.453,237,15.267,237,14z M230,20
			c-3.312,0-6-2.688-6-6c0-3.313,2.688-6,6-6s6,2.687,6,6C236,17.312,233.312,20,230,20z"/>
	</g>
	<g>
		<path style="fill:#FFFFFF;" d="M129,14c0-3.86-3.141-7-7-7s-7,3.14-7,7c0,3.859,3.141,7,7,7c1.268,0,2.453-0.344,3.479-0.935
			c0,0,0,0-0.001,0c1.074-0.618,1.969-1.513,2.587-2.587c0,0.001,0,0.001,0,0.001C128.656,16.453,129,15.267,129,14z M122,20
			c-3.312,0-6-2.688-6-6c0-3.313,2.688-6,6-6s6,2.687,6,6C128,17.312,125.312,20,122,20z"/>
	</g>
	<g>
		<g>
			<path d="M266,9c2.757,0,5,2.243,5,5s-2.243,5-5,5s-5-2.243-5-5S263.243,9,266,9 M266,8c-3.312,0-6,2.687-6,6c0,3.312,2.688,6,6,6
				s6-2.688,6-6C272,10.687,269.312,8,266,8L266,8z"/>
		</g>
	</g>
	<path d="M276.586,19.172l-2.141-2.141C274.791,16.082,275,15.068,275,14c0-4.962-4.037-9-9-9s-9,4.038-9,9c0,4.963,4.037,9,9,9
		c1.068,0,2.082-0.209,3.031-0.555l2.141,2.141c0.766,0.766,1.814,1.205,2.879,1.205c1.014,0,1.957-0.385,2.656-1.084
		C278.199,23.215,278.146,20.731,276.586,19.172z M266,21c-3.859,0-7-3.141-7-7c0-3.86,3.141-7,7-7s7,3.14,7,7
		c0,1.267-0.344,2.453-0.935,3.479c0,0,0,0,0-0.001c-0.618,1.074-1.513,1.969-2.587,2.587c0.001,0,0.001,0,0.001,0
		C268.453,20.656,267.268,21,266,21z M275.293,23.293c-0.682,0.682-1.963,0.622-2.707-0.121l-2.382-2.382
		c0.051-0.031,0.106-0.056,0.155-0.088c0.936-0.609,1.732-1.407,2.342-2.341c0.033-0.051,0.058-0.106,0.089-0.157l2.382,2.382
		C275.951,21.365,276.006,22.58,275.293,23.293z"/>
	<g>
		<path style="fill:#FFFFFF;" d="M273,14c0-3.86-3.141-7-7-7s-7,3.14-7,7c0,3.859,3.141,7,7,7c1.268,0,2.453-0.344,3.479-0.935
			c0,0,0,0-0.001,0c1.074-0.618,1.969-1.513,2.587-2.587c0,0.001,0,0.001,0,0.001C272.656,16.453,273,15.267,273,14z M266,20
			c-3.312,0-6-2.688-6-6c0-3.313,2.688-6,6-6s6,2.687,6,6C272,17.312,269.312,20,266,20z"/>
	</g>
	<g>
		<g>
			<path d="M302,9c2.757,0,5,2.243,5,5s-2.243,5-5,5s-5-2.243-5-5S299.243,9,302,9 M302,8c-3.312,0-6,2.687-6,6c0,3.312,2.688,6,6,6
				s6-2.688,6-6C308,10.687,305.312,8,302,8L302,8z"/>
		</g>
	</g>
	<path d="M312.586,19.172l-2.141-2.141C310.791,16.082,311,15.068,311,14c0-4.963-4.037-9-9-9s-9,4.037-9,9s4.037,9,9,9
		c1.068,0,2.082-0.209,3.031-0.555l2.141,2.141c0.766,0.766,1.814,1.205,2.879,1.205c1.014,0,1.957-0.385,2.656-1.084
		C314.199,23.215,314.146,20.731,312.586,19.172z M302,21c-3.859,0-7-3.141-7-7s3.141-7,7-7s7,3.141,7,7
		c0,1.268-0.344,2.453-0.935,3.479c0,0,0,0,0-0.001c-0.618,1.074-1.513,1.969-2.587,2.587c0.001,0,0.001,0,0.001,0
		C304.453,20.656,303.268,21,302,21z M311.293,23.293c-0.682,0.682-1.963,0.622-2.707-0.121l-2.382-2.382
		c0.051-0.031,0.106-0.056,0.155-0.088c0.936-0.609,1.732-1.407,2.342-2.341c0.033-0.051,0.058-0.106,0.089-0.157l2.382,2.382
		C311.951,21.365,312.006,22.58,311.293,23.293z"/>
	<g>
		<path style="fill:#FFFFFF;" d="M309,14c0-3.859-3.141-7-7-7s-7,3.141-7,7s3.141,7,7,7c1.268,0,2.453-0.344,3.479-0.935
			c0,0,0,0-0.001,0c1.074-0.618,1.969-1.513,2.587-2.587c0,0.001,0,0.001,0,0.001C308.656,16.453,309,15.268,309,14z M302,20
			c-3.312,0-6-2.688-6-6c0-3.313,2.688-6,6-6s6,2.687,6,6C308,17.312,305.312,20,302,20z"/>
	</g>
	<g>
		<path style="fill:#FFFFFF;" d="M345,14c0-3.859-3.141-7-7-7s-7,3.141-7,7s3.141,7,7,7c1.268,0,2.453-0.344,3.479-0.935
			c0,0,0,0-0.001,0c1.074-0.618,1.969-1.513,2.587-2.587c0,0.001,0,0.001,0,0.001C344.656,16.453,345,15.268,345,14z M338,20
			c-3.312,0-6-2.688-6-6c0-3.313,2.688-6,6-6s6,2.687,6,6C344,17.312,341.312,20,338,20z"/>
	</g>
	<g>
		<path style="fill:#FFFFFF;" d="M381,14c0-3.859-3.141-7-7-7s-7,3.141-7,7s3.141,7,7,7c1.268,0,2.453-0.344,3.479-0.935
			c0,0,0,0-0.001,0c1.074-0.618,1.969-1.513,2.587-2.587c0,0.001,0,0.001,0,0.001C380.656,16.453,381,15.268,381,14z M374,20
			c-3.312,0-6-2.688-6-6c0-3.313,2.688-6,6-6s6,2.687,6,6C380,17.312,377.312,20,374,20z"/>
	</g>
	<g>
		<path style="fill:#FFFFFF;" d="M417,14c0-3.859-3.141-7-7-7s-7,3.141-7,7s3.141,7,7,7c1.268,0,2.453-0.344,3.479-0.935
			c0,0,0,0-0.001,0c1.074-0.618,1.969-1.513,2.587-2.587c0,0.001,0,0.001,0,0.001C416.656,16.453,417,15.268,417,14z M410,20
			c-3.312,0-6-2.688-6-6c0-3.313,2.688-6,6-6s6,2.687,6,6C416,17.312,413.312,20,410,20z"/>
	</g>
	<g>
		<path style="fill:#FFFFFF;" d="M453,14c0-3.859-3.141-7-7-7s-7,3.141-7,7s3.141,7,7,7c1.268,0,2.453-0.344,3.479-0.935
			c0,0,0,0-0.001,0c1.074-0.618,1.969-1.513,2.587-2.587c0,0.001,0,0.001,0,0.001C452.656,16.453,453,15.268,453,14z M446,20
			c-3.312,0-6-2.688-6-6c0-3.313,2.688-6,6-6s6,2.687,6,6C452,17.312,449.312,20,446,20z"/>
	</g>
	<g>
		<path style="fill:#FFFFFF;" d="M489,14c0-3.859-3.141-7-7-7s-7,3.141-7,7s3.141,7,7,7c1.268,0,2.453-0.344,3.479-0.935
			c0,0,0,0-0.001,0c1.074-0.618,1.969-1.513,2.587-2.587c0,0.001,0,0.001,0,0.001C488.656,16.453,489,15.268,489,14z M482,20
			c-3.312,0-6-2.688-6-6c0-3.313,2.688-6,6-6s6,2.687,6,6C488,17.312,485.312,20,482,20z"/>
	</g>
	<g>
		<path style="fill:#FFFFFF;" d="M525,14c0-3.859-3.141-7-7-7s-7,3.141-7,7s3.141,7,7,7c1.268,0,2.453-0.344,3.479-0.935
			c0,0,0,0-0.001,0c1.074-0.618,1.969-1.513,2.587-2.587c0,0.001,0,0.001,0,0.001C524.656,16.453,525,15.268,525,14z M518,20
			c-3.312,0-6-2.688-6-6c0-3.313,2.688-6,6-6s6,2.687,6,6C524,17.312,521.312,20,518,20z"/>
	</g>
	<g>
		<path style="fill:#FFFFFF;" d="M561,14c0-3.859-3.141-7-7-7s-7,3.141-7,7s3.141,7,7,7c1.268,0,2.453-0.344,3.479-0.935
			c0,0,0,0-0.001,0c1.074-0.618,1.969-1.513,2.587-2.587c0,0.001,0,0.001,0,0.001C560.656,16.453,561,15.268,561,14z M554,20
			c-3.312,0-6-2.688-6-6c0-3.313,2.688-6,6-6s6,2.687,6,6C560,17.312,557.312,20,554,20z"/>
	</g>
	<g>
		<path style="fill:#FFFFFF;" d="M1,14L1,14c0,0,0-1,2-1H0v2h3C1,15,1,14,1,14z"/>
		<path style="fill:#FFFFFF;" d="M31,14L31,14c0,0,0,1-2,1h3v-2h-3C31,13,31,14,31,14z"/>
		<path style="fill:#FFFFFF;" d="M37,14L37,14c0,0,0-1,2-1h-3v2h3C37,15,37,14,37,14z"/>
		<path style="fill:#FFFFFF;" d="M67,14L67,14c0,0,0,1-2,1h3v-2h-3C67,13,67,14,67,14z"/>
		<path style="fill:#FFFFFF;" d="M73,14L73,14c0,0,0-1,2-1h-3v2h3C73,15,73,14,73,14z"/>
		<path style="fill:#FFFFFF;" d="M103,14L103,14c0,0,0,1-2,1h3v-2h-3C103,13,103,14,103,14z"/>
		<path style="fill:#FFFFFF;" d="M109,14L109,14c0,0,0-1,2-1h-3v2h3C109,15,109,14,109,14z"/>
		<path style="fill:#FFFFFF;" d="M139,14L139,14c0,0,0,1-2,1h3v-2h-3C139,13,139,14,139,14z"/>
		<path style="fill:#FFFFFF;" d="M145,14L145,14c0,0,0-1,2-1h-3v2h3C145,15,145,14,145,14z"/>
		<path style="fill:#FFFFFF;" d="M175,14L175,14c0,0,0,1-2,1h3v-2h-3C175,13,175,14,175,14z"/>
		<path style="fill:#FFFFFF;" d="M181,14L181,14c0,0,0-1,2-1h-3v2h3C181,15,181,14,181,14z"/>
		<path style="fill:#FFFFFF;" d="M211,14L211,14c0,0,0,1-2,1h3v-2h-3C211,13,211,14,211,14z"/>
		<path style="fill:#FFFFFF;" d="M217,14L217,14c0,0,0-1,2-1h-3v2h3C217,15,217,14,217,14z"/>
		<path style="fill:#FFFFFF;" d="M247,14L247,14c0,0,0,1-2,1h3v-2h-3C247,13,247,14,247,14z"/>
		<path style="fill:#FFFFFF;" d="M253,14L253,14c0,0,0-1,2-1h-3v2h3C253,15,253,14,253,14z"/>
		<path style="fill:#FFFFFF;" d="M283,14L283,14c0,0,0,1-2,1h3v-2h-3C283,13,283,14,283,14z"/>
		<path style="fill:#FFFFFF;" d="M289,14L289,14c0,0,0-1,2-1h-3v2h3C289,15,289,14,289,14z"/>
		<path style="fill:#FFFFFF;" d="M319,14L319,14c0,0,0,1-2,1h3v-2h-3C319,13,319,14,319,14z"/>
		<path style="fill:#FFFFFF;" d="M325,14L325,14c0,0,0-1,2-1h-3v2h3C325,15,325,14,325,14z"/>
		<path style="fill:#FFFFFF;" d="M355,14L355,14c0,0,0,1-2,1h3v-2h-3C355,13,355,14,355,14z"/>
		<path style="fill:#FFFFFF;" d="M361,14L361,14c0,0,0-1,2-1h-3v2h3C361,15,361,14,361,14z"/>
		<path style="fill:#FFFFFF;" d="M391,14L391,14c0,0,0,1-2,1h3v-2h-3C391,13,391,14,391,14z"/>
		<path style="fill:#FFFFFF;" d="M397,14L397,14c0,0,0-1,2-1h-3v2h3C397,15,397,14,397,14z"/>
		<path style="fill:#FFFFFF;" d="M427,14L427,14c0,0,0,1-2,1h3v-2h-3C427,13,427,14,427,14z"/>
		<path style="fill:#FFFFFF;" d="M433,14L433,14c0,0,0-1,2-1h-3v2h3C433,15,433,14,433,14z"/>
		<path style="fill:#FFFFFF;" d="M463,14L463,14c0,0,0,1-2,1h3v-2h-3C463,13,463,14,463,14z"/>
		<path style="fill:#FFFFFF;" d="M469,14L469,14c0,0,0-1,2-1h-3v2h3C469,15,469,14,469,14z"/>
		<path style="fill:#FFFFFF;" d="M499,14L499,14c0,0,0,1-2,1h3v-2h-3C499,13,499,14,499,14z"/>
		<path style="fill:#FFFFFF;" d="M505,14L505,14c0,0,0-1,2-1h-3v2h3C505,15,505,14,505,14z"/>
		<path style="fill:#FFFFFF;" d="M535,14L535,14c0,0,0,1-2,1h3v-2h-3C535,13,535,14,535,14z"/>
		<path style="fill:#FFFFFF;" d="M541,14L541,14c0,0,0-1,2-1h-3v2h3C541,15,541,14,541,14z"/>
		<path style="fill:#FFFFFF;" d="M571,14L571,14c0,0,0,1-2,1h3v-2h-3C571,13,571,14,571,14z"/>
	</g>
</g>
<g id="nyt_x5F_exporter_x5F_info" style="display:none;">
</g>
</svg>
