<?xml version="1.0" encoding="iso-8859-1"?>
<!-- Generator: Adobe Illustrator 16.2.1, SVG Export Plug-In . SVG Version: 6.00 Build 0)  -->
<!DOCTYPE svg PUBLIC "-//W3C//DTD SVG 1.1 Basic//EN" "http://www.w3.org/Graphics/SVG/1.1/DTD/svg11-basic.dtd">
<svg version="1.1" baseProfile="basic" xmlns="http://www.w3.org/2000/svg" xmlns:xlink="http://www.w3.org/1999/xlink" x="0px"
	 y="0px" width="572px" height="32px" viewBox="0 0 572 32" xml:space="preserve">
<g id="Layer_2_copy">
</g>
<g id="Layer_2">
</g>
<g id="Layer_1">
</g>
<g id="nyt_x5F_exporter_x5F_info" style="display:none;">
	<g style="display:inline;">
		<path d="M221.879,7.286l5.565-2.867v0.828l-4.689,2.351v0.023l4.689,2.352V10.8l-5.565-2.866V7.286z"/>
		<path d="M229.115,6.566c0-0.6-0.012-1.092-0.048-1.571h0.936l0.06,0.959h0.024c0.288-0.552,0.959-1.091,1.919-1.091
			c0.803,0,2.051,0.479,2.051,2.471V10.8h-1.056V7.454c0-0.936-0.348-1.716-1.343-1.716c-0.695,0-1.235,0.492-1.415,1.08
			c-0.048,0.132-0.072,0.312-0.072,0.491v3.49h-1.056V6.566z"/>
		<path d="M236.003,4.995l1.271,3.43c0.132,0.384,0.276,0.84,0.372,1.188h0.024c0.108-0.348,0.228-0.791,0.372-1.211l1.151-3.406
			h1.115l-1.583,4.138c-0.756,1.991-1.271,3.01-1.991,3.634c-0.516,0.456-1.031,0.636-1.295,0.684l-0.264-0.888
			c0.264-0.084,0.612-0.252,0.924-0.516c0.288-0.228,0.647-0.636,0.887-1.175c0.048-0.108,0.084-0.192,0.084-0.252
			c0-0.061-0.024-0.145-0.072-0.276l-2.147-5.349H236.003z"/>
		<path d="M242.542,3.328v1.667h1.511v0.804h-1.511v3.13c0,0.72,0.204,1.128,0.792,1.128c0.276,0,0.479-0.036,0.611-0.072
			l0.048,0.791c-0.204,0.084-0.528,0.145-0.936,0.145c-0.492,0-0.888-0.156-1.14-0.444c-0.3-0.312-0.408-0.827-0.408-1.511V5.799
			h-0.899V4.995h0.899V3.604L242.542,3.328z"/>
		<path d="M250.364,11.699v0.6h-5.997v-0.6H250.364z"/>
		<path d="M251.831,8.089c0.024,1.428,0.936,2.016,1.991,2.016c0.755,0,1.211-0.132,1.607-0.3l0.18,0.755
			c-0.372,0.168-1.007,0.36-1.931,0.36c-1.787,0-2.854-1.176-2.854-2.927s1.032-3.13,2.723-3.13c1.895,0,2.399,1.667,2.399,2.734
			c0,0.216-0.024,0.384-0.036,0.491H251.831z M254.925,7.334c0.012-0.672-0.276-1.715-1.463-1.715c-1.067,0-1.535,0.983-1.619,1.715
			H254.925z"/>
		<path d="M257.711,4.995l0.828,1.247c0.216,0.324,0.396,0.624,0.587,0.947h0.036c0.192-0.348,0.384-0.647,0.576-0.959l0.815-1.235
			h1.14l-1.979,2.807l2.039,2.998h-1.2l-0.851-1.308c-0.228-0.336-0.42-0.659-0.624-1.007h-0.024
			c-0.192,0.348-0.396,0.659-0.612,1.007l-0.839,1.308h-1.164l2.063-2.962l-1.967-2.843H257.711z"/>
		<path d="M262.775,6.89c0-0.743-0.024-1.343-0.048-1.895h0.947l0.048,0.995h0.024c0.432-0.707,1.115-1.127,2.062-1.127
			c1.403,0,2.459,1.188,2.459,2.95c0,2.087-1.271,3.118-2.639,3.118c-0.768,0-1.439-0.336-1.787-0.911h-0.024v3.154h-1.043V6.89z
			 M263.818,8.438c0,0.155,0.024,0.3,0.048,0.432c0.192,0.731,0.828,1.235,1.583,1.235c1.116,0,1.763-0.912,1.763-2.243
			c0-1.163-0.612-2.159-1.727-2.159c-0.72,0-1.391,0.517-1.595,1.308c-0.036,0.132-0.072,0.288-0.072,0.432V8.438z"/>
		<path d="M274.856,7.85c0,2.146-1.487,3.082-2.89,3.082c-1.571,0-2.783-1.151-2.783-2.986c0-1.943,1.271-3.082,2.878-3.082
			C273.729,4.863,274.856,6.074,274.856,7.85z M270.25,7.909c0,1.271,0.732,2.231,1.763,2.231c1.007,0,1.763-0.948,1.763-2.255
			c0-0.983-0.492-2.231-1.739-2.231C270.791,5.654,270.25,6.806,270.25,7.909z"/>
		<path d="M276.191,6.806c0-0.684-0.012-1.271-0.048-1.811h0.923l0.036,1.14h0.048c0.264-0.78,0.899-1.271,1.607-1.271
			c0.12,0,0.204,0.012,0.3,0.036v0.995c-0.108-0.024-0.216-0.036-0.36-0.036c-0.744,0-1.271,0.563-1.416,1.355
			c-0.024,0.144-0.048,0.312-0.048,0.491V10.8h-1.043V6.806z"/>
		<path d="M281.674,3.328v1.667h1.511v0.804h-1.511v3.13c0,0.72,0.204,1.128,0.792,1.128c0.276,0,0.479-0.036,0.611-0.072
			l0.048,0.791c-0.204,0.084-0.528,0.145-0.936,0.145c-0.492,0-0.888-0.156-1.14-0.444c-0.3-0.312-0.408-0.827-0.408-1.511V5.799
			h-0.899V4.995h0.899V3.604L281.674,3.328z"/>
		<path d="M289.496,11.699v0.6h-5.997v-0.6H289.496z"/>
		<path d="M294.513,10.584c-0.276,0.144-0.888,0.336-1.668,0.336c-1.751,0-2.89-1.188-2.89-2.963c0-1.787,1.223-3.082,3.118-3.082
			c0.623,0,1.175,0.156,1.463,0.3l-0.239,0.815c-0.252-0.144-0.648-0.275-1.224-0.275c-1.331,0-2.051,0.983-2.051,2.194
			c0,1.344,0.863,2.171,2.015,2.171c0.6,0,0.995-0.156,1.295-0.288L294.513,10.584z"/>
		<path d="M300.932,7.85c0,2.146-1.487,3.082-2.891,3.082c-1.571,0-2.782-1.151-2.782-2.986c0-1.943,1.271-3.082,2.878-3.082
			C299.804,4.863,300.932,6.074,300.932,7.85z M296.326,7.909c0,1.271,0.731,2.231,1.763,2.231c1.008,0,1.763-0.948,1.763-2.255
			c0-0.983-0.491-2.231-1.738-2.231C296.865,5.654,296.326,6.806,296.326,7.909z"/>
		<path d="M307.279,2.284v7.017c0,0.516,0.012,1.104,0.048,1.499h-0.947l-0.048-1.008h-0.024c-0.323,0.648-1.031,1.14-1.979,1.14
			c-1.403,0-2.482-1.188-2.482-2.95c-0.013-1.931,1.188-3.118,2.603-3.118c0.888,0,1.487,0.42,1.751,0.888h0.023V2.284H307.279z
			 M306.224,7.357c0-0.132-0.012-0.312-0.048-0.443c-0.155-0.672-0.731-1.224-1.523-1.224c-1.091,0-1.738,0.96-1.738,2.243
			c0,1.175,0.575,2.146,1.715,2.146c0.708,0,1.355-0.468,1.547-1.259c0.036-0.145,0.048-0.288,0.048-0.456V7.357z"/>
		<path d="M309.622,8.089c0.024,1.428,0.936,2.016,1.991,2.016c0.756,0,1.211-0.132,1.607-0.3l0.18,0.755
			c-0.372,0.168-1.008,0.36-1.931,0.36c-1.787,0-2.854-1.176-2.854-2.927s1.031-3.13,2.723-3.13c1.895,0,2.398,1.667,2.398,2.734
			c0,0.216-0.024,0.384-0.036,0.491H309.622z M312.717,7.334c0.012-0.672-0.276-1.715-1.463-1.715c-1.067,0-1.535,0.983-1.619,1.715
			H312.717z"/>
		<path d="M320.527,7.945l-5.564,2.854V9.973l4.725-2.352V7.598l-4.725-2.351V4.419l5.564,2.854V7.945z"/>
		<path d="M325.413,10.8l-0.084-0.731h-0.036c-0.324,0.456-0.947,0.863-1.775,0.863c-1.175,0-1.774-0.827-1.774-1.667
			c0-1.403,1.247-2.171,3.49-2.159V6.986c0-0.48-0.132-1.344-1.319-1.344c-0.54,0-1.104,0.168-1.512,0.432l-0.239-0.695
			c0.479-0.312,1.175-0.516,1.906-0.516c1.775,0,2.207,1.211,2.207,2.374v2.171c0,0.504,0.024,0.996,0.096,1.392H325.413z
			 M325.257,7.838c-1.151-0.024-2.458,0.18-2.458,1.307c0,0.684,0.455,1.008,0.995,1.008c0.756,0,1.235-0.479,1.403-0.972
			c0.036-0.108,0.06-0.228,0.06-0.336V7.838z"/>
		<path d="M327.982,6.806c0-0.684-0.013-1.271-0.049-1.811h0.924l0.036,1.14h0.048c0.264-0.78,0.899-1.271,1.607-1.271
			c0.12,0,0.203,0.012,0.3,0.036v0.995c-0.108-0.024-0.216-0.036-0.36-0.036c-0.743,0-1.271,0.563-1.415,1.355
			c-0.023,0.144-0.048,0.312-0.048,0.491V10.8h-1.043V6.806z"/>
		<path d="M333.465,3.328v1.667h1.512v0.804h-1.512v3.13c0,0.72,0.204,1.128,0.792,1.128c0.275,0,0.479-0.036,0.611-0.072
			l0.048,0.791c-0.203,0.084-0.527,0.145-0.936,0.145c-0.491,0-0.887-0.156-1.139-0.444c-0.3-0.312-0.408-0.827-0.408-1.511V5.799
			h-0.899V4.995h0.899V3.604L333.465,3.328z"/>
		<path d="M336.117,10.8c0.024-0.396,0.049-0.983,0.049-1.499V2.284h1.043v3.646h0.024c0.371-0.647,1.043-1.067,1.979-1.067
			c1.439,0,2.459,1.199,2.446,2.962c0,2.075-1.307,3.106-2.603,3.106c-0.839,0-1.511-0.324-1.942-1.092h-0.036l-0.048,0.96H336.117z
			 M337.209,8.473c0,0.133,0.024,0.265,0.048,0.384c0.204,0.732,0.815,1.235,1.583,1.235c1.104,0,1.764-0.899,1.764-2.23
			c0-1.163-0.6-2.159-1.728-2.159c-0.72,0-1.392,0.492-1.607,1.296c-0.023,0.12-0.06,0.264-0.06,0.432V8.473z"/>
		<path d="M348.247,7.85c0,2.146-1.487,3.082-2.891,3.082c-1.571,0-2.782-1.151-2.782-2.986c0-1.943,1.271-3.082,2.878-3.082
			C347.119,4.863,348.247,6.074,348.247,7.85z M343.642,7.909c0,1.271,0.731,2.231,1.763,2.231c1.008,0,1.763-0.948,1.763-2.255
			c0-0.983-0.491-2.231-1.738-2.231C344.181,5.654,343.642,6.806,343.642,7.909z"/>
		<path d="M352.796,10.8l-0.084-0.731h-0.036c-0.324,0.456-0.947,0.863-1.775,0.863c-1.175,0-1.774-0.827-1.774-1.667
			c0-1.403,1.247-2.171,3.49-2.159V6.986c0-0.48-0.132-1.344-1.319-1.344c-0.54,0-1.104,0.168-1.512,0.432l-0.239-0.695
			c0.479-0.312,1.175-0.516,1.906-0.516c1.775,0,2.207,1.211,2.207,2.374v2.171c0,0.504,0.024,0.996,0.096,1.392H352.796z
			 M352.64,7.838c-1.151-0.024-2.458,0.18-2.458,1.307c0,0.684,0.455,1.008,0.995,1.008c0.756,0,1.235-0.479,1.403-0.972
			c0.036-0.108,0.06-0.228,0.06-0.336V7.838z"/>
		<path d="M355.366,6.806c0-0.684-0.013-1.271-0.049-1.811h0.924l0.036,1.14h0.048c0.264-0.78,0.899-1.271,1.607-1.271
			c0.12,0,0.204,0.012,0.3,0.036v0.995c-0.108-0.024-0.216-0.036-0.36-0.036c-0.743,0-1.271,0.563-1.415,1.355
			c-0.023,0.144-0.048,0.312-0.048,0.491V10.8h-1.043V6.806z"/>
		<path d="M364.183,2.284v7.017c0,0.516,0.012,1.104,0.048,1.499h-0.947l-0.048-1.008h-0.024c-0.323,0.648-1.031,1.14-1.979,1.14
			c-1.403,0-2.482-1.188-2.482-2.95c-0.013-1.931,1.188-3.118,2.603-3.118c0.888,0,1.487,0.42,1.751,0.888h0.023V2.284H364.183z
			 M363.127,7.357c0-0.132-0.012-0.312-0.048-0.443c-0.155-0.672-0.731-1.224-1.522-1.224c-1.092,0-1.739,0.96-1.739,2.243
			c0,1.175,0.575,2.146,1.715,2.146c0.708,0,1.355-0.468,1.547-1.259c0.036-0.145,0.048-0.288,0.048-0.456V7.357z"/>
		<path d="M365.794,9.721c0.312,0.203,0.863,0.42,1.392,0.42c0.768,0,1.127-0.384,1.127-0.864c0-0.504-0.3-0.779-1.079-1.067
			c-1.044-0.371-1.535-0.947-1.535-1.643c0-0.936,0.756-1.703,2.003-1.703c0.588,0,1.104,0.168,1.427,0.359l-0.264,0.768
			c-0.228-0.144-0.647-0.336-1.188-0.336c-0.623,0-0.971,0.36-0.971,0.792c0,0.479,0.348,0.695,1.103,0.983
			c1.008,0.384,1.523,0.888,1.523,1.751c0,1.02-0.791,1.739-2.171,1.739c-0.636,0-1.223-0.156-1.631-0.396L365.794,9.721z"/>
		<path d="M370.606,7.286l5.564-2.867v0.828l-4.689,2.351v0.023l4.689,2.352V10.8l-5.564-2.866V7.286z"/>
		<path d="M376.954,11.279l3.346-8.695h0.815l-3.357,8.695H376.954z"/>
		<path d="M381.958,6.566c0-0.6-0.013-1.092-0.049-1.571h0.936l0.061,0.959h0.023c0.288-0.552,0.96-1.091,1.919-1.091
			c0.804,0,2.051,0.479,2.051,2.471V10.8h-1.055V7.454c0-0.936-0.348-1.716-1.344-1.716c-0.695,0-1.235,0.492-1.415,1.08
			c-0.048,0.132-0.072,0.312-0.072,0.491v3.49h-1.055V6.566z"/>
		<path d="M388.846,4.995l1.271,3.43c0.132,0.384,0.276,0.84,0.372,1.188h0.024c0.107-0.348,0.228-0.791,0.371-1.211l1.151-3.406
			h1.115l-1.583,4.138c-0.755,1.991-1.271,3.01-1.99,3.634c-0.516,0.456-1.032,0.636-1.296,0.684l-0.264-0.888
			c0.264-0.084,0.611-0.252,0.924-0.516c0.288-0.228,0.647-0.636,0.888-1.175c0.048-0.108,0.084-0.192,0.084-0.252
			c0-0.061-0.024-0.145-0.072-0.276l-2.146-5.349H388.846z"/>
		<path d="M395.385,3.328v1.667h1.512v0.804h-1.512v3.13c0,0.72,0.204,1.128,0.792,1.128c0.275,0,0.479-0.036,0.611-0.072
			l0.048,0.791c-0.203,0.084-0.527,0.145-0.936,0.145c-0.491,0-0.887-0.156-1.139-0.444c-0.3-0.312-0.408-0.827-0.408-1.511V5.799
			h-0.899V4.995h0.899V3.604L395.385,3.328z"/>
		<path d="M403.207,11.699v0.6h-5.997v-0.6H403.207z"/>
		<path d="M404.673,8.089c0.024,1.428,0.936,2.016,1.991,2.016c0.756,0,1.211-0.132,1.607-0.3l0.18,0.755
			c-0.372,0.168-1.008,0.36-1.931,0.36c-1.787,0-2.854-1.176-2.854-2.927s1.031-3.13,2.723-3.13c1.895,0,2.398,1.667,2.398,2.734
			c0,0.216-0.024,0.384-0.036,0.491H404.673z M407.768,7.334c0.012-0.672-0.276-1.715-1.463-1.715c-1.067,0-1.535,0.983-1.619,1.715
			H407.768z"/>
		<path d="M410.553,4.995l0.827,1.247c0.217,0.324,0.396,0.624,0.588,0.947h0.036c0.192-0.348,0.384-0.647,0.576-0.959l0.815-1.235
			h1.139l-1.979,2.807l2.039,2.998h-1.199l-0.852-1.308c-0.229-0.336-0.42-0.659-0.624-1.007h-0.023
			c-0.192,0.348-0.396,0.659-0.612,1.007l-0.839,1.308h-1.164l2.063-2.962l-1.968-2.843H410.553z"/>
		<path d="M415.618,6.89c0-0.743-0.024-1.343-0.049-1.895h0.948l0.048,0.995h0.023c0.432-0.707,1.115-1.127,2.063-1.127
			c1.403,0,2.458,1.188,2.458,2.95c0,2.087-1.271,3.118-2.639,3.118c-0.768,0-1.438-0.336-1.786-0.911h-0.024v3.154h-1.043V6.89z
			 M416.661,8.438c0,0.155,0.024,0.3,0.048,0.432c0.192,0.731,0.828,1.235,1.583,1.235c1.115,0,1.764-0.912,1.764-2.243
			c0-1.163-0.612-2.159-1.728-2.159c-0.72,0-1.392,0.517-1.595,1.308c-0.036,0.132-0.072,0.288-0.072,0.432V8.438z"/>
		<path d="M427.698,7.85c0,2.146-1.487,3.082-2.891,3.082c-1.571,0-2.782-1.151-2.782-2.986c0-1.943,1.271-3.082,2.878-3.082
			C426.57,4.863,427.698,6.074,427.698,7.85z M423.093,7.909c0,1.271,0.731,2.231,1.763,2.231c1.008,0,1.763-0.948,1.763-2.255
			c0-0.983-0.491-2.231-1.738-2.231C423.632,5.654,423.093,6.806,423.093,7.909z"/>
		<path d="M429.033,6.806c0-0.684-0.013-1.271-0.049-1.811h0.924l0.036,1.14h0.048c0.264-0.78,0.899-1.271,1.607-1.271
			c0.12,0,0.203,0.012,0.3,0.036v0.995c-0.108-0.024-0.216-0.036-0.36-0.036c-0.743,0-1.271,0.563-1.415,1.355
			c-0.023,0.144-0.048,0.312-0.048,0.491V10.8h-1.043V6.806z"/>
		<path d="M434.516,3.328v1.667h1.512v0.804h-1.512v3.13c0,0.72,0.204,1.128,0.792,1.128c0.275,0,0.479-0.036,0.611-0.072
			l0.048,0.791c-0.203,0.084-0.527,0.145-0.936,0.145c-0.491,0-0.887-0.156-1.139-0.444c-0.3-0.312-0.408-0.827-0.408-1.511V5.799
			h-0.899V4.995h0.899V3.604L434.516,3.328z"/>
		<path d="M442.338,11.699v0.6h-5.997v-0.6H442.338z"/>
		<path d="M447.354,10.584c-0.276,0.144-0.888,0.336-1.668,0.336c-1.751,0-2.89-1.188-2.89-2.963c0-1.787,1.223-3.082,3.118-3.082
			c0.623,0,1.175,0.156,1.463,0.3l-0.239,0.815c-0.252-0.144-0.648-0.275-1.224-0.275c-1.331,0-2.051,0.983-2.051,2.194
			c0,1.344,0.863,2.171,2.015,2.171c0.6,0,0.995-0.156,1.295-0.288L447.354,10.584z"/>
		<path d="M453.774,7.85c0,2.146-1.487,3.082-2.891,3.082c-1.571,0-2.782-1.151-2.782-2.986c0-1.943,1.271-3.082,2.878-3.082
			C452.646,4.863,453.774,6.074,453.774,7.85z M449.169,7.909c0,1.271,0.731,2.231,1.763,2.231c1.008,0,1.763-0.948,1.763-2.255
			c0-0.983-0.491-2.231-1.738-2.231C449.708,5.654,449.169,6.806,449.169,7.909z"/>
		<path d="M460.122,2.284v7.017c0,0.516,0.012,1.104,0.048,1.499h-0.947l-0.048-1.008h-0.024c-0.323,0.648-1.031,1.14-1.979,1.14
			c-1.403,0-2.482-1.188-2.482-2.95c-0.013-1.931,1.188-3.118,2.603-3.118c0.888,0,1.487,0.42,1.751,0.888h0.023V2.284H460.122z
			 M459.066,7.357c0-0.132-0.012-0.312-0.048-0.443c-0.155-0.672-0.731-1.224-1.522-1.224c-1.092,0-1.739,0.96-1.739,2.243
			c0,1.175,0.575,2.146,1.715,2.146c0.708,0,1.355-0.468,1.547-1.259c0.036-0.145,0.048-0.288,0.048-0.456V7.357z"/>
		<path d="M462.464,8.089c0.024,1.428,0.936,2.016,1.991,2.016c0.756,0,1.211-0.132,1.607-0.3l0.18,0.755
			c-0.372,0.168-1.008,0.36-1.931,0.36c-1.787,0-2.854-1.176-2.854-2.927s1.031-3.13,2.723-3.13c1.895,0,2.398,1.667,2.398,2.734
			c0,0.216-0.024,0.384-0.036,0.491H462.464z M465.559,7.334c0.012-0.672-0.276-1.715-1.463-1.715c-1.067,0-1.535,0.983-1.619,1.715
			H465.559z"/>
		<path d="M473.369,7.945l-5.564,2.854V9.973l4.725-2.352V7.598l-4.725-2.351V4.419l5.564,2.854V7.945z"/>
		<path d="M216.792,21.687l5.565-2.867v0.828l-4.689,2.351v0.023l4.689,2.352V25.2l-5.565-2.866V21.687z"/>
		<path d="M223.14,25.68l3.346-8.695h0.816l-3.358,8.695H223.14z"/>
		<path d="M228.143,20.967c0-0.6-0.012-1.092-0.048-1.571h0.936l0.06,0.959h0.024c0.288-0.552,0.959-1.091,1.919-1.091
			c0.803,0,2.051,0.479,2.051,2.471V25.2h-1.056v-3.346c0-0.936-0.348-1.716-1.343-1.716c-0.695,0-1.235,0.492-1.415,1.08
			c-0.048,0.132-0.072,0.312-0.072,0.491v3.49h-1.056V20.967z"/>
		<path d="M235.031,19.396l1.271,3.43c0.132,0.384,0.276,0.84,0.372,1.188h0.024c0.108-0.348,0.228-0.791,0.372-1.211l1.151-3.406
			h1.115l-1.583,4.138c-0.756,1.991-1.271,3.01-1.991,3.634c-0.516,0.456-1.031,0.636-1.295,0.684l-0.264-0.888
			c0.264-0.084,0.612-0.252,0.924-0.516c0.288-0.228,0.647-0.636,0.887-1.175c0.048-0.108,0.084-0.192,0.084-0.252
			c0-0.061-0.024-0.145-0.072-0.276l-2.147-5.349H235.031z"/>
		<path d="M241.571,17.729v1.667h1.511v0.804h-1.511v3.13c0,0.72,0.204,1.128,0.792,1.128c0.276,0,0.479-0.036,0.611-0.072
			l0.048,0.791c-0.204,0.084-0.528,0.145-0.936,0.145c-0.492,0-0.888-0.156-1.14-0.444c-0.3-0.312-0.408-0.827-0.408-1.511v-3.166
			h-0.899v-0.804h0.899v-1.392L241.571,17.729z"/>
		<path d="M249.392,26.1v0.6h-5.997v-0.6H249.392z"/>
		<path d="M250.271,21.29c0-0.743-0.024-1.343-0.048-1.895h0.947l0.048,0.995h0.024c0.432-0.707,1.115-1.127,2.062-1.127
			c1.403,0,2.459,1.188,2.459,2.95c0,2.087-1.271,3.118-2.639,3.118c-0.768,0-1.439-0.336-1.787-0.911h-0.024v3.154h-1.043V21.29z
			 M251.314,22.838c0,0.155,0.024,0.3,0.048,0.432c0.192,0.731,0.828,1.235,1.583,1.235c1.116,0,1.763-0.912,1.763-2.243
			c0-1.163-0.612-2.159-1.727-2.159c-0.72,0-1.391,0.517-1.595,1.308c-0.036,0.132-0.072,0.288-0.072,0.432V22.838z"/>
		<path d="M257.099,21.206c0-0.684-0.012-1.271-0.048-1.811h0.923l0.036,1.14h0.048c0.264-0.78,0.899-1.271,1.607-1.271
			c0.12,0,0.204,0.012,0.3,0.036v0.995c-0.108-0.024-0.216-0.036-0.36-0.036c-0.744,0-1.271,0.563-1.416,1.355
			c-0.024,0.144-0.048,0.312-0.048,0.491V25.2h-1.043V21.206z"/>
		<path d="M261.491,22.489c0.024,1.428,0.935,2.016,1.991,2.016c0.755,0,1.211-0.132,1.607-0.3l0.18,0.755
			c-0.372,0.168-1.007,0.36-1.931,0.36c-1.787,0-2.854-1.176-2.854-2.927s1.032-3.13,2.723-3.13c1.895,0,2.399,1.667,2.399,2.734
			c0,0.216-0.024,0.384-0.036,0.491H261.491z M264.585,21.734c0.012-0.672-0.276-1.715-1.463-1.715
			c-1.067,0-1.535,0.983-1.619,1.715H264.585z"/>
		<path d="M267.023,25.2v-5.001h-0.815v-0.804h0.815v-0.276c0-0.815,0.18-1.559,0.672-2.026c0.396-0.384,0.923-0.54,1.415-0.54
			c0.372,0,0.696,0.084,0.899,0.168l-0.144,0.815c-0.156-0.071-0.372-0.132-0.671-0.132c-0.899,0-1.127,0.792-1.127,1.68v0.312
			h1.403v0.804h-1.403V25.2H267.023z"/>
		<path d="M270.167,24.121c0.312,0.203,0.864,0.42,1.392,0.42c0.768,0,1.127-0.384,1.127-0.864c0-0.504-0.3-0.779-1.079-1.067
			c-1.043-0.371-1.535-0.947-1.535-1.643c0-0.936,0.755-1.703,2.003-1.703c0.587,0,1.104,0.168,1.427,0.359l-0.264,0.768
			c-0.228-0.144-0.647-0.336-1.187-0.336c-0.624,0-0.972,0.36-0.972,0.792c0,0.479,0.348,0.695,1.104,0.983
			c1.007,0.384,1.523,0.888,1.523,1.751c0,1.02-0.792,1.739-2.171,1.739c-0.635,0-1.223-0.156-1.631-0.396L270.167,24.121z"/>
		<path d="M280.544,22.346l-5.565,2.854v-0.827l4.726-2.352v-0.023l-4.726-2.351v-0.828l5.565,2.854V22.346z"/>
	</g>
</g>
</svg>
