<?xml version="1.0" encoding="iso-8859-1"?>
<!-- Generator: Adobe Illustrator 16.2.1, SVG Export Plug-In . SVG Version: 6.00 Build 0)  -->
<!DOCTYPE svg PUBLIC "-//W3C//DTD SVG 1.1 Basic//EN" "http://www.w3.org/Graphics/SVG/1.1/DTD/svg11-basic.dtd">
<svg version="1.1" baseProfile="basic" xmlns="http://www.w3.org/2000/svg" xmlns:xlink="http://www.w3.org/1999/xlink" x="0px"
	 y="0px" width="512px" height="32px" viewBox="0 0 512 32" xml:space="preserve">
<g id="Layer_2_copy">
</g>
<g id="Layer_2">
</g>
<g id="Layer_1">
	<g>
		<path style="fill:#FFFFFF;" d="M22,8c1.65,0,3,1.35,3,3v8c0,1.65-1.35,3-3,3H10c-1.65,0-3-1.35-3-3v-8c0-1.65,1.35-3,3-3H22z"/>
		<path style="fill:none;stroke:#000000;stroke-width:2;stroke-linecap:round;stroke-linejoin:round;stroke-miterlimit:10;" d="
			M22,8c1.65,0,3,1.35,3,3v8c0,1.65-1.35,3-3,3H10c-1.65,0-3-1.35-3-3v-8c0-1.65,1.35-3,3-3H22z"/>
	</g>
	<polyline style="fill:none;stroke:#000000;stroke-linecap:round;stroke-linejoin:round;stroke-miterlimit:10;" points="8,9 16,17 
		24,9 	"/>
	
		<line style="fill:none;stroke:#000000;stroke-linecap:round;stroke-linejoin:round;stroke-miterlimit:10;" x1="24" y1="21" x2="18" y2="15"/>
	
		<line style="fill:none;stroke:#000000;stroke-linecap:round;stroke-linejoin:round;stroke-miterlimit:10;" x1="14" y1="15" x2="8" y2="21"/>
	<g>
		<path style="fill:#FFFFFF;" d="M54,8.125c1.65,0,3,1.35,3,3v8c0,1.65-1.35,3-3,3H42c-1.65,0-3-1.35-3-3v-8c0-1.65,1.35-3,3-3H54z"
			/>
		<path style="fill:none;stroke:#000000;stroke-width:2;stroke-linecap:round;stroke-linejoin:round;stroke-miterlimit:10;" d="
			M54,8.125c1.65,0,3,1.35,3,3v8c0,1.65-1.35,3-3,3H42c-1.65,0-3-1.35-3-3v-8c0-1.65,1.35-3,3-3H54z"/>
	</g>
	<polyline style="fill:none;stroke:#000000;stroke-linecap:round;stroke-linejoin:round;stroke-miterlimit:10;" points="40,9.125 
		48,17.125 56,9.125 	"/>
	
		<line style="fill:none;stroke:#000000;stroke-linecap:round;stroke-linejoin:round;stroke-miterlimit:10;" x1="56" y1="21.125" x2="50" y2="15.125"/>
	
		<line style="fill:none;stroke:#000000;stroke-linecap:round;stroke-linejoin:round;stroke-miterlimit:10;" x1="46" y1="15.125" x2="40" y2="21.125"/>
	<g>
		<path style="fill:#FFFFFF;" d="M86,8.25c1.65,0,3,1.35,3,3v8c0,1.65-1.35,3-3,3H74c-1.65,0-3-1.35-3-3v-8c0-1.65,1.35-3,3-3H86z"
			/>
		<path style="fill:none;stroke:#000000;stroke-width:2;stroke-linecap:round;stroke-linejoin:round;stroke-miterlimit:10;" d="
			M86,8.25c1.65,0,3,1.35,3,3v8c0,1.65-1.35,3-3,3H74c-1.65,0-3-1.35-3-3v-8c0-1.65,1.35-3,3-3H86z"/>
	</g>
	<polyline style="fill:none;stroke:#000000;stroke-linecap:round;stroke-linejoin:round;stroke-miterlimit:10;" points="72,9.25 
		80,17.25 88,9.25 	"/>
	
		<line style="fill:none;stroke:#000000;stroke-linecap:round;stroke-linejoin:round;stroke-miterlimit:10;" x1="88" y1="21.25" x2="82" y2="15.25"/>
	
		<line style="fill:none;stroke:#000000;stroke-linecap:round;stroke-linejoin:round;stroke-miterlimit:10;" x1="78" y1="15.25" x2="72" y2="21.25"/>
	<g>
		<path style="fill:#FFFFFF;" d="M118,8.375c1.65,0,3,1.35,3,3v8c0,1.65-1.35,3-3,3h-12c-1.65,0-3-1.35-3-3v-8c0-1.65,1.35-3,3-3
			H118z"/>
		<path style="fill:none;stroke:#000000;stroke-width:2;stroke-linecap:round;stroke-linejoin:round;stroke-miterlimit:10;" d="
			M118,8.375c1.65,0,3,1.35,3,3v8c0,1.65-1.35,3-3,3h-12c-1.65,0-3-1.35-3-3v-8c0-1.65,1.35-3,3-3H118z"/>
	</g>
	<polyline style="fill:none;stroke:#000000;stroke-linecap:round;stroke-linejoin:round;stroke-miterlimit:10;" points="104,9.375 
		112,17.375 120,9.375 	"/>
	
		<line style="fill:none;stroke:#000000;stroke-linecap:round;stroke-linejoin:round;stroke-miterlimit:10;" x1="120" y1="21.375" x2="114" y2="15.375"/>
	
		<line style="fill:none;stroke:#000000;stroke-linecap:round;stroke-linejoin:round;stroke-miterlimit:10;" x1="110" y1="15.375" x2="104" y2="21.375"/>
	<g>
		<path style="fill:#FFFFFF;" d="M150,8.5c1.65,0,3,1.35,3,3v8c0,1.65-1.35,3-3,3h-12c-1.65,0-3-1.35-3-3v-8c0-1.65,1.35-3,3-3H150z
			"/>
		<path style="fill:none;stroke:#000000;stroke-width:2;stroke-linecap:round;stroke-linejoin:round;stroke-miterlimit:10;" d="
			M150,8.5c1.65,0,3,1.35,3,3v8c0,1.65-1.35,3-3,3h-12c-1.65,0-3-1.35-3-3v-8c0-1.65,1.35-3,3-3H150z"/>
	</g>
	<polyline style="fill:none;stroke:#000000;stroke-linecap:round;stroke-linejoin:round;stroke-miterlimit:10;" points="136,9.5 
		144,17.5 152,9.5 	"/>
	
		<line style="fill:none;stroke:#000000;stroke-linecap:round;stroke-linejoin:round;stroke-miterlimit:10;" x1="152" y1="21.5" x2="146" y2="15.5"/>
	
		<line style="fill:none;stroke:#000000;stroke-linecap:round;stroke-linejoin:round;stroke-miterlimit:10;" x1="142" y1="15.5" x2="136" y2="21.5"/>
	<g>
		<path style="fill:#FFFFFF;" d="M182,8.625c1.65,0,3,1.35,3,3v8c0,1.65-1.35,3-3,3h-12c-1.65,0-3-1.35-3-3v-8c0-1.65,1.35-3,3-3
			H182z"/>
		<path style="fill:none;stroke:#000000;stroke-width:2;stroke-linecap:round;stroke-linejoin:round;stroke-miterlimit:10;" d="
			M182,8.625c1.65,0,3,1.35,3,3v8c0,1.65-1.35,3-3,3h-12c-1.65,0-3-1.35-3-3v-8c0-1.65,1.35-3,3-3H182z"/>
	</g>
	<polyline style="fill:none;stroke:#000000;stroke-linecap:round;stroke-linejoin:round;stroke-miterlimit:10;" points="168,9.625 
		176,17.625 184,9.625 	"/>
	
		<line style="fill:none;stroke:#000000;stroke-linecap:round;stroke-linejoin:round;stroke-miterlimit:10;" x1="184" y1="21.625" x2="178" y2="15.625"/>
	
		<line style="fill:none;stroke:#000000;stroke-linecap:round;stroke-linejoin:round;stroke-miterlimit:10;" x1="174" y1="15.625" x2="168" y2="21.625"/>
	<g>
		<path style="fill:#FFFFFF;" d="M214,8.75c1.65,0,3,1.35,3,3v8c0,1.65-1.35,3-3,3h-12c-1.65,0-3-1.35-3-3v-8c0-1.65,1.35-3,3-3H214
			z"/>
		<path style="fill:none;stroke:#000000;stroke-width:2;stroke-linecap:round;stroke-linejoin:round;stroke-miterlimit:10;" d="
			M214,8.75c1.65,0,3,1.35,3,3v8c0,1.65-1.35,3-3,3h-12c-1.65,0-3-1.35-3-3v-8c0-1.65,1.35-3,3-3H214z"/>
	</g>
	<polyline style="fill:none;stroke:#000000;stroke-linecap:round;stroke-linejoin:round;stroke-miterlimit:10;" points="200,9.75 
		208,17.75 216,9.75 	"/>
	
		<line style="fill:none;stroke:#000000;stroke-linecap:round;stroke-linejoin:round;stroke-miterlimit:10;" x1="216" y1="21.75" x2="210" y2="15.75"/>
	
		<line style="fill:none;stroke:#000000;stroke-linecap:round;stroke-linejoin:round;stroke-miterlimit:10;" x1="206" y1="15.75" x2="200" y2="21.75"/>
	<g>
		<path style="fill:#FFFFFF;" d="M246,8.875c1.65,0,3,1.35,3,3v8c0,1.65-1.35,3-3,3h-12c-1.65,0-3-1.35-3-3v-8c0-1.65,1.35-3,3-3
			H246z"/>
		<path style="fill:none;stroke:#000000;stroke-width:2;stroke-linecap:round;stroke-linejoin:round;stroke-miterlimit:10;" d="
			M246,8.875c1.65,0,3,1.35,3,3v8c0,1.65-1.35,3-3,3h-12c-1.65,0-3-1.35-3-3v-8c0-1.65,1.35-3,3-3H246z"/>
	</g>
	<polyline style="fill:none;stroke:#000000;stroke-linecap:round;stroke-linejoin:round;stroke-miterlimit:10;" points="232,9.875 
		240,17.875 248,9.875 	"/>
	
		<line style="fill:none;stroke:#000000;stroke-linecap:round;stroke-linejoin:round;stroke-miterlimit:10;" x1="248" y1="21.875" x2="242" y2="15.875"/>
	
		<line style="fill:none;stroke:#000000;stroke-linecap:round;stroke-linejoin:round;stroke-miterlimit:10;" x1="238" y1="15.875" x2="232" y2="21.875"/>
	<g>
		<path style="fill:#FFFFFF;" d="M278,9c1.65,0,3,1.35,3,3v8c0,1.65-1.35,3-3,3h-12c-1.65,0-3-1.35-3-3v-8c0-1.65,1.35-3,3-3H278z"
			/>
		<path style="fill:none;stroke:#000000;stroke-width:2;stroke-linecap:round;stroke-linejoin:round;stroke-miterlimit:10;" d="
			M278,9c1.65,0,3,1.35,3,3v8c0,1.65-1.35,3-3,3h-12c-1.65,0-3-1.35-3-3v-8c0-1.65,1.35-3,3-3H278z"/>
	</g>
	<polyline style="fill:none;stroke:#000000;stroke-linecap:round;stroke-linejoin:round;stroke-miterlimit:10;" points="264,10 
		272,18 280,10 	"/>
	
		<line style="fill:none;stroke:#000000;stroke-linecap:round;stroke-linejoin:round;stroke-miterlimit:10;" x1="280" y1="22" x2="274" y2="16"/>
	
		<line style="fill:none;stroke:#000000;stroke-linecap:round;stroke-linejoin:round;stroke-miterlimit:10;" x1="270" y1="16" x2="264" y2="22"/>
	<g>
		<path style="fill:#FFFFFF;" d="M310,9.125c1.65,0,3,1.35,3,3v8c0,1.65-1.35,3-3,3h-12c-1.65,0-3-1.35-3-3v-8c0-1.65,1.35-3,3-3
			H310z"/>
		<path style="fill:none;stroke:#000000;stroke-width:2;stroke-linecap:round;stroke-linejoin:round;stroke-miterlimit:10;" d="
			M310,9.125c1.65,0,3,1.35,3,3v8c0,1.65-1.35,3-3,3h-12c-1.65,0-3-1.35-3-3v-8c0-1.65,1.35-3,3-3H310z"/>
	</g>
	<polyline style="fill:none;stroke:#000000;stroke-linecap:round;stroke-linejoin:round;stroke-miterlimit:10;" points="296,10.125 
		304,18.125 312,10.125 	"/>
	
		<line style="fill:none;stroke:#000000;stroke-linecap:round;stroke-linejoin:round;stroke-miterlimit:10;" x1="312" y1="22.125" x2="306" y2="16.125"/>
	
		<line style="fill:none;stroke:#000000;stroke-linecap:round;stroke-linejoin:round;stroke-miterlimit:10;" x1="302" y1="16.125" x2="296" y2="22.125"/>
	<g>
		<path style="fill:#FFFFFF;" d="M342,9.25c1.65,0,3,1.35,3,3v8c0,1.65-1.35,3-3,3h-12c-1.65,0-3-1.35-3-3v-8c0-1.65,1.35-3,3-3H342
			z"/>
		<path style="fill:none;stroke:#000000;stroke-width:2;stroke-linecap:round;stroke-linejoin:round;stroke-miterlimit:10;" d="
			M342,9.25c1.65,0,3,1.35,3,3v8c0,1.65-1.35,3-3,3h-12c-1.65,0-3-1.35-3-3v-8c0-1.65,1.35-3,3-3H342z"/>
	</g>
	<polyline style="fill:none;stroke:#000000;stroke-linecap:round;stroke-linejoin:round;stroke-miterlimit:10;" points="328,10.25 
		336,18.25 344,10.25 	"/>
	
		<line style="fill:none;stroke:#000000;stroke-linecap:round;stroke-linejoin:round;stroke-miterlimit:10;" x1="344" y1="22.25" x2="338" y2="16.25"/>
	
		<line style="fill:none;stroke:#000000;stroke-linecap:round;stroke-linejoin:round;stroke-miterlimit:10;" x1="334" y1="16.25" x2="328" y2="22.25"/>
	<g>
		<path style="fill:#FFFFFF;" d="M374,9.375c1.65,0,3,1.35,3,3v8c0,1.65-1.35,3-3,3h-12c-1.65,0-3-1.35-3-3v-8c0-1.65,1.35-3,3-3
			H374z"/>
		<path style="fill:none;stroke:#000000;stroke-width:2;stroke-linecap:round;stroke-linejoin:round;stroke-miterlimit:10;" d="
			M374,9.375c1.65,0,3,1.35,3,3v8c0,1.65-1.35,3-3,3h-12c-1.65,0-3-1.35-3-3v-8c0-1.65,1.35-3,3-3H374z"/>
	</g>
	<polyline style="fill:none;stroke:#000000;stroke-linecap:round;stroke-linejoin:round;stroke-miterlimit:10;" points="360,10.375 
		368,18.375 376,10.375 	"/>
	
		<line style="fill:none;stroke:#000000;stroke-linecap:round;stroke-linejoin:round;stroke-miterlimit:10;" x1="376" y1="22.375" x2="370" y2="16.375"/>
	
		<line style="fill:none;stroke:#000000;stroke-linecap:round;stroke-linejoin:round;stroke-miterlimit:10;" x1="366" y1="16.375" x2="360" y2="22.375"/>
	<g>
		<path style="fill:#FFFFFF;" d="M406,9.5c1.65,0,3,1.35,3,3v8c0,1.65-1.35,3-3,3h-12c-1.65,0-3-1.35-3-3v-8c0-1.65,1.35-3,3-3H406z
			"/>
		<path style="fill:none;stroke:#000000;stroke-width:2;stroke-linecap:round;stroke-linejoin:round;stroke-miterlimit:10;" d="
			M406,9.5c1.65,0,3,1.35,3,3v8c0,1.65-1.35,3-3,3h-12c-1.65,0-3-1.35-3-3v-8c0-1.65,1.35-3,3-3H406z"/>
	</g>
	<polyline style="fill:none;stroke:#000000;stroke-linecap:round;stroke-linejoin:round;stroke-miterlimit:10;" points="392,10.5 
		400,18.5 408,10.5 	"/>
	
		<line style="fill:none;stroke:#000000;stroke-linecap:round;stroke-linejoin:round;stroke-miterlimit:10;" x1="408" y1="22.5" x2="402" y2="16.5"/>
	
		<line style="fill:none;stroke:#000000;stroke-linecap:round;stroke-linejoin:round;stroke-miterlimit:10;" x1="398" y1="16.5" x2="392" y2="22.5"/>
	<g>
		<path style="fill:#FFFFFF;" d="M438,9.625c1.65,0,3,1.35,3,3v8c0,1.65-1.35,3-3,3h-12c-1.65,0-3-1.35-3-3v-8c0-1.65,1.35-3,3-3
			H438z"/>
		<path style="fill:none;stroke:#000000;stroke-width:2;stroke-linecap:round;stroke-linejoin:round;stroke-miterlimit:10;" d="
			M438,9.625c1.65,0,3,1.35,3,3v8c0,1.65-1.35,3-3,3h-12c-1.65,0-3-1.35-3-3v-8c0-1.65,1.35-3,3-3H438z"/>
	</g>
	<polyline style="fill:none;stroke:#000000;stroke-linecap:round;stroke-linejoin:round;stroke-miterlimit:10;" points="424,10.625 
		432,18.625 440,10.625 	"/>
	
		<line style="fill:none;stroke:#000000;stroke-linecap:round;stroke-linejoin:round;stroke-miterlimit:10;" x1="440" y1="22.625" x2="434" y2="16.625"/>
	
		<line style="fill:none;stroke:#000000;stroke-linecap:round;stroke-linejoin:round;stroke-miterlimit:10;" x1="430" y1="16.625" x2="424" y2="22.625"/>
	<g>
		<path style="fill:#FFFFFF;" d="M470,9.75c1.65,0,3,1.35,3,3v8c0,1.65-1.35,3-3,3h-12c-1.65,0-3-1.35-3-3v-8c0-1.65,1.35-3,3-3H470
			z"/>
		<path style="fill:none;stroke:#000000;stroke-width:2;stroke-linecap:round;stroke-linejoin:round;stroke-miterlimit:10;" d="
			M470,9.75c1.65,0,3,1.35,3,3v8c0,1.65-1.35,3-3,3h-12c-1.65,0-3-1.35-3-3v-8c0-1.65,1.35-3,3-3H470z"/>
	</g>
	<polyline style="fill:none;stroke:#000000;stroke-linecap:round;stroke-linejoin:round;stroke-miterlimit:10;" points="456,10.75 
		464,18.75 472,10.75 	"/>
	
		<line style="fill:none;stroke:#000000;stroke-linecap:round;stroke-linejoin:round;stroke-miterlimit:10;" x1="472" y1="22.75" x2="466" y2="16.75"/>
	
		<line style="fill:none;stroke:#000000;stroke-linecap:round;stroke-linejoin:round;stroke-miterlimit:10;" x1="462" y1="16.75" x2="456" y2="22.75"/>
	<g>
		<path style="fill:#FFFFFF;" d="M502,9.875c1.65,0,3,1.35,3,3v8c0,1.65-1.35,3-3,3h-12c-1.65,0-3-1.35-3-3v-8c0-1.65,1.35-3,3-3
			H502z"/>
		<path style="fill:none;stroke:#000000;stroke-width:2;stroke-linecap:round;stroke-linejoin:round;stroke-miterlimit:10;" d="
			M502,9.875c1.65,0,3,1.35,3,3v8c0,1.65-1.35,3-3,3h-12c-1.65,0-3-1.35-3-3v-8c0-1.65,1.35-3,3-3H502z"/>
	</g>
	<polyline style="fill:none;stroke:#000000;stroke-linecap:round;stroke-linejoin:round;stroke-miterlimit:10;" points="488,10.875 
		496,18.875 504,10.875 	"/>
	
		<line style="fill:none;stroke:#000000;stroke-linecap:round;stroke-linejoin:round;stroke-miterlimit:10;" x1="504" y1="22.875" x2="498" y2="16.875"/>
	
		<line style="fill:none;stroke:#000000;stroke-linecap:round;stroke-linejoin:round;stroke-miterlimit:10;" x1="494" y1="16.875" x2="488" y2="22.875"/>
</g>
<g id="nyt_x5F_exporter_x5F_info" style="display:none;">
</g>
</svg>
