<?xml version="1.0" encoding="iso-8859-1"?>
<!-- Generator: Adobe Illustrator 16.2.1, SVG Export Plug-In . SVG Version: 6.00 Build 0)  -->
<!DOCTYPE svg PUBLIC "-//W3C//DTD SVG 1.1 Basic//EN" "http://www.w3.org/Graphics/SVG/1.1/DTD/svg11-basic.dtd">
<svg version="1.1" baseProfile="basic" xmlns="http://www.w3.org/2000/svg" xmlns:xlink="http://www.w3.org/1999/xlink" x="0px"
	 y="0px" width="572px" height="32px" viewBox="0 0 572 32" xml:space="preserve">
<g id="Layer_2_copy">
</g>
<g id="Layer_2">
</g>
<g id="Layer_1">
	<g>
		<path style="fill:#FFFFFF;" d="M277,12v10c0,1.65-1.35,3-3,3h-12c-1.65,0-3-1.35-3-3V12"/>
		<path style="fill:none;stroke:#000000;stroke-width:2;stroke-linecap:round;stroke-linejoin:round;stroke-miterlimit:10;" d="
			M277,12v10c0,1.65-1.35,3-3,3h-12c-1.65,0-3-1.35-3-3V12"/>
	</g>
	<g>
		<path style="fill:#FFFFFF;" d="M22,8c1.65,0,3,1.35,3,3v8c0,1.65-1.35,3-3,3H10c-1.65,0-3-1.35-3-3v-8c0-1.65,1.35-3,3-3H22z"/>
		<path style="fill:none;stroke:#000000;stroke-width:2;stroke-linecap:round;stroke-linejoin:round;stroke-miterlimit:10;" d="
			M22,8c1.65,0,3,1.35,3,3v8c0,1.65-1.35,3-3,3H10c-1.65,0-3-1.35-3-3v-8c0-1.65,1.35-3,3-3H22z"/>
	</g>
	<polyline style="fill:none;stroke:#000000;stroke-linecap:round;stroke-linejoin:round;stroke-miterlimit:10;" points="8,9 16,17 
		24,9 	"/>
	
		<line style="fill:none;stroke:#000000;stroke-linecap:round;stroke-linejoin:round;stroke-miterlimit:10;" x1="24" y1="21" x2="18" y2="15"/>
	
		<line style="fill:none;stroke:#000000;stroke-linecap:round;stroke-linejoin:round;stroke-miterlimit:10;" x1="14" y1="15" x2="8" y2="21"/>
	<g>
		<path style="fill:#FFFFFF;" d="M58,9c1.65,0,3,1.35,3,3v8c0,1.65-1.35,3-3,3H46c-1.65,0-3-1.35-3-3v-8c0-1.65,1.35-3,3-3H58z"/>
		<path style="fill:none;stroke:#000000;stroke-width:2;stroke-linecap:round;stroke-linejoin:round;stroke-miterlimit:10;" d="
			M58,9c1.65,0,3,1.35,3,3v8c0,1.65-1.35,3-3,3H46c-1.65,0-3-1.35-3-3v-8c0-1.65,1.35-3,3-3H58z"/>
	</g>
	<polyline style="fill:none;stroke:#000000;stroke-linecap:round;stroke-linejoin:round;stroke-miterlimit:10;" points="44,10 
		52,18 60,10 	"/>
	
		<line style="fill:none;stroke:#000000;stroke-linecap:round;stroke-linejoin:round;stroke-miterlimit:10;" x1="60" y1="22" x2="54" y2="16"/>
	
		<line style="fill:none;stroke:#000000;stroke-linecap:round;stroke-linejoin:round;stroke-miterlimit:10;" x1="50" y1="16" x2="44" y2="22"/>
	<polyline style="fill:none;stroke:#000000;stroke-linecap:round;stroke-linejoin:round;stroke-miterlimit:10;" points="44,10 
		52,16 60,10 	"/>
	<g>
		<path style="fill:#FFFFFF;" d="M94,9c1.65,0,3,1.35,3,3v8c0,1.65-1.35,3-3,3H82c-1.65,0-3-1.35-3-3v-8c0-1.65,1.35-3,3-3H94z"/>
		<path style="fill:none;stroke:#000000;stroke-width:2;stroke-linecap:round;stroke-linejoin:round;stroke-miterlimit:10;" d="
			M94,9c1.65,0,3,1.35,3,3v8c0,1.65-1.35,3-3,3H82c-1.65,0-3-1.35-3-3v-8c0-1.65,1.35-3,3-3H94z"/>
	</g>
	<polyline style="fill:none;stroke:#000000;stroke-linecap:round;stroke-linejoin:round;stroke-miterlimit:10;" points="80,10 
		88,18 96,10 	"/>
	
		<line style="fill:none;stroke:#000000;stroke-linecap:round;stroke-linejoin:round;stroke-miterlimit:10;" x1="96" y1="22" x2="90" y2="16"/>
	
		<line style="fill:none;stroke:#000000;stroke-linecap:round;stroke-linejoin:round;stroke-miterlimit:10;" x1="86" y1="16" x2="80" y2="22"/>
	<polyline style="fill:none;stroke:#000000;stroke-linecap:round;stroke-linejoin:round;stroke-miterlimit:10;" points="80,10 
		88,15 96,10 	"/>
	<g>
		<path style="fill:#FFFFFF;" d="M130,9c1.65,0,3,1.35,3,3v8c0,1.65-1.35,3-3,3h-12c-1.65,0-3-1.35-3-3v-8c0-1.65,1.35-3,3-3H130z"
			/>
		<path style="fill:none;stroke:#000000;stroke-width:2;stroke-linecap:round;stroke-linejoin:round;stroke-miterlimit:10;" d="
			M130,9c1.65,0,3,1.35,3,3v8c0,1.65-1.35,3-3,3h-12c-1.65,0-3-1.35-3-3v-8c0-1.65,1.35-3,3-3H130z"/>
	</g>
	<polyline style="fill:none;stroke:#000000;stroke-linecap:round;stroke-linejoin:round;stroke-miterlimit:10;" points="116,10 
		124,18 132,10 	"/>
	
		<line style="fill:none;stroke:#000000;stroke-linecap:round;stroke-linejoin:round;stroke-miterlimit:10;" x1="132" y1="22" x2="126" y2="16"/>
	
		<line style="fill:none;stroke:#000000;stroke-linecap:round;stroke-linejoin:round;stroke-miterlimit:10;" x1="122" y1="16" x2="116" y2="22"/>
	<polyline style="fill:none;stroke:#000000;stroke-linecap:round;stroke-linejoin:round;stroke-miterlimit:10;" points="116,10 
		124,14 132,10 	"/>
	<g>
		<path style="fill:#FFFFFF;" d="M166,10c1.65,0,3,1.35,3,3v8c0,1.65-1.35,3-3,3h-12c-1.65,0-3-1.35-3-3v-8c0-1.65,1.35-3,3-3H166z"
			/>
		<path style="fill:none;stroke:#000000;stroke-width:2;stroke-linecap:round;stroke-linejoin:round;stroke-miterlimit:10;" d="
			M166,10c1.65,0,3,1.35,3,3v8c0,1.65-1.35,3-3,3h-12c-1.65,0-3-1.35-3-3v-8c0-1.65,1.35-3,3-3H166z"/>
	</g>
	<polyline style="fill:none;stroke:#000000;stroke-linecap:round;stroke-linejoin:round;stroke-miterlimit:10;" points="152,11 
		160,19 168,11 	"/>
	
		<line style="fill:none;stroke:#000000;stroke-linecap:round;stroke-linejoin:round;stroke-miterlimit:10;" x1="168" y1="23" x2="162" y2="17"/>
	
		<line style="fill:none;stroke:#000000;stroke-linecap:round;stroke-linejoin:round;stroke-miterlimit:10;" x1="158" y1="17" x2="152" y2="23"/>
	<polyline style="fill:none;stroke:#000000;stroke-linecap:round;stroke-linejoin:round;stroke-miterlimit:10;" points="152,11 
		160,14 168,11 	"/>
	<g>
		<path style="fill:#FFFFFF;" d="M202,10c1.65,0,3,1.35,3,3v8c0,1.65-1.35,3-3,3h-12c-1.65,0-3-1.35-3-3v-8c0-1.65,1.35-3,3-3H202z"
			/>
		<path style="fill:none;stroke:#000000;stroke-width:2;stroke-linecap:round;stroke-linejoin:round;stroke-miterlimit:10;" d="
			M202,10c1.65,0,3,1.35,3,3v8c0,1.65-1.35,3-3,3h-12c-1.65,0-3-1.35-3-3v-8c0-1.65,1.35-3,3-3H202z"/>
	</g>
	<polyline style="fill:none;stroke:#000000;stroke-linecap:round;stroke-linejoin:round;stroke-miterlimit:10;" points="188,11 
		196,19 204,11 	"/>
	
		<line style="fill:none;stroke:#000000;stroke-linecap:round;stroke-linejoin:round;stroke-miterlimit:10;" x1="204" y1="23" x2="198" y2="17"/>
	
		<line style="fill:none;stroke:#000000;stroke-linecap:round;stroke-linejoin:round;stroke-miterlimit:10;" x1="194" y1="17" x2="188" y2="23"/>
	<polyline style="fill:none;stroke:#000000;stroke-linecap:round;stroke-linejoin:round;stroke-miterlimit:10;" points="188,11 
		196,13 204,11 	"/>
	<g>
		<path style="fill:#FFFFFF;" d="M238,10c1.65,0,3,1.35,3,3v8c0,1.65-1.35,3-3,3h-12c-1.65,0-3-1.35-3-3v-8c0-1.65,1.35-3,3-3H238z"
			/>
		<path style="fill:none;stroke:#000000;stroke-width:2;stroke-linecap:round;stroke-linejoin:round;stroke-miterlimit:10;" d="
			M238,10c1.65,0,3,1.35,3,3v8c0,1.65-1.35,3-3,3h-12c-1.65,0-3-1.35-3-3v-8c0-1.65,1.35-3,3-3H238z"/>
	</g>
	<polyline style="fill:none;stroke:#000000;stroke-linecap:round;stroke-linejoin:round;stroke-miterlimit:10;" points="224,11 
		232,19 240,11 	"/>
	
		<line style="fill:none;stroke:#000000;stroke-linecap:round;stroke-linejoin:round;stroke-miterlimit:10;" x1="240" y1="23" x2="234" y2="17"/>
	
		<line style="fill:none;stroke:#000000;stroke-linecap:round;stroke-linejoin:round;stroke-miterlimit:10;" x1="230" y1="17" x2="224" y2="23"/>
	<polyline style="fill:none;stroke:#000000;stroke-linecap:round;stroke-linejoin:round;stroke-miterlimit:10;" points="224,11 
		232,12 240,11 	"/>
	
		<polyline style="fill:#FFFFFF;stroke:#000000;stroke-width:2;stroke-linecap:round;stroke-linejoin:round;stroke-miterlimit:10;" points="
		259,12 268.062,11 277,12 	"/>
	
		<line style="fill:none;stroke:#000000;stroke-linecap:round;stroke-linejoin:round;stroke-miterlimit:10;" x1="276.062" y1="24" x2="270.062" y2="18"/>
	
		<line style="fill:none;stroke:#000000;stroke-linecap:round;stroke-linejoin:round;stroke-miterlimit:10;" x1="266.062" y1="18" x2="260.062" y2="24"/>
	<g>
		<polyline style="fill:#FFFFFF;" points="260,12.556 268,12 276.005,12.559 		"/>
	</g>
	<polyline style="fill:none;stroke:#000000;stroke-linecap:round;stroke-linejoin:round;stroke-miterlimit:10;" points="260.062,12 
		268.062,20 276.062,12 	"/>
	<g>
		<path style="fill:#FFFFFF;" d="M313,12v10c0,1.65-1.35,3-3,3h-12c-1.65,0-3-1.35-3-3V12"/>
		<path style="fill:none;stroke:#000000;stroke-width:2;stroke-linecap:round;stroke-linejoin:round;stroke-miterlimit:10;" d="
			M313,12v10c0,1.65-1.35,3-3,3h-12c-1.65,0-3-1.35-3-3V12"/>
	</g>
	
		<polyline style="fill:#FFFFFF;stroke:#000000;stroke-width:2;stroke-linecap:round;stroke-linejoin:round;stroke-miterlimit:10;" points="
		295,12 304.062,10 313,12 	"/>
	
		<line style="fill:none;stroke:#000000;stroke-linecap:round;stroke-linejoin:round;stroke-miterlimit:10;" x1="312.062" y1="24" x2="306.062" y2="18"/>
	
		<line style="fill:none;stroke:#000000;stroke-linecap:round;stroke-linejoin:round;stroke-miterlimit:10;" x1="302.062" y1="18" x2="296.062" y2="24"/>
	<g>
		<polyline style="fill:#FFFFFF;" points="296,12.556 304,11 312.005,12.559 		"/>
	</g>
	<polyline style="fill:none;stroke:#000000;stroke-linecap:round;stroke-linejoin:round;stroke-miterlimit:10;" points="296.062,12 
		304.062,20 312.062,12 	"/>
	<g>
		<path style="fill:#FFFFFF;" d="M349,12v10c0,1.65-1.35,3-3,3h-12c-1.65,0-3-1.35-3-3V12"/>
		<path style="fill:none;stroke:#000000;stroke-width:2;stroke-linecap:round;stroke-linejoin:round;stroke-miterlimit:10;" d="
			M349,12v10c0,1.65-1.35,3-3,3h-12c-1.65,0-3-1.35-3-3V12"/>
	</g>
	
		<polyline style="fill:#FFFFFF;stroke:#000000;stroke-width:2;stroke-linecap:round;stroke-linejoin:round;stroke-miterlimit:10;" points="
		331,12 340.062,9 349,12 	"/>
	
		<line style="fill:none;stroke:#000000;stroke-linecap:round;stroke-linejoin:round;stroke-miterlimit:10;" x1="348.062" y1="24" x2="342.062" y2="18"/>
	
		<line style="fill:none;stroke:#000000;stroke-linecap:round;stroke-linejoin:round;stroke-miterlimit:10;" x1="338.062" y1="18" x2="332.062" y2="24"/>
	<g>
		<polyline style="fill:#FFFFFF;" points="332,12.556 340,10 348.005,12.559 		"/>
	</g>
	<polyline style="fill:none;stroke:#000000;stroke-linecap:round;stroke-linejoin:round;stroke-miterlimit:10;" points="332.062,12 
		340.062,20 348.062,12 	"/>
	<g>
		<path style="fill:#FFFFFF;" d="M385,11v10c0,1.65-1.35,3-3,3h-12c-1.65,0-3-1.35-3-3V11"/>
		<path style="fill:none;stroke:#000000;stroke-width:2;stroke-linecap:round;stroke-linejoin:round;stroke-miterlimit:10;" d="
			M385,11v10c0,1.65-1.35,3-3,3h-12c-1.65,0-3-1.35-3-3V11"/>
	</g>
	
		<polyline style="fill:#FFFFFF;stroke:#000000;stroke-width:2;stroke-linecap:round;stroke-linejoin:round;stroke-miterlimit:10;" points="
		367,11 376.062,7 385,11 	"/>
	
		<line style="fill:none;stroke:#000000;stroke-linecap:round;stroke-linejoin:round;stroke-miterlimit:10;" x1="384.062" y1="23" x2="378.062" y2="17"/>
	
		<line style="fill:none;stroke:#000000;stroke-linecap:round;stroke-linejoin:round;stroke-miterlimit:10;" x1="374.062" y1="17" x2="368.062" y2="23"/>
	<g>
		<polyline style="fill:#FFFFFF;" points="368,11.556 376,8 384.005,11.559 		"/>
	</g>
	<polyline style="fill:none;stroke:#000000;stroke-linecap:round;stroke-linejoin:round;stroke-miterlimit:10;" points="368.062,11 
		376.062,19 384.062,11 	"/>
	<g>
		<path style="fill:#FFFFFF;" d="M421,11v10c0,1.65-1.35,3-3,3h-12c-1.65,0-3-1.35-3-3V11"/>
		<path style="fill:none;stroke:#000000;stroke-width:2;stroke-linecap:round;stroke-linejoin:round;stroke-miterlimit:10;" d="
			M421,11v10c0,1.65-1.35,3-3,3h-12c-1.65,0-3-1.35-3-3V11"/>
	</g>
	
		<polyline style="fill:#FFFFFF;stroke:#000000;stroke-width:2;stroke-linecap:round;stroke-linejoin:round;stroke-miterlimit:10;" points="
		403,11 412.062,7 421,11 	"/>
	
		<line style="fill:none;stroke:#000000;stroke-linecap:round;stroke-linejoin:round;stroke-miterlimit:10;" x1="420.062" y1="23" x2="414.062" y2="17"/>
	
		<line style="fill:none;stroke:#000000;stroke-linecap:round;stroke-linejoin:round;stroke-miterlimit:10;" x1="410.062" y1="17" x2="404.062" y2="23"/>
	<g>
		<polyline style="fill:#FFFFFF;" points="404,11.556 412,8 420.005,11.559 		"/>
	</g>
	<polyline style="fill:none;stroke:#000000;stroke-linecap:round;stroke-linejoin:round;stroke-miterlimit:10;" points="404.062,11 
		412.062,19 420.062,11 	"/>
	<g>
		<path style="fill:#FFFFFF;" d="M457,10v10c0,1.65-1.35,3-3,3h-12c-1.65,0-3-1.35-3-3V10"/>
		<path style="fill:none;stroke:#000000;stroke-width:2;stroke-linecap:round;stroke-linejoin:round;stroke-miterlimit:10;" d="
			M457,10v10c0,1.65-1.35,3-3,3h-12c-1.65,0-3-1.35-3-3V10"/>
	</g>
	
		<polyline style="fill:#FFFFFF;stroke:#000000;stroke-width:2;stroke-linecap:round;stroke-linejoin:round;stroke-miterlimit:10;" points="
		439,10 448.062,6 457,10 	"/>
	
		<line style="fill:none;stroke:#000000;stroke-linecap:round;stroke-linejoin:round;stroke-miterlimit:10;" x1="456.062" y1="22" x2="450.062" y2="16"/>
	
		<line style="fill:none;stroke:#000000;stroke-linecap:round;stroke-linejoin:round;stroke-miterlimit:10;" x1="446.062" y1="16" x2="440.062" y2="22"/>
	<g>
		<polyline style="fill:#FFFFFF;" points="440,10.556 448,7 456.005,10.559 		"/>
	</g>
	<polyline style="fill:none;stroke:#000000;stroke-linecap:round;stroke-linejoin:round;stroke-miterlimit:10;" points="440.062,10 
		448.062,18 456.062,10 	"/>
	<g>
		<path style="fill:#FFFFFF;" d="M493,10v10c0,1.65-1.35,3-3,3h-12c-1.65,0-3-1.35-3-3V10"/>
		<path style="fill:none;stroke:#000000;stroke-width:2;stroke-linecap:round;stroke-linejoin:round;stroke-miterlimit:10;" d="
			M493,10v10c0,1.65-1.35,3-3,3h-12c-1.65,0-3-1.35-3-3V10"/>
	</g>
	
		<polyline style="fill:#FFFFFF;stroke:#000000;stroke-width:2;stroke-linecap:round;stroke-linejoin:round;stroke-miterlimit:10;" points="
		475,10 484.062,6 493,10 	"/>
	
		<line style="fill:none;stroke:#000000;stroke-linecap:round;stroke-linejoin:round;stroke-miterlimit:10;" x1="492.062" y1="22" x2="486.062" y2="16"/>
	
		<line style="fill:none;stroke:#000000;stroke-linecap:round;stroke-linejoin:round;stroke-miterlimit:10;" x1="482.062" y1="16" x2="476.062" y2="22"/>
	<g>
		<polyline style="fill:#FFFFFF;" points="476,10.556 484,7 492.005,10.559 		"/>
	</g>
	<polyline style="fill:none;stroke:#000000;stroke-linecap:round;stroke-linejoin:round;stroke-miterlimit:10;" points="476.062,10 
		484.062,18 492.062,10 	"/>
	<g>
		<path style="fill:#FFFFFF;" d="M529,9v10c0,1.65-1.35,3-3,3h-12c-1.65,0-3-1.35-3-3V9"/>
		<path style="fill:none;stroke:#000000;stroke-width:2;stroke-linecap:round;stroke-linejoin:round;stroke-miterlimit:10;" d="
			M529,9v10c0,1.65-1.35,3-3,3h-12c-1.65,0-3-1.35-3-3V9"/>
	</g>
	
		<polyline style="fill:#FFFFFF;stroke:#000000;stroke-width:2;stroke-linecap:round;stroke-linejoin:round;stroke-miterlimit:10;" points="
		511,9 520.062,5 529,9 	"/>
	
		<line style="fill:none;stroke:#000000;stroke-linecap:round;stroke-linejoin:round;stroke-miterlimit:10;" x1="528.062" y1="21" x2="522.062" y2="15"/>
	
		<line style="fill:none;stroke:#000000;stroke-linecap:round;stroke-linejoin:round;stroke-miterlimit:10;" x1="518.062" y1="15" x2="512.062" y2="21"/>
	<g>
		<polyline style="fill:#FFFFFF;" points="512,9.556 520,6 528.005,9.559 		"/>
	</g>
	<polyline style="fill:none;stroke:#000000;stroke-linecap:round;stroke-linejoin:round;stroke-miterlimit:10;" points="512.062,9 
		520.062,17 528.062,9 	"/>
	<g>
		<path style="fill:#FFFFFF;" d="M565,9v10c0,1.65-1.35,3-3,3h-12c-1.65,0-3-1.35-3-3V9"/>
		<path style="fill:none;stroke:#000000;stroke-width:2;stroke-linecap:round;stroke-linejoin:round;stroke-miterlimit:10;" d="
			M565,9v10c0,1.65-1.35,3-3,3h-12c-1.65,0-3-1.35-3-3V9"/>
	</g>
	
		<polyline style="fill:#FFFFFF;stroke:#000000;stroke-width:2;stroke-linecap:round;stroke-linejoin:round;stroke-miterlimit:10;" points="
		547,9 556.062,5 565,9 	"/>
	
		<line style="fill:none;stroke:#000000;stroke-linecap:round;stroke-linejoin:round;stroke-miterlimit:10;" x1="564.062" y1="21" x2="558.062" y2="15"/>
	
		<line style="fill:none;stroke:#000000;stroke-linecap:round;stroke-linejoin:round;stroke-miterlimit:10;" x1="554.062" y1="15" x2="548.062" y2="21"/>
	<g>
		<polyline style="fill:#FFFFFF;" points="548,9.556 556,6 564.005,9.559 		"/>
	</g>
	<polyline style="fill:none;stroke:#000000;stroke-linecap:round;stroke-linejoin:round;stroke-miterlimit:10;" points="548.062,9 
		556.062,17 564.062,9 	"/>
</g>
<g id="nyt_x5F_exporter_x5F_info" style="display:none;">
</g>
</svg>
