<?xml version="1.0" encoding="iso-8859-1"?>
<!-- Generator: Adobe Illustrator 16.2.1, SVG Export Plug-In . SVG Version: 6.00 Build 0)  -->
<!DOCTYPE svg PUBLIC "-//W3C//DTD SVG 1.1 Basic//EN" "http://www.w3.org/Graphics/SVG/1.1/DTD/svg11-basic.dtd">
<svg version="1.1" baseProfile="basic" xmlns="http://www.w3.org/2000/svg" xmlns:xlink="http://www.w3.org/1999/xlink" x="0px"
	 y="0px" width="572px" height="32px" viewBox="0 0 572 32" xml:space="preserve">
<g id="Layer_2_copy">
</g>
<g id="Layer_2">
</g>
<g id="Layer_1">
</g>
<g id="nyt_x5F_exporter_x5F_info" style="display:none;">
	<g style="display:inline;">
		<path d="M221.879,7.286l5.565-2.866v0.828l-4.689,2.351v0.024l4.689,2.351V10.8l-5.565-2.866V7.286z"/>
		<path d="M229.115,6.566c0-0.6-0.012-1.091-0.048-1.571h0.936l0.06,0.959h0.024c0.288-0.552,0.959-1.091,1.919-1.091
			c0.803,0,2.051,0.479,2.051,2.47V10.8h-1.056V7.454c0-0.936-0.348-1.715-1.343-1.715c-0.695,0-1.235,0.492-1.415,1.079
			c-0.048,0.132-0.072,0.312-0.072,0.492v3.49h-1.056V6.566z"/>
		<path d="M236.003,4.995l1.271,3.43c0.132,0.384,0.276,0.839,0.372,1.187h0.024c0.108-0.348,0.228-0.792,0.372-1.211l1.151-3.406
			h1.115l-1.583,4.138c-0.756,1.991-1.271,3.01-1.991,3.634c-0.516,0.456-1.031,0.636-1.295,0.684l-0.264-0.887
			c0.264-0.084,0.612-0.252,0.924-0.516c0.288-0.228,0.647-0.635,0.887-1.175c0.048-0.108,0.084-0.192,0.084-0.251
			c0-0.06-0.024-0.144-0.072-0.276l-2.147-5.349H236.003z"/>
		<path d="M242.542,3.328v1.667h1.511v0.803h-1.511v3.13c0,0.72,0.204,1.127,0.792,1.127c0.276,0,0.479-0.036,0.611-0.072
			l0.048,0.792c-0.204,0.084-0.528,0.144-0.936,0.144c-0.492,0-0.888-0.156-1.14-0.444c-0.3-0.312-0.408-0.828-0.408-1.511V5.798
			h-0.899V4.995h0.899V3.604L242.542,3.328z"/>
		<path d="M250.364,11.699v0.6h-5.997v-0.6H250.364z"/>
		<path d="M251.099,9.72c0.312,0.204,0.864,0.42,1.392,0.42c0.768,0,1.127-0.384,1.127-0.863c0-0.504-0.3-0.78-1.079-1.068
			c-1.043-0.372-1.535-0.947-1.535-1.643c0-0.935,0.755-1.703,2.003-1.703c0.587,0,1.103,0.167,1.427,0.359l-0.264,0.768
			c-0.228-0.144-0.647-0.335-1.187-0.335c-0.624,0-0.972,0.36-0.972,0.792c0,0.479,0.348,0.695,1.104,0.983
			c1.007,0.384,1.523,0.888,1.523,1.751c0,1.02-0.792,1.739-2.171,1.739c-0.635,0-1.223-0.156-1.631-0.396L251.099,9.72z"/>
		<path d="M260.853,9.217c0,0.6,0.012,1.127,0.048,1.583h-0.936l-0.06-0.947h-0.024c-0.276,0.468-0.887,1.079-1.919,1.079
			c-0.911,0-2.003-0.503-2.003-2.542V4.995h1.056v3.214c0,1.104,0.336,1.847,1.295,1.847c0.708,0,1.199-0.492,1.391-0.959
			c0.06-0.156,0.096-0.348,0.096-0.54V4.995h1.056V9.217z"/>
		<path d="M269.875,3.316c-0.264-0.168-0.696-0.312-1.175-0.312c-1.116,0-1.451,0.78-1.451,1.703v0.288h3.382V10.8h-1.055V5.798
			h-2.315V10.8h-1.055V5.798h-2.447V10.8h-1.043V5.798h-0.815V4.995h0.815V4.779c0-0.732,0.192-1.439,0.696-1.931
			c0.335-0.348,0.839-0.563,1.487-0.563c0.396,0,0.804,0.144,1.02,0.251l-0.288,0.78c-0.18-0.096-0.456-0.204-0.732-0.204
			c-0.335,0-0.575,0.12-0.755,0.312c-0.288,0.312-0.384,0.839-0.384,1.343v0.228h2.447V4.683c0-1.535,0.912-2.531,2.542-2.531
			c0.528,0,1.127,0.156,1.439,0.372L269.875,3.316z"/>
		<path d="M272.878,4.995l0.828,1.247c0.216,0.324,0.396,0.624,0.588,0.948h0.036c0.192-0.348,0.384-0.648,0.576-0.959l0.815-1.235
			h1.14l-1.979,2.806l2.039,2.999h-1.2l-0.852-1.307c-0.228-0.336-0.419-0.66-0.624-1.008h-0.024
			c-0.192,0.348-0.396,0.66-0.612,1.008l-0.839,1.307h-1.163l2.062-2.962l-1.967-2.842H272.878z"/>
		<path d="M283.424,7.945l-5.565,2.854V9.972l4.726-2.351V7.598l-4.726-2.351V4.419l5.565,2.854V7.945z"/>
		<path d="M285.011,7.286l5.565-2.866v0.828l-4.69,2.351v0.024l4.69,2.351V10.8l-5.565-2.866V7.286z"/>
		<path d="M291.359,11.279l3.346-8.695h0.815l-3.357,8.695H291.359z"/>
		<path d="M296.363,6.566c0-0.6-0.013-1.091-0.049-1.571h0.936l0.061,0.959h0.023c0.288-0.552,0.96-1.091,1.919-1.091
			c0.804,0,2.051,0.479,2.051,2.47V10.8h-1.055V7.454c0-0.936-0.349-1.715-1.344-1.715c-0.695,0-1.235,0.492-1.415,1.079
			c-0.048,0.132-0.072,0.312-0.072,0.492v3.49h-1.055V6.566z"/>
		<path d="M303.251,4.995l1.271,3.43c0.132,0.384,0.276,0.839,0.372,1.187h0.024c0.107-0.348,0.228-0.792,0.371-1.211l1.151-3.406
			h1.116l-1.584,4.138c-0.755,1.991-1.271,3.01-1.99,3.634c-0.516,0.456-1.031,0.636-1.296,0.684l-0.264-0.887
			c0.264-0.084,0.611-0.252,0.924-0.516c0.288-0.228,0.647-0.635,0.888-1.175c0.048-0.108,0.084-0.192,0.084-0.251
			c0-0.06-0.024-0.144-0.072-0.276L302.1,4.995H303.251z"/>
		<path d="M309.789,3.328v1.667h1.512v0.803h-1.512v3.13c0,0.72,0.204,1.127,0.792,1.127c0.275,0,0.479-0.036,0.611-0.072
			l0.048,0.792c-0.203,0.084-0.527,0.144-0.936,0.144c-0.491,0-0.887-0.156-1.139-0.444c-0.3-0.312-0.408-0.828-0.408-1.511V5.798
			h-0.899V4.995h0.899V3.604L309.789,3.328z"/>
		<path d="M317.612,11.699v0.6h-5.997v-0.6H317.612z"/>
		<path d="M318.347,9.72c0.312,0.204,0.863,0.42,1.392,0.42c0.768,0,1.127-0.384,1.127-0.863c0-0.504-0.3-0.78-1.079-1.068
			c-1.044-0.372-1.535-0.947-1.535-1.643c0-0.935,0.756-1.703,2.003-1.703c0.588,0,1.104,0.167,1.427,0.359l-0.264,0.768
			c-0.228-0.144-0.647-0.335-1.188-0.335c-0.623,0-0.971,0.36-0.971,0.792c0,0.479,0.348,0.695,1.103,0.983
			c1.008,0.384,1.523,0.888,1.523,1.751c0,1.02-0.791,1.739-2.171,1.739c-0.636,0-1.223-0.156-1.631-0.396L318.347,9.72z"/>
		<path d="M328.1,9.217c0,0.6,0.013,1.127,0.049,1.583h-0.936l-0.061-0.947h-0.023c-0.276,0.468-0.888,1.079-1.919,1.079
			c-0.912,0-2.003-0.503-2.003-2.542V4.995h1.055v3.214c0,1.104,0.336,1.847,1.296,1.847c0.707,0,1.199-0.492,1.391-0.959
			c0.061-0.156,0.097-0.348,0.097-0.54V4.995h1.055V9.217z"/>
		<path d="M337.122,3.316c-0.264-0.168-0.695-0.312-1.176-0.312c-1.115,0-1.451,0.78-1.451,1.703v0.288h3.383V10.8h-1.056V5.798
			h-2.314V10.8h-1.056V5.798h-2.446V10.8h-1.044V5.798h-0.815V4.995h0.815V4.779c0-0.732,0.192-1.439,0.695-1.931
			c0.336-0.348,0.84-0.563,1.487-0.563c0.396,0,0.804,0.144,1.02,0.251l-0.288,0.78c-0.18-0.096-0.455-0.204-0.731-0.204
			c-0.336,0-0.575,0.12-0.755,0.312c-0.288,0.312-0.384,0.839-0.384,1.343v0.228h2.446V4.683c0-1.535,0.911-2.531,2.543-2.531
			c0.527,0,1.127,0.156,1.438,0.372L337.122,3.316z"/>
		<path d="M340.126,4.995l0.827,1.247c0.217,0.324,0.396,0.624,0.588,0.948h0.036c0.192-0.348,0.384-0.648,0.576-0.959l0.815-1.235
			h1.139l-1.979,2.806l2.039,2.999h-1.199l-0.852-1.307c-0.229-0.336-0.42-0.66-0.624-1.008h-0.023
			c-0.192,0.348-0.396,0.66-0.612,1.008l-0.839,1.307h-1.164l2.063-2.962l-1.967-2.842H340.126z"/>
		<path d="M350.671,7.945l-5.564,2.854V9.972l4.725-2.351V7.598l-4.725-2.351V4.419l5.564,2.854V7.945z"/>
		<path d="M221.879,21.686l5.565-2.866v0.828l-4.689,2.351v0.024l4.689,2.351V25.2l-5.565-2.866V21.686z"/>
		<path d="M229.115,20.966c0-0.6-0.012-1.091-0.048-1.571h0.936l0.06,0.959h0.024c0.288-0.552,0.959-1.091,1.919-1.091
			c0.803,0,2.051,0.479,2.051,2.47V25.2h-1.056v-3.346c0-0.936-0.348-1.715-1.343-1.715c-0.695,0-1.235,0.492-1.415,1.079
			c-0.048,0.132-0.072,0.312-0.072,0.492v3.49h-1.056V20.966z"/>
		<path d="M236.003,19.396l1.271,3.43c0.132,0.384,0.276,0.839,0.372,1.187h0.024c0.108-0.348,0.228-0.792,0.372-1.211l1.151-3.406
			h1.115l-1.583,4.138c-0.756,1.991-1.271,3.01-1.991,3.634c-0.516,0.456-1.031,0.636-1.295,0.684l-0.264-0.887
			c0.264-0.084,0.612-0.252,0.924-0.516c0.288-0.228,0.647-0.635,0.887-1.175c0.048-0.108,0.084-0.192,0.084-0.251
			c0-0.06-0.024-0.144-0.072-0.276l-2.147-5.349H236.003z"/>
		<path d="M242.542,17.729v1.667h1.511v0.803h-1.511v3.13c0,0.72,0.204,1.127,0.792,1.127c0.276,0,0.479-0.036,0.611-0.072
			l0.048,0.792c-0.204,0.084-0.528,0.144-0.936,0.144c-0.492,0-0.888-0.156-1.14-0.444c-0.3-0.312-0.408-0.828-0.408-1.511v-3.167
			h-0.899v-0.803h0.899v-1.392L242.542,17.729z"/>
		<path d="M250.364,26.1v0.6h-5.997v-0.6H250.364z"/>
		<path d="M251.195,25.2c0.024-0.396,0.048-0.983,0.048-1.499v-7.016h1.043v3.646h0.024c0.372-0.648,1.043-1.067,1.979-1.067
			c1.439,0,2.458,1.199,2.447,2.962c0,2.075-1.308,3.106-2.603,3.106c-0.84,0-1.511-0.324-1.943-1.091h-0.036l-0.048,0.959H251.195z
			 M252.287,22.874c0,0.132,0.024,0.264,0.048,0.384c0.204,0.731,0.816,1.235,1.583,1.235c1.103,0,1.763-0.899,1.763-2.231
			c0-1.163-0.6-2.159-1.727-2.159c-0.72,0-1.391,0.492-1.607,1.295c-0.024,0.12-0.06,0.264-0.06,0.432V22.874z"/>
		<path d="M261.285,25.2l-0.084-0.731h-0.036c-0.324,0.456-0.947,0.863-1.775,0.863c-1.175,0-1.775-0.828-1.775-1.667
			c0-1.403,1.247-2.171,3.49-2.159v-0.12c0-0.479-0.132-1.343-1.319-1.343c-0.54,0-1.104,0.168-1.511,0.432l-0.24-0.695
			c0.48-0.312,1.175-0.516,1.907-0.516c1.775,0,2.207,1.211,2.207,2.375v2.171c0,0.503,0.024,0.995,0.096,1.391H261.285z
			 M261.129,22.238c-1.151-0.024-2.458,0.18-2.458,1.307c0,0.684,0.456,1.008,0.996,1.008c0.755,0,1.235-0.48,1.403-0.972
			c0.036-0.108,0.06-0.228,0.06-0.336V22.238z"/>
		<path d="M263.711,24.121c0.312,0.204,0.864,0.42,1.392,0.42c0.768,0,1.127-0.384,1.127-0.863c0-0.504-0.3-0.78-1.079-1.068
			c-1.043-0.372-1.535-0.947-1.535-1.643c0-0.935,0.755-1.703,2.003-1.703c0.587,0,1.104,0.167,1.427,0.359l-0.264,0.768
			c-0.228-0.144-0.647-0.335-1.187-0.335c-0.624,0-0.972,0.36-0.972,0.792c0,0.479,0.348,0.695,1.104,0.983
			c1.007,0.384,1.523,0.888,1.523,1.751c0,1.02-0.792,1.739-2.171,1.739c-0.635,0-1.223-0.156-1.631-0.396L263.711,24.121z"/>
		<path d="M269.195,22.49c0.024,1.427,0.935,2.015,1.991,2.015c0.755,0,1.211-0.132,1.607-0.3l0.18,0.756
			c-0.372,0.168-1.007,0.36-1.931,0.36c-1.787,0-2.854-1.176-2.854-2.927s1.032-3.13,2.723-3.13c1.895,0,2.399,1.667,2.399,2.734
			c0,0.216-0.024,0.384-0.036,0.492H269.195z M272.289,21.734c0.012-0.671-0.276-1.715-1.463-1.715
			c-1.067,0-1.535,0.983-1.619,1.715H272.289z"/>
		<path d="M279.74,26.1v0.6h-5.997v-0.6H279.74z"/>
		<path d="M280.619,21.291c0-0.744-0.024-1.343-0.048-1.895h0.947l0.048,0.995h0.024c0.432-0.708,1.115-1.127,2.062-1.127
			c1.403,0,2.459,1.187,2.459,2.95c0,2.087-1.271,3.118-2.639,3.118c-0.768,0-1.439-0.336-1.787-0.912h-0.024v3.154h-1.043V21.291z
			 M281.662,22.837c0,0.156,0.024,0.3,0.048,0.432c0.192,0.732,0.828,1.235,1.583,1.235c1.116,0,1.763-0.911,1.763-2.243
			c0-1.163-0.612-2.159-1.727-2.159c-0.72,0-1.391,0.516-1.595,1.307c-0.036,0.132-0.072,0.288-0.072,0.432V22.837z"/>
		<path d="M290.661,25.2l-0.084-0.731h-0.036c-0.324,0.456-0.947,0.863-1.775,0.863c-1.175,0-1.774-0.828-1.774-1.667
			c0-1.403,1.247-2.171,3.49-2.159v-0.12c0-0.479-0.132-1.343-1.319-1.343c-0.54,0-1.104,0.168-1.512,0.432l-0.239-0.695
			c0.479-0.312,1.175-0.516,1.906-0.516c1.775,0,2.207,1.211,2.207,2.375v2.171c0,0.503,0.024,0.995,0.096,1.391H290.661z
			 M290.505,22.238c-1.151-0.024-2.458,0.18-2.458,1.307c0,0.684,0.455,1.008,0.995,1.008c0.756,0,1.235-0.48,1.403-0.972
			c0.036-0.108,0.06-0.228,0.06-0.336V22.238z"/>
		<path d="M294.453,17.729v1.667h1.512v0.803h-1.512v3.13c0,0.72,0.204,1.127,0.792,1.127c0.275,0,0.479-0.036,0.611-0.072
			l0.048,0.792c-0.203,0.084-0.527,0.144-0.936,0.144c-0.491,0-0.887-0.156-1.139-0.444c-0.3-0.312-0.408-0.828-0.408-1.511v-3.167
			h-0.899v-0.803h0.899v-1.392L294.453,17.729z"/>
		<path d="M297.155,16.685h1.055v3.622h0.024c0.168-0.3,0.432-0.563,0.756-0.743c0.312-0.18,0.684-0.3,1.079-0.3
			c0.779,0,2.026,0.479,2.026,2.482V25.2h-1.055v-3.334c0-0.936-0.348-1.727-1.344-1.727c-0.684,0-1.224,0.479-1.415,1.055
			c-0.06,0.144-0.072,0.3-0.072,0.504V25.2h-1.055V16.685z"/>
		<path d="M309.295,22.346L303.73,25.2v-0.828l4.725-2.351v-0.024l-4.725-2.351V18.82l5.564,2.854V22.346z"/>
		<path d="M310.679,22.682c-0.048-1.199,0.6-1.811,1.427-1.811c0.504,0,0.888,0.156,1.691,0.54c0.611,0.288,1.056,0.504,1.499,0.504
			c0.432,0,0.636-0.348,0.647-1.007h0.72c0.061,1.343-0.636,1.811-1.379,1.811c-0.479,0-0.912-0.144-1.739-0.528
			c-0.563-0.276-1.008-0.528-1.439-0.528s-0.695,0.3-0.72,1.02H310.679z"/>
		<path d="M317.23,25.68l3.346-8.695h0.815l-3.357,8.695H317.23z"/>
		<path d="M322.27,17.225c0.636-0.096,1.392-0.168,2.219-0.168c1.5,0,2.567,0.348,3.274,1.007c0.72,0.66,1.14,1.595,1.14,2.902
			c0,1.319-0.408,2.399-1.163,3.143c-0.756,0.755-2.003,1.163-3.574,1.163c-0.744,0-1.367-0.036-1.896-0.096V17.225z
			 M323.313,24.373c0.264,0.048,0.647,0.06,1.056,0.06c2.23,0,3.441-1.247,3.441-3.43c0.013-1.907-1.067-3.118-3.273-3.118
			c-0.54,0-0.948,0.048-1.224,0.108V24.373z"/>
		<path d="M335.527,22.25c0,2.146-1.487,3.082-2.891,3.082c-1.571,0-2.782-1.151-2.782-2.986c0-1.943,1.271-3.082,2.878-3.082
			C334.399,19.264,335.527,20.475,335.527,22.25z M330.922,22.31c0,1.271,0.731,2.231,1.763,2.231c1.008,0,1.763-0.947,1.763-2.255
			c0-0.983-0.491-2.23-1.738-2.23C331.461,20.055,330.922,21.207,330.922,22.31z"/>
		<path d="M341,24.984c-0.276,0.144-0.888,0.336-1.668,0.336c-1.751,0-2.89-1.188-2.89-2.962c0-1.787,1.223-3.083,3.118-3.083
			c0.623,0,1.175,0.156,1.463,0.3l-0.24,0.815c-0.251-0.144-0.647-0.275-1.223-0.275c-1.331,0-2.051,0.983-2.051,2.194
			c0,1.343,0.863,2.171,2.015,2.171c0.6,0,0.995-0.156,1.295-0.288L341,24.984z"/>
		<path d="M347.095,23.617c0,0.6,0.013,1.127,0.049,1.583h-0.936l-0.061-0.947h-0.023c-0.276,0.468-0.888,1.079-1.919,1.079
			c-0.912,0-2.003-0.503-2.003-2.542v-3.394h1.055v3.214c0,1.104,0.336,1.847,1.296,1.847c0.707,0,1.199-0.492,1.391-0.959
			c0.061-0.156,0.097-0.348,0.097-0.54v-3.562h1.055V23.617z"/>
		<path d="M348.851,20.966c0-0.6-0.013-1.091-0.049-1.571h0.924l0.048,0.936h0.036c0.324-0.552,0.863-1.067,1.823-1.067
			c0.791,0,1.391,0.479,1.643,1.163h0.024c0.18-0.324,0.407-0.576,0.647-0.755c0.348-0.264,0.731-0.408,1.283-0.408
			c0.768,0,1.907,0.503,1.907,2.519V25.2h-1.031v-3.286c0-1.115-0.408-1.787-1.26-1.787c-0.6,0-1.067,0.444-1.247,0.959
			c-0.048,0.144-0.084,0.336-0.084,0.528V25.2h-1.031v-3.478c0-0.923-0.408-1.595-1.212-1.595c-0.659,0-1.139,0.528-1.307,1.056
			c-0.061,0.156-0.084,0.335-0.084,0.516V25.2h-1.031V20.966z"/>
		<path d="M359.445,22.49c0.024,1.427,0.936,2.015,1.991,2.015c0.756,0,1.211-0.132,1.607-0.3l0.18,0.756
			c-0.372,0.168-1.008,0.36-1.931,0.36c-1.787,0-2.854-1.176-2.854-2.927s1.031-3.13,2.723-3.13c1.895,0,2.398,1.667,2.398,2.734
			c0,0.216-0.024,0.384-0.036,0.492H359.445z M362.54,21.734c0.012-0.671-0.276-1.715-1.463-1.715c-1.067,0-1.535,0.983-1.619,1.715
			H362.54z"/>
		<path d="M364.87,20.966c0-0.6-0.013-1.091-0.049-1.571h0.936l0.061,0.959h0.023c0.288-0.552,0.96-1.091,1.919-1.091
			c0.804,0,2.051,0.479,2.051,2.47V25.2h-1.055v-3.346c0-0.936-0.348-1.715-1.344-1.715c-0.695,0-1.235,0.492-1.415,1.079
			c-0.048,0.132-0.072,0.312-0.072,0.492v3.49h-1.055V20.966z"/>
		<path d="M372.753,17.729v1.667h1.512v0.803h-1.512v3.13c0,0.72,0.204,1.127,0.792,1.127c0.275,0,0.479-0.036,0.611-0.072
			l0.048,0.792c-0.203,0.084-0.527,0.144-0.936,0.144c-0.491,0-0.887-0.156-1.139-0.444c-0.3-0.312-0.408-0.828-0.408-1.511v-3.167
			h-0.899v-0.803h0.899v-1.392L372.753,17.729z"/>
		<path d="M375.31,24.121c0.312,0.204,0.863,0.42,1.392,0.42c0.768,0,1.127-0.384,1.127-0.863c0-0.504-0.3-0.78-1.079-1.068
			c-1.044-0.372-1.535-0.947-1.535-1.643c0-0.935,0.756-1.703,2.003-1.703c0.588,0,1.104,0.167,1.427,0.359l-0.264,0.768
			c-0.228-0.144-0.647-0.335-1.188-0.335c-0.623,0-0.971,0.36-0.971,0.792c0,0.479,0.348,0.695,1.103,0.983
			c1.008,0.384,1.523,0.888,1.523,1.751c0,1.02-0.791,1.739-2.171,1.739c-0.636,0-1.223-0.156-1.631-0.396L375.31,24.121z"/>
		<path d="M379.318,25.68l3.346-8.695h0.815l-3.357,8.695H379.318z"/>
		<path d="M384.356,17.212c0.504-0.084,1.164-0.156,2.003-0.156c1.032,0,1.787,0.24,2.268,0.672
			c0.443,0.384,0.707,0.971,0.707,1.691c0,0.731-0.216,1.307-0.624,1.727c-0.551,0.587-1.451,0.888-2.47,0.888
			c-0.312,0-0.601-0.012-0.84-0.072V25.2h-1.044V17.212z M385.4,21.11c0.228,0.06,0.516,0.084,0.863,0.084
			c1.26,0,2.027-0.612,2.027-1.727c0-1.067-0.756-1.583-1.907-1.583c-0.456,0-0.804,0.036-0.983,0.084V21.11z"/>
		<path d="M390.514,21.207c0-0.684-0.013-1.271-0.049-1.811h0.924l0.036,1.139h0.048c0.264-0.779,0.899-1.271,1.607-1.271
			c0.12,0,0.203,0.012,0.3,0.036v0.996c-0.108-0.024-0.216-0.036-0.36-0.036c-0.743,0-1.271,0.564-1.415,1.355
			c-0.023,0.144-0.048,0.312-0.048,0.492V25.2h-1.043V21.207z"/>
		<path d="M399.57,22.25c0,2.146-1.487,3.082-2.891,3.082c-1.571,0-2.782-1.151-2.782-2.986c0-1.943,1.271-3.082,2.878-3.082
			C398.442,19.264,399.57,20.475,399.57,22.25z M394.965,22.31c0,1.271,0.731,2.231,1.763,2.231c1.008,0,1.763-0.947,1.763-2.255
			c0-0.983-0.491-2.23-1.738-2.23C395.504,20.055,394.965,21.207,394.965,22.31z"/>
		<path d="M399.489,26.879c0.48-0.036,0.899-0.168,1.151-0.444c0.288-0.336,0.396-0.792,0.396-2.183v-4.857h1.055v5.265
			c0,1.127-0.18,1.859-0.695,2.387c-0.468,0.468-1.235,0.66-1.799,0.66L399.489,26.879z M402.212,17.764
			c0.012,0.348-0.239,0.648-0.659,0.648c-0.396,0-0.647-0.3-0.647-0.648c0-0.372,0.275-0.66,0.671-0.66
			C401.96,17.104,402.212,17.393,402.212,17.764z"/>
		<path d="M404.408,22.49c0.024,1.427,0.936,2.015,1.991,2.015c0.756,0,1.211-0.132,1.607-0.3l0.18,0.756
			c-0.372,0.168-1.008,0.36-1.931,0.36c-1.787,0-2.854-1.176-2.854-2.927s1.031-3.13,2.723-3.13c1.895,0,2.398,1.667,2.398,2.734
			c0,0.216-0.024,0.384-0.036,0.492H404.408z M407.503,21.734c0.012-0.671-0.276-1.715-1.463-1.715
			c-1.067,0-1.535,0.983-1.619,1.715H407.503z"/>
		<path d="M413.972,24.984c-0.276,0.144-0.888,0.336-1.668,0.336c-1.751,0-2.89-1.188-2.89-2.962c0-1.787,1.223-3.083,3.118-3.083
			c0.623,0,1.175,0.156,1.463,0.3l-0.239,0.815c-0.252-0.144-0.648-0.275-1.224-0.275c-1.331,0-2.051,0.983-2.051,2.194
			c0,1.343,0.863,2.171,2.015,2.171c0.6,0,0.995-0.156,1.295-0.288L413.972,24.984z"/>
		<path d="M416.636,17.729v1.667h1.512v0.803h-1.512v3.13c0,0.72,0.204,1.127,0.792,1.127c0.275,0,0.479-0.036,0.611-0.072
			l0.048,0.792c-0.203,0.084-0.527,0.144-0.936,0.144c-0.491,0-0.887-0.156-1.139-0.444c-0.3-0.312-0.408-0.828-0.408-1.511v-3.167
			h-0.899v-0.803h0.899v-1.392L416.636,17.729z"/>
		<path d="M419.192,24.121c0.312,0.204,0.863,0.42,1.392,0.42c0.768,0,1.127-0.384,1.127-0.863c0-0.504-0.3-0.78-1.079-1.068
			c-1.044-0.372-1.535-0.947-1.535-1.643c0-0.935,0.756-1.703,2.003-1.703c0.588,0,1.104,0.167,1.427,0.359l-0.264,0.768
			c-0.228-0.144-0.647-0.335-1.188-0.335c-0.623,0-0.971,0.36-0.971,0.792c0,0.479,0.348,0.695,1.103,0.983
			c1.008,0.384,1.523,0.888,1.523,1.751c0,1.02-0.791,1.739-2.171,1.739c-0.636,0-1.223-0.156-1.631-0.396L419.192,24.121z"/>
		<path d="M423.201,25.68l3.346-8.695h0.815l-3.357,8.695H423.201z"/>
		<path d="M428.205,20.966c0-0.6-0.013-1.091-0.049-1.571h0.924l0.048,0.936h0.036c0.324-0.552,0.863-1.067,1.823-1.067
			c0.791,0,1.391,0.479,1.643,1.163h0.024c0.18-0.324,0.407-0.576,0.647-0.755c0.348-0.264,0.731-0.408,1.283-0.408
			c0.768,0,1.907,0.503,1.907,2.519V25.2h-1.031v-3.286c0-1.115-0.408-1.787-1.26-1.787c-0.6,0-1.067,0.444-1.247,0.959
			c-0.048,0.144-0.084,0.336-0.084,0.528V25.2h-1.031v-3.478c0-0.923-0.408-1.595-1.212-1.595c-0.659,0-1.139,0.528-1.307,1.056
			c-0.061,0.156-0.084,0.335-0.084,0.516V25.2h-1.031V20.966z"/>
		<path d="M443.466,22.25c0,2.146-1.487,3.082-2.891,3.082c-1.571,0-2.782-1.151-2.782-2.986c0-1.943,1.271-3.082,2.878-3.082
			C442.338,19.264,443.466,20.475,443.466,22.25z M438.86,22.31c0,1.271,0.731,2.231,1.763,2.231c1.008,0,1.763-0.947,1.763-2.255
			c0-0.983-0.491-2.23-1.738-2.23C439.399,20.055,438.86,21.207,438.86,22.31z"/>
		<path d="M446.071,17.729v1.667h1.512v0.803h-1.512v3.13c0,0.72,0.204,1.127,0.792,1.127c0.275,0,0.479-0.036,0.611-0.072
			l0.048,0.792c-0.203,0.084-0.527,0.144-0.936,0.144c-0.491,0-0.887-0.156-1.139-0.444c-0.3-0.312-0.408-0.828-0.408-1.511v-3.167
			h-0.899v-0.803h0.899v-1.392L446.071,17.729z"/>
		<path d="M449.948,17.764c0.012,0.36-0.252,0.648-0.672,0.648c-0.371,0-0.636-0.288-0.636-0.648c0-0.372,0.276-0.66,0.66-0.66
			C449.696,17.104,449.948,17.393,449.948,17.764z M448.773,25.2v-5.805h1.055V25.2H448.773z"/>
		<path d="M455.719,24.984c-0.276,0.144-0.888,0.336-1.668,0.336c-1.751,0-2.89-1.188-2.89-2.962c0-1.787,1.223-3.083,3.118-3.083
			c0.623,0,1.175,0.156,1.463,0.3l-0.24,0.815c-0.251-0.144-0.647-0.275-1.223-0.275c-1.331,0-2.051,0.983-2.051,2.194
			c0,1.343,0.863,2.171,2.015,2.171c0.6,0,0.995-0.156,1.295-0.288L455.719,24.984z"/>
		<path d="M462.138,22.25c0,2.146-1.487,3.082-2.891,3.082c-1.571,0-2.782-1.151-2.782-2.986c0-1.943,1.271-3.082,2.878-3.082
			C461.01,19.264,462.138,20.475,462.138,22.25z M457.532,22.31c0,1.271,0.731,2.231,1.763,2.231c1.008,0,1.763-0.947,1.763-2.255
			c0-0.983-0.491-2.23-1.738-2.23C458.071,20.055,457.532,21.207,457.532,22.31z"/>
		<path d="M463.473,20.966c0-0.6-0.013-1.091-0.049-1.571h0.936l0.061,0.959h0.023c0.288-0.552,0.96-1.091,1.919-1.091
			c0.804,0,2.051,0.479,2.051,2.47V25.2h-1.055v-3.346c0-0.936-0.349-1.715-1.344-1.715c-0.695,0-1.235,0.492-1.415,1.079
			c-0.048,0.132-0.072,0.312-0.072,0.492v3.49h-1.055V20.966z"/>
		<path d="M469.988,24.121c0.312,0.204,0.863,0.42,1.392,0.42c0.768,0,1.127-0.384,1.127-0.863c0-0.504-0.3-0.78-1.079-1.068
			c-1.044-0.372-1.535-0.947-1.535-1.643c0-0.935,0.756-1.703,2.003-1.703c0.588,0,1.104,0.167,1.427,0.359l-0.264,0.768
			c-0.228-0.144-0.647-0.335-1.188-0.335c-0.623,0-0.971,0.36-0.971,0.792c0,0.479,0.348,0.695,1.103,0.983
			c1.008,0.384,1.523,0.888,1.523,1.751c0,1.02-0.791,1.739-2.171,1.739c-0.636,0-1.223-0.156-1.631-0.396L469.988,24.121z"/>
		<path d="M473.997,25.68l3.346-8.695h0.815l-3.357,8.695H473.997z"/>
		<path d="M480.176,17.764c0.012,0.36-0.252,0.648-0.672,0.648c-0.371,0-0.636-0.288-0.636-0.648c0-0.372,0.276-0.66,0.66-0.66
			C479.924,17.104,480.176,17.393,480.176,17.764z M479.001,25.2v-5.805h1.055V25.2H479.001z"/>
		<path d="M485.946,24.984c-0.276,0.144-0.888,0.336-1.668,0.336c-1.751,0-2.89-1.188-2.89-2.962c0-1.787,1.223-3.083,3.118-3.083
			c0.623,0,1.175,0.156,1.463,0.3l-0.239,0.815c-0.252-0.144-0.648-0.275-1.224-0.275c-1.331,0-2.051,0.983-2.051,2.194
			c0,1.343,0.863,2.171,2.015,2.171c0.6,0,0.995-0.156,1.295-0.288L485.946,24.984z"/>
		<path d="M492.365,22.25c0,2.146-1.487,3.082-2.891,3.082c-1.571,0-2.782-1.151-2.782-2.986c0-1.943,1.271-3.082,2.878-3.082
			C491.237,19.264,492.365,20.475,492.365,22.25z M487.76,22.31c0,1.271,0.731,2.231,1.763,2.231c1.008,0,1.763-0.947,1.763-2.255
			c0-0.983-0.491-2.23-1.738-2.23C488.299,20.055,487.76,21.207,487.76,22.31z"/>
		<path d="M493.7,20.966c0-0.6-0.013-1.091-0.049-1.571h0.936l0.061,0.959h0.023c0.288-0.552,0.96-1.091,1.919-1.091
			c0.804,0,2.051,0.479,2.051,2.47V25.2h-1.055v-3.346c0-0.936-0.348-1.715-1.344-1.715c-0.695,0-1.235,0.492-1.415,1.079
			c-0.048,0.132-0.072,0.312-0.072,0.492v3.49H493.7V20.966z"/>
		<path d="M500.216,24.121c0.312,0.204,0.863,0.42,1.392,0.42c0.768,0,1.127-0.384,1.127-0.863c0-0.504-0.3-0.78-1.079-1.068
			c-1.044-0.372-1.535-0.947-1.535-1.643c0-0.935,0.756-1.703,2.003-1.703c0.588,0,1.104,0.167,1.427,0.359l-0.264,0.768
			c-0.228-0.144-0.647-0.335-1.188-0.335c-0.623,0-0.971,0.36-0.971,0.792c0,0.479,0.348,0.695,1.103,0.983
			c1.008,0.384,1.523,0.888,1.523,1.751c0,1.02-0.791,1.739-2.171,1.739c-0.636,0-1.223-0.156-1.631-0.396L500.216,24.121z"/>
		<path d="M505.028,21.686l5.564-2.866v0.828l-4.689,2.351v0.024l4.689,2.351V25.2l-5.564-2.866V21.686z"/>
		<path d="M511.377,25.68l3.346-8.695h0.815l-3.357,8.695H511.377z"/>
		<path d="M516.38,20.966c0-0.6-0.013-1.091-0.049-1.571h0.936l0.061,0.959h0.023c0.288-0.552,0.96-1.091,1.919-1.091
			c0.804,0,2.051,0.479,2.051,2.47V25.2h-1.055v-3.346c0-0.936-0.348-1.715-1.344-1.715c-0.695,0-1.235,0.492-1.415,1.079
			c-0.048,0.132-0.072,0.312-0.072,0.492v3.49h-1.055V20.966z"/>
		<path d="M523.268,19.396l1.271,3.43c0.132,0.384,0.276,0.839,0.372,1.187h0.024c0.107-0.348,0.228-0.792,0.371-1.211l1.151-3.406
			h1.115l-1.583,4.138c-0.755,1.991-1.271,3.01-1.99,3.634c-0.516,0.456-1.032,0.636-1.296,0.684l-0.264-0.887
			c0.264-0.084,0.611-0.252,0.924-0.516c0.288-0.228,0.647-0.635,0.888-1.175c0.048-0.108,0.084-0.192,0.084-0.251
			c0-0.06-0.024-0.144-0.072-0.276l-2.146-5.349H523.268z"/>
		<path d="M529.807,17.729v1.667h1.512v0.803h-1.512v3.13c0,0.72,0.204,1.127,0.792,1.127c0.275,0,0.479-0.036,0.611-0.072
			l0.048,0.792c-0.203,0.084-0.527,0.144-0.936,0.144c-0.491,0-0.887-0.156-1.139-0.444c-0.3-0.312-0.408-0.828-0.408-1.511v-3.167
			h-0.899v-0.803h0.899v-1.392L529.807,17.729z"/>
		<path d="M537.629,26.1v0.6h-5.997v-0.6H537.629z"/>
		<path d="M538.459,25.2c0.024-0.396,0.049-0.983,0.049-1.499v-7.016h1.043v3.646h0.024c0.371-0.648,1.043-1.067,1.979-1.067
			c1.439,0,2.459,1.199,2.446,2.962c0,2.075-1.307,3.106-2.603,3.106c-0.839,0-1.511-0.324-1.942-1.091h-0.036l-0.048,0.959H538.459
			z M539.551,22.874c0,0.132,0.024,0.264,0.048,0.384c0.204,0.731,0.815,1.235,1.583,1.235c1.104,0,1.764-0.899,1.764-2.231
			c0-1.163-0.6-2.159-1.728-2.159c-0.72,0-1.392,0.492-1.607,1.295c-0.023,0.12-0.06,0.264-0.06,0.432V22.874z"/>
		<path d="M548.55,25.2l-0.084-0.731h-0.036c-0.324,0.456-0.947,0.863-1.775,0.863c-1.175,0-1.774-0.828-1.774-1.667
			c0-1.403,1.247-2.171,3.49-2.159v-0.12c0-0.479-0.132-1.343-1.319-1.343c-0.54,0-1.104,0.168-1.512,0.432l-0.239-0.695
			c0.479-0.312,1.175-0.516,1.906-0.516c1.775,0,2.207,1.211,2.207,2.375v2.171c0,0.503,0.024,0.995,0.096,1.391H548.55z
			 M548.394,22.238c-1.151-0.024-2.458,0.18-2.458,1.307c0,0.684,0.455,1.008,0.995,1.008c0.756,0,1.235-0.48,1.403-0.972
			c0.036-0.108,0.06-0.228,0.06-0.336V22.238z"/>
		<path d="M550.976,24.121c0.312,0.204,0.863,0.42,1.392,0.42c0.768,0,1.127-0.384,1.127-0.863c0-0.504-0.3-0.78-1.079-1.068
			c-1.044-0.372-1.535-0.947-1.535-1.643c0-0.935,0.756-1.703,2.003-1.703c0.588,0,1.104,0.167,1.427,0.359l-0.264,0.768
			c-0.228-0.144-0.647-0.335-1.188-0.335c-0.623,0-0.971,0.36-0.971,0.792c0,0.479,0.348,0.695,1.103,0.983
			c1.008,0.384,1.523,0.888,1.523,1.751c0,1.02-0.791,1.739-2.171,1.739c-0.636,0-1.223-0.156-1.631-0.396L550.976,24.121z"/>
		<path d="M556.459,22.49c0.024,1.427,0.936,2.015,1.991,2.015c0.756,0,1.211-0.132,1.607-0.3l0.18,0.756
			c-0.372,0.168-1.008,0.36-1.931,0.36c-1.787,0-2.854-1.176-2.854-2.927s1.031-3.13,2.723-3.13c1.895,0,2.398,1.667,2.398,2.734
			c0,0.216-0.024,0.384-0.036,0.492H556.459z M559.554,21.734c0.012-0.671-0.276-1.715-1.463-1.715
			c-1.067,0-1.535,0.983-1.619,1.715H559.554z"/>
		<path d="M567.005,26.1v0.6h-5.997v-0.6H567.005z"/>
		<path d="M567.884,21.291c0-0.744-0.024-1.343-0.049-1.895h0.948l0.048,0.995h0.023c0.432-0.708,1.115-1.127,2.063-1.127
			c1.403,0,2.458,1.187,2.458,2.95c0,2.087-1.271,3.118-2.639,3.118c-0.768,0-1.438-0.336-1.786-0.912h-0.024v3.154h-1.043V21.291z
			 M568.927,22.837c0,0.156,0.024,0.3,0.048,0.432c0.192,0.732,0.828,1.235,1.583,1.235c1.115,0,1.764-0.911,1.764-2.243
			c0-1.163-0.612-2.159-1.728-2.159c-0.72,0-1.392,0.516-1.595,1.307c-0.036,0.132-0.072,0.288-0.072,0.432V22.837z"/>
		<path d="M267.155,31.084h1.056V39.6h-1.056V31.084z"/>
		<path d="M271.162,32.164c0.012,0.36-0.252,0.648-0.671,0.648c-0.372,0-0.636-0.288-0.636-0.648c0-0.372,0.276-0.66,0.66-0.66
			C270.91,31.504,271.162,31.792,271.162,32.164z M269.987,39.6v-5.805h1.056V39.6H269.987z"/>
		<path d="M296.241,39.6v-2.123h-3.622v-0.695l3.479-4.978h1.139v4.846h1.092v0.827h-1.092V39.6H296.241z M296.241,36.649v-2.603
			c0-0.408,0.012-0.816,0.036-1.224h-0.036c-0.239,0.456-0.432,0.792-0.647,1.151l-1.907,2.65v0.024H296.241z"/>
		<path d="M304.315,35.618c0,2.65-0.983,4.113-2.71,4.113c-1.523,0-2.555-1.427-2.579-4.006c0-2.614,1.128-4.054,2.711-4.054
			C303.38,31.672,304.315,33.135,304.315,35.618z M300.082,35.737c0,2.027,0.623,3.179,1.583,3.179c1.079,0,1.595-1.26,1.595-3.25
			c0-1.919-0.491-3.179-1.583-3.179C300.754,32.487,300.082,33.615,300.082,35.737z"/>
		<path d="M310.472,35.618c0,2.65-0.983,4.113-2.71,4.113c-1.523,0-2.555-1.427-2.579-4.006c0-2.614,1.128-4.054,2.711-4.054
			C309.536,31.672,310.472,33.135,310.472,35.618z M306.238,35.737c0,2.027,0.623,3.179,1.583,3.179c1.079,0,1.595-1.26,1.595-3.25
			c0-1.919-0.491-3.179-1.583-3.179C306.91,32.487,306.238,33.615,306.238,35.737z"/>
		<path d="M318.047,40.079l3.346-8.695h0.815l-3.357,8.695H318.047z"/>
		<path d="M361.09,31.084h1.055V39.6h-1.055V31.084z"/>
		<path d="M365.097,32.164c0.012,0.36-0.252,0.648-0.672,0.648c-0.371,0-0.636-0.288-0.636-0.648c0-0.372,0.276-0.66,0.66-0.66
			C364.845,31.504,365.097,31.792,365.097,32.164z M363.922,39.6v-5.805h1.055V39.6H363.922z"/>
	</g>
</g>
</svg>
