<?xml version="1.0" encoding="iso-8859-1"?>
<!-- Generator: Adobe Illustrator 16.2.1, SVG Export Plug-In . SVG Version: 6.00 Build 0)  -->
<!DOCTYPE svg PUBLIC "-//W3C//DTD SVG 1.1 Basic//EN" "http://www.w3.org/Graphics/SVG/1.1/DTD/svg11-basic.dtd">
<svg version="1.1" baseProfile="basic" xmlns="http://www.w3.org/2000/svg" xmlns:xlink="http://www.w3.org/1999/xlink" x="0px"
	 y="0px" width="572px" height="32px" viewBox="0 0 572 32" xml:space="preserve">
<g id="Layer_2_copy">
</g>
<g id="Layer_2">
</g>
<g id="Layer_1">
</g>
<g id="nyt_x5F_exporter_x5F_info" style="display:none;">
	<g style="display:inline;">
		<path d="M216.792,14.486l5.565-2.866v0.828l-4.689,2.351v0.024l4.689,2.351V18l-5.565-2.866V14.486z"/>
		<path d="M224.027,13.766c0-0.6-0.012-1.091-0.048-1.571h0.936l0.06,0.959h0.024c0.288-0.552,0.959-1.091,1.919-1.091
			c0.803,0,2.051,0.479,2.051,2.47V18h-1.056v-3.346c0-0.936-0.348-1.715-1.343-1.715c-0.695,0-1.235,0.492-1.415,1.079
			c-0.048,0.132-0.072,0.312-0.072,0.492V18h-1.056V13.766z"/>
		<path d="M230.916,12.195l1.271,3.43c0.132,0.384,0.276,0.839,0.372,1.187h0.024c0.108-0.348,0.228-0.792,0.372-1.211l1.151-3.406
			h1.115l-1.583,4.138c-0.756,1.991-1.271,3.01-1.991,3.634c-0.516,0.456-1.031,0.636-1.295,0.684l-0.264-0.887
			c0.264-0.084,0.612-0.252,0.924-0.516c0.288-0.228,0.647-0.635,0.887-1.175c0.048-0.108,0.084-0.192,0.084-0.251
			c0-0.06-0.024-0.144-0.072-0.276l-2.147-5.349H230.916z"/>
		<path d="M237.455,10.528v1.667h1.511v0.803h-1.511v3.13c0,0.72,0.204,1.127,0.792,1.127c0.276,0,0.479-0.036,0.612-0.072
			l0.048,0.792c-0.204,0.084-0.528,0.144-0.936,0.144c-0.492,0-0.888-0.156-1.14-0.444c-0.3-0.312-0.408-0.828-0.408-1.511v-3.167
			h-0.899v-0.803h0.899v-1.392L237.455,10.528z"/>
		<path d="M245.276,18.899v0.6h-5.997v-0.6H245.276z"/>
		<path d="M246.155,14.09c0-0.744-0.024-1.343-0.048-1.895h0.947l0.048,0.995h0.024c0.432-0.708,1.115-1.127,2.062-1.127
			c1.403,0,2.459,1.187,2.459,2.95c0,2.087-1.271,3.118-2.639,3.118c-0.768,0-1.439-0.336-1.787-0.912h-0.024v3.154h-1.043V14.09z
			 M247.199,15.637c0,0.156,0.024,0.3,0.048,0.432c0.192,0.732,0.828,1.235,1.583,1.235c1.115,0,1.763-0.911,1.763-2.243
			c0-1.163-0.611-2.159-1.727-2.159c-0.72,0-1.391,0.516-1.595,1.307c-0.036,0.132-0.072,0.288-0.072,0.432V15.637z"/>
		<path d="M252.983,14.006c0-0.684-0.012-1.271-0.048-1.811h0.923l0.036,1.139h0.048c0.264-0.779,0.899-1.271,1.607-1.271
			c0.12,0,0.204,0.012,0.3,0.036v0.996c-0.108-0.024-0.216-0.036-0.36-0.036c-0.744,0-1.271,0.564-1.416,1.355
			c-0.024,0.144-0.048,0.312-0.048,0.492V18h-1.043V14.006z"/>
		<path d="M257.375,15.29c0.024,1.427,0.936,2.015,1.991,2.015c0.755,0,1.211-0.132,1.607-0.3l0.18,0.756
			c-0.372,0.168-1.007,0.36-1.931,0.36c-1.787,0-2.854-1.176-2.854-2.927s1.032-3.13,2.723-3.13c1.895,0,2.399,1.667,2.399,2.734
			c0,0.216-0.024,0.384-0.036,0.492H257.375z M260.469,14.534c0.012-0.671-0.276-1.715-1.463-1.715
			c-1.067,0-1.535,0.983-1.619,1.715H260.469z"/>
		<path d="M262.907,18v-5.001h-0.815v-0.803h0.815v-0.276c0-0.815,0.18-1.559,0.672-2.027c0.396-0.384,0.923-0.54,1.415-0.54
			c0.372,0,0.696,0.084,0.899,0.168l-0.144,0.816c-0.156-0.072-0.372-0.132-0.671-0.132c-0.899,0-1.127,0.792-1.127,1.679v0.312
			h1.403v0.803h-1.403V18H262.907z"/>
		<path d="M266.051,16.92c0.312,0.204,0.864,0.42,1.392,0.42c0.768,0,1.127-0.384,1.127-0.863c0-0.504-0.3-0.78-1.079-1.068
			c-1.043-0.372-1.535-0.947-1.535-1.643c0-0.935,0.755-1.703,2.003-1.703c0.587,0,1.103,0.167,1.427,0.359l-0.264,0.768
			c-0.228-0.144-0.647-0.335-1.187-0.335c-0.624,0-0.972,0.36-0.972,0.792c0,0.479,0.348,0.695,1.104,0.983
			c1.007,0.384,1.523,0.888,1.523,1.751c0,1.02-0.792,1.739-2.171,1.739c-0.635,0-1.223-0.156-1.631-0.396L266.051,16.92z"/>
		<path d="M276.428,15.146L270.863,18v-0.828l4.726-2.351v-0.024l-4.726-2.351V11.62l5.565,2.854V15.146z"/>
		<path d="M221.879,28.886l5.565-2.866v0.828l-4.689,2.351v0.024l4.689,2.351V32.4l-5.565-2.866V28.886z"/>
		<path d="M229.115,28.166c0-0.6-0.012-1.091-0.048-1.571h0.936l0.06,0.959h0.024c0.288-0.552,0.959-1.091,1.919-1.091
			c0.803,0,2.051,0.479,2.051,2.47V32.4h-1.056v-3.346c0-0.936-0.348-1.715-1.343-1.715c-0.695,0-1.235,0.492-1.415,1.079
			c-0.048,0.132-0.072,0.312-0.072,0.492v3.49h-1.056V28.166z"/>
		<path d="M236.003,26.595l1.271,3.43c0.132,0.384,0.276,0.839,0.372,1.187h0.024c0.108-0.348,0.228-0.792,0.372-1.211l1.151-3.406
			h1.115l-1.583,4.138c-0.756,1.991-1.271,3.01-1.991,3.634c-0.516,0.456-1.031,0.636-1.295,0.684l-0.264-0.887
			c0.264-0.084,0.612-0.252,0.924-0.516c0.288-0.228,0.647-0.636,0.887-1.176c0.048-0.108,0.084-0.192,0.084-0.251
			c0-0.06-0.024-0.144-0.072-0.276l-2.147-5.349H236.003z"/>
		<path d="M242.542,24.928v1.667h1.511v0.803h-1.511v3.13c0,0.72,0.204,1.127,0.792,1.127c0.276,0,0.479-0.036,0.611-0.072
			l0.048,0.792c-0.204,0.084-0.528,0.144-0.936,0.144c-0.492,0-0.888-0.156-1.14-0.444c-0.3-0.312-0.408-0.828-0.408-1.511v-3.167
			h-0.899v-0.803h0.899v-1.391L242.542,24.928z"/>
		<path d="M251.243,28.49c0-0.744-0.024-1.343-0.048-1.895h0.947l0.048,0.995h0.024c0.432-0.708,1.115-1.127,2.062-1.127
			c1.403,0,2.459,1.187,2.459,2.95c0,2.087-1.271,3.118-2.639,3.118c-0.768,0-1.439-0.336-1.787-0.912h-0.024v3.154h-1.043V28.49z
			 M252.287,30.037c0,0.156,0.024,0.3,0.048,0.432c0.192,0.732,0.828,1.235,1.583,1.235c1.115,0,1.763-0.911,1.763-2.243
			c0-1.163-0.611-2.159-1.727-2.159c-0.72,0-1.391,0.516-1.595,1.307c-0.036,0.132-0.072,0.288-0.072,0.432V30.037z"/>
		<path d="M258.071,28.406c0-0.684-0.012-1.271-0.048-1.811h0.923l0.036,1.139h0.048c0.264-0.779,0.899-1.271,1.607-1.271
			c0.12,0,0.204,0.012,0.3,0.036v0.996c-0.108-0.024-0.216-0.036-0.36-0.036c-0.744,0-1.271,0.564-1.416,1.355
			c-0.024,0.144-0.048,0.312-0.048,0.492V32.4h-1.043V28.406z"/>
		<path d="M262.463,29.689c0.024,1.427,0.936,2.015,1.991,2.015c0.755,0,1.211-0.132,1.607-0.3l0.18,0.756
			c-0.372,0.168-1.007,0.36-1.931,0.36c-1.787,0-2.854-1.175-2.854-2.927c0-1.751,1.032-3.13,2.723-3.13
			c1.895,0,2.399,1.667,2.399,2.734c0,0.216-0.024,0.384-0.036,0.492H262.463z M265.557,28.934c0.012-0.671-0.276-1.715-1.463-1.715
			c-1.067,0-1.535,0.983-1.619,1.715H265.557z"/>
		<path d="M267.995,32.4v-5.001h-0.815v-0.803h0.815v-0.312c0-1.535,0.899-2.531,2.531-2.531c0.54,0,1.175,0.168,1.475,0.384
			l-0.3,0.804c-0.252-0.18-0.708-0.336-1.223-0.336c-1.116,0-1.439,0.78-1.439,1.703v0.288h3.37V32.4h-1.043v-5.001h-2.327V32.4
			H267.995z"/>
		<path d="M274.654,26.595l0.828,1.247c0.216,0.324,0.396,0.624,0.587,0.948h0.036c0.192-0.348,0.384-0.648,0.576-0.959l0.815-1.235
			h1.14l-1.979,2.806l2.039,2.999h-1.2l-0.851-1.307c-0.228-0.336-0.42-0.66-0.624-1.008h-0.024
			c-0.192,0.348-0.396,0.66-0.612,1.008l-0.839,1.307h-1.164l2.063-2.962l-1.967-2.842H274.654z"/>
		<path d="M285.2,29.545l-5.565,2.854v-0.828l4.726-2.351v-0.024l-4.726-2.351V26.02l5.565,2.854V29.545z"/>
		<path d="M286.787,28.886l5.565-2.866v0.828l-4.689,2.351v0.024l4.689,2.351V32.4l-5.565-2.866V28.886z"/>
		<path d="M293.136,32.88l3.346-8.695h0.815l-3.357,8.695H293.136z"/>
		<path d="M298.139,28.166c0-0.6-0.013-1.091-0.049-1.571h0.936l0.061,0.959h0.023c0.288-0.552,0.96-1.091,1.919-1.091
			c0.804,0,2.051,0.479,2.051,2.47V32.4h-1.055v-3.346c0-0.936-0.349-1.715-1.344-1.715c-0.695,0-1.235,0.492-1.415,1.079
			c-0.048,0.132-0.072,0.312-0.072,0.492v3.49h-1.055V28.166z"/>
		<path d="M305.026,26.595l1.271,3.43c0.132,0.384,0.276,0.839,0.372,1.187h0.024c0.107-0.348,0.228-0.792,0.371-1.211l1.151-3.406
			h1.116l-1.584,4.138c-0.755,1.991-1.271,3.01-1.99,3.634c-0.516,0.456-1.031,0.636-1.296,0.684l-0.264-0.887
			c0.264-0.084,0.611-0.252,0.924-0.516c0.288-0.228,0.647-0.636,0.888-1.176c0.048-0.108,0.084-0.192,0.084-0.251
			c0-0.06-0.024-0.144-0.072-0.276l-2.146-5.349H305.026z"/>
		<path d="M311.565,24.928v1.667h1.512v0.803h-1.512v3.13c0,0.72,0.204,1.127,0.792,1.127c0.275,0,0.479-0.036,0.611-0.072
			l0.048,0.792c-0.203,0.084-0.527,0.144-0.936,0.144c-0.491,0-0.887-0.156-1.139-0.444c-0.3-0.312-0.408-0.828-0.408-1.511v-3.167
			h-0.899v-0.803h0.899v-1.391L311.565,24.928z"/>
		<path d="M320.267,28.49c0-0.744-0.024-1.343-0.049-1.895h0.948l0.048,0.995h0.023c0.432-0.708,1.115-1.127,2.063-1.127
			c1.403,0,2.458,1.187,2.458,2.95c0,2.087-1.271,3.118-2.639,3.118c-0.768,0-1.438-0.336-1.786-0.912h-0.024v3.154h-1.043V28.49z
			 M321.31,30.037c0,0.156,0.024,0.3,0.048,0.432c0.192,0.732,0.828,1.235,1.583,1.235c1.115,0,1.764-0.911,1.764-2.243
			c0-1.163-0.612-2.159-1.728-2.159c-0.72,0-1.392,0.516-1.595,1.307c-0.036,0.132-0.072,0.288-0.072,0.432V30.037z"/>
		<path d="M327.095,28.406c0-0.684-0.013-1.271-0.049-1.811h0.924l0.036,1.139h0.048c0.264-0.779,0.899-1.271,1.607-1.271
			c0.12,0,0.204,0.012,0.3,0.036v0.996c-0.108-0.024-0.216-0.036-0.36-0.036c-0.743,0-1.271,0.564-1.415,1.355
			c-0.023,0.144-0.048,0.312-0.048,0.492V32.4h-1.043V28.406z"/>
		<path d="M331.485,29.689c0.024,1.427,0.936,2.015,1.991,2.015c0.756,0,1.211-0.132,1.607-0.3l0.18,0.756
			c-0.372,0.168-1.008,0.36-1.931,0.36c-1.787,0-2.854-1.175-2.854-2.927c0-1.751,1.031-3.13,2.723-3.13
			c1.895,0,2.398,1.667,2.398,2.734c0,0.216-0.024,0.384-0.036,0.492H331.485z M334.58,28.934c0.012-0.671-0.276-1.715-1.463-1.715
			c-1.067,0-1.535,0.983-1.619,1.715H334.58z"/>
		<path d="M337.018,32.4v-5.001h-0.815v-0.803h0.815v-0.312c0-1.535,0.899-2.531,2.53-2.531c0.54,0,1.176,0.168,1.476,0.384
			l-0.3,0.804c-0.252-0.18-0.708-0.336-1.224-0.336c-1.115,0-1.438,0.78-1.438,1.703v0.288h3.37V32.4h-1.044v-5.001h-2.326V32.4
			H337.018z"/>
		<path d="M343.678,26.595l0.827,1.247c0.217,0.324,0.396,0.624,0.588,0.948h0.036c0.192-0.348,0.384-0.648,0.576-0.959l0.815-1.235
			h1.139l-1.979,2.806l2.039,2.999h-1.199l-0.852-1.307c-0.229-0.336-0.42-0.66-0.624-1.008h-0.023
			c-0.192,0.348-0.396,0.66-0.612,1.008L343.57,32.4h-1.164l2.063-2.962l-1.968-2.842H343.678z"/>
		<path d="M354.223,29.545l-5.564,2.854v-0.828l4.725-2.351v-0.024l-4.725-2.351V26.02l5.564,2.854V29.545z"/>
	</g>
</g>
</svg>
