<?xml version="1.0" encoding="iso-8859-1"?>
<!-- Generator: Adobe Illustrator 16.2.1, SVG Export Plug-In . SVG Version: 6.00 Build 0)  -->
<!DOCTYPE svg PUBLIC "-//W3C//DTD SVG 1.1 Basic//EN" "http://www.w3.org/Graphics/SVG/1.1/DTD/svg11-basic.dtd">
<svg version="1.1" baseProfile="basic" xmlns="http://www.w3.org/2000/svg" xmlns:xlink="http://www.w3.org/1999/xlink" x="0px"
	 y="0px" width="572px" height="32px" viewBox="0 0 572 32" xml:space="preserve">
<g id="Layer_2_copy">
</g>
<g id="Layer_2">
</g>
<g id="Layer_1">
	<g>
		<path style="fill:#FFFFFF;" d="M19,22c0,1.1-0.9,2-2,2h-6c-1.1,0-2-0.9-2-2l0,0c0-1.1,0.9-2,2-2h6C18.1,20,19,20.9,19,22L19,22z"
			/>
		<path style="fill:none;stroke:#000000;stroke-width:2;stroke-linecap:round;stroke-linejoin:round;stroke-miterlimit:10;" d="
			M19,22c0,1.1-0.9,2-2,2h-6c-1.1,0-2-0.9-2-2l0,0c0-1.1,0.9-2,2-2h6C18.1,20,19,20.9,19,22L19,22z"/>
	</g>
	<g>
		<path style="fill:#FFFFFF;" d="M19,25c0,1.1-0.9,2-2,2h-6c-1.1,0-2-0.9-2-2l0,0c0-1.1,0.9-2,2-2h6C18.1,23,19,23.9,19,25L19,25z"
			/>
		<path style="fill:none;stroke:#000000;stroke-width:2;stroke-linecap:round;stroke-linejoin:round;stroke-miterlimit:10;" d="
			M19,25c0,1.1-0.9,2-2,2h-6c-1.1,0-2-0.9-2-2l0,0c0-1.1,0.9-2,2-2h6C18.1,23,19,23.9,19,25L19,25z"/>
	</g>
	<g>
		<path d="M55.502,13.002c-0.001-0.633,0.241-1.204,0.627-1.644c-0.554-0.188-1.048-0.561-1.364-1.107
			c-0.317-0.547-0.394-1.163-0.279-1.737c-0.574,0.114-1.188,0.039-1.735-0.277c-0.548-0.315-0.922-0.81-1.11-1.365
			C51.202,7.258,50.632,7.5,50,7.5s-1.202-0.242-1.643-0.629c-0.188,0.555-0.561,1.05-1.107,1.366
			c-0.547,0.316-1.162,0.392-1.737,0.277c0.115,0.574,0.039,1.189-0.277,1.736s-0.811,0.92-1.366,1.108
			c0.387,0.44,0.628,1.01,0.628,1.642c0,0.632-0.242,1.203-0.628,1.643c0.555,0.188,1.049,0.561,1.365,1.108
			c0.316,0.547,0.392,1.162,0.277,1.736c0.574-0.114,1.188-0.039,1.735,0.277c0.548,0.315,0.921,0.81,1.109,1.365
			c0.439-0.386,1.009-0.628,1.641-0.627c0.633,0,1.204,0.241,1.644,0.627c0.188-0.555,0.56-1.048,1.107-1.364
			c0.547-0.317,1.163-0.393,1.738-0.278c-0.115-0.574-0.039-1.188,0.277-1.735c0.315-0.548,0.811-0.922,1.366-1.11
			C55.743,14.203,55.501,13.634,55.502,13.002z"/>
		<path d="M86,7.167c-0.67,0-1.371-0.713-1.874-1.154c-0.213,0.633-0.463,1.601-1.043,1.935c-0.581,0.335-1.543,0.068-2.199-0.062
			c0.13,0.655,0.398,1.618,0.063,2.198c-0.336,0.581-1.304,0.831-1.937,1.045c0.441,0.502,1.154,1.203,1.154,1.873
			s-0.713,1.371-1.154,1.873c0.633,0.214,1.601,0.464,1.936,1.044s0.067,1.543-0.063,2.198c0.655-0.13,1.617-0.398,2.197-0.063
			c0.582,0.335,0.833,1.303,1.046,1.936c0.501-0.44,1.202-1.153,1.871-1.153c0.671,0,1.372,0.712,1.875,1.153
			c0.214-0.632,0.463-1.6,1.043-1.934c0.58-0.336,1.544-0.069,2.199,0.062c-0.13-0.654-0.398-1.617-0.063-2.197
			c0.334-0.581,1.303-0.832,1.936-1.046c-0.44-0.501-1.153-1.201-1.153-1.871c-0.001-0.671,0.712-1.372,1.153-1.875
			c-0.632-0.214-1.6-0.463-1.934-1.043c-0.337-0.581-0.07-1.544,0.061-2.2c-0.654,0.13-1.617,0.398-2.197,0.063
			c-0.582-0.335-0.832-1.303-1.046-1.935C87.371,6.453,86.67,7.167,86,7.167z"/>
		<path d="M122.001,6.833c-0.708,0-1.54-1.184-2.104-1.679c-0.24,0.71-0.367,2.151-0.98,2.505c-0.614,0.354-1.925-0.256-2.661-0.402
			c0.146,0.734,0.757,2.046,0.403,2.66c-0.354,0.614-1.795,0.741-2.506,0.981c0.495,0.563,1.68,1.395,1.68,2.103
			c0,0.708-1.185,1.54-1.68,2.103c0.71,0.24,2.151,0.367,2.506,0.98s-0.256,1.925-0.403,2.66c0.735-0.146,2.046-0.757,2.659-0.403
			c0.614,0.354,0.742,1.795,0.982,2.506c0.562-0.495,1.393-1.679,2.101-1.679c0.709-0.001,1.541,1.184,2.104,1.679
			c0.24-0.71,0.367-2.151,0.98-2.504c0.614-0.355,1.926,0.255,2.662,0.402c-0.146-0.735-0.757-2.046-0.403-2.659
			c0.354-0.615,1.795-0.742,2.506-0.982c-0.495-0.563-1.679-1.393-1.679-2.101c0-0.71,1.184-1.541,1.679-2.105
			c-0.709-0.24-2.15-0.366-2.504-0.979c-0.356-0.614,0.254-1.926,0.402-2.662c-0.735,0.146-2.046,0.757-2.659,0.403
			c-0.615-0.354-0.742-1.795-0.983-2.505C123.539,5.648,122.709,6.833,122.001,6.833z"/>
		<path d="M158.001,6.499c-0.748,0-1.708-1.655-2.333-2.205c-0.267,0.788-0.271,2.702-0.917,3.075
			c-0.647,0.375-2.307-0.579-3.124-0.741c0.163,0.814,1.117,2.474,0.743,3.121c-0.373,0.648-2.287,0.652-3.076,0.918
			c0.549,0.625,2.206,1.586,2.206,2.333c0,0.747-1.657,1.708-2.206,2.333c0.788,0.267,2.703,0.271,3.076,0.917
			c0.373,0.646-0.581,2.308-0.744,3.123c0.816-0.162,2.476-1.117,3.123-0.743c0.647,0.373,0.652,2.288,0.919,3.076
			c0.624-0.549,1.584-2.205,2.331-2.204c0.747-0.001,1.708,1.655,2.333,2.204c0.268-0.788,0.271-2.702,0.917-3.074
			c0.646-0.375,2.308,0.58,3.123,0.742c-0.163-0.815-1.117-2.474-0.743-3.121c0.372-0.648,2.287-0.653,3.076-0.919
			c-0.549-0.625-2.205-1.585-2.205-2.331c0-0.748,1.656-1.708,2.205-2.335c-0.788-0.267-2.701-0.27-3.074-0.917
			c-0.375-0.646,0.579-2.308,0.742-3.123c-0.815,0.162-2.475,1.116-3.121,0.742c-0.648-0.373-0.653-2.287-0.92-3.075
			C159.708,4.843,158.748,6.499,158.001,6.499z"/>
		<path d="M194.002,6.165c-0.786,0.001-1.877-2.126-2.564-2.729c-0.292,0.865-0.174,3.253-0.854,3.645
			c-0.68,0.394-2.688-0.902-3.586-1.081c0.179,0.895,1.477,2.903,1.084,3.583c-0.393,0.681-2.78,0.562-3.646,0.855
			c0.603,0.687,2.731,1.778,2.731,2.563c0,0.785-2.128,1.876-2.731,2.563c0.866,0.293,3.254,0.174,3.646,0.854
			c0.393,0.679-0.905,2.688-1.083,3.584c0.896-0.178,2.904-1.476,3.584-1.083c0.681,0.393,0.562,2.781,0.855,3.646
			c0.686-0.603,1.777-2.73,2.562-2.73c0.785-0.001,1.877,2.127,2.563,2.73c0.294-0.866,0.174-3.253,0.854-3.645
			c0.68-0.393,2.689,0.904,3.585,1.083c-0.179-0.896-1.477-2.904-1.083-3.583c0.392-0.681,2.78-0.563,3.646-0.856
			c-0.603-0.686-2.729-1.777-2.729-2.561c0-0.787,2.127-1.877,2.729-2.566c-0.865-0.292-3.251-0.173-3.644-0.852
			c-0.394-0.681,0.902-2.689,1.082-3.586c-0.896,0.178-2.904,1.476-3.583,1.083c-0.682-0.393-0.563-2.78-0.857-3.646
			C195.876,4.038,194.787,6.165,194.002,6.165z"/>
		<path d="M230.002,5.832c-0.824,0.001-2.046-2.598-2.795-3.255c-0.318,0.943-0.077,3.804-0.79,4.214
			c-0.713,0.413-3.07-1.227-4.048-1.421c0.194,0.976,1.835,3.332,1.424,4.044c-0.412,0.715-3.273,0.473-4.218,0.792
			c0.657,0.749,3.257,1.97,3.257,2.793c0,0.823-2.6,2.045-3.257,2.794c0.944,0.319,3.806,0.077,4.217,0.79
			c0.412,0.712-1.229,3.07-1.424,4.046c0.977-0.194,3.333-1.835,4.045-1.423c0.714,0.413,0.474,3.274,0.792,4.217
			c0.748-0.657,1.97-3.256,2.792-3.256c0.823-0.001,2.046,2.599,2.794,3.256c0.32-0.943,0.078-3.805,0.791-4.216
			c0.713-0.412,3.07,1.229,4.047,1.423c-0.194-0.976-1.835-3.333-1.423-4.045c0.411-0.714,3.272-0.473,4.217-0.792
			c-0.657-0.748-3.256-1.969-3.256-2.791c0-0.825,2.599-2.046,3.256-2.796c-0.943-0.319-3.803-0.076-4.214-0.788
			c-0.414-0.714,1.226-3.071,1.422-4.048c-0.977,0.194-3.333,1.835-4.045,1.423c-0.715-0.411-0.474-3.272-0.794-4.216
			C232.045,3.233,230.825,5.832,230.002,5.832z"/>
		<path d="M266.003,5.498c-0.862,0.001-2.215-3.069-3.025-3.78c-0.345,1.02,0.019,4.354-0.727,4.784
			c-0.746,0.433-3.452-1.55-4.51-1.76c0.21,1.055,2.195,3.76,1.764,4.506c-0.431,0.749-3.765,0.384-4.787,0.729
			c0.711,0.811,3.782,2.162,3.782,3.023c0,0.862-3.071,2.213-3.782,3.024c1.022,0.345,4.356-0.02,4.787,0.726
			c0.431,0.745-1.553,3.452-1.765,4.509c1.058-0.21,3.763-2.194,4.509-1.764c0.747,0.431,0.383,3.766,0.729,4.787
			c0.81-0.711,2.161-3.781,3.022-3.781c0.861-0.001,2.214,3.07,3.023,3.781c0.348-1.021-0.019-4.355,0.727-4.786
			c0.747-0.431,3.452,1.553,4.509,1.763c-0.21-1.056-2.195-3.762-1.764-4.507c0.43-0.748,3.765-0.384,4.787-0.729
			c-0.711-0.809-3.781-2.161-3.781-3.021c0-0.863,3.07-2.213,3.781-3.026c-1.021-0.345-4.354,0.021-4.784-0.725
			c-0.432-0.748,1.55-3.454,1.762-4.51c-1.057,0.21-3.762,2.194-4.506,1.763c-0.749-0.43-0.383-3.765-0.731-4.787
			C268.214,2.429,266.864,5.498,266.003,5.498z"/>
		<path d="M302.004,5.164c-0.901,0.001-2.385-3.54-3.256-4.305c-0.372,1.097,0.115,4.905-0.664,5.354
			c-0.779,0.452-3.833-1.874-4.972-2.1c0.226,1.135,2.554,4.188,2.104,4.967c-0.449,0.782-4.257,0.294-5.357,0.666
			c0.766,0.873,4.309,2.354,4.309,3.253c0,0.9-3.543,2.382-4.309,3.255c1.1,0.371,4.908-0.117,5.357,0.662
			c0.45,0.779-1.877,3.834-2.104,4.971c1.137-0.226,4.191-2.553,4.971-2.103s0.293,4.258,0.665,5.357
			c0.871-0.766,2.353-4.307,3.252-4.307c0.899-0.001,2.382,3.541,3.253,4.307c0.374-1.099-0.115-4.907,0.664-5.356
			c0.779-0.45,3.834,1.878,4.971,2.104c-0.226-1.137-2.554-4.19-2.104-4.969c0.449-0.781,4.257-0.294,5.357-0.665
			c-0.766-0.871-4.307-2.353-4.307-3.251c0-0.901,3.541-2.382,4.307-3.257c-1.1-0.371-4.905,0.118-5.354-0.661
			c-0.451-0.78,1.875-3.834,2.103-4.972c-1.139,0.226-4.191,2.552-4.969,2.103c-0.782-0.449-0.294-4.258-0.668-5.357
			C304.382,1.624,302.902,5.164,302.004,5.164z"/>
		<path d="M338.004,4.831c-0.939,0.001-2.553-4.011-3.486-4.831c-0.397,1.175,0.212,5.456-0.6,5.924
			c-0.812,0.471-4.215-2.197-5.435-2.439c0.242,1.215,2.913,4.617,2.444,5.429c-0.469,0.815-4.75,0.205-5.928,0.602
			c0.819,0.935,4.834,2.546,4.834,3.484c0,0.938-4.015,2.55-4.834,3.485c1.178,0.397,5.459-0.214,5.928,0.598
			s-2.201,4.215-2.444,5.433c1.218-0.242,4.62-2.913,5.433-2.443c0.813,0.47,0.204,4.751,0.602,5.928
			c0.933-0.82,2.545-4.833,3.482-4.833c0.938-0.002,2.551,4.013,3.483,4.833c0.4-1.177-0.212-5.458,0.601-5.926
			c0.812-0.469,4.215,2.202,5.433,2.443c-0.242-1.217-2.913-4.619-2.443-5.431c0.468-0.814,4.749-0.204,5.927-0.602
			c-0.819-0.933-4.832-2.545-4.832-3.481c0-0.94,4.013-2.55,4.832-3.487c-1.177-0.397-5.455,0.215-5.924-0.597
			c-0.471-0.813,2.198-4.216,2.442-5.434c-1.219,0.242-4.62,2.912-5.431,2.443c-0.815-0.469-0.204-4.75-0.604-5.927
			C340.551,0.819,338.941,4.831,338.004,4.831z"/>
		<path d="M374.004,5.276c-0.889,0.001-2.328-3.383-3.18-4.13c-0.362,1.072,0.083,4.722-0.685,5.164
			c-0.768,0.445-3.705-1.766-4.817-1.987c0.221,1.108,2.434,4.046,1.99,4.814c-0.443,0.771-4.094,0.324-5.167,0.687
			c0.747,0.852,4.133,2.29,4.133,3.176c0,0.888-3.386,2.326-4.133,3.178c1.073,0.362,4.724-0.085,5.167,0.683
			s-1.77,3.707-1.991,4.817c1.111-0.221,4.049-2.434,4.817-1.99c0.769,0.444,0.323,4.095,0.686,5.168
			c0.851-0.748,2.289-4.132,3.176-4.132c0.887-0.001,2.326,3.384,3.177,4.132c0.365-1.073-0.083-4.723,0.685-5.166
			c0.769-0.444,3.706,1.769,4.817,1.99c-0.222-1.11-2.435-4.047-1.99-4.815c0.442-0.77,4.093-0.324,5.167-0.687
			c-0.748-0.851-4.132-2.289-4.132-3.175c0-0.889,3.384-2.326,4.132-3.18c-1.073-0.363-4.721,0.085-5.164-0.683
			c-0.445-0.769,1.766-3.707,1.988-4.818c-1.11,0.221-4.048,2.433-4.814,1.989c-0.771-0.443-0.323-4.093-0.688-5.167
			C376.326,1.892,374.891,5.276,374.004,5.276z"/>
		<path d="M410.002,5.721c-0.836,0.001-2.102-2.755-2.871-3.431c-0.327,0.969-0.045,3.988-0.769,4.404
			c-0.725,0.42-3.197-1.334-4.202-1.533c0.199,1.001,1.955,3.475,1.537,4.198c-0.418,0.726-3.437,0.444-4.406,0.771
			c0.674,0.77,3.432,2.034,3.432,2.87s-2.758,2.101-3.432,2.871c0.97,0.328,3.988,0.044,4.406,0.768s-1.337,3.197-1.537,4.201
			c1.003-0.2,3.477-1.955,4.2-1.537c0.725,0.418,0.443,3.437,0.771,4.407c0.769-0.675,2.033-3.431,2.868-3.431
			c0.836-0.002,2.103,2.755,2.871,3.431c0.329-0.97,0.045-3.988,0.769-4.405c0.725-0.419,3.198,1.337,4.201,1.536
			c-0.199-1.003-1.955-3.476-1.537-4.199c0.418-0.726,3.437-0.443,4.406-0.771c-0.674-0.768-3.43-2.033-3.43-2.868
			c0-0.838,2.756-2.102,3.43-2.873c-0.969-0.327-3.985-0.043-4.403-0.768c-0.419-0.725,1.335-3.198,1.535-4.201
			c-1.003,0.199-3.476,1.954-4.198,1.536c-0.727-0.418-0.443-3.438-0.772-4.407C412.102,2.965,410.838,5.721,410.002,5.721z"/>
		<path d="M446.002,6.165c-0.786,0.001-1.878-2.126-2.564-2.729c-0.293,0.865-0.175,3.253-0.854,3.645
			c-0.68,0.394-2.689-0.903-3.586-1.081c0.178,0.895,1.477,2.903,1.084,3.583c-0.393,0.681-2.781,0.562-3.646,0.855
			c0.603,0.688,2.73,1.778,2.73,2.563s-2.128,1.876-2.73,2.563c0.865,0.293,3.254,0.174,3.646,0.853
			c0.393,0.679-0.905,2.689-1.083,3.584c0.896-0.178,2.904-1.476,3.584-1.083s0.562,2.781,0.855,3.646
			c0.686-0.603,1.777-2.73,2.561-2.729c0.785-0.001,1.877,2.126,2.564,2.729c0.294-0.865,0.174-3.253,0.854-3.645
			c0.68-0.394,2.689,0.904,3.585,1.082c-0.179-0.896-1.476-2.903-1.083-3.583c0.392-0.681,2.779-0.562,3.646-0.855
			c-0.604-0.687-2.73-1.777-2.73-2.561c0-0.787,2.127-1.877,2.73-2.566c-0.865-0.292-3.252-0.173-3.645-0.852
			c-0.394-0.68,0.902-2.689,1.082-3.585c-0.896,0.178-2.904,1.475-3.582,1.083c-0.683-0.392-0.563-2.78-0.857-3.646
			C447.876,4.038,446.786,6.165,446.002,6.165z"/>
		<path d="M482.001,6.61c-0.734,0-1.651-1.498-2.257-2.029c-0.258,0.762-0.303,2.519-0.938,2.885
			c-0.635,0.368-2.179-0.472-2.969-0.629c0.157,0.788,0.997,2.332,0.63,2.968c-0.367,0.637-2.124,0.682-2.886,0.939
			c0.53,0.604,2.029,1.522,2.029,2.256c0.001,0.734-1.499,1.652-2.029,2.257c0.762,0.258,2.519,0.303,2.886,0.938
			c0.367,0.635-0.474,2.179-0.631,2.968c0.789-0.157,2.333-0.996,2.969-0.629c0.636,0.367,0.682,2.123,0.939,2.886
			c0.604-0.53,1.521-2.029,2.254-2.029c0.734-0.001,1.653,1.498,2.258,2.029c0.259-0.762,0.303-2.518,0.938-2.885
			c0.637-0.368,2.181,0.472,2.97,0.629c-0.157-0.788-0.997-2.332-0.63-2.967c0.367-0.637,2.124-0.683,2.886-0.94
			c-0.53-0.604-2.028-1.521-2.028-2.254c0-0.735,1.498-1.652,2.028-2.259c-0.761-0.258-2.517-0.302-2.883-0.938
			c-0.369-0.636,0.47-2.181,0.628-2.97c-0.789,0.157-2.332,0.997-2.967,0.63c-0.638-0.367-0.683-2.124-0.941-2.886
			C483.651,5.111,482.735,6.61,482.001,6.61z"/>
		<path d="M518.001,7.055c-0.684,0-1.428-0.871-1.95-1.33c-0.223,0.659-0.432,1.785-1.022,2.125
			c-0.592,0.342-1.671-0.04-2.354-0.175c0.136,0.681,0.519,1.76,0.177,2.352c-0.342,0.592-1.467,0.801-2.126,1.024
			c0.459,0.522,1.329,1.266,1.329,1.949c0.001,0.684-0.87,1.428-1.329,1.95c0.659,0.223,1.784,0.432,2.125,1.022
			c0.342,0.591-0.04,1.671-0.176,2.353c0.682-0.136,1.76-0.518,2.351-0.176c0.593,0.341,0.803,1.467,1.025,2.125
			c0.521-0.458,1.266-1.329,1.947-1.329c0.684,0,1.428,0.87,1.951,1.329c0.223-0.659,0.431-1.783,1.022-2.124
			c0.592-0.342,1.672,0.04,2.354,0.175c-0.136-0.681-0.519-1.76-0.177-2.351c0.341-0.592,1.467-0.802,2.126-1.025
			c-0.458-0.522-1.328-1.266-1.328-1.947c-0.001-0.684,0.869-1.429,1.328-1.952c-0.658-0.223-1.782-0.431-2.124-1.022
			c-0.343-0.592,0.039-1.672,0.175-2.354c-0.681,0.135-1.76,0.518-2.351,0.176c-0.594-0.341-0.803-1.467-1.025-2.125
			C519.427,6.185,518.684,7.055,518.001,7.055z"/>
		<path d="M559.502,13.002c-0.001-0.633,0.24-1.204,0.627-1.644c-0.554-0.188-1.048-0.561-1.363-1.107
			c-0.317-0.547-0.394-1.163-0.279-1.737c-0.573,0.114-1.188,0.039-1.734-0.277c-0.549-0.315-0.922-0.81-1.109-1.365
			C555.202,7.258,554.632,7.5,554,7.5s-1.202-0.242-1.643-0.629c-0.188,0.555-0.561,1.05-1.107,1.366s-1.162,0.392-1.736,0.277
			c0.114,0.574,0.039,1.189-0.277,1.736s-0.811,0.92-1.365,1.108c0.387,0.44,0.628,1.01,0.628,1.642
			c0.001,0.632-0.241,1.203-0.628,1.643c0.555,0.188,1.049,0.561,1.364,1.108c0.316,0.547,0.392,1.162,0.277,1.736
			c0.574-0.114,1.188-0.039,1.735,0.277c0.548,0.315,0.922,0.81,1.109,1.365c0.439-0.386,1.01-0.628,1.641-0.627
			c0.633,0,1.203,0.241,1.645,0.627c0.188-0.555,0.56-1.048,1.106-1.364c0.548-0.317,1.163-0.393,1.737-0.278
			c-0.114-0.574-0.039-1.188,0.277-1.735c0.315-0.548,0.811-0.922,1.365-1.11C559.743,14.203,559.502,13.634,559.502,13.002z"/>
	</g>
	
		<circle style="fill:#FFFFFF;stroke:#000000;stroke-width:2;stroke-linecap:round;stroke-linejoin:round;stroke-miterlimit:10;" cx="14" cy="13" r="8"/>
	<g>
		<path style="fill:#FFFFFF;" d="M11,23.5c-0.827,0-1.5-0.673-1.5-1.5s0.673-1.5,1.5-1.5h6c0.827,0,1.5,0.673,1.5,1.5
			s-0.673,1.5-1.5,1.5H11z"/>
		<path d="M17,21c0.551,0,1,0.449,1,1s-0.449,1-1,1h-6c-0.551,0-1-0.449-1-1s0.449-1,1-1H17 M17,20h-6c-1.1,0-2,0.9-2,2s0.9,2,2,2h6
			c1.1,0,2-0.9,2-2S18.1,20,17,20L17,20z"/>
	</g>
	<g>
		<path style="fill:#FFFFFF;" d="M11,26.5c-0.827,0-1.5-0.673-1.5-1.5s0.673-1.5,1.5-1.5h6c0.827,0,1.5,0.673,1.5,1.5
			s-0.673,1.5-1.5,1.5H11z"/>
		<path d="M17,24c0.551,0,1,0.449,1,1s-0.449,1-1,1h-6c-0.551,0-1-0.449-1-1s0.449-1,1-1H17 M17,23h-6c-1.1,0-2,0.9-2,2s0.9,2,2,2h6
			c1.1,0,2-0.9,2-2S18.1,23,17,23L17,23z"/>
	</g>
	<path style="fill:none;stroke:#000000;stroke-linecap:round;stroke-linejoin:round;stroke-miterlimit:10;" d="M15.5,20.5v-6
		c0-0.55,0.45-1,1-1l0,0c0.55,0,1,0.45,1,1l0,0c0,0.55-0.45,1-1,1h-5c-0.55,0-1-0.45-1-1l0,0c0-0.55,0.45-1,1-1l0,0
		c0.55,0,1,0.45,1,1v6"/>
	<g>
		<g>
			<g>
				<path style="fill:#FFFFFF;" d="M55,22c0,1.1-0.9,2-2,2h-6c-1.1,0-2-0.9-2-2l0,0c0-1.1,0.9-2,2-2h6C54.1,20,55,20.9,55,22L55,22z
					"/>
				<path style="fill:none;stroke:#000000;stroke-width:2;stroke-linecap:round;stroke-linejoin:round;stroke-miterlimit:10;" d="
					M55,22c0,1.1-0.9,2-2,2h-6c-1.1,0-2-0.9-2-2l0,0c0-1.1,0.9-2,2-2h6C54.1,20,55,20.9,55,22L55,22z"/>
			</g>
			<g>
				<path style="fill:#FFFFFF;" d="M55,25c0,1.1-0.9,2-2,2h-6c-1.1,0-2-0.9-2-2l0,0c0-1.1,0.9-2,2-2h6C54.1,23,55,23.9,55,25L55,25z
					"/>
				<path style="fill:none;stroke:#000000;stroke-width:2;stroke-linecap:round;stroke-linejoin:round;stroke-miterlimit:10;" d="
					M55,25c0,1.1-0.9,2-2,2h-6c-1.1,0-2-0.9-2-2l0,0c0-1.1,0.9-2,2-2h6C54.1,23,55,23.9,55,25L55,25z"/>
			</g>
			
				<circle style="fill:#FFFFFF;stroke:#000000;stroke-width:2;stroke-linecap:round;stroke-linejoin:round;stroke-miterlimit:10;" cx="50" cy="13" r="8"/>
			<g>
				<path style="fill:#FFFFFF;" d="M47,23.5c-1.018,0-1.5-0.401-1.5-0.5v-2c0-0.099,0.482-0.5,1.5-0.5h6c1.018,0,1.5,0.401,1.5,0.5
					v2c0,0.099-0.482,0.5-1.5,0.5H47z"/>
				<path d="M53,21c0.498,0,0.844,0.121,1,0.206v1.588C53.844,22.879,53.498,23,53,23h-1h-4h-1c-0.498,0-0.844-0.121-1-0.206v-1.588
					C46.156,21.121,46.502,21,47,21h1h4H53 M53,20h-1c-1.1,0-2.9,0-4,0h-1c-1.1,0-2,0.45-2,1s0,1.45,0,2s0.9,1,2,1h1
					c1.1,0,2.9,0,4,0h1c1.1,0,2-0.45,2-1s0-1.45,0-2S54.1,20,53,20L53,20z"/>
			</g>
			<g>
				<path style="fill:#FFFFFF;" d="M47,26.5c-1.018,0-1.5-0.401-1.5-0.5v-2c0-0.099,0.482-0.5,1.5-0.5h6c1.018,0,1.5,0.401,1.5,0.5
					v2c0,0.099-0.482,0.5-1.5,0.5H47z"/>
				<path d="M53,24c0.498,0,0.844,0.121,1,0.206v1.588C53.844,25.879,53.498,26,53,26h-1h-4h-1c-0.498,0-0.844-0.121-1-0.206v-1.588
					C46.156,24.121,46.502,24,47,24h1h4H53 M53,23h-1c-1.1,0-2.9,0-4,0h-1c-1.1,0-2,0.45-2,1s0,1.45,0,2s0.9,1,2,1h1
					c1.1,0,2.9,0,4,0h1c1.1,0,2-0.45,2-1s0-1.45,0-2S54.1,23,53,23L53,23z"/>
			</g>
			<path style="fill:none;stroke:#000000;stroke-linecap:round;stroke-linejoin:round;stroke-miterlimit:10;" d="M51.5,20.5v-6
				c0-0.55,0.45-1,1-1l0,0c0.55,0,1,0.45,1,1l0,0c0,0.55-0.45,1-1,1h-5c-0.55,0-1-0.45-1-1l0,0c0-0.55,0.45-1,1-1l0,0
				c0.55,0,1,0.45,1,1v6"/>
		</g>
		<g>
			<g>
				<path style="fill:#FFFFFF;" d="M91.3,22.079c-0.217,1.078-1.294,1.925-2.394,1.883L83.8,23.763
					c-1.099-0.042-1.821-0.96-1.604-2.038l0.094-0.463c0.217-1.078,1.294-1.925,2.394-1.883l5.106,0.198
					c1.099,0.042,1.821,0.96,1.604,2.038L91.3,22.079z"/>
				<path style="fill:none;stroke:#000000;stroke-width:2;stroke-linecap:round;stroke-linejoin:round;stroke-miterlimit:10;" d="
					M91.3,22.079c-0.217,1.078-1.294,1.925-2.394,1.883L83.8,23.763c-1.099-0.042-1.821-0.96-1.604-2.038l0.094-0.463
					c0.217-1.078,1.294-1.925,2.394-1.883l5.106,0.198c1.099,0.042,1.821,0.96,1.604,2.038L91.3,22.079z"/>
			</g>
			<g>
				<path style="fill:#FFFFFF;" d="M91.566,24.969c-0.218,1.078-1.295,1.925-2.394,1.883l-5.106-0.198
					c-1.099-0.042-1.821-0.96-1.603-2.038l0.093-0.463c0.218-1.078,1.295-1.925,2.394-1.883l5.106,0.198
					c1.099,0.042,1.821,0.96,1.603,2.038L91.566,24.969z"/>
				<path style="fill:none;stroke:#000000;stroke-width:2;stroke-linecap:round;stroke-linejoin:round;stroke-miterlimit:10;" d="
					M91.566,24.969c-0.218,1.078-1.295,1.925-2.394,1.883l-5.106-0.198c-1.099-0.042-1.821-0.96-1.603-2.038l0.093-0.463
					c0.218-1.078,1.295-1.925,2.394-1.883l5.106,0.198c1.099,0.042,1.821,0.96,1.603,2.038L91.566,24.969z"/>
			</g>
			<path style="fill:#FFFFFF;stroke:#000000;stroke-width:2;stroke-linecap:round;stroke-linejoin:round;stroke-miterlimit:10;" d="
				M86,5c2.188,0,4.194,0.881,5.656,2.343C93.119,8.805,94,10.812,94,13s-0.881,4.194-2.343,5.657C90.195,20.119,88.189,21,86,21
				c-2.188,0-4.194-0.881-5.656-2.342C78.881,17.195,78,15.189,78,13c0-2.188,0.881-4.195,2.343-5.657C81.806,5.881,83.812,5,86,5z"
				/>
			<g>
				<path style="fill:#FFFFFF;" d="M84.119,23.484c-0.381,0-0.744-0.01-1.01-0.032c-0.385-0.031-0.698-0.322-0.721-0.561
					c-0.045-0.472-0.082-0.879-0.086-0.94c0.004-0.004,0.047-0.437,0.098-0.939c0.027-0.271,0.36-0.605,0.763-0.649l2.466-0.277
					c0.752-0.086,1.577-0.187,1.833-0.223c0.042-0.006,0.116-0.007,0.212-0.007c0.454,0,1.299,0.048,2.103,0.121
					c0.929,0.083,1.423,0.462,1.455,0.592c-0.034,0.501-0.095,1.347-0.138,1.869c-0.022,0.279-0.286,0.554-0.553,0.578
					c-0.511,0.046-1.585,0.138-2.389,0.205c-0.804,0.066-2.039,0.166-2.745,0.22C85.036,23.47,84.565,23.484,84.119,23.484z"/>
				<path d="M87.673,20.356c0.44,0,1.268,0.047,2.058,0.119c0.486,0.043,0.824,0.182,0.984,0.281
					c-0.034,0.508-0.085,1.194-0.121,1.642c-0.003,0.038-0.066,0.11-0.1,0.12c-0.51,0.046-1.583,0.138-2.386,0.205
					s-2.037,0.166-2.743,0.22c-0.34,0.026-0.795,0.042-1.248,0.042c-0.385,0-0.729-0.011-0.97-0.03
					c-0.135-0.011-0.251-0.104-0.264-0.11c-0.037-0.381-0.068-0.718-0.08-0.863c0.014-0.151,0.05-0.509,0.089-0.906
					c0.018-0.057,0.157-0.197,0.323-0.215c0.609-0.067,1.72-0.192,2.468-0.277c0.757-0.087,1.588-0.188,1.831-0.223
					C87.553,20.356,87.606,20.356,87.673,20.356 M87.673,19.356c-0.129,0-0.227,0.004-0.283,0.012
					c-0.254,0.036-1.073,0.136-1.819,0.221c-0.746,0.085-1.855,0.209-2.463,0.276c-0.609,0.066-1.152,0.56-1.207,1.096
					c-0.055,0.536-0.1,0.992-0.1,1.015c0,0.022,0.04,0.456,0.088,0.963c0.048,0.508,0.579,0.963,1.178,1.012
					c0.277,0.022,0.655,0.034,1.051,0.034c0.46,0,0.945-0.015,1.325-0.044c0.707-0.054,1.944-0.154,2.749-0.221
					s1.881-0.159,2.392-0.205c0.511-0.045,0.964-0.512,1.007-1.036s0.104-1.374,0.138-1.888s-0.826-1.015-1.908-1.112
					C88.978,19.403,88.128,19.356,87.673,19.356L87.673,19.356z"/>
			</g>
			<g>
				<path style="fill:#FFFFFF;" d="M85.118,26.376c-0.475,0-1.016-0.017-1.458-0.049c-0.615-0.045-0.996-0.336-1.022-0.45
					c-0.037-0.403-0.066-0.799-0.066-0.895c0.003-0.091,0.049-0.576,0.101-1.088c0.03-0.299,0.376-0.607,0.726-0.646l2.466-0.277
					c0.773-0.088,1.602-0.188,1.841-0.223c0.036-0.004,0.099-0.005,0.181-0.005c0.439,0,1.293,0.05,2.126,0.123
					c0.946,0.084,1.449,0.464,1.481,0.595c-0.036,0.502-0.101,1.351-0.145,1.875c-0.026,0.305-0.247,0.561-0.419,0.578
					c-0.432,0.042-1.512,0.139-2.399,0.216c-0.889,0.078-2.049,0.177-2.577,0.221C85.745,26.368,85.447,26.376,85.118,26.376z"/>
				<path d="M87.886,23.243c0.419,0,1.275,0.05,2.036,0.116c0.018,0.002,0.035,0.004,0.053,0.006
					c0.495,0.044,0.839,0.183,1.002,0.284c-0.036,0.509-0.089,1.196-0.127,1.645c-0.004,0.051-0.029,0.101-0.05,0.13
					c-0.474,0.045-1.479,0.135-2.313,0.208c-0.888,0.077-2.047,0.177-2.575,0.221c-0.183,0.015-0.465,0.023-0.793,0.023
					c-0.48,0-1.011-0.018-1.422-0.048c-0.274-0.021-0.476-0.106-0.576-0.167c-0.031-0.361-0.048-0.623-0.05-0.653
					c0.005-0.113,0.049-0.576,0.097-1.056c0.016-0.062,0.147-0.191,0.285-0.206c0.588-0.065,1.699-0.189,2.467-0.277
					c0.78-0.089,1.616-0.19,1.834-0.223C87.786,23.244,87.83,23.243,87.886,23.243 M87.886,22.243c-0.117,0-0.204,0.003-0.253,0.011
					c-0.237,0.035-1.059,0.134-1.826,0.221c-0.768,0.087-1.876,0.211-2.464,0.276c-0.588,0.065-1.114,0.556-1.169,1.092
					c-0.054,0.536-0.101,1.044-0.103,1.129s0.029,0.513,0.069,0.952c0.04,0.438,0.707,0.843,1.483,0.9
					c0.454,0.033,1.008,0.051,1.495,0.051c0.345,0,0.657-0.009,0.876-0.027c0.528-0.044,1.689-0.144,2.579-0.221
					c0.889-0.077,1.972-0.175,2.405-0.217c0.433-0.042,0.824-0.507,0.869-1.033c0.044-0.526,0.109-1.378,0.145-1.895
					c0.035-0.516-0.833-1.018-1.929-1.114l-0.007-0.001C89.189,22.292,88.326,22.243,87.886,22.243L87.886,22.243z"/>
			</g>
			<path style="fill:none;stroke:#000000;stroke-linecap:round;stroke-linejoin:round;stroke-miterlimit:10;" d="M88.108,20.093
				l-0.527-5.748c-0.05-0.547,0.342-1.035,0.872-1.084s1.003,0.345,1.052,0.875s-0.36,1.004-0.907,1.055l-4.752,0.436
				c-0.547,0.05-1.035-0.342-1.084-0.872s0.345-1.003,0.875-1.052s1.004,0.36,1.055,0.907l0.527,5.748"/>
		</g>
		<g>
			<g>
				<path style="fill:#FFFFFF;" d="M127.506,22.204c-0.382,1.031-1.592,1.798-2.688,1.703l-4.222-0.364
					c-1.096-0.095-1.68-1.016-1.297-2.047l0.377-1.017c0.382-1.032,1.592-1.798,2.688-1.704l4.222,0.363
					c1.096,0.095,1.68,1.016,1.297,2.047L127.506,22.204z"/>
				<path style="fill:none;stroke:#000000;stroke-width:2;stroke-linecap:round;stroke-linejoin:round;stroke-miterlimit:10;" d="
					M127.506,22.204c-0.382,1.031-1.592,1.798-2.688,1.703l-4.222-0.364c-1.096-0.095-1.68-1.016-1.297-2.047l0.377-1.017
					c0.382-1.032,1.592-1.798,2.688-1.704l4.222,0.363c1.096,0.095,1.68,1.016,1.297,2.047L127.506,22.204z"/>
			</g>
			<g>
				<path style="fill:#FFFFFF;" d="M128.036,24.984c-0.382,1.031-1.592,1.798-2.688,1.703l-4.222-0.363
					c-1.096-0.095-1.68-1.016-1.297-2.047l0.377-1.018c0.382-1.031,1.592-1.798,2.688-1.703l4.222,0.363
					c1.096,0.095,1.68,1.016,1.297,2.047L128.036,24.984z"/>
				<path style="fill:none;stroke:#000000;stroke-width:2;stroke-linecap:round;stroke-linejoin:round;stroke-miterlimit:10;" d="
					M128.036,24.984c-0.382,1.031-1.592,1.798-2.688,1.703l-4.222-0.363c-1.096-0.095-1.68-1.016-1.297-2.047l0.377-1.018
					c0.382-1.031,1.592-1.798,2.688-1.703l4.222,0.363c1.096,0.095,1.68,1.016,1.297,2.047L128.036,24.984z"/>
			</g>
			<path style="fill:#FFFFFF;stroke:#000000;stroke-width:2;stroke-linecap:round;stroke-linejoin:round;stroke-miterlimit:10;" d="
				M122,5c2.168,0,4.181,0.867,5.656,2.343C129.133,8.819,130,10.832,130,13c0,2.169-0.867,4.181-2.343,5.657
				C126.181,20.133,124.169,21,122,21c-2.168,0-4.18-0.867-5.656-2.343C114.867,17.181,114,15.169,114,13
				c0-2.168,0.867-4.181,2.343-5.657C117.819,5.867,119.832,5,122,5z"/>
			<g>
				<path style="fill:#FFFFFF;" d="M120.99,23.468c-0.363,0-0.687-0.021-0.914-0.061c-0.393-0.067-0.756-0.417-0.806-0.673
					c-0.072-0.362-0.133-0.683-0.159-0.825c0.029-0.148,0.1-0.494,0.182-0.886c0.063-0.299,0.463-0.708,0.906-0.806
					c0.599-0.133,1.693-0.383,2.432-0.554c0.746-0.172,1.571-0.374,1.833-0.447c0.027-0.004,0.081-0.005,0.147-0.005
					c0.431,0,1.229,0.095,1.987,0.237c0.88,0.165,1.333,0.558,1.365,0.687c-0.065,0.451-0.188,1.243-0.273,1.736
					c-0.051,0.294-0.358,0.611-0.646,0.665c-0.489,0.092-1.514,0.275-2.278,0.409c-0.765,0.133-1.936,0.332-2.603,0.441
					C121.843,23.438,121.416,23.468,120.99,23.468z"/>
				<path d="M124.61,19.711c0.325,0,1.056,0.072,1.895,0.229c0.457,0.085,0.772,0.243,0.927,0.352
					c-0.067,0.466-0.165,1.085-0.235,1.495c-0.014,0.084-0.162,0.239-0.245,0.258c-0.488,0.091-1.51,0.274-2.271,0.407
					c-0.763,0.133-1.932,0.332-2.598,0.44c-0.294,0.048-0.692,0.076-1.092,0.076c-0.33,0-0.632-0.02-0.83-0.054
					c-0.187-0.032-0.373-0.206-0.4-0.276c-0.058-0.295-0.11-0.562-0.14-0.725c0.035-0.173,0.095-0.464,0.162-0.785
					c0.03-0.111,0.272-0.366,0.525-0.422c0.6-0.134,1.695-0.384,2.435-0.555c0.705-0.163,1.484-0.353,1.804-0.438
					C124.565,19.712,124.587,19.711,124.61,19.711 M124.61,18.711c-0.127,0-0.224,0.008-0.281,0.024
					c-0.259,0.072-1.074,0.271-1.812,0.441c-0.738,0.171-1.83,0.42-2.428,0.553s-1.177,0.669-1.286,1.191s-0.199,0.964-0.2,0.984
					s0.079,0.436,0.175,0.926s0.642,0.971,1.212,1.069c0.264,0.045,0.623,0.068,0.999,0.068c0.436,0,0.894-0.03,1.253-0.089
					c0.669-0.109,1.842-0.309,2.608-0.442c0.766-0.134,1.794-0.318,2.284-0.41s0.961-0.574,1.047-1.072
					c0.085-0.498,0.209-1.296,0.275-1.775c0.066-0.479-0.729-1.029-1.769-1.224C125.88,18.806,125.058,18.711,124.61,18.711
					L124.61,18.711z"/>
			</g>
			<g>
				<path style="fill:#FFFFFF;" d="M122.163,26.253c-0.451,0-0.949-0.036-1.333-0.097c-0.626-0.098-1.032-0.45-1.06-0.573
					c-0.068-0.357-0.124-0.702-0.129-0.809c0.01-0.064,0.097-0.51,0.197-0.984c0.07-0.333,0.484-0.713,0.869-0.8
					c0.579-0.129,1.672-0.378,2.431-0.553c0.767-0.177,1.596-0.378,1.841-0.447c0.018-0.002,0.062-0.003,0.119-0.003
					c0.413,0,1.238,0.1,2.008,0.242c0.892,0.165,1.35,0.561,1.382,0.691c-0.069,0.454-0.198,1.251-0.287,1.749
					c-0.057,0.32-0.337,0.624-0.531,0.663c-0.418,0.083-1.454,0.279-2.301,0.433c-0.85,0.154-1.957,0.354-2.459,0.441
					C122.737,26.236,122.472,26.253,122.163,26.253z"/>
				<path d="M125.097,22.487c0.315,0,1.05,0.073,1.917,0.233c0.464,0.086,0.784,0.245,0.941,0.355
					c-0.071,0.469-0.173,1.092-0.247,1.506c-0.02,0.112-0.123,0.243-0.136,0.259c-0.417,0.083-1.448,0.277-2.292,0.431
					c-0.849,0.154-1.954,0.353-2.457,0.441c-0.067,0.012-0.267,0.04-0.66,0.04c-0.427,0-0.896-0.034-1.256-0.09
					c-0.317-0.05-0.567-0.191-0.665-0.278c-0.049-0.268-0.081-0.474-0.095-0.579c0.025-0.145,0.087-0.471,0.18-0.913
					c0.026-0.109,0.264-0.364,0.489-0.414c0.58-0.13,1.675-0.379,2.434-0.554c0.645-0.148,1.463-0.345,1.805-0.437
					C125.067,22.487,125.082,22.487,125.097,22.487 M125.097,21.487c-0.116,0-0.203,0.007-0.254,0.021
					c-0.242,0.068-1.06,0.267-1.817,0.441c-0.757,0.175-1.85,0.423-2.428,0.553c-0.578,0.129-1.14,0.663-1.249,1.185
					c-0.11,0.521-0.203,1.01-0.207,1.086s0.058,0.482,0.138,0.903c0.08,0.421,0.743,0.859,1.473,0.974
					c0.427,0.067,0.95,0.103,1.411,0.103c0.328,0,0.624-0.018,0.833-0.055c0.503-0.088,1.611-0.287,2.462-0.442
					s1.891-0.351,2.31-0.435s0.836-0.563,0.925-1.065c0.089-0.502,0.22-1.307,0.289-1.789s-0.734-1.036-1.786-1.23
					C126.366,21.584,125.531,21.487,125.097,21.487L125.097,21.487z"/>
			</g>
			<path style="fill:none;stroke:#000000;stroke-linecap:round;stroke-linejoin:round;stroke-miterlimit:10;" d="M124.716,19.686
				l-1.05-5.505c-0.103-0.541,0.229-1.062,0.739-1.159s1.006,0.24,1.104,0.75s-0.265,1.011-0.806,1.114l-4.522,0.862
				c-0.541,0.103-1.062-0.229-1.159-0.739s0.24-1.006,0.75-1.104s1.011,0.265,1.114,0.806l1.05,5.505"/>
		</g>
		<g>
			<g>
				<path style="fill:#FFFFFF;" d="M163.631,22.339c-0.503,0.978-1.806,1.649-2.895,1.491l-3.352-0.486
					c-1.089-0.158-1.567-1.087-1.064-2.065l0.821-1.595c0.503-0.978,1.806-1.649,2.895-1.491l3.352,0.486
					c1.089,0.158,1.567,1.087,1.064,2.065L163.631,22.339z"/>
				<path style="fill:none;stroke:#000000;stroke-width:2;stroke-linecap:round;stroke-linejoin:round;stroke-miterlimit:10;" d="
					M163.631,22.339c-0.503,0.978-1.806,1.649-2.895,1.491l-3.352-0.486c-1.089-0.158-1.567-1.087-1.064-2.065l0.821-1.595
					c0.503-0.978,1.806-1.649,2.895-1.491l3.352,0.486c1.089,0.158,1.567,1.087,1.064,2.065L163.631,22.339z"/>
			</g>
			<g>
				<path style="fill:#FFFFFF;" d="M164.427,25.01c-0.503,0.978-1.806,1.649-2.895,1.491l-3.352-0.486
					c-1.089-0.158-1.567-1.087-1.064-2.065l0.821-1.595c0.503-0.978,1.806-1.649,2.895-1.491l3.352,0.486
					c1.089,0.158,1.567,1.087,1.064,2.065L164.427,25.01z"/>
				<path style="fill:none;stroke:#000000;stroke-width:2;stroke-linecap:round;stroke-linejoin:round;stroke-miterlimit:10;" d="
					M164.427,25.01c-0.503,0.978-1.806,1.649-2.895,1.491l-3.352-0.486c-1.089-0.158-1.567-1.087-1.064-2.065l0.821-1.595
					c0.503-0.978,1.806-1.649,2.895-1.491l3.352,0.486c1.089,0.158,1.567,1.087,1.064,2.065L164.427,25.01z"/>
			</g>
			<path style="fill:#FFFFFF;stroke:#000000;stroke-width:2;stroke-linecap:round;stroke-linejoin:round;stroke-miterlimit:10;" d="
				M158,5c2.148,0,4.167,0.853,5.656,2.343C165.147,8.833,166,10.852,166,13c0,2.149-0.853,4.167-2.343,5.657
				C162.167,20.147,160.149,21,158,21c-2.148,0-4.165-0.853-5.656-2.343S150,15.149,150,13c0-2.148,0.853-4.167,2.343-5.657
				C153.833,5.853,155.852,5,158,5z"/>
			<g>
				<path style="fill:#FFFFFF;" d="M157.86,23.452c-0.321,0-0.619-0.031-0.815-0.084c-0.41-0.111-0.812-0.509-0.898-0.79
					c-0.095-0.309-0.178-0.585-0.222-0.738c0.05-0.162,0.146-0.465,0.256-0.805c0.104-0.323,0.576-0.806,1.051-0.968
					c0.588-0.2,1.667-0.574,2.396-0.831c0.73-0.257,1.544-0.556,1.821-0.669c-0.001,0.001,0.047-0.001,0.096-0.001
					c0.329,0,1.055,0.109,1.872,0.348c0.84,0.246,1.25,0.656,1.28,0.786c-0.096,0.398-0.28,1.136-0.406,1.602
					c-0.082,0.302-0.444,0.67-0.745,0.758c-0.468,0.137-1.444,0.413-2.169,0.612c-0.726,0.2-1.833,0.497-2.462,0.661
					C158.631,23.41,158.247,23.452,157.86,23.452z"/>
				<path d="M161.549,19.067c0.305,0,0.995,0.113,1.729,0.328c0.43,0.126,0.725,0.304,0.873,0.424
					c-0.1,0.425-0.239,0.978-0.341,1.353c-0.037,0.136-0.267,0.37-0.402,0.41c-0.467,0.136-1.439,0.411-2.162,0.61
					c-0.724,0.199-1.829,0.496-2.456,0.66c-0.242,0.063-0.589,0.101-0.93,0.101c-0.275,0-0.531-0.025-0.685-0.067
					c-0.232-0.063-0.507-0.328-0.551-0.454c-0.069-0.226-0.132-0.434-0.177-0.586c0.053-0.167,0.127-0.401,0.209-0.656
					c0.056-0.172,0.416-0.539,0.736-0.648c0.59-0.201,1.671-0.575,2.401-0.833C160.398,19.497,161.176,19.214,161.549,19.067
					 M161.546,18.067c-0.124,0-0.22,0.011-0.278,0.035c-0.264,0.109-1.076,0.407-1.805,0.663c-0.728,0.256-1.804,0.629-2.392,0.829
					c-0.587,0.2-1.202,0.779-1.366,1.287c-0.164,0.508-0.299,0.937-0.299,0.953c0,0.017,0.118,0.417,0.263,0.89
					c0.145,0.473,0.705,0.979,1.245,1.126c0.25,0.068,0.591,0.102,0.946,0.102c0.412,0,0.844-0.045,1.182-0.133
					c0.63-0.165,1.741-0.463,2.469-0.663s1.707-0.477,2.177-0.614c0.47-0.138,0.958-0.636,1.086-1.107
					c0.128-0.472,0.314-1.22,0.414-1.663c0.099-0.443-0.634-1.044-1.629-1.336C162.782,18.208,161.985,18.067,161.546,18.067
					L161.546,18.067z"/>
			</g>
			<g>
				<path style="fill:#FFFFFF;" d="M159.21,26.129c-0.41,0-0.861-0.052-1.207-0.138c-0.601-0.15-1.057-0.542-1.105-0.705
					c-0.098-0.328-0.158-0.58-0.18-0.688c0.041-0.158,0.153-0.524,0.279-0.914c0.116-0.358,0.601-0.814,1.018-0.957
					c0.568-0.195,1.646-0.568,2.395-0.831c0.759-0.265,1.584-0.568,1.836-0.673c0.378,0.006,1.105,0.118,1.948,0.362
					c0.837,0.242,1.262,0.663,1.29,0.79c-0.101,0.403-0.293,1.151-0.426,1.622c-0.096,0.343-0.427,0.688-0.648,0.756
					c-0.404,0.126-1.396,0.418-2.204,0.649c-0.811,0.233-1.865,0.53-2.343,0.662C159.718,26.106,159.48,26.129,159.21,26.129z"/>
				<path d="M162.327,21.731c0.299,0.005,0.994,0.123,1.729,0.335c0.434,0.126,0.731,0.304,0.88,0.425
					c-0.104,0.429-0.25,0.988-0.358,1.373c-0.047,0.167-0.234,0.375-0.315,0.414c-0.402,0.125-1.388,0.416-2.193,0.646
					c-0.81,0.232-1.862,0.529-2.338,0.661c-0.075,0.021-0.257,0.045-0.52,0.045c-0.372,0-0.777-0.046-1.086-0.124
					c-0.361-0.09-0.671-0.307-0.763-0.416c-0.058-0.199-0.102-0.365-0.127-0.476c0.045-0.158,0.127-0.426,0.239-0.775
					c0.056-0.172,0.401-0.535,0.704-0.638c0.569-0.195,1.648-0.569,2.398-0.832C161.185,22.156,161.958,21.876,162.327,21.731
					 M162.306,20.731c-0.113,0-0.199,0.01-0.251,0.032c-0.248,0.103-1.062,0.401-1.81,0.663s-1.824,0.635-2.392,0.829
					c-0.567,0.194-1.167,0.769-1.331,1.276c-0.164,0.508-0.304,0.977-0.31,1.043c-0.006,0.065,0.086,0.45,0.207,0.854
					c0.12,0.404,0.778,0.876,1.463,1.047c0.401,0.1,0.894,0.153,1.329,0.153c0.309,0,0.588-0.027,0.787-0.082
					c0.479-0.132,1.535-0.43,2.347-0.663c0.812-0.232,1.809-0.526,2.215-0.652c0.406-0.126,0.847-0.621,0.981-1.099
					c0.134-0.478,0.33-1.235,0.434-1.683c0.104-0.448-0.634-1.053-1.64-1.345C163.539,20.876,162.731,20.731,162.306,20.731
					L162.306,20.731z"/>
			</g>
			<path style="fill:none;stroke:#000000;stroke-linecap:round;stroke-linejoin:round;stroke-miterlimit:10;" d="M161.324,19.278
				l-1.57-5.272c-0.157-0.527,0.115-1.078,0.604-1.224s1.009,0.136,1.155,0.625c0.146,0.49-0.166,1.019-0.693,1.176l-4.314,1.285
				c-0.527,0.157-1.078-0.115-1.224-0.604c-0.146-0.49,0.135-1.01,0.625-1.156s1.019,0.166,1.176,0.693l1.57,5.273"/>
		</g>
		<g>
			<g>
				<path style="fill:#FFFFFF;" d="M199.698,22.472c-0.592,0.927-1.956,1.492-3.03,1.255l-2.508-0.553
					c-1.074-0.237-1.469-1.189-0.876-2.116l1.382-2.165c0.592-0.927,1.956-1.492,3.03-1.255l2.508,0.553
					c1.074,0.237,1.469,1.189,0.876,2.116L199.698,22.472z"/>
				<path style="fill:none;stroke:#000000;stroke-width:2;stroke-linecap:round;stroke-linejoin:round;stroke-miterlimit:10;" d="
					M199.698,22.472c-0.592,0.927-1.956,1.492-3.03,1.255l-2.508-0.553c-1.074-0.237-1.469-1.189-0.876-2.116l1.382-2.165
					c0.592-0.927,1.956-1.492,3.03-1.255l2.508,0.553c1.074,0.237,1.469,1.189,0.876,2.116L199.698,22.472z"/>
			</g>
			<g>
				<path style="fill:#FFFFFF;" d="M200.758,25.032c-0.592,0.927-1.956,1.492-3.03,1.255l-2.508-0.553
					c-1.074-0.237-1.469-1.189-0.876-2.116l1.383-2.165c0.592-0.927,1.956-1.492,3.03-1.255l2.508,0.553
					c1.074,0.237,1.469,1.189,0.876,2.116L200.758,25.032z"/>
				<path style="fill:none;stroke:#000000;stroke-width:2;stroke-linecap:round;stroke-linejoin:round;stroke-miterlimit:10;" d="
					M200.758,25.032c-0.592,0.927-1.956,1.492-3.03,1.255l-2.508-0.553c-1.074-0.237-1.469-1.189-0.876-2.116l1.383-2.165
					c0.592-0.927,1.956-1.492,3.03-1.255l2.508,0.553c1.074,0.237,1.469,1.189,0.876,2.116L200.758,25.032z"/>
			</g>
			<path style="fill:#FFFFFF;stroke:#000000;stroke-width:2;stroke-linecap:round;stroke-linejoin:round;stroke-miterlimit:10;" d="
				M194,5c2.128,0,4.152,0.838,5.656,2.343C201.162,8.848,202,10.872,202,13c0,2.128-0.838,4.152-2.343,5.657S196.129,21,194,21
				c-2.128,0-4.151-0.838-5.656-2.343S186,15.129,186,13c0-2.128,0.838-4.152,2.344-5.657C189.848,5.838,191.872,5,194,5z"/>
			<g>
				<path style="fill:#FFFFFF;" d="M194.729,23.437c-0.284,0-0.543-0.037-0.712-0.102c-0.382-0.146-0.858-0.582-0.998-0.912
					c-0.111-0.262-0.21-0.5-0.272-0.651c0.071-0.165,0.187-0.431,0.318-0.726c0.171-0.387,0.731-0.916,1.199-1.132
					c0.578-0.268,1.64-0.766,2.359-1.108c0.728-0.345,1.546-0.749,1.819-0.895c0.351,0.013,1.032,0.154,1.795,0.466
					c0.792,0.323,1.171,0.76,1.196,0.888c-0.124,0.344-0.368,1.03-0.535,1.469c-0.122,0.318-0.526,0.728-0.849,0.859
					c-0.448,0.183-1.375,0.55-2.061,0.816c-0.687,0.266-1.731,0.663-2.321,0.881C195.417,23.383,195.074,23.437,194.729,23.437z"/>
				<path d="M198.538,18.425c0.249,0.016,0.823,0.134,1.511,0.415c0.405,0.166,0.68,0.363,0.822,0.497
					c-0.131,0.384-0.31,0.881-0.439,1.219c-0.072,0.189-0.376,0.496-0.571,0.575c-0.445,0.182-1.369,0.548-2.051,0.812
					c-0.685,0.265-1.727,0.661-2.314,0.879c-0.195,0.072-0.481,0.115-0.766,0.115c-0.261,0-0.45-0.037-0.533-0.069
					c-0.274-0.105-0.636-0.45-0.717-0.641c-0.07-0.166-0.136-0.321-0.189-0.451c0.064-0.148,0.145-0.332,0.232-0.528
					c0.11-0.249,0.571-0.704,0.952-0.88c0.579-0.268,1.642-0.768,2.363-1.11C197.468,18.958,198.174,18.612,198.538,18.425
					 M198.483,17.423c-0.123,0-0.218,0.015-0.277,0.047c-0.27,0.145-1.078,0.542-1.797,0.884c-0.719,0.341-1.779,0.839-2.355,1.106
					c-0.576,0.267-1.227,0.889-1.446,1.383c-0.219,0.494-0.398,0.908-0.399,0.922c0,0.014,0.157,0.397,0.351,0.853
					c0.193,0.456,0.769,0.988,1.279,1.184c0.236,0.091,0.557,0.135,0.891,0.135c0.388,0,0.795-0.06,1.113-0.178
					c0.591-0.219,1.639-0.617,2.328-0.884c0.689-0.267,1.62-0.636,2.069-0.819s0.956-0.698,1.126-1.144
					c0.17-0.445,0.418-1.143,0.551-1.55c0.133-0.407-0.538-1.059-1.49-1.448C199.685,17.611,198.914,17.423,198.483,17.423
					L198.483,17.423z"/>
			</g>
			<g>
				<path style="fill:#FFFFFF;" d="M196.257,26.006c-0.368,0-0.771-0.065-1.077-0.175c-0.574-0.206-1.078-0.642-1.16-0.84
					c-0.111-0.27-0.186-0.481-0.221-0.593c0.055-0.132,0.196-0.463,0.354-0.819c0.171-0.387,0.716-0.909,1.166-1.118
					c0.559-0.259,1.62-0.757,2.358-1.106c0.748-0.354,1.569-0.758,1.826-0.897c0.321,0.018,1.028,0.177,1.781,0.481
					c0.799,0.323,1.177,0.762,1.2,0.891c-0.13,0.353-0.386,1.053-0.562,1.5c-0.141,0.356-0.529,0.752-0.77,0.855
					c-0.389,0.167-1.338,0.557-2.108,0.865c-0.772,0.31-1.774,0.707-2.227,0.883C196.76,25.954,196.59,26.006,196.257,26.006z"/>
				<path d="M199.586,20.978c0.265,0.022,0.849,0.156,1.51,0.423c0.407,0.165,0.682,0.363,0.823,0.496
					c-0.141,0.399-0.33,0.91-0.463,1.248c-0.091,0.229-0.377,0.523-0.502,0.58c-0.387,0.167-1.331,0.553-2.097,0.86
					c-0.771,0.309-1.771,0.705-2.221,0.88c-0.03,0.011-0.156,0.041-0.379,0.041c-0.309,0-0.657-0.056-0.909-0.146
					c-0.431-0.154-0.807-0.47-0.866-0.56c-0.062-0.151-0.111-0.28-0.147-0.379c0.064-0.154,0.157-0.373,0.276-0.641
					c0.11-0.25,0.556-0.698,0.918-0.866c0.559-0.26,1.622-0.759,2.362-1.108C198.47,21.531,199.201,21.176,199.586,20.978
					 M199.516,19.975c-0.111,0-0.197,0.014-0.25,0.042c-0.253,0.137-1.063,0.535-1.801,0.884c-0.737,0.349-1.797,0.846-2.355,1.105
					s-1.193,0.875-1.412,1.369c-0.219,0.494-0.405,0.943-0.414,0.999c-0.009,0.056,0.115,0.419,0.275,0.807
					c0.16,0.387,0.814,0.892,1.454,1.121c0.375,0.134,0.836,0.205,1.246,0.205c0.29,0,0.553-0.035,0.741-0.108
					c0.453-0.177,1.457-0.574,2.231-0.884c0.774-0.31,1.729-0.701,2.12-0.87s0.858-0.678,1.037-1.131
					c0.179-0.454,0.439-1.164,0.578-1.578c0.139-0.414-0.533-1.071-1.493-1.46C200.713,20.167,199.934,19.975,199.516,19.975
					L199.516,19.975z"/>
			</g>
			<path style="fill:none;stroke:#000000;stroke-linecap:round;stroke-linejoin:round;stroke-miterlimit:10;" d="M197.932,18.871
				l-2.092-5.051c-0.21-0.508,0.001-1.083,0.471-1.277s1.013,0.031,1.207,0.5s-0.062,1.026-0.57,1.236l-4.127,1.709
				c-0.508,0.21-1.083-0.001-1.277-0.471c-0.194-0.469,0.031-1.013,0.5-1.207s1.026,0.062,1.236,0.57l2.092,5.051"/>
		</g>
		<g>
			<g>
				<path style="fill:#FFFFFF;" d="M235.723,22.594c-0.658,0.881-2.054,1.328-3.102,0.992l-1.708-0.547
					c-1.048-0.336-1.366-1.332-0.708-2.213l2.027-2.714c0.658-0.881,2.053-1.328,3.101-0.992l1.708,0.547
					c1.048,0.336,1.366,1.332,0.708,2.213L235.723,22.594z"/>
				<path style="fill:none;stroke:#000000;stroke-width:2;stroke-linecap:round;stroke-linejoin:round;stroke-miterlimit:10;" d="
					M235.723,22.594c-0.658,0.881-2.054,1.328-3.102,0.992l-1.708-0.547c-1.048-0.336-1.366-1.332-0.708-2.213l2.027-2.714
					c0.658-0.881,2.053-1.328,3.101-0.992l1.708,0.547c1.048,0.336,1.366,1.332,0.708,2.213L235.723,22.594z"/>
			</g>
			<g>
				<path style="fill:#FFFFFF;" d="M237.049,25.044c-0.658,0.881-2.054,1.328-3.102,0.992l-1.708-0.547
					c-1.048-0.336-1.366-1.332-0.708-2.213l2.027-2.714c0.658-0.881,2.054-1.328,3.102-0.992l1.708,0.547
					c1.048,0.336,1.366,1.332,0.708,2.213L237.049,25.044z"/>
				<path style="fill:none;stroke:#000000;stroke-width:2;stroke-linecap:round;stroke-linejoin:round;stroke-miterlimit:10;" d="
					M237.049,25.044c-0.658,0.881-2.054,1.328-3.102,0.992l-1.708-0.547c-1.048-0.336-1.366-1.332-0.708-2.213l2.027-2.714
					c0.658-0.881,2.054-1.328,3.102-0.992l1.708,0.547c1.048,0.336,1.366,1.332,0.708,2.213L237.049,25.044z"/>
			</g>
			<path style="fill:#FFFFFF;stroke:#000000;stroke-width:2;stroke-linecap:round;stroke-linejoin:round;stroke-miterlimit:10;" d="
				M230,5c2.107,0,4.138,0.824,5.656,2.343C237.176,8.862,238,10.893,238,13s-0.824,4.137-2.343,5.657
				C234.138,20.177,232.108,21,230,21c-2.107,0-4.137-0.824-5.656-2.343C222.824,17.138,222,15.108,222,13s0.824-4.138,2.344-5.657
				C225.862,5.824,227.893,5,230,5z"/>
			<g>
				<path style="fill:#FFFFFF;" d="M231.597,23.42c-0.245,0-0.467-0.042-0.61-0.114c-0.392-0.2-0.907-0.685-1.101-1.038
					c-0.122-0.221-0.232-0.424-0.31-0.568c0.089-0.16,0.221-0.393,0.368-0.649c0.23-0.404,0.858-1.009,1.345-1.295
					c0.567-0.334,1.612-0.958,2.323-1.385c0.717-0.431,1.53-0.933,1.808-1.116c0.299,0.023,0.958,0.214,1.64,0.578
					c0.749,0.401,1.096,0.866,1.115,0.992c-0.148,0.288-0.453,0.925-0.663,1.338c-0.166,0.326-0.622,0.785-0.957,0.964
					c-0.427,0.229-1.306,0.688-1.954,1.021s-1.629,0.829-2.181,1.101C232.204,23.357,231.896,23.42,231.597,23.42z"/>
				<path d="M235.517,17.788c0.251,0.037,0.759,0.194,1.306,0.487c0.381,0.204,0.637,0.423,0.772,0.57
					c-0.165,0.353-0.377,0.793-0.529,1.092c-0.122,0.239-0.499,0.618-0.748,0.751c-0.425,0.228-1.3,0.685-1.945,1.016
					c-0.646,0.331-1.625,0.826-2.176,1.098c-0.147,0.073-0.377,0.118-0.6,0.118c-0.21,0-0.343-0.04-0.383-0.06
					c-0.332-0.169-0.758-0.594-0.891-0.834c-0.063-0.114-0.123-0.224-0.176-0.322c0.068-0.122,0.147-0.26,0.23-0.406
					c0.169-0.297,0.715-0.847,1.165-1.112c0.567-0.334,1.614-0.958,2.326-1.387C234.487,18.428,235.149,18.021,235.517,17.788
					 M235.419,16.779c-0.121,0-0.215,0.019-0.276,0.059c-0.274,0.181-1.08,0.678-1.79,1.105c-0.709,0.427-1.753,1.049-2.318,1.382
					c-0.566,0.333-1.252,0.999-1.526,1.479c-0.273,0.479-0.498,0.88-0.499,0.891s0.196,0.377,0.438,0.815
					c0.241,0.438,0.832,0.998,1.312,1.242c0.223,0.113,0.523,0.168,0.836,0.168c0.364,0,0.746-0.075,1.043-0.222
					c0.554-0.273,1.538-0.771,2.188-1.104c0.65-0.334,1.533-0.795,1.961-1.024c0.428-0.229,0.953-0.76,1.167-1.179
					c0.213-0.419,0.523-1.067,0.689-1.438c0.166-0.371-0.442-1.073-1.351-1.56C236.587,17.014,235.843,16.779,235.419,16.779
					L235.419,16.779z"/>
			</g>
			<g>
				<path style="fill:#FFFFFF;" d="M233.302,25.882c-0.324,0-0.676-0.077-0.944-0.206c-0.535-0.258-1.085-0.73-1.221-0.981
					c-0.117-0.218-0.198-0.387-0.246-0.494c0.079-0.14,0.238-0.426,0.414-0.734c0.23-0.404,0.844-1.001,1.313-1.278
					c0.548-0.324,1.593-0.947,2.322-1.384c0.735-0.44,1.551-0.943,1.812-1.117c0.262,0.03,0.922,0.225,1.622,0.597
					c0.753,0.4,1.096,0.868,1.111,0.995c-0.156,0.304-0.476,0.957-0.696,1.38c-0.176,0.339-0.602,0.795-0.893,0.958
					c-0.376,0.209-1.283,0.696-2.015,1.082c-0.733,0.386-1.684,0.882-2.111,1.103C233.673,25.852,233.498,25.882,233.302,25.882z"/>
				<path d="M236.834,20.23c0.241,0.042,0.739,0.195,1.305,0.496c0.381,0.203,0.636,0.422,0.77,0.569
					c-0.171,0.359-0.398,0.818-0.563,1.134c-0.141,0.272-0.505,0.647-0.691,0.751c-0.374,0.208-1.277,0.692-2.005,1.076
					c-0.732,0.386-1.681,0.881-2.099,1.096c-0.021,0.008-0.104,0.029-0.249,0.029c-0.249,0-0.527-0.06-0.726-0.156
					c-0.47-0.227-0.915-0.628-0.998-0.767c-0.047-0.087-0.088-0.167-0.123-0.237c0.074-0.136,0.17-0.308,0.285-0.508
					c0.169-0.297,0.701-0.84,1.134-1.095c0.548-0.325,1.594-0.948,2.323-1.385C235.803,20.871,236.466,20.464,236.834,20.23
					 M236.725,19.218c-0.109,0-0.195,0.017-0.249,0.053c-0.258,0.171-1.065,0.668-1.793,1.104c-0.728,0.437-1.771,1.058-2.319,1.382
					c-0.548,0.324-1.22,0.981-1.493,1.461c-0.274,0.479-0.506,0.91-0.517,0.956s0.144,0.387,0.343,0.758
					c0.2,0.371,0.85,0.908,1.444,1.194c0.348,0.167,0.778,0.255,1.161,0.255c0.272,0,0.521-0.044,0.698-0.136
					c0.428-0.22,1.38-0.717,2.115-1.104c0.735-0.388,1.647-0.877,2.025-1.087c0.378-0.21,0.87-0.734,1.093-1.164
					c0.224-0.43,0.549-1.093,0.723-1.473c0.174-0.379-0.432-1.088-1.347-1.574C237.887,19.459,237.136,19.218,236.725,19.218
					L236.725,19.218z"/>
			</g>
			<path style="fill:none;stroke:#000000;stroke-linecap:round;stroke-linejoin:round;stroke-miterlimit:10;" d="M234.54,18.464
				l-2.618-4.839c-0.262-0.483-0.108-1.078,0.341-1.321s1.016-0.074,1.259,0.375c0.243,0.45,0.046,1.031-0.438,1.293l-3.959,2.142
				c-0.483,0.262-1.078,0.108-1.321-0.341s-0.074-1.016,0.375-1.259c0.449-0.244,1.031-0.046,1.292,0.437l2.618,4.839"/>
		</g>
		<g>
			<g>
				<path style="fill:#FFFFFF;" d="M271.719,22.705c-0.708,0.842-2.105,1.155-3.105,0.696l-0.985-0.452
					c-1-0.459-1.238-1.523-0.53-2.365l2.729-3.243c0.708-0.842,2.105-1.155,3.105-0.696l0.986,0.453c1,0.459,1.238,1.523,0.53,2.365
					L271.719,22.705z"/>
				<path style="fill:none;stroke:#000000;stroke-width:2;stroke-linecap:round;stroke-linejoin:round;stroke-miterlimit:10;" d="
					M271.719,22.705c-0.708,0.842-2.105,1.155-3.105,0.696l-0.985-0.452c-1-0.459-1.238-1.523-0.53-2.365l2.729-3.243
					c0.708-0.842,2.105-1.155,3.105-0.696l0.986,0.453c1,0.459,1.238,1.523,0.53,2.365L271.719,22.705z"/>
			</g>
			<g>
				<path style="fill:#FFFFFF;" d="M273.31,25.046c-0.708,0.842-2.105,1.155-3.105,0.696l-0.985-0.452
					c-1-0.459-1.238-1.523-0.53-2.365l2.729-3.243c0.708-0.842,2.105-1.155,3.105-0.696l0.985,0.452c1,0.459,1.238,1.523,0.53,2.365
					L273.31,25.046z"/>
				<path style="fill:none;stroke:#000000;stroke-width:2;stroke-linecap:round;stroke-linejoin:round;stroke-miterlimit:10;" d="
					M273.31,25.046c-0.708,0.842-2.105,1.155-3.105,0.696l-0.985-0.452c-1-0.459-1.238-1.523-0.53-2.365l2.729-3.243
					c0.708-0.842,2.105-1.155,3.105-0.696l0.985,0.452c1,0.459,1.238,1.523,0.53,2.365L273.31,25.046z"/>
			</g>
			<path style="fill:#FFFFFF;stroke:#000000;stroke-width:2;stroke-linecap:round;stroke-linejoin:round;stroke-miterlimit:10;" d="
				M266,5c2.087,0,4.124,0.81,5.656,2.343C273.19,8.876,274,10.913,274,13s-0.81,4.123-2.343,5.657S268.088,21,266,21
				c-2.087,0-4.122-0.81-5.656-2.343S258,15.088,258,13s0.81-4.124,2.344-5.657C261.876,5.81,263.913,5,266,5z"/>
			<g>
				<path style="fill:#FFFFFF;" d="M268.467,23.404c-0.206,0-0.392-0.044-0.511-0.122c-0.393-0.255-0.957-0.799-1.207-1.163
					c-0.128-0.186-0.245-0.357-0.335-0.49c0.105-0.151,0.249-0.355,0.405-0.578c0.297-0.421,0.979-1.089,1.489-1.457
					c0.555-0.4,1.583-1.147,2.286-1.66c0.706-0.515,1.513-1.116,1.794-1.335c0.246,0.035,0.86,0.258,1.495,0.686
					c0.693,0.468,1.019,0.953,1.031,1.098c-0.167,0.236-0.534,0.825-0.786,1.212c-0.219,0.336-0.717,0.838-1.067,1.074
					c-0.407,0.275-1.238,0.826-1.848,1.225c-0.61,0.4-1.53,0.995-2.043,1.323C268.987,23.334,268.724,23.404,268.467,23.404z"/>
				<path d="M272.484,17.157c0.227,0.057,0.652,0.229,1.12,0.543c0.357,0.241,0.595,0.482,0.722,0.644
					c-0.194,0.318-0.439,0.707-0.616,0.979c-0.183,0.28-0.633,0.733-0.928,0.932c-0.405,0.273-1.234,0.823-1.842,1.221
					c-0.609,0.399-1.526,0.992-2.039,1.319c-0.104,0.066-0.274,0.109-0.435,0.109c-0.139,0-0.221-0.03-0.237-0.04
					c-0.343-0.223-0.852-0.713-1.069-1.028c-0.048-0.07-0.095-0.138-0.139-0.203c0.064-0.091,0.134-0.19,0.207-0.293
					c0.266-0.378,0.908-1.004,1.373-1.339c0.556-0.401,1.585-1.148,2.288-1.662C271.467,17.917,272.111,17.439,272.484,17.157
					 M272.356,16.135c-0.118,0-0.212,0.023-0.274,0.071c-0.279,0.217-1.082,0.814-1.782,1.326c-0.701,0.512-1.729,1.258-2.283,1.658
					c-0.555,0.4-1.277,1.109-1.605,1.574c-0.328,0.466-0.598,0.853-0.599,0.86s0.235,0.358,0.525,0.779s0.896,1.006,1.347,1.299
					c0.208,0.136,0.49,0.202,0.783,0.202c0.34,0,0.696-0.09,0.973-0.266c0.515-0.329,1.437-0.925,2.048-1.326
					s1.446-0.954,1.854-1.229s0.95-0.822,1.206-1.215c0.256-0.393,0.627-0.989,0.826-1.325c0.199-0.336-0.346-1.088-1.211-1.672
					C273.49,16.417,272.772,16.135,272.356,16.135L272.356,16.135z"/>
			</g>
			<g>
				<path style="fill:#FFFFFF;" d="M270.349,25.758c-0.279,0-0.583-0.086-0.813-0.23c-0.536-0.335-1.107-0.862-1.286-1.125
					c-0.111-0.165-0.196-0.3-0.255-0.399c0.103-0.146,0.272-0.391,0.458-0.654c0.298-0.422,0.966-1.08,1.459-1.436
					c0.538-0.388,1.566-1.136,2.285-1.66c0.723-0.527,1.532-1.128,1.798-1.336c0.202,0.042,0.828,0.276,1.472,0.708
					c0.696,0.467,1.016,0.955,1.025,1.101c-0.179,0.257-0.564,0.864-0.829,1.264c-0.231,0.351-0.707,0.847-1.018,1.062
					c-0.363,0.252-1.228,0.836-1.922,1.299c-0.696,0.464-1.595,1.06-1.997,1.324C270.65,25.728,270.508,25.758,270.349,25.758z"/>
				<path d="M274.072,19.49c0.23,0.064,0.651,0.241,1.117,0.553c0.358,0.24,0.593,0.481,0.718,0.642
					c-0.204,0.327-0.464,0.735-0.661,1.032c-0.196,0.296-0.626,0.747-0.885,0.927c-0.361,0.251-1.223,0.833-1.914,1.294
					c-0.695,0.463-1.592,1.058-1.964,1.305c-0.012,0.004-0.058,0.015-0.133,0.015c-0.183,0-0.398-0.061-0.547-0.154
					c-0.493-0.309-1.011-0.795-1.137-0.98c-0.024-0.036-0.047-0.071-0.069-0.104c0.077-0.111,0.166-0.239,0.267-0.381
					c0.267-0.379,0.895-0.995,1.343-1.319c0.539-0.389,1.567-1.136,2.287-1.661C273.07,20.238,273.701,19.771,274.072,19.49
					 M273.934,18.462c-0.107,0-0.192,0.021-0.247,0.063c-0.264,0.206-1.066,0.803-1.784,1.326s-1.745,1.27-2.283,1.658
					c-0.538,0.388-1.247,1.087-1.575,1.553c-0.328,0.466-0.607,0.876-0.62,0.913c-0.013,0.036,0.173,0.355,0.412,0.709
					c0.24,0.354,0.885,0.924,1.434,1.268c0.321,0.201,0.721,0.306,1.078,0.306c0.253,0,0.485-0.053,0.652-0.163
					c0.403-0.264,1.303-0.861,2-1.326s1.565-1.052,1.93-1.305s0.881-0.792,1.149-1.197c0.269-0.406,0.659-1.021,0.867-1.367
					c0.208-0.346-0.332-1.105-1.201-1.689C275.06,18.751,274.337,18.462,273.934,18.462L273.934,18.462z"/>
			</g>
			<path style="fill:none;stroke:#000000;stroke-linecap:round;stroke-linejoin:round;stroke-miterlimit:10;" d="M271.147,18.057
				l-3.15-4.635c-0.309-0.455-0.211-1.066,0.218-1.357s1.019-0.179,1.311,0.25c0.292,0.43,0.158,1.034-0.297,1.343l-3.808,2.588
				c-0.455,0.309-1.066,0.211-1.357-0.218c-0.292-0.43-0.179-1.02,0.25-1.312c0.429-0.292,1.033-0.158,1.342,0.297l3.15,4.635"/>
		</g>
		<g>
			<g>
				<path style="fill:#FFFFFF;" d="M307.695,22.807c-0.747,0.807-2.108,0.97-3.024,0.361l-0.393-0.261
					c-0.916-0.609-1.055-1.768-0.308-2.575l3.471-3.751c0.747-0.808,2.108-0.97,3.024-0.361l0.394,0.261
					c0.916,0.609,1.055,1.768,0.308,2.575L307.695,22.807z"/>
				<path style="fill:none;stroke:#000000;stroke-width:2;stroke-linecap:round;stroke-linejoin:round;stroke-miterlimit:10;" d="
					M307.695,22.807c-0.747,0.807-2.108,0.97-3.024,0.361l-0.393-0.261c-0.916-0.609-1.055-1.768-0.308-2.575l3.471-3.751
					c0.747-0.808,2.108-0.97,3.024-0.361l0.394,0.261c0.916,0.609,1.055,1.768,0.308,2.575L307.695,22.807z"/>
			</g>
			<g>
				<path style="fill:#FFFFFF;" d="M309.552,25.038c-0.747,0.808-2.108,0.97-3.024,0.361l-0.393-0.261
					c-0.916-0.609-1.055-1.768-0.308-2.575l3.471-3.751c0.747-0.808,2.108-0.97,3.024-0.361l0.393,0.261
					c0.916,0.609,1.055,1.768,0.308,2.575L309.552,25.038z"/>
				<path style="fill:none;stroke:#000000;stroke-width:2;stroke-linecap:round;stroke-linejoin:round;stroke-miterlimit:10;" d="
					M309.552,25.038c-0.747,0.808-2.108,0.97-3.024,0.361l-0.393-0.261c-0.916-0.609-1.055-1.768-0.308-2.575l3.471-3.751
					c0.747-0.808,2.108-0.97,3.024-0.361l0.393,0.261c0.916,0.609,1.055,1.768,0.308,2.575L309.552,25.038z"/>
			</g>
			<path style="fill:#FFFFFF;stroke:#000000;stroke-width:2;stroke-linecap:round;stroke-linejoin:round;stroke-miterlimit:10;" d="
				M302,5c2.067,0,4.109,0.795,5.656,2.343C309.204,8.891,310,10.933,310,13s-0.796,4.109-2.343,5.657S304.068,21,302,21
				c-2.067,0-4.108-0.795-5.656-2.343C294.796,17.109,294,15.068,294,13c0-2.067,0.796-4.109,2.344-5.657
				C297.891,5.795,299.933,5,302,5z"/>
			<g>
				<path style="fill:#FFFFFF;" d="M305.337,23.389c-0.166,0-0.316-0.045-0.414-0.124c-0.393-0.32-0.994-0.911-1.313-1.291
					c-0.129-0.154-0.249-0.298-0.347-0.416c0.119-0.141,0.27-0.318,0.433-0.511c0.361-0.426,1.107-1.166,1.629-1.614l2.248-1.935
					c0.693-0.6,1.496-1.298,1.78-1.552c0.142,0.044,0.705,0.246,1.359,0.788c0.601,0.497,0.896,0.974,0.943,1.161
					c-0.239,0.307-0.629,0.797-0.904,1.135c-0.277,0.342-0.816,0.883-1.178,1.182c-0.386,0.32-1.17,0.964-1.742,1.431
					c-0.572,0.466-1.43,1.161-1.905,1.544C305.768,23.316,305.553,23.389,305.337,23.389z"/>
				<path d="M309.442,16.535c0.206,0.077,0.556,0.258,0.951,0.585c0.335,0.277,0.554,0.54,0.673,0.716
					c-0.224,0.283-0.496,0.625-0.704,0.88c-0.256,0.315-0.773,0.834-1.108,1.112c-0.385,0.319-1.168,0.962-1.738,1.428
					c-0.572,0.466-1.428,1.16-1.903,1.542c-0.068,0.056-0.175,0.09-0.275,0.09c-0.06,0-0.096-0.012-0.099-0.012l0,0
					c-0.373-0.303-0.943-0.864-1.245-1.222c-0.026-0.032-0.052-0.063-0.077-0.093c0.051-0.061,0.105-0.125,0.16-0.19
					c0.348-0.41,1.068-1.124,1.573-1.558c0.544-0.467,1.558-1.339,2.25-1.937C308.448,17.402,309.065,16.865,309.442,16.535
					 M309.293,15.491c-0.116,0-0.21,0.026-0.272,0.083c-0.284,0.253-1.084,0.949-1.775,1.547c-0.691,0.597-1.703,1.468-2.247,1.935
					c-0.543,0.467-1.302,1.218-1.685,1.67s-0.697,0.825-0.698,0.829c-0.002,0.004,0.273,0.338,0.611,0.742
					c0.339,0.403,0.96,1.014,1.381,1.356c0.195,0.159,0.457,0.236,0.729,0.236c0.316,0,0.646-0.105,0.902-0.311
					c0.477-0.384,1.335-1.08,1.908-1.547c0.573-0.468,1.358-1.113,1.745-1.434c0.388-0.321,0.948-0.884,1.246-1.251
					c0.299-0.367,0.732-0.913,0.965-1.213c0.232-0.301-0.25-1.104-1.072-1.784C310.392,15.82,309.701,15.491,309.293,15.491
					L309.293,15.491z"/>
			</g>
			<g>
				<path style="fill:#FFFFFF;" d="M307.396,25.635c-0.232,0-0.488-0.093-0.684-0.249c-0.475-0.378-1.093-0.959-1.351-1.27
					c-0.102-0.122-0.184-0.226-0.248-0.31c0.123-0.146,0.299-0.354,0.487-0.577c0.363-0.428,1.096-1.156,1.601-1.589l2.246-1.935
					c0.664-0.572,1.406-1.219,1.723-1.498c0.241,0.022,0.793,0.261,1.396,0.758c0.607,0.502,0.895,0.986,0.933,1.171
					c-0.25,0.318-0.666,0.836-0.957,1.192c-0.294,0.358-0.817,0.891-1.142,1.164c-0.35,0.295-1.174,0.978-1.831,1.52
					s-1.504,1.237-1.882,1.545C307.627,25.607,307.521,25.635,307.396,25.635z"/>
				<path d="M311.301,18.759c0.209,0.083,0.554,0.269,0.945,0.593c0.337,0.278,0.553,0.542,0.668,0.719
					c-0.238,0.299-0.536,0.669-0.759,0.941c-0.274,0.333-0.777,0.847-1.079,1.101c-0.349,0.293-1.171,0.975-1.825,1.515
					c-0.635,0.522-1.445,1.189-1.84,1.511c0-0.001-0.003-0.002-0.01-0.002c-0.002,0-0.004,0-0.006,0
					c-0.091,0-0.242-0.037-0.372-0.139c-0.481-0.384-1.043-0.923-1.263-1.181c0.07-0.083,0.145-0.171,0.222-0.262
					c0.349-0.412,1.056-1.114,1.544-1.533l2.247-1.935C310.324,19.611,310.928,19.086,311.301,18.759 M311.145,17.706
					c-0.105,0-0.189,0.024-0.246,0.075c-0.27,0.24-1.068,0.936-1.777,1.547c-0.708,0.61-1.719,1.481-2.246,1.934
					s-1.272,1.193-1.655,1.645c-0.383,0.451-0.709,0.843-0.724,0.869c-0.015,0.027,0.201,0.324,0.48,0.661
					c0.28,0.337,0.921,0.94,1.424,1.341c0.295,0.234,0.664,0.357,0.995,0.357c0.234,0,0.45-0.062,0.607-0.189
					c0.378-0.309,1.226-1.005,1.884-1.547c0.658-0.542,1.484-1.228,1.834-1.522c0.351-0.294,0.894-0.848,1.207-1.229
					c0.312-0.382,0.768-0.949,1.011-1.261s-0.231-1.124-1.055-1.804C312.233,18.043,311.54,17.706,311.145,17.706L311.145,17.706z"
					/>
			</g>
			<path style="fill:none;stroke:#000000;stroke-linecap:round;stroke-linejoin:round;stroke-miterlimit:10;" d="M307.756,17.65
				l-3.691-4.438c-0.352-0.423-0.305-1.047,0.104-1.387c0.409-0.34,1.022-0.284,1.363,0.125c0.34,0.409,0.272,1.032-0.15,1.384
				l-3.669,3.052c-0.423,0.352-1.047,0.305-1.387-0.104c-0.34-0.409-0.284-1.022,0.125-1.362c0.409-0.341,1.031-0.273,1.383,0.149
				l3.691,4.438"/>
		</g>
		<g>
			<g>
				<path style="fill:#FFFFFF;" d="M347.9,15.829c0.777,0.778,0.777,2.05,0,2.828l-4.244,4.243c-0.777,0.778-2.051,0.778-2.828,0
					c-0.777-0.778-0.777-2.05,0-2.828l4.243-4.243C345.849,15.05,347.122,15.05,347.9,15.829L347.9,15.829z"/>
				<path style="fill:none;stroke:#000000;stroke-width:2;stroke-linecap:round;stroke-linejoin:round;stroke-miterlimit:10;" d="
					M347.9,15.829c0.777,0.778,0.777,2.05,0,2.828l-4.244,4.243c-0.777,0.778-2.051,0.778-2.828,0c-0.777-0.778-0.777-2.05,0-2.828
					l4.243-4.243C345.849,15.05,347.122,15.05,347.9,15.829L347.9,15.829z"/>
			</g>
			<g>
				<path style="fill:#FFFFFF;" d="M350.021,17.95c0.777,0.778,0.777,2.05,0,2.828l-4.244,4.243c-0.777,0.778-2.051,0.778-2.828,0
					s-0.777-2.05,0-2.828l4.244-4.243C347.971,17.172,349.244,17.172,350.021,17.95z"/>
				<path style="fill:none;stroke:#000000;stroke-width:2;stroke-linecap:round;stroke-linejoin:round;stroke-miterlimit:10;" d="
					M350.021,17.95c0.777,0.778,0.777,2.05,0,2.828l-4.244,4.243c-0.777,0.778-2.051,0.778-2.828,0s-0.777-2.05,0-2.828l4.244-4.243
					C347.971,17.172,349.244,17.172,350.021,17.95z"/>
			</g>
			<path style="fill:#FFFFFF;stroke:#000000;stroke-width:2;stroke-linecap:round;stroke-linejoin:round;stroke-miterlimit:10;" d="
				M343.656,7.343C345.219,8.905,346,10.953,346,13s-0.781,4.095-2.343,5.657S340.048,21,338,21c-2.047,0-4.094-0.781-5.656-2.343
				S330,15.047,330,13s0.781-4.095,2.344-5.657C333.905,5.781,335.953,5,338,5S342.095,5.781,343.656,7.343z"/>
			<g>
				<path style="fill:#FFFFFF;" d="M341.998,23.271c-0.076,0-0.108-0.017-0.113-0.021l-1.414-1.414
					c-0.08-0.099,0.039-0.737,0.711-1.411l4.243-4.243c0.281-0.282,0.658-0.437,1.061-0.437s0.779,0.155,1.061,0.437
					c0.585,0.585,0.585,1.537,0.001,2.122l-4.244,4.243C342.806,23.044,342.278,23.271,341.998,23.271z"/>
				<path d="M346.485,16.245c0.269,0,0.52,0.103,0.707,0.291c0.004,0.004,0.009,0.009,0.014,0.013
					c0.377,0.391,0.372,1.016-0.013,1.401l-0.708,0.708l-1.414,1.414l-1.414,1.414l-0.708,0.708
					c-0.349,0.349-0.678,0.511-0.854,0.56l-1.123-1.123c0.052-0.171,0.212-0.5,0.562-0.852l0.708-0.708l1.642-1.642l1.186-1.186
					l0.708-0.708C345.966,16.348,346.217,16.245,346.485,16.245 M346.485,15.245c-0.513,0-1.025,0.195-1.414,0.583l-0.708,0.708
					c-0.777,0.778-2.051,2.05-2.828,2.829l-0.707,0.707c-0.777,0.778-1.098,1.731-0.711,2.118c0.386,0.386,1.022,1.023,1.414,1.414
					c0.114,0.114,0.275,0.168,0.467,0.168c0.466,0,1.107-0.319,1.658-0.871l0.708-0.708c0.777-0.778,2.051-2.05,2.828-2.828
					l0.708-0.708c0.777-0.778,0.777-2.05,0-2.828l-0.001,0C347.511,15.439,346.998,15.245,346.485,15.245L346.485,15.245z"/>
			</g>
			<g>
				<path style="fill:#FFFFFF;" d="M344.146,25.328c-0.084,0-0.196-0.014-0.262-0.079l-1.414-1.414
					c0.005-0.077,0.192-0.647,0.833-1.289l4.244-4.243c0.281-0.282,0.658-0.437,1.061-0.437s0.779,0.155,1.061,0.437
					c0.584,0.585,0.584,1.536,0,2.121l-4.244,4.243C345.022,25.069,344.521,25.328,344.146,25.328z"/>
				<path d="M348.607,18.366c0.269,0,0.52,0.103,0.707,0.291c0.39,0.39,0.39,1.024,0,1.414l-0.708,0.708l-1.402,1.402l-1.426,1.425
					l-0.708,0.708c-0.351,0.351-0.706,0.494-0.903,0.511l-0.424-0.424l-0.686-0.686c0.085-0.188,0.272-0.489,0.599-0.815
					l0.708-0.708l1.414-1.414l1.414-1.414l0.708-0.708C348.088,18.469,348.339,18.366,348.607,18.366 M348.607,17.366
					c-0.513,0-1.025,0.194-1.414,0.583l-0.708,0.708c-0.777,0.778-2.051,2.05-2.828,2.828l-0.708,0.708
					c-0.777,0.778-1.152,1.676-0.833,1.996s0.956,0.956,1.414,1.414c0.153,0.153,0.367,0.226,0.615,0.226
					c0.492,0,1.114-0.289,1.632-0.807l0.708-0.708c0.777-0.778,2.051-2.05,2.828-2.828l0.708-0.708c0.777-0.778,0.777-2.05,0-2.828
					C349.633,17.561,349.12,17.366,348.607,17.366L348.607,17.366z"/>
			</g>
			<path style="fill:none;stroke:#000000;stroke-linecap:round;stroke-linejoin:round;stroke-miterlimit:10;" d="M344.363,17.243
				L340.121,13c-0.389-0.389-0.389-1.025,0-1.414s1.025-0.389,1.414,0v0c0.389,0.389,0.389,1.025,0,1.414L338,16.536
				c-0.389,0.389-1.025,0.389-1.414,0v0c-0.389-0.389-0.389-1.025,0-1.414v0c0.389-0.389,1.025-0.389,1.414,0l4.242,4.243"/>
		</g>
		<g>
			<g>
				<path style="fill:#FFFFFF;" d="M379.706,22.774c-0.735,0.818-2.113,1.033-3.062,0.477l-0.573-0.335
					c-0.949-0.556-1.124-1.68-0.389-2.499l3.22-3.583c0.735-0.818,2.113-1.033,3.062-0.477l0.573,0.335
					c0.949,0.556,1.124,1.68,0.389,2.499L379.706,22.774z"/>
				<path style="fill:none;stroke:#000000;stroke-width:2;stroke-linecap:round;stroke-linejoin:round;stroke-miterlimit:10;" d="
					M379.706,22.774c-0.735,0.818-2.113,1.033-3.062,0.477l-0.573-0.335c-0.949-0.556-1.124-1.68-0.389-2.499l3.22-3.583
					c0.735-0.818,2.113-1.033,3.062-0.477l0.573,0.335c0.949,0.556,1.124,1.68,0.389,2.499L379.706,22.774z"/>
			</g>
			<g>
				<path style="fill:#FFFFFF;" d="M381.474,25.042c-0.735,0.818-2.113,1.033-3.062,0.477l-0.573-0.335
					c-0.949-0.556-1.124-1.68-0.389-2.499l3.22-3.584c0.735-0.818,2.113-1.033,3.062-0.477l0.573,0.335
					c0.949,0.556,1.124,1.68,0.389,2.499L381.474,25.042z"/>
				<path style="fill:none;stroke:#000000;stroke-width:2;stroke-linecap:round;stroke-linejoin:round;stroke-miterlimit:10;" d="
					M381.474,25.042c-0.735,0.818-2.113,1.033-3.062,0.477l-0.573-0.335c-0.949-0.556-1.124-1.68-0.389-2.499l3.22-3.584
					c0.735-0.818,2.113-1.033,3.062-0.477l0.573,0.335c0.949,0.556,1.124,1.68,0.389,2.499L381.474,25.042z"/>
			</g>
			<path style="fill:#FFFFFF;stroke:#000000;stroke-width:2;stroke-linecap:round;stroke-linejoin:round;stroke-miterlimit:10;" d="
				M368.344,7.343C369.887,5.8,371.927,5,374,5c2.074,0,4.114,0.8,5.656,2.343C381.2,8.887,382,10.926,382,13
				s-0.8,4.114-2.343,5.657C378.115,20.2,376.075,21,374,21c-2.073,0-4.113-0.801-5.656-2.344C366.801,17.114,366,15.074,366,13
				S366.801,8.887,368.344,7.343z"/>
			<g>
				<path style="fill:#FFFFFF;" d="M377.048,23.394c-0.18,0-0.342-0.045-0.445-0.124c-0.397-0.301-0.983-0.872-1.279-1.248
					c-0.129-0.165-0.248-0.317-0.344-0.44c0.114-0.145,0.263-0.331,0.424-0.533c0.341-0.426,1.065-1.142,1.584-1.562
					c0.547-0.445,1.564-1.274,2.259-1.844c0.698-0.571,1.502-1.237,1.786-1.479c0.208,0.041,0.806,0.291,1.403,0.753
					c0.615,0.477,0.921,0.944,0.971,1.128c-0.227,0.317-0.601,0.825-0.862,1.172c-0.26,0.342-0.782,0.867-1.142,1.145
					c-0.393,0.306-1.192,0.918-1.777,1.363s-1.463,1.106-1.951,1.47C377.506,23.322,377.278,23.394,377.048,23.394z"/>
				<path d="M381.124,16.742c0.211,0.069,0.581,0.244,1.006,0.573c0.343,0.265,0.567,0.52,0.689,0.692
					c-0.213,0.293-0.476,0.649-0.675,0.911c-0.232,0.309-0.723,0.8-1.049,1.053c-0.392,0.304-1.189,0.916-1.773,1.358
					c-0.583,0.444-1.46,1.104-1.948,1.468c-0.079,0.059-0.207,0.097-0.326,0.097c-0.085,0-0.137-0.019-0.145-0.023
					c-0.362-0.274-0.917-0.815-1.187-1.158c-0.034-0.044-0.068-0.086-0.101-0.128c0.057-0.071,0.116-0.146,0.178-0.223
					c0.317-0.396,1.021-1.09,1.509-1.486c0.548-0.445,1.565-1.275,2.26-1.844C380.122,17.574,380.749,17.056,381.124,16.742
					 M380.981,15.706c-0.117,0-0.211,0.025-0.273,0.079c-0.283,0.241-1.083,0.904-1.778,1.473c-0.694,0.569-1.711,1.398-2.258,1.842
					c-0.548,0.444-1.295,1.182-1.659,1.638s-0.664,0.834-0.665,0.839c-0.002,0.005,0.261,0.345,0.583,0.754s0.938,1.011,1.37,1.337
					c0.199,0.151,0.468,0.225,0.747,0.225c0.324,0,0.662-0.1,0.925-0.296c0.489-0.365,1.369-1.028,1.955-1.473
					s1.388-1.06,1.781-1.365c0.395-0.306,0.949-0.863,1.233-1.239s0.697-0.938,0.919-1.251c0.221-0.312-0.282-1.098-1.119-1.746
					C382.091,16.02,381.393,15.706,380.981,15.706L380.981,15.706z"/>
			</g>
			<g>
				<path style="fill:#FFFFFF;" d="M379.047,25.676c-0.248,0-0.52-0.091-0.727-0.243c-0.48-0.354-1.09-0.914-1.329-1.221
					c-0.105-0.135-0.189-0.249-0.252-0.338c0.117-0.148,0.291-0.368,0.479-0.604c0.341-0.426,1.052-1.13,1.554-1.538l2.259-1.843
					c0.668-0.545,1.413-1.163,1.728-1.429c0.236,0.018,0.787,0.222,1.441,0.727c0.622,0.481,0.92,0.955,0.961,1.136
					c-0.238,0.328-0.636,0.863-0.914,1.227c-0.271,0.357-0.774,0.874-1.099,1.13c-0.354,0.28-1.191,0.931-1.861,1.446
					c-0.671,0.516-1.534,1.178-1.92,1.471C379.302,25.646,379.183,25.676,379.047,25.676z"/>
				<path d="M382.893,19.001c0.213,0.076,0.58,0.255,1.002,0.581c0.342,0.265,0.564,0.521,0.683,0.692
					c-0.228,0.309-0.514,0.691-0.729,0.973c-0.246,0.323-0.718,0.809-1.011,1.04c-0.354,0.279-1.188,0.928-1.855,1.441
					c-0.651,0.5-1.483,1.139-1.883,1.443c-0.012,0.001-0.029,0.003-0.053,0.003c-0.141,0-0.31-0.057-0.43-0.146
					c-0.477-0.351-1.043-0.884-1.231-1.125c-0.006-0.007-0.011-0.014-0.017-0.021c0.075-0.095,0.156-0.196,0.24-0.302
					c0.322-0.403,0.999-1.073,1.479-1.463c0.531-0.432,1.549-1.262,2.26-1.843C381.907,19.819,382.521,19.312,382.893,19.001
					 M382.741,17.958c-0.106,0-0.19,0.023-0.247,0.071c-0.267,0.229-1.067,0.892-1.779,1.473c-0.711,0.582-1.728,1.411-2.258,1.842
					c-0.531,0.432-1.265,1.158-1.629,1.614s-0.675,0.854-0.689,0.884c-0.015,0.03,0.191,0.334,0.458,0.677s0.909,0.935,1.428,1.316
					c0.304,0.223,0.683,0.34,1.022,0.34c0.241,0,0.463-0.059,0.623-0.181c0.386-0.293,1.25-0.957,1.922-1.473
					c0.672-0.517,1.511-1.169,1.866-1.45s0.89-0.829,1.187-1.219c0.298-0.39,0.731-0.973,0.964-1.296
					c0.232-0.323-0.265-1.118-1.103-1.766C383.843,18.28,383.14,17.958,382.741,17.958L382.741,17.958z"/>
			</g>
			<path style="fill:none;stroke:#000000;stroke-linecap:round;stroke-linejoin:round;stroke-miterlimit:10;" d="M379.553,17.786
				l-3.509-4.502c-0.339-0.434-0.275-1.054,0.141-1.378s1.021-0.249,1.345,0.167c0.324,0.416,0.235,1.033-0.199,1.371l-3.714,2.896
				c-0.435,0.338-1.054,0.274-1.378-0.141c-0.324-0.416-0.249-1.021,0.167-1.346s1.032-0.234,1.371,0.199l3.509,4.502"/>
		</g>
		<g>
			<g>
				<path style="fill:#FFFFFF;" d="M415.725,22.632c-0.676,0.867-2.076,1.271-3.11,0.897l-1.457-0.526
					c-1.034-0.374-1.327-1.39-0.651-2.257l2.255-2.893c0.676-0.868,2.076-1.272,3.11-0.898l1.458,0.526
					c1.034,0.374,1.327,1.39,0.651,2.257L415.725,22.632z"/>
				<path style="fill:none;stroke:#000000;stroke-width:2;stroke-linecap:round;stroke-linejoin:round;stroke-miterlimit:10;" d="
					M415.725,22.632c-0.676,0.867-2.076,1.271-3.11,0.897l-1.457-0.526c-1.034-0.374-1.327-1.39-0.651-2.257l2.255-2.893
					c0.676-0.868,2.076-1.272,3.11-0.898l1.458,0.526c1.034,0.374,1.327,1.39,0.651,2.257L415.725,22.632z"/>
			</g>
			<g>
				<path style="fill:#FFFFFF;" d="M417.139,25.046c-0.676,0.867-2.076,1.271-3.11,0.898l-1.457-0.526
					c-1.034-0.374-1.327-1.389-0.651-2.256l2.256-2.894c0.676-0.867,2.076-1.271,3.11-0.897l1.457,0.526
					c1.034,0.374,1.327,1.39,0.651,2.257L417.139,25.046z"/>
				<path style="fill:none;stroke:#000000;stroke-width:2;stroke-linecap:round;stroke-linejoin:round;stroke-miterlimit:10;" d="
					M417.139,25.046c-0.676,0.867-2.076,1.271-3.11,0.898l-1.457-0.526c-1.034-0.374-1.327-1.389-0.651-2.256l2.256-2.894
					c0.676-0.867,2.076-1.271,3.11-0.897l1.457,0.526c1.034,0.374,1.327,1.39,0.651,2.257L417.139,25.046z"/>
			</g>
			<path style="fill:#FFFFFF;stroke:#000000;stroke-width:2;stroke-linecap:round;stroke-linejoin:round;stroke-miterlimit:10;" d="
				M404.344,7.343C405.867,5.819,407.898,5,410,5s4.133,0.819,5.656,2.343C417.181,8.867,418,10.899,418,13
				c0,2.102-0.819,4.133-2.343,5.657C414.134,20.181,412.102,21,410,21s-4.132-0.819-5.656-2.343S402,15.102,402,13
				S402.819,8.867,404.344,7.343z"/>
			<g>
				<path style="fill:#FFFFFF;" d="M411.889,23.415c-0.232,0-0.443-0.043-0.578-0.118c-0.393-0.217-0.924-0.722-1.137-1.079
					c-0.124-0.209-0.237-0.4-0.319-0.542c0.096-0.158,0.232-0.381,0.382-0.625c0.25-0.407,0.9-1.038,1.394-1.35
					c0.562-0.356,1.602-1.02,2.311-1.476c0.714-0.458,1.524-0.994,1.804-1.189c0.281,0.027,0.925,0.229,1.589,0.615
					c0.721,0.417,1.068,0.882,1.087,1.027c-0.154,0.271-0.48,0.892-0.703,1.296c-0.185,0.333-0.648,0.8-0.993,1.001
					c-0.42,0.243-1.283,0.733-1.919,1.088c-0.635,0.355-1.596,0.884-2.135,1.175C412.466,23.349,412.173,23.415,411.889,23.415z"/>
				<path d="M415.841,17.577c0.224,0.041,0.688,0.186,1.241,0.507c0.374,0.216,0.624,0.442,0.756,0.594
					c-0.17,0.333-0.391,0.749-0.559,1.053c-0.141,0.255-0.541,0.657-0.807,0.811c-0.418,0.243-1.278,0.731-1.912,1.084
					c-0.633,0.354-1.591,0.881-2.127,1.171c-0.134,0.072-0.343,0.117-0.545,0.117c-0.194,0-0.309-0.04-0.336-0.055
					c-0.312-0.173-0.782-0.618-0.948-0.896c-0.06-0.1-0.116-0.195-0.167-0.282c0.068-0.112,0.145-0.237,0.226-0.369
					c0.192-0.313,0.761-0.888,1.234-1.188c0.562-0.356,1.604-1.021,2.313-1.478C414.799,18.269,415.464,17.832,415.841,17.577
					 M415.732,16.564c-0.12,0-0.214,0.021-0.275,0.063c-0.276,0.193-1.08,0.724-1.787,1.179c-0.708,0.455-1.746,1.119-2.308,1.474
					s-1.261,1.035-1.552,1.51c-0.292,0.476-0.532,0.872-0.533,0.881c0,0.009,0.21,0.371,0.467,0.803
					c0.258,0.433,0.854,1,1.324,1.261c0.219,0.121,0.513,0.18,0.82,0.18c0.355,0,0.729-0.08,1.02-0.237
					c0.54-0.292,1.504-0.822,2.141-1.178c0.638-0.356,1.504-0.848,1.926-1.092c0.421-0.245,0.952-0.781,1.18-1.191
					c0.227-0.411,0.558-1.041,0.734-1.401c0.177-0.359-0.41-1.078-1.305-1.597C416.888,16.815,416.153,16.564,415.732,16.564
					L415.732,16.564z"/>
			</g>
			<g>
				<path style="fill:#FFFFFF;" d="M413.651,25.84c-0.309,0-0.646-0.08-0.901-0.214c-0.529-0.279-1.091-0.773-1.24-1.028
					c-0.112-0.192-0.198-0.353-0.252-0.461c0.088-0.144,0.251-0.416,0.431-0.709c0.249-0.407,0.887-1.029,1.362-1.331
					c0.545-0.346,1.584-1.009,2.31-1.475c0.73-0.47,1.544-1.006,1.807-1.191c0.243,0.035,0.888,0.241,1.571,0.635
					c0.739,0.426,1.07,0.903,1.083,1.03c-0.164,0.287-0.506,0.925-0.741,1.341c-0.195,0.347-0.631,0.811-0.934,0.993
					c-0.372,0.223-1.266,0.742-1.984,1.153c-0.722,0.413-1.654,0.942-2.072,1.176C413.999,25.81,413.835,25.84,413.651,25.84z"/>
				<path d="M417.248,19.982c0.237,0.049,0.707,0.21,1.241,0.517c0.373,0.215,0.621,0.442,0.752,0.593
					c-0.187,0.355-0.427,0.799-0.597,1.101c-0.163,0.288-0.552,0.686-0.755,0.808c-0.371,0.223-1.26,0.739-1.976,1.148
					c-0.721,0.412-1.651,0.94-2.054,1.167c-0.018,0.007-0.089,0.024-0.209,0.024c-0.228,0-0.484-0.06-0.668-0.157
					c-0.489-0.258-0.952-0.689-1.043-0.839c-0.04-0.068-0.076-0.132-0.107-0.189c0.076-0.128,0.17-0.285,0.28-0.465
					c0.193-0.314,0.75-0.882,1.206-1.171c0.545-0.346,1.585-1.01,2.312-1.477C416.177,20.691,416.859,20.245,417.248,19.982
					 M417.127,18.966c-0.108,0-0.193,0.019-0.248,0.057c-0.26,0.183-1.065,0.713-1.789,1.179c-0.725,0.465-1.763,1.128-2.307,1.474
					c-0.545,0.346-1.229,1.017-1.521,1.492c-0.291,0.475-0.539,0.899-0.551,0.942s0.153,0.377,0.367,0.742
					c0.213,0.365,0.86,0.913,1.439,1.218c0.339,0.179,0.76,0.272,1.134,0.272c0.266,0,0.509-0.047,0.683-0.145
					c0.419-0.235,1.354-0.765,2.076-1.178s1.62-0.935,1.994-1.159c0.373-0.225,0.874-0.753,1.111-1.175
					c0.238-0.422,0.585-1.069,0.771-1.437c0.186-0.369-0.399-1.095-1.299-1.613C418.277,19.224,417.536,18.966,417.127,18.966
					L417.127,18.966z"/>
			</g>
			<path style="fill:none;stroke:#000000;stroke-linecap:round;stroke-linejoin:round;stroke-miterlimit:10;" d="M414.742,18.328
				l-2.794-4.77c-0.277-0.475-0.143-1.075,0.3-1.334c0.441-0.259,1.016-0.109,1.275,0.333s0.083,1.032-0.392,1.31l-3.906,2.289
				c-0.475,0.278-1.075,0.143-1.335-0.299s-0.109-1.017,0.334-1.276c0.442-0.259,1.032-0.083,1.31,0.391l2.794,4.77"/>
		</g>
		<g>
			<g>
				<path style="fill:#FFFFFF;" d="M451.697,22.471c-0.592,0.927-1.955,1.492-3.029,1.255l-2.508-0.553
					c-1.074-0.237-1.469-1.189-0.877-2.116l1.383-2.164c0.592-0.927,1.955-1.492,3.029-1.255l2.508,0.553
					c1.074,0.237,1.469,1.189,0.877,2.116L451.697,22.471z"/>
				<path style="fill:none;stroke:#000000;stroke-width:2;stroke-linecap:round;stroke-linejoin:round;stroke-miterlimit:10;" d="
					M451.697,22.471c-0.592,0.927-1.955,1.492-3.029,1.255l-2.508-0.553c-1.074-0.237-1.469-1.189-0.877-2.116l1.383-2.164
					c0.592-0.927,1.955-1.492,3.029-1.255l2.508,0.553c1.074,0.237,1.469,1.189,0.877,2.116L451.697,22.471z"/>
			</g>
			<g>
				<path style="fill:#FFFFFF;" d="M452.758,25.032c-0.592,0.927-1.955,1.492-3.029,1.255l-2.508-0.553
					c-1.074-0.237-1.469-1.189-0.877-2.116l1.383-2.165c0.592-0.927,1.955-1.492,3.029-1.255l2.508,0.553
					c1.074,0.237,1.469,1.189,0.877,2.116L452.758,25.032z"/>
				<path style="fill:none;stroke:#000000;stroke-width:2;stroke-linecap:round;stroke-linejoin:round;stroke-miterlimit:10;" d="
					M452.758,25.032c-0.592,0.927-1.955,1.492-3.029,1.255l-2.508-0.553c-1.074-0.237-1.469-1.189-0.877-2.116l1.383-2.165
					c0.592-0.927,1.955-1.492,3.029-1.255l2.508,0.553c1.074,0.237,1.469,1.189,0.877,2.116L452.758,25.032z"/>
			</g>
			<path style="fill:#FFFFFF;stroke:#000000;stroke-width:2;stroke-linecap:round;stroke-linejoin:round;stroke-miterlimit:10;" d="
				M440.344,7.343C441.848,5.838,443.871,5,446,5c2.127,0,4.151,0.838,5.656,2.343S454,10.872,454,13s-0.839,4.152-2.344,5.657
				C450.152,20.162,448.128,21,446,21c-2.129,0-4.152-0.839-5.656-2.344C438.838,17.151,438,15.128,438,13
				C438,10.872,438.838,8.848,440.344,7.343z"/>
			<g>
				<path style="fill:#FFFFFF;" d="M446.729,23.436c-0.284,0-0.544-0.037-0.712-0.102c-0.384-0.146-0.858-0.581-0.998-0.911
					c-0.111-0.263-0.211-0.5-0.273-0.652c0.07-0.165,0.187-0.43,0.318-0.725c0.172-0.387,0.731-0.916,1.198-1.132
					c0.578-0.267,1.64-0.766,2.36-1.107c0.728-0.346,1.546-0.749,1.818-0.895c0.351,0.013,1.031,0.154,1.796,0.466
					c0.792,0.324,1.171,0.76,1.196,0.888c-0.124,0.343-0.368,1.03-0.535,1.469c-0.122,0.317-0.526,0.727-0.85,0.858
					c-0.447,0.183-1.374,0.55-2.06,0.816c-0.688,0.267-1.732,0.663-2.321,0.882C447.417,23.383,447.074,23.436,446.729,23.436z"/>
				<path d="M450.537,18.425c0.249,0.016,0.823,0.134,1.511,0.415c0.405,0.166,0.681,0.364,0.822,0.497
					c-0.132,0.384-0.311,0.881-0.438,1.217c-0.073,0.189-0.377,0.497-0.571,0.576c-0.446,0.182-1.369,0.548-2.052,0.812
					c-0.686,0.266-1.728,0.662-2.313,0.879c-0.195,0.072-0.481,0.115-0.766,0.115c-0.262,0-0.45-0.037-0.534-0.069
					c-0.274-0.104-0.635-0.448-0.716-0.64c-0.07-0.167-0.137-0.322-0.19-0.452c0.064-0.148,0.146-0.331,0.232-0.527
					c0.11-0.25,0.571-0.705,0.95-0.88c0.58-0.268,1.644-0.767,2.365-1.11C449.47,18.957,450.175,18.611,450.537,18.425
					 M450.482,17.423c-0.123,0-0.218,0.015-0.277,0.047c-0.27,0.145-1.078,0.542-1.797,0.884s-1.778,0.839-2.355,1.105
					c-0.576,0.267-1.227,0.889-1.445,1.383c-0.22,0.494-0.398,0.909-0.399,0.922c-0.001,0.013,0.157,0.396,0.351,0.853
					c0.192,0.456,0.769,0.988,1.279,1.184c0.236,0.091,0.557,0.135,0.892,0.135c0.388,0,0.795-0.06,1.112-0.177
					c0.591-0.219,1.639-0.617,2.328-0.884c0.688-0.267,1.619-0.636,2.068-0.819s0.956-0.698,1.127-1.143
					c0.17-0.445,0.418-1.143,0.551-1.55c0.132-0.407-0.538-1.059-1.49-1.448C451.684,17.611,450.914,17.423,450.482,17.423
					L450.482,17.423z"/>
			</g>
			<g>
				<path style="fill:#FFFFFF;" d="M448.256,26.005c-0.368,0-0.771-0.065-1.076-0.175c-0.574-0.205-1.078-0.641-1.159-0.84
					c-0.111-0.27-0.186-0.481-0.221-0.593c0.056-0.133,0.196-0.464,0.354-0.82c0.172-0.387,0.716-0.909,1.166-1.118
					c0.558-0.259,1.62-0.757,2.358-1.107c0.747-0.353,1.569-0.757,1.825-0.896c0.321,0.018,1.028,0.178,1.78,0.482
					c0.799,0.324,1.177,0.762,1.199,0.891c-0.129,0.354-0.386,1.053-0.562,1.5c-0.14,0.354-0.528,0.75-0.769,0.854
					c-0.391,0.167-1.339,0.557-2.108,0.865c-0.773,0.31-1.775,0.706-2.228,0.882C448.759,25.953,448.589,26.005,448.256,26.005z"/>
				<path d="M451.585,20.978c0.266,0.022,0.85,0.157,1.511,0.424c0.406,0.165,0.682,0.363,0.823,0.496
					c-0.135,0.383-0.32,0.885-0.463,1.248c-0.09,0.229-0.377,0.523-0.501,0.579c-0.389,0.167-1.331,0.554-2.098,0.86
					c-0.771,0.309-1.771,0.705-2.223,0.88c-0.029,0.011-0.155,0.041-0.379,0.041c-0.309,0-0.656-0.056-0.908-0.146
					c-0.431-0.153-0.806-0.468-0.865-0.559c-0.062-0.152-0.111-0.281-0.146-0.38c0.063-0.154,0.156-0.374,0.274-0.64
					c0.11-0.25,0.557-0.699,0.919-0.867c0.56-0.26,1.623-0.759,2.362-1.109C450.542,21.497,451.228,21.162,451.585,20.978
					 M451.515,19.974c-0.111,0-0.197,0.014-0.25,0.042c-0.253,0.137-1.063,0.535-1.801,0.884c-0.737,0.349-1.798,0.847-2.355,1.105
					s-1.193,0.875-1.412,1.369s-0.404,0.944-0.413,1s0.115,0.418,0.274,0.806s0.813,0.892,1.453,1.121
					c0.374,0.134,0.836,0.205,1.245,0.205c0.29,0,0.555-0.036,0.742-0.109c0.453-0.176,1.457-0.574,2.231-0.884
					s1.728-0.701,2.12-0.87c0.392-0.168,0.858-0.677,1.037-1.131c0.178-0.454,0.438-1.164,0.577-1.578s-0.533-1.071-1.493-1.459
					C452.712,20.167,451.933,19.974,451.515,19.974L451.515,19.974z"/>
			</g>
			<path style="fill:none;stroke:#000000;stroke-linecap:round;stroke-linejoin:round;stroke-miterlimit:10;" d="M449.932,18.871
				l-2.092-5.051c-0.211-0.508,0.001-1.083,0.471-1.277s1.013,0.031,1.207,0.5s-0.062,1.026-0.57,1.236l-4.127,1.709
				c-0.508,0.21-1.083-0.001-1.277-0.471s0.03-1.013,0.5-1.207s1.025,0.062,1.236,0.57l2.092,5.051"/>
		</g>
		<g>
			<g>
				<path style="fill:#FFFFFF;" d="M487.598,22.294c-0.467,0.996-1.743,1.7-2.834,1.564l-3.642-0.451
					c-1.091-0.135-1.603-1.061-1.135-2.057l0.658-1.403c0.468-0.996,1.743-1.7,2.834-1.564l3.642,0.451
					c1.091,0.135,1.602,1.061,1.135,2.057L487.598,22.294z"/>
				<path style="fill:none;stroke:#000000;stroke-width:2;stroke-linecap:round;stroke-linejoin:round;stroke-miterlimit:10;" d="
					M487.598,22.294c-0.467,0.996-1.743,1.7-2.834,1.564l-3.642-0.451c-1.091-0.135-1.603-1.061-1.135-2.057l0.658-1.403
					c0.468-0.996,1.743-1.7,2.834-1.564l3.642,0.451c1.091,0.135,1.602,1.061,1.135,2.057L487.598,22.294z"/>
			</g>
			<g>
				<path style="fill:#FFFFFF;" d="M488.305,25.001c-0.467,0.996-1.743,1.7-2.834,1.565l-3.642-0.451
					c-1.091-0.135-1.603-1.061-1.135-2.056l0.658-1.403c0.468-0.996,1.743-1.7,2.834-1.564l3.642,0.451
					c1.091,0.135,1.602,1.061,1.135,2.057L488.305,25.001z"/>
				<path style="fill:none;stroke:#000000;stroke-width:2;stroke-linecap:round;stroke-linejoin:round;stroke-miterlimit:10;" d="
					M488.305,25.001c-0.467,0.996-1.743,1.7-2.834,1.565l-3.642-0.451c-1.091-0.135-1.603-1.061-1.135-2.056l0.658-1.403
					c0.468-0.996,1.743-1.7,2.834-1.564l3.642,0.451c1.091,0.135,1.602,1.061,1.135,2.057L488.305,25.001z"/>
			</g>
			<path style="fill:#FFFFFF;stroke:#000000;stroke-width:2;stroke-linecap:round;stroke-linejoin:round;stroke-miterlimit:10;" d="
				M476.344,7.343C477.829,5.857,479.845,5,482,5s4.171,0.857,5.656,2.343C489.143,8.829,490,10.845,490,13
				c0,2.155-0.857,4.171-2.344,5.657C486.172,20.143,484.155,21,482,21s-4.171-0.857-5.656-2.343C474.857,17.171,474,15.155,474,13
				S474.857,8.829,476.344,7.343z"/>
			<g>
				<path style="fill:#FFFFFF;" d="M481.57,23.457c-0.334,0-0.643-0.028-0.848-0.076c-0.4-0.095-0.795-0.482-0.868-0.751
					c-0.09-0.333-0.168-0.629-0.204-0.776c0.033-0.103,0.126-0.44,0.235-0.822c0.09-0.315,0.538-0.773,1.002-0.913
					c0.593-0.178,1.677-0.51,2.409-0.738c0.737-0.229,1.555-0.497,1.826-0.596c-0.001,0,0.048-0.003,0.111-0.003
					c0.409,0,1.194,0.128,1.91,0.312c0.845,0.217,1.278,0.626,1.308,0.753c-0.086,0.416-0.249,1.171-0.362,1.646
					c-0.07,0.298-0.415,0.651-0.71,0.727c-0.476,0.122-1.468,0.367-2.206,0.544c-0.738,0.178-1.867,0.442-2.508,0.588
					C482.369,23.418,481.97,23.457,481.57,23.457z"/>
				<path d="M485.234,19.282c0.313,0,1.028,0.102,1.786,0.296c0.438,0.112,0.74,0.283,0.89,0.399
					c-0.092,0.448-0.217,1.023-0.308,1.401c-0.027,0.117-0.231,0.327-0.347,0.356c-0.475,0.121-1.463,0.365-2.199,0.542
					s-1.862,0.441-2.502,0.586c-0.258,0.059-0.626,0.093-0.984,0.093c-0.292,0-0.565-0.023-0.732-0.063
					c-0.212-0.05-0.462-0.283-0.5-0.395c-0.066-0.247-0.127-0.473-0.168-0.631c0.047-0.171,0.118-0.423,0.196-0.699
					c0.038-0.136,0.354-0.479,0.666-0.573c0.594-0.178,1.679-0.511,2.413-0.739c0.692-0.215,1.433-0.456,1.771-0.576
					C485.223,19.282,485.229,19.282,485.234,19.282 M485.234,18.282c-0.125,0-0.222,0.01-0.279,0.032
					c-0.263,0.097-1.075,0.362-1.807,0.589s-1.812,0.559-2.404,0.737c-0.591,0.178-1.193,0.743-1.34,1.255
					c-0.146,0.513-0.265,0.946-0.266,0.963c-0.001,0.018,0.104,0.423,0.233,0.901c0.129,0.479,0.685,0.977,1.235,1.107
					c0.255,0.061,0.601,0.09,0.963,0.09c0.42,0,0.861-0.04,1.206-0.118c0.643-0.146,1.774-0.411,2.515-0.589
					s1.735-0.424,2.213-0.546c0.477-0.122,0.959-0.615,1.072-1.095c0.114-0.48,0.279-1.245,0.368-1.7s-0.665-1.04-1.676-1.299
					C486.481,18.407,485.676,18.282,485.234,18.282L485.234,18.282z"/>
			</g>
			<g>
				<path style="fill:#FFFFFF;" d="M482.861,26.17c-0.424,0-0.891-0.046-1.249-0.125c-0.594-0.129-1.05-0.506-1.089-0.66
					c-0.107-0.407-0.164-0.699-0.169-0.758c0.016-0.033,0.128-0.455,0.257-0.907c0.101-0.35,0.562-0.782,0.969-0.905
					c0.571-0.173,1.655-0.505,2.406-0.738c0.761-0.236,1.588-0.505,1.838-0.598c0,0.002,0.071,0.003,0.08,0.003
					c0.325,0,1.067,0.099,1.928,0.318c0.854,0.217,1.29,0.629,1.32,0.756c-0.091,0.42-0.263,1.185-0.38,1.665
					c-0.083,0.336-0.396,0.666-0.609,0.724c-0.408,0.112-1.415,0.372-2.236,0.578c-0.823,0.206-1.895,0.471-2.38,0.587
					C483.393,26.149,483.143,26.17,482.861,26.17z"/>
				<path d="M485.904,21.983c0.305,0,1.022,0.104,1.805,0.302c0.443,0.113,0.748,0.284,0.899,0.402
					c-0.093,0.44-0.225,1.02-0.322,1.416c-0.035,0.146-0.195,0.33-0.256,0.361c-0.405,0.111-1.407,0.37-2.225,0.574
					c-0.822,0.206-1.892,0.47-2.376,0.587c-0.09,0.021-0.285,0.044-0.568,0.044c-0.391,0-0.817-0.042-1.143-0.113
					c-0.366-0.08-0.643-0.274-0.73-0.368c-0.056-0.22-0.096-0.4-0.118-0.511c0.038-0.154,0.114-0.44,0.223-0.819
					c0.044-0.154,0.357-0.48,0.633-0.564c0.571-0.173,1.656-0.506,2.408-0.739C484.753,22.364,485.539,22.112,485.904,21.983
					L485.904,21.983 M485.904,20.983c-0.115,0-0.202,0.009-0.254,0.028c-0.246,0.091-1.062,0.356-1.812,0.589
					c-0.75,0.232-1.832,0.564-2.402,0.737c-0.571,0.173-1.158,0.733-1.305,1.246s-0.271,0.988-0.275,1.057
					c-0.006,0.069,0.076,0.46,0.184,0.871c0.106,0.41,0.767,0.871,1.467,1.023c0.409,0.089,0.911,0.136,1.355,0.136
					c0.314,0,0.601-0.023,0.803-0.072c0.486-0.117,1.56-0.382,2.385-0.589c0.825-0.207,1.837-0.468,2.246-0.58
					c0.41-0.112,0.844-0.602,0.963-1.087s0.293-1.259,0.386-1.718s-0.667-1.047-1.688-1.307
					C487.148,21.112,486.333,20.983,485.904,20.983L485.904,20.983z"/>
			</g>
			<path style="fill:none;stroke:#000000;stroke-linecap:round;stroke-linejoin:round;stroke-miterlimit:10;" d="M485.121,19.414
				l-1.396-5.349c-0.14-0.532,0.153-1.074,0.649-1.204s1.009,0.17,1.138,0.667c0.13,0.497-0.199,1.017-0.731,1.156l-4.382,1.144
				c-0.532,0.139-1.074-0.153-1.203-0.649c-0.13-0.496,0.17-1.008,0.666-1.138c0.497-0.13,1.017,0.2,1.156,0.732l1.396,5.349"/>
		</g>
		<g>
			<g>
				<path style="fill:#FFFFFF;" d="M523.379,22.118c-0.278,1.064-1.404,1.887-2.503,1.828l-4.81-0.258
					c-1.099-0.059-1.77-0.978-1.491-2.042l0.167-0.642c0.278-1.064,1.404-1.887,2.503-1.828l4.811,0.258
					c1.099,0.059,1.77,0.978,1.491,2.042L523.379,22.118z"/>
				<path style="fill:none;stroke:#000000;stroke-width:2;stroke-linecap:round;stroke-linejoin:round;stroke-miterlimit:10;" d="
					M523.379,22.118c-0.278,1.064-1.404,1.887-2.503,1.828l-4.81-0.258c-1.099-0.059-1.77-0.978-1.491-2.042l0.167-0.642
					c0.278-1.064,1.404-1.887,2.503-1.828l4.811,0.258c1.099,0.059,1.77,0.978,1.491,2.042L523.379,22.118z"/>
			</g>
			<g>
				<path style="fill:#FFFFFF;" d="M523.732,24.971c-0.278,1.064-1.404,1.887-2.503,1.828l-4.81-0.258
					c-1.099-0.059-1.77-0.978-1.491-2.042l0.167-0.642c0.278-1.064,1.404-1.887,2.503-1.828l4.811,0.257
					c1.099,0.059,1.77,0.978,1.491,2.042L523.732,24.971z"/>
				<path style="fill:none;stroke:#000000;stroke-width:2;stroke-linecap:round;stroke-linejoin:round;stroke-miterlimit:10;" d="
					M523.732,24.971c-0.278,1.064-1.404,1.887-2.503,1.828l-4.81-0.258c-1.099-0.059-1.77-0.978-1.491-2.042l0.167-0.642
					c0.278-1.064,1.404-1.887,2.503-1.828l4.811,0.257c1.099,0.059,1.77,0.978,1.491,2.042L523.732,24.971z"/>
			</g>
			<path style="fill:#FFFFFF;stroke:#000000;stroke-width:2;stroke-linecap:round;stroke-linejoin:round;stroke-miterlimit:10;" d="
				M512.344,7.343C513.811,5.876,515.818,5,518,5s4.189,0.876,5.656,2.343S526,10.818,526,13s-0.877,4.19-2.344,5.657
				C522.189,20.124,520.182,21,518,21s-4.189-0.876-5.656-2.343C510.877,17.19,510,15.182,510,13
				C510,10.818,510.877,8.81,512.344,7.343z"/>
			<g>
				<path style="fill:#FFFFFF;" d="M516.41,23.479c-0.369,0-0.722-0.014-0.98-0.042c-0.389-0.043-0.716-0.351-0.747-0.598
					c-0.059-0.454-0.113-0.918-0.113-0.918c0.006,0,0.062-0.419,0.129-0.906c0.038-0.281,0.393-0.64,0.81-0.701
					c0.606-0.089,1.712-0.255,2.455-0.369c0.749-0.114,1.575-0.249,1.833-0.297c0.039-0.006,0.105-0.007,0.19-0.007
					c0.447,0,1.277,0.064,2.064,0.16c0.907,0.11,1.393,0.496,1.425,0.624c-0.046,0.483-0.128,1.312-0.185,1.824
					c-0.031,0.284-0.31,0.574-0.583,0.606c-0.504,0.061-1.562,0.184-2.352,0.272c-0.791,0.089-2.006,0.222-2.699,0.295
					C517.316,23.458,516.861,23.479,516.41,23.479z"/>
				<path d="M519.986,20.141c0.423,0,1.247,0.064,2.004,0.156c0.477,0.058,0.807,0.203,0.965,0.305
					c-0.047,0.494-0.113,1.157-0.161,1.592c-0.006,0.054-0.096,0.153-0.146,0.165c-0.502,0.061-1.558,0.183-2.348,0.272
					s-2.002,0.221-2.694,0.294c-0.325,0.034-0.761,0.054-1.195,0.054c-0.364,0-0.701-0.015-0.925-0.039
					c-0.15-0.017-0.288-0.134-0.307-0.165c-0.045-0.35-0.085-0.664-0.103-0.817c0.021-0.161,0.065-0.496,0.116-0.87
					c0.022-0.08,0.202-0.253,0.389-0.28c0.606-0.089,1.713-0.255,2.456-0.369c0.758-0.116,1.591-0.251,1.819-0.295
					C519.889,20.141,519.933,20.141,519.986,20.141 M519.986,19.141c-0.129,0-0.227,0.005-0.283,0.016
					c-0.256,0.048-1.073,0.181-1.816,0.294c-0.742,0.114-1.846,0.28-2.451,0.369s-1.16,0.596-1.232,1.127
					c-0.073,0.531-0.133,0.983-0.133,1.005c-0.001,0.021,0.052,0.45,0.116,0.951s0.6,0.965,1.188,1.031
					c0.273,0.03,0.646,0.045,1.035,0.045c0.451,0,0.927-0.02,1.3-0.06c0.694-0.073,1.91-0.206,2.702-0.295
					c0.792-0.089,1.852-0.212,2.355-0.273c0.505-0.061,0.964-0.533,1.021-1.048c0.057-0.515,0.14-1.348,0.185-1.85
					c0.044-0.502-0.794-1.02-1.861-1.149C521.279,19.204,520.439,19.141,519.986,19.141L519.986,19.141z"/>
			</g>
			<g>
				<path style="fill:#FFFFFF;" d="M517.466,26.335c-0.478,0-1.007-0.024-1.416-0.065c-0.613-0.062-1.008-0.376-1.034-0.491
					c-0.047-0.385-0.087-0.762-0.088-0.865c0.006-0.077,0.064-0.552,0.134-1.055c0.043-0.312,0.411-0.643,0.772-0.696
					c0.585-0.086,1.689-0.252,2.454-0.369c0.771-0.117,1.601-0.251,1.842-0.297c0.031-0.005,0.088-0.005,0.16-0.005
					c0.434,0,1.272,0.065,2.088,0.163c0.92,0.11,1.414,0.498,1.447,0.627c-0.048,0.485-0.134,1.317-0.193,1.832
					c-0.035,0.307-0.277,0.582-0.455,0.605c-0.427,0.056-1.492,0.186-2.366,0.289c-0.876,0.103-2.019,0.236-2.538,0.294
					C518.07,26.325,517.783,26.335,517.466,26.335z"/>
				<path d="M520.29,22.992c0.409,0,1.243,0.065,2.028,0.159c0.486,0.059,0.823,0.205,0.985,0.309
					c-0.048,0.496-0.118,1.161-0.168,1.597c-0.009,0.071-0.054,0.142-0.086,0.175c-0.46,0.06-1.466,0.182-2.297,0.28
					c-0.876,0.103-2.018,0.235-2.537,0.294c-0.168,0.019-0.441,0.03-0.75,0.03c-0.462,0-0.973-0.023-1.365-0.063
					c-0.296-0.03-0.509-0.134-0.606-0.202c-0.038-0.323-0.059-0.55-0.065-0.639c0.016-0.154,0.068-0.568,0.128-1.001
					c0.019-0.076,0.183-0.247,0.352-0.272c0.585-0.086,1.69-0.253,2.455-0.369c0.697-0.106,1.584-0.248,1.819-0.295
					C520.21,22.992,520.246,22.992,520.29,22.992 M520.29,21.992c-0.117,0-0.204,0.004-0.255,0.014
					c-0.238,0.046-1.059,0.178-1.822,0.294s-1.867,0.282-2.451,0.369c-0.585,0.086-1.123,0.591-1.195,1.123
					c-0.073,0.531-0.135,1.033-0.139,1.115c-0.003,0.083,0.039,0.503,0.092,0.936c0.053,0.433,0.719,0.849,1.48,0.926
					c0.444,0.044,0.987,0.068,1.466,0.068c0.34,0,0.646-0.012,0.862-0.036c0.521-0.059,1.664-0.191,2.541-0.294
					c0.876-0.104,1.944-0.234,2.373-0.29c0.428-0.056,0.827-0.526,0.887-1.044s0.146-1.355,0.193-1.859
					c0.046-0.504-0.802-1.023-1.885-1.153C521.583,22.056,520.729,21.992,520.29,21.992L520.29,21.992z"/>
			</g>
			<path style="fill:none;stroke:#000000;stroke-linecap:round;stroke-linejoin:round;stroke-miterlimit:10;" d="M520.311,19.957
				l-0.702-5.666c-0.067-0.545,0.305-1.045,0.828-1.11s1.004,0.311,1.069,0.833c0.064,0.523-0.329,1.006-0.875,1.074l-4.673,0.579
				c-0.546,0.068-1.045-0.305-1.11-0.828c-0.064-0.523,0.311-1.004,0.834-1.069c0.522-0.065,1.006,0.329,1.073,0.874l0.702,5.666"/>
		</g>
		<g>
			<g>
				<path style="fill:#FFFFFF;" d="M559,22c0,1.1-0.9,2-2,2h-6c-1.1,0-2-0.9-2-2l0,0c0-1.1,0.9-2,2-2h6C558.1,20,559,20.9,559,22
					L559,22z"/>
				<path style="fill:none;stroke:#000000;stroke-width:2;stroke-linecap:round;stroke-linejoin:round;stroke-miterlimit:10;" d="
					M559,22c0,1.1-0.9,2-2,2h-6c-1.1,0-2-0.9-2-2l0,0c0-1.1,0.9-2,2-2h6C558.1,20,559,20.9,559,22L559,22z"/>
			</g>
			<g>
				<path style="fill:#FFFFFF;" d="M559,25c0,1.1-0.9,2-2,2h-6c-1.1,0-2-0.9-2-2l0,0c0-1.1,0.9-2,2-2h6C558.1,23,559,23.9,559,25
					L559,25z"/>
				<path style="fill:none;stroke:#000000;stroke-width:2;stroke-linecap:round;stroke-linejoin:round;stroke-miterlimit:10;" d="
					M559,25c0,1.1-0.9,2-2,2h-6c-1.1,0-2-0.9-2-2l0,0c0-1.1,0.9-2,2-2h6C558.1,23,559,23.9,559,25L559,25z"/>
			</g>
			<path style="fill:#FFFFFF;stroke:#000000;stroke-width:2;stroke-linecap:round;stroke-linejoin:round;stroke-miterlimit:10;" d="
				M562,13c0,2.209-0.896,4.209-2.344,5.657C558.209,20.104,556.209,21,554,21s-4.209-0.896-5.656-2.343
				C546.896,17.209,546,15.209,546,13s0.896-4.209,2.344-5.657C549.791,5.896,551.791,5,554,5s4.209,0.896,5.656,2.343
				C561.104,8.791,562,10.791,562,13z"/>
			<g>
				<path style="fill:#FFFFFF;" d="M551,23.5c-1.018,0-1.5-0.401-1.5-0.5v-2c0-0.099,0.482-0.5,1.5-0.5h6c1.018,0,1.5,0.401,1.5,0.5
					v2c0,0.099-0.482,0.5-1.5,0.5H551z"/>
				<path d="M557,21c0.498,0,0.844,0.121,1,0.206v1.588c-0.156,0.085-0.502,0.206-1,0.206h-1h-4h-1c-0.498,0-0.844-0.121-1-0.206
					v-1.588c0.156-0.085,0.502-0.206,1-0.206h1h4H557 M557,20h-1c-1.1,0-2.9,0-4,0h-1c-1.1,0-2,0.45-2,1s0,1.45,0,2s0.9,1,2,1h1
					c1.1,0,2.9,0,4,0h1c1.1,0,2-0.45,2-1s0-1.45,0-2S558.1,20,557,20L557,20z"/>
			</g>
			<g>
				<path style="fill:#FFFFFF;" d="M551,26.5c-1.018,0-1.5-0.401-1.5-0.5v-2c0-0.099,0.482-0.5,1.5-0.5h6c1.018,0,1.5,0.401,1.5,0.5
					v2c0,0.099-0.482,0.5-1.5,0.5H551z"/>
				<path d="M557,24c0.498,0,0.844,0.121,1,0.206v1.588c-0.156,0.085-0.502,0.206-1,0.206h-1h-4h-1c-0.498,0-0.844-0.121-1-0.206
					v-1.588c0.156-0.085,0.502-0.206,1-0.206h1h4H557 M557,23h-1c-1.1,0-2.9,0-4,0h-1c-1.1,0-2,0.45-2,1s0,1.45,0,2s0.9,1,2,1h1
					c1.1,0,2.9,0,4,0h1c1.1,0,2-0.45,2-1s0-1.45,0-2S558.1,23,557,23L557,23z"/>
			</g>
			<path style="fill:none;stroke:#000000;stroke-linecap:round;stroke-linejoin:round;stroke-miterlimit:10;" d="M555.5,20.5v-6
				c0-0.55,0.45-1,1-1l0,0c0.55,0,1,0.45,1,1l0,0c0,0.55-0.45,1-1,1h-5c-0.55,0-1-0.45-1-1l0,0c0-0.55,0.45-1,1-1l0,0
				c0.55,0,1,0.45,1,1v6"/>
		</g>
	</g>
</g>
<g id="nyt_x5F_exporter_x5F_info" style="display:none;">
</g>
</svg>
