<?xml version="1.0" encoding="iso-8859-1"?>
<!-- Generator: Adobe Illustrator 16.2.1, SVG Export Plug-In . SVG Version: 6.00 Build 0)  -->
<!DOCTYPE svg PUBLIC "-//W3C//DTD SVG 1.1 Tiny//EN" "http://www.w3.org/Graphics/SVG/1.1/DTD/svg11-tiny.dtd">
<svg version="1.1" baseProfile="tiny" xmlns="http://www.w3.org/2000/svg" xmlns:xlink="http://www.w3.org/1999/xlink" x="0px"
	 y="0px" width="512px" height="32px" viewBox="0 0 512 32" xml:space="preserve">
<g id="Layer_2_copy">
</g>
<g id="Layer_2">
</g>
<g id="Layer_1">
	<path d="M21.603,9.437c-0.374-0.156-0.804-0.069-1.09,0.217c-1.264,1.262-3.321,1.264-4.586-0.001
		c-2.045-2.044-5.37-2.043-7.414,0.001C8.325,9.841,8.22,10.095,8.22,10.36v13c0,0.552,0.448,1,1,1s1-0.448,1-1v-4.553
		c1.271-0.998,3.121-0.911,4.293,0.26c2.045,2.043,5.371,2.043,7.414,0c0.188-0.188,0.293-0.442,0.293-0.707v-8
		C22.22,9.956,21.976,9.591,21.603,9.437z M14.513,11.067c1.541,1.539,3.808,1.918,5.707,1.139v2.311
		c-1.446,0.915-3.387,0.748-4.646-0.51c-1.447-1.447-3.598-1.744-5.354-0.928v-2.271C11.491,9.81,13.341,9.896,14.513,11.067z
		 M15.927,17.652c-1.022-1.021-2.365-1.532-3.707-1.532c-0.681,0-1.361,0.131-2,0.395v-2.311c1.446-0.916,3.387-0.75,4.646,0.51
		c0.925,0.924,2.139,1.386,3.354,1.386c0.687,0,1.366-0.164,2-0.459v2.272C18.948,18.909,17.098,18.823,15.927,17.652z"/>
</g>
<g id="Layer_4">
</g>
</svg>
