<?xml version="1.0" encoding="iso-8859-1"?>
<!-- Generator: Adobe Illustrator 16.2.1, SVG Export Plug-In . SVG Version: 6.00 Build 0)  -->
<!DOCTYPE svg PUBLIC "-//W3C//DTD SVG 1.1 Tiny//EN" "http://www.w3.org/Graphics/SVG/1.1/DTD/svg11-tiny.dtd">
<svg version="1.1" baseProfile="tiny" xmlns="http://www.w3.org/2000/svg" xmlns:xlink="http://www.w3.org/1999/xlink" x="0px"
	 y="0px" width="512px" height="32px" viewBox="0 0 512 32" xml:space="preserve">
<g id="Layer_2_copy">
</g>
<g id="Layer_2">
</g>
<g id="Layer_1">
	<g>
		<path d="M21.896,24h-14c-1.654,0-3-1.346-3-3v-8c0-1.654,1.346-3,3-3h1.586l1-1c0.579-0.579,1.596-1,2.414-1h4
			c0.818,0,1.835,0.421,2.414,1l1,1h1.586c1.654,0,3,1.346,3,3v8C24.896,22.654,23.55,24,21.896,24z M7.896,12c-0.552,0-1,0.448-1,1
			v8c0,0.552,0.448,1,1,1h14c0.552,0,1-0.448,1-1v-8c0-0.552-0.448-1-1-1h-2c-0.266,0-0.52-0.105-0.707-0.293l-1.293-1.293
			c-0.201-0.201-0.715-0.414-1-0.414h-4c-0.285,0-0.799,0.213-1,0.414l-1.293,1.293C10.416,11.895,10.162,12,9.896,12H7.896z"/>
	</g>
	<g>
		<path d="M14.896,14c1.379,0,2.5,1.121,2.5,2.5s-1.121,2.5-2.5,2.5s-2.5-1.121-2.5-2.5S13.517,14,14.896,14 M14.896,13
			c-1.934,0-3.5,1.566-3.5,3.5c0,1.932,1.566,3.5,3.5,3.5s3.5-1.568,3.5-3.5C18.396,14.566,16.83,13,14.896,13z"/>
	</g>
	<g>
		<path d="M20.896,12.699c-0.719,0-1.3,0.582-1.3,1.301s0.581,1.299,1.3,1.299s1.3-0.58,1.3-1.299S21.615,12.699,20.896,12.699z"/>
	</g>
</g>
<g id="Layer_4">
</g>
</svg>
