<?xml version="1.0" encoding="iso-8859-1"?>
<!-- Generator: Adobe Illustrator 16.2.1, SVG Export Plug-In . SVG Version: 6.00 Build 0)  -->
<!DOCTYPE svg PUBLIC "-//W3C//DTD SVG 1.1 Tiny//EN" "http://www.w3.org/Graphics/SVG/1.1/DTD/svg11-tiny.dtd">
<svg version="1.1" baseProfile="tiny" xmlns="http://www.w3.org/2000/svg" xmlns:xlink="http://www.w3.org/1999/xlink" x="0px"
	 y="0px" width="512px" height="32px" viewBox="0 0 512 32" xml:space="preserve">
<g id="Layer_2_copy">
</g>
<g id="Layer_2">
</g>
<g id="Layer_1">
	<g id="Layer_1_1_">
		<g>
			<path fill="#FFFFFF" d="M504,11c0.55,0,1,0.45,1,1v14c0,0.55-0.45,1-1,1h-16c-0.55,0-1-0.45-1-1V12c0-0.55,0.45-1,1-1H504z"/>
			<path fill="none" stroke="#000000" stroke-width="2" stroke-linecap="round" stroke-linejoin="round" stroke-miterlimit="10" d="
				M504,11c0.55,0,1,0.45,1,1v14c0,0.55-0.45,1-1,1h-16c-0.55,0-1-0.45-1-1V12c0-0.55,0.45-1,1-1H504z"/>
		</g>
		<g>
			<path fill="#FFFFFF" d="M24,9c0.55,0,1,0.45,1,1v14c0,0.55-0.45,1-1,1H8c-0.55,0-1-0.45-1-1V10c0-0.55,0.45-1,1-1H24z"/>
			<path fill="none" stroke="#000000" stroke-width="2" stroke-linecap="round" stroke-linejoin="round" stroke-miterlimit="10" d="
				M24,9c0.55,0,1,0.45,1,1v14c0,0.55-0.45,1-1,1H8c-0.55,0-1-0.45-1-1V10c0-0.55,0.45-1,1-1H24z"/>
		</g>
		
			<line fill="none" stroke="#000000" stroke-width="2" stroke-linecap="round" stroke-linejoin="round" stroke-miterlimit="10" x1="10" y1="7" x2="10" y2="11"/>
		
			<line fill="none" stroke="#000000" stroke-width="2" stroke-linecap="round" stroke-linejoin="round" stroke-miterlimit="10" x1="14" y1="7" x2="14" y2="11"/>
		
			<line fill="none" stroke="#000000" stroke-width="2" stroke-linecap="round" stroke-linejoin="round" stroke-miterlimit="10" x1="18" y1="7" x2="18" y2="11"/>
		
			<line fill="none" stroke="#000000" stroke-width="2" stroke-linecap="round" stroke-linejoin="round" stroke-miterlimit="10" x1="22" y1="7" x2="22" y2="11"/>
		<path d="M17,15v2h-2v-2H17 M17,14h-2c-0.55,0-1,0.45-1,1v2c0,0.55,0.45,1,1,1h2c0.55,0,1-0.45,1-1v-2C18,14.45,17.55,14,17,14
			L17,14z"/>
		<path d="M22,15v2h-2v-2H22 M22,14h-2c-0.55,0-1,0.45-1,1v2c0,0.55,0.45,1,1,1h2c0.55,0,1-0.45,1-1v-2C23,14.45,22.55,14,22,14
			L22,14z"/>
		<path d="M12,20v2h-2v-2H12 M12,19h-2c-0.55,0-1,0.45-1,1v2c0,0.55,0.45,1,1,1h2c0.55,0,1-0.45,1-1v-2C13,19.45,12.55,19,12,19
			L12,19z"/>
		<path d="M17,20v2h-2v-2H17 M17,19h-2c-0.55,0-1,0.45-1,1v2c0,0.55,0.45,1,1,1h2c0.55,0,1-0.45,1-1v-2C18,19.45,17.55,19,17,19
			L17,19z"/>
		
			<line fill="none" stroke="#000000" stroke-linecap="round" stroke-linejoin="round" stroke-miterlimit="10" x1="9.5" y1="17.5" x2="12.5" y2="14.5"/>
		
			<line fill="none" stroke="#000000" stroke-linecap="round" stroke-linejoin="round" stroke-miterlimit="10" x1="12.5" y1="17.5" x2="9.5" y2="14.5"/>
		<g>
			<path fill="#FFFFFF" d="M56,9.125c0.55,0,1,0.45,1,1v14c0,0.55-0.45,1-1,1H40c-0.55,0-1-0.45-1-1v-14c0-0.55,0.45-1,1-1H56z"/>
			<path fill="none" stroke="#000000" stroke-width="2" stroke-linecap="round" stroke-linejoin="round" stroke-miterlimit="10" d="
				M56,9.125c0.55,0,1,0.45,1,1v14c0,0.55-0.45,1-1,1H40c-0.55,0-1-0.45-1-1v-14c0-0.55,0.45-1,1-1H56z"/>
		</g>
		
			<line fill="none" stroke="#000000" stroke-width="2" stroke-linecap="round" stroke-linejoin="round" stroke-miterlimit="10" x1="42" y1="7.125" x2="42" y2="11.125"/>
		
			<line fill="none" stroke="#000000" stroke-width="2" stroke-linecap="round" stroke-linejoin="round" stroke-miterlimit="10" x1="46" y1="7.125" x2="46" y2="11.125"/>
		
			<line fill="none" stroke="#000000" stroke-width="2" stroke-linecap="round" stroke-linejoin="round" stroke-miterlimit="10" x1="50" y1="7.125" x2="50" y2="11.125"/>
		
			<line fill="none" stroke="#000000" stroke-width="2" stroke-linecap="round" stroke-linejoin="round" stroke-miterlimit="10" x1="54" y1="7.125" x2="54" y2="11.125"/>
		<path d="M49,15.125v2h-2v-2H49 M49,14.125h-2c-0.55,0-1,0.45-1,1v2c0,0.55,0.45,1,1,1h2c0.55,0,1-0.45,1-1v-2
			C50,14.575,49.55,14.125,49,14.125L49,14.125z"/>
		<path d="M54,15.125v2h-2v-2H54 M54,14.125h-2c-0.55,0-1,0.45-1,1v2c0,0.55,0.45,1,1,1h2c0.55,0,1-0.45,1-1v-2
			C55,14.575,54.55,14.125,54,14.125L54,14.125z"/>
		<path d="M44,20.125v2h-2v-2H44 M44,19.125h-2c-0.55,0-1,0.45-1,1v2c0,0.55,0.45,1,1,1h2c0.55,0,1-0.45,1-1v-2
			C45,19.575,44.55,19.125,44,19.125L44,19.125z"/>
		<path d="M49,20.125v2h-2v-2H49 M49,19.125h-2c-0.55,0-1,0.45-1,1v2c0,0.55,0.45,1,1,1h2c0.55,0,1-0.45,1-1v-2
			C50,19.575,49.55,19.125,49,19.125L49,19.125z"/>
		
			<line fill="none" stroke="#000000" stroke-linecap="round" stroke-linejoin="round" stroke-miterlimit="10" x1="41.5" y1="17.625" x2="44.5" y2="14.625"/>
		
			<line fill="none" stroke="#000000" stroke-linecap="round" stroke-linejoin="round" stroke-miterlimit="10" x1="44.5" y1="17.625" x2="41.5" y2="14.625"/>
		<g>
			<path fill="#FFFFFF" d="M88,9.25c0.55,0,1,0.45,1,1v14c0,0.55-0.45,1-1,1H72c-0.55,0-1-0.45-1-1v-14c0-0.55,0.45-1,1-1H88z"/>
			<path fill="none" stroke="#000000" stroke-width="2" stroke-linecap="round" stroke-linejoin="round" stroke-miterlimit="10" d="
				M88,9.25c0.55,0,1,0.45,1,1v14c0,0.55-0.45,1-1,1H72c-0.55,0-1-0.45-1-1v-14c0-0.55,0.45-1,1-1H88z"/>
		</g>
		
			<line fill="none" stroke="#000000" stroke-width="2" stroke-linecap="round" stroke-linejoin="round" stroke-miterlimit="10" x1="74" y1="7.25" x2="74" y2="11.25"/>
		
			<line fill="none" stroke="#000000" stroke-width="2" stroke-linecap="round" stroke-linejoin="round" stroke-miterlimit="10" x1="78" y1="7.25" x2="78" y2="11.25"/>
		
			<line fill="none" stroke="#000000" stroke-width="2" stroke-linecap="round" stroke-linejoin="round" stroke-miterlimit="10" x1="82" y1="7.25" x2="82" y2="11.25"/>
		
			<line fill="none" stroke="#000000" stroke-width="2" stroke-linecap="round" stroke-linejoin="round" stroke-miterlimit="10" x1="86" y1="7.25" x2="86" y2="11.25"/>
		<path d="M81,15.25v2h-2v-2H81 M81,14.25h-2c-0.55,0-1,0.45-1,1v2c0,0.55,0.45,1,1,1h2c0.55,0,1-0.45,1-1v-2
			C82,14.7,81.55,14.25,81,14.25L81,14.25z"/>
		<path d="M86,15.25v2h-2v-2H86 M86,14.25h-2c-0.55,0-1,0.45-1,1v2c0,0.55,0.45,1,1,1h2c0.55,0,1-0.45,1-1v-2
			C87,14.7,86.55,14.25,86,14.25L86,14.25z"/>
		<path d="M76,20.25v2h-2v-2H76 M76,19.25h-2c-0.55,0-1,0.45-1,1v2c0,0.55,0.45,1,1,1h2c0.55,0,1-0.45,1-1v-2
			C77,19.7,76.55,19.25,76,19.25L76,19.25z"/>
		<path d="M81,20.25v2h-2v-2H81 M81,19.25h-2c-0.55,0-1,0.45-1,1v2c0,0.55,0.45,1,1,1h2c0.55,0,1-0.45,1-1v-2
			C82,19.7,81.55,19.25,81,19.25L81,19.25z"/>
		
			<line fill="none" stroke="#000000" stroke-linecap="round" stroke-linejoin="round" stroke-miterlimit="10" x1="73.5" y1="17.75" x2="76.5" y2="14.75"/>
		
			<line fill="none" stroke="#000000" stroke-linecap="round" stroke-linejoin="round" stroke-miterlimit="10" x1="76.5" y1="17.75" x2="73.5" y2="14.75"/>
		<g>
			<path fill="#FFFFFF" d="M120,9.375c0.55,0,1,0.45,1,1v14c0,0.55-0.45,1-1,1h-16c-0.55,0-1-0.45-1-1v-14c0-0.55,0.45-1,1-1H120z"
				/>
			<path fill="none" stroke="#000000" stroke-width="2" stroke-linecap="round" stroke-linejoin="round" stroke-miterlimit="10" d="
				M120,9.375c0.55,0,1,0.45,1,1v14c0,0.55-0.45,1-1,1h-16c-0.55,0-1-0.45-1-1v-14c0-0.55,0.45-1,1-1H120z"/>
		</g>
		
			<line fill="none" stroke="#000000" stroke-width="2" stroke-linecap="round" stroke-linejoin="round" stroke-miterlimit="10" x1="106" y1="7.375" x2="106" y2="11.375"/>
		
			<line fill="none" stroke="#000000" stroke-width="2" stroke-linecap="round" stroke-linejoin="round" stroke-miterlimit="10" x1="110" y1="7.375" x2="110" y2="11.375"/>
		
			<line fill="none" stroke="#000000" stroke-width="2" stroke-linecap="round" stroke-linejoin="round" stroke-miterlimit="10" x1="114" y1="7.375" x2="114" y2="11.375"/>
		
			<line fill="none" stroke="#000000" stroke-width="2" stroke-linecap="round" stroke-linejoin="round" stroke-miterlimit="10" x1="118" y1="7.375" x2="118" y2="11.375"/>
		<path d="M113,15.375v2h-2v-2H113 M113,14.375h-2c-0.55,0-1,0.45-1,1v2c0,0.55,0.45,1,1,1h2c0.55,0,1-0.45,1-1v-2
			C114,14.825,113.55,14.375,113,14.375L113,14.375z"/>
		<path d="M118,15.375v2h-2v-2H118 M118,14.375h-2c-0.55,0-1,0.45-1,1v2c0,0.55,0.45,1,1,1h2c0.55,0,1-0.45,1-1v-2
			C119,14.825,118.55,14.375,118,14.375L118,14.375z"/>
		<path d="M108,20.375v2h-2v-2H108 M108,19.375h-2c-0.55,0-1,0.45-1,1v2c0,0.55,0.45,1,1,1h2c0.55,0,1-0.45,1-1v-2
			C109,19.825,108.55,19.375,108,19.375L108,19.375z"/>
		<path d="M113,20.375v2h-2v-2H113 M113,19.375h-2c-0.55,0-1,0.45-1,1v2c0,0.55,0.45,1,1,1h2c0.55,0,1-0.45,1-1v-2
			C114,19.825,113.55,19.375,113,19.375L113,19.375z"/>
		
			<line fill="none" stroke="#000000" stroke-linecap="round" stroke-linejoin="round" stroke-miterlimit="10" x1="105.5" y1="17.875" x2="108.5" y2="14.875"/>
		
			<line fill="none" stroke="#000000" stroke-linecap="round" stroke-linejoin="round" stroke-miterlimit="10" x1="108.5" y1="17.875" x2="105.5" y2="14.875"/>
		<g>
			<path fill="#FFFFFF" d="M152,9.5c0.55,0,1,0.45,1,1v14c0,0.55-0.45,1-1,1h-16c-0.55,0-1-0.45-1-1v-14c0-0.55,0.45-1,1-1H152z"/>
			<path fill="none" stroke="#000000" stroke-width="2" stroke-linecap="round" stroke-linejoin="round" stroke-miterlimit="10" d="
				M152,9.5c0.55,0,1,0.45,1,1v14c0,0.55-0.45,1-1,1h-16c-0.55,0-1-0.45-1-1v-14c0-0.55,0.45-1,1-1H152z"/>
		</g>
		
			<line fill="none" stroke="#000000" stroke-width="2" stroke-linecap="round" stroke-linejoin="round" stroke-miterlimit="10" x1="138" y1="7.5" x2="138" y2="11.5"/>
		
			<line fill="none" stroke="#000000" stroke-width="2" stroke-linecap="round" stroke-linejoin="round" stroke-miterlimit="10" x1="142" y1="7.5" x2="142" y2="11.5"/>
		
			<line fill="none" stroke="#000000" stroke-width="2" stroke-linecap="round" stroke-linejoin="round" stroke-miterlimit="10" x1="146" y1="7.5" x2="146" y2="11.5"/>
		
			<line fill="none" stroke="#000000" stroke-width="2" stroke-linecap="round" stroke-linejoin="round" stroke-miterlimit="10" x1="150" y1="7.5" x2="150" y2="11.5"/>
		<path d="M145,15.5v2h-2v-2H145 M145,14.5h-2c-0.55,0-1,0.45-1,1v2c0,0.55,0.45,1,1,1h2c0.55,0,1-0.45,1-1v-2
			C146,14.95,145.55,14.5,145,14.5L145,14.5z"/>
		<path d="M150,15.5v2h-2v-2H150 M150,14.5h-2c-0.55,0-1,0.45-1,1v2c0,0.55,0.45,1,1,1h2c0.55,0,1-0.45,1-1v-2
			C151,14.95,150.55,14.5,150,14.5L150,14.5z"/>
		<path d="M140,20.5v2h-2v-2H140 M140,19.5h-2c-0.55,0-1,0.45-1,1v2c0,0.55,0.45,1,1,1h2c0.55,0,1-0.45,1-1v-2
			C141,19.95,140.55,19.5,140,19.5L140,19.5z"/>
		<path d="M145,20.5v2h-2v-2H145 M145,19.5h-2c-0.55,0-1,0.45-1,1v2c0,0.55,0.45,1,1,1h2c0.55,0,1-0.45,1-1v-2
			C146,19.95,145.55,19.5,145,19.5L145,19.5z"/>
		
			<line fill="none" stroke="#000000" stroke-linecap="round" stroke-linejoin="round" stroke-miterlimit="10" x1="137.5" y1="18" x2="140.5" y2="15"/>
		
			<line fill="none" stroke="#000000" stroke-linecap="round" stroke-linejoin="round" stroke-miterlimit="10" x1="140.5" y1="18" x2="137.5" y2="15"/>
		<g>
			<path fill="#FFFFFF" d="M184,9.625c0.55,0,1,0.45,1,1v14c0,0.55-0.45,1-1,1h-16c-0.55,0-1-0.45-1-1v-14c0-0.55,0.45-1,1-1H184z"
				/>
			<path fill="none" stroke="#000000" stroke-width="2" stroke-linecap="round" stroke-linejoin="round" stroke-miterlimit="10" d="
				M184,9.625c0.55,0,1,0.45,1,1v14c0,0.55-0.45,1-1,1h-16c-0.55,0-1-0.45-1-1v-14c0-0.55,0.45-1,1-1H184z"/>
		</g>
		
			<line fill="none" stroke="#000000" stroke-width="2" stroke-linecap="round" stroke-linejoin="round" stroke-miterlimit="10" x1="170" y1="7.625" x2="170" y2="11.625"/>
		
			<line fill="none" stroke="#000000" stroke-width="2" stroke-linecap="round" stroke-linejoin="round" stroke-miterlimit="10" x1="174" y1="7.625" x2="174" y2="11.625"/>
		
			<line fill="none" stroke="#000000" stroke-width="2" stroke-linecap="round" stroke-linejoin="round" stroke-miterlimit="10" x1="178" y1="7.625" x2="178" y2="11.625"/>
		
			<line fill="none" stroke="#000000" stroke-width="2" stroke-linecap="round" stroke-linejoin="round" stroke-miterlimit="10" x1="182" y1="7.625" x2="182" y2="11.625"/>
		<path d="M177,15.625v2h-2v-2H177 M177,14.625h-2c-0.55,0-1,0.45-1,1v2c0,0.55,0.45,1,1,1h2c0.55,0,1-0.45,1-1v-2
			C178,15.075,177.55,14.625,177,14.625L177,14.625z"/>
		<path d="M182,15.625v2h-2v-2H182 M182,14.625h-2c-0.55,0-1,0.45-1,1v2c0,0.55,0.45,1,1,1h2c0.55,0,1-0.45,1-1v-2
			C183,15.075,182.55,14.625,182,14.625L182,14.625z"/>
		<path d="M172,20.625v2h-2v-2H172 M172,19.625h-2c-0.55,0-1,0.45-1,1v2c0,0.55,0.45,1,1,1h2c0.55,0,1-0.45,1-1v-2
			C173,20.075,172.55,19.625,172,19.625L172,19.625z"/>
		<path d="M177,20.625v2h-2v-2H177 M177,19.625h-2c-0.55,0-1,0.45-1,1v2c0,0.55,0.45,1,1,1h2c0.55,0,1-0.45,1-1v-2
			C178,20.075,177.55,19.625,177,19.625L177,19.625z"/>
		
			<line fill="none" stroke="#000000" stroke-linecap="round" stroke-linejoin="round" stroke-miterlimit="10" x1="169.5" y1="18.125" x2="172.5" y2="15.125"/>
		
			<line fill="none" stroke="#000000" stroke-linecap="round" stroke-linejoin="round" stroke-miterlimit="10" x1="172.5" y1="18.125" x2="169.5" y2="15.125"/>
		<g>
			<path fill="#FFFFFF" d="M216,9.75c0.55,0,1,0.45,1,1v14c0,0.55-0.45,1-1,1h-16c-0.55,0-1-0.45-1-1v-14c0-0.55,0.45-1,1-1H216z"/>
			<path fill="none" stroke="#000000" stroke-width="2" stroke-linecap="round" stroke-linejoin="round" stroke-miterlimit="10" d="
				M216,9.75c0.55,0,1,0.45,1,1v14c0,0.55-0.45,1-1,1h-16c-0.55,0-1-0.45-1-1v-14c0-0.55,0.45-1,1-1H216z"/>
		</g>
		
			<line fill="none" stroke="#000000" stroke-width="2" stroke-linecap="round" stroke-linejoin="round" stroke-miterlimit="10" x1="202" y1="7.75" x2="202" y2="11.75"/>
		
			<line fill="none" stroke="#000000" stroke-width="2" stroke-linecap="round" stroke-linejoin="round" stroke-miterlimit="10" x1="206" y1="7.75" x2="206" y2="11.75"/>
		
			<line fill="none" stroke="#000000" stroke-width="2" stroke-linecap="round" stroke-linejoin="round" stroke-miterlimit="10" x1="210" y1="7.75" x2="210" y2="11.75"/>
		
			<line fill="none" stroke="#000000" stroke-width="2" stroke-linecap="round" stroke-linejoin="round" stroke-miterlimit="10" x1="214" y1="7.75" x2="214" y2="11.75"/>
		<path d="M209,15.75v2h-2v-2H209 M209,14.75h-2c-0.55,0-1,0.45-1,1v2c0,0.55,0.45,1,1,1h2c0.55,0,1-0.45,1-1v-2
			C210,15.2,209.55,14.75,209,14.75L209,14.75z"/>
		<path d="M214,15.75v2h-2v-2H214 M214,14.75h-2c-0.55,0-1,0.45-1,1v2c0,0.55,0.45,1,1,1h2c0.55,0,1-0.45,1-1v-2
			C215,15.2,214.55,14.75,214,14.75L214,14.75z"/>
		<path d="M204,20.75v2h-2v-2H204 M204,19.75h-2c-0.55,0-1,0.45-1,1v2c0,0.55,0.45,1,1,1h2c0.55,0,1-0.45,1-1v-2
			C205,20.2,204.55,19.75,204,19.75L204,19.75z"/>
		<path d="M209,20.75v2h-2v-2H209 M209,19.75h-2c-0.55,0-1,0.45-1,1v2c0,0.55,0.45,1,1,1h2c0.55,0,1-0.45,1-1v-2
			C210,20.2,209.55,19.75,209,19.75L209,19.75z"/>
		
			<line fill="none" stroke="#000000" stroke-linecap="round" stroke-linejoin="round" stroke-miterlimit="10" x1="201.5" y1="18.25" x2="204.5" y2="15.25"/>
		
			<line fill="none" stroke="#000000" stroke-linecap="round" stroke-linejoin="round" stroke-miterlimit="10" x1="204.5" y1="18.25" x2="201.5" y2="15.25"/>
		<g>
			<path fill="#FFFFFF" d="M248,9.875c0.55,0,1,0.45,1,1v14c0,0.55-0.45,1-1,1h-16c-0.55,0-1-0.45-1-1v-14c0-0.55,0.45-1,1-1H248z"
				/>
			<path fill="none" stroke="#000000" stroke-width="2" stroke-linecap="round" stroke-linejoin="round" stroke-miterlimit="10" d="
				M248,9.875c0.55,0,1,0.45,1,1v14c0,0.55-0.45,1-1,1h-16c-0.55,0-1-0.45-1-1v-14c0-0.55,0.45-1,1-1H248z"/>
		</g>
		
			<line fill="none" stroke="#000000" stroke-width="2" stroke-linecap="round" stroke-linejoin="round" stroke-miterlimit="10" x1="234" y1="7.875" x2="234" y2="11.875"/>
		
			<line fill="none" stroke="#000000" stroke-width="2" stroke-linecap="round" stroke-linejoin="round" stroke-miterlimit="10" x1="238" y1="7.875" x2="238" y2="11.875"/>
		
			<line fill="none" stroke="#000000" stroke-width="2" stroke-linecap="round" stroke-linejoin="round" stroke-miterlimit="10" x1="242" y1="7.875" x2="242" y2="11.875"/>
		
			<line fill="none" stroke="#000000" stroke-width="2" stroke-linecap="round" stroke-linejoin="round" stroke-miterlimit="10" x1="246" y1="7.875" x2="246" y2="11.875"/>
		<path d="M241,15.875v2h-2v-2H241 M241,14.875h-2c-0.55,0-1,0.45-1,1v2c0,0.55,0.45,1,1,1h2c0.55,0,1-0.45,1-1v-2
			C242,15.325,241.55,14.875,241,14.875L241,14.875z"/>
		<path d="M246,15.875v2h-2v-2H246 M246,14.875h-2c-0.55,0-1,0.45-1,1v2c0,0.55,0.45,1,1,1h2c0.55,0,1-0.45,1-1v-2
			C247,15.325,246.55,14.875,246,14.875L246,14.875z"/>
		<path d="M236,20.875v2h-2v-2H236 M236,19.875h-2c-0.55,0-1,0.45-1,1v2c0,0.55,0.45,1,1,1h2c0.55,0,1-0.45,1-1v-2
			C237,20.325,236.55,19.875,236,19.875L236,19.875z"/>
		<path d="M241,20.875v2h-2v-2H241 M241,19.875h-2c-0.55,0-1,0.45-1,1v2c0,0.55,0.45,1,1,1h2c0.55,0,1-0.45,1-1v-2
			C242,20.325,241.55,19.875,241,19.875L241,19.875z"/>
		
			<line fill="none" stroke="#000000" stroke-linecap="round" stroke-linejoin="round" stroke-miterlimit="10" x1="233.5" y1="18.375" x2="236.5" y2="15.375"/>
		
			<line fill="none" stroke="#000000" stroke-linecap="round" stroke-linejoin="round" stroke-miterlimit="10" x1="236.5" y1="18.375" x2="233.5" y2="15.375"/>
		<g>
			<path fill="#FFFFFF" d="M280,10c0.55,0,1,0.45,1,1v14c0,0.55-0.45,1-1,1h-16c-0.55,0-1-0.45-1-1V11c0-0.55,0.45-1,1-1H280z"/>
			<path fill="none" stroke="#000000" stroke-width="2" stroke-linecap="round" stroke-linejoin="round" stroke-miterlimit="10" d="
				M280,10c0.55,0,1,0.45,1,1v14c0,0.55-0.45,1-1,1h-16c-0.55,0-1-0.45-1-1V11c0-0.55,0.45-1,1-1H280z"/>
		</g>
		
			<line fill="none" stroke="#000000" stroke-width="2" stroke-linecap="round" stroke-linejoin="round" stroke-miterlimit="10" x1="266" y1="8" x2="266" y2="12"/>
		
			<line fill="none" stroke="#000000" stroke-width="2" stroke-linecap="round" stroke-linejoin="round" stroke-miterlimit="10" x1="270" y1="8" x2="270" y2="12"/>
		
			<line fill="none" stroke="#000000" stroke-width="2" stroke-linecap="round" stroke-linejoin="round" stroke-miterlimit="10" x1="274" y1="8" x2="274" y2="12"/>
		
			<line fill="none" stroke="#000000" stroke-width="2" stroke-linecap="round" stroke-linejoin="round" stroke-miterlimit="10" x1="278" y1="8" x2="278" y2="12"/>
		<path d="M273,16v2h-2v-2H273 M273,15h-2c-0.55,0-1,0.45-1,1v2c0,0.55,0.45,1,1,1h2c0.55,0,1-0.45,1-1v-2
			C274,15.45,273.55,15,273,15L273,15z"/>
		<path d="M278,16v2h-2v-2H278 M278,15h-2c-0.55,0-1,0.45-1,1v2c0,0.55,0.45,1,1,1h2c0.55,0,1-0.45,1-1v-2
			C279,15.45,278.55,15,278,15L278,15z"/>
		<path d="M268,21v2h-2v-2H268 M268,20h-2c-0.55,0-1,0.45-1,1v2c0,0.55,0.45,1,1,1h2c0.55,0,1-0.45,1-1v-2
			C269,20.45,268.55,20,268,20L268,20z"/>
		<path d="M273,21v2h-2v-2H273 M273,20h-2c-0.55,0-1,0.45-1,1v2c0,0.55,0.45,1,1,1h2c0.55,0,1-0.45,1-1v-2
			C274,20.45,273.55,20,273,20L273,20z"/>
		
			<line fill="none" stroke="#000000" stroke-linecap="round" stroke-linejoin="round" stroke-miterlimit="10" x1="265.5" y1="18.5" x2="268.5" y2="15.5"/>
		
			<line fill="none" stroke="#000000" stroke-linecap="round" stroke-linejoin="round" stroke-miterlimit="10" x1="268.5" y1="18.5" x2="265.5" y2="15.5"/>
		<g>
			<path fill="#FFFFFF" d="M312,10.125c0.55,0,1,0.45,1,1v14c0,0.55-0.45,1-1,1h-16c-0.55,0-1-0.45-1-1v-14c0-0.55,0.45-1,1-1H312z"
				/>
			<path fill="none" stroke="#000000" stroke-width="2" stroke-linecap="round" stroke-linejoin="round" stroke-miterlimit="10" d="
				M312,10.125c0.55,0,1,0.45,1,1v14c0,0.55-0.45,1-1,1h-16c-0.55,0-1-0.45-1-1v-14c0-0.55,0.45-1,1-1H312z"/>
		</g>
		
			<line fill="none" stroke="#000000" stroke-width="2" stroke-linecap="round" stroke-linejoin="round" stroke-miterlimit="10" x1="298" y1="8.125" x2="298" y2="12.125"/>
		
			<line fill="none" stroke="#000000" stroke-width="2" stroke-linecap="round" stroke-linejoin="round" stroke-miterlimit="10" x1="302" y1="8.125" x2="302" y2="12.125"/>
		
			<line fill="none" stroke="#000000" stroke-width="2" stroke-linecap="round" stroke-linejoin="round" stroke-miterlimit="10" x1="306" y1="8.125" x2="306" y2="12.125"/>
		
			<line fill="none" stroke="#000000" stroke-width="2" stroke-linecap="round" stroke-linejoin="round" stroke-miterlimit="10" x1="310" y1="8.125" x2="310" y2="12.125"/>
		<path d="M305,16.125v2h-2v-2H305 M305,15.125h-2c-0.55,0-1,0.45-1,1v2c0,0.55,0.45,1,1,1h2c0.55,0,1-0.45,1-1v-2
			C306,15.575,305.55,15.125,305,15.125L305,15.125z"/>
		<path d="M310,16.125v2h-2v-2H310 M310,15.125h-2c-0.55,0-1,0.45-1,1v2c0,0.55,0.45,1,1,1h2c0.55,0,1-0.45,1-1v-2
			C311,15.575,310.55,15.125,310,15.125L310,15.125z"/>
		<path d="M300,21.125v2h-2v-2H300 M300,20.125h-2c-0.55,0-1,0.45-1,1v2c0,0.55,0.45,1,1,1h2c0.55,0,1-0.45,1-1v-2
			C301,20.575,300.55,20.125,300,20.125L300,20.125z"/>
		<path d="M305,21.125v2h-2v-2H305 M305,20.125h-2c-0.55,0-1,0.45-1,1v2c0,0.55,0.45,1,1,1h2c0.55,0,1-0.45,1-1v-2
			C306,20.575,305.55,20.125,305,20.125L305,20.125z"/>
		
			<line fill="none" stroke="#000000" stroke-linecap="round" stroke-linejoin="round" stroke-miterlimit="10" x1="297.5" y1="18.625" x2="300.5" y2="15.625"/>
		
			<line fill="none" stroke="#000000" stroke-linecap="round" stroke-linejoin="round" stroke-miterlimit="10" x1="300.5" y1="18.625" x2="297.5" y2="15.625"/>
		<g>
			<path fill="#FFFFFF" d="M344,10.25c0.55,0,1,0.45,1,1v14c0,0.55-0.45,1-1,1h-16c-0.55,0-1-0.45-1-1v-14c0-0.55,0.45-1,1-1H344z"
				/>
			<path fill="none" stroke="#000000" stroke-width="2" stroke-linecap="round" stroke-linejoin="round" stroke-miterlimit="10" d="
				M344,10.25c0.55,0,1,0.45,1,1v14c0,0.55-0.45,1-1,1h-16c-0.55,0-1-0.45-1-1v-14c0-0.55,0.45-1,1-1H344z"/>
		</g>
		
			<line fill="none" stroke="#000000" stroke-width="2" stroke-linecap="round" stroke-linejoin="round" stroke-miterlimit="10" x1="330" y1="8.25" x2="330" y2="12.25"/>
		
			<line fill="none" stroke="#000000" stroke-width="2" stroke-linecap="round" stroke-linejoin="round" stroke-miterlimit="10" x1="334" y1="8.25" x2="334" y2="12.25"/>
		
			<line fill="none" stroke="#000000" stroke-width="2" stroke-linecap="round" stroke-linejoin="round" stroke-miterlimit="10" x1="338" y1="8.25" x2="338" y2="12.25"/>
		
			<line fill="none" stroke="#000000" stroke-width="2" stroke-linecap="round" stroke-linejoin="round" stroke-miterlimit="10" x1="342" y1="8.25" x2="342" y2="12.25"/>
		<path d="M337,16.25v2h-2v-2H337 M337,15.25h-2c-0.55,0-1,0.45-1,1v2c0,0.55,0.45,1,1,1h2c0.55,0,1-0.45,1-1v-2
			C338,15.7,337.55,15.25,337,15.25L337,15.25z"/>
		<path d="M342,16.25v2h-2v-2H342 M342,15.25h-2c-0.55,0-1,0.45-1,1v2c0,0.55,0.45,1,1,1h2c0.55,0,1-0.45,1-1v-2
			C343,15.7,342.55,15.25,342,15.25L342,15.25z"/>
		<path d="M332,21.25v2h-2v-2H332 M332,20.25h-2c-0.55,0-1,0.45-1,1v2c0,0.55,0.45,1,1,1h2c0.55,0,1-0.45,1-1v-2
			C333,20.7,332.55,20.25,332,20.25L332,20.25z"/>
		<path d="M337,21.25v2h-2v-2H337 M337,20.25h-2c-0.55,0-1,0.45-1,1v2c0,0.55,0.45,1,1,1h2c0.55,0,1-0.45,1-1v-2
			C338,20.7,337.55,20.25,337,20.25L337,20.25z"/>
		
			<line fill="none" stroke="#000000" stroke-linecap="round" stroke-linejoin="round" stroke-miterlimit="10" x1="329.5" y1="18.75" x2="332.5" y2="15.75"/>
		
			<line fill="none" stroke="#000000" stroke-linecap="round" stroke-linejoin="round" stroke-miterlimit="10" x1="332.5" y1="18.75" x2="329.5" y2="15.75"/>
		<g>
			<path fill="#FFFFFF" d="M376,10.375c0.55,0,1,0.45,1,1v14c0,0.55-0.45,1-1,1h-16c-0.55,0-1-0.45-1-1v-14c0-0.55,0.45-1,1-1H376z"
				/>
			<path fill="none" stroke="#000000" stroke-width="2" stroke-linecap="round" stroke-linejoin="round" stroke-miterlimit="10" d="
				M376,10.375c0.55,0,1,0.45,1,1v14c0,0.55-0.45,1-1,1h-16c-0.55,0-1-0.45-1-1v-14c0-0.55,0.45-1,1-1H376z"/>
		</g>
		
			<line fill="none" stroke="#000000" stroke-width="2" stroke-linecap="round" stroke-linejoin="round" stroke-miterlimit="10" x1="362" y1="8.375" x2="362" y2="12.375"/>
		
			<line fill="none" stroke="#000000" stroke-width="2" stroke-linecap="round" stroke-linejoin="round" stroke-miterlimit="10" x1="366" y1="8.375" x2="366" y2="12.375"/>
		
			<line fill="none" stroke="#000000" stroke-width="2" stroke-linecap="round" stroke-linejoin="round" stroke-miterlimit="10" x1="370" y1="8.375" x2="370" y2="12.375"/>
		
			<line fill="none" stroke="#000000" stroke-width="2" stroke-linecap="round" stroke-linejoin="round" stroke-miterlimit="10" x1="374" y1="8.375" x2="374" y2="12.375"/>
		<path d="M369,16.375v2h-2v-2H369 M369,15.375h-2c-0.55,0-1,0.45-1,1v2c0,0.55,0.45,1,1,1h2c0.55,0,1-0.45,1-1v-2
			C370,15.825,369.55,15.375,369,15.375L369,15.375z"/>
		<path d="M374,16.375v2h-2v-2H374 M374,15.375h-2c-0.55,0-1,0.45-1,1v2c0,0.55,0.45,1,1,1h2c0.55,0,1-0.45,1-1v-2
			C375,15.825,374.55,15.375,374,15.375L374,15.375z"/>
		<path d="M364,21.375v2h-2v-2H364 M364,20.375h-2c-0.55,0-1,0.45-1,1v2c0,0.55,0.45,1,1,1h2c0.55,0,1-0.45,1-1v-2
			C365,20.825,364.55,20.375,364,20.375L364,20.375z"/>
		<path d="M369,21.375v2h-2v-2H369 M369,20.375h-2c-0.55,0-1,0.45-1,1v2c0,0.55,0.45,1,1,1h2c0.55,0,1-0.45,1-1v-2
			C370,20.825,369.55,20.375,369,20.375L369,20.375z"/>
		
			<line fill="none" stroke="#000000" stroke-linecap="round" stroke-linejoin="round" stroke-miterlimit="10" x1="361.5" y1="18.875" x2="364.5" y2="15.875"/>
		
			<line fill="none" stroke="#000000" stroke-linecap="round" stroke-linejoin="round" stroke-miterlimit="10" x1="364.5" y1="18.875" x2="361.5" y2="15.875"/>
		<g>
			<path fill="#FFFFFF" d="M408,10.5c0.55,0,1,0.45,1,1v14c0,0.55-0.45,1-1,1h-16c-0.55,0-1-0.45-1-1v-14c0-0.55,0.45-1,1-1H408z"/>
			<path fill="none" stroke="#000000" stroke-width="2" stroke-linecap="round" stroke-linejoin="round" stroke-miterlimit="10" d="
				M408,10.5c0.55,0,1,0.45,1,1v14c0,0.55-0.45,1-1,1h-16c-0.55,0-1-0.45-1-1v-14c0-0.55,0.45-1,1-1H408z"/>
		</g>
		
			<line fill="none" stroke="#000000" stroke-width="2" stroke-linecap="round" stroke-linejoin="round" stroke-miterlimit="10" x1="394" y1="8.5" x2="394" y2="12.5"/>
		
			<line fill="none" stroke="#000000" stroke-width="2" stroke-linecap="round" stroke-linejoin="round" stroke-miterlimit="10" x1="398" y1="8.5" x2="398" y2="12.5"/>
		
			<line fill="none" stroke="#000000" stroke-width="2" stroke-linecap="round" stroke-linejoin="round" stroke-miterlimit="10" x1="402" y1="8.5" x2="402" y2="12.5"/>
		
			<line fill="none" stroke="#000000" stroke-width="2" stroke-linecap="round" stroke-linejoin="round" stroke-miterlimit="10" x1="406" y1="8.5" x2="406" y2="12.5"/>
		<path d="M401,16.5v2h-2v-2H401 M401,15.5h-2c-0.55,0-1,0.45-1,1v2c0,0.55,0.45,1,1,1h2c0.55,0,1-0.45,1-1v-2
			C402,15.95,401.55,15.5,401,15.5L401,15.5z"/>
		<path d="M406,16.5v2h-2v-2H406 M406,15.5h-2c-0.55,0-1,0.45-1,1v2c0,0.55,0.45,1,1,1h2c0.55,0,1-0.45,1-1v-2
			C407,15.95,406.55,15.5,406,15.5L406,15.5z"/>
		<path d="M396,21.5v2h-2v-2H396 M396,20.5h-2c-0.55,0-1,0.45-1,1v2c0,0.55,0.45,1,1,1h2c0.55,0,1-0.45,1-1v-2
			C397,20.95,396.55,20.5,396,20.5L396,20.5z"/>
		<path d="M401,21.5v2h-2v-2H401 M401,20.5h-2c-0.55,0-1,0.45-1,1v2c0,0.55,0.45,1,1,1h2c0.55,0,1-0.45,1-1v-2
			C402,20.95,401.55,20.5,401,20.5L401,20.5z"/>
		
			<line fill="none" stroke="#000000" stroke-linecap="round" stroke-linejoin="round" stroke-miterlimit="10" x1="393.5" y1="19" x2="396.5" y2="16"/>
		
			<line fill="none" stroke="#000000" stroke-linecap="round" stroke-linejoin="round" stroke-miterlimit="10" x1="396.5" y1="19" x2="393.5" y2="16"/>
		<g>
			<path fill="#FFFFFF" d="M440,10.625c0.55,0,1,0.45,1,1v14c0,0.55-0.45,1-1,1h-16c-0.55,0-1-0.45-1-1v-14c0-0.55,0.45-1,1-1H440z"
				/>
			<path fill="none" stroke="#000000" stroke-width="2" stroke-linecap="round" stroke-linejoin="round" stroke-miterlimit="10" d="
				M440,10.625c0.55,0,1,0.45,1,1v14c0,0.55-0.45,1-1,1h-16c-0.55,0-1-0.45-1-1v-14c0-0.55,0.45-1,1-1H440z"/>
		</g>
		
			<line fill="none" stroke="#000000" stroke-width="2" stroke-linecap="round" stroke-linejoin="round" stroke-miterlimit="10" x1="426" y1="8.625" x2="426" y2="12.625"/>
		
			<line fill="none" stroke="#000000" stroke-width="2" stroke-linecap="round" stroke-linejoin="round" stroke-miterlimit="10" x1="430" y1="8.625" x2="430" y2="12.625"/>
		
			<line fill="none" stroke="#000000" stroke-width="2" stroke-linecap="round" stroke-linejoin="round" stroke-miterlimit="10" x1="434" y1="8.625" x2="434" y2="12.625"/>
		
			<line fill="none" stroke="#000000" stroke-width="2" stroke-linecap="round" stroke-linejoin="round" stroke-miterlimit="10" x1="438" y1="8.625" x2="438" y2="12.625"/>
		<path d="M433,16.625v2h-2v-2H433 M433,15.625h-2c-0.55,0-1,0.45-1,1v2c0,0.55,0.45,1,1,1h2c0.55,0,1-0.45,1-1v-2
			C434,16.075,433.55,15.625,433,15.625L433,15.625z"/>
		<path d="M438,16.625v2h-2v-2H438 M438,15.625h-2c-0.55,0-1,0.45-1,1v2c0,0.55,0.45,1,1,1h2c0.55,0,1-0.45,1-1v-2
			C439,16.075,438.55,15.625,438,15.625L438,15.625z"/>
		<path d="M428,21.625v2h-2v-2H428 M428,20.625h-2c-0.55,0-1,0.45-1,1v2c0,0.55,0.45,1,1,1h2c0.55,0,1-0.45,1-1v-2
			C429,21.075,428.55,20.625,428,20.625L428,20.625z"/>
		<path d="M433,21.625v2h-2v-2H433 M433,20.625h-2c-0.55,0-1,0.45-1,1v2c0,0.55,0.45,1,1,1h2c0.55,0,1-0.45,1-1v-2
			C434,21.075,433.55,20.625,433,20.625L433,20.625z"/>
		
			<line fill="none" stroke="#000000" stroke-linecap="round" stroke-linejoin="round" stroke-miterlimit="10" x1="425.5" y1="19.125" x2="428.5" y2="16.125"/>
		
			<line fill="none" stroke="#000000" stroke-linecap="round" stroke-linejoin="round" stroke-miterlimit="10" x1="428.5" y1="19.125" x2="425.5" y2="16.125"/>
		<g>
			<path fill="#FFFFFF" d="M472,10.75c0.55,0,1,0.45,1,1v14c0,0.55-0.45,1-1,1h-16c-0.55,0-1-0.45-1-1v-14c0-0.55,0.45-1,1-1H472z"
				/>
			<path fill="none" stroke="#000000" stroke-width="2" stroke-linecap="round" stroke-linejoin="round" stroke-miterlimit="10" d="
				M472,10.75c0.55,0,1,0.45,1,1v14c0,0.55-0.45,1-1,1h-16c-0.55,0-1-0.45-1-1v-14c0-0.55,0.45-1,1-1H472z"/>
		</g>
		
			<line fill="none" stroke="#000000" stroke-width="2" stroke-linecap="round" stroke-linejoin="round" stroke-miterlimit="10" x1="458" y1="8.75" x2="458" y2="12.75"/>
		
			<line fill="none" stroke="#000000" stroke-width="2" stroke-linecap="round" stroke-linejoin="round" stroke-miterlimit="10" x1="462" y1="8.75" x2="462" y2="12.75"/>
		
			<line fill="none" stroke="#000000" stroke-width="2" stroke-linecap="round" stroke-linejoin="round" stroke-miterlimit="10" x1="466" y1="8.75" x2="466" y2="12.75"/>
		
			<line fill="none" stroke="#000000" stroke-width="2" stroke-linecap="round" stroke-linejoin="round" stroke-miterlimit="10" x1="470" y1="8.75" x2="470" y2="12.75"/>
		<path d="M465,16.75v2h-2v-2H465 M465,15.75h-2c-0.55,0-1,0.45-1,1v2c0,0.55,0.45,1,1,1h2c0.55,0,1-0.45,1-1v-2
			C466,16.2,465.55,15.75,465,15.75L465,15.75z"/>
		<path d="M470,16.75v2h-2v-2H470 M470,15.75h-2c-0.55,0-1,0.45-1,1v2c0,0.55,0.45,1,1,1h2c0.55,0,1-0.45,1-1v-2
			C471,16.2,470.55,15.75,470,15.75L470,15.75z"/>
		<path d="M460,21.75v2h-2v-2H460 M460,20.75h-2c-0.55,0-1,0.45-1,1v2c0,0.55,0.45,1,1,1h2c0.55,0,1-0.45,1-1v-2
			C461,21.2,460.55,20.75,460,20.75L460,20.75z"/>
		<path d="M465,21.75v2h-2v-2H465 M465,20.75h-2c-0.55,0-1,0.45-1,1v2c0,0.55,0.45,1,1,1h2c0.55,0,1-0.45,1-1v-2
			C466,21.2,465.55,20.75,465,20.75L465,20.75z"/>
		
			<line fill="none" stroke="#000000" stroke-linecap="round" stroke-linejoin="round" stroke-miterlimit="10" x1="457.5" y1="19.25" x2="460.5" y2="16.25"/>
		
			<line fill="none" stroke="#000000" stroke-linecap="round" stroke-linejoin="round" stroke-miterlimit="10" x1="460.5" y1="19.25" x2="457.5" y2="16.25"/>
		<path d="M497,17v2h-2v-2H497 M497,16h-2c-0.55,0-1,0.45-1,1v2c0,0.55,0.45,1,1,1h2c0.55,0,1-0.45,1-1v-2
			C498,16.45,497.55,16,497,16L497,16z"/>
		<path d="M492,22v2h-2v-2H492 M492,21h-2c-0.55,0-1,0.45-1,1v2c0,0.55,0.45,1,1,1h2c0.55,0,1-0.45,1-1v-2
			C493,21.45,492.55,21,492,21L492,21z"/>
		
			<line fill="none" stroke="#000000" stroke-linecap="round" stroke-linejoin="round" stroke-miterlimit="10" x1="489.5" y1="19.5" x2="492.5" y2="16.5"/>
		
			<line fill="none" stroke="#000000" stroke-linecap="round" stroke-linejoin="round" stroke-miterlimit="10" x1="492.5" y1="19.5" x2="489.5" y2="16.5"/>
		
			<line fill="none" stroke="#000000" stroke-width="2" stroke-linecap="round" stroke-linejoin="round" stroke-miterlimit="10" x1="490" y1="9" x2="490" y2="13"/>
		
			<line fill="none" stroke="#000000" stroke-width="2" stroke-linecap="round" stroke-linejoin="round" stroke-miterlimit="10" x1="494" y1="9" x2="494" y2="13"/>
		
			<line fill="none" stroke="#000000" stroke-width="2" stroke-linecap="round" stroke-linejoin="round" stroke-miterlimit="10" x1="498" y1="9" x2="498" y2="13"/>
		
			<line fill="none" stroke="#000000" stroke-width="2" stroke-linecap="round" stroke-linejoin="round" stroke-miterlimit="10" x1="502" y1="9" x2="502" y2="13"/>
		<path d="M502,17v2h-2v-2H502 M502,16h-2c-0.55,0-1,0.45-1,1v2c0,0.55,0.45,1,1,1h2c0.55,0,1-0.45,1-1v-2
			C503,16.45,502.55,16,502,16L502,16z"/>
		<path d="M497,22v2h-2v-2H497 M497,21h-2c-0.55,0-1,0.45-1,1v2c0,0.55,0.45,1,1,1h2c0.55,0,1-0.45,1-1v-2
			C498,21.45,497.55,21,497,21L497,21z"/>
		<g>
			<path fill="#FFFFFF" d="M505,11c0,0,0.773,5.405-3.405,5.405c-5.677,0-7.488-8.428-7.488-8.428C493.99,7.44,493.445,7,492.896,7
				h-11c-0.551,0-0.905,0.44-0.79,0.978c0,0,1.812,8.428,7.488,8.428H499"/>
			<path fill="none" stroke="#000000" stroke-linecap="round" stroke-linejoin="round" stroke-miterlimit="10" d="M505,11
				c0,0,0.773,5.405-3.405,5.405c-5.677,0-7.488-8.428-7.488-8.428C493.99,7.44,493.445,7,492.896,7h-11
				c-0.551,0-0.905,0.44-0.79,0.978c0,0,1.812,8.428,7.488,8.428H499"/>
		</g>
	</g>
</g>
<g id="Layer_4">
</g>
</svg>
