<?xml version="1.0" encoding="iso-8859-1"?>
<!-- Generator: Adobe Illustrator 16.2.1, SVG Export Plug-In . SVG Version: 6.00 Build 0)  -->
<!DOCTYPE svg PUBLIC "-//W3C//DTD SVG 1.1 Tiny//EN" "http://www.w3.org/Graphics/SVG/1.1/DTD/svg11-tiny.dtd">
<svg version="1.1" baseProfile="tiny" xmlns="http://www.w3.org/2000/svg" xmlns:xlink="http://www.w3.org/1999/xlink" x="0px"
	 y="0px" width="512px" height="32px" viewBox="0 0 512 32" xml:space="preserve">
<g id="Layer_2_copy">
</g>
<g id="Layer_2">
</g>
<g id="Layer_1">
	<path d="M25.658,14.628c-3.39-2.854-9.546-8.171-9.607-8.225L15.396,5.84l-0.652,0.563c-0.062,0.053-6.221,5.368-9.66,8.248
		c-0.438,0.394-0.688,0.944-0.688,1.509c0,1.104,0.896,2,2,2h1v7c0,1.104,0.896,2,2,2h3h9c1.104,0,2-0.896,2-2v-7h1
		c1.104,0,2-0.896,2-2C26.396,15.562,26.121,14.999,25.658,14.628z M17.396,25.16h-4v-6h4V25.16z M21.396,16.16l0.002,9
		c-0.002,0-3.002,0-3.002,0v-7h-6v7h-3v-9H6.395c2.765-2.312,7.315-6.227,9.001-7.68c1.686,1.453,6.234,5.367,9,7.681
		C24.396,16.161,21.396,16.161,21.396,16.16z"/>
</g>
<g id="Layer_4">
</g>
</svg>
