<?xml version="1.0" encoding="iso-8859-1"?>
<!-- Generator: Adobe Illustrator 16.2.1, SVG Export Plug-In . SVG Version: 6.00 Build 0)  -->
<!DOCTYPE svg PUBLIC "-//W3C//DTD SVG 1.1 Tiny//EN" "http://www.w3.org/Graphics/SVG/1.1/DTD/svg11-tiny.dtd">
<svg version="1.1" baseProfile="tiny" xmlns="http://www.w3.org/2000/svg" xmlns:xlink="http://www.w3.org/1999/xlink" x="0px"
	 y="0px" width="512px" height="32px" viewBox="0 0 512 32" xml:space="preserve">
<g id="Layer_2_copy">
</g>
<g id="Layer_2">
</g>
<g id="Layer_1">
	<path d="M24.986,21c0-0.105-0.004-0.211-0.038-0.316l-2-6C22.812,14.275,22.432,14,22,14h-1.561l0.682-0.678
		c1.17-1.17,1.17-3.072,0-4.242C20.311,8.268,19.053,8.002,18,8.371V6c0-1.654-1.346-3-3-3s-3,1.346-3,3v2.371
		C10.948,8.002,9.689,8.268,8.879,9.08c-1.17,1.17-1.17,3.072,0.002,4.244L9.561,14H8c-0.432,0-0.812,0.275-0.948,0.684l-2,6
		C5.018,20.789,5.014,20.895,5.014,21C5,21,5,27,5,27c0,0.553,0.447,1,1,1h18c0.553,0,1-0.447,1-1C25,27,25,21,24.986,21z
		 M10.293,10.494c0.189-0.188,0.439-0.293,0.707-0.293s0.518,0.104,0.707,0.293L14,12.787V6c0-0.552,0.448-1,1-1s1,0.448,1,1v6.787
		l2.293-2.293c0.379-0.377,1.035-0.377,1.414,0c0.391,0.39,0.391,1.023,0.002,1.412L15,16.59l-4.707-4.682
		C9.902,11.52,9.902,10.884,10.293,10.494z M8.721,16h2.852l3.429,3.41L18.43,16h2.852l1.667,5H7.055L8.721,16z M23,26H7v-4h16V26z"
		/>
	<path d="M56.986,21c0-0.105-0.004-0.211-0.038-0.316l-2-6C54.812,14.275,54.432,14,54,14h-1.561l0.682-0.678
		c1.17-1.17,1.17-3.072,0-4.242C52.311,8.268,51.053,8.002,50,8.371V6c0-1.654-1.346-3-3-3s-3,1.346-3,3v2.371
		c-1.052-0.369-2.311-0.104-3.121,0.709c-1.17,1.17-1.17,3.072,0.002,4.244L41.561,14H40c-0.432,0-0.812,0.275-0.948,0.684l-2,6
		c-0.034,0.105-0.038,0.211-0.038,0.316C37,21,37,27,37,27c0,0.553,0.447,1,1,1h18c0.553,0,1-0.447,1-1C57,27,57,21,56.986,21z
		 M42.293,10.494c0.189-0.188,0.439-0.293,0.707-0.293s0.518,0.104,0.707,0.293L46,12.787V6c0-0.552,0.448-1,1-1s1,0.448,1,1v6.787
		l2.293-2.293c0.379-0.377,1.035-0.377,1.414,0c0.391,0.39,0.391,1.023,0.002,1.412L47,16.59l-4.707-4.682
		C41.902,11.52,41.902,10.884,42.293,10.494z M40.721,16h2.852l3.429,3.41L50.43,16h2.852l1.667,5H39.055L40.721,16z M55,26H39v-4
		h16V26z"/>
	<path d="M88.986,21c0-0.105-0.004-0.211-0.038-0.316l-2-6C86.812,14.275,86.432,14,86,14h-1.561l0.682-0.678
		c1.17-1.17,1.17-3.072,0-4.242C84.311,8.268,83.053,8.002,82,8.371V6c0-1.654-1.346-3-3-3s-3,1.346-3,3v2.371
		c-1.052-0.369-2.311-0.104-3.121,0.709c-1.17,1.17-1.17,3.072,0.002,4.244L73.561,14H72c-0.432,0-0.812,0.275-0.948,0.684l-2,6
		c-0.034,0.105-0.038,0.211-0.038,0.316C69,21,69,27,69,27c0,0.553,0.447,1,1,1h18c0.553,0,1-0.447,1-1C89,27,89,21,88.986,21z
		 M74.293,10.494c0.189-0.188,0.439-0.293,0.707-0.293s0.518,0.104,0.707,0.293L78,12.787V6c0-0.552,0.448-1,1-1s1,0.448,1,1v6.787
		l2.293-2.293c0.379-0.377,1.035-0.377,1.414,0c0.391,0.39,0.391,1.023,0.002,1.412L79,16.59l-4.707-4.682
		C73.902,11.52,73.902,10.884,74.293,10.494z M72.721,16h2.852l3.429,3.41L82.43,16h2.852l1.667,5H71.055L72.721,16z M87,26H71v-4
		h16V26z"/>
	<path d="M120.986,21c0-0.105-0.004-0.211-0.038-0.316l-2-6C118.812,14.275,118.432,14,118,14h-1.561l0.682-0.678
		c1.17-1.17,1.17-3.072,0-4.242c-0.811-0.812-2.068-1.078-3.121-0.709V6c0-1.654-1.346-3-3-3s-3,1.346-3,3v2.371
		c-1.052-0.369-2.311-0.104-3.121,0.709c-1.17,1.17-1.17,3.072,0.002,4.244l0.68,0.676H104c-0.432,0-0.812,0.275-0.948,0.684l-2,6
		c-0.034,0.105-0.038,0.211-0.038,0.316C101,21,101,27,101,27c0,0.553,0.447,1,1,1h18c0.553,0,1-0.447,1-1C121,27,121,21,120.986,21
		z M106.293,10.494c0.189-0.188,0.439-0.293,0.707-0.293s0.518,0.104,0.707,0.293L110,12.787V6c0-0.552,0.448-1,1-1s1,0.448,1,1
		v6.787l2.293-2.293c0.379-0.377,1.035-0.377,1.414,0c0.391,0.39,0.391,1.023,0.002,1.412L111,16.59l-4.707-4.682
		C105.902,11.52,105.902,10.884,106.293,10.494z M104.721,16h2.852l3.429,3.41L114.43,16h2.852l1.667,5h-15.894L104.721,16z M119,26
		h-16v-4h16V26z"/>
	<path d="M152.986,21c0-0.105-0.004-0.211-0.038-0.316l-2-6C150.812,14.275,150.432,14,150,14h-1.561l0.682-0.678
		c1.17-1.17,1.17-3.072,0-4.242c-0.811-0.812-2.068-1.078-3.121-0.709V6c0-1.654-1.346-3-3-3s-3,1.346-3,3v2.371
		c-1.052-0.369-2.311-0.104-3.121,0.709c-1.17,1.17-1.17,3.072,0.002,4.244l0.68,0.676H136c-0.432,0-0.812,0.275-0.948,0.684l-2,6
		c-0.034,0.105-0.038,0.211-0.038,0.316C133,21,133,27,133,27c0,0.553,0.447,1,1,1h18c0.553,0,1-0.447,1-1C153,27,153,21,152.986,21
		z M138.293,10.494c0.189-0.188,0.439-0.293,0.707-0.293s0.518,0.104,0.707,0.293L142,12.787V6c0-0.552,0.448-1,1-1s1,0.448,1,1
		v6.787l2.293-2.293c0.379-0.377,1.035-0.377,1.414,0c0.391,0.39,0.391,1.023,0.002,1.412L143,16.59l-4.707-4.682
		C137.902,11.52,137.902,10.884,138.293,10.494z M136.721,16h2.852l3.429,3.41L146.43,16h2.852l1.667,5h-15.894L136.721,16z M151,26
		h-16v-4h16V26z"/>
	<path d="M184.986,21c0-0.105-0.004-0.211-0.038-0.316l-2-6C182.812,14.275,182.432,14,182,14h-1.561l0.682-0.678
		c1.17-1.17,1.17-3.072,0-4.242c-0.811-0.812-2.068-1.078-3.121-0.709V6c0-1.654-1.346-3-3-3s-3,1.346-3,3v2.371
		c-1.052-0.369-2.311-0.104-3.121,0.709c-1.17,1.17-1.17,3.072,0.002,4.244l0.68,0.676H168c-0.432,0-0.812,0.275-0.948,0.684l-2,6
		c-0.034,0.105-0.038,0.211-0.038,0.316C165,21,165,27,165,27c0,0.553,0.447,1,1,1h18c0.553,0,1-0.447,1-1C185,27,185,21,184.986,21
		z M170.293,10.494c0.189-0.188,0.439-0.293,0.707-0.293s0.518,0.104,0.707,0.293L174,12.787V6c0-0.552,0.448-1,1-1s1,0.448,1,1
		v6.787l2.293-2.293c0.379-0.377,1.035-0.377,1.414,0c0.391,0.39,0.391,1.023,0.002,1.412L175,16.59l-4.707-4.682
		C169.902,11.52,169.902,10.884,170.293,10.494z M168.721,16h2.852l3.429,3.41L178.43,16h2.852l1.667,5h-15.894L168.721,16z M183,26
		h-16v-4h16V26z"/>
	<path d="M216.986,21c0-0.105-0.004-0.211-0.038-0.316l-2-6C214.812,14.275,214.432,14,214,14h-1.561l0.682-0.678
		c1.17-1.17,1.17-3.072,0-4.242c-0.811-0.812-2.068-1.078-3.121-0.709V6c0-1.654-1.346-3-3-3s-3,1.346-3,3v2.371
		c-1.052-0.369-2.311-0.104-3.121,0.709c-1.17,1.17-1.17,3.072,0.002,4.244l0.68,0.676H200c-0.432,0-0.812,0.275-0.948,0.684l-2,6
		c-0.034,0.105-0.038,0.211-0.038,0.316C197,21,197,27,197,27c0,0.553,0.447,1,1,1h18c0.553,0,1-0.447,1-1C217,27,217,21,216.986,21
		z M202.293,10.494c0.189-0.188,0.439-0.293,0.707-0.293s0.518,0.104,0.707,0.293L206,12.787V6c0-0.552,0.448-1,1-1s1,0.448,1,1
		v6.787l2.293-2.293c0.379-0.377,1.035-0.377,1.414,0c0.391,0.39,0.391,1.023,0.002,1.412L207,16.59l-4.707-4.682
		C201.902,11.52,201.902,10.884,202.293,10.494z M200.721,16h2.852l3.429,3.41L210.43,16h2.852l1.667,5h-15.894L200.721,16z M215,26
		h-16v-4h16V26z"/>
	<path d="M248.986,21c0-0.105-0.004-0.211-0.038-0.316l-2-6C246.812,14.275,246.432,14,246,14h-1.561l0.682-0.678
		c1.17-1.17,1.17-3.072,0-4.242c-0.811-0.812-2.068-1.078-3.121-0.709V6c0-1.654-1.346-3-3-3s-3,1.346-3,3v2.371
		c-1.052-0.369-2.311-0.104-3.121,0.709c-1.17,1.17-1.17,3.072,0.002,4.244l0.68,0.676H232c-0.432,0-0.812,0.275-0.948,0.684l-2,6
		c-0.034,0.105-0.038,0.211-0.038,0.316C229,21,229,27,229,27c0,0.553,0.447,1,1,1h18c0.553,0,1-0.447,1-1C249,27,249,21,248.986,21
		z M234.293,10.494c0.189-0.188,0.439-0.293,0.707-0.293s0.518,0.104,0.707,0.293L238,12.787V6c0-0.552,0.448-1,1-1s1,0.448,1,1
		v6.787l2.293-2.293c0.379-0.377,1.035-0.377,1.414,0c0.391,0.39,0.391,1.023,0.002,1.412L239,16.59l-4.707-4.682
		C233.902,11.52,233.902,10.884,234.293,10.494z M232.721,16h2.852l3.429,3.41L242.43,16h2.852l1.667,5h-15.894L232.721,16z M247,26
		h-16v-4h16V26z"/>
	<path d="M280.986,21c0-0.105-0.004-0.211-0.038-0.316l-2-6C278.812,14.275,278.432,14,278,14h-1.561l0.682-0.678
		c1.17-1.17,1.17-3.072,0-4.242c-0.811-0.812-2.068-1.078-3.121-0.709V6c0-1.654-1.346-3-3-3s-3,1.346-3,3v2.371
		c-1.052-0.369-2.311-0.104-3.121,0.709c-1.17,1.17-1.17,3.072,0.002,4.244l0.68,0.676H264c-0.432,0-0.812,0.275-0.948,0.684l-2,6
		c-0.034,0.105-0.038,0.211-0.038,0.316C261,21,261,27,261,27c0,0.553,0.447,1,1,1h18c0.553,0,1-0.447,1-1C281,27,281,21,280.986,21
		z M266.293,10.494c0.189-0.188,0.439-0.293,0.707-0.293s0.518,0.104,0.707,0.293L270,12.787V6c0-0.552,0.448-1,1-1s1,0.448,1,1
		v6.787l2.293-2.293c0.379-0.377,1.035-0.377,1.414,0c0.391,0.39,0.391,1.023,0.002,1.412L271,16.59l-4.707-4.682
		C265.902,11.52,265.902,10.884,266.293,10.494z M264.721,16h2.852l3.429,3.41L274.43,16h2.852l1.667,5h-15.894L264.721,16z M279,26
		h-16v-4h16V26z"/>
	<path d="M312.986,21c0-0.105-0.004-0.211-0.038-0.316l-2-6C310.812,14.275,310.432,14,310,14h-1.561l0.682-0.678
		c1.17-1.17,1.17-3.072,0-4.242c-0.811-0.812-2.068-1.078-3.121-0.709V6c0-1.654-1.346-3-3-3s-3,1.346-3,3v2.371
		c-1.052-0.369-2.311-0.104-3.121,0.709c-1.17,1.17-1.17,3.072,0.002,4.244l0.68,0.676H296c-0.432,0-0.812,0.275-0.948,0.684l-2,6
		c-0.034,0.105-0.038,0.211-0.038,0.316C293,21,293,27,293,27c0,0.553,0.447,1,1,1h18c0.553,0,1-0.447,1-1C313,27,313,21,312.986,21
		z M298.293,10.494c0.189-0.188,0.439-0.293,0.707-0.293s0.518,0.104,0.707,0.293L302,12.787V6c0-0.552,0.448-1,1-1s1,0.448,1,1
		v6.787l2.293-2.293c0.379-0.377,1.035-0.377,1.414,0c0.391,0.39,0.391,1.023,0.002,1.412L303,16.59l-4.707-4.682
		C297.902,11.52,297.902,10.884,298.293,10.494z M296.721,16h2.852l3.429,3.41L306.43,16h2.852l1.667,5h-15.894L296.721,16z M311,26
		h-16v-4h16V26z"/>
	<path d="M344.986,21c0-0.105-0.004-0.211-0.038-0.316l-2-6C342.812,14.275,342.432,14,342,14h-1.561l0.682-0.678
		c1.17-1.17,1.17-3.072,0-4.242c-0.811-0.812-2.068-1.078-3.121-0.709V6c0-1.654-1.346-3-3-3s-3,1.346-3,3v2.371
		c-1.052-0.369-2.311-0.104-3.121,0.709c-1.17,1.17-1.17,3.072,0.002,4.244l0.68,0.676H328c-0.432,0-0.812,0.275-0.948,0.684l-2,6
		c-0.034,0.105-0.038,0.211-0.038,0.316C325,21,325,27,325,27c0,0.553,0.447,1,1,1h18c0.553,0,1-0.447,1-1C345,27,345,21,344.986,21
		z M330.293,10.494c0.189-0.188,0.439-0.293,0.707-0.293s0.518,0.104,0.707,0.293L334,12.787V6c0-0.552,0.448-1,1-1s1,0.448,1,1
		v6.787l2.293-2.293c0.379-0.377,1.035-0.377,1.414,0c0.391,0.39,0.391,1.023,0.002,1.412L335,16.59l-4.707-4.682
		C329.902,11.52,329.902,10.884,330.293,10.494z M328.721,16h2.852l3.429,3.41L338.43,16h2.852l1.667,5h-15.894L328.721,16z M343,26
		h-16v-4h16V26z"/>
	<path d="M376.986,21c0-0.105-0.004-0.211-0.038-0.316l-2-6C374.812,14.275,374.432,14,374,14h-1.561l0.682-0.678
		c1.17-1.17,1.17-3.072,0-4.242c-0.811-0.812-2.068-1.078-3.121-0.709V6c0-1.654-1.346-3-3-3s-3,1.346-3,3v2.371
		c-1.052-0.369-2.311-0.104-3.121,0.709c-1.17,1.17-1.17,3.072,0.002,4.244l0.68,0.676H360c-0.432,0-0.812,0.275-0.948,0.684l-2,6
		c-0.034,0.105-0.038,0.211-0.038,0.316C357,21,357,27,357,27c0,0.553,0.447,1,1,1h18c0.553,0,1-0.447,1-1C377,27,377,21,376.986,21
		z M362.293,10.494c0.189-0.188,0.439-0.293,0.707-0.293s0.518,0.104,0.707,0.293L366,12.787V6c0-0.552,0.448-1,1-1s1,0.448,1,1
		v6.787l2.293-2.293c0.379-0.377,1.035-0.377,1.414,0c0.391,0.39,0.391,1.023,0.002,1.412L367,16.59l-4.707-4.682
		C361.902,11.52,361.902,10.884,362.293,10.494z M360.721,16h2.852l3.429,3.41L370.43,16h2.852l1.667,5h-15.894L360.721,16z M375,26
		h-16v-4h16V26z"/>
	<path d="M408.986,21c0-0.105-0.004-0.211-0.038-0.316l-2-6C406.812,14.275,406.432,14,406,14h-1.561l0.682-0.678
		c1.17-1.17,1.17-3.072,0-4.242c-0.811-0.812-2.068-1.078-3.121-0.709V6c0-1.654-1.346-3-3-3s-3,1.346-3,3v2.371
		c-1.052-0.369-2.311-0.104-3.121,0.709c-1.17,1.17-1.17,3.072,0.002,4.244l0.68,0.676H392c-0.432,0-0.812,0.275-0.948,0.684l-2,6
		c-0.034,0.105-0.038,0.211-0.038,0.316C389,21,389,27,389,27c0,0.553,0.447,1,1,1h18c0.553,0,1-0.447,1-1C409,27,409,21,408.986,21
		z M394.293,10.494c0.189-0.188,0.439-0.293,0.707-0.293s0.518,0.104,0.707,0.293L398,12.787V6c0-0.552,0.448-1,1-1s1,0.448,1,1
		v6.787l2.293-2.293c0.379-0.377,1.035-0.377,1.414,0c0.391,0.39,0.391,1.023,0.002,1.412L399,16.59l-4.707-4.682
		C393.902,11.52,393.902,10.884,394.293,10.494z M392.721,16h2.852l3.429,3.41L402.43,16h2.852l1.667,5h-15.894L392.721,16z M407,26
		h-16v-4h16V26z"/>
	<path d="M440.986,21c0-0.105-0.004-0.211-0.038-0.316l-2-6C438.812,14.275,438.432,14,438,14h-1.561l0.682-0.678
		c1.17-1.17,1.17-3.072,0-4.242c-0.811-0.812-2.068-1.078-3.121-0.709V6c0-1.654-1.346-3-3-3s-3,1.346-3,3v2.371
		c-1.052-0.369-2.311-0.104-3.121,0.709c-1.17,1.17-1.17,3.072,0.002,4.244l0.68,0.676H424c-0.432,0-0.812,0.275-0.948,0.684l-2,6
		c-0.034,0.105-0.038,0.211-0.038,0.316C421,21,421,27,421,27c0,0.553,0.447,1,1,1h18c0.553,0,1-0.447,1-1C441,27,441,21,440.986,21
		z M426.293,10.494c0.189-0.188,0.439-0.293,0.707-0.293s0.518,0.104,0.707,0.293L430,12.787V6c0-0.552,0.448-1,1-1s1,0.448,1,1
		v6.787l2.293-2.293c0.379-0.377,1.035-0.377,1.414,0c0.391,0.39,0.391,1.023,0.002,1.412L431,16.59l-4.707-4.682
		C425.902,11.52,425.902,10.884,426.293,10.494z M424.721,16h2.852l3.429,3.41L434.43,16h2.852l1.667,5h-15.894L424.721,16z M439,26
		h-16v-4h16V26z"/>
	<path d="M472.986,21c0-0.105-0.004-0.211-0.038-0.316l-2-6C470.812,14.275,470.432,14,470,14h-1.561l0.682-0.678
		c1.17-1.17,1.17-3.072,0-4.242c-0.811-0.812-2.068-1.078-3.121-0.709V6c0-1.654-1.346-3-3-3s-3,1.346-3,3v2.371
		c-1.052-0.369-2.311-0.104-3.121,0.709c-1.17,1.17-1.17,3.072,0.002,4.244l0.68,0.676H456c-0.432,0-0.812,0.275-0.948,0.684l-2,6
		c-0.034,0.105-0.038,0.211-0.038,0.316C453,21,453,27,453,27c0,0.553,0.447,1,1,1h18c0.553,0,1-0.447,1-1C473,27,473,21,472.986,21
		z M458.293,10.494c0.189-0.188,0.439-0.293,0.707-0.293s0.518,0.104,0.707,0.293L462,12.787V6c0-0.552,0.448-1,1-1s1,0.448,1,1
		v6.787l2.293-2.293c0.379-0.377,1.035-0.377,1.414,0c0.391,0.39,0.391,1.023,0.002,1.412L463,16.59l-4.707-4.682
		C457.902,11.52,457.902,10.884,458.293,10.494z M456.721,16h2.852l3.429,3.41L466.43,16h2.852l1.667,5h-15.894L456.721,16z M471,26
		h-16v-4h16V26z"/>
	<path d="M504.986,21c0-0.105-0.004-0.211-0.038-0.316l-2-6C502.812,14.275,502.432,14,502,14h-1.561l0.682-0.678
		c1.17-1.17,1.17-3.072,0-4.242c-0.811-0.812-2.068-1.078-3.121-0.709V6c0-1.654-1.346-3-3-3s-3,1.346-3,3v2.371
		c-1.052-0.369-2.311-0.104-3.121,0.709c-1.17,1.17-1.17,3.072,0.002,4.244l0.68,0.676H488c-0.432,0-0.812,0.275-0.948,0.684l-2,6
		c-0.034,0.105-0.038,0.211-0.038,0.316C485,21,485,27,485,27c0,0.553,0.447,1,1,1h18c0.553,0,1-0.447,1-1C505,27,505,21,504.986,21
		z M490.293,10.494c0.189-0.188,0.439-0.293,0.707-0.293s0.518,0.104,0.707,0.293L494,12.787V6c0-0.552,0.448-1,1-1s1,0.448,1,1
		v6.787l2.293-2.293c0.379-0.377,1.035-0.377,1.414,0c0.391,0.39,0.391,1.023,0.002,1.412L495,16.59l-4.707-4.682
		C489.902,11.52,489.902,10.884,490.293,10.494z M488.721,16h2.852l3.429,3.41L498.43,16h2.852l1.667,5h-15.894L488.721,16z M503,26
		h-16v-4h16V26z"/>
</g>
<g id="Layer_4">
</g>
</svg>
