<?xml version="1.0" encoding="iso-8859-1"?>
<!-- Generator: Adobe Illustrator 16.2.1, SVG Export Plug-In . SVG Version: 6.00 Build 0)  -->
<!DOCTYPE svg PUBLIC "-//W3C//DTD SVG 1.1 Tiny//EN" "http://www.w3.org/Graphics/SVG/1.1/DTD/svg11-tiny.dtd">
<svg version="1.1" baseProfile="tiny" xmlns="http://www.w3.org/2000/svg" xmlns:xlink="http://www.w3.org/1999/xlink" x="0px"
	 y="0px" width="512px" height="32px" viewBox="0 0 512 32" xml:space="preserve">
<g id="Layer_2_copy">
</g>
<g id="Layer_2">
</g>
<g id="Layer_1">
	<g id="Layer_1_3_">
		<g>
			<g>
				<path fill="#FFFFFF" d="M13.5,9V8c0-1.654,1.346-3,3-3s3,1.346,3,3v1H13.5z"/>
				<path d="M16.5,6c1.103,0,2,0.896,2,2h-1c0-0.551-0.448-1-1-1s-1,0.449-1,1h-1C14.5,6.896,15.397,6,16.5,6 M16.5,4
					c-2.206,0-4,1.794-4,4v2h2h1h2h1h2V8C20.5,5.794,18.706,4,16.5,4L16.5,4z"/>
			</g>
		</g>
		<g>
			<path fill="#FFFFFF" d="M26,10c0,1.1-0.9,2-2,2H9c-1.1,0-2-0.9-2-2l0,0c0-1.1,0.9-2,2-2h15C25.1,8,26,8.9,26,10L26,10z"/>
			<path fill="none" stroke="#000000" stroke-width="2" stroke-linecap="round" stroke-linejoin="round" stroke-miterlimit="10" d="
				M26,10c0,1.1-0.9,2-2,2H9c-1.1,0-2-0.9-2-2l0,0c0-1.1,0.9-2,2-2h15C25.1,8,26,8.9,26,10L26,10z"/>
		</g>
		<g>
			<path fill="#FFFFFF" d="M24,23c0,1.65-1.35,3-3,3h-9c-1.65,0-3-1.35-3-3V12c0-1.65,1.35-3,3-3h9c1.65,0,3,1.35,3,3V23z"/>
			<path fill="none" stroke="#000000" stroke-width="2" stroke-linecap="round" stroke-linejoin="round" stroke-miterlimit="10" d="
				M24,23c0,1.65-1.35,3-3,3h-9c-1.65,0-3-1.35-3-3V12c0-1.65,1.35-3,3-3h9c1.65,0,3,1.35,3,3V23z"/>
		</g>
		<g>
			<path fill="#FFFFFF" d="M9,11.5c-0.827,0-1.5-0.673-1.5-1.5S8.173,8.5,9,8.5h15c0.827,0,1.5,0.673,1.5,1.5s-0.673,1.5-1.5,1.5H9z
				"/>
			<path d="M24,9c0.551,0,1,0.449,1,1s-0.449,1-1,1H9c-0.551,0-1-0.449-1-1s0.449-1,1-1H24 M24,8H9c-1.1,0-2,0.9-2,2s0.9,2,2,2h15
				c1.1,0,2-0.9,2-2S25.1,8,24,8L24,8z"/>
		</g>
		<g>
			<path d="M12.5,14c0.276,0,0.5,0.224,0.5,0.5v8c0,0.275-0.224,0.5-0.5,0.5S12,22.775,12,22.5v-8C12,14.224,12.224,14,12.5,14
				 M12.5,13c-0.827,0-1.5,0.673-1.5,1.5v8c0,0.827,0.673,1.5,1.5,1.5s1.5-0.673,1.5-1.5v-8C14,13.673,13.327,13,12.5,13L12.5,13z"
				/>
		</g>
		<g>
			<path d="M16.5,14c0.276,0,0.5,0.224,0.5,0.5v8c0,0.275-0.224,0.5-0.5,0.5S16,22.775,16,22.5v-8C16,14.224,16.224,14,16.5,14
				 M16.5,13c-0.827,0-1.5,0.673-1.5,1.5v8c0,0.827,0.673,1.5,1.5,1.5s1.5-0.673,1.5-1.5v-8C18,13.673,17.327,13,16.5,13L16.5,13z"
				/>
		</g>
		<g>
			<path d="M20.5,14c0.276,0,0.5,0.224,0.5,0.5v8c0,0.275-0.224,0.5-0.5,0.5S20,22.775,20,22.5v-8C20,14.224,20.224,14,20.5,14
				 M20.5,13c-0.827,0-1.5,0.673-1.5,1.5v8c0,0.827,0.673,1.5,1.5,1.5s1.5-0.673,1.5-1.5v-8C22,13.673,21.327,13,20.5,13L20.5,13z"
				/>
		</g>
		<g>
			<g>
				<path fill="#FFFFFF" d="M17,8.5V8c0-0.276-0.224-0.5-0.5-0.5S16,7.724,16,8v0.5h-2V8c0-1.378,1.122-2.5,2.5-2.5S19,6.622,19,8
					v0.5H17z"/>
				<path d="M16.5,6c1.103,0,2,0.896,2,2h-1c0-0.551-0.448-1-1-1s-1,0.449-1,1h-1C14.5,6.896,15.397,6,16.5,6 M16.5,5
					c-1.654,0-3,1.346-3,3v1h1h1h1V8v1h1h1h1V8C19.5,6.346,18.154,5,16.5,5L16.5,5z"/>
			</g>
		</g>
		<g>
			<g>
				<path fill="#FFFFFF" d="M45.5,8.75v-1c0-1.654,1.346-3,3-3s3,1.346,3,3v1H45.5z"/>
				<path d="M48.5,5.75c1.103,0,2,0.896,2,2h-1c0-0.551-0.448-1-1-1s-1,0.449-1,1h-1C46.5,6.646,47.397,5.75,48.5,5.75 M48.5,3.75
					c-2.206,0-4,1.794-4,4v2h2h1h2h1h2v-2C52.5,5.544,50.706,3.75,48.5,3.75L48.5,3.75z"/>
			</g>
		</g>
		<g>
			<path fill="#FFFFFF" d="M58,9.75c0,1.1-0.9,2-2,2H41c-1.1,0-2-0.9-2-2l0,0c0-1.1,0.9-2,2-2h15C57.1,7.75,58,8.65,58,9.75L58,9.75
				z"/>
			<path fill="none" stroke="#000000" stroke-width="2" stroke-linecap="round" stroke-linejoin="round" stroke-miterlimit="10" d="
				M58,9.75c0,1.1-0.9,2-2,2H41c-1.1,0-2-0.9-2-2l0,0c0-1.1,0.9-2,2-2h15C57.1,7.75,58,8.65,58,9.75L58,9.75z"/>
		</g>
		<g>
			<path fill="#FFFFFF" d="M56,23.125c0,1.65-1.35,3-3,3h-9c-1.65,0-3-1.35-3-3v-11c0-1.65,1.35-3,3-3h9c1.65,0,3,1.35,3,3V23.125z"
				/>
			<path fill="none" stroke="#000000" stroke-width="2" stroke-linecap="round" stroke-linejoin="round" stroke-miterlimit="10" d="
				M56,23.125c0,1.65-1.35,3-3,3h-9c-1.65,0-3-1.35-3-3v-11c0-1.65,1.35-3,3-3h9c1.65,0,3,1.35,3,3V23.125z"/>
		</g>
		<g>
			<path fill="#FFFFFF" d="M41,11.25c-0.827,0-1.5-0.673-1.5-1.5s0.673-1.5,1.5-1.5h15c0.827,0,1.5,0.673,1.5,1.5
				s-0.673,1.5-1.5,1.5H41z"/>
			<path d="M56,8.75c0.551,0,1,0.449,1,1s-0.449,1-1,1H41c-0.551,0-1-0.449-1-1s0.449-1,1-1H56 M56,7.75H41c-1.1,0-2,0.9-2,2
				s0.9,2,2,2h15c1.1,0,2-0.9,2-2S57.1,7.75,56,7.75L56,7.75z"/>
		</g>
		<g>
			<path d="M44.5,14.125c0.276,0,0.5,0.224,0.5,0.5v8c0,0.275-0.224,0.5-0.5,0.5S44,22.9,44,22.625v-8
				C44,14.349,44.224,14.125,44.5,14.125 M44.5,13.125c-0.827,0-1.5,0.673-1.5,1.5v8c0,0.827,0.673,1.5,1.5,1.5s1.5-0.673,1.5-1.5
				v-8C46,13.798,45.327,13.125,44.5,13.125L44.5,13.125z"/>
		</g>
		<g>
			<path d="M48.5,14.125c0.276,0,0.5,0.224,0.5,0.5v8c0,0.275-0.224,0.5-0.5,0.5S48,22.9,48,22.625v-8
				C48,14.349,48.224,14.125,48.5,14.125 M48.5,13.125c-0.827,0-1.5,0.673-1.5,1.5v8c0,0.827,0.673,1.5,1.5,1.5s1.5-0.673,1.5-1.5
				v-8C50,13.798,49.327,13.125,48.5,13.125L48.5,13.125z"/>
		</g>
		<g>
			<path d="M52.5,14.125c0.276,0,0.5,0.224,0.5,0.5v8c0,0.275-0.224,0.5-0.5,0.5S52,22.9,52,22.625v-8
				C52,14.349,52.224,14.125,52.5,14.125 M52.5,13.125c-0.827,0-1.5,0.673-1.5,1.5v8c0,0.827,0.673,1.5,1.5,1.5s1.5-0.673,1.5-1.5
				v-8C54,13.798,53.327,13.125,52.5,13.125L52.5,13.125z"/>
		</g>
		<g>
			<g>
				<path fill="#FFFFFF" d="M49,8.25v-0.5c0-0.276-0.224-0.5-0.5-0.5S48,7.474,48,7.75v0.5h-2v-0.5c0-1.378,1.122-2.5,2.5-2.5
					S51,6.372,51,7.75v0.5H49z"/>
				<path d="M48.5,5.75c1.103,0,2,0.896,2,2h-1c0-0.551-0.448-1-1-1s-1,0.449-1,1h-1C46.5,6.646,47.397,5.75,48.5,5.75 M48.5,4.75
					c-1.654,0-3,1.346-3,3v1h1h1h1v-1v1h1h1h1v-1C51.5,6.096,50.154,4.75,48.5,4.75L48.5,4.75z"/>
			</g>
		</g>
		<g>
			<g>
				<path fill="#FFFFFF" d="M77.5,8.625v-1c0-1.654,1.346-3,3-3s3,1.346,3,3v1H77.5z"/>
				<path d="M80.5,5.625c1.103,0,2,0.896,2,2h-1c0-0.551-0.448-1-1-1s-1,0.449-1,1h-1C78.5,6.521,79.397,5.625,80.5,5.625
					 M80.5,3.625c-2.206,0-4,1.794-4,4v2h2h1h2h1h2v-2C84.5,5.419,82.706,3.625,80.5,3.625L80.5,3.625z"/>
			</g>
		</g>
		<g>
			<path fill="#FFFFFF" d="M90,9.625c0,1.1-0.9,2-2,2H73c-1.1,0-2-0.9-2-2l0,0c0-1.1,0.9-2,2-2h15C89.1,7.625,90,8.525,90,9.625
				L90,9.625z"/>
			<path fill="none" stroke="#000000" stroke-width="2" stroke-linecap="round" stroke-linejoin="round" stroke-miterlimit="10" d="
				M90,9.625c0,1.1-0.9,2-2,2H73c-1.1,0-2-0.9-2-2l0,0c0-1.1,0.9-2,2-2h15C89.1,7.625,90,8.525,90,9.625L90,9.625z"/>
		</g>
		<g>
			<path fill="#FFFFFF" d="M88,23.25c0,1.65-1.35,3-3,3h-9c-1.65,0-3-1.35-3-3v-11c0-1.65,1.35-3,3-3h9c1.65,0,3,1.35,3,3V23.25z"/>
			<path fill="none" stroke="#000000" stroke-width="2" stroke-linecap="round" stroke-linejoin="round" stroke-miterlimit="10" d="
				M88,23.25c0,1.65-1.35,3-3,3h-9c-1.65,0-3-1.35-3-3v-11c0-1.65,1.35-3,3-3h9c1.65,0,3,1.35,3,3V23.25z"/>
		</g>
		<g>
			<path fill="#FFFFFF" d="M73,11.125c-0.827,0-1.5-0.673-1.5-1.5s0.673-1.5,1.5-1.5h15c0.827,0,1.5,0.673,1.5,1.5
				s-0.673,1.5-1.5,1.5H73z"/>
			<path d="M88,8.625c0.551,0,1,0.449,1,1s-0.449,1-1,1H73c-0.551,0-1-0.449-1-1s0.449-1,1-1H88 M88,7.625H73c-1.1,0-2,0.9-2,2
				s0.9,2,2,2h15c1.1,0,2-0.9,2-2S89.1,7.625,88,7.625L88,7.625z"/>
		</g>
		<g>
			<path d="M76.5,14.25c0.276,0,0.5,0.224,0.5,0.5v8c0,0.275-0.224,0.5-0.5,0.5s-0.5-0.225-0.5-0.5v-8
				C76,14.474,76.224,14.25,76.5,14.25 M76.5,13.25c-0.827,0-1.5,0.673-1.5,1.5v8c0,0.827,0.673,1.5,1.5,1.5s1.5-0.673,1.5-1.5v-8
				C78,13.923,77.327,13.25,76.5,13.25L76.5,13.25z"/>
		</g>
		<g>
			<path d="M80.5,14.25c0.276,0,0.5,0.224,0.5,0.5v8c0,0.275-0.224,0.5-0.5,0.5s-0.5-0.225-0.5-0.5v-8
				C80,14.474,80.224,14.25,80.5,14.25 M80.5,13.25c-0.827,0-1.5,0.673-1.5,1.5v8c0,0.827,0.673,1.5,1.5,1.5s1.5-0.673,1.5-1.5v-8
				C82,13.923,81.327,13.25,80.5,13.25L80.5,13.25z"/>
		</g>
		<g>
			<path d="M84.5,14.25c0.276,0,0.5,0.224,0.5,0.5v8c0,0.275-0.224,0.5-0.5,0.5s-0.5-0.225-0.5-0.5v-8
				C84,14.474,84.224,14.25,84.5,14.25 M84.5,13.25c-0.827,0-1.5,0.673-1.5,1.5v8c0,0.827,0.673,1.5,1.5,1.5s1.5-0.673,1.5-1.5v-8
				C86,13.923,85.327,13.25,84.5,13.25L84.5,13.25z"/>
		</g>
		<g>
			<g>
				<path fill="#FFFFFF" d="M81,8.125v-0.5c0-0.276-0.224-0.5-0.5-0.5S80,7.349,80,7.625v0.5h-2v-0.5c0-1.378,1.122-2.5,2.5-2.5
					s2.5,1.122,2.5,2.5v0.5H81z"/>
				<path d="M80.5,5.625c1.103,0,2,0.896,2,2h-1c0-0.551-0.448-1-1-1s-1,0.449-1,1h-1C78.5,6.521,79.397,5.625,80.5,5.625
					 M80.5,4.625c-1.654,0-3,1.346-3,3v1h1h1h1v-1v1h1h1h1v-1C83.5,5.971,82.154,4.625,80.5,4.625L80.5,4.625z"/>
			</g>
		</g>
		<g>
			<g>
				<path fill="#FFFFFF" d="M109.5,8.5v-1c0-1.654,1.346-3,3-3s3,1.346,3,3v1H109.5z"/>
				<path d="M112.5,5.5c1.103,0,2,0.896,2,2h-1c0-0.551-0.448-1-1-1s-1,0.449-1,1h-1C110.5,6.396,111.397,5.5,112.5,5.5 M112.5,3.5
					c-2.206,0-4,1.794-4,4v2h2h1h2h1h2v-2C116.5,5.294,114.706,3.5,112.5,3.5L112.5,3.5z"/>
			</g>
		</g>
		<g>
			<path fill="#FFFFFF" d="M122,9.5c0,1.1-0.9,2-2,2h-15c-1.1,0-2-0.9-2-2l0,0c0-1.1,0.9-2,2-2h15C121.1,7.5,122,8.4,122,9.5
				L122,9.5z"/>
			<path fill="none" stroke="#000000" stroke-width="2" stroke-linecap="round" stroke-linejoin="round" stroke-miterlimit="10" d="
				M122,9.5c0,1.1-0.9,2-2,2h-15c-1.1,0-2-0.9-2-2l0,0c0-1.1,0.9-2,2-2h15C121.1,7.5,122,8.4,122,9.5L122,9.5z"/>
		</g>
		<g>
			<path fill="#FFFFFF" d="M120,23.375c0,1.65-1.35,3-3,3h-9c-1.65,0-3-1.35-3-3v-11c0-1.65,1.35-3,3-3h9c1.65,0,3,1.35,3,3V23.375z
				"/>
			<path fill="none" stroke="#000000" stroke-width="2" stroke-linecap="round" stroke-linejoin="round" stroke-miterlimit="10" d="
				M120,23.375c0,1.65-1.35,3-3,3h-9c-1.65,0-3-1.35-3-3v-11c0-1.65,1.35-3,3-3h9c1.65,0,3,1.35,3,3V23.375z"/>
		</g>
		<g>
			<path fill="#FFFFFF" d="M105,11c-0.827,0-1.5-0.673-1.5-1.5S104.173,8,105,8h15c0.827,0,1.5,0.673,1.5,1.5S120.827,11,120,11H105
				z"/>
			<path d="M120,8.5c0.551,0,1,0.449,1,1s-0.449,1-1,1h-15c-0.551,0-1-0.449-1-1s0.449-1,1-1H120 M120,7.5h-15c-1.1,0-2,0.9-2,2
				s0.9,2,2,2h15c1.1,0,2-0.9,2-2S121.1,7.5,120,7.5L120,7.5z"/>
		</g>
		<g>
			<path d="M108.5,14.375c0.276,0,0.5,0.224,0.5,0.5v8c0,0.275-0.224,0.5-0.5,0.5s-0.5-0.225-0.5-0.5v-8
				C108,14.599,108.224,14.375,108.5,14.375 M108.5,13.375c-0.827,0-1.5,0.673-1.5,1.5v8c0,0.827,0.673,1.5,1.5,1.5
				s1.5-0.673,1.5-1.5v-8C110,14.048,109.327,13.375,108.5,13.375L108.5,13.375z"/>
		</g>
		<g>
			<path d="M112.5,14.375c0.276,0,0.5,0.224,0.5,0.5v8c0,0.275-0.224,0.5-0.5,0.5s-0.5-0.225-0.5-0.5v-8
				C112,14.599,112.224,14.375,112.5,14.375 M112.5,13.375c-0.827,0-1.5,0.673-1.5,1.5v8c0,0.827,0.673,1.5,1.5,1.5
				s1.5-0.673,1.5-1.5v-8C114,14.048,113.327,13.375,112.5,13.375L112.5,13.375z"/>
		</g>
		<g>
			<path d="M116.5,14.375c0.276,0,0.5,0.224,0.5,0.5v8c0,0.275-0.224,0.5-0.5,0.5s-0.5-0.225-0.5-0.5v-8
				C116,14.599,116.224,14.375,116.5,14.375 M116.5,13.375c-0.827,0-1.5,0.673-1.5,1.5v8c0,0.827,0.673,1.5,1.5,1.5
				s1.5-0.673,1.5-1.5v-8C118,14.048,117.327,13.375,116.5,13.375L116.5,13.375z"/>
		</g>
		<g>
			<g>
				<path fill="#FFFFFF" d="M113,8V7.5c0-0.276-0.224-0.5-0.5-0.5S112,7.224,112,7.5V8h-2V7.5c0-1.378,1.122-2.5,2.5-2.5
					s2.5,1.122,2.5,2.5V8H113z"/>
				<path d="M112.5,5.5c1.103,0,2,0.896,2,2h-1c0-0.551-0.448-1-1-1s-1,0.449-1,1h-1C110.5,6.396,111.397,5.5,112.5,5.5 M112.5,4.5
					c-1.654,0-3,1.346-3,3v1h1h1h1v-1v1h1h1h1v-1C115.5,5.846,114.154,4.5,112.5,4.5L112.5,4.5z"/>
			</g>
		</g>
		<g>
			<g>
				<path fill="#FFFFFF" d="M141.5,8.375v-1c0-1.654,1.346-3,3-3s3,1.346,3,3v1H141.5z"/>
				<path d="M144.5,5.375c1.103,0,2,0.896,2,2h-1c0-0.551-0.448-1-1-1s-1,0.449-1,1h-1C142.5,6.271,143.397,5.375,144.5,5.375
					 M144.5,3.375c-2.206,0-4,1.794-4,4v2h2h1h2h1h2v-2C148.5,5.169,146.706,3.375,144.5,3.375L144.5,3.375z"/>
			</g>
		</g>
		<g>
			<path fill="#FFFFFF" d="M154,9.375c0,1.1-0.9,2-2,2h-15c-1.1,0-2-0.9-2-2l0,0c0-1.1,0.9-2,2-2h15
				C153.1,7.375,154,8.275,154,9.375L154,9.375z"/>
			<path fill="none" stroke="#000000" stroke-width="2" stroke-linecap="round" stroke-linejoin="round" stroke-miterlimit="10" d="
				M154,9.375c0,1.1-0.9,2-2,2h-15c-1.1,0-2-0.9-2-2l0,0c0-1.1,0.9-2,2-2h15C153.1,7.375,154,8.275,154,9.375L154,9.375z"/>
		</g>
		<g>
			<path fill="#FFFFFF" d="M152,23.5c0,1.65-1.35,3-3,3h-9c-1.65,0-3-1.35-3-3v-11c0-1.65,1.35-3,3-3h9c1.65,0,3,1.35,3,3V23.5z"/>
			<path fill="none" stroke="#000000" stroke-width="2" stroke-linecap="round" stroke-linejoin="round" stroke-miterlimit="10" d="
				M152,23.5c0,1.65-1.35,3-3,3h-9c-1.65,0-3-1.35-3-3v-11c0-1.65,1.35-3,3-3h9c1.65,0,3,1.35,3,3V23.5z"/>
		</g>
		<g>
			<path fill="#FFFFFF" d="M137,10.875c-0.827,0-1.5-0.673-1.5-1.5s0.673-1.5,1.5-1.5h15c0.827,0,1.5,0.673,1.5,1.5
				s-0.673,1.5-1.5,1.5H137z"/>
			<path d="M152,8.375c0.551,0,1,0.449,1,1s-0.449,1-1,1h-15c-0.551,0-1-0.449-1-1s0.449-1,1-1H152 M152,7.375h-15c-1.1,0-2,0.9-2,2
				s0.9,2,2,2h15c1.1,0,2-0.9,2-2S153.1,7.375,152,7.375L152,7.375z"/>
		</g>
		<g>
			<path d="M140.5,14.5c0.276,0,0.5,0.224,0.5,0.5v8c0,0.275-0.224,0.5-0.5,0.5S140,23.275,140,23v-8
				C140,14.724,140.224,14.5,140.5,14.5 M140.5,13.5c-0.827,0-1.5,0.673-1.5,1.5v8c0,0.827,0.673,1.5,1.5,1.5s1.5-0.673,1.5-1.5v-8
				C142,14.173,141.327,13.5,140.5,13.5L140.5,13.5z"/>
		</g>
		<g>
			<path d="M144.5,14.5c0.276,0,0.5,0.224,0.5,0.5v8c0,0.275-0.224,0.5-0.5,0.5S144,23.275,144,23v-8
				C144,14.724,144.224,14.5,144.5,14.5 M144.5,13.5c-0.827,0-1.5,0.673-1.5,1.5v8c0,0.827,0.673,1.5,1.5,1.5s1.5-0.673,1.5-1.5v-8
				C146,14.173,145.327,13.5,144.5,13.5L144.5,13.5z"/>
		</g>
		<g>
			<path d="M148.5,14.5c0.276,0,0.5,0.224,0.5,0.5v8c0,0.275-0.224,0.5-0.5,0.5S148,23.275,148,23v-8
				C148,14.724,148.224,14.5,148.5,14.5 M148.5,13.5c-0.827,0-1.5,0.673-1.5,1.5v8c0,0.827,0.673,1.5,1.5,1.5s1.5-0.673,1.5-1.5v-8
				C150,14.173,149.327,13.5,148.5,13.5L148.5,13.5z"/>
		</g>
		<g>
			<g>
				<path fill="#FFFFFF" d="M145,7.875v-0.5c0-0.276-0.224-0.5-0.5-0.5s-0.5,0.224-0.5,0.5v0.5h-2v-0.5c0-1.378,1.122-2.5,2.5-2.5
					s2.5,1.122,2.5,2.5v0.5H145z"/>
				<path d="M144.5,5.375c1.103,0,2,0.896,2,2h-1c0-0.551-0.448-1-1-1s-1,0.449-1,1h-1C142.5,6.271,143.397,5.375,144.5,5.375
					 M144.5,4.375c-1.654,0-3,1.346-3,3v1h1h1h1v-1v1h1h1h1v-1C147.5,5.721,146.154,4.375,144.5,4.375L144.5,4.375z"/>
			</g>
		</g>
		<g>
			<g>
				<path fill="#FFFFFF" d="M173.5,8.25v-1c0-1.654,1.346-3,3-3s3,1.346,3,3v1H173.5z"/>
				<path d="M176.5,5.25c1.103,0,2,0.896,2,2h-1c0-0.551-0.448-1-1-1s-1,0.449-1,1h-1C174.5,6.146,175.397,5.25,176.5,5.25
					 M176.5,3.25c-2.206,0-4,1.794-4,4v2h2h1h2h1h2v-2C180.5,5.044,178.706,3.25,176.5,3.25L176.5,3.25z"/>
			</g>
		</g>
		<g>
			<path fill="#FFFFFF" d="M186,9.25c0,1.1-0.9,2-2,2h-15c-1.1,0-2-0.9-2-2l0,0c0-1.1,0.9-2,2-2h15C185.1,7.25,186,8.15,186,9.25
				L186,9.25z"/>
			<path fill="none" stroke="#000000" stroke-width="2" stroke-linecap="round" stroke-linejoin="round" stroke-miterlimit="10" d="
				M186,9.25c0,1.1-0.9,2-2,2h-15c-1.1,0-2-0.9-2-2l0,0c0-1.1,0.9-2,2-2h15C185.1,7.25,186,8.15,186,9.25L186,9.25z"/>
		</g>
		<g>
			<path fill="#FFFFFF" d="M184,23.625c0,1.65-1.35,3-3,3h-9c-1.65,0-3-1.35-3-3v-11c0-1.65,1.35-3,3-3h9c1.65,0,3,1.35,3,3V23.625z
				"/>
			<path fill="none" stroke="#000000" stroke-width="2" stroke-linecap="round" stroke-linejoin="round" stroke-miterlimit="10" d="
				M184,23.625c0,1.65-1.35,3-3,3h-9c-1.65,0-3-1.35-3-3v-11c0-1.65,1.35-3,3-3h9c1.65,0,3,1.35,3,3V23.625z"/>
		</g>
		<g>
			<path fill="#FFFFFF" d="M169,10.75c-0.827,0-1.5-0.673-1.5-1.5s0.673-1.5,1.5-1.5h15c0.827,0,1.5,0.673,1.5,1.5
				s-0.673,1.5-1.5,1.5H169z"/>
			<path d="M184,8.25c0.551,0,1,0.449,1,1s-0.449,1-1,1h-15c-0.551,0-1-0.449-1-1s0.449-1,1-1H184 M184,7.25h-15c-1.1,0-2,0.9-2,2
				s0.9,2,2,2h15c1.1,0,2-0.9,2-2S185.1,7.25,184,7.25L184,7.25z"/>
		</g>
		<g>
			<path d="M172.5,14.625c0.276,0,0.5,0.224,0.5,0.5v8c0,0.275-0.224,0.5-0.5,0.5s-0.5-0.225-0.5-0.5v-8
				C172,14.849,172.224,14.625,172.5,14.625 M172.5,13.625c-0.827,0-1.5,0.673-1.5,1.5v8c0,0.827,0.673,1.5,1.5,1.5
				s1.5-0.673,1.5-1.5v-8C174,14.298,173.327,13.625,172.5,13.625L172.5,13.625z"/>
		</g>
		<g>
			<path d="M176.5,14.625c0.276,0,0.5,0.224,0.5,0.5v8c0,0.275-0.224,0.5-0.5,0.5s-0.5-0.225-0.5-0.5v-8
				C176,14.849,176.224,14.625,176.5,14.625 M176.5,13.625c-0.827,0-1.5,0.673-1.5,1.5v8c0,0.827,0.673,1.5,1.5,1.5
				s1.5-0.673,1.5-1.5v-8C178,14.298,177.327,13.625,176.5,13.625L176.5,13.625z"/>
		</g>
		<g>
			<path d="M180.5,14.625c0.276,0,0.5,0.224,0.5,0.5v8c0,0.275-0.224,0.5-0.5,0.5s-0.5-0.225-0.5-0.5v-8
				C180,14.849,180.224,14.625,180.5,14.625 M180.5,13.625c-0.827,0-1.5,0.673-1.5,1.5v8c0,0.827,0.673,1.5,1.5,1.5
				s1.5-0.673,1.5-1.5v-8C182,14.298,181.327,13.625,180.5,13.625L180.5,13.625z"/>
		</g>
		<g>
			<g>
				<path fill="#FFFFFF" d="M177,7.75v-0.5c0-0.276-0.224-0.5-0.5-0.5s-0.5,0.224-0.5,0.5v0.5h-2v-0.5c0-1.378,1.122-2.5,2.5-2.5
					s2.5,1.122,2.5,2.5v0.5H177z"/>
				<path d="M176.5,5.25c1.103,0,2,0.896,2,2h-1c0-0.551-0.448-1-1-1s-1,0.449-1,1h-1C174.5,6.146,175.397,5.25,176.5,5.25
					 M176.5,4.25c-1.654,0-3,1.346-3,3v1h1h1h1v-1v1h1h1h1v-1C179.5,5.596,178.154,4.25,176.5,4.25L176.5,4.25z"/>
			</g>
		</g>
		<g>
			<g>
				<path fill="#FFFFFF" d="M205.5,8.125v-1c0-1.654,1.346-3,3-3s3,1.346,3,3v1H205.5z"/>
				<path d="M208.5,5.125c1.103,0,2,0.896,2,2h-1c0-0.551-0.448-1-1-1s-1,0.449-1,1h-1C206.5,6.021,207.397,5.125,208.5,5.125
					 M208.5,3.125c-2.206,0-4,1.794-4,4v2h2h1h2h1h2v-2C212.5,4.919,210.706,3.125,208.5,3.125L208.5,3.125z"/>
			</g>
		</g>
		<g>
			<path fill="#FFFFFF" d="M218,9.125c0,1.1-0.9,2-2,2h-15c-1.1,0-2-0.9-2-2l0,0c0-1.1,0.9-2,2-2h15
				C217.1,7.125,218,8.025,218,9.125L218,9.125z"/>
			<path fill="none" stroke="#000000" stroke-width="2" stroke-linecap="round" stroke-linejoin="round" stroke-miterlimit="10" d="
				M218,9.125c0,1.1-0.9,2-2,2h-15c-1.1,0-2-0.9-2-2l0,0c0-1.1,0.9-2,2-2h15C217.1,7.125,218,8.025,218,9.125L218,9.125z"/>
		</g>
		<g>
			<path fill="#FFFFFF" d="M216,23.75c0,1.65-1.35,3-3,3h-9c-1.65,0-3-1.35-3-3v-11c0-1.65,1.35-3,3-3h9c1.65,0,3,1.35,3,3V23.75z"
				/>
			<path fill="none" stroke="#000000" stroke-width="2" stroke-linecap="round" stroke-linejoin="round" stroke-miterlimit="10" d="
				M216,23.75c0,1.65-1.35,3-3,3h-9c-1.65,0-3-1.35-3-3v-11c0-1.65,1.35-3,3-3h9c1.65,0,3,1.35,3,3V23.75z"/>
		</g>
		<g>
			<path fill="#FFFFFF" d="M201,10.625c-0.827,0-1.5-0.673-1.5-1.5s0.673-1.5,1.5-1.5h15c0.827,0,1.5,0.673,1.5,1.5
				s-0.673,1.5-1.5,1.5H201z"/>
			<path d="M216,8.125c0.551,0,1,0.449,1,1s-0.449,1-1,1h-15c-0.551,0-1-0.449-1-1s0.449-1,1-1H216 M216,7.125h-15c-1.1,0-2,0.9-2,2
				s0.9,2,2,2h15c1.1,0,2-0.9,2-2S217.1,7.125,216,7.125L216,7.125z"/>
		</g>
		<g>
			<path d="M204.5,14.75c0.276,0,0.5,0.224,0.5,0.5v8c0,0.275-0.224,0.5-0.5,0.5s-0.5-0.225-0.5-0.5v-8
				C204,14.974,204.224,14.75,204.5,14.75 M204.5,13.75c-0.827,0-1.5,0.673-1.5,1.5v8c0,0.827,0.673,1.5,1.5,1.5s1.5-0.673,1.5-1.5
				v-8C206,14.423,205.327,13.75,204.5,13.75L204.5,13.75z"/>
		</g>
		<g>
			<path d="M208.5,14.75c0.276,0,0.5,0.224,0.5,0.5v8c0,0.275-0.224,0.5-0.5,0.5s-0.5-0.225-0.5-0.5v-8
				C208,14.974,208.224,14.75,208.5,14.75 M208.5,13.75c-0.827,0-1.5,0.673-1.5,1.5v8c0,0.827,0.673,1.5,1.5,1.5s1.5-0.673,1.5-1.5
				v-8C210,14.423,209.327,13.75,208.5,13.75L208.5,13.75z"/>
		</g>
		<g>
			<path d="M212.5,14.75c0.276,0,0.5,0.224,0.5,0.5v8c0,0.275-0.224,0.5-0.5,0.5s-0.5-0.225-0.5-0.5v-8
				C212,14.974,212.224,14.75,212.5,14.75 M212.5,13.75c-0.827,0-1.5,0.673-1.5,1.5v8c0,0.827,0.673,1.5,1.5,1.5s1.5-0.673,1.5-1.5
				v-8C214,14.423,213.327,13.75,212.5,13.75L212.5,13.75z"/>
		</g>
		<g>
			<g>
				<path fill="#FFFFFF" d="M209,7.625v-0.5c0-0.276-0.224-0.5-0.5-0.5s-0.5,0.224-0.5,0.5v0.5h-2v-0.5c0-1.378,1.122-2.5,2.5-2.5
					s2.5,1.122,2.5,2.5v0.5H209z"/>
				<path d="M208.5,5.125c1.103,0,2,0.896,2,2h-1c0-0.551-0.448-1-1-1s-1,0.449-1,1h-1C206.5,6.021,207.397,5.125,208.5,5.125
					 M208.5,4.125c-1.654,0-3,1.346-3,3v1h1h1h1v-1v1h1h1h1v-1C211.5,5.471,210.154,4.125,208.5,4.125L208.5,4.125z"/>
			</g>
		</g>
		<g>
			<g>
				<path fill="#FFFFFF" d="M237.5,8V7c0-1.654,1.346-3,3-3s3,1.346,3,3v1H237.5z"/>
				<path d="M240.5,5c1.103,0,2,0.896,2,2h-1c0-0.551-0.448-1-1-1s-1,0.449-1,1h-1C238.5,5.896,239.397,5,240.5,5 M240.5,3
					c-2.206,0-4,1.794-4,4v2h2h1h2h1h2V7C244.5,4.794,242.706,3,240.5,3L240.5,3z"/>
			</g>
		</g>
		<g>
			<path fill="#FFFFFF" d="M250,9c0,1.1-0.9,2-2,2h-15c-1.1,0-2-0.9-2-2l0,0c0-1.1,0.9-2,2-2h15C249.1,7,250,7.9,250,9L250,9z"/>
			<path fill="none" stroke="#000000" stroke-width="2" stroke-linecap="round" stroke-linejoin="round" stroke-miterlimit="10" d="
				M250,9c0,1.1-0.9,2-2,2h-15c-1.1,0-2-0.9-2-2l0,0c0-1.1,0.9-2,2-2h15C249.1,7,250,7.9,250,9L250,9z"/>
		</g>
		<g>
			<path fill="#FFFFFF" d="M248,23.875c0,1.65-1.35,3-3,3h-9c-1.65,0-3-1.35-3-3v-11c0-1.65,1.35-3,3-3h9c1.65,0,3,1.35,3,3V23.875z
				"/>
			<path fill="none" stroke="#000000" stroke-width="2" stroke-linecap="round" stroke-linejoin="round" stroke-miterlimit="10" d="
				M248,23.875c0,1.65-1.35,3-3,3h-9c-1.65,0-3-1.35-3-3v-11c0-1.65,1.35-3,3-3h9c1.65,0,3,1.35,3,3V23.875z"/>
		</g>
		<g>
			<path fill="#FFFFFF" d="M233,10.5c-0.827,0-1.5-0.673-1.5-1.5s0.673-1.5,1.5-1.5h15c0.827,0,1.5,0.673,1.5,1.5
				s-0.673,1.5-1.5,1.5H233z"/>
			<path d="M248,8c0.551,0,1,0.449,1,1s-0.449,1-1,1h-15c-0.551,0-1-0.449-1-1s0.449-1,1-1H248 M248,7h-15c-1.1,0-2,0.9-2,2
				s0.9,2,2,2h15c1.1,0,2-0.9,2-2S249.1,7,248,7L248,7z"/>
		</g>
		<g>
			<path d="M236.5,14.875c0.276,0,0.5,0.224,0.5,0.5v8c0,0.275-0.224,0.5-0.5,0.5s-0.5-0.225-0.5-0.5v-8
				C236,15.099,236.224,14.875,236.5,14.875 M236.5,13.875c-0.827,0-1.5,0.673-1.5,1.5v8c0,0.827,0.673,1.5,1.5,1.5
				s1.5-0.673,1.5-1.5v-8C238,14.548,237.327,13.875,236.5,13.875L236.5,13.875z"/>
		</g>
		<g>
			<path d="M240.5,14.875c0.276,0,0.5,0.224,0.5,0.5v8c0,0.275-0.224,0.5-0.5,0.5s-0.5-0.225-0.5-0.5v-8
				C240,15.099,240.224,14.875,240.5,14.875 M240.5,13.875c-0.827,0-1.5,0.673-1.5,1.5v8c0,0.827,0.673,1.5,1.5,1.5
				s1.5-0.673,1.5-1.5v-8C242,14.548,241.327,13.875,240.5,13.875L240.5,13.875z"/>
		</g>
		<g>
			<path d="M244.5,14.875c0.276,0,0.5,0.224,0.5,0.5v8c0,0.275-0.224,0.5-0.5,0.5s-0.5-0.225-0.5-0.5v-8
				C244,15.099,244.224,14.875,244.5,14.875 M244.5,13.875c-0.827,0-1.5,0.673-1.5,1.5v8c0,0.827,0.673,1.5,1.5,1.5
				s1.5-0.673,1.5-1.5v-8C246,14.548,245.327,13.875,244.5,13.875L244.5,13.875z"/>
		</g>
		<g>
			<g>
				<path fill="#FFFFFF" d="M241,7.5V7c0-0.276-0.224-0.5-0.5-0.5S240,6.724,240,7v0.5h-2V7c0-1.378,1.122-2.5,2.5-2.5
					S243,5.622,243,7v0.5H241z"/>
				<path d="M240.5,5c1.103,0,2,0.896,2,2h-1c0-0.551-0.448-1-1-1s-1,0.449-1,1h-1C238.5,5.896,239.397,5,240.5,5 M240.5,4
					c-1.654,0-3,1.346-3,3v1h1h1h1V7v1h1h1h1V7C243.5,5.346,242.154,4,240.5,4L240.5,4z"/>
			</g>
		</g>
		<g>
			<g>
				<path fill="#FFFFFF" d="M269.5,7.875v-1c0-1.654,1.346-3,3-3s3,1.346,3,3v1H269.5z"/>
				<path d="M272.5,4.875c1.104,0,2,0.896,2,2h-1c0-0.551-0.448-1-1-1s-1,0.449-1,1h-1C270.5,5.771,271.396,4.875,272.5,4.875
					 M272.5,2.875c-2.206,0-4,1.794-4,4v2h2h1h2h1h2v-2C276.5,4.669,274.706,2.875,272.5,2.875L272.5,2.875z"/>
			</g>
		</g>
		<g>
			<path fill="#FFFFFF" d="M282,8.875c0,1.1-0.9,2-2,2h-15c-1.1,0-2-0.9-2-2l0,0c0-1.1,0.9-2,2-2h15
				C281.1,6.875,282,7.775,282,8.875L282,8.875z"/>
			<path fill="none" stroke="#000000" stroke-width="2" stroke-linecap="round" stroke-linejoin="round" stroke-miterlimit="10" d="
				M282,8.875c0,1.1-0.9,2-2,2h-15c-1.1,0-2-0.9-2-2l0,0c0-1.1,0.9-2,2-2h15C281.1,6.875,282,7.775,282,8.875L282,8.875z"/>
		</g>
		<g>
			<path fill="#FFFFFF" d="M280,24c0,1.65-1.35,3-3,3h-9c-1.65,0-3-1.35-3-3V13c0-1.65,1.35-3,3-3h9c1.65,0,3,1.35,3,3V24z"/>
			<path fill="none" stroke="#000000" stroke-width="2" stroke-linecap="round" stroke-linejoin="round" stroke-miterlimit="10" d="
				M280,24c0,1.65-1.35,3-3,3h-9c-1.65,0-3-1.35-3-3V13c0-1.65,1.35-3,3-3h9c1.65,0,3,1.35,3,3V24z"/>
		</g>
		<g>
			<path fill="#FFFFFF" d="M265,10.375c-0.827,0-1.5-0.673-1.5-1.5s0.673-1.5,1.5-1.5h15c0.827,0,1.5,0.673,1.5,1.5
				s-0.673,1.5-1.5,1.5H265z"/>
			<path d="M280,7.875c0.551,0,1,0.449,1,1s-0.449,1-1,1h-15c-0.551,0-1-0.449-1-1s0.449-1,1-1H280 M280,6.875h-15c-1.1,0-2,0.9-2,2
				s0.9,2,2,2h15c1.1,0,2-0.9,2-2S281.1,6.875,280,6.875L280,6.875z"/>
		</g>
		<g>
			<path d="M268.5,15c0.275,0,0.5,0.224,0.5,0.5v8c0,0.275-0.225,0.5-0.5,0.5s-0.5-0.225-0.5-0.5v-8C268,15.224,268.225,15,268.5,15
				 M268.5,14c-0.827,0-1.5,0.673-1.5,1.5v8c0,0.827,0.673,1.5,1.5,1.5s1.5-0.673,1.5-1.5v-8C270,14.673,269.327,14,268.5,14
				L268.5,14z"/>
		</g>
		<g>
			<path d="M272.5,15c0.275,0,0.5,0.224,0.5,0.5v8c0,0.275-0.225,0.5-0.5,0.5s-0.5-0.225-0.5-0.5v-8C272,15.224,272.225,15,272.5,15
				 M272.5,14c-0.827,0-1.5,0.673-1.5,1.5v8c0,0.827,0.673,1.5,1.5,1.5s1.5-0.673,1.5-1.5v-8C274,14.673,273.327,14,272.5,14
				L272.5,14z"/>
		</g>
		<g>
			<path d="M276.5,15c0.275,0,0.5,0.224,0.5,0.5v8c0,0.275-0.225,0.5-0.5,0.5s-0.5-0.225-0.5-0.5v-8C276,15.224,276.225,15,276.5,15
				 M276.5,14c-0.827,0-1.5,0.673-1.5,1.5v8c0,0.827,0.673,1.5,1.5,1.5s1.5-0.673,1.5-1.5v-8C278,14.673,277.327,14,276.5,14
				L276.5,14z"/>
		</g>
		<g>
			<g>
				<path fill="#FFFFFF" d="M273,7.375v-0.5c0-0.276-0.225-0.5-0.5-0.5s-0.5,0.224-0.5,0.5v0.5h-2v-0.5c0-1.378,1.122-2.5,2.5-2.5
					s2.5,1.122,2.5,2.5v0.5H273z"/>
				<path d="M272.5,4.875c1.104,0,2,0.896,2,2h-1c0-0.551-0.448-1-1-1s-1,0.449-1,1h-1C270.5,5.771,271.396,4.875,272.5,4.875
					 M272.5,3.875c-1.654,0-3,1.346-3,3v1h1h1h1v-1v1h1h1h1v-1C275.5,5.221,274.154,3.875,272.5,3.875L272.5,3.875z"/>
			</g>
		</g>
		<g>
			<g>
				<path fill="#FFFFFF" d="M301.5,7.75v-1c0-1.654,1.346-3,3-3s3,1.346,3,3v1H301.5z"/>
				<path d="M304.5,4.75c1.104,0,2,0.896,2,2h-1c0-0.551-0.448-1-1-1s-1,0.449-1,1h-1C302.5,5.646,303.396,4.75,304.5,4.75
					 M304.5,2.75c-2.206,0-4,1.794-4,4v2h2h1h2h1h2v-2C308.5,4.544,306.706,2.75,304.5,2.75L304.5,2.75z"/>
			</g>
		</g>
		<g>
			<path fill="#FFFFFF" d="M314,8.75c0,1.1-0.9,2-2,2h-15c-1.1,0-2-0.9-2-2l0,0c0-1.1,0.9-2,2-2h15C313.1,6.75,314,7.65,314,8.75
				L314,8.75z"/>
			<path fill="none" stroke="#000000" stroke-width="2" stroke-linecap="round" stroke-linejoin="round" stroke-miterlimit="10" d="
				M314,8.75c0,1.1-0.9,2-2,2h-15c-1.1,0-2-0.9-2-2l0,0c0-1.1,0.9-2,2-2h15C313.1,6.75,314,7.65,314,8.75L314,8.75z"/>
		</g>
		<g>
			<path fill="#FFFFFF" d="M312,24.125c0,1.65-1.35,3-3,3h-9c-1.65,0-3-1.35-3-3v-11c0-1.65,1.35-3,3-3h9c1.65,0,3,1.35,3,3V24.125z
				"/>
			<path fill="none" stroke="#000000" stroke-width="2" stroke-linecap="round" stroke-linejoin="round" stroke-miterlimit="10" d="
				M312,24.125c0,1.65-1.35,3-3,3h-9c-1.65,0-3-1.35-3-3v-11c0-1.65,1.35-3,3-3h9c1.65,0,3,1.35,3,3V24.125z"/>
		</g>
		<g>
			<path fill="#FFFFFF" d="M297,10.25c-0.827,0-1.5-0.673-1.5-1.5s0.673-1.5,1.5-1.5h15c0.827,0,1.5,0.673,1.5,1.5
				s-0.673,1.5-1.5,1.5H297z"/>
			<path d="M312,7.75c0.552,0,1,0.449,1,1s-0.448,1-1,1h-15c-0.552,0-1-0.449-1-1s0.448-1,1-1H312 M312,6.75h-15c-1.1,0-2,0.9-2,2
				s0.9,2,2,2h15c1.1,0,2-0.9,2-2S313.1,6.75,312,6.75L312,6.75z"/>
		</g>
		<g>
			<path d="M300.5,15.125c0.275,0,0.5,0.224,0.5,0.5v8c0,0.275-0.225,0.5-0.5,0.5s-0.5-0.225-0.5-0.5v-8
				C300,15.349,300.225,15.125,300.5,15.125 M300.5,14.125c-0.827,0-1.5,0.673-1.5,1.5v8c0,0.827,0.673,1.5,1.5,1.5
				s1.5-0.673,1.5-1.5v-8C302,14.798,301.327,14.125,300.5,14.125L300.5,14.125z"/>
		</g>
		<g>
			<path d="M304.5,15.125c0.275,0,0.5,0.224,0.5,0.5v8c0,0.275-0.225,0.5-0.5,0.5s-0.5-0.225-0.5-0.5v-8
				C304,15.349,304.225,15.125,304.5,15.125 M304.5,14.125c-0.827,0-1.5,0.673-1.5,1.5v8c0,0.827,0.673,1.5,1.5,1.5
				s1.5-0.673,1.5-1.5v-8C306,14.798,305.327,14.125,304.5,14.125L304.5,14.125z"/>
		</g>
		<g>
			<path d="M308.5,15.125c0.276,0,0.5,0.224,0.5,0.5v8c0,0.275-0.224,0.5-0.5,0.5s-0.5-0.225-0.5-0.5v-8
				C308,15.349,308.224,15.125,308.5,15.125 M308.5,14.125c-0.827,0-1.5,0.673-1.5,1.5v8c0,0.827,0.673,1.5,1.5,1.5
				s1.5-0.673,1.5-1.5v-8C310,14.798,309.327,14.125,308.5,14.125L308.5,14.125z"/>
		</g>
		<g>
			<g>
				<path fill="#FFFFFF" d="M305,7.25v-0.5c0-0.276-0.225-0.5-0.5-0.5s-0.5,0.224-0.5,0.5v0.5h-2v-0.5c0-1.378,1.121-2.5,2.5-2.5
					s2.5,1.122,2.5,2.5v0.5H305z"/>
				<path d="M304.5,4.75c1.104,0,2,0.896,2,2h-1c0-0.551-0.448-1-1-1s-1,0.449-1,1h-1C302.5,5.646,303.396,4.75,304.5,4.75
					 M304.5,3.75c-1.654,0-3,1.346-3,3v1h1h1h1v-1v1h1h1h1v-1C307.5,5.096,306.154,3.75,304.5,3.75L304.5,3.75z"/>
			</g>
		</g>
		<g>
			<g>
				<path fill="#FFFFFF" d="M333.5,7.625v-1c0-1.654,1.346-3,3-3s3,1.346,3,3v1H333.5z"/>
				<path d="M336.5,4.625c1.103,0,2,0.896,2,2h-1c0-0.551-0.448-1-1-1s-1,0.449-1,1h-1C334.5,5.521,335.397,4.625,336.5,4.625
					 M336.5,2.625c-2.206,0-4,1.794-4,4v2h2h1h2h1h2v-2C340.5,4.419,338.706,2.625,336.5,2.625L336.5,2.625z"/>
			</g>
		</g>
		<g>
			<path fill="#FFFFFF" d="M346,8.625c0,1.1-0.9,2-2,2h-15c-1.1,0-2-0.9-2-2l0,0c0-1.1,0.9-2,2-2h15
				C345.1,6.625,346,7.525,346,8.625L346,8.625z"/>
			<path fill="none" stroke="#000000" stroke-width="2" stroke-linecap="round" stroke-linejoin="round" stroke-miterlimit="10" d="
				M346,8.625c0,1.1-0.9,2-2,2h-15c-1.1,0-2-0.9-2-2l0,0c0-1.1,0.9-2,2-2h15C345.1,6.625,346,7.525,346,8.625L346,8.625z"/>
		</g>
		<g>
			<path fill="#FFFFFF" d="M344,24.25c0,1.65-1.35,3-3,3h-9c-1.65,0-3-1.35-3-3v-11c0-1.65,1.35-3,3-3h9c1.65,0,3,1.35,3,3V24.25z"
				/>
			<path fill="none" stroke="#000000" stroke-width="2" stroke-linecap="round" stroke-linejoin="round" stroke-miterlimit="10" d="
				M344,24.25c0,1.65-1.35,3-3,3h-9c-1.65,0-3-1.35-3-3v-11c0-1.65,1.35-3,3-3h9c1.65,0,3,1.35,3,3V24.25z"/>
		</g>
		<g>
			<path fill="#FFFFFF" d="M329,10.125c-0.827,0-1.5-0.673-1.5-1.5s0.673-1.5,1.5-1.5h15c0.827,0,1.5,0.673,1.5,1.5
				s-0.673,1.5-1.5,1.5H329z"/>
			<path d="M344,7.625c0.552,0,1,0.449,1,1s-0.448,1-1,1h-15c-0.552,0-1-0.449-1-1s0.448-1,1-1H344 M344,6.625h-15c-1.1,0-2,0.9-2,2
				s0.9,2,2,2h15c1.1,0,2-0.9,2-2S345.1,6.625,344,6.625L344,6.625z"/>
		</g>
		<g>
			<path d="M332.5,15.25c0.276,0,0.5,0.224,0.5,0.5v8c0,0.275-0.224,0.5-0.5,0.5s-0.5-0.225-0.5-0.5v-8
				C332,15.474,332.224,15.25,332.5,15.25 M332.5,14.25c-0.827,0-1.5,0.673-1.5,1.5v8c0,0.827,0.673,1.5,1.5,1.5s1.5-0.673,1.5-1.5
				v-8C334,14.923,333.327,14.25,332.5,14.25L332.5,14.25z"/>
		</g>
		<g>
			<path d="M336.5,15.25c0.276,0,0.5,0.224,0.5,0.5v8c0,0.275-0.224,0.5-0.5,0.5s-0.5-0.225-0.5-0.5v-8
				C336,15.474,336.224,15.25,336.5,15.25 M336.5,14.25c-0.827,0-1.5,0.673-1.5,1.5v8c0,0.827,0.673,1.5,1.5,1.5s1.5-0.673,1.5-1.5
				v-8C338,14.923,337.327,14.25,336.5,14.25L336.5,14.25z"/>
		</g>
		<g>
			<path d="M340.5,15.25c0.276,0,0.5,0.224,0.5,0.5v8c0,0.275-0.224,0.5-0.5,0.5s-0.5-0.225-0.5-0.5v-8
				C340,15.474,340.224,15.25,340.5,15.25 M340.5,14.25c-0.827,0-1.5,0.673-1.5,1.5v8c0,0.827,0.673,1.5,1.5,1.5s1.5-0.673,1.5-1.5
				v-8C342,14.923,341.327,14.25,340.5,14.25L340.5,14.25z"/>
		</g>
		<g>
			<g>
				<path fill="#FFFFFF" d="M337,7.125v-0.5c0-0.276-0.225-0.5-0.5-0.5s-0.5,0.224-0.5,0.5v0.5h-2v-0.5c0-1.378,1.121-2.5,2.5-2.5
					s2.5,1.122,2.5,2.5v0.5H337z"/>
				<path d="M336.5,4.625c1.103,0,2,0.896,2,2h-1c0-0.551-0.448-1-1-1s-1,0.449-1,1h-1C334.5,5.521,335.397,4.625,336.5,4.625
					 M336.5,3.625c-1.654,0-3,1.346-3,3v1h1h1h1v-1v1h1h1h1v-1C339.5,4.971,338.154,3.625,336.5,3.625L336.5,3.625z"/>
			</g>
		</g>
		<g>
			<g>
				<path fill="#FFFFFF" d="M365.5,7.5v-1c0-1.654,1.346-3,3-3s3,1.346,3,3v1H365.5z"/>
				<path d="M368.5,4.5c1.103,0,2,0.896,2,2h-1c0-0.551-0.448-1-1-1s-1,0.449-1,1h-1C366.5,5.396,367.397,4.5,368.5,4.5 M368.5,2.5
					c-2.206,0-4,1.794-4,4v2h2h1h2h1h2v-2C372.5,4.294,370.706,2.5,368.5,2.5L368.5,2.5z"/>
			</g>
		</g>
		<g>
			<path fill="#FFFFFF" d="M378,8.5c0,1.1-0.9,2-2,2h-15c-1.1,0-2-0.9-2-2l0,0c0-1.1,0.9-2,2-2h15C377.1,6.5,378,7.4,378,8.5
				L378,8.5z"/>
			<path fill="none" stroke="#000000" stroke-width="2" stroke-linecap="round" stroke-linejoin="round" stroke-miterlimit="10" d="
				M378,8.5c0,1.1-0.9,2-2,2h-15c-1.1,0-2-0.9-2-2l0,0c0-1.1,0.9-2,2-2h15C377.1,6.5,378,7.4,378,8.5L378,8.5z"/>
		</g>
		<g>
			<path fill="#FFFFFF" d="M376,24.375c0,1.65-1.35,3-3,3h-9c-1.65,0-3-1.35-3-3v-11c0-1.65,1.35-3,3-3h9c1.65,0,3,1.35,3,3V24.375z
				"/>
			<path fill="none" stroke="#000000" stroke-width="2" stroke-linecap="round" stroke-linejoin="round" stroke-miterlimit="10" d="
				M376,24.375c0,1.65-1.35,3-3,3h-9c-1.65,0-3-1.35-3-3v-11c0-1.65,1.35-3,3-3h9c1.65,0,3,1.35,3,3V24.375z"/>
		</g>
		<g>
			<path fill="#FFFFFF" d="M361,10c-0.827,0-1.5-0.673-1.5-1.5S360.173,7,361,7h15c0.827,0,1.5,0.673,1.5,1.5S376.827,10,376,10H361
				z"/>
			<path d="M376,7.5c0.552,0,1,0.449,1,1s-0.448,1-1,1h-15c-0.552,0-1-0.449-1-1s0.448-1,1-1H376 M376,6.5h-15c-1.1,0-2,0.9-2,2
				s0.9,2,2,2h15c1.1,0,2-0.9,2-2S377.1,6.5,376,6.5L376,6.5z"/>
		</g>
		<g>
			<path d="M364.5,15.375c0.276,0,0.5,0.224,0.5,0.5v8c0,0.275-0.224,0.5-0.5,0.5s-0.5-0.225-0.5-0.5v-8
				C364,15.599,364.224,15.375,364.5,15.375 M364.5,14.375c-0.827,0-1.5,0.673-1.5,1.5v8c0,0.827,0.673,1.5,1.5,1.5
				s1.5-0.673,1.5-1.5v-8C366,15.048,365.327,14.375,364.5,14.375L364.5,14.375z"/>
		</g>
		<g>
			<path d="M368.5,15.375c0.276,0,0.5,0.224,0.5,0.5v8c0,0.275-0.224,0.5-0.5,0.5s-0.5-0.225-0.5-0.5v-8
				C368,15.599,368.224,15.375,368.5,15.375 M368.5,14.375c-0.827,0-1.5,0.673-1.5,1.5v8c0,0.827,0.673,1.5,1.5,1.5
				s1.5-0.673,1.5-1.5v-8C370,15.048,369.327,14.375,368.5,14.375L368.5,14.375z"/>
		</g>
		<g>
			<path d="M372.5,15.375c0.276,0,0.5,0.224,0.5,0.5v8c0,0.275-0.224,0.5-0.5,0.5s-0.5-0.225-0.5-0.5v-8
				C372,15.599,372.224,15.375,372.5,15.375 M372.5,14.375c-0.827,0-1.5,0.673-1.5,1.5v8c0,0.827,0.673,1.5,1.5,1.5
				s1.5-0.673,1.5-1.5v-8C374,15.048,373.327,14.375,372.5,14.375L372.5,14.375z"/>
		</g>
		<g>
			<g>
				<path fill="#FFFFFF" d="M369,7V6.5c0-0.276-0.225-0.5-0.5-0.5S368,6.224,368,6.5V7h-2V6.5c0-1.378,1.121-2.5,2.5-2.5
					s2.5,1.122,2.5,2.5V7H369z"/>
				<path d="M368.5,4.5c1.103,0,2,0.896,2,2h-1c0-0.551-0.448-1-1-1s-1,0.449-1,1h-1C366.5,5.396,367.397,4.5,368.5,4.5 M368.5,3.5
					c-1.654,0-3,1.346-3,3v1h1h1h1v-1v1h1h1h1v-1C371.5,4.846,370.154,3.5,368.5,3.5L368.5,3.5z"/>
			</g>
		</g>
		<g>
			<g>
				<path fill="#FFFFFF" d="M397.5,7.375v-1c0-1.654,1.346-3,3-3s3,1.346,3,3v1H397.5z"/>
				<path d="M400.5,4.375c1.103,0,2,0.896,2,2h-1c0-0.551-0.448-1-1-1s-1,0.449-1,1h-1C398.5,5.271,399.397,4.375,400.5,4.375
					 M400.5,2.375c-2.206,0-4,1.794-4,4v2h2h1h2h1h2v-2C404.5,4.169,402.706,2.375,400.5,2.375L400.5,2.375z"/>
			</g>
		</g>
		<g>
			<path fill="#FFFFFF" d="M410,8.375c0,1.1-0.9,2-2,2h-15c-1.1,0-2-0.9-2-2l0,0c0-1.1,0.9-2,2-2h15
				C409.1,6.375,410,7.275,410,8.375L410,8.375z"/>
			<path fill="none" stroke="#000000" stroke-width="2" stroke-linecap="round" stroke-linejoin="round" stroke-miterlimit="10" d="
				M410,8.375c0,1.1-0.9,2-2,2h-15c-1.1,0-2-0.9-2-2l0,0c0-1.1,0.9-2,2-2h15C409.1,6.375,410,7.275,410,8.375L410,8.375z"/>
		</g>
		<g>
			<path fill="#FFFFFF" d="M408,24.5c0,1.65-1.35,3-3,3h-9c-1.65,0-3-1.35-3-3v-11c0-1.65,1.35-3,3-3h9c1.65,0,3,1.35,3,3V24.5z"/>
			<path fill="none" stroke="#000000" stroke-width="2" stroke-linecap="round" stroke-linejoin="round" stroke-miterlimit="10" d="
				M408,24.5c0,1.65-1.35,3-3,3h-9c-1.65,0-3-1.35-3-3v-11c0-1.65,1.35-3,3-3h9c1.65,0,3,1.35,3,3V24.5z"/>
		</g>
		<g>
			<path fill="#FFFFFF" d="M393,9.875c-0.827,0-1.5-0.673-1.5-1.5s0.673-1.5,1.5-1.5h15c0.827,0,1.5,0.673,1.5,1.5
				s-0.673,1.5-1.5,1.5H393z"/>
			<path d="M408,7.375c0.552,0,1,0.449,1,1s-0.448,1-1,1h-15c-0.552,0-1-0.449-1-1s0.448-1,1-1H408 M408,6.375h-15c-1.1,0-2,0.9-2,2
				s0.9,2,2,2h15c1.1,0,2-0.9,2-2S409.1,6.375,408,6.375L408,6.375z"/>
		</g>
		<g>
			<path d="M396.5,15.5c0.276,0,0.5,0.224,0.5,0.5v8c0,0.275-0.224,0.5-0.5,0.5S396,24.275,396,24v-8
				C396,15.724,396.224,15.5,396.5,15.5 M396.5,14.5c-0.827,0-1.5,0.673-1.5,1.5v8c0,0.827,0.673,1.5,1.5,1.5s1.5-0.673,1.5-1.5v-8
				C398,15.173,397.327,14.5,396.5,14.5L396.5,14.5z"/>
		</g>
		<g>
			<path d="M400.5,15.5c0.276,0,0.5,0.224,0.5,0.5v8c0,0.275-0.224,0.5-0.5,0.5S400,24.275,400,24v-8
				C400,15.724,400.224,15.5,400.5,15.5 M400.5,14.5c-0.827,0-1.5,0.673-1.5,1.5v8c0,0.827,0.673,1.5,1.5,1.5s1.5-0.673,1.5-1.5v-8
				C402,15.173,401.327,14.5,400.5,14.5L400.5,14.5z"/>
		</g>
		<g>
			<path d="M404.5,15.5c0.276,0,0.5,0.224,0.5,0.5v8c0,0.275-0.224,0.5-0.5,0.5S404,24.275,404,24v-8
				C404,15.724,404.224,15.5,404.5,15.5 M404.5,14.5c-0.827,0-1.5,0.673-1.5,1.5v8c0,0.827,0.673,1.5,1.5,1.5s1.5-0.673,1.5-1.5v-8
				C406,15.173,405.327,14.5,404.5,14.5L404.5,14.5z"/>
		</g>
		<g>
			<g>
				<path fill="#FFFFFF" d="M401,6.875v-0.5c0-0.276-0.225-0.5-0.5-0.5s-0.5,0.224-0.5,0.5v0.5h-2v-0.5c0-1.378,1.121-2.5,2.5-2.5
					s2.5,1.122,2.5,2.5v0.5H401z"/>
				<path d="M400.5,4.375c1.103,0,2,0.896,2,2h-1c0-0.551-0.448-1-1-1s-1,0.449-1,1h-1C398.5,5.271,399.397,4.375,400.5,4.375
					 M400.5,3.375c-1.654,0-3,1.346-3,3v1h1h1h1v-1v1h1h1h1v-1C403.5,4.721,402.154,3.375,400.5,3.375L400.5,3.375z"/>
			</g>
		</g>
		<g>
			<g>
				<path fill="#FFFFFF" d="M429.5,7.25v-1c0-1.654,1.346-3,3-3s3,1.346,3,3v1H429.5z"/>
				<path d="M432.5,4.25c1.103,0,2,0.896,2,2h-1c0-0.551-0.448-1-1-1s-1,0.449-1,1h-1C430.5,5.146,431.397,4.25,432.5,4.25
					 M432.5,2.25c-2.206,0-4,1.794-4,4v2h2h1h2h1h2v-2C436.5,4.044,434.706,2.25,432.5,2.25L432.5,2.25z"/>
			</g>
		</g>
		<g>
			<path fill="#FFFFFF" d="M442,8.25c0,1.1-0.9,2-2,2h-15c-1.1,0-2-0.9-2-2l0,0c0-1.1,0.9-2,2-2h15C441.1,6.25,442,7.15,442,8.25
				L442,8.25z"/>
			<path fill="none" stroke="#000000" stroke-width="2" stroke-linecap="round" stroke-linejoin="round" stroke-miterlimit="10" d="
				M442,8.25c0,1.1-0.9,2-2,2h-15c-1.1,0-2-0.9-2-2l0,0c0-1.1,0.9-2,2-2h15C441.1,6.25,442,7.15,442,8.25L442,8.25z"/>
		</g>
		<g>
			<path fill="#FFFFFF" d="M440,24.625c0,1.65-1.35,3-3,3h-9c-1.65,0-3-1.35-3-3v-11c0-1.65,1.35-3,3-3h9c1.65,0,3,1.35,3,3V24.625z
				"/>
			<path fill="none" stroke="#000000" stroke-width="2" stroke-linecap="round" stroke-linejoin="round" stroke-miterlimit="10" d="
				M440,24.625c0,1.65-1.35,3-3,3h-9c-1.65,0-3-1.35-3-3v-11c0-1.65,1.35-3,3-3h9c1.65,0,3,1.35,3,3V24.625z"/>
		</g>
		<g>
			<path fill="#FFFFFF" d="M425,9.75c-0.827,0-1.5-0.673-1.5-1.5s0.673-1.5,1.5-1.5h15c0.827,0,1.5,0.673,1.5,1.5
				s-0.673,1.5-1.5,1.5H425z"/>
			<path d="M440,7.25c0.552,0,1,0.449,1,1s-0.448,1-1,1h-15c-0.552,0-1-0.449-1-1s0.448-1,1-1H440 M440,6.25h-15c-1.1,0-2,0.9-2,2
				s0.9,2,2,2h15c1.1,0,2-0.9,2-2S441.1,6.25,440,6.25L440,6.25z"/>
		</g>
		<g>
			<path d="M428.5,15.625c0.276,0,0.5,0.224,0.5,0.5v8c0,0.275-0.224,0.5-0.5,0.5s-0.5-0.225-0.5-0.5v-8
				C428,15.849,428.224,15.625,428.5,15.625 M428.5,14.625c-0.827,0-1.5,0.673-1.5,1.5v8c0,0.827,0.673,1.5,1.5,1.5
				s1.5-0.673,1.5-1.5v-8C430,15.298,429.327,14.625,428.5,14.625L428.5,14.625z"/>
		</g>
		<g>
			<path d="M432.5,15.625c0.276,0,0.5,0.224,0.5,0.5v8c0,0.275-0.224,0.5-0.5,0.5s-0.5-0.225-0.5-0.5v-8
				C432,15.849,432.224,15.625,432.5,15.625 M432.5,14.625c-0.827,0-1.5,0.673-1.5,1.5v8c0,0.827,0.673,1.5,1.5,1.5
				s1.5-0.673,1.5-1.5v-8C434,15.298,433.327,14.625,432.5,14.625L432.5,14.625z"/>
		</g>
		<g>
			<path d="M436.5,15.625c0.276,0,0.5,0.224,0.5,0.5v8c0,0.275-0.224,0.5-0.5,0.5s-0.5-0.225-0.5-0.5v-8
				C436,15.849,436.224,15.625,436.5,15.625 M436.5,14.625c-0.827,0-1.5,0.673-1.5,1.5v8c0,0.827,0.673,1.5,1.5,1.5
				s1.5-0.673,1.5-1.5v-8C438,15.298,437.327,14.625,436.5,14.625L436.5,14.625z"/>
		</g>
		<g>
			<g>
				<path fill="#FFFFFF" d="M433,6.75v-0.5c0-0.276-0.225-0.5-0.5-0.5s-0.5,0.224-0.5,0.5v0.5h-2v-0.5c0-1.378,1.121-2.5,2.5-2.5
					s2.5,1.122,2.5,2.5v0.5H433z"/>
				<path d="M432.5,4.25c1.103,0,2,0.896,2,2h-1c0-0.551-0.448-1-1-1s-1,0.449-1,1h-1C430.5,5.146,431.397,4.25,432.5,4.25
					 M432.5,3.25c-1.654,0-3,1.346-3,3v1h1h1h1v-1v1h1h1h1v-1C435.5,4.596,434.154,3.25,432.5,3.25L432.5,3.25z"/>
			</g>
		</g>
		<g>
			<g>
				<path fill="#FFFFFF" d="M461.5,7.125v-1c0-1.654,1.346-3,3-3s3,1.346,3,3v1H461.5z"/>
				<path d="M464.5,4.125c1.103,0,2,0.896,2,2h-1c0-0.551-0.448-1-1-1s-1,0.449-1,1h-1C462.5,5.021,463.397,4.125,464.5,4.125
					 M464.5,2.125c-2.206,0-4,1.794-4,4v2h2h1h2h1h2v-2C468.5,3.919,466.706,2.125,464.5,2.125L464.5,2.125z"/>
			</g>
		</g>
		<g>
			<path fill="#FFFFFF" d="M474,8.125c0,1.1-0.9,2-2,2h-15c-1.1,0-2-0.9-2-2l0,0c0-1.1,0.9-2,2-2h15
				C473.1,6.125,474,7.025,474,8.125L474,8.125z"/>
			<path fill="none" stroke="#000000" stroke-width="2" stroke-linecap="round" stroke-linejoin="round" stroke-miterlimit="10" d="
				M474,8.125c0,1.1-0.9,2-2,2h-15c-1.1,0-2-0.9-2-2l0,0c0-1.1,0.9-2,2-2h15C473.1,6.125,474,7.025,474,8.125L474,8.125z"/>
		</g>
		<g>
			<path fill="#FFFFFF" d="M472,24.75c0,1.65-1.35,3-3,3h-9c-1.65,0-3-1.35-3-3v-11c0-1.65,1.35-3,3-3h9c1.65,0,3,1.35,3,3V24.75z"
				/>
			<path fill="none" stroke="#000000" stroke-width="2" stroke-linecap="round" stroke-linejoin="round" stroke-miterlimit="10" d="
				M472,24.75c0,1.65-1.35,3-3,3h-9c-1.65,0-3-1.35-3-3v-11c0-1.65,1.35-3,3-3h9c1.65,0,3,1.35,3,3V24.75z"/>
		</g>
		<g>
			<path fill="#FFFFFF" d="M457,9.625c-0.827,0-1.5-0.673-1.5-1.5s0.673-1.5,1.5-1.5h15c0.827,0,1.5,0.673,1.5,1.5
				s-0.673,1.5-1.5,1.5H457z"/>
			<path d="M472,7.125c0.552,0,1,0.449,1,1s-0.448,1-1,1h-15c-0.552,0-1-0.449-1-1s0.448-1,1-1H472 M472,6.125h-15c-1.1,0-2,0.9-2,2
				s0.9,2,2,2h15c1.1,0,2-0.9,2-2S473.1,6.125,472,6.125L472,6.125z"/>
		</g>
		<g>
			<path d="M460.5,15.75c0.276,0,0.5,0.224,0.5,0.5v8c0,0.275-0.224,0.5-0.5,0.5s-0.5-0.225-0.5-0.5v-8
				C460,15.974,460.224,15.75,460.5,15.75 M460.5,14.75c-0.827,0-1.5,0.673-1.5,1.5v8c0,0.827,0.673,1.5,1.5,1.5s1.5-0.673,1.5-1.5
				v-8C462,15.423,461.327,14.75,460.5,14.75L460.5,14.75z"/>
		</g>
		<g>
			<path d="M464.5,15.75c0.276,0,0.5,0.224,0.5,0.5v8c0,0.275-0.224,0.5-0.5,0.5s-0.5-0.225-0.5-0.5v-8
				C464,15.974,464.224,15.75,464.5,15.75 M464.5,14.75c-0.827,0-1.5,0.673-1.5,1.5v8c0,0.827,0.673,1.5,1.5,1.5s1.5-0.673,1.5-1.5
				v-8C466,15.423,465.327,14.75,464.5,14.75L464.5,14.75z"/>
		</g>
		<g>
			<path d="M468.5,15.75c0.276,0,0.5,0.224,0.5,0.5v8c0,0.275-0.224,0.5-0.5,0.5s-0.5-0.225-0.5-0.5v-8
				C468,15.974,468.224,15.75,468.5,15.75 M468.5,14.75c-0.827,0-1.5,0.673-1.5,1.5v8c0,0.827,0.673,1.5,1.5,1.5s1.5-0.673,1.5-1.5
				v-8C470,15.423,469.327,14.75,468.5,14.75L468.5,14.75z"/>
		</g>
		<g>
			<g>
				<path fill="#FFFFFF" d="M465,6.625v-0.5c0-0.276-0.225-0.5-0.5-0.5s-0.5,0.224-0.5,0.5v0.5h-2v-0.5c0-1.378,1.121-2.5,2.5-2.5
					s2.5,1.122,2.5,2.5v0.5H465z"/>
				<path d="M464.5,4.125c1.103,0,2,0.896,2,2h-1c0-0.551-0.448-1-1-1s-1,0.449-1,1h-1C462.5,5.021,463.397,4.125,464.5,4.125
					 M464.5,3.125c-1.654,0-3,1.346-3,3v1h1h1h1v-1v1h1h1h1v-1C467.5,4.471,466.154,3.125,464.5,3.125L464.5,3.125z"/>
			</g>
		</g>
		<g>
			<g>
				<path fill="#FFFFFF" d="M493.5,7V6c0-1.654,1.346-3,3-3s3,1.346,3,3v1H493.5z"/>
				<path d="M496.5,4c1.103,0,2,0.896,2,2h-1c0-0.551-0.448-1-1-1s-1,0.449-1,1h-1C494.5,4.896,495.397,4,496.5,4 M496.5,2
					c-2.206,0-4,1.794-4,4v2h2h1h2h1h2V6C500.5,3.794,498.706,2,496.5,2L496.5,2z"/>
			</g>
		</g>
		<g>
			<path fill="#FFFFFF" d="M506,8c0,1.1-0.9,2-2,2h-15c-1.1,0-2-0.9-2-2l0,0c0-1.1,0.9-2,2-2h15C505.1,6,506,6.9,506,8L506,8z"/>
			<path fill="none" stroke="#000000" stroke-width="2" stroke-linecap="round" stroke-linejoin="round" stroke-miterlimit="10" d="
				M506,8c0,1.1-0.9,2-2,2h-15c-1.1,0-2-0.9-2-2l0,0c0-1.1,0.9-2,2-2h15C505.1,6,506,6.9,506,8L506,8z"/>
		</g>
		<g>
			<path fill="#FFFFFF" d="M504,24.875c0,1.65-1.35,3-3,3h-9c-1.65,0-3-1.35-3-3v-11c0-1.65,1.35-3,3-3h9c1.65,0,3,1.35,3,3V24.875z
				"/>
			<path fill="none" stroke="#000000" stroke-width="2" stroke-linecap="round" stroke-linejoin="round" stroke-miterlimit="10" d="
				M504,24.875c0,1.65-1.35,3-3,3h-9c-1.65,0-3-1.35-3-3v-11c0-1.65,1.35-3,3-3h9c1.65,0,3,1.35,3,3V24.875z"/>
		</g>
		<g>
			<path fill="#FFFFFF" d="M489,9.5c-0.827,0-1.5-0.673-1.5-1.5s0.673-1.5,1.5-1.5h15c0.827,0,1.5,0.673,1.5,1.5s-0.673,1.5-1.5,1.5
				H489z"/>
			<path d="M504,7c0.552,0,1,0.449,1,1s-0.448,1-1,1h-15c-0.552,0-1-0.449-1-1s0.448-1,1-1H504 M504,6h-15c-1.1,0-2,0.9-2,2
				s0.9,2,2,2h15c1.1,0,2-0.9,2-2S505.1,6,504,6L504,6z"/>
		</g>
		<g>
			<path d="M492.5,15.875c0.276,0,0.5,0.224,0.5,0.5v8c0,0.275-0.224,0.5-0.5,0.5s-0.5-0.225-0.5-0.5v-8
				C492,16.099,492.224,15.875,492.5,15.875 M492.5,14.875c-0.827,0-1.5,0.673-1.5,1.5v8c0,0.827,0.673,1.5,1.5,1.5
				s1.5-0.673,1.5-1.5v-8C494,15.548,493.327,14.875,492.5,14.875L492.5,14.875z"/>
		</g>
		<g>
			<path d="M496.5,15.875c0.276,0,0.5,0.224,0.5,0.5v8c0,0.275-0.224,0.5-0.5,0.5s-0.5-0.225-0.5-0.5v-8
				C496,16.099,496.224,15.875,496.5,15.875 M496.5,14.875c-0.827,0-1.5,0.673-1.5,1.5v8c0,0.827,0.673,1.5,1.5,1.5
				s1.5-0.673,1.5-1.5v-8C498,15.548,497.327,14.875,496.5,14.875L496.5,14.875z"/>
		</g>
		<g>
			<path d="M500.5,15.875c0.276,0,0.5,0.224,0.5,0.5v8c0,0.275-0.224,0.5-0.5,0.5s-0.5-0.225-0.5-0.5v-8
				C500,16.099,500.224,15.875,500.5,15.875 M500.5,14.875c-0.827,0-1.5,0.673-1.5,1.5v8c0,0.827,0.673,1.5,1.5,1.5
				s1.5-0.673,1.5-1.5v-8C502,15.548,501.327,14.875,500.5,14.875L500.5,14.875z"/>
		</g>
		<g>
			<g>
				<path fill="#FFFFFF" d="M497,6.5V6c0-0.276-0.225-0.5-0.5-0.5S496,5.724,496,6v0.5h-2V6c0-1.378,1.121-2.5,2.5-2.5
					S499,4.622,499,6v0.5H497z"/>
				<path d="M496.5,4c1.103,0,2,0.896,2,2h-1c0-0.551-0.448-1-1-1s-1,0.449-1,1h-1C494.5,4.896,495.397,4,496.5,4 M496.5,3
					c-1.654,0-3,1.346-3,3v1h1h1h1V6v1h1h1h1V6C499.5,4.346,498.154,3,496.5,3L496.5,3z"/>
			</g>
		</g>
	</g>
</g>
<g id="Layer_4">
</g>
</svg>
