<?xml version="1.0" encoding="iso-8859-1"?>
<!-- Generator: Adobe Illustrator 16.2.1, SVG Export Plug-In . SVG Version: 6.00 Build 0)  -->
<!DOCTYPE svg PUBLIC "-//W3C//DTD SVG 1.1 Tiny//EN" "http://www.w3.org/Graphics/SVG/1.1/DTD/svg11-tiny.dtd">
<svg version="1.1" baseProfile="tiny" xmlns="http://www.w3.org/2000/svg" xmlns:xlink="http://www.w3.org/1999/xlink" x="0px"
	 y="0px" width="512px" height="32px" viewBox="0 0 512 32" xml:space="preserve">
<g id="Layer_2_copy">
</g>
<g id="Layer_2">
</g>
<g id="Layer_1">
	<g id="Layer_1_2_">
		<g>
			<path d="M15.397,4.167l0.855,3.42l3.389-0.971l1.501,2.6l-2.535,2.449l2.535,2.451l-1.5,2.6l-3.39-0.971l-0.855,3.422h-3
				l-0.855-3.422l-3.39,0.971l-1.501-2.6l2.535-2.451l-2.534-2.45l1.5-2.6l3.39,0.971l0.855-3.42L15.397,4.167 M15.397,2.167h-3
				c-0.918,0-1.718,0.625-1.939,1.516l-0.354,1.412l-1.4-0.4C8.52,4.641,8.334,4.617,8.152,4.617c-0.7,0-1.368,0.37-1.731,1
				l-1.5,2.6c-0.459,0.796-0.317,1.802,0.342,2.438l1.047,1.011L5.261,12.68c-0.66,0.637-0.802,1.643-0.343,2.438l1.502,2.6
				c0.363,0.632,1.031,1,1.731,1c0.183,0,0.368-0.024,0.552-0.075l1.399-0.401l0.354,1.415c0.222,0.887,1.021,1.512,1.939,1.512h3
				c0.918,0,1.718-0.625,1.939-1.516l0.354-1.414l1.399,0.4c0.184,0.053,0.369,0.076,0.552,0.076c0.7,0,1.368-0.369,1.731-1l1.5-2.6
				c0.459-0.796,0.317-1.8-0.342-2.438l-1.047-1.013l1.047-1.013c0.66-0.637,0.801-1.644,0.342-2.438l-1.5-2.6
				c-0.365-0.631-1.031-1-1.732-1c-0.184,0-0.368,0.025-0.551,0.076l-1.4,0.401l-0.354-1.413
				C17.115,2.792,16.315,2.167,15.397,2.167z"/>
		</g>
		<g>
			<path d="M13.897,9.667c1.104,0,2,0.895,2,2c0,1.104-0.896,2-2,2s-2-0.896-2-2C11.897,10.561,12.793,9.667,13.897,9.667
				 M13.897,8.667c-1.654,0-3,1.346-3,3s1.346,3,3,3s3-1.346,3-3S15.551,8.667,13.897,8.667z"/>
		</g>
		<g>
			<path d="M23.761,20.031l0.428,1.71l1.694-0.485l0.75,1.301l-1.268,1.225l1.268,1.226l-0.75,1.3l-1.695-0.484l-0.428,1.711h-1.5
				l-0.428-1.711l-1.695,0.484l-0.75-1.3l1.268-1.226l-1.267-1.225l0.75-1.301l1.695,0.485l0.428-1.71H23.761 M23.761,19.031h-1.5
				c-0.459,0-0.859,0.312-0.97,0.758l-0.177,0.706l-0.7-0.2c-0.092-0.025-0.185-0.039-0.276-0.039c-0.35,0-0.684,0.186-0.866,0.5
				l-0.75,1.301c-0.229,0.397-0.159,0.9,0.171,1.219l0.523,0.504l-0.524,0.508c-0.33,0.318-0.401,0.82-0.171,1.219l0.751,1.301
				c0.182,0.314,0.516,0.5,0.866,0.5c0.091,0,0.184-0.014,0.276-0.039l0.7-0.201l0.177,0.709c0.111,0.442,0.511,0.756,0.97,0.756
				h1.5c0.459,0,0.859-0.312,0.97-0.758l0.177-0.707l0.7,0.199c0.092,0.026,0.185,0.039,0.276,0.039c0.35,0,0.684-0.185,0.866-0.5
				l0.75-1.3c0.229-0.397,0.159-0.899-0.171-1.219l-0.523-0.507l0.523-0.506c0.33-0.317,0.4-0.821,0.171-1.219l-0.75-1.3
				c-0.183-0.315-0.516-0.5-0.866-0.5c-0.092,0-0.184,0.013-0.275,0.038l-0.7,0.201l-0.177-0.707
				C24.62,19.343,24.22,19.031,23.761,19.031z"/>
		</g>
		<g>
			<path d="M23.011,22.781c0.552,0,1,0.447,1,1c0,0.552-0.448,1-1,1c-0.552,0-1-0.448-1-1
				C22.011,23.229,22.459,22.781,23.011,22.781 M23.011,22.281c-0.827,0-1.5,0.673-1.5,1.5c0,0.826,0.673,1.5,1.5,1.5
				c0.827,0,1.5-0.674,1.5-1.5C24.511,22.954,23.838,22.281,23.011,22.281z"/>
		</g>
		<g>
			<path d="M47.658,4.223l0.735,3.448l3.421-0.853l1.409,2.65l-2.619,2.359l2.448,2.538l-1.589,2.546l-3.354-1.088l-0.975,3.39
				l-2.998-0.104l-0.735-3.45l-3.421,0.853l-1.41-2.651l2.62-2.36l-2.447-2.537l1.59-2.545l3.354,1.088l0.975-3.388L47.658,4.223
				 M47.728,2.224L44.729,2.12c-0.917-0.032-1.738,0.564-1.991,1.447l-0.402,1.398L40.95,4.517c-0.182-0.06-0.366-0.09-0.549-0.097
				c-0.7-0.024-1.38,0.322-1.765,0.938l-1.59,2.546c-0.486,0.779-0.38,1.79,0.257,2.449l1.011,1.047l-1.083,0.978
				c-0.682,0.613-0.858,1.613-0.428,2.424l1.41,2.65c0.341,0.644,0.996,1.034,1.696,1.06c0.183,0.008,0.368-0.013,0.554-0.057
				l1.413-0.354l0.305,1.428c0.19,0.894,0.968,1.546,1.885,1.578l2.998,0.104c0.918,0.032,1.739-0.564,1.991-1.445l0.404-1.401
				l1.384,0.448c0.182,0.061,0.367,0.09,0.549,0.098c0.7,0.023,1.38-0.322,1.765-0.939l1.59-2.545
				c0.486-0.779,0.38-1.788-0.257-2.449l-1.011-1.049l1.082-0.976c0.682-0.613,0.858-1.614,0.427-2.424l-1.409-2.65
				c-0.343-0.644-0.995-1.035-1.696-1.06c-0.184-0.007-0.369,0.012-0.554,0.057l-1.414,0.352l-0.304-1.424
				C49.423,2.909,48.646,2.256,47.728,2.224z"/>
		</g>
		<g>
			<path d="M45.897,9.667c1.104,0,2,0.895,2,2c0,1.104-0.896,2-2,2s-2-0.896-2-2C43.897,10.561,44.793,9.667,45.897,9.667
				 M45.897,8.667c-1.654,0-3,1.346-3,3s1.346,3,3,3s3-1.346,3-3S47.551,8.667,45.897,8.667z"/>
		</g>
		<g>
			<path d="M55.63,20.006l0.487,1.694l1.676-0.544l0.796,1.271l-1.225,1.27l1.31,1.18l-0.704,1.326l-1.71-0.426l-0.368,1.725
				l-1.499,0.053l-0.487-1.695l-1.677,0.543l-0.796-1.272l1.225-1.269l-1.31-1.18l0.704-1.326l1.711,0.427l0.368-1.724L55.63,20.006
				 M55.595,19.007l-1.499,0.052c-0.459,0.017-0.848,0.342-0.942,0.793l-0.152,0.711l-0.706-0.177
				c-0.093-0.022-0.187-0.032-0.277-0.028c-0.351,0.012-0.678,0.209-0.848,0.529l-0.704,1.325c-0.216,0.405-0.128,0.906,0.213,1.212
				l0.541,0.487l-0.506,0.524c-0.319,0.33-0.372,0.836-0.129,1.226l0.796,1.272c0.192,0.309,0.532,0.48,0.883,0.469
				c0.091-0.004,0.184-0.02,0.274-0.049l0.692-0.225l0.201,0.701c0.126,0.439,0.537,0.736,0.995,0.721l1.499-0.052
				c0.459-0.017,0.848-0.342,0.943-0.791l0.152-0.713l0.706,0.175c0.093,0.023,0.187,0.032,0.277,0.029
				c0.35-0.012,0.678-0.208,0.848-0.529l0.704-1.324c0.216-0.406,0.128-0.906-0.213-1.214l-0.541-0.487l0.506-0.524
				c0.318-0.329,0.371-0.835,0.128-1.224l-0.795-1.272c-0.193-0.31-0.533-0.481-0.883-0.47c-0.092,0.003-0.184,0.019-0.274,0.047
				l-0.692,0.225l-0.202-0.699C56.464,19.29,56.054,18.991,55.595,19.007z"/>
		</g>
		<g>
			<path d="M55.011,22.781c0.552,0,1,0.447,1,1c0,0.552-0.448,1-1,1c-0.552,0-1-0.448-1-1
				C54.011,23.229,54.459,22.781,55.011,22.781 M55.011,22.281c-0.827,0-1.5,0.673-1.5,1.5c0,0.826,0.673,1.5,1.5,1.5
				c0.827,0,1.5-0.674,1.5-1.5C56.511,22.954,55.838,22.281,55.011,22.281z"/>
		</g>
		<g>
			<path d="M79.917,4.291l0.615,3.471L83.98,7.03l1.316,2.698l-2.7,2.267l2.357,2.622l-1.677,2.488L79.962,15.9l-1.092,3.354
				l-2.992-0.21l-0.615-3.473l-3.449,0.731l-1.316-2.698l2.7-2.269l-2.357-2.62l1.678-2.488l3.313,1.205l1.092-3.353L79.917,4.291
				 M80.056,2.295l-2.993-0.209c-0.916-0.064-1.757,0.503-2.041,1.377l-0.451,1.383l-1.369-0.497
				c-0.179-0.064-0.363-0.103-0.545-0.114c-0.698-0.049-1.391,0.272-1.797,0.876L69.183,7.6c-0.513,0.762-0.443,1.774,0.171,2.455
				l0.974,1.081l-1.116,0.939c-0.703,0.589-0.915,1.584-0.513,2.408l1.317,2.697c0.319,0.655,0.959,1.07,1.658,1.119
				c0.183,0.012,0.369,0,0.556-0.038l1.424-0.302l0.255,1.438c0.159,0.898,0.914,1.578,1.829,1.643l2.992,0.209
				c0.917,0.064,1.758-0.503,2.042-1.377l0.452-1.385l1.368,0.496c0.179,0.064,0.363,0.104,0.545,0.115
				c0.698,0.049,1.39-0.272,1.797-0.877l1.678-2.489c0.513-0.762,0.442-1.772-0.171-2.455l-0.974-1.084l1.115-0.937
				c0.703-0.59,0.914-1.585,0.512-2.409L85.779,6.15c-0.32-0.654-0.958-1.07-1.658-1.119c-0.183-0.012-0.369,0-0.555,0.039
				L82.14,5.373l-0.254-1.435C81.726,3.039,80.972,2.36,80.056,2.295z"/>
		</g>
		<g>
			<path d="M77.897,9.667c1.104,0,2,0.895,2,2c0,1.104-0.896,2-2,2s-2-0.896-2-2C75.897,10.561,76.793,9.667,77.897,9.667
				 M77.897,8.667c-1.654,0-3,1.346-3,3s1.346,3,3,3s3-1.346,3-3S79.551,8.667,77.897,8.667z"/>
		</g>
		<g>
			<path d="M87.498,19.988l0.546,1.676l1.656-0.602l0.84,1.244l-1.18,1.31l1.351,1.134l-0.658,1.35l-1.725-0.367l-0.307,1.736
				l-1.497,0.104l-0.546-1.677L84.322,26.5l-0.84-1.245l1.179-1.312l-1.349-1.133l0.657-1.349l1.725,0.366l0.307-1.736
				L87.498,19.988 M87.428,18.99l-1.496,0.104c-0.457,0.032-0.835,0.372-0.914,0.824l-0.127,0.717l-0.713-0.15
				c-0.094-0.021-0.187-0.025-0.277-0.02c-0.35,0.024-0.67,0.232-0.829,0.559l-0.657,1.35c-0.201,0.413-0.096,0.91,0.255,1.205
				l0.558,0.467l-0.487,0.543c-0.307,0.34-0.343,0.848-0.086,1.229l0.84,1.244c0.203,0.301,0.55,0.463,0.898,0.438
				c0.092-0.006,0.183-0.026,0.272-0.058l0.685-0.25l0.226,0.693c0.142,0.436,0.562,0.719,1.021,0.686l1.496-0.104
				c0.458-0.031,0.835-0.371,0.914-0.822l0.128-0.719l0.712,0.151c0.094,0.021,0.187,0.026,0.278,0.021
				c0.35-0.024,0.669-0.232,0.828-0.561l0.657-1.35c0.202-0.412,0.097-0.908-0.255-1.205l-0.558-0.469l0.487-0.541
				c0.307-0.341,0.342-0.848,0.085-1.228L90.53,20.5c-0.204-0.302-0.549-0.462-0.899-0.438c-0.091,0.006-0.183,0.024-0.271,0.057
				l-0.685,0.249l-0.226-0.692C88.307,19.242,87.887,18.958,87.428,18.99z"/>
		</g>
		<g>
			<path d="M87.011,22.781c0.552,0,1,0.447,1,1c0,0.552-0.448,1-1,1c-0.552,0-1-0.448-1-1
				C86.011,23.229,86.459,22.781,87.011,22.781 M87.011,22.281c-0.827,0-1.5,0.673-1.5,1.5c0,0.826,0.673,1.5,1.5,1.5
				c0.827,0,1.5-0.674,1.5-1.5C88.511,22.954,87.838,22.281,87.011,22.281z"/>
		</g>
		<g>
			<path d="M112.172,4.364l0.494,3.49l3.471-0.61l1.221,2.742l-2.777,2.171l2.266,2.702l-1.764,2.429l-3.269-1.319l-1.209,3.313
				l-2.983-0.313l-0.493-3.492l-3.473,0.61l-1.221-2.742l2.777-2.173l-2.265-2.7l1.764-2.429l3.27,1.319l1.208-3.312L112.172,4.364
				 M112.382,2.375l-2.983-0.313c-0.913-0.096-1.774,0.442-2.087,1.305l-0.5,1.367l-1.351-0.544
				c-0.177-0.072-0.359-0.115-0.541-0.135c-0.696-0.073-1.399,0.225-1.826,0.813l-1.764,2.429c-0.54,0.743-0.504,1.759,0.085,2.461
				l0.936,1.114l-1.148,0.899c-0.723,0.564-0.969,1.551-0.596,2.389l1.222,2.742c0.295,0.666,0.92,1.103,1.617,1.176
				c0.182,0.02,0.369,0.014,0.557-0.02l1.434-0.252l0.205,1.444c0.127,0.903,0.857,1.608,1.771,1.706l2.983,0.312
				c0.913,0.097,1.774-0.441,2.087-1.305l0.5-1.369l1.351,0.545c0.177,0.071,0.359,0.114,0.54,0.135
				c0.697,0.072,1.399-0.226,1.827-0.813l1.764-2.429c0.54-0.743,0.504-1.757-0.085-2.461l-0.936-1.116l1.147-0.898
				c0.723-0.563,0.968-1.551,0.595-2.388l-1.22-2.742c-0.297-0.666-0.92-1.103-1.618-1.176c-0.182-0.02-0.369-0.014-0.556,0.019
				l-1.435,0.252l-0.204-1.442C114.025,3.176,113.295,2.471,112.382,2.375z"/>
		</g>
		<g>
			<path d="M109.897,9.667c1.104,0,2,0.895,2,2c0,1.104-0.896,2-2,2s-2-0.896-2-2C107.897,10.561,108.793,9.667,109.897,9.667
				 M109.897,8.667c-1.654,0-3,1.346-3,3s1.346,3,3,3s3-1.346,3-3S111.551,8.667,109.897,8.667z"/>
		</g>
		<g>
			<path d="M119.364,19.973l0.604,1.656l1.634-0.66l0.883,1.215l-1.133,1.351l1.389,1.086l-0.61,1.371l-1.736-0.306l-0.246,1.746
				l-1.491,0.157l-0.604-1.657l-1.635,0.659l-0.883-1.214l1.133-1.352l-1.388-1.086l0.609-1.371l1.736,0.307l0.247-1.746
				L119.364,19.973 M119.26,18.979l-1.491,0.156c-0.457,0.049-0.821,0.4-0.886,0.855l-0.102,0.721l-0.717-0.126
				c-0.095-0.017-0.188-0.019-0.279-0.01c-0.348,0.036-0.66,0.256-0.809,0.588l-0.609,1.371c-0.187,0.42-0.063,0.913,0.297,1.194
				l0.573,0.448l-0.468,0.56c-0.295,0.351-0.312,0.859-0.043,1.229l0.883,1.215c0.214,0.295,0.565,0.443,0.913,0.406
				c0.091-0.009,0.182-0.031,0.271-0.066l0.675-0.271l0.25,0.686c0.157,0.428,0.587,0.697,1.044,0.649l1.491-0.157
				c0.457-0.048,0.822-0.4,0.886-0.855l0.102-0.721l0.718,0.125c0.094,0.017,0.187,0.02,0.277,0.01
				c0.349-0.037,0.662-0.256,0.81-0.588l0.609-1.371c0.188-0.42,0.064-0.912-0.297-1.195l-0.573-0.449l0.467-0.559
				c0.296-0.352,0.312-0.858,0.043-1.229l-0.882-1.214c-0.214-0.295-0.564-0.443-0.914-0.406c-0.091,0.008-0.181,0.031-0.27,0.066
				l-0.676,0.273l-0.249-0.686C120.147,19.199,119.717,18.93,119.26,18.979z"/>
		</g>
		<g>
			<path d="M119.011,22.781c0.552,0,1,0.447,1,1c0,0.552-0.448,1-1,1c-0.552,0-1-0.448-1-1
				C118.011,23.229,118.459,22.781,119.011,22.781 M119.011,22.281c-0.827,0-1.5,0.673-1.5,1.5c0,0.826,0.673,1.5,1.5,1.5
				c0.827,0,1.5-0.674,1.5-1.5C120.511,22.954,119.838,22.281,119.011,22.281z"/>
		</g>
		<g>
			<path d="M144.426,4.449l0.371,3.506l3.491-0.489l1.125,2.783l-2.852,2.072l2.169,2.779l-1.847,2.366l-3.222-1.433l-1.323,3.27
				l-2.971-0.418l-0.371-3.508l-3.492,0.489l-1.125-2.783l2.852-2.074l-2.169-2.778l1.848-2.365l3.221,1.433l1.323-3.267
				L144.426,4.449 M144.705,2.468l-2.971-0.418c-0.909-0.128-1.788,0.38-2.131,1.231l-0.547,1.35l-1.331-0.592
				c-0.175-0.078-0.355-0.128-0.536-0.153c-0.693-0.097-1.407,0.176-1.854,0.749l-1.847,2.366c-0.565,0.724-0.565,1.739-0.001,2.462
				l0.896,1.146l-1.179,0.859c-0.742,0.538-1.022,1.515-0.678,2.365l1.125,2.783c0.272,0.676,0.882,1.135,1.576,1.231
				c0.181,0.025,0.368,0.025,0.557,0.002l1.441-0.203l0.154,1.451c0.096,0.908,0.801,1.639,1.71,1.767l2.971,0.418
				c0.909,0.128,1.788-0.38,2.132-1.231l0.547-1.351l1.331,0.591c0.174,0.078,0.354,0.128,0.535,0.152
				c0.693,0.099,1.406-0.176,1.854-0.748l1.848-2.366c0.565-0.724,0.564-1.738,0.001-2.462l-0.896-1.148l1.178-0.857
				c0.742-0.538,1.021-1.516,0.677-2.366l-1.123-2.783c-0.274-0.676-0.882-1.133-1.576-1.23c-0.183-0.025-0.369-0.026-0.556-0.002
				l-1.443,0.203l-0.153-1.449C146.319,3.327,145.614,2.596,144.705,2.468z"/>
		</g>
		<g>
			<path d="M141.897,9.667c1.104,0,2,0.895,2,2c0,1.104-0.896,2-2,2s-2-0.896-2-2C139.897,10.561,140.793,9.667,141.897,9.667
				 M141.897,8.667c-1.654,0-3,1.346-3,3s1.346,3,3,3s3-1.346,3-3S143.551,8.667,141.897,8.667z"/>
		</g>
		<g>
			<path d="M151.232,19.962l0.662,1.634l1.609-0.716l0.925,1.183l-1.085,1.39l1.426,1.037l-0.562,1.391l-1.745-0.243l-0.186,1.754
				l-1.485,0.207l-0.662-1.635l-1.61,0.717l-0.924-1.184l1.084-1.391l-1.425-1.037l0.562-1.392l1.746,0.245l0.186-1.753
				L151.232,19.962 M151.093,18.973l-1.485,0.209c-0.454,0.063-0.807,0.428-0.854,0.885l-0.077,0.724l-0.721-0.101
				c-0.095-0.014-0.188-0.013-0.278,0c-0.347,0.049-0.652,0.277-0.788,0.615l-0.562,1.391c-0.172,0.427-0.032,0.916,0.339,1.185
				l0.589,0.427l-0.448,0.576c-0.283,0.361-0.283,0.869,0,1.23l0.924,1.183c0.224,0.287,0.581,0.423,0.928,0.375
				c0.09-0.013,0.18-0.038,0.268-0.075l0.665-0.297l0.274,0.676c0.171,0.424,0.61,0.678,1.064,0.614l1.485-0.208
				c0.455-0.064,0.808-0.43,0.855-0.886l0.077-0.726l0.721,0.102c0.095,0.014,0.188,0.013,0.278,0
				c0.347-0.049,0.652-0.278,0.788-0.616l0.562-1.392c0.172-0.426,0.032-0.913-0.339-1.184l-0.589-0.429l0.447-0.574
				c0.283-0.36,0.282-0.87,0-1.231l-0.923-1.182c-0.225-0.287-0.581-0.424-0.928-0.375c-0.091,0.012-0.181,0.037-0.268,0.075
				l-0.665,0.296l-0.274-0.675C151.987,19.163,151.548,18.909,151.093,18.973z"/>
		</g>
		<g>
			<path d="M151.011,22.781c0.552,0,1,0.447,1,1c0,0.552-0.448,1-1,1c-0.552,0-1-0.448-1-1
				C150.011,23.229,150.459,22.781,151.011,22.781 M151.011,22.281c-0.827,0-1.5,0.673-1.5,1.5c0,0.826,0.673,1.5,1.5,1.5
				c0.827,0,1.5-0.674,1.5-1.5C152.511,22.954,151.838,22.281,151.011,22.281z"/>
		</g>
		<g>
			<path d="M176.676,4.542l0.249,3.517l3.506-0.368l1.027,2.821l-2.922,1.972l2.071,2.854l-1.929,2.301l-3.169-1.546l-1.437,3.222
				l-2.954-0.521l-0.249-3.519l-3.506,0.367l-1.026-2.82l2.922-1.974l-2.071-2.853l1.929-2.3l3.169,1.545l1.437-3.219L176.676,4.542
				 M177.023,2.572l-2.954-0.521c-0.904-0.16-1.8,0.316-2.173,1.155l-0.593,1.329l-1.31-0.637c-0.172-0.084-0.35-0.141-0.53-0.172
				c-0.689-0.122-1.412,0.127-1.879,0.684l-1.929,2.3c-0.59,0.704-0.625,1.719-0.086,2.461l0.855,1.177l-1.208,0.817
				c-0.761,0.513-1.075,1.479-0.761,2.341l1.028,2.821c0.248,0.685,0.842,1.164,1.531,1.284c0.18,0.033,0.367,0.039,0.557,0.021
				l1.448-0.15l0.104,1.455c0.064,0.91,0.743,1.666,1.647,1.824l2.954,0.521c0.904,0.158,1.8-0.317,2.173-1.156l0.595-1.331
				l1.309,0.638c0.172,0.084,0.35,0.141,0.53,0.172c0.69,0.121,1.412-0.127,1.879-0.685l1.929-2.3
				c0.59-0.704,0.625-1.717,0.086-2.461l-0.854-1.179l1.207-0.815c0.761-0.513,1.074-1.479,0.76-2.341l-1.026-2.821
				c-0.25-0.685-0.841-1.163-1.532-1.285c-0.181-0.032-0.367-0.039-0.556-0.021l-1.449,0.152l-0.103-1.452
				C178.607,3.486,177.928,2.731,177.023,2.572z"/>
		</g>
		<g>
			<path d="M173.897,9.667c1.104,0,2,0.895,2,2c0,1.104-0.896,2-2,2s-2-0.896-2-2C171.897,10.561,172.793,9.667,173.897,9.667
				 M173.897,8.667c-1.654,0-3,1.346-3,3s1.346,3,3,3s3-1.346,3-3S175.551,8.667,173.897,8.667z"/>
		</g>
		<g>
			<path d="M183.1,19.958l0.718,1.61l1.584-0.772l0.965,1.149l-1.035,1.426l1.461,0.986l-0.513,1.412l-1.754-0.185l-0.124,1.759
				l-1.477,0.262l-0.719-1.611l-1.585,0.771l-0.965-1.149l1.036-1.427l-1.461-0.986l0.513-1.41l1.754,0.184l0.124-1.759
				L183.1,19.958 M182.926,18.973l-1.478,0.262c-0.452,0.08-0.791,0.457-0.823,0.914l-0.052,0.727l-0.725-0.076
				c-0.095-0.01-0.188-0.006-0.278,0.01c-0.344,0.062-0.642,0.301-0.766,0.644l-0.513,1.411c-0.157,0.432,0,0.914,0.38,1.171
				l0.604,0.407l-0.428,0.59c-0.27,0.371-0.252,0.879,0.043,1.229l0.965,1.149c0.233,0.279,0.595,0.402,0.939,0.342
				c0.09-0.016,0.179-0.044,0.265-0.085l0.655-0.319l0.297,0.666c0.187,0.418,0.634,0.656,1.086,0.576l1.478-0.261
				c0.452-0.08,0.791-0.457,0.823-0.915l0.052-0.727l0.724,0.076c0.096,0.01,0.188,0.006,0.278-0.011
				c0.345-0.062,0.642-0.301,0.767-0.644l0.513-1.409c0.157-0.433,0-0.914-0.38-1.171l-0.604-0.408l0.428-0.589
				c0.27-0.371,0.251-0.878-0.044-1.23l-0.964-1.149c-0.234-0.279-0.595-0.403-0.94-0.342c-0.09,0.016-0.179,0.045-0.265,0.084
				l-0.654,0.319l-0.297-0.665C183.825,19.131,183.378,18.893,182.926,18.973z"/>
		</g>
		<g>
			<path d="M183.011,22.781c0.552,0,1,0.447,1,1c0,0.552-0.448,1-1,1c-0.552,0-1-0.448-1-1
				C182.011,23.229,182.459,22.781,183.011,22.781 M183.011,22.281c-0.827,0-1.5,0.673-1.5,1.5c0,0.826,0.673,1.5,1.5,1.5
				c0.827,0,1.5-0.674,1.5-1.5C184.511,22.954,183.838,22.281,183.011,22.281z"/>
		</g>
		<g>
			<path d="M208.924,4.641l0.125,3.523l3.517-0.244l0.927,2.854l-2.989,1.868l1.97,2.925l-2.007,2.231l-3.114-1.654l-1.548,3.168
				l-2.935-0.623l-0.125-3.524l-3.518,0.245l-0.928-2.855l2.989-1.87l-1.969-2.923l2.008-2.23l3.113,1.653l1.548-3.167
				L208.924,4.641 M209.339,2.686l-2.935-0.624c-0.898-0.191-1.81,0.254-2.212,1.079l-0.64,1.308l-1.286-0.683
				c-0.169-0.09-0.345-0.152-0.523-0.19c-0.685-0.146-1.416,0.077-1.902,0.618l-2.008,2.23c-0.614,0.684-0.685,1.697-0.172,2.457
				l0.813,1.206l-1.235,0.774c-0.778,0.486-1.126,1.44-0.843,2.313l0.929,2.854c0.225,0.693,0.801,1.193,1.486,1.338
				c0.179,0.038,0.365,0.052,0.555,0.041l1.452-0.103l0.053,1.457c0.032,0.914,0.685,1.691,1.583,1.883l2.935,0.623
				c0.897,0.191,1.81-0.254,2.212-1.078l0.641-1.311l1.285,0.684c0.169,0.09,0.345,0.151,0.524,0.189
				c0.685,0.146,1.415-0.077,1.901-0.618l2.008-2.231c0.614-0.682,0.685-1.693,0.172-2.456l-0.813-1.208l1.234-0.773
				c0.778-0.485,1.125-1.44,0.842-2.312l-0.927-2.855c-0.226-0.692-0.801-1.192-1.486-1.338c-0.18-0.038-0.366-0.052-0.555-0.04
				l-1.453,0.102l-0.052-1.456C210.89,3.654,210.237,2.876,209.339,2.686z"/>
		</g>
		<g>
			<path d="M205.897,9.667c1.104,0,2,0.895,2,2c0,1.104-0.896,2-2,2s-2-0.896-2-2C203.897,10.561,204.793,9.667,205.897,9.667
				 M205.897,8.667c-1.654,0-3,1.346-3,3s1.346,3,3,3s3-1.346,3-3S207.551,8.667,205.897,8.667z"/>
		</g>
		<g>
			<path d="M214.965,19.957l0.774,1.583l1.556-0.827l1.005,1.115l-0.985,1.461l1.495,0.936l-0.464,1.428l-1.759-0.123l-0.062,1.763
				l-1.468,0.312l-0.773-1.584l-1.557,0.826l-1.005-1.115l0.985-1.463l-1.494-0.935l0.463-1.427l1.759,0.123l0.063-1.762
				L214.965,19.957 M214.757,18.979l-1.467,0.312c-0.449,0.095-0.775,0.484-0.791,0.943l-0.026,0.727l-0.727-0.05
				c-0.095-0.007-0.188,0.001-0.277,0.021c-0.343,0.072-0.631,0.322-0.743,0.668l-0.463,1.428c-0.142,0.437,0.032,0.914,0.42,1.156
				l0.618,0.385l-0.408,0.605c-0.256,0.381-0.221,0.887,0.086,1.229l1.005,1.115c0.243,0.271,0.608,0.383,0.951,0.31
				c0.089-0.019,0.177-0.052,0.262-0.095l0.643-0.342l0.321,0.655c0.2,0.411,0.656,0.634,1.104,0.538l1.468-0.312
				c0.449-0.096,0.775-0.483,0.791-0.942l0.026-0.729l0.727,0.051c0.095,0.007,0.188,0,0.277-0.02
				c0.343-0.072,0.631-0.324,0.742-0.669l0.464-1.427c0.143-0.438-0.031-0.914-0.42-1.157l-0.618-0.387l0.407-0.604
				c0.257-0.38,0.221-0.887-0.086-1.228l-1.005-1.116c-0.243-0.271-0.607-0.382-0.951-0.309c-0.09,0.019-0.177,0.051-0.261,0.094
				l-0.644,0.342l-0.319-0.654C215.662,19.105,215.206,18.883,214.757,18.979z"/>
		</g>
		<g>
			<path d="M215.011,22.781c0.552,0,1,0.447,1,1c0,0.552-0.448,1-1,1c-0.552,0-1-0.448-1-1
				C214.011,23.229,214.459,22.781,215.011,22.781 M215.011,22.281c-0.827,0-1.5,0.673-1.5,1.5c0,0.826,0.673,1.5,1.5,1.5
				c0.827,0,1.5-0.674,1.5-1.5C216.511,22.954,215.838,22.281,215.011,22.281z"/>
		</g>
		<g>
			<path d="M241.167,4.751l0.002,3.525l3.523-0.122l0.827,2.886l-3.052,1.764l1.866,2.991l-2.084,2.159l-3.054-1.762l-1.658,3.113
				l-2.911-0.726l-0.002-3.527l-3.523,0.122l-0.828-2.886l3.053-1.765l-1.866-2.99l2.084-2.159l3.054,1.762l1.658-3.111
				L241.167,4.751 M241.65,2.811l-2.911-0.726c-0.891-0.223-1.817,0.19-2.248,1.001l-0.685,1.285l-1.262-0.728
				c-0.166-0.096-0.339-0.164-0.516-0.208c-0.68-0.17-1.417,0.028-1.922,0.552l-2.084,2.158c-0.638,0.662-0.744,1.672-0.258,2.449
				l0.771,1.234l-1.262,0.73c-0.794,0.459-1.176,1.4-0.922,2.283l0.829,2.885c0.2,0.7,0.758,1.221,1.438,1.39
				c0.177,0.044,0.363,0.063,0.554,0.06l1.455-0.051l0.001,1.459c0.001,0.914,0.625,1.714,1.516,1.936l2.911,0.727
				c0.891,0.223,1.818-0.189,2.249-1.001l0.686-1.286l1.261,0.727c0.166,0.097,0.34,0.164,0.517,0.209
				c0.679,0.17,1.417-0.027,1.921-0.552l2.084-2.159c0.638-0.662,0.744-1.669,0.258-2.449L245.26,13.5l1.261-0.73
				c0.794-0.458,1.174-1.4,0.921-2.281l-0.827-2.886c-0.201-0.7-0.758-1.22-1.438-1.39c-0.178-0.044-0.364-0.064-0.553-0.06
				l-1.456,0.051V4.748C243.166,3.833,242.541,3.033,241.65,2.811z"/>
		</g>
		<g>
			<path d="M237.897,9.667c1.104,0,2,0.895,2,2c0,1.104-0.896,2-2,2s-2-0.896-2-2C235.897,10.561,236.793,9.667,237.897,9.667
				 M237.897,8.667c-1.654,0-3,1.346-3,3s1.346,3,3,3s3-1.346,3-3S239.551,8.667,237.897,8.667z"/>
		</g>
		<g>
			<path d="M246.832,19.96l0.828,1.556l1.527-0.881l1.042,1.08l-0.934,1.495l1.526,0.882l-0.413,1.442l-1.762-0.062l-0.001,1.764
				L247.19,27.6l-0.829-1.556l-1.526,0.881l-1.043-1.079l0.934-1.496l-1.525-0.883l0.413-1.441l1.762,0.061l0.001-1.763
				L246.832,19.96 M246.59,18.99l-1.456,0.363c-0.445,0.11-0.757,0.511-0.757,0.97l-0.001,0.728l-0.728-0.023
				c-0.096-0.004-0.188,0.007-0.277,0.029c-0.339,0.084-0.619,0.344-0.719,0.694l-0.413,1.442c-0.127,0.441,0.063,0.912,0.461,1.142
				l0.63,0.364l-0.386,0.619c-0.243,0.389-0.19,0.894,0.129,1.224l1.043,1.08c0.252,0.262,0.621,0.36,0.961,0.274
				c0.089-0.021,0.176-0.057,0.259-0.104l0.63-0.363l0.343,0.644c0.216,0.403,0.679,0.61,1.124,0.499l1.455-0.363
				c0.445-0.111,0.758-0.511,0.758-0.97l0.001-0.729l0.728,0.025c0.096,0.003,0.188-0.008,0.277-0.03
				c0.34-0.084,0.618-0.345,0.719-0.694l0.413-1.441c0.127-0.442-0.063-0.912-0.461-1.143l-0.63-0.365l0.385-0.618
				c0.244-0.388,0.19-0.894-0.129-1.224l-1.042-1.08c-0.254-0.262-0.621-0.36-0.961-0.275c-0.089,0.021-0.176,0.057-0.258,0.104
				l-0.632,0.364l-0.342-0.643C247.499,19.085,247.035,18.879,246.59,18.99z"/>
		</g>
		<g>
			<path d="M247.011,22.781c0.552,0,1,0.447,1,1c0,0.552-0.448,1-1,1c-0.552,0-1-0.448-1-1
				C246.011,23.229,246.459,22.781,247.011,22.781 M247.011,22.281c-0.827,0-1.5,0.673-1.5,1.5c0,0.826,0.673,1.5,1.5,1.5
				c0.827,0,1.5-0.674,1.5-1.5C248.511,22.954,247.838,22.281,247.011,22.281z"/>
		</g>
		<g>
			<path d="M273.406,4.871l-0.12,3.523l3.524,0.001l0.727,2.912l-3.112,1.656l1.761,3.055l-2.158,2.085l-2.99-1.868l-1.766,3.054
				l-2.883-0.827l0.12-3.524l-3.524-0.002l-0.728-2.912l3.113-1.657l-1.761-3.054l2.158-2.085l2.991,1.867l1.765-3.052
				L273.406,4.871 M273.958,2.948l-2.884-0.826c-0.883-0.254-1.824,0.127-2.282,0.922l-0.729,1.26l-1.235-0.771
				c-0.162-0.102-0.334-0.176-0.509-0.227c-0.674-0.192-1.418-0.021-1.94,0.483l-2.157,2.086c-0.662,0.639-0.803,1.645-0.345,2.438
				l0.728,1.26l-1.287,0.687c-0.81,0.43-1.223,1.358-1,2.249l0.727,2.913c0.175,0.706,0.715,1.245,1.389,1.438
				c0.176,0.051,0.36,0.078,0.551,0.08h1.457l-0.049,1.457c-0.033,0.914,0.564,1.734,1.446,1.987l2.884,0.827
				c0.883,0.253,1.824-0.128,2.282-0.923l0.729-1.263l1.235,0.771c0.162,0.102,0.333,0.178,0.509,0.227
				c0.674,0.192,1.418,0.021,1.94-0.482l2.159-2.086c0.66-0.639,0.801-1.643,0.343-2.438l-0.728-1.262l1.285-0.685
				c0.811-0.431,1.224-1.359,1-2.25l-0.725-2.911c-0.178-0.708-0.716-1.246-1.391-1.439c-0.176-0.051-0.36-0.077-0.549-0.078
				l-1.457-0.001l0.049-1.455C275.436,4.022,274.839,3.201,273.958,2.948z"/>
		</g>
		<g>
			<path d="M269.896,9.667c1.104,0,2,0.895,2,2c0,1.104-0.896,2-2,2c-1.104,0-2-0.896-2-2
				C267.896,10.561,268.793,9.667,269.896,9.667 M269.896,8.667c-1.653,0-3,1.346-3,3s1.347,3,3,3c1.654,0,3-1.346,3-3
				S271.551,8.667,269.896,8.667z"/>
		</g>
		<g>
			<path d="M278.698,19.971l0.883,1.525l1.495-0.934l1.078,1.041l-0.881,1.526l1.558,0.829l-0.362,1.456l-1.763,0.001l0.06,1.764
				l-1.44,0.412l-0.884-1.525L276.945,27l-1.079-1.043l0.881-1.527l-1.556-0.828l0.361-1.455l1.764-0.002l-0.061-1.761
				L278.698,19.971 M278.423,19.008l-1.44,0.413c-0.441,0.127-0.74,0.537-0.725,0.996l0.024,0.728h-0.728
				c-0.097,0-0.188,0.015-0.277,0.039c-0.336,0.096-0.605,0.366-0.693,0.719l-0.361,1.457c-0.111,0.445,0.096,0.91,0.5,1.125
				l0.643,0.341l-0.363,0.632c-0.229,0.396-0.159,0.9,0.171,1.219l1.08,1.042c0.263,0.253,0.634,0.339,0.97,0.243
				c0.088-0.025,0.174-0.062,0.256-0.113l0.616-0.386l0.365,0.631c0.229,0.396,0.7,0.587,1.142,0.459l1.441-0.413
				c0.441-0.127,0.738-0.537,0.723-0.994l-0.023-0.729l0.729-0.001c0.096,0,0.188-0.014,0.275-0.039
				c0.337-0.096,0.605-0.366,0.693-0.719l0.363-1.456c0.11-0.446-0.096-0.909-0.501-1.125l-0.643-0.343l0.362-0.631
				c0.229-0.396,0.16-0.899-0.17-1.219l-1.08-1.043c-0.263-0.253-0.633-0.338-0.972-0.242c-0.088,0.025-0.173,0.063-0.254,0.113
				l-0.617,0.387l-0.364-0.632C279.335,19.072,278.864,18.881,278.423,19.008z"/>
		</g>
		<g>
			<path d="M279.011,22.781c0.552,0,1,0.447,1,1c0,0.552-0.448,1-1,1s-1-0.448-1-1C278.011,23.229,278.459,22.781,279.011,22.781
				 M279.011,22.281c-0.827,0-1.5,0.673-1.5,1.5c0,0.826,0.673,1.5,1.5,1.5s1.5-0.674,1.5-1.5
				C280.511,22.954,279.838,22.281,279.011,22.281z"/>
		</g>
		<g>
			<path d="M305.641,4.998l-0.242,3.517l3.521,0.124l0.626,2.937l-3.168,1.546l1.653,3.114l-2.23,2.009l-2.924-1.971l-1.871,2.99
				l-2.854-0.928l0.244-3.518l-3.523-0.125l-0.625-2.937l3.169-1.548l-1.651-3.111l2.229-2.01l2.923,1.971l1.87-2.988L305.641,4.998
				 M306.259,3.095l-2.854-0.928c-0.872-0.283-1.824,0.064-2.312,0.843l-0.772,1.233l-1.209-0.812
				c-0.156-0.107-0.325-0.188-0.498-0.244c-0.668-0.217-1.418-0.071-1.957,0.416l-2.229,2.009c-0.683,0.614-0.858,1.615-0.429,2.425
				l0.684,1.284l-1.31,0.642c-0.824,0.401-1.271,1.314-1.08,2.212l0.625,2.937c0.149,0.712,0.672,1.27,1.339,1.486
				c0.174,0.057,0.357,0.09,0.547,0.098l1.456,0.052l-0.101,1.455c-0.062,0.912,0.504,1.754,1.377,2.037l2.854,0.928
				c0.872,0.283,1.827-0.063,2.312-0.842l0.775-1.236l1.205,0.813c0.158,0.106,0.327,0.188,0.502,0.244
				c0.666,0.215,1.415,0.07,1.955-0.416l2.229-2.01c0.683-0.615,0.857-1.613,0.429-2.425l-0.683-1.287l1.308-0.64
				c0.825-0.401,1.271-1.315,1.079-2.212l-0.624-2.937c-0.152-0.713-0.671-1.27-1.338-1.486c-0.175-0.057-0.357-0.089-0.548-0.098
				l-1.455-0.051l0.101-1.453C307.7,4.22,307.132,3.378,306.259,3.095z"/>
		</g>
		<g>
			<path d="M301.896,9.667c1.104,0,2,0.895,2,2c0,1.104-0.896,2-2,2c-1.104,0-2-0.896-2-2
				C299.896,10.561,300.793,9.667,301.896,9.667 M301.896,8.667c-1.654,0-3,1.346-3,3s1.346,3,3,3c1.653,0,3-1.346,3-3
				S303.551,8.667,301.896,8.667z"/>
		</g>
		<g>
			<path d="M310.566,19.98l0.936,1.496l1.46-0.985l1.116,1.003l-0.827,1.557l1.584,0.774l-0.312,1.468l-1.763,0.062l0.122,1.76
				l-1.427,0.464l-0.937-1.496l-1.462,0.985l-1.114-1.004l0.826-1.558l-1.584-0.772l0.312-1.469l1.763-0.062l-0.122-1.759
				L310.566,19.98 M310.258,19.031l-1.428,0.464c-0.437,0.142-0.721,0.562-0.688,1.021l0.051,0.727l-0.729,0.025
				c-0.096,0.004-0.188,0.021-0.273,0.049c-0.333,0.107-0.594,0.387-0.669,0.742l-0.312,1.469c-0.096,0.449,0.127,0.906,0.538,1.106
				l0.654,0.319l-0.342,0.645c-0.216,0.404-0.127,0.904,0.214,1.213l1.116,1.002c0.271,0.244,0.646,0.316,0.979,0.209
				c0.087-0.028,0.171-0.069,0.25-0.121l0.604-0.408l0.388,0.619c0.242,0.387,0.721,0.561,1.156,0.418l1.428-0.463
				c0.437-0.143,0.72-0.562,0.688-1.021l-0.05-0.728l0.727-0.025c0.097-0.003,0.188-0.021,0.274-0.049
				c0.334-0.108,0.595-0.387,0.67-0.743l0.312-1.468c0.094-0.449-0.129-0.905-0.54-1.106l-0.654-0.319l0.341-0.644
				c0.216-0.405,0.127-0.905-0.213-1.211l-1.115-1.005c-0.271-0.243-0.645-0.316-0.979-0.208c-0.087,0.028-0.17,0.069-0.25,0.121
				l-0.604,0.407l-0.388-0.617C311.17,19.062,310.693,18.889,310.258,19.031z"/>
		</g>
		<g>
			<path d="M311.012,22.781c0.551,0,1,0.447,1,1c0,0.552-0.449,1-1,1c-0.553,0-1-0.448-1-1
				C310.012,23.229,310.459,22.781,311.012,22.781 M311.012,22.281c-0.828,0-1.5,0.673-1.5,1.5c0,0.826,0.672,1.5,1.5,1.5
				c0.826,0,1.5-0.674,1.5-1.5C312.512,22.954,311.838,22.281,311.012,22.281z"/>
		</g>
		<g>
			<path d="M337.871,5.132l-0.365,3.507l3.517,0.246l0.521,2.956l-3.22,1.435l1.543,3.171l-2.299,1.93l-2.854-2.071l-1.975,2.922
				l-2.818-1.025l0.367-3.508l-3.519-0.247l-0.521-2.957l3.221-1.437l-1.543-3.168l2.299-1.93l2.853,2.072l1.975-2.922
				L337.871,5.132 M338.555,3.252l-2.817-1.025c-0.863-0.314-1.828,0-2.341,0.761l-0.815,1.206l-1.18-0.855
				c-0.154-0.112-0.32-0.199-0.49-0.261c-0.659-0.24-1.414-0.12-1.971,0.347l-2.299,1.931c-0.704,0.591-0.913,1.584-0.513,2.408
				l0.637,1.308l-1.33,0.595c-0.838,0.373-1.315,1.27-1.155,2.173l0.521,2.957c0.126,0.717,0.627,1.293,1.287,1.532
				c0.17,0.062,0.354,0.102,0.543,0.117l1.453,0.102l-0.152,1.45c-0.094,0.91,0.443,1.771,1.308,2.084l2.817,1.025
				c0.863,0.313,1.828,0,2.343-0.76l0.815-1.207l1.178,0.854c0.154,0.111,0.32,0.197,0.492,0.261
				c0.658,0.239,1.412,0.12,1.969-0.348l2.3-1.931c0.703-0.591,0.914-1.582,0.512-2.408l-0.637-1.31l1.33-0.594
				c0.838-0.372,1.313-1.271,1.154-2.174l-0.521-2.956c-0.127-0.717-0.627-1.292-1.286-1.531c-0.173-0.062-0.354-0.102-0.544-0.117
				l-1.453-0.102l0.152-1.449C339.957,4.428,339.418,3.567,338.555,3.252z"/>
		</g>
		<g>
			<path d="M333.896,9.667c1.104,0,2,0.895,2,2c0,1.104-0.896,2-2,2c-1.104,0-2-0.896-2-2
				C331.896,10.561,332.793,9.667,333.896,9.667 M333.896,8.667c-1.654,0-3,1.346-3,3s1.346,3,3,3c1.653,0,3-1.346,3-3
				S335.551,8.667,333.896,8.667z"/>
		</g>
		<g>
			<path d="M342.435,20l0.986,1.46l1.425-1.035l1.151,0.966l-0.773,1.584l1.611,0.717l-0.261,1.479l-1.758,0.124l0.183,1.754
				l-1.409,0.513l-0.987-1.461l-1.427,1.036l-1.148-0.965l0.771-1.585l-1.608-0.717l0.26-1.479l1.759-0.123l-0.183-1.754L342.435,20
				 M342.092,19.061l-1.409,0.514c-0.432,0.156-0.7,0.587-0.651,1.044l0.075,0.724l-0.728,0.053
				c-0.096,0.006-0.186,0.025-0.271,0.058c-0.328,0.12-0.579,0.407-0.643,0.766l-0.261,1.478c-0.08,0.453,0.158,0.902,0.576,1.089
				l0.666,0.295l-0.319,0.655c-0.201,0.412-0.095,0.908,0.256,1.205l1.151,0.963c0.278,0.234,0.655,0.295,0.983,0.175
				c0.087-0.031,0.168-0.074,0.245-0.13l0.589-0.428l0.408,0.604c0.257,0.378,0.739,0.535,1.171,0.378l1.409-0.513
				c0.433-0.157,0.7-0.588,0.652-1.045l-0.075-0.725l0.726-0.051c0.096-0.006,0.188-0.027,0.272-0.059
				c0.329-0.119,0.58-0.407,0.643-0.767l0.262-1.478c0.078-0.452-0.159-0.899-0.578-1.088l-0.665-0.297l0.317-0.654
				c0.201-0.412,0.096-0.908-0.255-1.203l-1.149-0.966c-0.28-0.233-0.655-0.293-0.985-0.173c-0.086,0.031-0.168,0.074-0.246,0.13
				l-0.588,0.428l-0.409-0.603C343.005,19.061,342.523,18.904,342.092,19.061z"/>
		</g>
		<g>
			<path d="M343.012,22.781c0.551,0,1,0.447,1,1c0,0.552-0.449,1-1,1c-0.553,0-1-0.448-1-1
				C342.012,23.229,342.459,22.781,343.012,22.781 M343.012,22.281c-0.828,0-1.5,0.673-1.5,1.5c0,0.826,0.672,1.5,1.5,1.5
				c0.826,0,1.5-0.674,1.5-1.5C344.512,22.954,343.838,22.281,343.012,22.281z"/>
		</g>
		<g>
			<path d="M370.098,5.275l-0.487,3.491l3.505,0.369l0.419,2.973l-3.269,1.321l1.433,3.223l-2.364,1.849l-2.78-2.17l-2.073,2.853
				l-2.782-1.125l0.488-3.492l-3.506-0.37l-0.419-2.973l3.27-1.323l-1.432-3.22l2.364-1.849l2.778,2.17l2.074-2.851L370.098,5.275
				 M370.846,3.42l-2.78-1.124c-0.853-0.344-1.826-0.063-2.366,0.679l-0.856,1.177l-1.147-0.896c-0.15-0.117-0.313-0.21-0.481-0.278
				c-0.649-0.263-1.408-0.17-1.98,0.278l-2.364,1.849c-0.725,0.566-0.969,1.553-0.597,2.389l0.592,1.33l-1.352,0.549
				c-0.851,0.343-1.358,1.222-1.23,2.131l0.418,2.973c0.101,0.721,0.582,1.313,1.231,1.576c0.168,0.068,0.351,0.114,0.539,0.136
				l1.449,0.152l-0.203,1.444c-0.125,0.904,0.381,1.783,1.232,2.128l2.781,1.124c0.852,0.344,1.827,0.064,2.364-0.68l0.859-1.178
				l1.146,0.896c0.15,0.118,0.313,0.21,0.483,0.278c0.648,0.263,1.406,0.17,1.979-0.278l2.364-1.849
				c0.725-0.565,0.97-1.55,0.598-2.39l-0.592-1.331l1.351-0.547c0.851-0.343,1.356-1.224,1.229-2.132l-0.418-2.973
				c-0.102-0.721-0.581-1.312-1.23-1.575c-0.17-0.069-0.351-0.114-0.539-0.137l-1.448-0.152l0.201-1.442
				C372.205,4.644,371.697,3.764,370.846,3.42z"/>
		</g>
		<g>
			<path d="M365.896,9.667c1.104,0,2,0.895,2,2c0,1.104-0.896,2-2,2c-1.104,0-2-0.896-2-2
				C363.896,10.561,364.793,9.667,365.896,9.667 M365.896,8.667c-1.654,0-3,1.346-3,3s1.346,3,3,3c1.653,0,3-1.346,3-3
				S367.551,8.667,365.896,8.667z"/>
		</g>
		<g>
			<path d="M374.302,20.021l1.037,1.426l1.389-1.084l1.185,0.924l-0.717,1.609l1.634,0.662l-0.208,1.486l-1.753,0.186l0.244,1.746
				l-1.392,0.562l-1.037-1.426l-1.391,1.085l-1.183-0.925l0.717-1.611l-1.635-0.66l0.209-1.486l1.754-0.185l-0.244-1.746
				L374.302,20.021 M373.927,19.096l-1.391,0.562c-0.426,0.172-0.68,0.611-0.615,1.066l0.103,0.719l-0.727,0.078
				c-0.095,0.01-0.185,0.033-0.271,0.066c-0.323,0.131-0.564,0.428-0.614,0.788l-0.209,1.485c-0.063,0.455,0.189,0.896,0.614,1.066
				l0.676,0.272l-0.296,0.667c-0.188,0.418-0.063,0.91,0.298,1.193l1.184,0.924c0.286,0.225,0.666,0.271,0.989,0.14
				c0.085-0.034,0.165-0.081,0.241-0.14l0.574-0.447l0.429,0.59c0.27,0.37,0.758,0.509,1.184,0.337l1.392-0.562
				c0.426-0.172,0.679-0.611,0.613-1.065L378,26.116l0.724-0.076c0.096-0.011,0.188-0.034,0.271-0.067
				c0.325-0.132,0.564-0.429,0.616-0.789l0.209-1.485c0.062-0.454-0.191-0.894-0.617-1.066l-0.675-0.274l0.296-0.664
				c0.187-0.42,0.062-0.912-0.297-1.194l-1.184-0.924c-0.288-0.224-0.665-0.271-0.991-0.14c-0.085,0.035-0.165,0.08-0.24,0.139
				l-0.573,0.447l-0.43-0.588C374.841,19.064,374.353,18.924,373.927,19.096z"/>
		</g>
		<g>
			<path d="M375.012,22.781c0.551,0,1,0.447,1,1c0,0.552-0.449,1-1,1c-0.553,0-1-0.448-1-1
				C374.012,23.229,374.459,22.781,375.012,22.781 M375.012,22.281c-0.828,0-1.5,0.673-1.5,1.5c0,0.826,0.672,1.5,1.5,1.5
				c0.826,0,1.5-0.674,1.5-1.5C376.512,22.954,375.838,22.281,375.012,22.281z"/>
		</g>
		<g>
			<path d="M402.317,5.424l-0.609,3.473l3.49,0.491l0.314,2.985l-3.312,1.207l1.317,3.27l-2.428,1.767l-2.702-2.266l-2.174,2.777
				l-2.74-1.22l0.61-3.474l-3.49-0.492l-0.313-2.986l3.312-1.208l-1.317-3.268l2.428-1.765l2.701,2.266l2.172-2.776L402.317,5.424
				 M403.131,3.597l-2.741-1.22c-0.838-0.374-1.821-0.128-2.388,0.596l-0.896,1.146l-1.116-0.935
				c-0.146-0.123-0.307-0.221-0.473-0.295c-0.641-0.285-1.4-0.219-1.988,0.209L391.1,4.863c-0.743,0.54-1.021,1.518-0.68,2.366
				l0.545,1.35l-1.369,0.501c-0.86,0.313-1.4,1.174-1.305,2.087l0.314,2.986c0.073,0.724,0.534,1.332,1.176,1.617
				c0.166,0.074,0.346,0.127,0.533,0.155l1.442,0.203l-0.252,1.437c-0.158,0.9,0.317,1.797,1.156,2.17l2.74,1.221
				c0.839,0.374,1.823,0.128,2.389-0.596l0.9-1.147l1.113,0.935c0.146,0.123,0.307,0.222,0.475,0.297
				c0.639,0.283,1.398,0.217,1.986-0.211l2.429-1.765c0.742-0.541,1.021-1.515,0.68-2.367l-0.545-1.351l1.368-0.5
				c0.861-0.312,1.399-1.176,1.304-2.087l-0.312-2.985c-0.076-0.725-0.534-1.333-1.176-1.618c-0.168-0.074-0.346-0.126-0.534-0.154
				l-1.442-0.203l0.252-1.435C404.447,4.868,403.97,3.971,403.131,3.597z"/>
		</g>
		<g>
			<path d="M397.896,9.667c1.104,0,2,0.895,2,2c0,1.104-0.896,2-2,2c-1.104,0-2-0.896-2-2
				C395.896,10.561,396.793,9.667,397.896,9.667 M397.896,8.667c-1.654,0-3,1.346-3,3s1.346,3,3,3c1.653,0,3-1.346,3-3
				S399.551,8.667,397.896,8.667z"/>
		</g>
		<g>
			<path d="M406.172,20.05l1.087,1.388l1.35-1.131l1.216,0.881l-0.66,1.635l1.656,0.604l-0.156,1.492l-1.746,0.246l0.306,1.736
				l-1.37,0.61l-1.087-1.389l-1.351,1.133l-1.215-0.882l0.66-1.635l-1.656-0.604l0.156-1.492l1.746-0.246l-0.306-1.736
				L406.172,20.05 M405.766,19.136l-1.369,0.61c-0.421,0.188-0.658,0.635-0.579,1.087l0.127,0.717l-0.723,0.103
				c-0.096,0.013-0.184,0.039-0.268,0.076c-0.32,0.144-0.549,0.447-0.587,0.81l-0.157,1.493c-0.049,0.458,0.222,0.888,0.651,1.044
				l0.684,0.249L403.273,26c-0.173,0.425-0.032,0.913,0.339,1.184l1.216,0.881c0.294,0.215,0.674,0.248,0.993,0.105
				c0.084-0.038,0.162-0.087,0.235-0.146l0.56-0.469l0.449,0.574c0.28,0.359,0.773,0.482,1.192,0.296l1.371-0.61
				c0.419-0.187,0.656-0.635,0.576-1.086l-0.125-0.719l0.72-0.101c0.095-0.013,0.187-0.041,0.27-0.078
				c0.319-0.144,0.55-0.447,0.588-0.81l0.156-1.492c0.047-0.456-0.223-0.887-0.652-1.045l-0.686-0.248l0.272-0.676
				c0.172-0.426,0.031-0.914-0.339-1.185l-1.214-0.882c-0.296-0.215-0.675-0.247-0.996-0.104c-0.083,0.037-0.162,0.086-0.235,0.146
				l-0.558,0.468l-0.449-0.573C406.677,19.072,406.185,18.949,405.766,19.136z"/>
		</g>
		<g>
			<path d="M407.012,22.781c0.551,0,1,0.447,1,1c0,0.552-0.449,1-1,1c-0.553,0-1-0.448-1-1
				C406.012,23.229,406.459,22.781,407.012,22.781 M407.012,22.281c-0.828,0-1.5,0.673-1.5,1.5c0,0.826,0.672,1.5,1.5,1.5
				c0.826,0,1.5-0.674,1.5-1.5C408.512,22.954,407.838,22.281,407.012,22.281z"/>
		</g>
		<g>
			<path d="M434.532,5.583l-0.73,3.448l3.473,0.613l0.21,2.995l-3.354,1.09l1.204,3.314l-2.487,1.68l-2.622-2.358l-2.269,2.7
				l-2.697-1.314l0.731-3.451l-3.473-0.613l-0.21-2.994l3.354-1.092l-1.203-3.312l2.488-1.679l2.62,2.358l2.269-2.699L434.532,5.583
				 M435.409,3.786l-2.696-1.314c-0.825-0.402-1.816-0.191-2.408,0.512l-0.937,1.114l-1.083-0.974
				c-0.144-0.128-0.298-0.231-0.462-0.312c-0.63-0.308-1.394-0.268-1.995,0.14L423.34,4.63c-0.761,0.515-1.073,1.48-0.761,2.342
				l0.498,1.367l-1.386,0.453c-0.873,0.283-1.442,1.124-1.378,2.04l0.21,2.995c0.05,0.727,0.488,1.351,1.118,1.658
				c0.163,0.079,0.342,0.139,0.528,0.173l1.436,0.253l-0.304,1.427c-0.188,0.895,0.256,1.807,1.081,2.209l2.696,1.314
				c0.825,0.402,1.818,0.191,2.407-0.512l0.938-1.115l1.081,0.974c0.144,0.128,0.299,0.231,0.463,0.312
				c0.629,0.308,1.393,0.269,1.994-0.141l2.487-1.679c0.762-0.515,1.075-1.478,0.763-2.341l-0.498-1.369l1.385-0.451
				c0.873-0.283,1.441-1.127,1.376-2.042l-0.208-2.993c-0.052-0.728-0.487-1.352-1.118-1.658c-0.165-0.08-0.342-0.139-0.528-0.174
				l-1.436-0.252l0.303-1.426C436.68,5.101,436.234,4.188,435.409,3.786z"/>
		</g>
		<g>
			<path d="M429.896,9.667c1.104,0,2,0.895,2,2c0,1.104-0.896,2-2,2c-1.104,0-2-0.896-2-2
				C427.896,10.561,428.793,9.667,429.896,9.667 M429.896,8.667c-1.654,0-3,1.346-3,3s1.346,3,3,3c1.653,0,3-1.346,3-3
				S431.551,8.667,429.896,8.667z"/>
		</g>
		<g>
			<path d="M438.042,20.081l1.133,1.351l1.311-1.18l1.245,0.839l-0.604,1.656l1.677,0.546l-0.104,1.498l-1.735,0.307l0.365,1.726
				l-1.348,0.657l-1.136-1.351l-1.311,1.181l-1.244-0.84l0.602-1.656l-1.676-0.545l0.104-1.498l1.735-0.308l-0.364-1.725
				L438.042,20.081 M437.603,19.184l-1.348,0.656c-0.412,0.201-0.636,0.658-0.54,1.105l0.151,0.713l-0.718,0.127
				c-0.096,0.017-0.184,0.046-0.266,0.086c-0.313,0.152-0.533,0.466-0.559,0.829l-0.104,1.497c-0.032,0.459,0.251,0.88,0.688,1.021
				l0.691,0.226l-0.248,0.685c-0.156,0.431,0,0.914,0.38,1.171l1.245,0.84c0.303,0.203,0.684,0.223,0.997,0.069
				c0.082-0.04,0.159-0.091,0.23-0.155l0.542-0.486l0.469,0.559c0.294,0.35,0.791,0.455,1.203,0.253l1.349-0.657
				c0.413-0.201,0.636-0.658,0.538-1.105l-0.149-0.713l0.717-0.127c0.095-0.017,0.184-0.047,0.266-0.086
				c0.315-0.153,0.533-0.467,0.561-0.83l0.104-1.496c0.031-0.459-0.252-0.879-0.688-1.021l-0.692-0.226l0.248-0.685
				c0.157-0.432,0-0.914-0.38-1.17l-1.243-0.841c-0.304-0.203-0.683-0.224-0.999-0.069c-0.082,0.041-0.159,0.092-0.229,0.155
				l-0.541,0.486l-0.471-0.558C438.512,19.087,438.016,18.98,437.603,19.184z"/>
		</g>
		<g>
			<path d="M439.012,22.781c0.551,0,1,0.447,1,1c0,0.552-0.449,1-1,1c-0.553,0-1-0.448-1-1
				C438.012,23.229,438.459,22.781,439.012,22.781 M439.012,22.281c-0.828,0-1.5,0.673-1.5,1.5c0,0.826,0.672,1.5,1.5,1.5
				c0.826,0,1.5-0.674,1.5-1.5C440.512,22.954,439.838,22.281,439.012,22.281z"/>
		</g>
		<g>
			<path d="M466.742,5.749l-0.851,3.421l3.447,0.734l0.105,3l-3.39,0.973l1.088,3.354l-2.545,1.592l-2.537-2.449l-2.361,2.62
				l-2.649-1.408l0.853-3.423l-3.448-0.734l-0.105-3l3.391-0.975l-1.087-3.352l2.545-1.592l2.536,2.449l2.36-2.618L466.742,5.749
				 M467.682,3.983l-2.648-1.409c-0.812-0.431-1.811-0.254-2.424,0.428l-0.977,1.081l-1.049-1.011
				c-0.137-0.133-0.289-0.241-0.449-0.326c-0.619-0.33-1.383-0.316-1.999,0.069l-2.545,1.591c-0.779,0.487-1.126,1.442-0.843,2.312
				l0.449,1.384l-1.4,0.404c-0.883,0.252-1.479,1.074-1.447,1.991l0.105,3c0.023,0.728,0.439,1.367,1.06,1.696
				c0.161,0.086,0.336,0.15,0.522,0.191l1.424,0.303l-0.352,1.416c-0.221,0.888,0.191,1.814,1.003,2.246l2.648,1.407
				c0.812,0.431,1.812,0.255,2.424-0.427l0.978-1.082l1.047,1.01c0.138,0.133,0.29,0.241,0.452,0.328
				c0.617,0.328,1.381,0.314,1.997-0.07l2.545-1.592c0.779-0.486,1.127-1.439,0.844-2.312l-0.449-1.386l1.399-0.402
				c0.882-0.252,1.479-1.076,1.446-1.992l-0.104-2.999c-0.026-0.729-0.44-1.368-1.061-1.696c-0.162-0.087-0.336-0.15-0.521-0.191
				l-1.426-0.303l0.352-1.414C468.905,5.341,468.492,4.414,467.682,3.983z"/>
		</g>
		<g>
			<path d="M461.896,9.667c1.104,0,2,0.895,2,2c0,1.104-0.896,2-2,2c-1.104,0-2-0.896-2-2
				C459.896,10.561,460.793,9.667,461.896,9.667 M461.896,8.667c-1.654,0-3,1.346-3,3s1.346,3,3,3c1.653,0,3-1.346,3-3
				S463.551,8.667,461.896,8.667z"/>
		</g>
		<g>
			<path d="M469.913,20.117l1.182,1.309l1.268-1.224l1.272,0.795l-0.544,1.677l1.694,0.487l-0.052,1.499l-1.726,0.367l0.426,1.712
				l-1.323,0.704l-1.183-1.311l-1.269,1.225l-1.272-0.795l0.544-1.679l-1.693-0.485l0.053-1.5l1.725-0.367l-0.426-1.711
				L469.913,20.117 M469.444,19.232l-1.324,0.705c-0.405,0.215-0.612,0.68-0.502,1.125l0.177,0.707l-0.713,0.151
				c-0.094,0.021-0.181,0.054-0.262,0.097c-0.31,0.164-0.518,0.483-0.529,0.848l-0.052,1.5c-0.018,0.46,0.282,0.871,0.723,0.996
				l0.699,0.201l-0.226,0.693c-0.142,0.436,0.032,0.913,0.422,1.157l1.273,0.794c0.309,0.193,0.689,0.199,0.998,0.035
				c0.082-0.043,0.156-0.098,0.226-0.162l0.524-0.506l0.488,0.542c0.307,0.339,0.807,0.427,1.212,0.212l1.324-0.704
				c0.404-0.216,0.61-0.679,0.499-1.124l-0.176-0.708l0.713-0.151c0.094-0.02,0.182-0.053,0.262-0.096
				c0.31-0.164,0.518-0.484,0.529-0.848l0.053-1.5c0.015-0.459-0.283-0.869-0.726-0.996L474.359,22l0.225-0.693
				c0.142-0.436-0.033-0.912-0.421-1.156l-1.272-0.795c-0.31-0.192-0.688-0.199-1-0.035c-0.081,0.043-0.155,0.099-0.226,0.164
				l-0.523,0.506l-0.487-0.541C470.349,19.105,469.85,19.02,469.444,19.232z"/>
		</g>
		<g>
			<path d="M471.012,22.781c0.551,0,1,0.447,1,1c0,0.552-0.449,1-1,1c-0.553,0-1-0.448-1-1
				C470.012,23.229,470.459,22.781,471.012,22.781 M471.012,22.281c-0.828,0-1.5,0.673-1.5,1.5c0,0.826,0.672,1.5,1.5,1.5
				c0.826,0,1.5-0.674,1.5-1.5C472.512,22.954,471.838,22.281,471.012,22.281z"/>
		</g>
		<g>
			<path d="M498.945,5.92l-0.97,3.391l3.421,0.854l0.001,3.002l-3.421,0.854l0.971,3.391l-2.6,1.501l-2.45-2.536l-2.452,2.536
				l-2.599-1.5l0.971-3.392l-3.42-0.854l-0.001-3.002l3.421-0.855l-0.97-3.388l2.6-1.501l2.449,2.535l2.45-2.535L498.945,5.92
				 M499.945,4.189l-2.599-1.5c-0.795-0.459-1.8-0.317-2.438,0.343l-1.013,1.047l-1.013-1.047c-0.133-0.139-0.28-0.252-0.438-0.343
				c-0.607-0.351-1.371-0.364-2.001,0l-2.6,1.501c-0.795,0.46-1.175,1.402-0.923,2.283l0.401,1.398l-1.414,0.355
				c-0.891,0.221-1.518,1.021-1.518,1.939l0.002,3.002c-0.002,0.728,0.393,1.381,1,1.732c0.156,0.09,0.33,0.161,0.516,0.209
				l1.413,0.353l-0.401,1.402c-0.251,0.879,0.129,1.818,0.924,2.277l2.599,1.5c0.795,0.459,1.802,0.318,2.438-0.342l1.016-1.047
				l1.012,1.045c0.132,0.139,0.281,0.252,0.438,0.344c0.605,0.351,1.369,0.363,1.999,0l2.6-1.502
				c0.796-0.459,1.176-1.399,0.924-2.283l-0.4-1.399l1.413-0.354c0.891-0.221,1.516-1.023,1.516-1.939v-3.002
				c0-0.729-0.394-1.381-1-1.732c-0.159-0.092-0.331-0.161-0.516-0.209l-1.414-0.353l0.4-1.401
				C501.122,5.59,500.74,4.648,499.945,4.189z"/>
		</g>
		<g>
			<path d="M493.896,9.667c1.104,0,2,0.895,2,2c0,1.104-0.896,2-2,2c-1.104,0-2-0.896-2-2
				C491.896,10.561,492.793,9.667,493.896,9.667 M493.896,8.667c-1.654,0-3,1.346-3,3s1.346,3,3,3c1.653,0,3-1.346,3-3
				S495.551,8.667,493.896,8.667z"/>
		</g>
		<g>
			<path d="M501.786,20.158l1.226,1.267l1.225-1.267l1.3,0.75l-0.485,1.693l1.711,0.428v1.5l-1.71,0.428l0.485,1.695l-1.3,0.75
				l-1.227-1.268l-1.226,1.268l-1.299-0.75l0.483-1.694l-1.71-0.427v-1.5l1.711-0.428l-0.484-1.694L501.786,20.158 M501.286,19.292
				l-1.3,0.75c-0.397,0.229-0.588,0.7-0.461,1.142l0.199,0.699l-0.707,0.178c-0.093,0.022-0.178,0.059-0.258,0.104
				c-0.303,0.175-0.499,0.502-0.5,0.865l0.001,1.5c-0.001,0.461,0.312,0.861,0.757,0.972l0.706,0.176l-0.198,0.701
				c-0.127,0.44,0.062,0.911,0.46,1.142l1.301,0.75c0.314,0.182,0.697,0.174,1,0c0.079-0.047,0.152-0.104,0.219-0.17l0.506-0.524
				l0.508,0.524c0.317,0.327,0.82,0.397,1.219,0.168l1.3-0.75c0.396-0.229,0.587-0.699,0.46-1.141l-0.2-0.701l0.706-0.176
				c0.093-0.023,0.181-0.059,0.259-0.104c0.304-0.176,0.5-0.502,0.5-0.867v-1.5c-0.001-0.459-0.312-0.857-0.759-0.969l-0.706-0.178
				l0.199-0.699c0.127-0.441-0.063-0.912-0.46-1.143l-1.3-0.75c-0.316-0.182-0.696-0.175-1.001,0
				c-0.079,0.046-0.152,0.104-0.221,0.171l-0.505,0.522l-0.507-0.522C502.186,19.133,501.684,19.062,501.286,19.292z"/>
		</g>
		<g>
			<path d="M503.012,22.781c0.551,0,1,0.447,1,1c0,0.552-0.449,1-1,1c-0.553,0-1-0.448-1-1
				C502.012,23.229,502.459,22.781,503.012,22.781 M503.012,22.281c-0.828,0-1.5,0.673-1.5,1.5c0,0.826,0.672,1.5,1.5,1.5
				c0.826,0,1.5-0.674,1.5-1.5C504.512,22.954,503.838,22.281,503.012,22.281z"/>
		</g>
	</g>
</g>
<g id="Layer_4">
</g>
</svg>
