<?xml version="1.0" encoding="iso-8859-1"?>
<!-- Generator: Adobe Illustrator 16.2.1, SVG Export Plug-In . SVG Version: 6.00 Build 0)  -->
<!DOCTYPE svg PUBLIC "-//W3C//DTD SVG 1.1 Tiny//EN" "http://www.w3.org/Graphics/SVG/1.1/DTD/svg11-tiny.dtd">
<svg version="1.1" baseProfile="tiny" xmlns="http://www.w3.org/2000/svg" xmlns:xlink="http://www.w3.org/1999/xlink" x="0px"
	 y="0px" width="512px" height="32px" viewBox="0 0 512 32" xml:space="preserve">
<g id="Layer_2_copy">
</g>
<g id="Layer_2">
</g>
<g id="Layer_1">
	<g>
		<g>
			<path fill="#FFFFFF" d="M24,9c0.55,0,1,0.45,1,1v14c0,0.55-0.45,1-1,1H8c-0.55,0-1-0.45-1-1V10c0-0.55,0.45-1,1-1H24z"/>
			<path fill="none" stroke="#000000" stroke-width="2" stroke-linecap="round" stroke-linejoin="round" stroke-miterlimit="10" d="
				M24,9c0.55,0,1,0.45,1,1v14c0,0.55-0.45,1-1,1H8c-0.55,0-1-0.45-1-1V10c0-0.55,0.45-1,1-1H24z"/>
		</g>
		
			<line fill="none" stroke="#000000" stroke-width="2" stroke-linecap="round" stroke-linejoin="round" stroke-miterlimit="10" x1="10" y1="7" x2="10" y2="11"/>
		
			<line fill="none" stroke="#000000" stroke-width="2" stroke-linecap="round" stroke-linejoin="round" stroke-miterlimit="10" x1="14" y1="7" x2="14" y2="11"/>
		
			<line fill="none" stroke="#000000" stroke-width="2" stroke-linecap="round" stroke-linejoin="round" stroke-miterlimit="10" x1="18" y1="7" x2="18" y2="11"/>
		
			<line fill="none" stroke="#000000" stroke-width="2" stroke-linecap="round" stroke-linejoin="round" stroke-miterlimit="10" x1="22" y1="7" x2="22" y2="11"/>
		<path d="M17,15v2h-2v-2H17 M17,14h-2c-0.55,0-1,0.45-1,1v2c0,0.55,0.45,1,1,1h2c0.55,0,1-0.45,1-1v-2C18,14.45,17.55,14,17,14
			L17,14z"/>
		<path d="M22,15v2h-2v-2H22 M22,14h-2c-0.55,0-1,0.45-1,1v2c0,0.55,0.45,1,1,1h2c0.55,0,1-0.45,1-1v-2C23,14.45,22.55,14,22,14
			L22,14z"/>
		<path d="M12,20v2h-2v-2H12 M12,19h-2c-0.55,0-1,0.45-1,1v2c0,0.55,0.45,1,1,1h2c0.55,0,1-0.45,1-1v-2C13,19.45,12.55,19,12,19
			L12,19z"/>
		<path d="M17,20v2h-2v-2H17 M17,19h-2c-0.55,0-1,0.45-1,1v2c0,0.55,0.45,1,1,1h2c0.55,0,1-0.45,1-1v-2C18,19.45,17.55,19,17,19
			L17,19z"/>
		
			<line fill="none" stroke="#000000" stroke-linecap="round" stroke-linejoin="round" stroke-miterlimit="10" x1="9.5" y1="17.5" x2="12.5" y2="14.5"/>
		
			<line fill="none" stroke="#000000" stroke-linecap="round" stroke-linejoin="round" stroke-miterlimit="10" x1="12.5" y1="17.5" x2="9.5" y2="14.5"/>
		<g>
			<path fill="#FFFFFF" d="M56.372,9.266c0.55,0.009,0.992,0.467,0.982,1.017L57.109,24.28c-0.009,0.55-0.467,0.992-1.017,0.982
				l-15.998-0.279c-0.55-0.01-0.992-0.468-0.983-1.018l0.245-13.998c0.009-0.549,0.468-0.991,1.018-0.981L56.372,9.266z"/>
			<path fill="none" stroke="#000000" stroke-width="2" stroke-linecap="round" stroke-linejoin="round" stroke-miterlimit="10" d="
				M56.372,9.266c0.55,0.009,0.992,0.467,0.982,1.017L57.109,24.28c-0.009,0.55-0.467,0.992-1.017,0.982l-15.998-0.279
				c-0.55-0.01-0.992-0.468-0.983-1.018l0.245-13.998c0.009-0.549,0.468-0.991,1.018-0.981L56.372,9.266z"/>
		</g>
		
			<line fill="none" stroke="#000000" stroke-width="2" stroke-linecap="round" stroke-linejoin="round" stroke-miterlimit="10" x1="42.408" y1="7.021" x2="42.338" y2="11.021"/>
		
			<line fill="none" stroke="#000000" stroke-width="2" stroke-linecap="round" stroke-linejoin="round" stroke-miterlimit="10" x1="46.408" y1="7.091" x2="46.338" y2="11.09"/>
		
			<line fill="none" stroke="#000000" stroke-width="2" stroke-linecap="round" stroke-linejoin="round" stroke-miterlimit="10" x1="50.407" y1="7.16" x2="50.337" y2="11.16"/>
		
			<line fill="none" stroke="#000000" stroke-width="2" stroke-linecap="round" stroke-linejoin="round" stroke-miterlimit="10" x1="54.407" y1="7.23" x2="54.337" y2="11.229"/>
		<path d="M49.268,15.142l-0.035,2l-2-0.035l0.035-1.999L49.268,15.142 M49.285,14.142l-2-0.034c-0.55-0.01-1.008,0.433-1.018,0.982
			l-0.035,1.999c-0.01,0.55,0.433,1.008,0.982,1.018l2,0.035c0.55,0.01,1.008-0.433,1.018-0.982l0.035-2
			C50.277,14.609,49.835,14.151,49.285,14.142L49.285,14.142z"/>
		<path d="M54.267,15.229l-0.035,1.999l-2-0.034l0.035-2L54.267,15.229 M54.285,14.229l-2-0.035c-0.55-0.01-1.007,0.433-1.017,0.982
			l-0.035,2c-0.01,0.55,0.432,1.008,0.982,1.018l2,0.034c0.549,0.01,1.007-0.433,1.017-0.982l0.035-1.999
			C55.276,14.697,54.834,14.239,54.285,14.229L54.285,14.229z"/>
		<path d="M44.181,20.054l-0.035,2l-2-0.035l0.035-2L44.181,20.054 M44.199,19.055l-2-0.035c-0.549-0.01-1.007,0.433-1.017,0.982
			l-0.035,2c-0.01,0.549,0.433,1.007,0.982,1.017l2,0.035c0.55,0.009,1.007-0.433,1.017-0.982l0.035-2
			C45.19,19.521,44.749,19.063,44.199,19.055L44.199,19.055z"/>
		<path d="M49.18,20.142l-0.035,2l-2-0.035l0.035-2L49.18,20.142 M49.198,19.142l-2-0.035c-0.55-0.01-1.008,0.433-1.018,0.982
			l-0.035,2c-0.01,0.549,0.433,1.007,0.982,1.017l2,0.035c0.55,0.01,1.008-0.433,1.018-0.982l0.035-2
			C50.19,19.608,49.748,19.151,49.198,19.142L49.198,19.142z"/>
		
			<line fill="none" stroke="#000000" stroke-linecap="round" stroke-linejoin="round" stroke-miterlimit="10" x1="41.725" y1="17.511" x2="44.777" y2="14.563"/>
		
			<line fill="none" stroke="#000000" stroke-linecap="round" stroke-linejoin="round" stroke-miterlimit="10" x1="44.725" y1="17.563" x2="41.777" y2="14.511"/>
		<g>
			<path fill="#FFFFFF" d="M88.738,9.595c0.549,0.02,0.983,0.484,0.964,1.034L89.214,24.62c-0.019,0.55-0.485,0.984-1.034,0.965
				l-15.99-0.559c-0.55-0.02-0.983-0.485-0.964-1.034L71.714,10c0.019-0.549,0.484-0.983,1.034-0.964L88.738,9.595z"/>
			<path fill="none" stroke="#000000" stroke-width="2" stroke-linecap="round" stroke-linejoin="round" stroke-miterlimit="10" d="
				M88.738,9.595c0.549,0.02,0.983,0.484,0.964,1.034L89.214,24.62c-0.019,0.55-0.485,0.984-1.034,0.965l-15.99-0.559
				c-0.55-0.02-0.983-0.485-0.964-1.034L71.714,10c0.019-0.549,0.484-0.983,1.034-0.964L88.738,9.595z"/>
		</g>
		
			<line fill="none" stroke="#000000" stroke-width="2" stroke-linecap="round" stroke-linejoin="round" stroke-miterlimit="10" x1="74.816" y1="7.107" x2="74.677" y2="11.104"/>
		
			<line fill="none" stroke="#000000" stroke-width="2" stroke-linecap="round" stroke-linejoin="round" stroke-miterlimit="10" x1="78.814" y1="7.247" x2="78.674" y2="11.244"/>
		
			<line fill="none" stroke="#000000" stroke-width="2" stroke-linecap="round" stroke-linejoin="round" stroke-miterlimit="10" x1="82.812" y1="7.386" x2="82.672" y2="11.384"/>
		
			<line fill="none" stroke="#000000" stroke-width="2" stroke-linecap="round" stroke-linejoin="round" stroke-miterlimit="10" x1="86.809" y1="7.525" x2="86.669" y2="11.523"/>
		<path d="M81.533,15.347l-0.07,1.999l-1.999-0.07l0.07-1.999L81.533,15.347 M81.568,14.347l-1.999-0.069
			c-0.549-0.02-1.015,0.415-1.035,0.964l-0.07,2c-0.019,0.549,0.416,1.015,0.965,1.033l1.999,0.07
			c0.55,0.019,1.015-0.415,1.034-0.965l0.07-1.999C82.551,14.832,82.118,14.366,81.568,14.347L81.568,14.347z"/>
		<path d="M86.53,15.521l-0.07,1.999l-1.999-0.069l0.07-1.999L86.53,15.521 M86.565,14.521l-1.999-0.07
			c-0.55-0.019-1.015,0.416-1.035,0.965l-0.07,1.999c-0.019,0.55,0.415,1.015,0.965,1.034l1.999,0.069
			c0.549,0.02,1.015-0.414,1.034-0.964l0.07-1.999C87.548,15.007,87.114,14.541,86.565,14.521L86.565,14.521z"/>
		<path d="M76.362,20.169l-0.07,1.999l-1.999-0.07l0.07-1.998L76.362,20.169 M76.396,19.17l-1.999-0.07
			c-0.549-0.02-1.015,0.415-1.034,0.965l-0.07,1.998c-0.019,0.55,0.415,1.016,0.964,1.035l1.999,0.069
			c0.549,0.02,1.015-0.415,1.034-0.965l0.07-1.998C77.38,19.654,76.946,19.188,76.396,19.17L76.396,19.17z"/>
		<path d="M81.358,20.344l-0.07,1.998l-1.999-0.069l0.07-1.999L81.358,20.344 M81.393,19.344l-1.999-0.069
			c-0.549-0.02-1.015,0.415-1.034,0.965l-0.07,1.998c-0.019,0.55,0.415,1.016,0.964,1.034l1.999,0.07
			c0.55,0.019,1.016-0.415,1.035-0.965l0.07-1.999C82.377,19.829,81.943,19.363,81.393,19.344L81.393,19.344z"/>
		
			<line fill="none" stroke="#000000" stroke-linecap="round" stroke-linejoin="round" stroke-miterlimit="10" x1="73.951" y1="17.583" x2="77.053" y2="14.689"/>
		
			<line fill="none" stroke="#000000" stroke-linecap="round" stroke-linejoin="round" stroke-miterlimit="10" x1="76.949" y1="17.688" x2="74.055" y2="14.585"/>
		<g>
			<path fill="#FFFFFF" d="M121.103,9.902c0.549,0.028,0.975,0.501,0.946,1.051l-0.732,13.98c-0.029,0.549-0.502,0.976-1.051,0.946
				l-15.978-0.837c-0.549-0.029-0.975-0.502-0.946-1.052l0.732-13.98c0.029-0.549,0.502-0.975,1.051-0.946L121.103,9.902z"/>
			<path fill="none" stroke="#000000" stroke-width="2" stroke-linecap="round" stroke-linejoin="round" stroke-miterlimit="10" d="
				M121.103,9.902c0.549,0.028,0.975,0.501,0.946,1.051l-0.732,13.98c-0.029,0.549-0.502,0.976-1.051,0.946l-15.978-0.837
				c-0.549-0.029-0.975-0.502-0.946-1.052l0.732-13.98c0.029-0.549,0.502-0.975,1.051-0.946L121.103,9.902z"/>
		</g>
		
			<line fill="none" stroke="#000000" stroke-width="2" stroke-linecap="round" stroke-linejoin="round" stroke-miterlimit="10" x1="107.227" y1="7.172" x2="107.018" y2="11.166"/>
		
			<line fill="none" stroke="#000000" stroke-width="2" stroke-linecap="round" stroke-linejoin="round" stroke-miterlimit="10" x1="111.222" y1="7.381" x2="111.012" y2="11.376"/>
		
			<line fill="none" stroke="#000000" stroke-width="2" stroke-linecap="round" stroke-linejoin="round" stroke-miterlimit="10" x1="115.216" y1="7.591" x2="115.006" y2="11.585"/>
		
			<line fill="none" stroke="#000000" stroke-width="2" stroke-linecap="round" stroke-linejoin="round" stroke-miterlimit="10" x1="119.21" y1="7.8" x2="119.001" y2="11.794"/>
		<path d="M113.798,15.527l-0.104,1.997l-1.997-0.104l0.104-1.997L113.798,15.527 M113.851,14.528l-1.997-0.104
			c-0.549-0.028-1.022,0.397-1.051,0.946l-0.104,1.997c-0.029,0.55,0.397,1.022,0.946,1.051l1.997,0.104
			c0.549,0.029,1.022-0.396,1.051-0.945l0.104-1.997C114.826,15.03,114.4,14.558,113.851,14.528L113.851,14.528z"/>
		<path d="M118.792,15.789l-0.104,1.997l-1.997-0.104l0.104-1.997L118.792,15.789 M118.844,14.79l-1.997-0.104
			c-0.549-0.028-1.022,0.397-1.051,0.946l-0.104,1.997c-0.029,0.55,0.397,1.022,0.946,1.051l1.997,0.104
			c0.549,0.029,1.022-0.396,1.051-0.945l0.104-1.997C119.819,15.292,119.393,14.819,118.844,14.79L118.844,14.79z"/>
		<path d="M108.543,20.259l-0.104,1.997l-1.997-0.104l0.104-1.997L108.543,20.259 M108.596,19.26l-1.997-0.104
			c-0.549-0.029-1.022,0.397-1.051,0.946l-0.104,1.997c-0.029,0.55,0.397,1.022,0.946,1.051l1.997,0.105
			c0.549,0.028,1.022-0.397,1.051-0.946l0.104-1.997C109.571,19.762,109.146,19.288,108.596,19.26L108.596,19.26z"/>
		<path d="M113.537,20.521l-0.104,1.997l-1.997-0.104l0.104-1.997L113.537,20.521 M113.589,19.521l-1.997-0.104
			c-0.549-0.029-1.022,0.397-1.051,0.946l-0.104,1.997c-0.029,0.55,0.397,1.022,0.946,1.051l1.997,0.105
			c0.549,0.028,1.022-0.397,1.051-0.946l0.104-1.997C114.564,20.023,114.139,19.55,113.589,19.521L113.589,19.521z"/>
		
			<line fill="none" stroke="#000000" stroke-linecap="round" stroke-linejoin="round" stroke-miterlimit="10" x1="106.178" y1="17.632" x2="109.331" y2="14.792"/>
		
			<line fill="none" stroke="#000000" stroke-linecap="round" stroke-linejoin="round" stroke-miterlimit="10" x1="109.174" y1="17.788" x2="106.335" y2="14.636"/>
		<g>
			<path fill="#FFFFFF" d="M153.463,10.231c0.549,0.039,0.967,0.52,0.928,1.067l-0.977,13.966c-0.038,0.549-0.519,0.967-1.067,0.928
				l-15.961-1.115c-0.549-0.039-0.966-0.519-0.928-1.067l0.977-13.966c0.038-0.549,0.519-0.967,1.067-0.928L153.463,10.231z"/>
			<path fill="none" stroke="#000000" stroke-width="2" stroke-linecap="round" stroke-linejoin="round" stroke-miterlimit="10" d="
				M153.463,10.231c0.549,0.039,0.967,0.52,0.928,1.067l-0.977,13.966c-0.038,0.549-0.519,0.967-1.067,0.928l-15.961-1.115
				c-0.549-0.039-0.966-0.519-0.928-1.067l0.977-13.966c0.038-0.549,0.519-0.967,1.067-0.928L153.463,10.231z"/>
		</g>
		
			<line fill="none" stroke="#000000" stroke-width="2" stroke-linecap="round" stroke-linejoin="round" stroke-miterlimit="10" x1="139.637" y1="7.26" x2="139.358" y2="11.25"/>
		
			<line fill="none" stroke="#000000" stroke-width="2" stroke-linecap="round" stroke-linejoin="round" stroke-miterlimit="10" x1="143.627" y1="7.539" x2="143.348" y2="11.529"/>
		
			<line fill="none" stroke="#000000" stroke-width="2" stroke-linecap="round" stroke-linejoin="round" stroke-miterlimit="10" x1="147.617" y1="7.818" x2="147.338" y2="11.809"/>
		
			<line fill="none" stroke="#000000" stroke-width="2" stroke-linecap="round" stroke-linejoin="round" stroke-miterlimit="10" x1="151.607" y1="8.098" x2="151.329" y2="12.088"/>
		<path d="M146.062,15.729l-0.14,1.994l-1.995-0.139l0.14-1.995L146.062,15.729 M146.131,14.731l-1.995-0.14
			c-0.548-0.038-1.029,0.38-1.067,0.928l-0.14,1.995c-0.038,0.549,0.38,1.029,0.928,1.067l1.995,0.14
			c0.549,0.038,1.029-0.379,1.067-0.928l0.14-1.995C147.098,15.25,146.68,14.77,146.131,14.731L146.131,14.731z"/>
		<path d="M151.049,16.078l-0.14,1.995l-1.995-0.14l0.14-1.995L151.049,16.078 M151.119,15.08l-1.995-0.14
			c-0.548-0.038-1.029,0.38-1.067,0.928l-0.14,1.995c-0.038,0.549,0.379,1.029,0.928,1.067l1.995,0.14
			c0.549,0.038,1.029-0.379,1.067-0.928l0.14-1.995C152.085,15.6,151.668,15.118,151.119,15.08L151.119,15.08z"/>
		<path d="M140.725,20.368l-0.14,1.995l-1.995-0.14l0.14-1.995L140.725,20.368 M140.795,19.37l-1.995-0.14
			c-0.548-0.038-1.029,0.38-1.067,0.929l-0.14,1.994c-0.038,0.549,0.379,1.029,0.928,1.067l1.995,0.14
			c0.549,0.039,1.029-0.379,1.067-0.928l0.14-1.995C141.761,19.89,141.344,19.409,140.795,19.37L140.795,19.37z"/>
		<path d="M145.713,20.717l-0.14,1.995l-1.995-0.14l0.14-1.995L145.713,20.717 M145.783,19.72l-1.995-0.14
			c-0.548-0.039-1.029,0.379-1.067,0.928l-0.14,1.995c-0.038,0.549,0.379,1.028,0.928,1.067l1.995,0.14
			c0.549,0.038,1.029-0.38,1.067-0.929l0.14-1.995C146.749,20.238,146.332,19.758,145.783,19.72L145.783,19.72z"/>
		
			<line fill="none" stroke="#000000" stroke-linecap="round" stroke-linejoin="round" stroke-miterlimit="10" x1="138.406" y1="17.7" x2="141.608" y2="14.917"/>
		
			<line fill="none" stroke="#000000" stroke-linecap="round" stroke-linejoin="round" stroke-miterlimit="10" x1="141.398" y1="17.909" x2="138.615" y2="14.707"/>
		<g>
			<path fill="#FFFFFF" d="M185.82,10.566c0.548,0.048,0.957,0.536,0.909,1.084l-1.22,13.946c-0.048,0.548-0.535,0.957-1.083,0.909
				l-15.939-1.395c-0.548-0.048-0.958-0.536-0.91-1.084l1.22-13.946c0.048-0.548,0.536-0.957,1.084-0.909L185.82,10.566z"/>
			<path fill="none" stroke="#000000" stroke-width="2" stroke-linecap="round" stroke-linejoin="round" stroke-miterlimit="10" d="
				M185.82,10.566c0.548,0.048,0.957,0.536,0.909,1.084l-1.22,13.946c-0.048,0.548-0.535,0.957-1.083,0.909l-15.939-1.395
				c-0.548-0.048-0.958-0.536-0.91-1.084l1.22-13.946c0.048-0.548,0.536-0.957,1.084-0.909L185.82,10.566z"/>
		</g>
		
			<line fill="none" stroke="#000000" stroke-width="2" stroke-linecap="round" stroke-linejoin="round" stroke-miterlimit="10" x1="172.047" y1="7.354" x2="171.699" y2="11.339"/>
		
			<line fill="none" stroke="#000000" stroke-width="2" stroke-linecap="round" stroke-linejoin="round" stroke-miterlimit="10" x1="176.033" y1="7.703" x2="175.684" y2="11.688"/>
		
			<line fill="none" stroke="#000000" stroke-width="2" stroke-linecap="round" stroke-linejoin="round" stroke-miterlimit="10" x1="180.017" y1="8.051" x2="179.668" y2="12.036"/>
		
			<line fill="none" stroke="#000000" stroke-width="2" stroke-linecap="round" stroke-linejoin="round" stroke-miterlimit="10" x1="184.002" y1="8.399" x2="183.654" y2="12.385"/>
		<path d="M178.324,15.934l-0.174,1.992l-1.993-0.174l0.174-1.992L178.324,15.934 M178.411,14.938l-1.993-0.175
			c-0.548-0.048-1.035,0.362-1.083,0.909l-0.174,1.992c-0.048,0.549,0.361,1.036,0.909,1.084l1.993,0.174
			c0.547,0.048,1.036-0.361,1.083-0.909l0.174-1.992C179.368,15.473,178.958,14.985,178.411,14.938L178.411,14.938z"/>
		<path d="M183.305,16.369l-0.174,1.992l-1.993-0.174l0.174-1.992L183.305,16.369 M183.392,15.373l-1.993-0.175
			c-0.548-0.048-1.035,0.362-1.083,0.91l-0.174,1.992c-0.048,0.548,0.361,1.035,0.909,1.083l1.993,0.174
			c0.547,0.049,1.035-0.36,1.083-0.908l0.174-1.992C184.349,15.909,183.939,15.421,183.392,15.373L183.392,15.373z"/>
		<path d="M172.907,20.479l-0.174,1.992l-1.992-0.174l0.174-1.992L172.907,20.479 M172.994,19.482l-1.992-0.174
			c-0.548-0.049-1.036,0.361-1.083,0.909l-0.174,1.992c-0.048,0.548,0.361,1.035,0.909,1.083l1.992,0.174
			c0.548,0.049,1.036-0.36,1.083-0.908l0.174-1.992C173.951,20.019,173.542,19.53,172.994,19.482L172.994,19.482z"/>
		<path d="M177.888,20.915l-0.174,1.992l-1.993-0.175l0.174-1.992L177.888,20.915 M177.976,19.918l-1.993-0.174
			c-0.548-0.048-1.036,0.361-1.083,0.909l-0.174,1.992c-0.048,0.548,0.361,1.035,0.909,1.083l1.993,0.175
			c0.547,0.048,1.035-0.361,1.083-0.909l0.174-1.992C178.932,20.454,178.523,19.966,177.976,19.918L177.976,19.918z"/>
		
			<line fill="none" stroke="#000000" stroke-linecap="round" stroke-linejoin="round" stroke-miterlimit="10" x1="170.634" y1="17.771" x2="173.885" y2="15.043"/>
		
			<line fill="none" stroke="#000000" stroke-linecap="round" stroke-linejoin="round" stroke-miterlimit="10" x1="173.623" y1="18.032" x2="170.896" y2="14.781"/>
		<g>
			<path fill="#FFFFFF" d="M218.17,10.965c0.547,0.058,0.947,0.552,0.89,1.099l-1.463,13.923c-0.058,0.547-0.552,0.948-1.099,0.891
				l-15.913-1.673c-0.547-0.058-0.948-0.552-0.89-1.099l1.463-13.923c0.058-0.547,0.552-0.948,1.099-0.891L218.17,10.965z"/>
			<path fill="none" stroke="#000000" stroke-width="2" stroke-linecap="round" stroke-linejoin="round" stroke-miterlimit="10" d="
				M218.17,10.965c0.547,0.058,0.947,0.552,0.89,1.099l-1.463,13.923c-0.058,0.547-0.552,0.948-1.099,0.891l-15.913-1.673
				c-0.547-0.058-0.948-0.552-0.89-1.099l1.463-13.923c0.058-0.547,0.552-0.948,1.099-0.891L218.17,10.965z"/>
		</g>
		
			<line fill="none" stroke="#000000" stroke-width="2" stroke-linecap="round" stroke-linejoin="round" stroke-miterlimit="10" x1="204.456" y1="7.512" x2="204.038" y2="11.49"/>
		
			<line fill="none" stroke="#000000" stroke-width="2" stroke-linecap="round" stroke-linejoin="round" stroke-miterlimit="10" x1="208.434" y1="7.93" x2="208.016" y2="11.908"/>
		
			<line fill="none" stroke="#000000" stroke-width="2" stroke-linecap="round" stroke-linejoin="round" stroke-miterlimit="10" x1="212.412" y1="8.349" x2="211.994" y2="12.326"/>
		
			<line fill="none" stroke="#000000" stroke-width="2" stroke-linecap="round" stroke-linejoin="round" stroke-miterlimit="10" x1="216.39" y1="8.767" x2="215.972" y2="12.744"/>
		<path d="M210.582,16.2l-0.209,1.988l-1.989-0.209l0.209-1.989L210.582,16.2 M210.686,15.206l-1.989-0.21
			c-0.547-0.057-1.042,0.344-1.099,0.89l-0.209,1.989c-0.057,0.547,0.343,1.042,0.89,1.1l1.989,0.209
			c0.547,0.058,1.042-0.343,1.099-0.89l0.209-1.99C211.633,15.758,211.233,15.263,210.686,15.206L210.686,15.206z"/>
		<path d="M215.554,16.723l-0.209,1.989l-1.989-0.209l0.209-1.989L215.554,16.723 M215.659,15.729l-1.989-0.209
			c-0.547-0.058-1.042,0.343-1.099,0.89l-0.209,1.989c-0.057,0.547,0.343,1.041,0.89,1.099l1.989,0.209
			c0.547,0.058,1.042-0.343,1.099-0.89l0.209-1.989C216.606,16.28,216.206,15.786,215.659,15.729L215.659,15.729z"/>
		<path d="M205.086,20.649l-0.209,1.989l-1.989-0.209l0.209-1.989L205.086,20.649 M205.19,19.655l-1.989-0.209
			c-0.547-0.058-1.042,0.343-1.099,0.89l-0.209,1.989c-0.058,0.547,0.343,1.042,0.89,1.1l1.989,0.209
			c0.547,0.058,1.042-0.344,1.099-0.891l0.209-1.989C206.138,20.207,205.737,19.713,205.19,19.655L205.19,19.655z"/>
		<path d="M210.059,21.173l-0.209,1.988l-1.989-0.209l0.209-1.989L210.059,21.173 M210.163,20.179l-1.989-0.21
			c-0.547-0.057-1.042,0.343-1.099,0.89l-0.209,1.989c-0.058,0.547,0.343,1.042,0.89,1.1l1.989,0.209
			c0.547,0.058,1.042-0.343,1.099-0.89l0.209-1.99C211.111,20.729,210.71,20.235,210.163,20.179L210.163,20.179z"/>
		
			<line fill="none" stroke="#000000" stroke-linecap="round" stroke-linejoin="round" stroke-miterlimit="10" x1="202.861" y1="17.902" x2="206.159" y2="15.232"/>
		
			<line fill="none" stroke="#000000" stroke-linecap="round" stroke-linejoin="round" stroke-miterlimit="10" x1="205.845" y1="18.216" x2="203.174" y2="14.919"/>
		<g>
			<path fill="#FFFFFF" d="M250.516,11.359c0.545,0.067,0.938,0.568,0.87,1.114l-1.706,13.896c-0.067,0.546-0.569,0.938-1.114,0.871
				l-15.881-1.95c-0.546-0.066-0.938-0.568-0.871-1.114l1.706-13.896c0.067-0.546,0.569-0.938,1.115-0.871L250.516,11.359z"/>
			<path fill="none" stroke="#000000" stroke-width="2" stroke-linecap="round" stroke-linejoin="round" stroke-miterlimit="10" d="
				M250.516,11.359c0.545,0.067,0.938,0.568,0.87,1.114l-1.706,13.896c-0.067,0.546-0.569,0.938-1.114,0.871l-15.881-1.95
				c-0.546-0.066-0.938-0.568-0.871-1.114l1.706-13.896c0.067-0.546,0.569-0.938,1.115-0.871L250.516,11.359z"/>
		</g>
		
			<line fill="none" stroke="#000000" stroke-width="2" stroke-linecap="round" stroke-linejoin="round" stroke-miterlimit="10" x1="236.863" y1="7.668" x2="236.376" y2="11.639"/>
		
			<line fill="none" stroke="#000000" stroke-width="2" stroke-linecap="round" stroke-linejoin="round" stroke-miterlimit="10" x1="240.833" y1="8.156" x2="240.346" y2="12.126"/>
		
			<line fill="none" stroke="#000000" stroke-width="2" stroke-linecap="round" stroke-linejoin="round" stroke-miterlimit="10" x1="244.804" y1="8.644" x2="244.316" y2="12.613"/>
		
			<line fill="none" stroke="#000000" stroke-width="2" stroke-linecap="round" stroke-linejoin="round" stroke-miterlimit="10" x1="248.774" y1="9.131" x2="248.287" y2="13.101"/>
		<path d="M242.836,16.462l-0.244,1.984l-1.985-0.243l0.244-1.985L242.836,16.462 M242.958,15.47l-1.985-0.244
			c-0.546-0.067-1.047,0.325-1.115,0.87l-0.244,1.985c-0.067,0.546,0.325,1.048,0.871,1.114l1.985,0.244
			c0.546,0.067,1.047-0.325,1.114-0.871l0.244-1.985C243.896,16.038,243.504,15.536,242.958,15.47L242.958,15.47z"/>
		<path d="M247.799,17.07l-0.244,1.985l-1.985-0.243l0.244-1.985L247.799,17.07 M247.921,16.078l-1.985-0.243
			c-0.546-0.067-1.047,0.325-1.115,0.87l-0.244,1.985c-0.067,0.546,0.325,1.048,0.871,1.114l1.985,0.244
			c0.546,0.067,1.047-0.325,1.114-0.871l0.244-1.985C248.858,16.647,248.467,16.146,247.921,16.078L247.921,16.078z"/>
		<path d="M237.264,20.815l-0.244,1.984l-1.985-0.243l0.244-1.985L237.264,20.815 M237.386,19.822l-1.985-0.244
			c-0.545-0.066-1.047,0.326-1.114,0.871l-0.244,1.985c-0.067,0.546,0.325,1.047,0.871,1.114l1.985,0.243
			c0.545,0.067,1.047-0.324,1.114-0.87l0.244-1.985C238.324,20.392,237.932,19.89,237.386,19.822L237.386,19.822z"/>
		<path d="M242.227,21.425l-0.244,1.984l-1.985-0.243l0.244-1.985L242.227,21.425 M242.349,20.432l-1.985-0.244
			c-0.546-0.066-1.047,0.326-1.115,0.871l-0.244,1.985c-0.067,0.546,0.325,1.047,0.871,1.114l1.985,0.243
			c0.546,0.067,1.047-0.324,1.114-0.87l0.244-1.985C243.287,21.001,242.895,20.499,242.349,20.432L242.349,20.432z"/>
		
			<line fill="none" stroke="#000000" stroke-linecap="round" stroke-linejoin="round" stroke-miterlimit="10" x1="235.087" y1="18.028" x2="238.431" y2="15.417"/>
		
			<line fill="none" stroke="#000000" stroke-linecap="round" stroke-linejoin="round" stroke-miterlimit="10" x1="238.065" y1="18.395" x2="235.453" y2="15.052"/>
		<g>
			<path fill="#FFFFFF" d="M282.86,11.703c0.544,0.076,0.927,0.585,0.851,1.129l-1.948,13.864c-0.077,0.544-0.585,0.927-1.129,0.851
				l-15.844-2.227c-0.544-0.076-0.928-0.585-0.852-1.13l1.948-13.863c0.077-0.545,0.586-0.928,1.13-0.852L282.86,11.703z"/>
			<path fill="none" stroke="#000000" stroke-width="2" stroke-linecap="round" stroke-linejoin="round" stroke-miterlimit="10" d="
				M282.86,11.703c0.544,0.076,0.927,0.585,0.851,1.129l-1.948,13.864c-0.077,0.544-0.585,0.927-1.129,0.851l-15.844-2.227
				c-0.544-0.076-0.928-0.585-0.852-1.13l1.948-13.863c0.077-0.545,0.586-0.928,1.13-0.852L282.86,11.703z"/>
		</g>
		
			<line fill="none" stroke="#000000" stroke-width="2" stroke-linecap="round" stroke-linejoin="round" stroke-miterlimit="10" x1="269.274" y1="7.773" x2="268.718" y2="11.734"/>
		
			<line fill="none" stroke="#000000" stroke-width="2" stroke-linecap="round" stroke-linejoin="round" stroke-miterlimit="10" x1="273.235" y1="8.33" x2="272.679" y2="12.291"/>
		
			<line fill="none" stroke="#000000" stroke-width="2" stroke-linecap="round" stroke-linejoin="round" stroke-miterlimit="10" x1="277.196" y1="8.887" x2="276.64" y2="12.848"/>
		
			<line fill="none" stroke="#000000" stroke-width="2" stroke-linecap="round" stroke-linejoin="round" stroke-miterlimit="10" x1="281.158" y1="9.443" x2="280.602" y2="13.404"/>
		<path d="M275.093,16.67l-0.278,1.98l-1.98-0.277l0.278-1.98L275.093,16.67 M275.232,15.68l-1.98-0.278
			c-0.544-0.076-1.053,0.307-1.129,0.852l-0.278,1.98c-0.076,0.544,0.307,1.053,0.851,1.13l1.98,0.277
			c0.544,0.077,1.053-0.307,1.129-0.851l0.278-1.98C276.16,16.266,275.776,15.756,275.232,15.68L275.232,15.68z"/>
		<path d="M280.044,17.366l-0.278,1.98l-1.981-0.278l0.278-1.98L280.044,17.366 M280.184,16.375l-1.981-0.277
			c-0.544-0.077-1.053,0.307-1.129,0.852l-0.278,1.98c-0.076,0.544,0.307,1.053,0.851,1.129l1.981,0.278
			c0.544,0.076,1.053-0.307,1.129-0.851l0.278-1.98C281.111,16.961,280.728,16.452,280.184,16.375L280.184,16.375z"/>
		<path d="M269.446,20.926l-0.278,1.98l-1.98-0.278l0.278-1.98L269.446,20.926 M269.585,19.936l-1.98-0.278
			c-0.544-0.077-1.053,0.307-1.129,0.851l-0.278,1.98c-0.077,0.545,0.307,1.053,0.851,1.13l1.98,0.278
			c0.544,0.076,1.053-0.307,1.129-0.852l0.278-1.98C270.513,20.521,270.129,20.012,269.585,19.936L269.585,19.936z"/>
		<path d="M274.397,21.621l-0.278,1.98l-1.98-0.277l0.278-1.98L274.397,21.621 M274.536,20.631l-1.98-0.277
			c-0.544-0.077-1.053,0.306-1.129,0.851l-0.278,1.98c-0.077,0.544,0.307,1.053,0.851,1.13l1.98,0.277
			c0.544,0.077,1.053-0.307,1.129-0.851l0.278-1.98C275.464,21.217,275.081,20.708,274.536,20.631L274.536,20.631z"/>
		
			<line fill="none" stroke="#000000" stroke-linecap="round" stroke-linejoin="round" stroke-miterlimit="10" x1="267.318" y1="18.103" x2="270.707" y2="15.549"/>
		
			<line fill="none" stroke="#000000" stroke-linecap="round" stroke-linejoin="round" stroke-miterlimit="10" x1="270.289" y1="18.52" x2="267.736" y2="15.132"/>
		<g>
			<path fill="#FFFFFF" d="M315.199,12.069c0.543,0.086,0.917,0.601,0.831,1.144l-2.19,13.828c-0.086,0.543-0.602,0.917-1.145,0.831
				l-15.803-2.503c-0.543-0.086-0.917-0.601-0.83-1.145l2.189-13.827c0.086-0.543,0.601-0.917,1.144-0.831L315.199,12.069z"/>
			<path fill="none" stroke="#000000" stroke-width="2" stroke-linecap="round" stroke-linejoin="round" stroke-miterlimit="10" d="
				M315.199,12.069c0.543,0.086,0.917,0.601,0.831,1.144l-2.19,13.828c-0.086,0.543-0.602,0.917-1.145,0.831l-15.803-2.503
				c-0.543-0.086-0.917-0.601-0.83-1.145l2.189-13.827c0.086-0.543,0.601-0.917,1.144-0.831L315.199,12.069z"/>
		</g>
		
			<line fill="none" stroke="#000000" stroke-width="2" stroke-linecap="round" stroke-linejoin="round" stroke-miterlimit="10" x1="301.684" y1="7.903" x2="301.059" y2="11.854"/>
		
			<line fill="none" stroke="#000000" stroke-width="2" stroke-linecap="round" stroke-linejoin="round" stroke-miterlimit="10" x1="305.635" y1="8.529" x2="305.01" y2="12.48"/>
		
			<line fill="none" stroke="#000000" stroke-width="2" stroke-linecap="round" stroke-linejoin="round" stroke-miterlimit="10" x1="309.586" y1="9.155" x2="308.96" y2="13.105"/>
		
			<line fill="none" stroke="#000000" stroke-width="2" stroke-linecap="round" stroke-linejoin="round" stroke-miterlimit="10" x1="313.536" y1="9.781" x2="312.91" y2="13.731"/>
		<path d="M307.346,16.9l-0.312,1.976l-1.975-0.313l0.312-1.976L307.346,16.9 M307.503,15.913l-1.976-0.313
			c-0.543-0.086-1.059,0.288-1.145,0.831l-0.312,1.976c-0.086,0.543,0.289,1.059,0.832,1.145l1.975,0.312
			c0.543,0.086,1.059-0.288,1.145-0.831l0.312-1.976C308.42,16.514,308.046,15.999,307.503,15.913L307.503,15.913z"/>
		<path d="M312.285,17.683l-0.313,1.976l-1.975-0.313l0.312-1.976L312.285,17.683 M312.441,16.695l-1.976-0.313
			c-0.543-0.086-1.058,0.288-1.144,0.831l-0.313,1.976c-0.086,0.543,0.288,1.059,0.831,1.145l1.976,0.312
			c0.543,0.086,1.058-0.288,1.145-0.831l0.312-1.976C313.358,17.296,312.984,16.781,312.441,16.695L312.441,16.695z"/>
		<path d="M301.625,21.057l-0.312,1.976l-1.975-0.313l0.312-1.976L301.625,21.057 M301.782,20.068l-1.976-0.312
			c-0.543-0.086-1.058,0.288-1.145,0.831l-0.312,1.976c-0.086,0.543,0.289,1.059,0.832,1.145l1.975,0.312
			c0.543,0.086,1.059-0.288,1.145-0.831l0.312-1.976C302.699,20.67,302.325,20.154,301.782,20.068L301.782,20.068z"/>
		<path d="M306.564,21.839l-0.313,1.976l-1.975-0.313l0.312-1.976L306.564,21.839 M306.721,20.851l-1.976-0.312
			c-0.543-0.086-1.058,0.288-1.144,0.831l-0.313,1.976c-0.086,0.543,0.288,1.059,0.831,1.145l1.976,0.312
			c0.544,0.086,1.058-0.288,1.145-0.831l0.312-1.976C307.638,21.452,307.264,20.937,306.721,20.851L306.721,20.851z"/>
		
			<line fill="none" stroke="#000000" stroke-linecap="round" stroke-linejoin="round" stroke-miterlimit="10" x1="299.548" y1="18.196" x2="302.98" y2="15.702"/>
		
			<line fill="none" stroke="#000000" stroke-linecap="round" stroke-linejoin="round" stroke-miterlimit="10" x1="302.511" y1="18.665" x2="300.018" y2="15.233"/>
		<g>
			<path fill="#FFFFFF" d="M347.533,12.439c0.541,0.096,0.906,0.617,0.811,1.159l-2.43,13.787c-0.096,0.541-0.617,0.906-1.159,0.812
				l-15.757-2.779c-0.541-0.095-0.906-0.616-0.811-1.157l2.43-13.788c0.096-0.541,0.617-0.906,1.159-0.811L347.533,12.439z"/>
			<path fill="none" stroke="#000000" stroke-width="2" stroke-linecap="round" stroke-linejoin="round" stroke-miterlimit="10" d="
				M347.533,12.439c0.541,0.096,0.906,0.617,0.811,1.159l-2.43,13.787c-0.096,0.541-0.617,0.906-1.159,0.812l-15.757-2.779
				c-0.541-0.095-0.906-0.616-0.811-1.157l2.43-13.788c0.096-0.541,0.617-0.906,1.159-0.811L347.533,12.439z"/>
		</g>
		
			<line fill="none" stroke="#000000" stroke-width="2" stroke-linecap="round" stroke-linejoin="round" stroke-miterlimit="10" x1="334.094" y1="8.04" x2="333.398" y2="11.979"/>
		
			<line fill="none" stroke="#000000" stroke-width="2" stroke-linecap="round" stroke-linejoin="round" stroke-miterlimit="10" x1="338.033" y1="8.734" x2="337.338" y2="12.673"/>
		
			<line fill="none" stroke="#000000" stroke-width="2" stroke-linecap="round" stroke-linejoin="round" stroke-miterlimit="10" x1="341.971" y1="9.429" x2="341.277" y2="13.368"/>
		
			<line fill="none" stroke="#000000" stroke-width="2" stroke-linecap="round" stroke-linejoin="round" stroke-miterlimit="10" x1="345.91" y1="10.123" x2="345.217" y2="14.062"/>
		<path d="M339.598,17.134l-0.348,1.969l-1.969-0.347l0.347-1.97L339.598,17.134 M339.771,16.148l-1.97-0.347
			c-0.542-0.096-1.063,0.27-1.159,0.811l-0.347,1.97c-0.095,0.541,0.271,1.062,0.812,1.158l1.969,0.348
			c0.541,0.096,1.062-0.27,1.158-0.812l0.348-1.969C340.678,16.766,340.312,16.244,339.771,16.148L339.771,16.148z"/>
		<path d="M344.521,18.002l-0.348,1.969l-1.969-0.347l0.347-1.97L344.521,18.002 M344.695,17.017l-1.97-0.347
			c-0.542-0.096-1.063,0.27-1.159,0.811l-0.347,1.97c-0.095,0.542,0.271,1.063,0.812,1.158L344,20.956
			c0.543,0.096,1.064-0.27,1.159-0.812l0.347-1.969C345.602,17.634,345.236,17.112,344.695,17.017L344.695,17.017z"/>
		<path d="M333.805,21.189l-0.347,1.97l-1.97-0.348l0.348-1.97L333.805,21.189 M333.979,20.204l-1.969-0.347
			c-0.542-0.096-1.063,0.27-1.159,0.811l-0.347,1.97c-0.096,0.542,0.27,1.063,0.811,1.159l1.97,0.347
			c0.542,0.096,1.063-0.27,1.159-0.811l0.347-1.97C334.886,20.821,334.521,20.3,333.979,20.204L333.979,20.204z"/>
		<path d="M338.729,22.058l-0.347,1.97l-1.971-0.348l0.348-1.97L338.729,22.058 M338.903,21.072l-1.97-0.347
			c-0.541-0.096-1.062,0.27-1.158,0.811l-0.348,1.97c-0.096,0.542,0.27,1.063,0.811,1.159l1.971,0.347
			c0.541,0.096,1.062-0.27,1.158-0.811l0.347-1.97C339.81,21.689,339.444,21.168,338.903,21.072L338.903,21.072z"/>
		
			<line fill="none" stroke="#000000" stroke-linecap="round" stroke-linejoin="round" stroke-miterlimit="10" x1="331.777" y1="18.293" x2="335.253" y2="15.859"/>
		
			<line fill="none" stroke="#000000" stroke-linecap="round" stroke-linejoin="round" stroke-miterlimit="10" x1="334.732" y1="18.814" x2="332.299" y2="15.339"/>
		<g>
			<path fill="#FFFFFF" d="M379.865,12.793c0.54,0.105,0.896,0.633,0.791,1.173l-2.672,13.742c-0.104,0.54-0.633,0.896-1.172,0.791
				l-15.706-3.053c-0.54-0.104-0.896-0.633-0.791-1.173l2.671-13.742c0.105-0.54,0.633-0.896,1.174-0.791L379.865,12.793z"/>
			<path fill="none" stroke="#000000" stroke-width="2" stroke-linecap="round" stroke-linejoin="round" stroke-miterlimit="10" d="
				M379.865,12.793c0.54,0.105,0.896,0.633,0.791,1.173l-2.672,13.742c-0.104,0.54-0.633,0.896-1.172,0.791l-15.706-3.053
				c-0.54-0.104-0.896-0.633-0.791-1.173l2.671-13.742c0.105-0.54,0.633-0.896,1.174-0.791L379.865,12.793z"/>
		</g>
		
			<line fill="none" stroke="#000000" stroke-width="2" stroke-linecap="round" stroke-linejoin="round" stroke-miterlimit="10" x1="366.504" y1="8.158" x2="365.74" y2="12.085"/>
		
			<line fill="none" stroke="#000000" stroke-width="2" stroke-linecap="round" stroke-linejoin="round" stroke-miterlimit="10" x1="370.431" y1="8.922" x2="369.668" y2="12.849"/>
		
			<line fill="none" stroke="#000000" stroke-width="2" stroke-linecap="round" stroke-linejoin="round" stroke-miterlimit="10" x1="374.357" y1="9.685" x2="373.594" y2="13.611"/>
		
			<line fill="none" stroke="#000000" stroke-width="2" stroke-linecap="round" stroke-linejoin="round" stroke-miterlimit="10" x1="378.283" y1="10.448" x2="377.521" y2="14.375"/>
		<path d="M371.85,17.347l-0.383,1.964l-1.963-0.382l0.382-1.963L371.85,17.347 M372.04,16.366l-1.964-0.382
			c-0.539-0.105-1.066,0.251-1.172,0.79l-0.381,1.964c-0.105,0.539,0.25,1.067,0.79,1.172l1.964,0.382
			c0.539,0.105,1.066-0.251,1.172-0.791l0.381-1.963C372.936,16.998,372.58,16.471,372.04,16.366L372.04,16.366z"/>
		<path d="M376.758,18.302l-0.383,1.963l-1.963-0.382l0.382-1.963L376.758,18.302 M376.948,17.319l-1.964-0.381
			c-0.539-0.105-1.066,0.251-1.172,0.79l-0.381,1.964c-0.105,0.539,0.25,1.067,0.79,1.172l1.964,0.382
			c0.539,0.104,1.066-0.251,1.172-0.791l0.381-1.963C377.844,17.952,377.488,17.425,376.948,17.319L376.948,17.319z"/>
		<path d="M365.986,21.302l-0.381,1.963l-1.963-0.382l0.381-1.963L365.986,21.302 M366.178,20.32l-1.963-0.382
			c-0.54-0.105-1.068,0.251-1.173,0.79l-0.382,1.964c-0.104,0.539,0.252,1.067,0.791,1.172l1.963,0.382
			c0.541,0.104,1.068-0.251,1.174-0.79l0.381-1.964C367.074,20.952,366.718,20.425,366.178,20.32L366.178,20.32z"/>
		<path d="M370.895,22.255l-0.381,1.964l-1.963-0.382l0.381-1.963L370.895,22.255 M371.086,21.274l-1.963-0.382
			c-0.54-0.105-1.068,0.251-1.173,0.79l-0.382,1.964c-0.104,0.539,0.252,1.067,0.791,1.172l1.963,0.382
			c0.54,0.105,1.068-0.251,1.172-0.791l0.383-1.963C371.981,21.906,371.625,21.379,371.086,21.274L371.086,21.274z"/>
		<g>
			<path fill="#FFFFFF" d="M412.193,13.147c0.537,0.114,0.885,0.648,0.77,1.187l-2.91,13.694c-0.114,0.537-0.648,0.884-1.186,0.77
				l-15.65-3.326c-0.539-0.114-0.886-0.648-0.771-1.186l2.911-13.694c0.114-0.538,0.648-0.885,1.187-0.771L412.193,13.147z"/>
			<path fill="none" stroke="#000000" stroke-width="2" stroke-linecap="round" stroke-linejoin="round" stroke-miterlimit="10" d="
				M412.193,13.147c0.537,0.114,0.885,0.648,0.77,1.187l-2.91,13.694c-0.114,0.537-0.648,0.884-1.186,0.77l-15.65-3.326
				c-0.539-0.114-0.886-0.648-0.771-1.186l2.911-13.694c0.114-0.538,0.648-0.885,1.187-0.771L412.193,13.147z"/>
		</g>
		
			<line fill="none" stroke="#000000" stroke-width="2" stroke-linecap="round" stroke-linejoin="round" stroke-miterlimit="10" x1="398.914" y1="8.28" x2="398.083" y2="12.193"/>
		
			<line fill="none" stroke="#000000" stroke-width="2" stroke-linecap="round" stroke-linejoin="round" stroke-miterlimit="10" x1="402.827" y1="9.112" x2="401.996" y2="13.024"/>
		
			<line fill="none" stroke="#000000" stroke-width="2" stroke-linecap="round" stroke-linejoin="round" stroke-miterlimit="10" x1="406.74" y1="9.943" x2="405.908" y2="13.856"/>
		
			<line fill="none" stroke="#000000" stroke-width="2" stroke-linecap="round" stroke-linejoin="round" stroke-miterlimit="10" x1="410.652" y1="10.775" x2="409.82" y2="14.688"/>
		<path d="M404.099,17.562l-0.416,1.956l-1.956-0.416l0.416-1.956L404.099,17.562 M404.307,16.583l-1.957-0.416
			c-0.537-0.114-1.071,0.232-1.186,0.771l-0.416,1.956c-0.114,0.538,0.232,1.072,0.77,1.187l1.957,0.416
			c0.537,0.114,1.072-0.232,1.186-0.771l0.416-1.956C405.191,17.231,404.844,16.697,404.307,16.583L404.307,16.583z"/>
		<path d="M399.208,16.521l-0.416,1.957l-1.956-0.416l0.416-1.957L399.208,16.521 M399.416,15.544l-1.957-0.416
			c-0.537-0.114-1.071,0.232-1.186,0.77l-0.416,1.957c-0.114,0.537,0.232,1.071,0.77,1.186l1.957,0.416
			c0.537,0.114,1.072-0.232,1.186-0.771l0.416-1.956C400.301,16.191,399.953,15.658,399.416,15.544L399.416,15.544z"/>
		<path d="M408.989,18.601l-0.416,1.957l-1.956-0.416l0.416-1.957L408.989,18.601 M409.197,17.623l-1.956-0.416
			c-0.538-0.114-1.072,0.232-1.187,0.77l-0.416,1.957c-0.114,0.537,0.232,1.071,0.771,1.186l1.956,0.416
			c0.537,0.114,1.072-0.232,1.186-0.77l0.416-1.957C410.082,18.271,409.734,17.737,409.197,17.623L409.197,17.623z"/>
		<path d="M398.168,21.413l-0.416,1.956l-1.956-0.416l0.416-1.956L398.168,21.413 M398.376,20.435l-1.956-0.416
			c-0.538-0.114-1.072,0.232-1.186,0.771l-0.416,1.956c-0.115,0.538,0.232,1.071,0.77,1.186l1.957,0.416
			c0.537,0.114,1.071-0.231,1.186-0.771l0.416-1.955C399.261,21.082,398.914,20.549,398.376,20.435L398.376,20.435z"/>
		<path d="M403.059,22.452l-0.416,1.956l-1.956-0.416l0.416-1.956L403.059,22.452 M403.267,21.474l-1.956-0.416
			c-0.538-0.114-1.072,0.232-1.186,0.771l-0.416,1.956c-0.115,0.538,0.232,1.072,0.77,1.187l1.957,0.416
			c0.537,0.114,1.071-0.232,1.186-0.771l0.416-1.956C404.151,22.122,403.805,21.588,403.267,21.474L403.267,21.474z"/>
		<g>
			<path fill="#FFFFFF" d="M444.518,13.504c0.536,0.124,0.873,0.664,0.75,1.199l-3.15,13.642c-0.123,0.535-0.663,0.873-1.199,0.749
				l-15.59-3.599c-0.535-0.124-0.873-0.664-0.749-1.199l3.149-13.642c0.123-0.536,0.663-0.873,1.199-0.75L444.518,13.504z"/>
			<path fill="none" stroke="#000000" stroke-width="2" stroke-linecap="round" stroke-linejoin="round" stroke-miterlimit="10" d="
				M444.518,13.504c0.536,0.124,0.873,0.664,0.75,1.199l-3.15,13.642c-0.123,0.535-0.663,0.873-1.199,0.749l-15.59-3.599
				c-0.535-0.124-0.873-0.664-0.749-1.199l3.149-13.642c0.123-0.536,0.663-0.873,1.199-0.75L444.518,13.504z"/>
		</g>
		
			<line fill="none" stroke="#000000" stroke-width="2" stroke-linecap="round" stroke-linejoin="round" stroke-miterlimit="10" x1="431.326" y1="8.405" x2="430.426" y2="12.304"/>
		
			<line fill="none" stroke="#000000" stroke-width="2" stroke-linecap="round" stroke-linejoin="round" stroke-miterlimit="10" x1="435.224" y1="9.306" x2="434.324" y2="13.203"/>
		
			<line fill="none" stroke="#000000" stroke-width="2" stroke-linecap="round" stroke-linejoin="round" stroke-miterlimit="10" x1="439.121" y1="10.205" x2="438.221" y2="14.103"/>
		
			<line fill="none" stroke="#000000" stroke-width="2" stroke-linecap="round" stroke-linejoin="round" stroke-miterlimit="10" x1="443.019" y1="11.105" x2="442.119" y2="15.003"/>
		<path d="M436.348,17.775l-0.45,1.949l-1.948-0.45l0.449-1.949L436.348,17.775 M436.572,16.802l-1.949-0.45
			c-0.535-0.124-1.075,0.213-1.199,0.749l-0.449,1.949c-0.124,0.535,0.213,1.075,0.749,1.199l1.948,0.449
			c0.536,0.124,1.076-0.213,1.199-0.749l0.45-1.949C437.445,17.465,437.107,16.925,436.572,16.802L436.572,16.802z"/>
		<path d="M431.475,16.65l-0.449,1.949l-1.949-0.45l0.45-1.949L431.475,16.65 M431.7,15.677l-1.948-0.45
			c-0.536-0.124-1.076,0.214-1.199,0.749l-0.45,1.949c-0.124,0.536,0.214,1.075,0.749,1.199l1.949,0.45
			c0.535,0.123,1.075-0.214,1.199-0.749l0.449-1.949C432.573,16.34,432.236,15.8,431.7,15.677L431.7,15.677z"/>
		<path d="M441.219,18.9l-0.449,1.949l-1.949-0.45l0.449-1.949L441.219,18.9 M441.443,17.926l-1.948-0.45
			c-0.536-0.123-1.075,0.214-1.199,0.75l-0.45,1.949c-0.123,0.535,0.214,1.075,0.75,1.199l1.948,0.449
			c0.536,0.124,1.076-0.213,1.2-0.749l0.449-1.949C442.317,18.59,441.98,18.05,441.443,17.926L441.443,17.926z"/>
		<path d="M430.351,21.522l-0.45,1.949l-1.949-0.45l0.451-1.948L430.351,21.522 M430.575,20.549l-1.948-0.45
			c-0.536-0.124-1.076,0.214-1.199,0.749l-0.45,1.949c-0.124,0.535,0.214,1.075,0.749,1.199l1.949,0.45
			c0.535,0.123,1.076-0.214,1.199-0.75l0.45-1.948C431.449,21.212,431.111,20.672,430.575,20.549L430.575,20.549z"/>
		<path d="M435.223,22.647l-0.45,1.949l-1.948-0.45l0.449-1.949L435.223,22.647 M435.447,21.673l-1.948-0.449
			c-0.536-0.124-1.076,0.213-1.2,0.749l-0.449,1.948c-0.124,0.536,0.214,1.076,0.75,1.2l1.948,0.45
			c0.536,0.123,1.075-0.215,1.198-0.75l0.451-1.949C436.32,22.337,435.983,21.797,435.447,21.673L435.447,21.673z"/>
		<g>
			<path fill="#FFFFFF" d="M476.717,13.847c0.533,0.133,0.861,0.679,0.728,1.212l-3.387,13.584
				c-0.134,0.534-0.679,0.861-1.212,0.729l-15.525-3.87c-0.533-0.134-0.861-0.68-0.729-1.213l3.387-13.584
				c0.134-0.533,0.68-0.861,1.213-0.729L476.717,13.847z"/>
			<path fill="none" stroke="#000000" stroke-width="2" stroke-linecap="round" stroke-linejoin="round" stroke-miterlimit="10" d="
				M476.717,13.847c0.533,0.133,0.861,0.679,0.728,1.212l-3.387,13.584c-0.134,0.534-0.679,0.861-1.212,0.729l-15.525-3.87
				c-0.533-0.134-0.861-0.68-0.729-1.213l3.387-13.584c0.134-0.533,0.68-0.861,1.213-0.729L476.717,13.847z"/>
		</g>
		
			<line fill="none" stroke="#000000" stroke-width="2" stroke-linecap="round" stroke-linejoin="round" stroke-miterlimit="10" x1="463.615" y1="8.519" x2="462.648" y2="12.399"/>
		
			<line fill="none" stroke="#000000" stroke-width="2" stroke-linecap="round" stroke-linejoin="round" stroke-miterlimit="10" x1="467.497" y1="9.487" x2="466.529" y2="13.368"/>
		
			<line fill="none" stroke="#000000" stroke-width="2" stroke-linecap="round" stroke-linejoin="round" stroke-miterlimit="10" x1="471.379" y1="10.454" x2="470.41" y2="14.335"/>
		
			<line fill="none" stroke="#000000" stroke-width="2" stroke-linecap="round" stroke-linejoin="round" stroke-miterlimit="10" x1="475.26" y1="11.422" x2="474.291" y2="15.303"/>
		<path d="M468.473,17.975l-0.484,1.94l-1.94-0.483l0.483-1.94L468.473,17.975 M468.715,17.005l-1.941-0.484
			c-0.533-0.133-1.078,0.195-1.212,0.729l-0.483,1.94c-0.133,0.534,0.195,1.079,0.729,1.212l1.939,0.484
			c0.533,0.133,1.08-0.195,1.213-0.729l0.484-1.94C469.576,17.683,469.248,17.138,468.715,17.005L468.715,17.005z"/>
		<path d="M463.621,16.765l-0.484,1.941l-1.94-0.484l0.483-1.94L463.621,16.765 M463.863,15.795l-1.941-0.483
			c-0.533-0.134-1.078,0.194-1.212,0.728l-0.483,1.94c-0.133,0.534,0.195,1.079,0.729,1.213l1.939,0.483
			c0.533,0.133,1.08-0.194,1.213-0.729l0.484-1.94C464.725,16.474,464.396,15.928,463.863,15.795L463.863,15.795z"/>
		<path d="M473.324,19.185l-0.484,1.94l-1.94-0.484l0.483-1.94L473.324,19.185 M473.566,18.214l-1.941-0.483
			c-0.533-0.133-1.078,0.194-1.212,0.729l-0.483,1.94c-0.133,0.533,0.195,1.079,0.729,1.212l1.939,0.483
			c0.533,0.133,1.08-0.194,1.213-0.729l0.484-1.939C474.428,18.893,474.1,18.347,473.566,18.214L473.566,18.214z"/>
		<path d="M462.412,21.616l-0.484,1.941l-1.941-0.484l0.484-1.94L462.412,21.616 M462.653,20.646l-1.94-0.483
			c-0.533-0.134-1.08,0.194-1.213,0.728l-0.483,1.94c-0.134,0.534,0.194,1.079,0.728,1.213l1.941,0.483
			c0.533,0.133,1.08-0.194,1.213-0.729l0.483-1.94C463.515,21.325,463.187,20.779,462.653,20.646L462.653,20.646z"/>
		<path d="M467.264,22.826l-0.484,1.94l-1.941-0.483l0.484-1.94L467.264,22.826 M467.505,21.856l-1.94-0.484
			c-0.533-0.133-1.08,0.195-1.213,0.729l-0.483,1.94c-0.134,0.534,0.194,1.079,0.728,1.212l1.941,0.484
			c0.533,0.133,1.08-0.195,1.213-0.729l0.483-1.94C468.366,22.534,468.038,21.989,467.505,21.856L467.505,21.856z"/>
		<g>
			<path fill="#FFFFFF" d="M509.015,14.292c0.531,0.143,0.85,0.694,0.707,1.226l-3.623,13.522c-0.143,0.531-0.694,0.85-1.225,0.707
				l-15.455-4.141c-0.531-0.143-0.85-0.694-0.707-1.225l3.623-13.523c0.143-0.531,0.694-0.85,1.225-0.707L509.015,14.292z"/>
			<path fill="none" stroke="#000000" stroke-width="2" stroke-linecap="round" stroke-linejoin="round" stroke-miterlimit="10" d="
				M509.015,14.292c0.531,0.143,0.85,0.694,0.707,1.226l-3.623,13.522c-0.143,0.531-0.694,0.85-1.225,0.707l-15.455-4.141
				c-0.531-0.143-0.85-0.694-0.707-1.225l3.623-13.523c0.143-0.531,0.694-0.85,1.225-0.707L509.015,14.292z"/>
		</g>
		
			<line fill="none" stroke="#000000" stroke-width="2" stroke-linecap="round" stroke-linejoin="round" stroke-miterlimit="10" x1="496.01" y1="8.737" x2="494.975" y2="12.601"/>
		
			<line fill="none" stroke="#000000" stroke-width="2" stroke-linecap="round" stroke-linejoin="round" stroke-miterlimit="10" x1="499.873" y1="9.772" x2="498.838" y2="13.637"/>
		
			<line fill="none" stroke="#000000" stroke-width="2" stroke-linecap="round" stroke-linejoin="round" stroke-miterlimit="10" x1="503.736" y1="10.808" x2="502.701" y2="14.672"/>
		
			<line fill="none" stroke="#000000" stroke-width="2" stroke-linecap="round" stroke-linejoin="round" stroke-miterlimit="10" x1="507.601" y1="11.843" x2="506.565" y2="15.707"/>
		
			<path fill="#FFFFFF" stroke="#000000" stroke-width="2" stroke-linecap="round" stroke-linejoin="round" stroke-miterlimit="10" d="
			M509.722,15.518c-0.571,2.133-2.765,3.399-4.898,2.828c-2.134-0.572-3.4-2.766-2.829-4.898l1.553-5.797L486.16,2.992l-1.553,5.796
			c-0.571,2.134,0.695,4.327,2.829,4.898l16.421,4.4"/>
		
			<path fill="#FFFFFF" stroke="#000000" stroke-width="2" stroke-linecap="round" stroke-linejoin="round" stroke-miterlimit="10" d="
			M477.203,16.028c-0.535,2.145-2.706,3.448-4.85,2.914c-2.143-0.534-3.447-2.705-2.913-4.849l1.21-4.852l-17.466-4.354l-1.21,4.852
			c-0.534,2.143,0.771,4.314,2.914,4.849l16.494,4.112"/>
		
			<path fill="#FFFFFF" stroke="#000000" stroke-width="2" stroke-linecap="round" stroke-linejoin="round" stroke-miterlimit="10" d="
			M444.873,16.408c-0.496,2.152-2.645,3.495-4.797,2.998s-3.494-2.646-2.998-4.798l0.9-3.896l-17.539-4.05l-0.899,3.897
			c-0.497,2.152,0.845,4.301,2.997,4.798l16.564,3.823"/>
		
			<path fill="#FFFFFF" stroke="#000000" stroke-width="2" stroke-linecap="round" stroke-linejoin="round" stroke-miterlimit="10" d="
			M412.443,16.779c-0.459,2.16-2.584,3.54-4.744,3.081c-2.16-0.46-3.54-2.584-3.081-4.744l0.624-2.935l-17.607-3.742l-0.623,2.934
			c-0.459,2.161,0.92,4.285,3.08,4.744l16.629,3.535"/>
		
			<path fill="#FFFFFF" stroke="#000000" stroke-width="2" stroke-linecap="round" stroke-linejoin="round" stroke-miterlimit="10" d="
			M380.036,17.156c-0.421,2.168-2.521,3.584-4.689,3.163c-2.169-0.422-3.585-2.521-3.163-4.689l0.572-2.945l-17.67-3.435
			l-0.572,2.944c-0.422,2.169,0.995,4.269,3.164,4.69l16.688,3.243"/>
		
			<path fill="#FFFFFF" stroke="#000000" stroke-width="2" stroke-linecap="round" stroke-linejoin="round" stroke-miterlimit="10" d="
			M347.65,17.538c-0.385,2.175-2.459,3.628-4.635,3.244s-3.627-2.458-3.244-4.634l0.348-1.97l-17.727-3.125l-0.348,1.97
			c-0.383,2.175,1.068,4.25,3.244,4.633l16.742,2.952"/>
		
			<path fill="#FFFFFF" stroke="#000000" stroke-width="2" stroke-linecap="round" stroke-linejoin="round" stroke-miterlimit="10" d="
			M315.287,17.905c-0.346,2.182-2.395,3.67-4.576,3.324c-2.182-0.345-3.671-2.395-3.326-4.576l0.313-1.976l-17.531-2.776
			l-0.313,1.976c-0.345,2.182,1.145,4.23,3.326,4.576l16.543,2.62"/>
		
			<path fill="#FFFFFF" stroke="#000000" stroke-width="2" stroke-linecap="round" stroke-linejoin="round" stroke-miterlimit="10" d="
			M282.946,18.279c-0.308,2.188-2.331,3.711-4.518,3.404c-2.188-0.308-3.712-2.33-3.404-4.518l0.139-0.99l-17.33-2.436l-0.139,0.99
			c-0.308,2.188,1.217,4.21,3.404,4.518l16.339,2.296"/>
		
			<path fill="#FFFFFF" stroke="#000000" stroke-width="2" stroke-linecap="round" stroke-linejoin="round" stroke-miterlimit="10" d="
			M250.624,18.677c-0.269,2.193-2.265,3.752-4.458,3.483c-2.192-0.27-3.752-2.265-3.483-4.458l0,0L225.562,15.6l-0.248-0.03
			c-0.269,2.193,1.538,4.219,3.731,4.488l16.129,1.98"/>
		
			<path fill="#FFFFFF" stroke="#000000" stroke-width="2" stroke-linecap="round" stroke-linejoin="round" stroke-miterlimit="10" d="
			M218.224,20.02c-0.173,1.647-1.649,2.843-3.297,2.67c-1.647-0.173-2.843-1.649-2.67-3.297l0,0l-18.399-1.934
			c-0.173,1.647,1.022,3.124,2.67,3.297l17.653,1.855"/>
		
			<path fill="#FFFFFF" stroke="#000000" stroke-width="2" stroke-linecap="round" stroke-linejoin="round" stroke-miterlimit="10" d="
			M185.879,21.363c-0.096,1.1-1.066,1.914-2.167,1.817c-1.101-0.096-1.915-1.066-1.818-2.166l0,0l-18.928-1.656l0,0
			c-0.096,1.101,0.718,2.07,1.818,2.167l18.43,1.612"/>
		
			<path fill="#FFFFFF" stroke="#000000" stroke-width="2" stroke-linecap="round" stroke-linejoin="round" stroke-miterlimit="10" d="
			M153.589,22.771c-0.039,0.551-0.517,0.966-1.068,0.928c-0.551-0.038-0.966-0.517-0.928-1.067l0,0l-20.449-1.43
			c-0.039,0.551,0.377,1.028,0.928,1.067l20.201,1.412"/>
		
			<path fill="#FFFFFF" stroke="#000000" stroke-width="2" stroke-linecap="round" stroke-linejoin="round" stroke-miterlimit="10" d="
			M99.636,23.047l20.971,1.099"/>
		
			<path fill="#FFFFFF" stroke="#000000" stroke-width="2" stroke-linecap="round" stroke-linejoin="round" stroke-miterlimit="10" d="
			M67.736,23.62l19.988,0.697"/>
		
			<rect x="491.864" y="17.034" transform="matrix(0.9659 0.2588 -0.2588 0.9659 21.5658 -128.7609)" fill="#FFFFFF" width="16" height="1.001"/>
		<path d="M500.7,18.276l-0.518,1.932l-1.932-0.518l0.518-1.932L500.7,18.276 M500.959,17.311l-1.932-0.518
			c-0.531-0.143-1.082,0.176-1.225,0.707l-0.518,1.932c-0.143,0.531,0.176,1.082,0.707,1.225l1.932,0.518
			c0.531,0.143,1.082-0.176,1.225-0.707l0.518-1.932C501.809,18.004,501.49,17.452,500.959,17.311L500.959,17.311z"/>
		<path d="M495.871,16.982l-0.518,1.932l-1.932-0.518l0.518-1.932L495.871,16.982 M496.13,16.016l-1.932-0.518
			c-0.531-0.142-1.083,0.177-1.226,0.708l-0.518,1.932c-0.142,0.531,0.176,1.082,0.707,1.225l1.932,0.518
			c0.531,0.143,1.083-0.176,1.225-0.707l0.518-1.932C496.979,16.71,496.661,16.158,496.13,16.016L496.13,16.016z"/>
		<path d="M505.529,19.57l-0.518,1.932l-1.932-0.518l0.518-1.932L505.529,19.57 M505.789,18.604l-1.932-0.518
			c-0.531-0.143-1.083,0.176-1.225,0.707l-0.518,1.932c-0.143,0.531,0.176,1.083,0.707,1.225l1.932,0.518
			c0.531,0.143,1.082-0.176,1.225-0.707l0.518-1.932C506.639,19.298,506.32,18.746,505.789,18.604L505.789,18.604z"/>
		<path d="M494.576,21.812l-0.518,1.932l-1.932-0.519l0.518-1.932L494.576,21.812 M494.836,20.846l-1.932-0.518
			c-0.531-0.142-1.083,0.176-1.225,0.707l-0.518,1.932c-0.143,0.531,0.175,1.083,0.706,1.225l1.932,0.518
			c0.531,0.143,1.083-0.176,1.226-0.707l0.518-1.932C495.685,21.539,495.367,20.988,494.836,20.846L494.836,20.846z"/>
		<path d="M499.406,23.105l-0.518,1.932l-1.932-0.518l0.518-1.932L499.406,23.105 M499.665,22.141l-1.932-0.518
			c-0.531-0.143-1.082,0.176-1.225,0.707l-0.518,1.932c-0.143,0.531,0.176,1.082,0.707,1.225l1.932,0.518
			c0.531,0.142,1.082-0.176,1.225-0.707l0.518-1.932C500.515,22.834,500.196,22.282,499.665,22.141L499.665,22.141z"/>
	</g>
</g>
<g id="Layer_4">
</g>
</svg>
