<?xml version="1.0" encoding="iso-8859-1"?>
<!-- Generator: Adobe Illustrator 16.2.1, SVG Export Plug-In . SVG Version: 6.00 Build 0)  -->
<!DOCTYPE svg PUBLIC "-//W3C//DTD SVG 1.1 Tiny//EN" "http://www.w3.org/Graphics/SVG/1.1/DTD/svg11-tiny.dtd">
<svg version="1.1" baseProfile="tiny" xmlns="http://www.w3.org/2000/svg" xmlns:xlink="http://www.w3.org/1999/xlink" x="0px"
	 y="0px" width="512px" height="32px" viewBox="0 0 512 32" xml:space="preserve">
<g id="Layer_2_copy">
</g>
<g id="Layer_2">
</g>
<g id="Layer_1">
	
		<path fill="#FFFFFF" stroke="#000000" stroke-width="2" stroke-linecap="round" stroke-linejoin="round" stroke-miterlimit="10" d="
		M12,23c-2.209,0-4,1.791-4,4h8C16,24.791,14.209,23,12,23z"/>
	<g>
		<path d="M11.293,6.653v1.154H13c1.271-0.998,3.121-0.911,4.293,0.26c2.045,2.043,5.371,2.043,7.414,0L25,7.808v-2.29
			c-0.621,0.255-1.203,0.632-1.707,1.136c-1.264,1.262-3.321,1.264-4.586-0.001C16.662,4.608,13.337,4.609,11.293,6.653z"/>
		<path d="M17.293,11.567c2.045,2.043,5.371,2.043,7.414,0L25,11.308v-1.287c-0.621,0.255-1.203,0.632-1.707,1.136
			c-1.264,1.262-3.321,1.264-4.586-0.001c-2.045-2.044-5.37-2.043-7.414,0.001v0.151H13C14.271,10.31,16.121,10.396,17.293,11.567z"
			/>
		<path d="M23.293,14.656c-1.264,1.262-3.321,1.264-4.586-0.001c-2.045-2.044-5.37-2.043-7.414,0.001v1.151H13
			c1.271-0.998,3.121-0.911,4.293,0.26c2.045,2.043,5.371,2.043,7.414,0L25,15.808v-2.287
			C24.379,13.775,23.797,14.152,23.293,14.656z"/>
	</g>
	
		<line fill="none" stroke="#000000" stroke-width="2" stroke-linecap="round" stroke-linejoin="round" stroke-miterlimit="10" x1="12" y1="7.5" x2="12" y2="23"/>
	
		<line fill="none" stroke="#000000" stroke-width="2" stroke-linecap="round" stroke-linejoin="round" stroke-miterlimit="10" x1="24" y1="8" x2="24" y2="15"/>
	
		<path fill="#FFFFFF" stroke="#000000" stroke-width="2" stroke-linecap="round" stroke-linejoin="round" stroke-miterlimit="10" d="
		M44,23c-2.209,0-4,1.791-4,4h8C48,24.791,46.209,23,44,23z"/>
	<g>
		<path d="M43,7.808h1.2c1.271-0.998,3.121-0.911,4.293,0.26c2.045,2.043,5.371,2.043,7.414,0l0.293-0.26
			c0.247-0.193,0.519-0.334,0.8-0.445V5.274c-0.918,0.215-1.792,0.664-2.507,1.379c-1.264,1.262-3.321,1.264-4.586-0.001
			C48.02,4.766,45.055,4.644,43,6.239V7.808z"/>
		<path d="M44.2,11.308c1.271-0.998,3.121-0.911,4.293,0.26c2.045,2.043,5.371,2.043,7.414,0l0.293-0.26
			c0.247-0.193,0.519-0.334,0.8-0.445V9.777c-0.918,0.215-1.792,0.664-2.507,1.379c-1.264,1.262-3.321,1.264-4.586-0.001
			C48.02,9.269,45.055,9.146,43,10.742v0.565H44.2z"/>
		<path d="M57,13.277c-0.918,0.215-1.792,0.664-2.507,1.379c-1.264,1.262-3.321,1.264-4.586-0.001
			c-1.887-1.887-4.853-2.009-6.907-0.413v1.565h1.2c1.271-0.998,3.121-0.911,4.293,0.26c2.045,2.043,5.371,2.043,7.414,0l0.293-0.26
			c0.247-0.193,0.519-0.334,0.8-0.445V13.277z"/>
	</g>
	
		<line fill="none" stroke="#000000" stroke-width="2" stroke-linecap="round" stroke-linejoin="round" stroke-miterlimit="10" x1="44" y1="7.5" x2="44" y2="23"/>
	
		<line fill="none" stroke="#000000" stroke-width="2" stroke-linecap="round" stroke-linejoin="round" stroke-miterlimit="10" x1="56" y1="7" x2="56" y2="14"/>
	
		<path fill="#FFFFFF" stroke="#000000" stroke-width="2" stroke-linecap="round" stroke-linejoin="round" stroke-miterlimit="10" d="
		M76,23c-2.209,0-4,1.791-4,4h8C80,24.791,78.209,23,76,23z"/>
	<g>
		<path d="M75,7.808h0.4c1.271-0.998,3.121-0.911,4.293,0.26c2.045,2.043,5.371,2.043,7.414,0l0.293-0.26
			c0.474-0.372,1.029-0.593,1.6-0.663V5.158c-1.206,0.092-2.387,0.575-3.307,1.495c-1.264,1.262-3.321,1.264-4.586-0.001
			C79.454,5,76.973,4.708,75,5.728V7.808z"/>
		<path d="M75.4,11.308c1.271-0.998,3.121-0.911,4.293,0.26c2.045,2.043,5.371,2.043,7.414,0l0.293-0.26
			c0.474-0.372,1.029-0.593,1.6-0.663V9.661c-1.206,0.092-2.387,0.575-3.307,1.495c-1.264,1.262-3.321,1.264-4.586-0.001
			C79.454,9.503,76.973,9.211,75,10.23v1.077H75.4z"/>
		<path d="M89,13.161c-1.206,0.092-2.387,0.575-3.307,1.495c-1.264,1.262-3.321,1.264-4.586-0.001
			c-1.653-1.652-4.134-1.944-6.107-0.925v2.077h0.4c1.271-0.998,3.121-0.911,4.293,0.26c2.045,2.043,5.371,2.043,7.414,0l0.293-0.26
			c0.474-0.372,1.029-0.593,1.6-0.663V13.161z"/>
	</g>
	
		<line fill="none" stroke="#000000" stroke-width="2" stroke-linecap="round" stroke-linejoin="round" stroke-miterlimit="10" x1="76" y1="7.5" x2="76" y2="23"/>
	
		<line fill="none" stroke="#000000" stroke-width="2" stroke-linecap="round" stroke-linejoin="round" stroke-miterlimit="10" x1="88" y1="7" x2="88" y2="14"/>
	
		<path fill="#FFFFFF" stroke="#000000" stroke-width="2" stroke-linecap="round" stroke-linejoin="round" stroke-miterlimit="10" d="
		M108,23c-2.209,0-4,1.791-4,4h8C112,24.791,110.209,23,108,23z"/>
	<g>
		<path d="M107,7.55c1.237-0.704,2.838-0.537,3.894,0.518c2.045,2.043,5.371,2.043,7.414,0l0.293-0.26
			c0.695-0.546,1.563-0.756,2.399-0.652V5.158c-1.473-0.112-2.982,0.371-4.106,1.495c-1.264,1.262-3.321,1.264-4.586-0.001
			c-1.436-1.435-3.497-1.839-5.308-1.26V7.55z"/>
		<path d="M110.894,11.567c2.045,2.043,5.371,2.043,7.414,0l0.293-0.26c0.695-0.546,1.563-0.756,2.399-0.652V9.661
			c-1.473-0.112-2.982,0.371-4.106,1.495c-1.264,1.262-3.321,1.264-4.586-0.001c-1.436-1.435-3.497-1.839-5.308-1.26v1.154
			C108.237,10.346,109.838,10.513,110.894,11.567z"/>
		<path d="M121,13.161c-1.473-0.112-2.982,0.371-4.106,1.495c-1.264,1.262-3.321,1.264-4.586-0.001
			c-1.436-1.435-3.497-1.839-5.308-1.26v2.154c1.237-0.704,2.838-0.537,3.894,0.518c2.045,2.043,5.371,2.043,7.414,0l0.293-0.26
			c0.695-0.546,1.563-0.756,2.399-0.652V13.161z"/>
	</g>
	
		<line fill="none" stroke="#000000" stroke-width="2" stroke-linecap="round" stroke-linejoin="round" stroke-miterlimit="10" x1="108" y1="7.5" x2="108" y2="23"/>
	
		<line fill="none" stroke="#000000" stroke-width="2" stroke-linecap="round" stroke-linejoin="round" stroke-miterlimit="10" x1="120" y1="7" x2="120" y2="14"/>
	
		<path fill="#FFFFFF" stroke="#000000" stroke-width="2" stroke-linecap="round" stroke-linejoin="round" stroke-miterlimit="10" d="
		M140,23c-2.209,0-4,1.791-4,4h8C144,24.791,142.209,23,140,23z"/>
	<g>
		<path d="M139,7.229c1.072-0.272,2.255,0,3.094,0.838c2.045,2.043,5.371,2.043,7.414,0l0.293-0.26
			c0.922-0.725,2.147-0.869,3.199-0.451V5.274c-1.708-0.4-3.577,0.05-4.906,1.379c-1.264,1.262-3.321,1.264-4.586-0.001
			c-1.227-1.227-2.913-1.701-4.508-1.456V7.229z"/>
		<path d="M142.094,11.567c2.045,2.043,5.371,2.043,7.414,0l0.293-0.26c0.922-0.725,2.147-0.869,3.199-0.451V9.777
			c-1.708-0.4-3.577,0.05-4.906,1.379c-1.264,1.262-3.321,1.264-4.586-0.001c-1.227-1.227-2.913-1.701-4.508-1.456v1.03
			C140.072,10.457,141.255,10.729,142.094,11.567z"/>
		<path d="M153,13.277c-1.708-0.4-3.577,0.05-4.906,1.379c-1.264,1.262-3.321,1.264-4.586-0.001
			c-1.227-1.227-2.913-1.701-4.508-1.456v2.03c1.072-0.272,2.255,0,3.094,0.838c2.045,2.043,5.371,2.043,7.414,0l0.293-0.26
			c0.922-0.725,2.147-0.869,3.199-0.451V13.277z"/>
	</g>
	
		<line fill="none" stroke="#000000" stroke-width="2" stroke-linecap="round" stroke-linejoin="round" stroke-miterlimit="10" x1="140" y1="7.5" x2="140" y2="23"/>
	
		<line fill="none" stroke="#000000" stroke-width="2" stroke-linecap="round" stroke-linejoin="round" stroke-miterlimit="10" x1="152" y1="7" x2="152" y2="14"/>
	
		<path fill="#FFFFFF" stroke="#000000" stroke-width="2" stroke-linecap="round" stroke-linejoin="round" stroke-miterlimit="10" d="
		M172,23c-2.209,0-4,1.791-4,4h8C176,24.791,174.209,23,172,23z"/>
	<g>
		<path d="M171,7.13c0.831,0,1.661,0.305,2.294,0.938c2.045,2.043,5.371,2.043,7.414,0l0.293-0.26
			c1.171-0.92,2.828-0.906,3.999,0.017V5.517c-1.899-0.781-4.166-0.403-5.706,1.137c-1.264,1.262-3.321,1.264-4.586-0.001
			C173.686,5.63,172.343,5.119,171,5.12V7.13z"/>
		<path d="M173.294,11.567c2.045,2.043,5.371,2.043,7.414,0l0.293-0.26c1.171-0.92,2.828-0.906,3.999,0.017V10.02
			c-1.899-0.781-4.166-0.403-5.706,1.137c-1.264,1.262-3.321,1.264-4.586-0.001c-1.022-1.022-2.365-1.533-3.708-1.532v1.007
			C171.831,10.63,172.661,10.935,173.294,11.567z"/>
		<path d="M185,13.52c-1.899-0.781-4.166-0.403-5.706,1.137c-1.264,1.262-3.321,1.264-4.586-0.001
			c-1.022-1.022-2.365-1.533-3.708-1.532v2.007c0.831,0,1.661,0.305,2.294,0.938c2.045,2.043,5.371,2.043,7.414,0l0.293-0.26
			c1.171-0.92,2.828-0.906,3.999,0.017V13.52z"/>
	</g>
	
		<line fill="none" stroke="#000000" stroke-width="2" stroke-linecap="round" stroke-linejoin="round" stroke-miterlimit="10" x1="172" y1="7.5" x2="172" y2="23"/>
	
		<line fill="none" stroke="#000000" stroke-width="2" stroke-linecap="round" stroke-linejoin="round" stroke-miterlimit="10" x1="184" y1="7" x2="184" y2="14"/>
	
		<path fill="#FFFFFF" stroke="#000000" stroke-width="2" stroke-linecap="round" stroke-linejoin="round" stroke-miterlimit="10" d="
		M204,23c-2.209,0-4,1.791-4,4h8C208,24.791,206.209,23,204,23z"/>
	<g>
		<path d="M203,7.223c0.547,0.138,1.066,0.417,1.494,0.845c2.045,2.043,5.371,2.043,7.414,0l0.293-0.26
			c1.271-0.998,3.121-0.911,4.293,0.26c0.157,0.157,0.334,0.279,0.506,0.413V5.937c-2.026-1.281-4.742-1.048-6.506,0.717
			c-1.264,1.262-3.321,1.264-4.586-0.001c-0.818-0.818-1.844-1.293-2.908-1.456V7.223z"/>
		<path d="M211.908,11.567l0.293-0.26c1.271-0.998,3.121-0.911,4.293,0.26c0.157,0.157,0.334,0.279,0.506,0.413v-1.541
			c-2.026-1.281-4.742-1.048-6.506,0.717c-1.264,1.262-3.321,1.264-4.586-0.001c-0.818-0.818-1.844-1.293-2.908-1.456v1.023
			c0.547,0.138,1.066,0.417,1.494,0.845C206.539,13.61,209.865,13.61,211.908,11.567z"/>
		<path d="M217,13.939c-2.026-1.281-4.742-1.048-6.506,0.717c-1.264,1.262-3.321,1.264-4.586-0.001
			c-0.818-0.818-1.844-1.293-2.908-1.456v2.023c0.547,0.138,1.066,0.417,1.494,0.845c2.045,2.043,5.371,2.043,7.414,0l0.293-0.26
			c1.271-0.998,3.121-0.911,4.293,0.26c0.157,0.157,0.334,0.279,0.506,0.413V13.939z"/>
	</g>
	
		<line fill="none" stroke="#000000" stroke-width="2" stroke-linecap="round" stroke-linejoin="round" stroke-miterlimit="10" x1="204" y1="7.5" x2="204" y2="23"/>
	
		<line fill="none" stroke="#000000" stroke-width="2" stroke-linecap="round" stroke-linejoin="round" stroke-miterlimit="10" x1="216" y1="7" x2="216" y2="14"/>
	
		<path fill="#FFFFFF" stroke="#000000" stroke-width="2" stroke-linecap="round" stroke-linejoin="round" stroke-miterlimit="10" d="
		M236,23c-2.209,0-4,1.791-4,4h8C240,24.791,238.209,23,236,23z"/>
	<g>
		<path d="M235,7.555c0.247,0.14,0.484,0.303,0.694,0.513c2.045,2.043,5.371,2.043,7.414,0l0.293-0.26
			c1.271-0.998,3.121-0.911,4.293,0.26c0.391,0.391,0.839,0.683,1.306,0.925V6.563c-2.052-1.943-5.295-1.921-7.306,0.09
			c-1.264,1.262-3.321,1.264-4.586-0.001c-0.61-0.609-1.339-1.015-2.108-1.261V7.555z"/>
		<path d="M243.108,11.567l0.293-0.26c1.271-0.998,3.121-0.911,4.293,0.26c0.391,0.391,0.839,0.683,1.306,0.925v-1.426
			c-2.052-1.943-5.295-1.92-7.306,0.09c-1.264,1.262-3.321,1.264-4.586-0.001c-0.61-0.609-1.339-1.015-2.108-1.261v1.16
			c0.247,0.14,0.484,0.303,0.694,0.513C237.739,13.61,241.065,13.61,243.108,11.567z"/>
		<path d="M249,14.566c-2.052-1.943-5.295-1.92-7.306,0.09c-1.264,1.262-3.321,1.264-4.586-0.001
			c-0.61-0.609-1.339-1.015-2.108-1.261v2.16c0.247,0.14,0.484,0.303,0.694,0.513c2.045,2.043,5.371,2.043,7.414,0l0.293-0.26
			c1.271-0.998,3.121-0.911,4.293,0.26c0.391,0.391,0.839,0.683,1.306,0.925V14.566z"/>
	</g>
	
		<line fill="none" stroke="#000000" stroke-width="2" stroke-linecap="round" stroke-linejoin="round" stroke-miterlimit="10" x1="236" y1="7.5" x2="236" y2="23"/>
	
		<line fill="none" stroke="#000000" stroke-width="2" stroke-linecap="round" stroke-linejoin="round" stroke-miterlimit="10" x1="248" y1="8" x2="248" y2="15"/>
	
		<path fill="#FFFFFF" stroke="#000000" stroke-width="2" stroke-linecap="round" stroke-linejoin="round" stroke-miterlimit="10" d="
		M268,23c-2.209,0-4,1.791-4,4h8C272,24.791,270.209,23,268,23z"/>
	<g>
		<path d="M267,8.153c2.052,1.945,5.298,1.924,7.309-0.086l0.293-0.26c1.271-0.998,3.121-0.911,4.293,0.26
			c0.609,0.608,1.337,1.013,2.105,1.259V7.163c-0.246-0.14-0.482-0.302-0.691-0.511c-2.045-2.044-5.37-2.043-7.414,0.001
			c-1.264,1.262-3.321,1.264-4.586-0.001c-0.392-0.392-0.84-0.685-1.309-0.927V8.153z"/>
		<path d="M274.309,11.567l0.293-0.26c1.271-0.998,3.121-0.911,4.293,0.26c0.609,0.608,1.337,1.013,2.105,1.259v-1.16
			c-0.246-0.14-0.482-0.302-0.691-0.511c-2.045-2.044-5.37-2.043-7.414,0.001c-1.264,1.262-3.321,1.264-4.586-0.001
			c-0.392-0.392-0.84-0.685-1.309-0.927v1.425C269.052,13.599,272.298,13.577,274.309,11.567z"/>
		<path d="M281,15.166c-0.246-0.14-0.482-0.302-0.691-0.511c-2.045-2.044-5.37-2.043-7.414,0.001
			c-1.264,1.262-3.321,1.264-4.586-0.001c-0.392-0.392-0.84-0.685-1.309-0.927v2.425c2.052,1.945,5.298,1.924,7.309-0.086
			l0.293-0.26c1.271-0.998,3.121-0.911,4.293,0.26c0.609,0.608,1.337,1.013,2.105,1.259V15.166z"/>
	</g>
	
		<line fill="none" stroke="#000000" stroke-width="2" stroke-linecap="round" stroke-linejoin="round" stroke-miterlimit="10" x1="268" y1="8.5" x2="268" y2="23"/>
	
		<line fill="none" stroke="#000000" stroke-width="2" stroke-linecap="round" stroke-linejoin="round" stroke-miterlimit="10" x1="280" y1="8" x2="280" y2="15"/>
	
		<path fill="#FFFFFF" stroke="#000000" stroke-width="2" stroke-linecap="round" stroke-linejoin="round" stroke-miterlimit="10" d="
		M300,23c-2.209,0-4,1.791-4,4h8C304,24.791,302.209,23,300,23z"/>
	<g>
		<path d="M299,8.781c2.026,1.283,4.744,1.051,6.509-0.714l0.293-0.26c1.271-0.998,3.121-0.911,4.293,0.26
			c0.817,0.817,1.842,1.292,2.905,1.455V7.487c-0.546-0.139-1.064-0.409-1.491-0.835c-2.045-2.044-5.37-2.043-7.414,0.001
			c-1.264,1.262-3.321,1.264-4.586-0.001c-0.158-0.158-0.336-0.281-0.509-0.415V8.781z"/>
		<path d="M305.509,11.567l0.293-0.26c1.271-0.998,3.121-0.911,4.293,0.26c0.817,0.817,1.842,1.292,2.905,1.455V11.99
			c-0.546-0.139-1.064-0.408-1.491-0.835c-2.045-2.044-5.37-2.043-7.414,0.001c-1.264,1.262-3.321,1.264-4.586-0.001
			c-0.158-0.158-0.336-0.281-0.509-0.415v1.541C301.026,13.564,303.744,13.332,305.509,11.567z"/>
		<path d="M313,15.49c-0.546-0.139-1.064-0.408-1.491-0.835c-2.045-2.044-5.37-2.043-7.414,0.001
			c-1.264,1.262-3.321,1.264-4.586-0.001c-0.158-0.158-0.336-0.281-0.509-0.415v2.541c2.026,1.283,4.744,1.051,6.509-0.714
			l0.293-0.26c1.271-0.998,3.121-0.911,4.293,0.26c0.817,0.817,1.842,1.292,2.905,1.455V15.49z"/>
	</g>
	
		<line fill="none" stroke="#000000" stroke-width="2" stroke-linecap="round" stroke-linejoin="round" stroke-miterlimit="10" x1="300" y1="8.5" x2="300" y2="23"/>
	
		<line fill="none" stroke="#000000" stroke-width="2" stroke-linecap="round" stroke-linejoin="round" stroke-miterlimit="10" x1="312" y1="9" x2="312" y2="16"/>
	
		<path fill="#FFFFFF" stroke="#000000" stroke-width="2" stroke-linecap="round" stroke-linejoin="round" stroke-miterlimit="10" d="
		M332,23c-2.209,0-4,1.791-4,4h8C336,24.791,334.209,23,332,23z"/>
	<g>
		<path d="M331,9.201c1.9,0.782,4.169,0.406,5.709-1.134l0.293-0.26c1.271-0.998,3.121-0.911,4.293,0.26
			c1.021,1.021,2.363,1.531,3.705,1.532v-2c-0.83,0-1.659-0.315-2.291-0.947c-2.045-2.044-5.37-2.043-7.414,0.001
			c-1.173,1.172-3.022,1.242-4.295,0.236V9.201z"/>
		<path d="M336.709,11.567l0.293-0.26c1.271-0.998,3.121-0.911,4.293,0.26c1.021,1.021,2.363,1.531,3.705,1.532v-0.997
			c-0.83,0-1.659-0.315-2.291-0.947c-2.045-2.044-5.37-2.043-7.414,0.001c-1.173,1.172-3.022,1.242-4.295,0.236v1.309
			C332.9,13.483,335.169,13.107,336.709,11.567z"/>
		<path d="M345,15.603c-0.83,0-1.659-0.315-2.291-0.947c-2.045-2.044-5.37-2.043-7.414,0.001c-1.173,1.172-3.022,1.242-4.295,0.236
			v2.309c1.9,0.782,4.169,0.406,5.709-1.134l0.293-0.26c1.271-0.998,3.121-0.911,4.293,0.26c1.021,1.021,2.363,1.531,3.705,1.532
			V15.603z"/>
	</g>
	
		<line fill="none" stroke="#000000" stroke-width="2" stroke-linecap="round" stroke-linejoin="round" stroke-miterlimit="10" x1="332" y1="8.5" x2="332" y2="23"/>
	
		<line fill="none" stroke="#000000" stroke-width="2" stroke-linecap="round" stroke-linejoin="round" stroke-miterlimit="10" x1="344" y1="9" x2="344" y2="16"/>
	
		<path fill="#FFFFFF" stroke="#000000" stroke-width="2" stroke-linecap="round" stroke-linejoin="round" stroke-miterlimit="10" d="
		M364,23c-2.209,0-4,1.791-4,4h8C368,24.791,366.209,23,364,23z"/>
	<g>
		<path d="M373.909,6.652c-2.045-2.044-5.37-2.043-7.414,0.001c-0.943,0.941-2.327,1.18-3.495,0.716v2.075
			c1.71,0.401,3.579-0.047,4.909-1.377l0.293-0.26c1.271-0.998,3.121-0.911,4.293,0.26c1.226,1.225,2.911,1.699,4.505,1.456V7.488
			C375.928,7.76,374.746,7.489,373.909,6.652z"/>
		<path d="M373.909,11.155c-2.045-2.044-5.37-2.043-7.414,0.001c-0.943,0.941-2.327,1.18-3.495,0.716v1.072
			c1.71,0.401,3.579-0.047,4.909-1.377l0.293-0.26c1.271-0.998,3.121-0.911,4.293,0.26c1.226,1.225,2.911,1.699,4.505,1.456v-1.032
			C375.928,12.263,374.746,11.992,373.909,11.155z"/>
		<path d="M377,15.491c-1.072,0.271-2.254,0.001-3.091-0.836c-2.045-2.044-5.37-2.043-7.414,0.001
			c-0.943,0.941-2.327,1.18-3.495,0.716v2.072c1.71,0.401,3.579-0.047,4.909-1.377l0.293-0.26c1.271-0.998,3.121-0.911,4.293,0.26
			c1.226,1.225,2.911,1.699,4.505,1.456V15.491z"/>
	</g>
	
		<line fill="none" stroke="#000000" stroke-width="2" stroke-linecap="round" stroke-linejoin="round" stroke-miterlimit="10" x1="364" y1="9.5" x2="364" y2="23"/>
	
		<line fill="none" stroke="#000000" stroke-width="2" stroke-linecap="round" stroke-linejoin="round" stroke-miterlimit="10" x1="376" y1="9" x2="376" y2="16"/>
	
		<path fill="#FFFFFF" stroke="#000000" stroke-width="2" stroke-linecap="round" stroke-linejoin="round" stroke-miterlimit="10" d="
		M396,23c-2.209,0-4,1.791-4,4h8C400,24.791,398.209,23,396,23z"/>
	<g>
		<path d="M408.896,6.653c-1.264,1.262-3.321,1.264-4.586-0.001c-2.045-2.044-5.37-2.043-7.414,0.001
			c-0.53,0.53-1.202,0.824-1.896,0.909v1.999c1.207-0.091,2.39-0.574,3.31-1.494l0.293-0.26c1.271-0.998,3.121-0.911,4.293,0.26
			c1.652,1.65,4.132,1.944,6.104,0.927V6.653H408.896z"/>
		<path d="M408.896,11.156c-1.264,1.262-3.321,1.264-4.586-0.001c-2.045-2.044-5.37-2.043-7.414,0.001
			c-0.53,0.529-1.202,0.824-1.896,0.909v0.996c1.207-0.091,2.39-0.574,3.31-1.494l0.293-0.26c1.271-0.998,3.121-0.911,4.293,0.26
			c1.652,1.65,4.132,1.944,6.104,0.927v-1.308L408.896,11.156z"/>
		<path d="M409,14.761l-0.104-0.104c-1.264,1.262-3.321,1.264-4.586-0.001c-2.045-2.044-5.37-2.043-7.414,0.001
			c-0.53,0.529-1.202,0.824-1.896,0.909v1.996c1.207-0.091,2.39-0.574,3.31-1.494l0.293-0.26c1.271-0.998,3.121-0.911,4.293,0.26
			c1.652,1.65,4.132,1.944,6.104,0.927V14.761z"/>
	</g>
	
		<line fill="none" stroke="#000000" stroke-width="2" stroke-linecap="round" stroke-linejoin="round" stroke-miterlimit="10" x1="396" y1="8.5" x2="396" y2="23"/>
	
		<line fill="none" stroke="#000000" stroke-width="2" stroke-linecap="round" stroke-linejoin="round" stroke-miterlimit="10" x1="408" y1="9" x2="408" y2="16"/>
	
		<path fill="#FFFFFF" stroke="#000000" stroke-width="2" stroke-linecap="round" stroke-linejoin="round" stroke-miterlimit="10" d="
		M428,23c-2.209,0-4,1.791-4,4h8C432,24.791,430.209,23,428,23z"/>
	<g>
		<path d="M440.096,6.653c-1.264,1.262-3.321,1.264-4.586-0.001c-2.045-2.044-5.37-2.043-7.414,0.001
			c-0.322,0.321-0.696,0.56-1.096,0.717v2.076c0.919-0.215,1.795-0.664,2.51-1.379l0.293-0.26c1.271-0.998,3.121-0.911,4.293,0.26
			c1.887,1.885,4.851,2.008,6.904,0.416v-1.83H440.096z"/>
		<path d="M440.096,11.156c-1.264,1.262-3.321,1.264-4.586-0.001c-2.045-2.044-5.37-2.043-7.414,0.001
			c-0.322,0.321-0.696,0.56-1.096,0.717v1.073c0.919-0.215,1.795-0.664,2.51-1.379l0.293-0.26c1.271-0.998,3.121-0.911,4.293,0.26
			c1.887,1.885,4.851,2.008,6.904,0.416v-0.564L440.096,11.156z"/>
		<path d="M441,15.559l-0.904-0.902c-1.264,1.262-3.321,1.264-4.586-0.001c-2.045-2.044-5.37-2.043-7.414,0.001
			c-0.322,0.321-0.696,0.56-1.096,0.717v2.073c0.919-0.215,1.795-0.664,2.51-1.379l0.293-0.26c1.271-0.998,3.121-0.911,4.293,0.26
			c1.887,1.885,4.851,2.008,6.904,0.416V15.559z"/>
	</g>
	
		<line fill="none" stroke="#000000" stroke-width="2" stroke-linecap="round" stroke-linejoin="round" stroke-miterlimit="10" x1="428" y1="8.5" x2="428" y2="23"/>
	
		<line fill="none" stroke="#000000" stroke-width="2" stroke-linecap="round" stroke-linejoin="round" stroke-miterlimit="10" x1="440" y1="8" x2="440" y2="16"/>
	
		<path fill="#FFFFFF" stroke="#000000" stroke-width="2" stroke-linecap="round" stroke-linejoin="round" stroke-miterlimit="10" d="
		M460,23c-2.209,0-4,1.791-4,4h8C464,24.791,462.209,23,460,23z"/>
	<g>
		<path d="M472.096,6.653c-1.264,1.262-3.321,1.264-4.586-0.001c-2.045-2.044-5.37-2.043-7.414,0.001
			c-0.322,0.321-0.696,0.56-1.096,0.717v2.076c0.919-0.215,1.795-0.664,2.51-1.379l0.293-0.26c1.271-0.998,3.121-0.911,4.293,0.26
			c1.887,1.885,4.851,2.008,6.904,0.416v-1.83H472.096z"/>
		<path d="M472.096,11.156c-1.264,1.262-3.321,1.264-4.586-0.001c-2.045-2.044-5.37-2.043-7.414,0.001
			c-0.322,0.321-0.696,0.56-1.096,0.717v1.073c0.919-0.215,1.795-0.664,2.51-1.379l0.293-0.26c1.271-0.998,3.121-0.911,4.293,0.26
			c1.887,1.885,4.851,2.008,6.904,0.416v-0.564L472.096,11.156z"/>
		<path d="M473,15.559l-0.904-0.902c-1.264,1.262-3.321,1.264-4.586-0.001c-2.045-2.044-5.37-2.043-7.414,0.001
			c-0.322,0.321-0.696,0.56-1.096,0.717v2.073c0.919-0.215,1.795-0.664,2.51-1.379l0.293-0.26c1.271-0.998,3.121-0.911,4.293,0.26
			c1.887,1.885,4.851,2.008,6.904,0.416V15.559z"/>
	</g>
	
		<line fill="none" stroke="#000000" stroke-width="2" stroke-linecap="round" stroke-linejoin="round" stroke-miterlimit="10" x1="460" y1="8.5" x2="460" y2="23"/>
	
		<line fill="none" stroke="#000000" stroke-width="2" stroke-linecap="round" stroke-linejoin="round" stroke-miterlimit="10" x1="472" y1="8" x2="472" y2="16"/>
	
		<path fill="#FFFFFF" stroke="#000000" stroke-width="2" stroke-linecap="round" stroke-linejoin="round" stroke-miterlimit="10" d="
		M492,23c-2.209,0-4,1.791-4,4h8C496,24.791,494.209,23,492,23z"/>
	<g>
		<path d="M491.293,6.653v1.154H493c1.271-0.998,3.121-0.911,4.293,0.26c2.045,2.043,5.371,2.043,7.414,0L505,7.808v-2.29
			c-0.621,0.255-1.203,0.632-1.707,1.136c-1.264,1.262-3.321,1.264-4.586-0.001C496.662,4.608,493.337,4.609,491.293,6.653z"/>
		<path d="M497.293,11.567c2.045,2.043,5.371,2.043,7.414,0l0.293-0.26v-1.287c-0.621,0.255-1.203,0.632-1.707,1.136
			c-1.264,1.262-3.321,1.264-4.586-0.001c-2.045-2.044-5.37-2.043-7.414,0.001v0.151H493
			C494.271,10.31,496.121,10.396,497.293,11.567z"/>
		<path d="M503.293,14.656c-1.264,1.262-3.321,1.264-4.586-0.001c-2.045-2.044-5.37-2.043-7.414,0.001v1.151H493
			c1.271-0.998,3.121-0.911,4.293,0.26c2.045,2.043,5.371,2.043,7.414,0l0.293-0.26v-2.287
			C504.379,13.775,503.797,14.152,503.293,14.656z"/>
	</g>
	
		<line fill="none" stroke="#000000" stroke-width="2" stroke-linecap="round" stroke-linejoin="round" stroke-miterlimit="10" x1="492" y1="7.5" x2="492" y2="23"/>
	
		<line fill="none" stroke="#000000" stroke-width="2" stroke-linecap="round" stroke-linejoin="round" stroke-miterlimit="10" x1="504" y1="8" x2="504" y2="15"/>
</g>
<g id="Layer_4">
</g>
</svg>
