<?xml version="1.0" encoding="iso-8859-1"?>
<!-- Generator: Adobe Illustrator 16.2.1, SVG Export Plug-In . SVG Version: 6.00 Build 0)  -->
<!DOCTYPE svg PUBLIC "-//W3C//DTD SVG 1.1 Tiny//EN" "http://www.w3.org/Graphics/SVG/1.1/DTD/svg11-tiny.dtd">
<svg version="1.1" baseProfile="tiny" xmlns="http://www.w3.org/2000/svg" xmlns:xlink="http://www.w3.org/1999/xlink" x="0px"
	 y="0px" width="512px" height="32px" viewBox="0 0 512 32" xml:space="preserve">
<g id="Layer_2_copy">
</g>
<g id="Layer_2">
</g>
<g id="Layer_1">
	<g>
		<path fill="#FFFFFF" d="M21,22c0,1.1-0.9,2-2,2h-6c-1.1,0-2-0.9-2-2l0,0c0-1.1,0.9-2,2-2h6C20.1,20,21,20.9,21,22L21,22z"/>
		<path fill="none" stroke="#000000" stroke-width="2" stroke-linecap="round" stroke-linejoin="round" stroke-miterlimit="10" d="
			M21,22c0,1.1-0.9,2-2,2h-6c-1.1,0-2-0.9-2-2l0,0c0-1.1,0.9-2,2-2h6C20.1,20,21,20.9,21,22L21,22z"/>
	</g>
	<g>
		<path fill="#FFFFFF" d="M21,25c0,1.1-0.9,2-2,2h-6c-1.1,0-2-0.9-2-2l0,0c0-1.1,0.9-2,2-2h6C20.1,23,21,23.9,21,25L21,25z"/>
		<path fill="none" stroke="#000000" stroke-width="2" stroke-linecap="round" stroke-linejoin="round" stroke-miterlimit="10" d="
			M21,25c0,1.1-0.9,2-2,2h-6c-1.1,0-2-0.9-2-2l0,0c0-1.1,0.9-2,2-2h6C20.1,23,21,23.9,21,25L21,25z"/>
	</g>
	
		<circle fill="#FFFFFF" stroke="#000000" stroke-width="2" stroke-linecap="round" stroke-linejoin="round" stroke-miterlimit="10" cx="16" cy="13" r="8"/>
	<g>
		<path fill="#FFFFFF" d="M13,23.5c-0.827,0-1.5-0.673-1.5-1.5s0.673-1.5,1.5-1.5h6c0.827,0,1.5,0.673,1.5,1.5s-0.673,1.5-1.5,1.5
			H13z"/>
		<path d="M19,21c0.551,0,1,0.448,1,1s-0.449,1-1,1h-6c-0.551,0-1-0.448-1-1s0.449-1,1-1H19 M19,20h-6c-1.1,0-2,0.9-2,2s0.9,2,2,2h6
			c1.1,0,2-0.9,2-2S20.1,20,19,20L19,20z"/>
	</g>
	<g>
		<path fill="#FFFFFF" d="M13,26.5c-0.827,0-1.5-0.673-1.5-1.5s0.673-1.5,1.5-1.5h6c0.827,0,1.5,0.673,1.5,1.5s-0.673,1.5-1.5,1.5
			H13z"/>
		<path d="M19,24c0.551,0,1,0.448,1,1s-0.449,1-1,1h-6c-0.551,0-1-0.448-1-1s0.449-1,1-1H19 M19,23h-6c-1.1,0-2,0.9-2,2s0.9,2,2,2h6
			c1.1,0,2-0.9,2-2S20.1,23,19,23L19,23z"/>
	</g>
	<path fill="none" stroke="#000000" stroke-linecap="round" stroke-linejoin="round" stroke-miterlimit="10" d="M17.5,20.5v-6
		c0-0.55,0.45-1,1-1l0,0c0.55,0,1,0.45,1,1l0,0c0,0.55-0.45,1-1,1h-5c-0.55,0-1-0.45-1-1l0,0c0-0.55,0.45-1,1-1l0,0
		c0.55,0,1,0.45,1,1v6"/>
	<g>
		<path fill="#FFFFFF" d="M53,22.125c0,1.1-0.9,2-2,2h-6c-1.1,0-2-0.9-2-2l0,0c0-1.1,0.9-2,2-2h6C52.1,20.125,53,21.025,53,22.125
			L53,22.125z"/>
		<path fill="none" stroke="#000000" stroke-width="2" stroke-linecap="round" stroke-linejoin="round" stroke-miterlimit="10" d="
			M53,22.125c0,1.1-0.9,2-2,2h-6c-1.1,0-2-0.9-2-2l0,0c0-1.1,0.9-2,2-2h6C52.1,20.125,53,21.025,53,22.125L53,22.125z"/>
	</g>
	<g>
		<path fill="#FFFFFF" d="M53,25.125c0,1.1-0.9,2-2,2h-6c-1.1,0-2-0.9-2-2l0,0c0-1.1,0.9-2,2-2h6C52.1,23.125,53,24.025,53,25.125
			L53,25.125z"/>
		<path fill="none" stroke="#000000" stroke-width="2" stroke-linecap="round" stroke-linejoin="round" stroke-miterlimit="10" d="
			M53,25.125c0,1.1-0.9,2-2,2h-6c-1.1,0-2-0.9-2-2l0,0c0-1.1,0.9-2,2-2h6C52.1,23.125,53,24.025,53,25.125L53,25.125z"/>
	</g>
	
		<circle fill="#FFFFFF" stroke="#000000" stroke-width="2" stroke-linecap="round" stroke-linejoin="round" stroke-miterlimit="10" cx="48" cy="13.125" r="8"/>
	<g>
		<path fill="#FFFFFF" d="M45,23.625c-0.827,0-1.5-0.673-1.5-1.5s0.673-1.5,1.5-1.5h6c0.827,0,1.5,0.673,1.5,1.5s-0.673,1.5-1.5,1.5
			H45z"/>
		<path d="M51,21.125c0.551,0,1,0.448,1,1s-0.449,1-1,1h-6c-0.551,0-1-0.448-1-1s0.449-1,1-1H51 M51,20.125h-6c-1.1,0-2,0.9-2,2
			s0.9,2,2,2h6c1.1,0,2-0.9,2-2S52.1,20.125,51,20.125L51,20.125z"/>
	</g>
	<g>
		<path fill="#FFFFFF" d="M45,26.625c-0.827,0-1.5-0.673-1.5-1.5s0.673-1.5,1.5-1.5h6c0.827,0,1.5,0.673,1.5,1.5s-0.673,1.5-1.5,1.5
			H45z"/>
		<path d="M51,24.125c0.551,0,1,0.448,1,1s-0.449,1-1,1h-6c-0.551,0-1-0.448-1-1s0.449-1,1-1H51 M51,23.125h-6c-1.1,0-2,0.9-2,2
			s0.9,2,2,2h6c1.1,0,2-0.9,2-2S52.1,23.125,51,23.125L51,23.125z"/>
	</g>
	<path fill="none" stroke="#000000" stroke-linecap="round" stroke-linejoin="round" stroke-miterlimit="10" d="M49,20.625v-6
		c0-0.55,0.45-1,1-1l0,0c0.55,0,1,0.45,1,1l0,0c0,0.55-0.45,1-1,1h-4c-0.55,0-1-0.45-1-1l0,0c0-0.55,0.45-1,1-1l0,0
		c0.55,0,1,0.45,1,1v6"/>
	<g>
		<path fill="#FFFFFF" d="M85,22.25c0,1.1-0.9,2-2,2h-6c-1.1,0-2-0.9-2-2l0,0c0-1.1,0.9-2,2-2h6C84.1,20.25,85,21.15,85,22.25
			L85,22.25z"/>
		<path fill="none" stroke="#000000" stroke-width="2" stroke-linecap="round" stroke-linejoin="round" stroke-miterlimit="10" d="
			M85,22.25c0,1.1-0.9,2-2,2h-6c-1.1,0-2-0.9-2-2l0,0c0-1.1,0.9-2,2-2h6C84.1,20.25,85,21.15,85,22.25L85,22.25z"/>
	</g>
	<g>
		<path fill="#FFFFFF" d="M85,25.25c0,1.1-0.9,2-2,2h-6c-1.1,0-2-0.9-2-2l0,0c0-1.1,0.9-2,2-2h6C84.1,23.25,85,24.15,85,25.25
			L85,25.25z"/>
		<path fill="none" stroke="#000000" stroke-width="2" stroke-linecap="round" stroke-linejoin="round" stroke-miterlimit="10" d="
			M85,25.25c0,1.1-0.9,2-2,2h-6c-1.1,0-2-0.9-2-2l0,0c0-1.1,0.9-2,2-2h6C84.1,23.25,85,24.15,85,25.25L85,25.25z"/>
	</g>
	
		<circle fill="#FFFFFF" stroke="#000000" stroke-width="2" stroke-linecap="round" stroke-linejoin="round" stroke-miterlimit="10" cx="80" cy="13.25" r="8"/>
	<g>
		<path fill="#FFFFFF" d="M77,23.75c-0.827,0-1.5-0.673-1.5-1.5s0.673-1.5,1.5-1.5h6c0.827,0,1.5,0.673,1.5,1.5s-0.673,1.5-1.5,1.5
			H77z"/>
		<path d="M83,21.25c0.551,0,1,0.448,1,1s-0.449,1-1,1h-6c-0.551,0-1-0.448-1-1s0.449-1,1-1H83 M83,20.25h-6c-1.1,0-2,0.9-2,2
			s0.9,2,2,2h6c1.1,0,2-0.9,2-2S84.1,20.25,83,20.25L83,20.25z"/>
	</g>
	<g>
		<path fill="#FFFFFF" d="M77,26.75c-0.827,0-1.5-0.673-1.5-1.5s0.673-1.5,1.5-1.5h6c0.827,0,1.5,0.673,1.5,1.5s-0.673,1.5-1.5,1.5
			H77z"/>
		<path d="M83,24.25c0.551,0,1,0.448,1,1s-0.449,1-1,1h-6c-0.551,0-1-0.448-1-1s0.449-1,1-1H83 M83,23.25h-6c-1.1,0-2,0.9-2,2
			s0.9,2,2,2h6c1.1,0,2-0.9,2-2S84.1,23.25,83,23.25L83,23.25z"/>
	</g>
	<path fill="none" stroke="#000000" stroke-linecap="round" stroke-linejoin="round" stroke-miterlimit="10" d="M80.5,20.75v-6
		c0-0.55,0.45-1,1-1l0,0c0.55,0,1,0.45,1,1l0,0c0,0.55-0.45,1-1,1h-3c-0.55,0-1-0.45-1-1l0,0c0-0.55,0.45-1,1-1l0,0
		c0.55,0,1,0.45,1,1v6"/>
	<g>
		<path fill="#FFFFFF" d="M117,22.375c0,1.1-0.9,2-2,2h-6c-1.1,0-2-0.9-2-2l0,0c0-1.1,0.9-2,2-2h6
			C116.1,20.375,117,21.275,117,22.375L117,22.375z"/>
		<path fill="none" stroke="#000000" stroke-width="2" stroke-linecap="round" stroke-linejoin="round" stroke-miterlimit="10" d="
			M117,22.375c0,1.1-0.9,2-2,2h-6c-1.1,0-2-0.9-2-2l0,0c0-1.1,0.9-2,2-2h6C116.1,20.375,117,21.275,117,22.375L117,22.375z"/>
	</g>
	<g>
		<path fill="#FFFFFF" d="M117,25.375c0,1.1-0.9,2-2,2h-6c-1.1,0-2-0.9-2-2l0,0c0-1.1,0.9-2,2-2h6
			C116.1,23.375,117,24.275,117,25.375L117,25.375z"/>
		<path fill="none" stroke="#000000" stroke-width="2" stroke-linecap="round" stroke-linejoin="round" stroke-miterlimit="10" d="
			M117,25.375c0,1.1-0.9,2-2,2h-6c-1.1,0-2-0.9-2-2l0,0c0-1.1,0.9-2,2-2h6C116.1,23.375,117,24.275,117,25.375L117,25.375z"/>
	</g>
	
		<circle fill="#FFFFFF" stroke="#000000" stroke-width="2" stroke-linecap="round" stroke-linejoin="round" stroke-miterlimit="10" cx="112" cy="13.375" r="8"/>
	<g>
		<path fill="#FFFFFF" d="M109,23.875c-0.827,0-1.5-0.673-1.5-1.5s0.673-1.5,1.5-1.5h6c0.827,0,1.5,0.673,1.5,1.5
			s-0.673,1.5-1.5,1.5H109z"/>
		<path d="M115,21.375c0.551,0,1,0.448,1,1s-0.449,1-1,1h-6c-0.551,0-1-0.448-1-1s0.449-1,1-1H115 M115,20.375h-6c-1.1,0-2,0.9-2,2
			s0.9,2,2,2h6c1.1,0,2-0.9,2-2S116.1,20.375,115,20.375L115,20.375z"/>
	</g>
	<g>
		<path fill="#FFFFFF" d="M109,26.875c-0.827,0-1.5-0.673-1.5-1.5s0.673-1.5,1.5-1.5h6c0.827,0,1.5,0.673,1.5,1.5
			s-0.673,1.5-1.5,1.5H109z"/>
		<path d="M115,24.375c0.551,0,1,0.448,1,1s-0.449,1-1,1h-6c-0.551,0-1-0.448-1-1s0.449-1,1-1H115 M115,23.375h-6c-1.1,0-2,0.9-2,2
			s0.9,2,2,2h6c1.1,0,2-0.9,2-2S116.1,23.375,115,23.375L115,23.375z"/>
	</g>
	<path fill="none" stroke="#000000" stroke-linecap="round" stroke-linejoin="round" stroke-miterlimit="10" d="M112.5,20.875v-6
		c0-0.55,0.225-1,0.5-1s0.5,0.45,0.5,1l0,0c0,0.55-0.45,1-1,1h-1c-0.55,0-1-0.45-1-1l0,0c0-0.55,0.225-1,0.5-1s0.5,0.45,0.5,1v6"/>
	<g>
		<path fill="#FFFFFF" d="M149,22.5c0,1.1-0.9,2-2,2h-6c-1.1,0-2-0.9-2-2l0,0c0-1.1,0.9-2,2-2h6C148.1,20.5,149,21.4,149,22.5
			L149,22.5z"/>
		<path fill="none" stroke="#000000" stroke-width="2" stroke-linecap="round" stroke-linejoin="round" stroke-miterlimit="10" d="
			M149,22.5c0,1.1-0.9,2-2,2h-6c-1.1,0-2-0.9-2-2l0,0c0-1.1,0.9-2,2-2h6C148.1,20.5,149,21.4,149,22.5L149,22.5z"/>
	</g>
	<g>
		<path fill="#FFFFFF" d="M149,25.5c0,1.1-0.9,2-2,2h-6c-1.1,0-2-0.9-2-2l0,0c0-1.1,0.9-2,2-2h6C148.1,23.5,149,24.4,149,25.5
			L149,25.5z"/>
		<path fill="none" stroke="#000000" stroke-width="2" stroke-linecap="round" stroke-linejoin="round" stroke-miterlimit="10" d="
			M149,25.5c0,1.1-0.9,2-2,2h-6c-1.1,0-2-0.9-2-2l0,0c0-1.1,0.9-2,2-2h6C148.1,23.5,149,24.4,149,25.5L149,25.5z"/>
	</g>
	
		<circle fill="#FFFFFF" stroke="#000000" stroke-width="2" stroke-linecap="round" stroke-linejoin="round" stroke-miterlimit="10" cx="144" cy="13.5" r="8"/>
	<g>
		<path fill="#FFFFFF" d="M141,24c-0.827,0-1.5-0.673-1.5-1.5s0.673-1.5,1.5-1.5h6c0.827,0,1.5,0.673,1.5,1.5S147.827,24,147,24H141
			z"/>
		<path d="M147,21.5c0.551,0,1,0.448,1,1s-0.449,1-1,1h-6c-0.551,0-1-0.448-1-1s0.449-1,1-1H147 M147,20.5h-6c-1.1,0-2,0.9-2,2
			s0.9,2,2,2h6c1.1,0,2-0.9,2-2S148.1,20.5,147,20.5L147,20.5z"/>
	</g>
	<g>
		<path fill="#FFFFFF" d="M141,27c-0.827,0-1.5-0.673-1.5-1.5s0.673-1.5,1.5-1.5h6c0.827,0,1.5,0.673,1.5,1.5S147.827,27,147,27H141
			z"/>
		<path d="M147,24.5c0.551,0,1,0.448,1,1s-0.449,1-1,1h-6c-0.551,0-1-0.448-1-1s0.449-1,1-1H147 M147,23.5h-6c-1.1,0-2,0.9-2,2
			s0.9,2,2,2h6c1.1,0,2-0.9,2-2S148.1,23.5,147,23.5L147,23.5z"/>
	</g>
	<path fill="none" stroke="#000000" stroke-linecap="round" stroke-linejoin="round" stroke-miterlimit="10" d="M144.5,21v-6
		c0-0.55,0.45-1,1-1l0,0c0.55,0,1,0.45,1,1l0,0c0,0.55-0.45,1-1,1h-3c-0.55,0-1-0.45-1-1l0,0c0-0.55,0.45-1,1-1l0,0
		c0.55,0,1,0.45,1,1v6"/>
	<g>
		<path fill="#FFFFFF" d="M181,22.625c0,1.1-0.9,2-2,2h-6c-1.1,0-2-0.9-2-2l0,0c0-1.1,0.9-2,2-2h6
			C180.1,20.625,181,21.525,181,22.625L181,22.625z"/>
		<path fill="none" stroke="#000000" stroke-width="2" stroke-linecap="round" stroke-linejoin="round" stroke-miterlimit="10" d="
			M181,22.625c0,1.1-0.9,2-2,2h-6c-1.1,0-2-0.9-2-2l0,0c0-1.1,0.9-2,2-2h6C180.1,20.625,181,21.525,181,22.625L181,22.625z"/>
	</g>
	<g>
		<path fill="#FFFFFF" d="M181,25.625c0,1.1-0.9,2-2,2h-6c-1.1,0-2-0.9-2-2l0,0c0-1.1,0.9-2,2-2h6
			C180.1,23.625,181,24.525,181,25.625L181,25.625z"/>
		<path fill="none" stroke="#000000" stroke-width="2" stroke-linecap="round" stroke-linejoin="round" stroke-miterlimit="10" d="
			M181,25.625c0,1.1-0.9,2-2,2h-6c-1.1,0-2-0.9-2-2l0,0c0-1.1,0.9-2,2-2h6C180.1,23.625,181,24.525,181,25.625L181,25.625z"/>
	</g>
	
		<circle fill="#FFFFFF" stroke="#000000" stroke-width="2" stroke-linecap="round" stroke-linejoin="round" stroke-miterlimit="10" cx="176" cy="13.625" r="8"/>
	<g>
		<path fill="#FFFFFF" d="M173,24.125c-0.827,0-1.5-0.673-1.5-1.5s0.673-1.5,1.5-1.5h6c0.827,0,1.5,0.673,1.5,1.5
			s-0.673,1.5-1.5,1.5H173z"/>
		<path d="M179,21.625c0.551,0,1,0.448,1,1s-0.449,1-1,1h-6c-0.551,0-1-0.448-1-1s0.449-1,1-1H179 M179,20.625h-6c-1.1,0-2,0.9-2,2
			s0.9,2,2,2h6c1.1,0,2-0.9,2-2S180.1,20.625,179,20.625L179,20.625z"/>
	</g>
	<g>
		<path fill="#FFFFFF" d="M173,27.125c-0.827,0-1.5-0.673-1.5-1.5s0.673-1.5,1.5-1.5h6c0.827,0,1.5,0.673,1.5,1.5
			s-0.673,1.5-1.5,1.5H173z"/>
		<path d="M179,24.625c0.551,0,1,0.448,1,1s-0.449,1-1,1h-6c-0.551,0-1-0.448-1-1s0.449-1,1-1H179 M179,23.625h-6c-1.1,0-2,0.9-2,2
			s0.9,2,2,2h6c1.1,0,2-0.9,2-2S180.1,23.625,179,23.625L179,23.625z"/>
	</g>
	<path fill="none" stroke="#000000" stroke-linecap="round" stroke-linejoin="round" stroke-miterlimit="10" d="M177,21.125v-6
		c0-0.55,0.45-1,1-1l0,0c0.55,0,1,0.45,1,1l0,0c0,0.55-0.45,1-1,1h-4c-0.55,0-1-0.45-1-1l0,0c0-0.55,0.45-1,1-1l0,0
		c0.55,0,1,0.45,1,1v6"/>
	<g>
		<path fill="#FFFFFF" d="M213,22.75c0,1.1-0.9,2-2,2h-6c-1.1,0-2-0.9-2-2l0,0c0-1.1,0.9-2,2-2h6C212.1,20.75,213,21.65,213,22.75
			L213,22.75z"/>
		<path fill="none" stroke="#000000" stroke-width="2" stroke-linecap="round" stroke-linejoin="round" stroke-miterlimit="10" d="
			M213,22.75c0,1.1-0.9,2-2,2h-6c-1.1,0-2-0.9-2-2l0,0c0-1.1,0.9-2,2-2h6C212.1,20.75,213,21.65,213,22.75L213,22.75z"/>
	</g>
	<g>
		<path fill="#FFFFFF" d="M213,25.75c0,1.1-0.9,2-2,2h-6c-1.1,0-2-0.9-2-2l0,0c0-1.1,0.9-2,2-2h6C212.1,23.75,213,24.65,213,25.75
			L213,25.75z"/>
		<path fill="none" stroke="#000000" stroke-width="2" stroke-linecap="round" stroke-linejoin="round" stroke-miterlimit="10" d="
			M213,25.75c0,1.1-0.9,2-2,2h-6c-1.1,0-2-0.9-2-2l0,0c0-1.1,0.9-2,2-2h6C212.1,23.75,213,24.65,213,25.75L213,25.75z"/>
	</g>
	
		<circle fill="#FFFFFF" stroke="#000000" stroke-width="2" stroke-linecap="round" stroke-linejoin="round" stroke-miterlimit="10" cx="208" cy="13.75" r="8"/>
	<g>
		<path fill="#FFFFFF" d="M205,24.25c-0.827,0-1.5-0.673-1.5-1.5s0.673-1.5,1.5-1.5h6c0.827,0,1.5,0.673,1.5,1.5s-0.673,1.5-1.5,1.5
			H205z"/>
		<path d="M211,21.75c0.551,0,1,0.448,1,1s-0.449,1-1,1h-6c-0.551,0-1-0.448-1-1s0.449-1,1-1H211 M211,20.75h-6c-1.1,0-2,0.9-2,2
			s0.9,2,2,2h6c1.1,0,2-0.9,2-2S212.1,20.75,211,20.75L211,20.75z"/>
	</g>
	<g>
		<path fill="#FFFFFF" d="M205,27.25c-0.827,0-1.5-0.673-1.5-1.5s0.673-1.5,1.5-1.5h6c0.827,0,1.5,0.673,1.5,1.5s-0.673,1.5-1.5,1.5
			H205z"/>
		<path d="M211,24.75c0.551,0,1,0.448,1,1s-0.449,1-1,1h-6c-0.551,0-1-0.448-1-1s0.449-1,1-1H211 M211,23.75h-6c-1.1,0-2,0.9-2,2
			s0.9,2,2,2h6c1.1,0,2-0.9,2-2S212.1,23.75,211,23.75L211,23.75z"/>
	</g>
	<path fill="none" stroke="#000000" stroke-linecap="round" stroke-linejoin="round" stroke-miterlimit="10" d="M209.5,21.25v-6
		c0-0.55,0.45-1,1-1l0,0c0.55,0,1,0.45,1,1l0,0c0,0.55-0.45,1-1,1h-5c-0.55,0-1-0.45-1-1l0,0c0-0.55,0.45-1,1-1l0,0
		c0.55,0,1,0.45,1,1v6"/>
	<g>
		<path fill="#FFFFFF" d="M245,22.875c0,1.1-0.9,2-2,2h-6c-1.1,0-2-0.9-2-2l0,0c0-1.1,0.9-2,2-2h6
			C244.1,20.875,245,21.775,245,22.875L245,22.875z"/>
		<path fill="none" stroke="#000000" stroke-width="2" stroke-linecap="round" stroke-linejoin="round" stroke-miterlimit="10" d="
			M245,22.875c0,1.1-0.9,2-2,2h-6c-1.1,0-2-0.9-2-2l0,0c0-1.1,0.9-2,2-2h6C244.1,20.875,245,21.775,245,22.875L245,22.875z"/>
	</g>
	<g>
		<path fill="#FFFFFF" d="M245,25.875c0,1.1-0.9,2-2,2h-6c-1.1,0-2-0.9-2-2l0,0c0-1.1,0.9-2,2-2h6
			C244.1,23.875,245,24.775,245,25.875L245,25.875z"/>
		<path fill="none" stroke="#000000" stroke-width="2" stroke-linecap="round" stroke-linejoin="round" stroke-miterlimit="10" d="
			M245,25.875c0,1.1-0.9,2-2,2h-6c-1.1,0-2-0.9-2-2l0,0c0-1.1,0.9-2,2-2h6C244.1,23.875,245,24.775,245,25.875L245,25.875z"/>
	</g>
	
		<circle fill="#FFFFFF" stroke="#000000" stroke-width="2" stroke-linecap="round" stroke-linejoin="round" stroke-miterlimit="10" cx="240" cy="13.875" r="8"/>
	<g>
		<path fill="#FFFFFF" d="M237,24.375c-0.827,0-1.5-0.673-1.5-1.5s0.673-1.5,1.5-1.5h6c0.827,0,1.5,0.673,1.5,1.5
			s-0.673,1.5-1.5,1.5H237z"/>
		<path d="M243,21.875c0.551,0,1,0.448,1,1s-0.449,1-1,1h-6c-0.551,0-1-0.448-1-1s0.449-1,1-1H243 M243,20.875h-6c-1.1,0-2,0.9-2,2
			s0.9,2,2,2h6c1.1,0,2-0.9,2-2S244.1,20.875,243,20.875L243,20.875z"/>
	</g>
	<g>
		<path fill="#FFFFFF" d="M237,27.375c-0.827,0-1.5-0.673-1.5-1.5s0.673-1.5,1.5-1.5h6c0.827,0,1.5,0.673,1.5,1.5
			s-0.673,1.5-1.5,1.5H237z"/>
		<path d="M243,24.875c0.551,0,1,0.448,1,1s-0.449,1-1,1h-6c-0.551,0-1-0.448-1-1s0.449-1,1-1H243 M243,23.875h-6c-1.1,0-2,0.9-2,2
			s0.9,2,2,2h6c1.1,0,2-0.9,2-2S244.1,23.875,243,23.875L243,23.875z"/>
	</g>
	<g>
		<path fill="#FFFFFF" d="M277,23c0,1.1-0.9,2-2,2h-6c-1.1,0-2-0.9-2-2l0,0c0-1.1,0.9-2,2-2h6C276.1,21,277,21.9,277,23L277,23z"/>
		<path fill="none" stroke="#000000" stroke-width="2" stroke-linecap="round" stroke-linejoin="round" stroke-miterlimit="10" d="
			M277,23c0,1.1-0.9,2-2,2h-6c-1.1,0-2-0.9-2-2l0,0c0-1.1,0.9-2,2-2h6C276.1,21,277,21.9,277,23L277,23z"/>
	</g>
	<g>
		<path fill="#FFFFFF" d="M277,26c0,1.1-0.9,2-2,2h-6c-1.1,0-2-0.9-2-2l0,0c0-1.1,0.9-2,2-2h6C276.1,24,277,24.9,277,26L277,26z"/>
		<path fill="none" stroke="#000000" stroke-width="2" stroke-linecap="round" stroke-linejoin="round" stroke-miterlimit="10" d="
			M277,26c0,1.1-0.9,2-2,2h-6c-1.1,0-2-0.9-2-2l0,0c0-1.1,0.9-2,2-2h6C276.1,24,277,24.9,277,26L277,26z"/>
	</g>
	
		<circle fill="#FFFFFF" stroke="#000000" stroke-width="2" stroke-linecap="round" stroke-linejoin="round" stroke-miterlimit="10" cx="272" cy="14" r="8"/>
	<g>
		<path fill="#FFFFFF" d="M269,24.5c-0.827,0-1.5-0.673-1.5-1.5s0.673-1.5,1.5-1.5h6c0.827,0,1.5,0.673,1.5,1.5s-0.673,1.5-1.5,1.5
			H269z"/>
		<path d="M275,22c0.551,0,1,0.448,1,1s-0.449,1-1,1h-6c-0.551,0-1-0.448-1-1s0.449-1,1-1H275 M275,21h-6c-1.1,0-2,0.9-2,2
			s0.9,2,2,2h6c1.1,0,2-0.9,2-2S276.1,21,275,21L275,21z"/>
	</g>
	<g>
		<path fill="#FFFFFF" d="M269,27.5c-0.827,0-1.5-0.673-1.5-1.5s0.673-1.5,1.5-1.5h6c0.827,0,1.5,0.673,1.5,1.5s-0.673,1.5-1.5,1.5
			H269z"/>
		<path d="M275,25c0.551,0,1,0.448,1,1s-0.449,1-1,1h-6c-0.551,0-1-0.448-1-1s0.449-1,1-1H275 M275,24h-6c-1.1,0-2,0.9-2,2
			s0.9,2,2,2h6c1.1,0,2-0.9,2-2S276.1,24,275,24L275,24z"/>
	</g>
	<g>
		<path fill="#FFFFFF" d="M309,23.125c0,1.1-0.9,2-2,2h-6c-1.1,0-2-0.9-2-2l0,0c0-1.1,0.9-2,2-2h6
			C308.1,21.125,309,22.025,309,23.125L309,23.125z"/>
		<path fill="none" stroke="#000000" stroke-width="2" stroke-linecap="round" stroke-linejoin="round" stroke-miterlimit="10" d="
			M309,23.125c0,1.1-0.9,2-2,2h-6c-1.1,0-2-0.9-2-2l0,0c0-1.1,0.9-2,2-2h6C308.1,21.125,309,22.025,309,23.125L309,23.125z"/>
	</g>
	<g>
		<path fill="#FFFFFF" d="M309,26.125c0,1.1-0.9,2-2,2h-6c-1.1,0-2-0.9-2-2l0,0c0-1.1,0.9-2,2-2h6
			C308.1,24.125,309,25.025,309,26.125L309,26.125z"/>
		<path fill="none" stroke="#000000" stroke-width="2" stroke-linecap="round" stroke-linejoin="round" stroke-miterlimit="10" d="
			M309,26.125c0,1.1-0.9,2-2,2h-6c-1.1,0-2-0.9-2-2l0,0c0-1.1,0.9-2,2-2h6C308.1,24.125,309,25.025,309,26.125L309,26.125z"/>
	</g>
	
		<circle fill="#FFFFFF" stroke="#000000" stroke-width="2" stroke-linecap="round" stroke-linejoin="round" stroke-miterlimit="10" cx="304" cy="14.125" r="8"/>
	<g>
		<path fill="#FFFFFF" d="M301,24.625c-0.827,0-1.5-0.673-1.5-1.5s0.673-1.5,1.5-1.5h6c0.827,0,1.5,0.673,1.5,1.5
			s-0.673,1.5-1.5,1.5H301z"/>
		<path d="M307,22.125c0.552,0,1,0.448,1,1s-0.448,1-1,1h-6c-0.552,0-1-0.448-1-1s0.448-1,1-1H307 M307,21.125h-6c-1.1,0-2,0.9-2,2
			s0.9,2,2,2h6c1.1,0,2-0.9,2-2S308.1,21.125,307,21.125L307,21.125z"/>
	</g>
	<g>
		<path fill="#FFFFFF" d="M301,27.625c-0.827,0-1.5-0.673-1.5-1.5s0.673-1.5,1.5-1.5h6c0.827,0,1.5,0.673,1.5,1.5
			s-0.673,1.5-1.5,1.5H301z"/>
		<path d="M307,25.125c0.552,0,1,0.448,1,1s-0.448,1-1,1h-6c-0.552,0-1-0.448-1-1s0.448-1,1-1H307 M307,24.125h-6c-1.1,0-2,0.9-2,2
			s0.9,2,2,2h6c1.1,0,2-0.9,2-2S308.1,24.125,307,24.125L307,24.125z"/>
	</g>
	<g>
		<path fill="#FFFFFF" d="M341,23.25c0,1.1-0.9,2-2,2h-6c-1.1,0-2-0.9-2-2l0,0c0-1.1,0.9-2,2-2h6C340.1,21.25,341,22.15,341,23.25
			L341,23.25z"/>
		<path fill="none" stroke="#000000" stroke-width="2" stroke-linecap="round" stroke-linejoin="round" stroke-miterlimit="10" d="
			M341,23.25c0,1.1-0.9,2-2,2h-6c-1.1,0-2-0.9-2-2l0,0c0-1.1,0.9-2,2-2h6C340.1,21.25,341,22.15,341,23.25L341,23.25z"/>
	</g>
	<g>
		<path fill="#FFFFFF" d="M341,26.25c0,1.1-0.9,2-2,2h-6c-1.1,0-2-0.9-2-2l0,0c0-1.1,0.9-2,2-2h6C340.1,24.25,341,25.15,341,26.25
			L341,26.25z"/>
		<path fill="none" stroke="#000000" stroke-width="2" stroke-linecap="round" stroke-linejoin="round" stroke-miterlimit="10" d="
			M341,26.25c0,1.1-0.9,2-2,2h-6c-1.1,0-2-0.9-2-2l0,0c0-1.1,0.9-2,2-2h6C340.1,24.25,341,25.15,341,26.25L341,26.25z"/>
	</g>
	
		<circle fill="#FFFFFF" stroke="#000000" stroke-width="2" stroke-linecap="round" stroke-linejoin="round" stroke-miterlimit="10" cx="336" cy="14.25" r="8"/>
	<g>
		<path fill="#FFFFFF" d="M333,24.75c-0.827,0-1.5-0.673-1.5-1.5s0.673-1.5,1.5-1.5h6c0.827,0,1.5,0.673,1.5,1.5s-0.673,1.5-1.5,1.5
			H333z"/>
		<path d="M339,22.25c0.552,0,1,0.448,1,1s-0.448,1-1,1h-6c-0.552,0-1-0.448-1-1s0.448-1,1-1H339 M339,21.25h-6c-1.1,0-2,0.9-2,2
			s0.9,2,2,2h6c1.1,0,2-0.9,2-2S340.1,21.25,339,21.25L339,21.25z"/>
	</g>
	<g>
		<path fill="#FFFFFF" d="M333,27.75c-0.827,0-1.5-0.673-1.5-1.5s0.673-1.5,1.5-1.5h6c0.827,0,1.5,0.673,1.5,1.5s-0.673,1.5-1.5,1.5
			H333z"/>
		<path d="M339,25.25c0.552,0,1,0.448,1,1s-0.448,1-1,1h-6c-0.552,0-1-0.448-1-1s0.448-1,1-1H339 M339,24.25h-6c-1.1,0-2,0.9-2,2
			s0.9,2,2,2h6c1.1,0,2-0.9,2-2S340.1,24.25,339,24.25L339,24.25z"/>
	</g>
	<g>
		<path fill="#FFFFFF" d="M373,23.375c0,1.1-0.9,2-2,2h-6c-1.1,0-2-0.9-2-2l0,0c0-1.1,0.9-2,2-2h6
			C372.1,21.375,373,22.275,373,23.375L373,23.375z"/>
		<path fill="none" stroke="#000000" stroke-width="2" stroke-linecap="round" stroke-linejoin="round" stroke-miterlimit="10" d="
			M373,23.375c0,1.1-0.9,2-2,2h-6c-1.1,0-2-0.9-2-2l0,0c0-1.1,0.9-2,2-2h6C372.1,21.375,373,22.275,373,23.375L373,23.375z"/>
	</g>
	<g>
		<path fill="#FFFFFF" d="M373,26.375c0,1.1-0.9,2-2,2h-6c-1.1,0-2-0.9-2-2l0,0c0-1.1,0.9-2,2-2h6
			C372.1,24.375,373,25.275,373,26.375L373,26.375z"/>
		<path fill="none" stroke="#000000" stroke-width="2" stroke-linecap="round" stroke-linejoin="round" stroke-miterlimit="10" d="
			M373,26.375c0,1.1-0.9,2-2,2h-6c-1.1,0-2-0.9-2-2l0,0c0-1.1,0.9-2,2-2h6C372.1,24.375,373,25.275,373,26.375L373,26.375z"/>
	</g>
	
		<circle fill="#FFFFFF" stroke="#000000" stroke-width="2" stroke-linecap="round" stroke-linejoin="round" stroke-miterlimit="10" cx="368" cy="14.375" r="8"/>
	<g>
		<path fill="#FFFFFF" d="M365,24.875c-0.827,0-1.5-0.673-1.5-1.5s0.673-1.5,1.5-1.5h6c0.827,0,1.5,0.673,1.5,1.5
			s-0.673,1.5-1.5,1.5H365z"/>
		<path d="M371,22.375c0.552,0,1,0.448,1,1s-0.448,1-1,1h-6c-0.552,0-1-0.448-1-1s0.448-1,1-1H371 M371,21.375h-6c-1.1,0-2,0.9-2,2
			s0.9,2,2,2h6c1.1,0,2-0.9,2-2S372.1,21.375,371,21.375L371,21.375z"/>
	</g>
	<g>
		<path fill="#FFFFFF" d="M365,27.875c-0.827,0-1.5-0.673-1.5-1.5s0.673-1.5,1.5-1.5h6c0.827,0,1.5,0.673,1.5,1.5
			s-0.673,1.5-1.5,1.5H365z"/>
		<path d="M371,25.375c0.552,0,1,0.448,1,1s-0.448,1-1,1h-6c-0.552,0-1-0.448-1-1s0.448-1,1-1H371 M371,24.375h-6c-1.1,0-2,0.9-2,2
			s0.9,2,2,2h6c1.1,0,2-0.9,2-2S372.1,24.375,371,24.375L371,24.375z"/>
	</g>
	<g>
		<path fill="#FFFFFF" d="M405,23.5c0,1.1-0.9,2-2,2h-6c-1.1,0-2-0.9-2-2l0,0c0-1.1,0.9-2,2-2h6C404.1,21.5,405,22.4,405,23.5
			L405,23.5z"/>
		<path fill="none" stroke="#000000" stroke-width="2" stroke-linecap="round" stroke-linejoin="round" stroke-miterlimit="10" d="
			M405,23.5c0,1.1-0.9,2-2,2h-6c-1.1,0-2-0.9-2-2l0,0c0-1.1,0.9-2,2-2h6C404.1,21.5,405,22.4,405,23.5L405,23.5z"/>
	</g>
	<g>
		<path fill="#FFFFFF" d="M405,26.5c0,1.1-0.9,2-2,2h-6c-1.1,0-2-0.9-2-2l0,0c0-1.1,0.9-2,2-2h6C404.1,24.5,405,25.4,405,26.5
			L405,26.5z"/>
		<path fill="none" stroke="#000000" stroke-width="2" stroke-linecap="round" stroke-linejoin="round" stroke-miterlimit="10" d="
			M405,26.5c0,1.1-0.9,2-2,2h-6c-1.1,0-2-0.9-2-2l0,0c0-1.1,0.9-2,2-2h6C404.1,24.5,405,25.4,405,26.5L405,26.5z"/>
	</g>
	
		<circle fill="#FFFFFF" stroke="#000000" stroke-width="2" stroke-linecap="round" stroke-linejoin="round" stroke-miterlimit="10" cx="400" cy="14.5" r="8"/>
	<g>
		<path fill="#FFFFFF" d="M397,25c-0.827,0-1.5-0.673-1.5-1.5s0.673-1.5,1.5-1.5h6c0.827,0,1.5,0.673,1.5,1.5S403.827,25,403,25H397
			z"/>
		<path d="M403,22.5c0.552,0,1,0.448,1,1s-0.448,1-1,1h-6c-0.552,0-1-0.448-1-1s0.448-1,1-1H403 M403,21.5h-6c-1.1,0-2,0.9-2,2
			s0.9,2,2,2h6c1.1,0,2-0.9,2-2S404.1,21.5,403,21.5L403,21.5z"/>
	</g>
	<g>
		<path fill="#FFFFFF" d="M397,28c-0.827,0-1.5-0.673-1.5-1.5s0.673-1.5,1.5-1.5h6c0.827,0,1.5,0.673,1.5,1.5S403.827,28,403,28H397
			z"/>
		<path d="M403,25.5c0.552,0,1,0.448,1,1s-0.448,1-1,1h-6c-0.552,0-1-0.448-1-1s0.448-1,1-1H403 M403,24.5h-6c-1.1,0-2,0.9-2,2
			s0.9,2,2,2h6c1.1,0,2-0.9,2-2S404.1,24.5,403,24.5L403,24.5z"/>
	</g>
	<g>
		<path fill="#FFFFFF" d="M437,23.625c0,1.1-0.9,2-2,2h-6c-1.1,0-2-0.9-2-2l0,0c0-1.1,0.9-2,2-2h6
			C436.1,21.625,437,22.525,437,23.625L437,23.625z"/>
		<path fill="none" stroke="#000000" stroke-width="2" stroke-linecap="round" stroke-linejoin="round" stroke-miterlimit="10" d="
			M437,23.625c0,1.1-0.9,2-2,2h-6c-1.1,0-2-0.9-2-2l0,0c0-1.1,0.9-2,2-2h6C436.1,21.625,437,22.525,437,23.625L437,23.625z"/>
	</g>
	<g>
		<path fill="#FFFFFF" d="M437,26.625c0,1.1-0.9,2-2,2h-6c-1.1,0-2-0.9-2-2l0,0c0-1.1,0.9-2,2-2h6
			C436.1,24.625,437,25.525,437,26.625L437,26.625z"/>
		<path fill="none" stroke="#000000" stroke-width="2" stroke-linecap="round" stroke-linejoin="round" stroke-miterlimit="10" d="
			M437,26.625c0,1.1-0.9,2-2,2h-6c-1.1,0-2-0.9-2-2l0,0c0-1.1,0.9-2,2-2h6C436.1,24.625,437,25.525,437,26.625L437,26.625z"/>
	</g>
	
		<circle fill="#FFFFFF" stroke="#000000" stroke-width="2" stroke-linecap="round" stroke-linejoin="round" stroke-miterlimit="10" cx="432" cy="14.625" r="8"/>
	<g>
		<path fill="#FFFFFF" d="M429,25.125c-0.827,0-1.5-0.673-1.5-1.5s0.673-1.5,1.5-1.5h6c0.827,0,1.5,0.673,1.5,1.5
			s-0.673,1.5-1.5,1.5H429z"/>
		<path d="M435,22.625c0.552,0,1,0.448,1,1s-0.448,1-1,1h-6c-0.552,0-1-0.448-1-1s0.448-1,1-1H435 M435,21.625h-6c-1.1,0-2,0.9-2,2
			s0.9,2,2,2h6c1.1,0,2-0.9,2-2S436.1,21.625,435,21.625L435,21.625z"/>
	</g>
	<g>
		<path fill="#FFFFFF" d="M429,28.125c-0.827,0-1.5-0.673-1.5-1.5s0.673-1.5,1.5-1.5h6c0.827,0,1.5,0.673,1.5,1.5
			s-0.673,1.5-1.5,1.5H429z"/>
		<path d="M435,25.625c0.552,0,1,0.448,1,1s-0.448,1-1,1h-6c-0.552,0-1-0.448-1-1s0.448-1,1-1H435 M435,24.625h-6c-1.1,0-2,0.9-2,2
			s0.9,2,2,2h6c1.1,0,2-0.9,2-2S436.1,24.625,435,24.625L435,24.625z"/>
	</g>
	<g>
		<path fill="#FFFFFF" d="M469,23.75c0,1.1-0.9,2-2,2h-6c-1.1,0-2-0.9-2-2l0,0c0-1.1,0.9-2,2-2h6C468.1,21.75,469,22.65,469,23.75
			L469,23.75z"/>
		<path fill="none" stroke="#000000" stroke-width="2" stroke-linecap="round" stroke-linejoin="round" stroke-miterlimit="10" d="
			M469,23.75c0,1.1-0.9,2-2,2h-6c-1.1,0-2-0.9-2-2l0,0c0-1.1,0.9-2,2-2h6C468.1,21.75,469,22.65,469,23.75L469,23.75z"/>
	</g>
	<g>
		<path fill="#FFFFFF" d="M469,26.75c0,1.1-0.9,2-2,2h-6c-1.1,0-2-0.9-2-2l0,0c0-1.1,0.9-2,2-2h6C468.1,24.75,469,25.65,469,26.75
			L469,26.75z"/>
		<path fill="none" stroke="#000000" stroke-width="2" stroke-linecap="round" stroke-linejoin="round" stroke-miterlimit="10" d="
			M469,26.75c0,1.1-0.9,2-2,2h-6c-1.1,0-2-0.9-2-2l0,0c0-1.1,0.9-2,2-2h6C468.1,24.75,469,25.65,469,26.75L469,26.75z"/>
	</g>
	
		<circle fill="#FFFFFF" stroke="#000000" stroke-width="2" stroke-linecap="round" stroke-linejoin="round" stroke-miterlimit="10" cx="464" cy="14.75" r="8"/>
	<g>
		<path fill="#FFFFFF" d="M461,25.25c-0.827,0-1.5-0.673-1.5-1.5s0.673-1.5,1.5-1.5h6c0.827,0,1.5,0.673,1.5,1.5s-0.673,1.5-1.5,1.5
			H461z"/>
		<path d="M467,22.75c0.552,0,1,0.448,1,1s-0.448,1-1,1h-6c-0.552,0-1-0.448-1-1s0.448-1,1-1H467 M467,21.75h-6c-1.1,0-2,0.9-2,2
			s0.9,2,2,2h6c1.1,0,2-0.9,2-2S468.1,21.75,467,21.75L467,21.75z"/>
	</g>
	<g>
		<path fill="#FFFFFF" d="M461,28.25c-0.827,0-1.5-0.673-1.5-1.5s0.673-1.5,1.5-1.5h6c0.827,0,1.5,0.673,1.5,1.5s-0.673,1.5-1.5,1.5
			H461z"/>
		<path d="M467,25.75c0.552,0,1,0.448,1,1s-0.448,1-1,1h-6c-0.552,0-1-0.448-1-1s0.448-1,1-1H467 M467,24.75h-6c-1.1,0-2,0.9-2,2
			s0.9,2,2,2h6c1.1,0,2-0.9,2-2S468.1,24.75,467,24.75L467,24.75z"/>
	</g>
	<g>
		<path fill="#FFFFFF" d="M501,24c0,1.1-0.9,2-2,2h-6c-1.1,0-2-0.9-2-2l0,0c0-1.1,0.9-2,2-2h6C500.1,22,501,22.9,501,24L501,24z"/>
		<path fill="none" stroke="#000000" stroke-width="2" stroke-linecap="round" stroke-linejoin="round" stroke-miterlimit="10" d="
			M501,24c0,1.1-0.9,2-2,2h-6c-1.1,0-2-0.9-2-2l0,0c0-1.1,0.9-2,2-2h6C500.1,22,501,22.9,501,24L501,24z"/>
	</g>
	<g>
		<path fill="#FFFFFF" d="M501,27c0,1.1-0.9,2-2,2h-6c-1.1,0-2-0.9-2-2l0,0c0-1.1,0.9-2,2-2h6C500.1,25,501,25.9,501,27L501,27z"/>
		<path fill="none" stroke="#000000" stroke-width="2" stroke-linecap="round" stroke-linejoin="round" stroke-miterlimit="10" d="
			M501,27c0,1.1-0.9,2-2,2h-6c-1.1,0-2-0.9-2-2l0,0c0-1.1,0.9-2,2-2h6C500.1,25,501,25.9,501,27L501,27z"/>
	</g>
	
		<circle fill="#FFFFFF" stroke="#000000" stroke-width="2" stroke-linecap="round" stroke-linejoin="round" stroke-miterlimit="10" cx="496" cy="15" r="8"/>
	<g>
		<path fill="#FFFFFF" d="M493,25.5c-0.827,0-1.5-0.673-1.5-1.5s0.673-1.5,1.5-1.5h6c0.827,0,1.5,0.673,1.5,1.5s-0.673,1.5-1.5,1.5
			H493z"/>
		<path d="M499,23c0.552,0,1,0.448,1,1s-0.448,1-1,1h-6c-0.552,0-1-0.448-1-1s0.448-1,1-1H499 M499,22h-6c-1.1,0-2,0.9-2,2
			s0.9,2,2,2h6c1.1,0,2-0.9,2-2S500.1,22,499,22L499,22z"/>
	</g>
	<g>
		<path fill="#FFFFFF" d="M493,28.5c-0.827,0-1.5-0.673-1.5-1.5s0.673-1.5,1.5-1.5h6c0.827,0,1.5,0.673,1.5,1.5s-0.673,1.5-1.5,1.5
			H493z"/>
		<path d="M499,26c0.552,0,1,0.448,1,1s-0.448,1-1,1h-6c-0.552,0-1-0.448-1-1s0.448-1,1-1H499 M499,25h-6c-1.1,0-2,0.9-2,2
			s0.9,2,2,2h6c1.1,0,2-0.9,2-2S500.1,25,499,25L499,25z"/>
	</g>
	<g>
		<circle cx="496" cy="3" r="1"/>
		<circle cx="491.896" cy="3.723" r="1"/>
		<circle cx="488.285" cy="5.807" r="1"/>
		<circle cx="485.606" cy="9" r="0.999"/>
		<circle cx="484.18" cy="12.916" r="1"/>
		<circle cx="484.18" cy="17.084" r="1"/>
		<circle cx="485.604" cy="21" r="1"/>
		<circle cx="488.283" cy="24.193" r="1"/>
		<path d="M502.946,24.84c-0.355-0.424-0.302-1.055,0.122-1.41c0.426-0.354,1.055-0.301,1.408,0.125
			c0.354,0.424,0.302,1.053-0.122,1.405C503.934,25.316,503.302,25.264,502.946,24.84z"/>
		<path d="M505.893,21.871c-0.479-0.277-0.644-0.889-0.367-1.367c0.278-0.479,0.889-0.645,1.366-0.365
			c0.479,0.277,0.644,0.887,0.365,1.363C506.983,21.98,506.371,22.146,505.893,21.871z"/>
		<path d="M507.646,18.072c-0.546-0.096-0.908-0.614-0.813-1.158c0.099-0.545,0.614-0.908,1.159-0.812
			c0.545,0.097,0.907,0.613,0.81,1.157C508.708,17.805,508.189,18.168,507.646,18.072z"/>
		<path d="M507.993,13.902c-0.545,0.098-1.063-0.267-1.16-0.81c-0.094-0.546,0.267-1.063,0.812-1.159
			c0.546-0.096,1.062,0.267,1.156,0.812C508.9,13.288,508.537,13.809,507.993,13.902z"/>
		<path d="M506.894,9.867c-0.479,0.277-1.09,0.113-1.365-0.364c-0.274-0.479-0.113-1.09,0.365-1.366
			c0.479-0.277,1.09-0.113,1.363,0.365C507.536,8.979,507.372,9.591,506.894,9.867z"/>
		<path d="M504.48,6.451c-0.354,0.424-0.985,0.479-1.408,0.125c-0.422-0.358-0.479-0.986-0.123-1.409
			c0.354-0.425,0.982-0.479,1.405-0.124C504.78,5.396,504.836,6.027,504.48,6.451z"/>
		<path d="M501.045,4.066c-0.188,0.519-0.763,0.785-1.28,0.599c-0.52-0.192-0.789-0.763-0.598-1.282
			c0.188-0.521,0.76-0.787,1.277-0.597C500.966,2.973,501.233,3.546,501.045,4.066z"/>
	</g>
	<g>
		<circle cx="464" cy="2.75" r="1"/>
		<circle cx="459.896" cy="3.473" r="1"/>
		<circle cx="456.285" cy="5.557" r="1"/>
		<circle cx="453.606" cy="8.75" r="0.999"/>
		<circle cx="452.18" cy="12.666" r="1"/>
		<circle cx="452.18" cy="16.834" r="1"/>
		<circle cx="453.604" cy="20.75" r="1"/>
		<circle cx="456.283" cy="23.943" r="1"/>
		<path d="M473.893,21.621c-0.479-0.277-0.644-0.889-0.367-1.367c0.278-0.479,0.889-0.645,1.366-0.365
			c0.479,0.277,0.644,0.887,0.365,1.363C474.983,21.73,474.371,21.896,473.893,21.621z"/>
		<path d="M475.646,17.822c-0.546-0.096-0.908-0.614-0.813-1.158c0.099-0.545,0.614-0.908,1.159-0.812
			c0.545,0.097,0.907,0.613,0.81,1.157C476.708,17.555,476.189,17.918,475.646,17.822z"/>
		<path d="M475.993,13.652c-0.545,0.098-1.063-0.267-1.16-0.81c-0.094-0.546,0.267-1.063,0.812-1.159
			c0.546-0.096,1.062,0.267,1.156,0.812C476.9,13.038,476.537,13.559,475.993,13.652z"/>
		<path d="M474.894,9.617c-0.479,0.277-1.09,0.113-1.365-0.364c-0.274-0.479-0.113-1.09,0.365-1.366
			c0.479-0.277,1.09-0.113,1.363,0.365C475.536,8.729,475.372,9.341,474.894,9.617z"/>
		<path d="M472.48,6.201c-0.354,0.424-0.985,0.479-1.408,0.125c-0.422-0.358-0.479-0.986-0.123-1.409
			c0.354-0.425,0.982-0.479,1.405-0.124C472.78,5.146,472.836,5.777,472.48,6.201z"/>
		<path d="M469.045,3.816c-0.188,0.519-0.763,0.785-1.28,0.599c-0.52-0.192-0.789-0.763-0.598-1.282
			c0.188-0.521,0.76-0.787,1.277-0.597C468.966,2.723,469.233,3.296,469.045,3.816z"/>
	</g>
	<g>
		<circle cx="432" cy="2.625" r="1"/>
		<circle cx="427.896" cy="3.348" r="1"/>
		<circle cx="424.285" cy="5.432" r="1"/>
		<circle cx="421.606" cy="8.625" r="0.999"/>
		<circle cx="420.18" cy="12.541" r="1"/>
		<circle cx="420.18" cy="16.709" r="1"/>
		<circle cx="421.604" cy="20.625" r="1"/>
		<circle cx="424.283" cy="23.818" r="1"/>
		<path d="M443.646,17.697c-0.546-0.096-0.908-0.614-0.813-1.158c0.099-0.545,0.614-0.908,1.159-0.812
			c0.545,0.097,0.907,0.613,0.81,1.157C444.708,17.43,444.189,17.793,443.646,17.697z"/>
		<path d="M443.993,13.527c-0.545,0.098-1.063-0.267-1.16-0.81c-0.094-0.546,0.267-1.063,0.812-1.159
			c0.546-0.096,1.062,0.267,1.156,0.812C444.9,12.913,444.537,13.434,443.993,13.527z"/>
		<path d="M442.894,9.492c-0.479,0.277-1.09,0.113-1.365-0.364c-0.274-0.479-0.113-1.09,0.365-1.366
			c0.479-0.277,1.09-0.113,1.363,0.365C443.536,8.604,443.372,9.216,442.894,9.492z"/>
		<path d="M440.48,6.076c-0.354,0.424-0.985,0.479-1.408,0.125c-0.422-0.358-0.479-0.986-0.123-1.409
			c0.354-0.425,0.982-0.479,1.405-0.124C440.78,5.021,440.836,5.652,440.48,6.076z"/>
		<path d="M437.045,3.691c-0.188,0.519-0.763,0.785-1.28,0.599c-0.52-0.192-0.789-0.763-0.598-1.282
			c0.188-0.521,0.76-0.787,1.277-0.597C436.966,2.598,437.233,3.171,437.045,3.691z"/>
	</g>
	<g>
		<circle cx="400" cy="2.5" r="1"/>
		<circle cx="395.896" cy="3.223" r="1"/>
		<circle cx="392.285" cy="5.307" r="1"/>
		<circle cx="389.606" cy="8.5" r="0.999"/>
		<circle cx="388.18" cy="12.416" r="1"/>
		<circle cx="388.18" cy="16.584" r="1"/>
		<circle cx="389.604" cy="20.5" r="1"/>
		<circle cx="392.283" cy="23.693" r="1"/>
		<path d="M411.993,13.402c-0.545,0.098-1.063-0.267-1.16-0.81c-0.094-0.546,0.267-1.063,0.812-1.159
			c0.546-0.096,1.062,0.267,1.156,0.812C412.9,12.788,412.537,13.309,411.993,13.402z"/>
		<path d="M410.894,9.367c-0.479,0.277-1.09,0.113-1.365-0.364c-0.274-0.479-0.113-1.09,0.365-1.366
			c0.479-0.277,1.09-0.113,1.363,0.365C411.536,8.479,411.372,9.091,410.894,9.367z"/>
		<path d="M408.48,5.951c-0.354,0.424-0.985,0.479-1.408,0.125c-0.422-0.358-0.479-0.986-0.123-1.409
			c0.354-0.425,0.982-0.479,1.405-0.124C408.78,4.896,408.836,5.527,408.48,5.951z"/>
		<path d="M405.045,3.566c-0.188,0.519-0.763,0.785-1.28,0.599c-0.52-0.192-0.789-0.763-0.598-1.282
			c0.188-0.521,0.76-0.787,1.277-0.597C404.966,2.473,405.233,3.046,405.045,3.566z"/>
	</g>
	<g>
		<circle cx="368" cy="2.375" r="1"/>
		<circle cx="363.896" cy="3.098" r="1"/>
		<circle cx="360.285" cy="5.182" r="1"/>
		<circle cx="357.606" cy="8.375" r="0.999"/>
		<circle cx="356.18" cy="12.291" r="1"/>
		<circle cx="356.18" cy="16.459" r="1"/>
		<circle cx="357.604" cy="20.375" r="1"/>
		<circle cx="360.283" cy="23.568" r="1"/>
		<path d="M378.894,9.242c-0.479,0.277-1.09,0.113-1.365-0.364c-0.274-0.479-0.113-1.09,0.365-1.366
			c0.479-0.277,1.09-0.113,1.363,0.365C379.536,8.354,379.372,8.966,378.894,9.242z"/>
		<path d="M376.48,5.826c-0.354,0.424-0.985,0.479-1.408,0.125c-0.422-0.358-0.479-0.986-0.123-1.409
			c0.354-0.425,0.982-0.479,1.405-0.124C376.78,4.771,376.836,5.402,376.48,5.826z"/>
		<path d="M373.045,3.441c-0.188,0.519-0.763,0.785-1.28,0.599c-0.52-0.192-0.789-0.763-0.598-1.282
			c0.188-0.521,0.76-0.787,1.277-0.597C372.966,2.348,373.233,2.921,373.045,3.441z"/>
	</g>
	<g>
		<circle cx="336" cy="2.25" r="1"/>
		<circle cx="331.896" cy="2.973" r="1"/>
		<circle cx="328.285" cy="5.057" r="1"/>
		<circle cx="325.606" cy="8.25" r="0.999"/>
		<circle cx="324.18" cy="12.166" r="1"/>
		<circle cx="324.18" cy="16.334" r="1"/>
		<circle cx="325.604" cy="20.25" r="1"/>
		<circle cx="328.283" cy="23.443" r="1"/>
		<path d="M344.48,5.701c-0.354,0.424-0.985,0.479-1.408,0.125c-0.422-0.358-0.479-0.986-0.123-1.409
			c0.354-0.425,0.982-0.479,1.405-0.124C344.78,4.646,344.836,5.277,344.48,5.701z"/>
		<path d="M341.045,3.316c-0.188,0.519-0.763,0.785-1.28,0.599c-0.52-0.192-0.789-0.763-0.598-1.282
			c0.188-0.521,0.76-0.787,1.277-0.597C340.966,2.223,341.233,2.796,341.045,3.316z"/>
	</g>
	<g>
		<circle cx="304" cy="2.125" r="1"/>
		<circle cx="299.896" cy="2.848" r="1"/>
		<circle cx="296.285" cy="4.932" r="1"/>
		<circle cx="293.605" cy="8.125" r="0.999"/>
		<circle cx="292.18" cy="12.041" r="1"/>
		<circle cx="292.18" cy="16.209" r="1"/>
		<circle cx="293.604" cy="20.125" r="1"/>
		<circle cx="296.283" cy="23.318" r="1"/>
		<path d="M309.045,3.191c-0.188,0.519-0.763,0.785-1.28,0.599c-0.52-0.192-0.789-0.763-0.598-1.282
			c0.188-0.521,0.76-0.787,1.277-0.597C308.966,2.098,309.233,2.671,309.045,3.191z"/>
	</g>
	<g>
		<circle cx="272" cy="2" r="1"/>
		<circle cx="267.896" cy="2.723" r="1"/>
		<circle cx="264.285" cy="4.807" r="1"/>
		<circle cx="261.605" cy="8" r="0.999"/>
		<circle cx="260.18" cy="11.916" r="1"/>
		<circle cx="260.18" cy="16.084" r="1"/>
		<circle cx="261.604" cy="20" r="1"/>
		<circle cx="264.283" cy="23.193" r="1"/>
	</g>
	<g>
		<circle cx="235.896" cy="2.598" r="1"/>
		<circle cx="232.285" cy="4.682" r="1"/>
		<circle cx="229.606" cy="7.875" r="0.999"/>
		<circle cx="228.18" cy="11.791" r="1"/>
		<circle cx="228.18" cy="15.959" r="1"/>
		<circle cx="229.604" cy="19.875" r="1"/>
		<circle cx="232.283" cy="23.068" r="1"/>
	</g>
	<g>
		<circle cx="200.285" cy="4.557" r="1"/>
		<circle cx="197.606" cy="7.75" r="0.999"/>
		<circle cx="196.18" cy="11.666" r="1"/>
		<circle cx="196.18" cy="15.834" r="1"/>
		<circle cx="197.604" cy="19.75" r="1"/>
		<circle cx="200.283" cy="22.943" r="1"/>
	</g>
	<g>
		<circle cx="165.606" cy="7.625" r="0.999"/>
		<circle cx="164.18" cy="11.541" r="1"/>
		<circle cx="164.18" cy="15.709" r="1"/>
		<circle cx="165.604" cy="19.625" r="1"/>
		<circle cx="168.283" cy="22.818" r="1"/>
	</g>
	<g>
		<circle cx="132.18" cy="11.416" r="1"/>
		<circle cx="132.18" cy="15.584" r="1"/>
		<circle cx="133.604" cy="19.5" r="1"/>
		<circle cx="136.283" cy="22.693" r="1"/>
	</g>
	<g>
		<circle cx="100.18" cy="15.459" r="1"/>
		<circle cx="101.604" cy="19.375" r="1"/>
		<circle cx="104.283" cy="22.568" r="1"/>
	</g>
	<g>
		<circle cx="69.604" cy="19.25" r="1"/>
		<circle cx="72.283" cy="22.443" r="1"/>
	</g>
	<g>
		<circle cx="40.283" cy="22.318" r="1"/>
	</g>
	<path d="M18,27h-4c-0.55,0-1,0.45-1,1s0.45,1,1,1h4c0.55,0,1-0.45,1-1S18.55,27,18,27L18,27z"/>
	<path d="M50,27.125h-4c-0.55,0-1,0.45-1,1s0.45,1,1,1h4c0.55,0,1-0.45,1-1S50.55,27.125,50,27.125L50,27.125z"/>
	<path d="M82,27.25h-4c-0.55,0-1,0.45-1,1s0.45,1,1,1h4c0.55,0,1-0.45,1-1S82.55,27.25,82,27.25L82,27.25z"/>
	<path d="M114,27.375h-4c-0.55,0-1,0.45-1,1s0.45,1,1,1h4c0.55,0,1-0.45,1-1S114.55,27.375,114,27.375L114,27.375z"/>
	<path d="M146,27.5h-4c-0.55,0-1,0.45-1,1s0.45,1,1,1h4c0.55,0,1-0.45,1-1S146.55,27.5,146,27.5L146,27.5z"/>
	<path d="M178,27.625h-4c-0.55,0-1,0.45-1,1s0.45,1,1,1h4c0.55,0,1-0.45,1-1S178.55,27.625,178,27.625L178,27.625z"/>
	<path d="M210,27.75h-4c-0.55,0-1,0.45-1,1s0.45,1,1,1h4c0.55,0,1-0.45,1-1S210.55,27.75,210,27.75L210,27.75z"/>
	<path d="M242,27.875h-4c-0.55,0-1,0.45-1,1s0.45,1,1,1h4c0.55,0,1-0.45,1-1S242.55,27.875,242,27.875L242,27.875z"/>
	<path d="M274,28h-4c-0.55,0-1,0.45-1,1s0.45,1,1,1h4c0.55,0,1-0.45,1-1S274.55,28,274,28L274,28z"/>
	<path d="M306,28.125h-4c-0.55,0-1,0.45-1,1s0.45,1,1,1h4c0.55,0,1-0.45,1-1S306.55,28.125,306,28.125L306,28.125z"/>
	<path d="M338,28.25h-4c-0.55,0-1,0.45-1,1s0.45,1,1,1h4c0.55,0,1-0.45,1-1S338.55,28.25,338,28.25L338,28.25z"/>
	<path d="M370,28.375h-4c-0.55,0-1,0.45-1,1s0.45,1,1,1h4c0.55,0,1-0.45,1-1S370.55,28.375,370,28.375L370,28.375z"/>
	<path d="M402,28.5h-4c-0.55,0-1,0.45-1,1s0.45,1,1,1h4c0.55,0,1-0.45,1-1S402.55,28.5,402,28.5L402,28.5z"/>
	<path d="M434,28.625h-4c-0.55,0-1,0.45-1,1s0.45,1,1,1h4c0.55,0,1-0.45,1-1S434.55,28.625,434,28.625L434,28.625z"/>
	<path d="M466,28.75h-4c-0.55,0-1,0.45-1,1s0.45,1,1,1h4c0.55,0,1-0.45,1-1S466.55,28.75,466,28.75L466,28.75z"/>
	<path d="M498,29h-4c-0.55,0-1,0.45-1,1s0.45,1,1,1h4c0.55,0,1-0.45,1-1S498.55,29,498,29L498,29z"/>
	<path fill="none" stroke="#000000" stroke-linecap="round" stroke-linejoin="round" stroke-miterlimit="10" d="M241.5,21.375v-6
		c0-0.55,0.45-1,1-1l0,0c0.55,0,1,0.45,1,1l0,0c0,0.55-0.45,1-1,1h-5c-0.55,0-1-0.45-1-1l0,0c0-0.55,0.45-1,1-1l0,0
		c0.55,0,1,0.45,1,1v6"/>
	<path fill="none" stroke="#000000" stroke-linecap="round" stroke-linejoin="round" stroke-miterlimit="10" d="M273,21.5v-6
		c0-0.55,0.45-1,1-1l0,0c0.55,0,1,0.45,1,1l0,0c0,0.55-0.45,1-1,1h-4c-0.55,0-1-0.45-1-1l0,0c0-0.55,0.45-1,1-1l0,0
		c0.55,0,1,0.45,1,1v6"/>
	<path fill="none" stroke="#000000" stroke-linecap="round" stroke-linejoin="round" stroke-miterlimit="10" d="M304.5,21.625v-6
		c0-0.55,0.45-1,1-1l0,0c0.55,0,1,0.45,1,1l0,0c0,0.55-0.45,1-1,1h-3c-0.55,0-1-0.45-1-1l0,0c0-0.55,0.45-1,1-1l0,0
		c0.55,0,1,0.45,1,1v6"/>
	<path fill="none" stroke="#000000" stroke-linecap="round" stroke-linejoin="round" stroke-miterlimit="10" d="M336.5,21.75v-6
		c0-0.55,0.225-1,0.5-1s0.5,0.45,0.5,1l0,0c0,0.55-0.45,1-1,1h-1c-0.55,0-1-0.45-1-1l0,0c0-0.55,0.225-1,0.5-1s0.5,0.45,0.5,1v6"/>
	<path fill="none" stroke="#000000" stroke-linecap="round" stroke-linejoin="round" stroke-miterlimit="10" d="M368.5,21.875v-6
		c0-0.55,0.45-1,1-1l0,0c0.55,0,1,0.45,1,1l0,0c0,0.55-0.45,1-1,1h-3c-0.55,0-1-0.45-1-1l0,0c0-0.55,0.45-1,1-1l0,0
		c0.55,0,1,0.45,1,1v6"/>
	<path fill="none" stroke="#000000" stroke-linecap="round" stroke-linejoin="round" stroke-miterlimit="10" d="M401,22v-6
		c0-0.55,0.45-1,1-1l0,0c0.55,0,1,0.45,1,1l0,0c0,0.55-0.45,1-1,1h-4c-0.55,0-1-0.45-1-1l0,0c0-0.55,0.45-1,1-1l0,0
		c0.55,0,1,0.45,1,1v6"/>
	<path fill="none" stroke="#000000" stroke-linecap="round" stroke-linejoin="round" stroke-miterlimit="10" d="M433.5,22.125v-6
		c0-0.55,0.45-1,1-1l0,0c0.55,0,1,0.45,1,1l0,0c0,0.55-0.45,1-1,1h-5c-0.55,0-1-0.45-1-1l0,0c0-0.55,0.45-1,1-1l0,0
		c0.55,0,1,0.45,1,1v6"/>
	<path fill="none" stroke="#000000" stroke-linecap="round" stroke-linejoin="round" stroke-miterlimit="10" d="M465.5,22.25v-6
		c0-0.55,0.45-1,1-1l0,0c0.55,0,1,0.45,1,1l0,0c0,0.55-0.45,1-1,1h-5c-0.55,0-1-0.45-1-1l0,0c0-0.55,0.45-1,1-1l0,0
		c0.55,0,1,0.45,1,1v6"/>
	<path fill="none" stroke="#000000" stroke-linecap="round" stroke-linejoin="round" stroke-miterlimit="10" d="M497.5,22.5v-6
		c0-0.55,0.45-1,1-1l0,0c0.55,0,1,0.45,1,1l0,0c0,0.55-0.45,1-1,1h-5c-0.55,0-1-0.45-1-1l0,0c0-0.55,0.45-1,1-1l0,0
		c0.55,0,1,0.45,1,1v6"/>
	
		<line fill="none" stroke="#000000" stroke-linecap="round" stroke-linejoin="round" stroke-miterlimit="10" x1="44" y1="21.125" x2="44" y2="26.125"/>
	
		<line fill="none" stroke="#000000" stroke-linecap="round" stroke-linejoin="round" stroke-miterlimit="10" x1="77" y1="21.25" x2="77" y2="26.25"/>
	
		<line fill="none" stroke="#000000" stroke-linecap="round" stroke-linejoin="round" stroke-miterlimit="10" x1="110" y1="21.375" x2="110" y2="26.375"/>
	
		<line fill="none" stroke="#000000" stroke-linecap="round" stroke-linejoin="round" stroke-miterlimit="10" x1="143" y1="21.5" x2="143" y2="26.5"/>
	
		<line fill="none" stroke="#000000" stroke-linecap="round" stroke-linejoin="round" stroke-miterlimit="10" x1="176" y1="21.625" x2="176" y2="26.625"/>
	
		<line fill="none" stroke="#000000" stroke-linecap="round" stroke-linejoin="round" stroke-miterlimit="10" x1="209" y1="21.75" x2="209" y2="26.75"/>
	
		<line fill="none" stroke="#000000" stroke-linecap="round" stroke-linejoin="round" stroke-miterlimit="10" x1="242" y1="21.875" x2="242" y2="26.875"/>
	
		<line fill="none" stroke="#000000" stroke-linecap="round" stroke-linejoin="round" stroke-miterlimit="10" x1="275" y1="22" x2="275" y2="27"/>
	
		<line fill="none" stroke="#000000" stroke-linecap="round" stroke-linejoin="round" stroke-miterlimit="10" x1="308" y1="22.125" x2="308" y2="27.125"/>
	
		<line fill="none" stroke="#000000" stroke-linecap="round" stroke-linejoin="round" stroke-miterlimit="10" x1="364" y1="22.375" x2="364" y2="27.375"/>
	
		<line fill="none" stroke="#000000" stroke-linecap="round" stroke-linejoin="round" stroke-miterlimit="10" x1="397" y1="22.5" x2="397" y2="27.5"/>
	
		<line fill="none" stroke="#000000" stroke-linecap="round" stroke-linejoin="round" stroke-miterlimit="10" x1="430" y1="22.625" x2="430" y2="27.625"/>
	
		<line fill="none" stroke="#000000" stroke-linecap="round" stroke-linejoin="round" stroke-miterlimit="10" x1="463" y1="22.75" x2="463" y2="27.75"/>
	
		<line fill="none" stroke="#000000" stroke-linecap="round" stroke-linejoin="round" stroke-miterlimit="10" x1="496" y1="23" x2="496" y2="28"/>
</g>
<g id="Layer_4">
</g>
</svg>
