<?xml version="1.0" encoding="iso-8859-1"?>
<!-- Generator: Adobe Illustrator 16.2.1, SVG Export Plug-In . SVG Version: 6.00 Build 0)  -->
<!DOCTYPE svg PUBLIC "-//W3C//DTD SVG 1.1 Tiny//EN" "http://www.w3.org/Graphics/SVG/1.1/DTD/svg11-tiny.dtd">
<svg version="1.1" baseProfile="tiny" xmlns="http://www.w3.org/2000/svg" xmlns:xlink="http://www.w3.org/1999/xlink" x="0px"
	 y="0px" width="512px" height="32px" viewBox="0 0 512 32" xml:space="preserve">
<g id="Layer_2_copy">
</g>
<g id="Layer_2">
</g>
<g id="Layer_1">
	<path d="M25.463,13.292c-0.389-0.389-1.023-0.391-1.414,0.002c-0.39,0.391-0.39,1.023,0.002,1.414
		c0.345,0.345,0.535,0.803,0.535,1.291c0,0.489-0.19,0.948-0.536,1.294c-0.391,0.39-0.391,1.023,0,1.414
		C24.245,18.902,24.501,19,24.757,19s0.512-0.098,0.707-0.293c0.724-0.723,1.122-1.685,1.122-2.708S26.188,14.015,25.463,13.292z"/>
	<path d="M27.463,11.292c-0.391-0.389-1.023-0.39-1.414,0.002c-0.39,0.391-0.39,1.024,0.002,1.414
		c0.879,0.877,1.363,2.044,1.364,3.287c0.001,1.246-0.484,2.417-1.365,3.298c-0.391,0.391-0.391,1.023,0,1.414
		C26.245,20.902,26.501,21,26.757,21s0.512-0.098,0.707-0.293c1.259-1.259,1.952-2.933,1.951-4.713
		C29.414,14.217,28.721,12.547,27.463,11.292z"/>
	<path d="M29.463,9.292c-0.391-0.389-1.023-0.39-1.414,0.002c-0.39,0.391-0.39,1.024,0.002,1.414
		c1.412,1.409,2.191,3.285,2.192,5.284c0.002,2.002-0.777,3.885-2.193,5.301c-0.391,0.391-0.391,1.023,0,1.414
		C28.245,22.902,28.501,23,28.757,23s0.512-0.098,0.707-0.293c1.794-1.794,2.781-4.18,2.779-6.717
		C32.242,13.457,31.254,11.078,29.463,9.292z"/>
	<path d="M20.895,8.824c-0.449,0-0.905,0.152-1.356,0.453l-2.672,1.781C16.114,11.561,14.661,12,13.757,12c-1.654,0-3,1.346-3,3v2
		c0,1.654,1.346,3,3,3c0.904,0,2.357,0.439,3.109,0.941l2.672,1.781c0.451,0.301,0.907,0.453,1.356,0.453
		c0.897,0,1.862-0.681,1.862-2.176V11C22.757,9.505,21.792,8.824,20.895,8.824z M13.757,18c-0.552,0-1-0.448-1-1v-2
		c0-0.552,0.448-1,1-1c1.211,0,2.907-0.495,4-1.146v6.293C16.664,18.495,14.968,18,13.757,18z M20.757,21
		c0,0.046-0.002,0.086-0.006,0.12c-0.03-0.016-0.065-0.036-0.104-0.062l-1.891-1.261v-7.596l1.891-1.261
		c0.038-0.025,0.073-0.046,0.104-0.062c0.004,0.034,0.006,0.074,0.006,0.12V21z"/>
</g>
<g id="Layer_4">
</g>
</svg>
