<?xml version="1.0" encoding="iso-8859-1"?>
<!-- Generator: Adobe Illustrator 16.2.1, SVG Export Plug-In . SVG Version: 6.00 Build 0)  -->
<!DOCTYPE svg PUBLIC "-//W3C//DTD SVG 1.1 Tiny//EN" "http://www.w3.org/Graphics/SVG/1.1/DTD/svg11-tiny.dtd">
<svg version="1.1" baseProfile="tiny" xmlns="http://www.w3.org/2000/svg" xmlns:xlink="http://www.w3.org/1999/xlink" x="0px"
	 y="0px" width="512px" height="32px" viewBox="0 0 512 32" xml:space="preserve">
<g id="Layer_2_copy">
</g>
<g id="Layer_2">
</g>
<g id="Layer_1">
	<path d="M25,10.879L21.121,7c-0.293-0.293-0.678-0.439-1.061-0.439C19.676,6.561,19.293,6.707,19,7L7.061,18.939
		c-0.293,0.293-0.558,0.727-0.75,1.188C6.119,20.59,6,21.086,6,21.5V26h4.5c0.414,0,0.908-0.119,1.371-0.311
		c0.463-0.192,0.896-0.457,1.189-0.75L25,13c0.293-0.293,0.439-0.678,0.439-1.061C25.439,11.555,25.293,11.172,25,10.879z
		 M8.768,20.061l9.293-9.293L19.293,12L10,21.293L8.768,20.061z M10.5,24H9l-1-1v-1.5c0-0.077,0.033-0.305,0.158-0.605
		c0.01-0.02,2.967,2.938,2.967,2.938C10.803,23.967,10.577,24,10.5,24z M11.939,23.232L10.707,22L20,12.707l1.232,1.232
		L11.939,23.232z M21.939,13.232l-3.172-3.172l1.293-1.293l3.17,3.172L21.939,13.232z"/>
</g>
<g id="Layer_4">
</g>
</svg>
