<?xml version="1.0" encoding="iso-8859-1"?>
<!-- Generator: Adobe Illustrator 16.2.1, SVG Export Plug-In . SVG Version: 6.00 Build 0)  -->
<!DOCTYPE svg PUBLIC "-//W3C//DTD SVG 1.1 Tiny//EN" "http://www.w3.org/Graphics/SVG/1.1/DTD/svg11-tiny.dtd">
<svg version="1.1" baseProfile="tiny" xmlns="http://www.w3.org/2000/svg" xmlns:xlink="http://www.w3.org/1999/xlink" x="0px"
	 y="0px" width="512px" height="32px" viewBox="0 0 512 32" xml:space="preserve">
<g id="Layer_2_copy">
</g>
<g id="Layer_2">
</g>
<g id="Layer_1">
	<path d="M25,10.879L21.121,7c-0.293-0.293-0.678-0.439-1.061-0.439C19.676,6.561,19.293,6.707,19,7L7.061,18.939
		c-0.293,0.293-0.558,0.727-0.75,1.188C6.119,20.59,6,21.086,6,21.5V26h4.5c0.414,0,0.908-0.119,1.371-0.311
		c0.463-0.192,0.896-0.457,1.189-0.75L25,13c0.293-0.293,0.439-0.678,0.439-1.061C25.439,11.555,25.293,11.172,25,10.879z
		 M8.768,20.061l9.293-9.293L19.293,12L10,21.293L8.768,20.061z M10.5,24H9l-1-1v-1.5c0-0.077,0.033-0.305,0.158-0.605
		c0.01-0.02,2.967,2.938,2.967,2.938C10.803,23.967,10.577,24,10.5,24z M11.939,23.232L10.707,22L20,12.707l1.232,1.232
		L11.939,23.232z M21.939,13.232l-3.172-3.172l1.293-1.293l3.17,3.172L21.939,13.232z"/>
	<path d="M57,10.879L53.121,7c-0.293-0.293-0.678-0.439-1.061-0.439C51.676,6.561,51.293,6.707,51,7L39.061,18.939
		c-0.293,0.293-0.558,0.727-0.75,1.188C38.119,20.59,38,21.086,38,21.5V26h4.5c0.414,0,0.908-0.119,1.371-0.311
		c0.463-0.192,0.896-0.457,1.189-0.75L57,13c0.293-0.293,0.439-0.678,0.439-1.061C57.439,11.555,57.293,11.172,57,10.879z
		 M40.768,20.061l9.293-9.293L51.293,12L42,21.293L40.768,20.061z M42.5,24H41l-1-1v-1.5c0-0.077,0.033-0.305,0.158-0.605
		c0.01-0.02,2.967,2.938,2.967,2.938C42.803,23.967,42.577,24,42.5,24z M43.939,23.232L42.707,22L52,12.707l1.232,1.232
		L43.939,23.232z M53.939,13.232l-3.172-3.172l1.293-1.293l3.17,3.172L53.939,13.232z"/>
	<path d="M89,10.879L85.121,7c-0.293-0.293-0.678-0.439-1.061-0.439C83.676,6.561,83.293,6.707,83,7L71.061,18.939
		c-0.293,0.293-0.558,0.727-0.75,1.188C70.119,20.59,70,21.086,70,21.5V26h4.5c0.414,0,0.908-0.119,1.371-0.311
		c0.463-0.192,0.896-0.457,1.189-0.75L89,13c0.293-0.293,0.439-0.678,0.439-1.061C89.439,11.555,89.293,11.172,89,10.879z
		 M72.768,20.061l9.293-9.293L83.293,12L74,21.293L72.768,20.061z M74.5,24H73l-1-1v-1.5c0-0.077,0.033-0.305,0.158-0.605
		c0.01-0.02,2.967,2.938,2.967,2.938C74.803,23.967,74.577,24,74.5,24z M75.939,23.232L74.707,22L84,12.707l1.232,1.232
		L75.939,23.232z M85.939,13.232l-3.172-3.172l1.293-1.293l3.17,3.172L85.939,13.232z"/>
	<path d="M121,10.879L117.121,7c-0.293-0.293-0.678-0.439-1.061-0.439c-0.385,0-0.768,0.146-1.061,0.439l-11.939,11.939
		c-0.293,0.293-0.558,0.727-0.75,1.188C102.119,20.59,102,21.086,102,21.5V26h4.5c0.414,0,0.908-0.119,1.371-0.311
		c0.463-0.192,0.896-0.457,1.189-0.75L121,13c0.293-0.293,0.439-0.678,0.439-1.061C121.439,11.555,121.293,11.172,121,10.879z
		 M104.768,20.061l9.293-9.293L115.293,12L106,21.293L104.768,20.061z M106.5,24H105l-1-1v-1.5c0-0.077,0.033-0.305,0.158-0.605
		c0.01-0.02,2.967,2.938,2.967,2.938C106.803,23.967,106.577,24,106.5,24z M107.939,23.232L106.707,22L116,12.707l1.232,1.232
		L107.939,23.232z M117.939,13.232l-3.172-3.172l1.293-1.293l3.17,3.172L117.939,13.232z"/>
	<path d="M153,10.879L149.121,7c-0.293-0.293-0.678-0.439-1.061-0.439c-0.385,0-0.768,0.146-1.061,0.439l-11.939,11.939
		c-0.293,0.293-0.558,0.727-0.75,1.188C134.119,20.59,134,21.086,134,21.5V26h4.5c0.414,0,0.908-0.119,1.371-0.311
		c0.463-0.192,0.896-0.457,1.189-0.75L153,13c0.293-0.293,0.439-0.678,0.439-1.061C153.439,11.555,153.293,11.172,153,10.879z
		 M136.768,20.061l9.293-9.293L147.293,12L138,21.293L136.768,20.061z M138.5,24H137l-1-1v-1.5c0-0.077,0.033-0.305,0.158-0.605
		c0.01-0.02,2.967,2.938,2.967,2.938C138.803,23.967,138.577,24,138.5,24z M139.939,23.232L138.707,22L148,12.707l1.232,1.232
		L139.939,23.232z M149.939,13.232l-3.172-3.172l1.293-1.293l3.17,3.172L149.939,13.232z"/>
	<path d="M185,10.879L181.121,7c-0.293-0.293-0.678-0.439-1.061-0.439c-0.385,0-0.768,0.146-1.061,0.439l-11.939,11.939
		c-0.293,0.293-0.558,0.727-0.75,1.188C166.119,20.59,166,21.086,166,21.5V26h4.5c0.414,0,0.908-0.119,1.371-0.311
		c0.463-0.192,0.896-0.457,1.189-0.75L185,13c0.293-0.293,0.439-0.678,0.439-1.061C185.439,11.555,185.293,11.172,185,10.879z
		 M168.768,20.061l9.293-9.293L179.293,12L170,21.293L168.768,20.061z M170.5,24H169l-1-1v-1.5c0-0.077,0.033-0.305,0.158-0.605
		c0.01-0.02,2.967,2.938,2.967,2.938C170.803,23.967,170.577,24,170.5,24z M171.939,23.232L170.707,22L180,12.707l1.232,1.232
		L171.939,23.232z M181.939,13.232l-3.172-3.172l1.293-1.293l3.17,3.172L181.939,13.232z"/>
	<path d="M217,10.879L213.121,7c-0.293-0.293-0.678-0.439-1.061-0.439c-0.385,0-0.768,0.146-1.061,0.439l-11.939,11.939
		c-0.293,0.293-0.558,0.727-0.75,1.188C198.119,20.59,198,21.086,198,21.5V26h4.5c0.414,0,0.908-0.119,1.371-0.311
		c0.463-0.192,0.896-0.457,1.189-0.75L217,13c0.293-0.293,0.439-0.678,0.439-1.061C217.439,11.555,217.293,11.172,217,10.879z
		 M200.768,20.061l9.293-9.293L211.293,12L202,21.293L200.768,20.061z M202.5,24H201l-1-1v-1.5c0-0.077,0.033-0.305,0.158-0.605
		c0.01-0.02,2.967,2.938,2.967,2.938C202.803,23.967,202.577,24,202.5,24z M203.939,23.232L202.707,22L212,12.707l1.232,1.232
		L203.939,23.232z M213.939,13.232l-3.172-3.172l1.293-1.293l3.17,3.172L213.939,13.232z"/>
	<path d="M249,10.879L245.121,7c-0.293-0.293-0.678-0.439-1.061-0.439c-0.385,0-0.768,0.146-1.061,0.439l-11.939,11.939
		c-0.293,0.293-0.558,0.727-0.75,1.188C230.119,20.59,230,21.086,230,21.5V26h4.5c0.414,0,0.908-0.119,1.371-0.311
		c0.463-0.192,0.896-0.457,1.189-0.75L249,13c0.293-0.293,0.439-0.678,0.439-1.061C249.439,11.555,249.293,11.172,249,10.879z
		 M232.768,20.061l9.293-9.293L243.293,12L234,21.293L232.768,20.061z M234.5,24H233l-1-1v-1.5c0-0.077,0.033-0.305,0.158-0.605
		c0.01-0.02,2.967,2.938,2.967,2.938C234.803,23.967,234.577,24,234.5,24z M235.939,23.232L234.707,22L244,12.707l1.232,1.232
		L235.939,23.232z M245.939,13.232l-3.172-3.172l1.293-1.293l3.17,3.172L245.939,13.232z"/>
	<path d="M281,10.879L277.121,7c-0.293-0.293-0.678-0.439-1.061-0.439c-0.385,0-0.768,0.146-1.061,0.439l-11.939,11.939
		c-0.293,0.293-0.558,0.727-0.75,1.188C262.119,20.59,262,21.086,262,21.5V26h4.5c0.414,0,0.908-0.119,1.371-0.311
		c0.463-0.192,0.896-0.457,1.189-0.75L281,13c0.293-0.293,0.439-0.678,0.439-1.061C281.439,11.555,281.293,11.172,281,10.879z
		 M264.768,20.061l9.293-9.293L275.293,12L266,21.293L264.768,20.061z M266.5,24H265l-1-1v-1.5c0-0.077,0.033-0.305,0.158-0.605
		c0.01-0.02,2.967,2.938,2.967,2.938C266.803,23.967,266.577,24,266.5,24z M267.939,23.232L266.707,22L276,12.707l1.232,1.232
		L267.939,23.232z M277.939,13.232l-3.172-3.172l1.293-1.293l3.17,3.172L277.939,13.232z"/>
	<path d="M313,10.879L309.121,7c-0.293-0.293-0.678-0.439-1.061-0.439c-0.385,0-0.768,0.146-1.061,0.439l-11.939,11.939
		c-0.293,0.293-0.558,0.727-0.75,1.188C294.119,20.59,294,21.086,294,21.5V26h4.5c0.414,0,0.908-0.119,1.371-0.311
		c0.463-0.192,0.896-0.457,1.189-0.75L313,13c0.293-0.293,0.439-0.678,0.439-1.061C313.439,11.555,313.293,11.172,313,10.879z
		 M296.768,20.061l9.293-9.293L307.293,12L298,21.293L296.768,20.061z M298.5,24H297l-1-1v-1.5c0-0.077,0.033-0.305,0.158-0.605
		c0.01-0.02,2.967,2.938,2.967,2.938C298.803,23.967,298.577,24,298.5,24z M299.939,23.232L298.707,22L308,12.707l1.232,1.232
		L299.939,23.232z M309.939,13.232l-3.172-3.172l1.293-1.293l3.17,3.172L309.939,13.232z"/>
	<path d="M345,10.879L341.121,7c-0.293-0.293-0.678-0.439-1.061-0.439c-0.385,0-0.768,0.146-1.061,0.439l-11.939,11.939
		c-0.293,0.293-0.558,0.727-0.75,1.188C326.119,20.59,326,21.086,326,21.5V26h4.5c0.414,0,0.908-0.119,1.371-0.311
		c0.463-0.192,0.896-0.457,1.189-0.75L345,13c0.293-0.293,0.439-0.678,0.439-1.061C345.439,11.555,345.293,11.172,345,10.879z
		 M328.768,20.061l9.293-9.293L339.293,12L330,21.293L328.768,20.061z M330.5,24H329l-1-1v-1.5c0-0.077,0.033-0.305,0.158-0.605
		c0.01-0.02,2.967,2.938,2.967,2.938C330.803,23.967,330.577,24,330.5,24z M331.939,23.232L330.707,22L340,12.707l1.232,1.232
		L331.939,23.232z M341.939,13.232l-3.172-3.172l1.293-1.293l3.17,3.172L341.939,13.232z"/>
	<path d="M377,10.879L373.121,7c-0.293-0.293-0.678-0.439-1.061-0.439c-0.385,0-0.768,0.146-1.061,0.439l-11.939,11.939
		c-0.293,0.293-0.558,0.727-0.75,1.188C358.119,20.59,358,21.086,358,21.5V26h4.5c0.414,0,0.908-0.119,1.371-0.311
		c0.463-0.192,0.896-0.457,1.189-0.75L377,13c0.293-0.293,0.439-0.678,0.439-1.061C377.439,11.555,377.293,11.172,377,10.879z
		 M360.768,20.061l9.293-9.293L371.293,12L362,21.293L360.768,20.061z M362.5,24H361l-1-1v-1.5c0-0.077,0.033-0.305,0.158-0.605
		c0.01-0.02,2.967,2.938,2.967,2.938C362.803,23.967,362.577,24,362.5,24z M363.939,23.232L362.707,22L372,12.707l1.232,1.232
		L363.939,23.232z M373.939,13.232l-3.172-3.172l1.293-1.293l3.17,3.172L373.939,13.232z"/>
	<path d="M409,10.879L405.121,7c-0.293-0.293-0.678-0.439-1.061-0.439c-0.385,0-0.768,0.146-1.061,0.439l-11.939,11.939
		c-0.293,0.293-0.558,0.727-0.75,1.188C390.119,20.59,390,21.086,390,21.5V26h4.5c0.414,0,0.908-0.119,1.371-0.311
		c0.463-0.192,0.896-0.457,1.189-0.75L409,13c0.293-0.293,0.439-0.678,0.439-1.061C409.439,11.555,409.293,11.172,409,10.879z
		 M392.768,20.061l9.293-9.293L403.293,12L394,21.293L392.768,20.061z M394.5,24H393l-1-1v-1.5c0-0.077,0.033-0.305,0.158-0.605
		c0.01-0.02,2.967,2.938,2.967,2.938C394.803,23.967,394.577,24,394.5,24z M395.939,23.232L394.707,22L404,12.707l1.232,1.232
		L395.939,23.232z M405.939,13.232l-3.172-3.172l1.293-1.293l3.17,3.172L405.939,13.232z"/>
	<path d="M441,10.879L437.121,7c-0.293-0.293-0.678-0.439-1.061-0.439c-0.385,0-0.768,0.146-1.061,0.439l-11.939,11.939
		c-0.293,0.293-0.558,0.727-0.75,1.188C422.119,20.59,422,21.086,422,21.5V26h4.5c0.414,0,0.908-0.119,1.371-0.311
		c0.463-0.192,0.896-0.457,1.189-0.75L441,13c0.293-0.293,0.439-0.678,0.439-1.061C441.439,11.555,441.293,11.172,441,10.879z
		 M424.768,20.061l9.293-9.293L435.293,12L426,21.293L424.768,20.061z M426.5,24H425l-1-1v-1.5c0-0.077,0.033-0.305,0.158-0.605
		c0.01-0.02,2.967,2.938,2.967,2.938C426.803,23.967,426.577,24,426.5,24z M427.939,23.232L426.707,22L436,12.707l1.232,1.232
		L427.939,23.232z M437.939,13.232l-3.172-3.172l1.293-1.293l3.17,3.172L437.939,13.232z"/>
	<path d="M473,10.879L469.121,7c-0.293-0.293-0.678-0.439-1.061-0.439c-0.385,0-0.768,0.146-1.061,0.439l-11.939,11.939
		c-0.293,0.293-0.558,0.727-0.75,1.188C454.119,20.59,454,21.086,454,21.5V26h4.5c0.414,0,0.908-0.119,1.371-0.311
		c0.463-0.192,0.896-0.457,1.189-0.75L473,13c0.293-0.293,0.439-0.678,0.439-1.061C473.439,11.555,473.293,11.172,473,10.879z
		 M456.768,20.061l9.293-9.293L467.293,12L458,21.293L456.768,20.061z M458.5,24H457l-1-1v-1.5c0-0.077,0.033-0.305,0.158-0.605
		c0.01-0.02,2.967,2.938,2.967,2.938C458.803,23.967,458.577,24,458.5,24z M459.939,23.232L458.707,22L468,12.707l1.232,1.232
		L459.939,23.232z M469.939,13.232l-3.172-3.172l1.293-1.293l3.17,3.172L469.939,13.232z"/>
	<path d="M505,10.879L501.121,7c-0.293-0.293-0.678-0.439-1.061-0.439c-0.385,0-0.768,0.146-1.061,0.439l-11.939,11.939
		c-0.293,0.293-0.558,0.727-0.75,1.188C486.119,20.59,486,21.086,486,21.5V26h4.5c0.414,0,0.908-0.119,1.371-0.311
		c0.463-0.192,0.896-0.457,1.189-0.75L505,13c0.293-0.293,0.439-0.678,0.439-1.061C505.439,11.555,505.293,11.172,505,10.879z
		 M488.768,20.061l9.293-9.293L499.293,12L490,21.293L488.768,20.061z M490.5,24H489l-1-1v-1.5c0-0.077,0.033-0.305,0.158-0.605
		c0.01-0.02,2.967,2.938,2.967,2.938C490.803,23.967,490.577,24,490.5,24z M491.939,23.232L490.707,22L500,12.707l1.232,1.232
		L491.939,23.232z M501.939,13.232l-3.172-3.172l1.293-1.293l3.17,3.172L501.939,13.232z"/>
</g>
<g id="Layer_4">
</g>
</svg>
