<?xml version="1.0" encoding="iso-8859-1"?>
<!-- Generator: Adobe Illustrator 16.2.1, SVG Export Plug-In . SVG Version: 6.00 Build 0)  -->
<!DOCTYPE svg PUBLIC "-//W3C//DTD SVG 1.1 Tiny//EN" "http://www.w3.org/Graphics/SVG/1.1/DTD/svg11-tiny.dtd">
<svg version="1.1" baseProfile="tiny" xmlns="http://www.w3.org/2000/svg" xmlns:xlink="http://www.w3.org/1999/xlink" x="0px"
	 y="0px" width="512px" height="32px" viewBox="0 0 512 32" xml:space="preserve">
<g id="Layer_2_copy">
</g>
<g id="Layer_2">
</g>
<g id="Layer_1">
	<path d="M25,10.879L21.121,7c-0.293-0.293-0.678-0.439-1.061-0.439C19.676,6.561,19.293,6.707,19,7L7.061,18.939
		c-0.293,0.293-0.558,0.727-0.75,1.188C6.119,20.59,6,21.086,6,21.5V26h4.5c0.414,0,0.908-0.119,1.371-0.311
		c0.463-0.192,0.896-0.457,1.189-0.75L25,13c0.293-0.293,0.439-0.678,0.439-1.061C25.439,11.555,25.293,11.172,25,10.879z
		 M8.768,20.061l9.293-9.293L19.293,12L10,21.293L8.768,20.061z M10.5,24H9l-1-1v-1.5c0-0.077,0.033-0.305,0.158-0.605
		c0.01-0.02,2.967,2.938,2.967,2.938C10.803,23.967,10.577,24,10.5,24z M11.939,23.232L10.707,22L20,12.707l1.232,1.232
		L11.939,23.232z M21.939,13.232l-3.172-3.172l1.293-1.293l3.17,3.172L21.939,13.232z"/>
	<path d="M506.75,6.879L502.871,3c-0.293-0.293-0.678-0.439-1.061-0.439c-0.385,0-0.768,0.146-1.061,0.439l-11.939,11.939
		c-0.293,0.293-0.558,0.727-0.75,1.188c-0.191,0.462-0.311,0.958-0.311,1.372V22h4.5c0.414,0,0.908-0.119,1.371-0.311
		c0.463-0.192,0.896-0.457,1.189-0.75L506.75,9c0.293-0.293,0.439-0.678,0.439-1.061C507.189,7.555,507.043,7.172,506.75,6.879z
		 M490.518,16.061l9.293-9.293L501.043,8l-9.293,9.293L490.518,16.061z M492.25,20h-1.5l-1-1v-1.5c0-0.077,0.033-0.305,0.158-0.605
		c0.01-0.02,2.967,2.938,2.967,2.938C492.553,19.967,492.327,20,492.25,20z M493.689,19.232L492.457,18l9.293-9.293l1.232,1.232
		L493.689,19.232z M503.689,9.232l-3.172-3.172l1.293-1.293l3.17,3.172L503.689,9.232z"/>
	<path d="M475,6.754l-3.879-3.879c-0.293-0.293-0.678-0.439-1.061-0.439c-0.385,0-0.768,0.146-1.061,0.439l-11.939,11.939
		c-0.293,0.293-0.558,0.727-0.75,1.188c-0.191,0.462-0.311,0.958-0.311,1.372v4.5h4.5c0.414,0,0.908-0.119,1.371-0.311
		c0.463-0.192,0.896-0.457,1.189-0.75L475,8.875c0.293-0.293,0.439-0.678,0.439-1.061C475.439,7.43,475.293,7.047,475,6.754z
		 M458.768,15.936l9.293-9.293l1.232,1.232L460,17.168L458.768,15.936z M460.5,19.875H459l-1-1v-1.5
		c0-0.077,0.033-0.305,0.158-0.605c0.01-0.02,2.967,2.938,2.967,2.938C460.803,19.842,460.577,19.875,460.5,19.875z M461.939,19.107
		l-1.232-1.232L470,8.582l1.232,1.232L461.939,19.107z M471.939,9.107l-3.172-3.172l1.293-1.293l3.17,3.172L471.939,9.107z"/>
	<path d="M443.25,6.629l-3.879-3.879c-0.293-0.293-0.678-0.439-1.061-0.439c-0.385,0-0.768,0.146-1.061,0.439l-11.939,11.939
		c-0.293,0.293-0.558,0.727-0.75,1.188c-0.191,0.462-0.311,0.958-0.311,1.372v4.5h4.5c0.414,0,0.908-0.119,1.371-0.311
		c0.463-0.192,0.896-0.457,1.189-0.75L443.25,8.75c0.293-0.293,0.439-0.678,0.439-1.061C443.689,7.305,443.543,6.922,443.25,6.629z
		 M427.018,15.811l9.293-9.293l1.232,1.232l-9.293,9.293L427.018,15.811z M428.75,19.75h-1.5l-1-1v-1.5
		c0-0.077,0.033-0.305,0.158-0.605c0.01-0.02,2.967,2.938,2.967,2.938C429.053,19.717,428.827,19.75,428.75,19.75z M430.189,18.982
		l-1.232-1.232l9.293-9.293l1.232,1.232L430.189,18.982z M440.189,8.982l-3.172-3.172l1.293-1.293l3.17,3.172L440.189,8.982z"/>
	<path d="M414.5,7.171l-3.879-3.879c-0.293-0.293-0.678-0.439-1.061-0.439c-0.385,0-0.768,0.146-1.061,0.439l-11.939,11.939
		c-0.293,0.293-0.558,0.727-0.75,1.188c-0.191,0.462-0.311,0.958-0.311,1.372v4.5h4.5c0.414,0,0.908-0.119,1.371-0.311
		c0.463-0.192,0.896-0.457,1.189-0.75L414.5,9.292c0.293-0.293,0.439-0.678,0.439-1.061C414.939,7.847,414.793,7.464,414.5,7.171z
		 M398.268,16.353l9.293-9.293l1.232,1.232l-9.293,9.293L398.268,16.353z M400,20.292h-1.5l-1-1v-1.5
		c0-0.077,0.033-0.305,0.158-0.605c0.01-0.02,2.967,2.938,2.967,2.938C400.303,20.259,400.077,20.292,400,20.292z M401.439,19.524
		l-1.232-1.232l9.293-9.293l1.232,1.232L401.439,19.524z M411.439,9.524l-3.172-3.172l1.293-1.293l3.17,3.172L411.439,9.524z"/>
	<path d="M382.75,7.712l-3.879-3.879c-0.293-0.293-0.678-0.439-1.061-0.439c-0.385,0-0.768,0.146-1.061,0.439l-11.939,11.939
		c-0.293,0.293-0.558,0.727-0.75,1.188c-0.191,0.462-0.311,0.958-0.311,1.372v4.5h4.5c0.414,0,0.908-0.119,1.371-0.311
		c0.463-0.192,0.896-0.457,1.189-0.75L382.75,9.833c0.293-0.293,0.439-0.678,0.439-1.061C383.189,8.388,383.043,8.005,382.75,7.712z
		 M366.518,16.894l9.293-9.293l1.232,1.232l-9.293,9.293L366.518,16.894z M368.25,20.833h-1.5l-1-1v-1.5
		c0-0.077,0.033-0.305,0.158-0.605c0.01-0.02,2.967,2.938,2.967,2.938C368.553,20.8,368.327,20.833,368.25,20.833z M369.689,20.065
		l-1.232-1.232l9.293-9.293l1.232,1.232L369.689,20.065z M379.689,10.065l-3.172-3.172l1.293-1.293l3.17,3.172L379.689,10.065z"/>
	<path d="M350,8.254l-3.879-3.879c-0.293-0.293-0.678-0.439-1.061-0.439c-0.385,0-0.768,0.146-1.061,0.439l-11.939,11.939
		c-0.293,0.293-0.558,0.727-0.75,1.188c-0.191,0.462-0.311,0.958-0.311,1.372v4.5h4.5c0.414,0,0.908-0.119,1.371-0.311
		c0.463-0.192,0.896-0.457,1.189-0.75L350,10.375c0.293-0.293,0.439-0.678,0.439-1.061C350.439,8.93,350.293,8.547,350,8.254z
		 M333.768,17.436l9.293-9.293l1.232,1.232L335,18.668L333.768,17.436z M335.5,21.375H334l-1-1v-1.5
		c0-0.077,0.033-0.305,0.158-0.605c0.01-0.02,2.967,2.938,2.967,2.938C335.803,21.342,335.577,21.375,335.5,21.375z M336.939,20.607
		l-1.232-1.232L345,10.082l1.232,1.232L336.939,20.607z M346.939,10.607l-3.172-3.172l1.293-1.293l3.17,3.172L346.939,10.607z"/>
	<path d="M318.75,8.462l-3.879-3.879c-0.293-0.293-0.678-0.439-1.061-0.439c-0.385,0-0.768,0.146-1.061,0.439l-11.939,11.939
		c-0.293,0.293-0.558,0.727-0.75,1.188c-0.191,0.462-0.311,0.958-0.311,1.372v4.5h4.5c0.414,0,0.908-0.119,1.371-0.311
		c0.463-0.192,0.896-0.457,1.189-0.75l11.939-11.939c0.293-0.293,0.439-0.678,0.439-1.061C319.189,9.138,319.043,8.755,318.75,8.462
		z M302.518,17.644l9.293-9.293l1.232,1.232l-9.293,9.293L302.518,17.644z M304.25,21.583h-1.5l-1-1v-1.5
		c0-0.077,0.033-0.305,0.158-0.605c0.01-0.02,2.967,2.938,2.967,2.938C304.553,21.55,304.327,21.583,304.25,21.583z M305.689,20.815
		l-1.232-1.232l9.293-9.293l1.232,1.232L305.689,20.815z M315.689,10.815l-3.172-3.172l1.293-1.293l3.17,3.172L315.689,10.815z"/>
	<path d="M285.5,8.671l-3.879-3.879c-0.293-0.293-0.678-0.439-1.061-0.439c-0.385,0-0.768,0.146-1.061,0.439l-11.939,11.939
		c-0.293,0.293-0.558,0.727-0.75,1.188c-0.191,0.462-0.311,0.958-0.311,1.372v4.5h4.5c0.414,0,0.908-0.119,1.371-0.311
		c0.463-0.192,0.896-0.457,1.189-0.75L285.5,10.792c0.293-0.293,0.439-0.678,0.439-1.061C285.939,9.347,285.793,8.964,285.5,8.671z
		 M269.268,17.853l9.293-9.293l1.232,1.232l-9.293,9.293L269.268,17.853z M271,21.792h-1.5l-1-1v-1.5
		c0-0.077,0.033-0.305,0.158-0.605c0.01-0.02,2.967,2.938,2.967,2.938C271.303,21.759,271.077,21.792,271,21.792z M272.439,21.024
		l-1.232-1.232l9.293-9.293l1.232,1.232L272.439,21.024z M282.439,11.024l-3.172-3.172l1.293-1.293l3.17,3.172L282.439,11.024z"/>
	<path d="M249.75,8.879L245.871,5c-0.293-0.293-0.678-0.439-1.061-0.439c-0.385,0-0.768,0.146-1.061,0.439l-11.939,11.939
		c-0.293,0.293-0.558,0.727-0.75,1.188c-0.191,0.462-0.311,0.958-0.311,1.372V24h4.5c0.414,0,0.908-0.119,1.371-0.311
		c0.463-0.192,0.896-0.457,1.189-0.75L249.75,11c0.293-0.293,0.439-0.678,0.439-1.061C250.189,9.555,250.043,9.172,249.75,8.879z
		 M233.518,18.061l9.293-9.293L244.043,10l-9.293,9.293L233.518,18.061z M235.25,22h-1.5l-1-1v-1.5c0-0.077,0.033-0.305,0.158-0.605
		c0.01-0.02,2.967,2.938,2.967,2.938C235.553,21.967,235.327,22,235.25,22z M236.689,21.232L235.457,20l9.293-9.293l1.232,1.232
		L236.689,21.232z M246.689,11.232l-3.172-3.172l1.293-1.293l3.17,3.172L246.689,11.232z"/>
	<path d="M218,8.754l-3.879-3.879c-0.293-0.293-0.678-0.439-1.061-0.439c-0.385,0-0.768,0.146-1.061,0.439l-11.939,11.939
		c-0.293,0.293-0.558,0.727-0.75,1.188c-0.191,0.462-0.311,0.958-0.311,1.372v4.5h4.5c0.414,0,0.908-0.119,1.371-0.311
		c0.463-0.192,0.896-0.457,1.189-0.75L218,10.875c0.293-0.293,0.439-0.678,0.439-1.061C218.439,9.43,218.293,9.047,218,8.754z
		 M201.768,17.936l9.293-9.293l1.232,1.232L203,19.168L201.768,17.936z M203.5,21.875H202l-1-1v-1.5
		c0-0.077,0.033-0.305,0.158-0.605c0.01-0.02,2.967,2.938,2.967,2.938C203.803,21.842,203.577,21.875,203.5,21.875z M204.939,21.107
		l-1.232-1.232L213,10.582l1.232,1.232L204.939,21.107z M214.939,11.107l-3.172-3.172l1.293-1.293l3.17,3.172L214.939,11.107z"/>
	<path d="M189.583,9.296l-3.879-3.879c-0.293-0.293-0.678-0.439-1.061-0.439c-0.385,0-0.768,0.146-1.061,0.439l-11.939,11.939
		c-0.293,0.293-0.558,0.727-0.75,1.188c-0.191,0.462-0.311,0.958-0.311,1.372v4.5h4.5c0.414,0,0.908-0.119,1.371-0.311
		c0.463-0.192,0.896-0.457,1.189-0.75l11.939-11.939c0.293-0.293,0.439-0.678,0.439-1.061
		C190.023,9.972,189.876,9.589,189.583,9.296z M173.351,18.478l9.293-9.293l1.232,1.232l-9.293,9.293L173.351,18.478z
		 M175.083,22.417h-1.5l-1-1v-1.5c0-0.077,0.033-0.305,0.158-0.605c0.01-0.02,2.967,2.938,2.967,2.938
		C175.386,22.384,175.161,22.417,175.083,22.417z M176.523,21.649l-1.232-1.232l9.293-9.293l1.232,1.232L176.523,21.649z
		 M186.523,11.649l-3.172-3.172l1.293-1.293l3.17,3.172L186.523,11.649z"/>
	<path d="M159.167,10.087l-3.879-3.879c-0.293-0.293-0.678-0.439-1.061-0.439c-0.385,0-0.768,0.146-1.061,0.439l-11.939,11.939
		c-0.293,0.293-0.558,0.727-0.75,1.188c-0.191,0.462-0.311,0.958-0.311,1.372v4.5h4.5c0.414,0,0.908-0.119,1.371-0.311
		c0.463-0.192,0.896-0.457,1.189-0.75l11.939-11.939c0.293-0.293,0.439-0.678,0.439-1.061
		C159.606,10.763,159.459,10.38,159.167,10.087z M142.934,19.269l9.293-9.293l1.232,1.232l-9.293,9.293L142.934,19.269z
		 M144.667,23.208h-1.5l-1-1v-1.5c0-0.077,0.033-0.305,0.158-0.605c0.01-0.02,2.967,2.938,2.967,2.938
		C144.969,23.175,144.744,23.208,144.667,23.208z M146.106,22.44l-1.232-1.232l9.293-9.293l1.232,1.232L146.106,22.44z
		 M156.106,12.44l-3.172-3.172l1.293-1.293l3.17,3.172L156.106,12.44z"/>
	<path d="M126.75,10.952l-3.879-3.879c-0.293-0.293-0.678-0.439-1.061-0.439c-0.385,0-0.768,0.146-1.061,0.439l-11.939,11.939
		c-0.293,0.293-0.558,0.727-0.75,1.188c-0.191,0.462-0.311,0.958-0.311,1.372v4.5h4.5c0.414,0,0.908-0.119,1.371-0.311
		c0.463-0.192,0.896-0.457,1.189-0.75l11.939-11.939c0.293-0.293,0.439-0.678,0.439-1.061
		C127.189,11.628,127.043,11.245,126.75,10.952z M110.518,20.134l9.293-9.293l1.232,1.232l-9.293,9.293L110.518,20.134z
		 M112.25,24.073h-1.5l-1-1v-1.5c0-0.077,0.033-0.305,0.158-0.605c0.01-0.02,2.967,2.938,2.967,2.938
		C112.553,24.04,112.327,24.073,112.25,24.073z M113.689,23.306l-1.232-1.232l9.293-9.293l1.232,1.232L113.689,23.306z
		 M123.689,13.306l-3.172-3.172l1.293-1.293l3.17,3.172L123.689,13.306z"/>
	<path d="M94.5,11.171l-3.879-3.879c-0.293-0.293-0.678-0.439-1.061-0.439c-0.385,0-0.768,0.146-1.061,0.439L76.561,19.231
		c-0.293,0.293-0.558,0.727-0.75,1.188c-0.191,0.462-0.311,0.958-0.311,1.372v4.5H80c0.414,0,0.908-0.119,1.371-0.311
		c0.463-0.192,0.896-0.457,1.189-0.75L94.5,13.292c0.293-0.293,0.439-0.678,0.439-1.061C94.939,11.847,94.793,11.464,94.5,11.171z
		 M78.268,20.353l9.293-9.293l1.232,1.232L79.5,21.585L78.268,20.353z M80,24.292h-1.5l-1-1v-1.5c0-0.077,0.033-0.305,0.158-0.605
		c0.01-0.02,2.967,2.938,2.967,2.938C80.303,24.259,80.077,24.292,80,24.292z M81.439,23.524l-1.232-1.232l9.293-9.293l1.232,1.232
		L81.439,23.524z M91.439,13.524l-3.172-3.172l1.293-1.293l3.17,3.172L91.439,13.524z"/>
	<path d="M60.25,11.462l-3.879-3.879c-0.293-0.293-0.678-0.439-1.061-0.439c-0.385,0-0.768,0.146-1.061,0.439L42.311,19.522
		c-0.293,0.293-0.558,0.727-0.75,1.188c-0.191,0.462-0.311,0.958-0.311,1.372v4.5h4.5c0.414,0,0.908-0.119,1.371-0.311
		c0.463-0.192,0.896-0.457,1.189-0.75L60.25,13.583c0.293-0.293,0.439-0.678,0.439-1.061C60.689,12.138,60.543,11.755,60.25,11.462z
		 M44.018,20.644l9.293-9.293l1.232,1.232l-9.293,9.293L44.018,20.644z M45.75,24.583h-1.5l-1-1v-1.5
		c0-0.077,0.033-0.305,0.158-0.605c0.01-0.02,2.967,2.938,2.967,2.938C46.053,24.55,45.827,24.583,45.75,24.583z M47.189,23.815
		l-1.232-1.232l9.293-9.293l1.232,1.232L47.189,23.815z M57.189,13.815l-3.172-3.172l1.293-1.293l3.17,3.172L57.189,13.815z"/>
	<path d="M496.891,23.366l-4.541-0.795c-0.763-0.124-1.528-0.233-2.292-0.341c-0.77-0.092-1.541-0.155-2.308-0.23
		c0.742,0.217,1.479,0.445,2.219,0.646l2.205,0.672c0.205,0.065,0.413,0.125,0.619,0.188c-0.706,0.032-1.412,0.064-2.117,0.105
		c-1.002,0.062-2.005,0.104-3.006,0.181l-3.002,0.224c-0.431,0.032-0.805,0.346-0.894,0.79c-0.107,0.534,0.239,1.054,0.773,1.16
		l0.054,0.011c0.817,0.164,1.637,0.31,2.459,0.445l2.48,0.514c0.303,0.063,0.607,0.116,0.911,0.174
		c-0.595,0.133-1.192,0.251-1.786,0.388c-1.977,0.472-3.954,0.938-5.916,1.503c2.038-0.103,4.061-0.302,6.084-0.497
		c2.021-0.21,4.037-0.445,6.049-0.708c0.315-0.043,0.591-0.273,0.672-0.602c0.104-0.429-0.157-0.86-0.586-0.966l-0.096-0.023
		c-0.815-0.2-1.634-0.363-2.45-0.541c-0.425-0.104-0.85-0.206-1.273-0.312c0.89-0.097,1.778-0.193,2.666-0.312
		c0.996-0.132,1.993-0.245,2.988-0.392l0.071-0.01c0.266-0.04,0.489-0.246,0.538-0.525C497.475,23.761,497.24,23.428,496.891,23.366
		z"/>
	<path d="M465.141,23.241l-4.541-0.795c-0.763-0.124-1.528-0.233-2.292-0.341c-0.77-0.092-1.541-0.155-2.308-0.23
		c0.742,0.217,1.479,0.445,2.219,0.646l2.205,0.672c0.205,0.065,0.413,0.125,0.619,0.188c-0.706,0.032-1.412,0.064-2.117,0.105
		c-1.002,0.062-2.005,0.104-3.006,0.181l-3.002,0.224c-0.431,0.032-0.805,0.346-0.894,0.79c-0.107,0.534,0.239,1.054,0.773,1.16
		l0.054,0.011c0.817,0.164,1.637,0.31,2.459,0.445l2.48,0.514c0.303,0.063,0.606,0.116,0.91,0.174
		c-0.595,0.133-1.191,0.251-1.785,0.388c-1.977,0.472-3.954,0.938-5.916,1.503c2.038-0.103,4.061-0.302,6.084-0.497
		c2.021-0.21,4.037-0.445,6.049-0.708c0.315-0.043,0.591-0.273,0.672-0.602c0.104-0.429-0.157-0.861-0.586-0.966l-0.096-0.023
		c-0.815-0.2-1.634-0.363-2.45-0.541c-0.425-0.104-0.85-0.206-1.273-0.312c0.89-0.097,1.778-0.193,2.666-0.312
		c0.996-0.132,1.993-0.245,2.988-0.392l0.071-0.01c0.266-0.04,0.489-0.246,0.538-0.525C465.725,23.636,465.49,23.303,465.141,23.241
		z"/>
	<path d="M433.391,23.116l-4.541-0.795c-0.763-0.124-1.528-0.233-2.292-0.341c-0.77-0.092-1.541-0.155-2.308-0.23
		c0.742,0.217,1.479,0.445,2.219,0.646l2.205,0.672c0.205,0.065,0.413,0.125,0.619,0.188c-0.706,0.032-1.412,0.064-2.117,0.105
		c-1.002,0.062-2.005,0.104-3.006,0.181l-3.002,0.224c-0.431,0.032-0.805,0.346-0.894,0.79c-0.107,0.534,0.239,1.054,0.773,1.16
		l0.054,0.011c0.817,0.164,1.637,0.31,2.459,0.445l2.48,0.514c0.303,0.063,0.606,0.116,0.91,0.174
		c-0.595,0.133-1.191,0.251-1.785,0.388c-1.977,0.472-3.954,0.938-5.916,1.503c2.038-0.103,4.061-0.302,6.084-0.497
		c2.021-0.21,4.037-0.445,6.049-0.708c0.315-0.043,0.591-0.273,0.672-0.602c0.104-0.429-0.157-0.861-0.586-0.966l-0.096-0.023
		c-0.815-0.2-1.634-0.363-2.45-0.541c-0.425-0.104-0.85-0.206-1.273-0.312c0.89-0.097,1.778-0.193,2.666-0.312
		c0.996-0.132,1.993-0.245,2.988-0.392l0.071-0.01c0.266-0.04,0.489-0.246,0.538-0.525C433.975,23.511,433.74,23.178,433.391,23.116
		z"/>
	<path d="M401.622,23.076c-1.007-0.18-2.023-0.322-3.037-0.479c-1.032-0.118-2.061-0.224-3.085-0.305
		c0.896,0.307,1.786,0.587,2.675,0.86c-0.916,0.035-1.832,0.058-2.746,0.113c-2.005,0.105-4.01,0.219-6.01,0.382
		c-0.419,0.034-0.784,0.337-0.879,0.768c-0.115,0.529,0.221,1.051,0.749,1.166l0.063,0.014c1.64,0.357,3.287,0.665,4.936,0.976
		c0.249,0.05,0.499,0.091,0.749,0.138c-0.543,0.125-1.086,0.244-1.629,0.369c-1.978,0.468-3.95,0.96-5.908,1.548
		c2.042-0.079,4.069-0.253,6.092-0.452c1.01-0.104,2.022-0.198,3.028-0.327c1.007-0.125,2.017-0.231,3.021-0.372
		c0.34-0.049,0.633-0.302,0.714-0.657c0.104-0.461-0.184-0.918-0.645-1.023l-0.08-0.018c-1.233-0.28-2.462-0.566-3.694-0.835
		c0.876-0.102,1.75-0.224,2.624-0.333c0.997-0.122,1.991-0.275,2.986-0.422l0.06-0.009c0.23-0.035,0.423-0.212,0.467-0.454
		C402.127,23.42,401.925,23.131,401.622,23.076z"/>
	<path d="M369.825,23.16c-1.021-0.13-2.045-0.24-3.075-0.327c0.312,0.115,0.628,0.214,0.94,0.324
		c-1.336,0.008-2.671,0.028-4.004,0.079c-1.005,0.027-2.008,0.068-3.01,0.129c-1.002,0.06-2.007,0.092-3.007,0.174
		c-0.415,0.034-0.776,0.337-0.864,0.766c-0.107,0.521,0.228,1.03,0.749,1.138l0.051,0.011c1.644,0.34,3.279,0.71,4.931,1.005
		c0.208,0.04,0.415,0.078,0.623,0.118c-0.502,0.115-1.005,0.225-1.506,0.345c-1.978,0.466-3.948,0.978-5.903,1.579
		c2.045-0.065,4.074-0.221,6.097-0.421c2.023-0.193,4.04-0.425,6.049-0.704c0.348-0.049,0.649-0.305,0.736-0.666
		c0.113-0.474-0.178-0.949-0.65-1.063l-0.096-0.022c-1.312-0.315-2.624-0.602-3.938-0.879c1.947-0.253,3.891-0.554,5.831-0.896
		l0.063-0.012c0.144-0.025,0.26-0.142,0.279-0.294C370.146,23.354,370.013,23.184,369.825,23.16z"/>
	<path d="M338,23.375c-2.024-0.124-4.04-0.148-6.052-0.121c-1.007-0.002-2.01,0.047-3.015,0.07c-1.006,0.019-2.007,0.092-3.01,0.136
		c-0.395,0.017-0.748,0.291-0.846,0.694c-0.119,0.489,0.181,0.982,0.67,1.101l0.114,0.028c1.635,0.398,3.281,0.708,4.92,1.064
		c0.159,0.029,0.318,0.062,0.478,0.091c-0.455,0.102-0.91,0.204-1.362,0.32c-1.978,0.472-3.945,0.994-5.897,1.616
		c2.048-0.045,4.08-0.188,6.103-0.384c1.015-0.081,2.02-0.216,3.03-0.321c1.01-0.104,2.012-0.26,3.019-0.388
		c0.363-0.047,0.68-0.312,0.771-0.688c0.118-0.489-0.182-0.981-0.671-1.101l-0.111-0.027c-1.429-0.348-2.866-0.634-4.3-0.938
		c0.07-0.011,0.141-0.02,0.211-0.031C334.04,24.19,336.024,23.832,338,23.375z"/>
	<path d="M304.467,25.314l-0.07-0.016l-2.462-0.526c-0.819-0.181-1.647-0.316-2.472-0.477c-0.129-0.024-0.26-0.044-0.389-0.068
		c1.053-0.188,2.11-0.382,3.176-0.645c-1.342-0.143-2.694-0.187-4.055-0.232c-1.341,0.005-2.679,0.037-4.012,0.096
		c-0.337,0.015-0.641,0.243-0.735,0.585c-0.117,0.426,0.132,0.865,0.558,0.982l0.123,0.034c0.814,0.225,1.636,0.399,2.452,0.602
		c0.815,0.203,1.636,0.378,2.457,0.549c0.131,0.027,0.261,0.056,0.391,0.084c-0.43,0.101-0.86,0.195-1.291,0.293
		c-1.974,0.495-3.943,1.01-5.888,1.675c2.056-0.002,4.086-0.154,6.112-0.325c1.01-0.109,2.022-0.2,3.029-0.326
		c1.005-0.135,2.014-0.249,3.017-0.399c0.383-0.059,0.709-0.347,0.795-0.747C305.314,25.935,304.984,25.425,304.467,25.314z"/>
	<path d="M272.734,25.171l-0.083-0.02c-0.819-0.187-1.643-0.339-2.469-0.489c-0.824-0.155-1.648-0.312-2.482-0.432
		c-0.616-0.096-1.231-0.19-1.848-0.276c0.216-0.056,0.433-0.102,0.648-0.162c-1.309-0.145-2.61-0.198-3.909-0.224
		c-0.002,0-0.004-0.001-0.006-0.001v0.001c-0.044-0.001-0.088-0.004-0.132-0.005c-0.237-0.004-0.46,0.146-0.535,0.385
		c-0.092,0.29,0.069,0.6,0.359,0.69l0.138,0.044c0.813,0.256,1.626,0.488,2.441,0.706c0.812,0.233,1.629,0.425,2.444,0.625
		c0.126,0.032,0.255,0.056,0.382,0.087c-0.435,0.099-0.872,0.185-1.305,0.293c-0.99,0.229-1.971,0.506-2.953,0.781
		c-0.979,0.288-1.958,0.587-2.925,0.95c1.033,0.03,2.055-0.005,3.075-0.05c1.018-0.058,2.037-0.113,3.047-0.219
		c1.013-0.087,2.022-0.2,3.028-0.332c1.009-0.112,2.009-0.277,3.012-0.428c0.386-0.06,0.718-0.348,0.81-0.752
		C273.593,25.816,273.262,25.291,272.734,25.171z"/>
	<path d="M240.944,25.027c-1.665-0.322-3.336-0.612-5.03-0.808c-0.855-0.099-1.718-0.146-2.578-0.195
		c-0.861-0.038-1.722-0.063-2.587-0.024c0.805,0.353,1.615,0.642,2.424,0.918c0.812,0.265,1.619,0.531,2.434,0.748
		c0.205,0.063,0.412,0.115,0.618,0.176c-0.537,0.117-1.075,0.226-1.611,0.352c-0.987,0.241-1.972,0.501-2.951,0.795
		c-0.977,0.304-1.954,0.609-2.915,1.012c1.04,0.069,2.062,0.041,3.085,0.012c1.021-0.039,2.037-0.113,3.049-0.205
		c1.011-0.102,2.02-0.215,3.024-0.351c1.005-0.136,2.006-0.3,3.004-0.478l0.019-0.003c0.391-0.07,0.717-0.374,0.797-0.787
		C241.833,25.651,241.481,25.131,240.944,25.027z"/>
	<path d="M209.194,24.902c-1.665-0.322-3.336-0.612-5.03-0.808c-0.855-0.099-1.718-0.146-2.578-0.195
		c-0.861-0.038-1.722-0.063-2.587-0.024c0.805,0.353,1.615,0.642,2.424,0.918c0.812,0.265,1.619,0.531,2.434,0.748
		c0.205,0.063,0.412,0.115,0.618,0.176c-0.537,0.117-1.075,0.226-1.611,0.352c-0.987,0.241-1.972,0.501-2.951,0.795
		c-0.977,0.304-1.954,0.609-2.915,1.012c1.04,0.069,2.062,0.041,3.085,0.012c1.021-0.039,2.037-0.113,3.049-0.205
		c1.011-0.102,2.02-0.215,3.024-0.351c1.005-0.136,2.006-0.3,3.004-0.478l0.019-0.003c0.391-0.07,0.717-0.374,0.797-0.787
		C210.083,25.526,209.731,25.006,209.194,24.902z"/>
	<path d="M177.432,24.84c-0.558-0.083-1.112-0.187-1.675-0.253c-0.564-0.061-1.123-0.146-1.692-0.186
		c-1.166-0.065-2.33-0.081-3.482,0.016c0.886,0.409,1.763,0.732,2.639,1.026c-0.708,0.136-1.416,0.27-2.118,0.436
		c-0.99,0.227-1.974,0.487-2.95,0.797c-0.978,0.3-1.949,0.642-2.904,1.074c1.044,0.1,2.074,0.107,3.096,0.074
		c1.024-0.024,2.04-0.096,3.049-0.203c2.023-0.197,4.025-0.515,6.007-0.955l0.097-0.021c0.359-0.081,0.649-0.375,0.707-0.761
		C178.28,25.382,177.934,24.914,177.432,24.84z"/>
	<path d="M145.642,24.918c-0.57-0.041-1.144-0.058-1.722-0.057c-0.578,0.002-1.161,0.023-1.753,0.097
		c0.118,0.066,0.237,0.123,0.356,0.185c-0.061,0.008-0.122,0.013-0.183,0.021c-1.006,0.133-2.006,0.3-2.998,0.515
		c-0.991,0.225-1.977,0.475-2.953,0.783c-0.974,0.324-1.943,0.673-2.889,1.163c1.054,0.156,2.084,0.172,3.111,0.163
		c1.023-0.024,2.037-0.107,3.047-0.217c1.008-0.118,2.008-0.285,3.002-0.485c0.499-0.094,0.99-0.227,1.484-0.343
		c0.496-0.109,0.983-0.267,1.474-0.407l0.167-0.047c0.273-0.079,0.482-0.322,0.503-0.622
		C146.317,25.281,146.027,24.945,145.642,24.918z"/>
	<path d="M107.585,25.514c-1.5,0.254-2.973,0.66-4.055,1.11c-1.086,0.421-1.781,0.876-1.781,0.876s0.805,0.205,1.969,0.251
		c1.168,0.075,2.695-0.019,4.195-0.265c1.5-0.251,2.974-0.656,4.055-1.107c1.086-0.422,1.781-0.879,1.781-0.879
		s-0.805-0.207-1.969-0.254C110.612,25.17,109.086,25.265,107.585,25.514z"/>
	<path d="M73.836,25.723c-1,0.17-1.974,0.493-2.68,0.88C70.445,26.962,70,27.375,70,27.375s0.555,0.246,1.344,0.355
		c0.794,0.137,1.82,0.128,2.82-0.036c1-0.168,1.974-0.489,2.68-0.878C77.555,26.457,78,26.042,78,26.042s-0.555-0.249-1.344-0.358
		C75.862,25.546,74.836,25.557,73.836,25.723z"/>
	<path d="M39.585,25.931c-0.5,0.087-0.973,0.327-1.305,0.651c-0.336,0.297-0.531,0.668-0.531,0.668s0.305,0.288,0.719,0.46
		c0.418,0.199,0.945,0.272,1.445,0.192c0.5-0.084,0.974-0.323,1.305-0.648c0.336-0.297,0.531-0.671,0.531-0.671
		s-0.305-0.29-0.719-0.462C40.612,25.92,40.086,25.849,39.585,25.931z"/>
</g>
<g id="Layer_4">
</g>
</svg>
