<?xml version="1.0" encoding="iso-8859-1"?>
<!-- Generator: Adobe Illustrator 16.2.1, SVG Export Plug-In . SVG Version: 6.00 Build 0)  -->
<!DOCTYPE svg PUBLIC "-//W3C//DTD SVG 1.1 Tiny//EN" "http://www.w3.org/Graphics/SVG/1.1/DTD/svg11-tiny.dtd">
<svg version="1.1" baseProfile="tiny" xmlns="http://www.w3.org/2000/svg" xmlns:xlink="http://www.w3.org/1999/xlink" x="0px"
	 y="0px" width="512px" height="32px" viewBox="0 0 512 32" xml:space="preserve">
<g id="Layer_2_copy">
</g>
<g id="Layer_2">
</g>
<g id="Layer_1">
	<circle fill="none" stroke="#000000" stroke-width="2" stroke-miterlimit="10" cx="16" cy="16" r="10"/>
	<circle fill="none" stroke="#000000" stroke-width="2" stroke-miterlimit="10" cx="16" cy="16" r="4"/>
	<line fill="none" stroke="#000000" stroke-miterlimit="10" x1="12" y1="14" x2="8" y2="10"/>
	<line fill="none" stroke="#000000" stroke-miterlimit="10" x1="14" y1="12" x2="10" y2="8"/>
	<line fill="none" stroke="#000000" stroke-miterlimit="10" x1="14" y1="20" x2="10" y2="24"/>
	<line fill="none" stroke="#000000" stroke-miterlimit="10" x1="12" y1="18" x2="8" y2="22"/>
	<line fill="none" stroke="#000000" stroke-miterlimit="10" x1="20" y1="18" x2="24" y2="22"/>
	<line fill="none" stroke="#000000" stroke-miterlimit="10" x1="18" y1="20" x2="22" y2="24"/>
	<line fill="none" stroke="#000000" stroke-miterlimit="10" x1="18" y1="12" x2="22" y2="8"/>
	<line fill="none" stroke="#000000" stroke-miterlimit="10" x1="20" y1="14" x2="24" y2="10"/>
	<circle fill="none" stroke="#000000" stroke-width="2" stroke-miterlimit="10" cx="48" cy="16" r="10"/>
	<circle fill="none" stroke="#000000" stroke-width="2" stroke-miterlimit="10" cx="48" cy="16" r="4"/>
	<line fill="none" stroke="#000000" stroke-miterlimit="10" x1="44" y1="14" x2="40" y2="10"/>
	<line fill="none" stroke="#000000" stroke-miterlimit="10" x1="46" y1="12" x2="42" y2="8"/>
	<line fill="none" stroke="#000000" stroke-miterlimit="10" x1="46" y1="20" x2="42" y2="24"/>
	<line fill="none" stroke="#000000" stroke-miterlimit="10" x1="44" y1="18" x2="40" y2="22"/>
	<line fill="none" stroke="#000000" stroke-miterlimit="10" x1="52" y1="18" x2="56" y2="22"/>
	<line fill="none" stroke="#000000" stroke-miterlimit="10" x1="50" y1="20" x2="54" y2="24"/>
	<line fill="none" stroke="#000000" stroke-miterlimit="10" x1="50" y1="12" x2="54" y2="8"/>
	<line fill="none" stroke="#000000" stroke-miterlimit="10" x1="52" y1="14" x2="56" y2="10"/>
	<circle fill="none" stroke="#000000" stroke-width="2" stroke-miterlimit="10" cx="80" cy="16" r="10"/>
	<circle fill="none" stroke="#000000" stroke-width="2" stroke-miterlimit="10" cx="80" cy="16" r="4"/>
	<line fill="none" stroke="#000000" stroke-miterlimit="10" x1="76" y1="14" x2="72" y2="10"/>
	<line fill="none" stroke="#000000" stroke-miterlimit="10" x1="78" y1="12" x2="74" y2="8"/>
	<line fill="none" stroke="#000000" stroke-miterlimit="10" x1="78" y1="20" x2="74" y2="24"/>
	<line fill="none" stroke="#000000" stroke-miterlimit="10" x1="76" y1="18" x2="72" y2="22"/>
	<line fill="none" stroke="#000000" stroke-miterlimit="10" x1="84" y1="18" x2="88" y2="22"/>
	<line fill="none" stroke="#000000" stroke-miterlimit="10" x1="82" y1="20" x2="86" y2="24"/>
	<line fill="none" stroke="#000000" stroke-miterlimit="10" x1="82" y1="12" x2="86" y2="8"/>
	<line fill="none" stroke="#000000" stroke-miterlimit="10" x1="84" y1="14" x2="88" y2="10"/>
	<circle fill="none" stroke="#000000" stroke-width="2" stroke-miterlimit="10" cx="112" cy="16" r="10"/>
	<circle fill="none" stroke="#000000" stroke-width="2" stroke-miterlimit="10" cx="112" cy="16" r="4"/>
	<line fill="none" stroke="#000000" stroke-miterlimit="10" x1="108" y1="14" x2="104" y2="10"/>
	<line fill="none" stroke="#000000" stroke-miterlimit="10" x1="110" y1="12" x2="106" y2="8"/>
	<line fill="none" stroke="#000000" stroke-miterlimit="10" x1="110" y1="20" x2="106" y2="24"/>
	<line fill="none" stroke="#000000" stroke-miterlimit="10" x1="108" y1="18" x2="104" y2="22"/>
	<line fill="none" stroke="#000000" stroke-miterlimit="10" x1="116" y1="18" x2="120" y2="22"/>
	<line fill="none" stroke="#000000" stroke-miterlimit="10" x1="114" y1="20" x2="118" y2="24"/>
	<line fill="none" stroke="#000000" stroke-miterlimit="10" x1="114" y1="12" x2="118" y2="8"/>
	<line fill="none" stroke="#000000" stroke-miterlimit="10" x1="116" y1="14" x2="120" y2="10"/>
	<circle fill="none" stroke="#000000" stroke-width="2" stroke-miterlimit="10" cx="144" cy="16" r="10"/>
	<circle fill="none" stroke="#000000" stroke-width="2" stroke-miterlimit="10" cx="144" cy="16" r="4"/>
	<line fill="none" stroke="#000000" stroke-miterlimit="10" x1="140" y1="14" x2="136" y2="10"/>
	<line fill="none" stroke="#000000" stroke-miterlimit="10" x1="142" y1="12" x2="138" y2="8"/>
	<line fill="none" stroke="#000000" stroke-miterlimit="10" x1="142" y1="20" x2="138" y2="24"/>
	<line fill="none" stroke="#000000" stroke-miterlimit="10" x1="140" y1="18" x2="136" y2="22"/>
	<line fill="none" stroke="#000000" stroke-miterlimit="10" x1="148" y1="18" x2="152" y2="22"/>
	<line fill="none" stroke="#000000" stroke-miterlimit="10" x1="146" y1="20" x2="150" y2="24"/>
	<line fill="none" stroke="#000000" stroke-miterlimit="10" x1="146" y1="12" x2="150" y2="8"/>
	<line fill="none" stroke="#000000" stroke-miterlimit="10" x1="148" y1="14" x2="152" y2="10"/>
	<circle fill="none" stroke="#000000" stroke-width="2" stroke-miterlimit="10" cx="176" cy="16" r="10"/>
	<circle fill="none" stroke="#000000" stroke-width="2" stroke-miterlimit="10" cx="176" cy="16" r="4"/>
	<line fill="none" stroke="#000000" stroke-miterlimit="10" x1="172" y1="14" x2="168" y2="10"/>
	<line fill="none" stroke="#000000" stroke-miterlimit="10" x1="174" y1="12" x2="170" y2="8"/>
	<line fill="none" stroke="#000000" stroke-miterlimit="10" x1="174" y1="20" x2="170" y2="24"/>
	<line fill="none" stroke="#000000" stroke-miterlimit="10" x1="172" y1="18" x2="168" y2="22"/>
	<line fill="none" stroke="#000000" stroke-miterlimit="10" x1="180" y1="18" x2="184" y2="22"/>
	<line fill="none" stroke="#000000" stroke-miterlimit="10" x1="178" y1="20" x2="182" y2="24"/>
	<line fill="none" stroke="#000000" stroke-miterlimit="10" x1="178" y1="12" x2="182" y2="8"/>
	<line fill="none" stroke="#000000" stroke-miterlimit="10" x1="180" y1="14" x2="184" y2="10"/>
	<circle fill="none" stroke="#000000" stroke-width="2" stroke-miterlimit="10" cx="208" cy="16" r="10"/>
	<circle fill="none" stroke="#000000" stroke-width="2" stroke-miterlimit="10" cx="208" cy="16" r="4"/>
	<line fill="none" stroke="#000000" stroke-miterlimit="10" x1="204" y1="14" x2="200" y2="10"/>
	<line fill="none" stroke="#000000" stroke-miterlimit="10" x1="206" y1="12" x2="202" y2="8"/>
	<line fill="none" stroke="#000000" stroke-miterlimit="10" x1="206" y1="20" x2="202" y2="24"/>
	<line fill="none" stroke="#000000" stroke-miterlimit="10" x1="204" y1="18" x2="200" y2="22"/>
	<line fill="none" stroke="#000000" stroke-miterlimit="10" x1="212" y1="18" x2="216" y2="22"/>
	<line fill="none" stroke="#000000" stroke-miterlimit="10" x1="210" y1="20" x2="214" y2="24"/>
	<line fill="none" stroke="#000000" stroke-miterlimit="10" x1="210" y1="12" x2="214" y2="8"/>
	<line fill="none" stroke="#000000" stroke-miterlimit="10" x1="212" y1="14" x2="216" y2="10"/>
	<circle fill="none" stroke="#000000" stroke-width="2" stroke-miterlimit="10" cx="240" cy="16" r="10"/>
	<circle fill="none" stroke="#000000" stroke-width="2" stroke-miterlimit="10" cx="240" cy="16" r="4"/>
	<line fill="none" stroke="#000000" stroke-miterlimit="10" x1="236" y1="14" x2="232" y2="10"/>
	<line fill="none" stroke="#000000" stroke-miterlimit="10" x1="238" y1="12" x2="234" y2="8"/>
	<line fill="none" stroke="#000000" stroke-miterlimit="10" x1="238" y1="20" x2="234" y2="24"/>
	<line fill="none" stroke="#000000" stroke-miterlimit="10" x1="236" y1="18" x2="232" y2="22"/>
	<line fill="none" stroke="#000000" stroke-miterlimit="10" x1="244" y1="18" x2="248" y2="22"/>
	<line fill="none" stroke="#000000" stroke-miterlimit="10" x1="242" y1="20" x2="246" y2="24"/>
	<line fill="none" stroke="#000000" stroke-miterlimit="10" x1="242" y1="12" x2="246" y2="8"/>
	<line fill="none" stroke="#000000" stroke-miterlimit="10" x1="244" y1="14" x2="248" y2="10"/>
	<circle fill="none" stroke="#000000" stroke-width="2" stroke-miterlimit="10" cx="272" cy="16" r="10"/>
	<circle fill="none" stroke="#000000" stroke-width="2" stroke-miterlimit="10" cx="272" cy="16" r="4"/>
	<line fill="none" stroke="#000000" stroke-miterlimit="10" x1="268" y1="14" x2="264" y2="10"/>
	<line fill="none" stroke="#000000" stroke-miterlimit="10" x1="270" y1="12" x2="266" y2="8"/>
	<line fill="none" stroke="#000000" stroke-miterlimit="10" x1="270" y1="20" x2="266" y2="24"/>
	<line fill="none" stroke="#000000" stroke-miterlimit="10" x1="268" y1="18" x2="264" y2="22"/>
	<line fill="none" stroke="#000000" stroke-miterlimit="10" x1="276" y1="18" x2="280" y2="22"/>
	<line fill="none" stroke="#000000" stroke-miterlimit="10" x1="274" y1="20" x2="278" y2="24"/>
	<line fill="none" stroke="#000000" stroke-miterlimit="10" x1="274" y1="12" x2="278" y2="8"/>
	<line fill="none" stroke="#000000" stroke-miterlimit="10" x1="276" y1="14" x2="280" y2="10"/>
	<circle fill="none" stroke="#000000" stroke-width="2" stroke-miterlimit="10" cx="304" cy="16" r="10"/>
	<circle fill="none" stroke="#000000" stroke-width="2" stroke-miterlimit="10" cx="304" cy="16" r="4"/>
	<line fill="none" stroke="#000000" stroke-miterlimit="10" x1="300" y1="14" x2="296" y2="10"/>
	<line fill="none" stroke="#000000" stroke-miterlimit="10" x1="302" y1="12" x2="298" y2="8"/>
	<line fill="none" stroke="#000000" stroke-miterlimit="10" x1="302" y1="20" x2="298" y2="24"/>
	<line fill="none" stroke="#000000" stroke-miterlimit="10" x1="300" y1="18" x2="296" y2="22"/>
	<line fill="none" stroke="#000000" stroke-miterlimit="10" x1="308" y1="18" x2="312" y2="22"/>
	<line fill="none" stroke="#000000" stroke-miterlimit="10" x1="306" y1="20" x2="310" y2="24"/>
	<line fill="none" stroke="#000000" stroke-miterlimit="10" x1="306" y1="12" x2="310" y2="8"/>
	<line fill="none" stroke="#000000" stroke-miterlimit="10" x1="308" y1="14" x2="312" y2="10"/>
	<circle fill="none" stroke="#000000" stroke-width="2" stroke-miterlimit="10" cx="336" cy="16" r="10"/>
	<circle fill="none" stroke="#000000" stroke-width="2" stroke-miterlimit="10" cx="336" cy="16" r="4"/>
	<line fill="none" stroke="#000000" stroke-miterlimit="10" x1="332" y1="14" x2="328" y2="10"/>
	<line fill="none" stroke="#000000" stroke-miterlimit="10" x1="334" y1="12" x2="330" y2="8"/>
	<line fill="none" stroke="#000000" stroke-miterlimit="10" x1="334" y1="20" x2="330" y2="24"/>
	<line fill="none" stroke="#000000" stroke-miterlimit="10" x1="332" y1="18" x2="328" y2="22"/>
	<line fill="none" stroke="#000000" stroke-miterlimit="10" x1="340" y1="18" x2="344" y2="22"/>
	<line fill="none" stroke="#000000" stroke-miterlimit="10" x1="338" y1="20" x2="342" y2="24"/>
	<line fill="none" stroke="#000000" stroke-miterlimit="10" x1="338" y1="12" x2="342" y2="8"/>
	<line fill="none" stroke="#000000" stroke-miterlimit="10" x1="340" y1="14" x2="344" y2="10"/>
	<circle fill="none" stroke="#000000" stroke-width="2" stroke-miterlimit="10" cx="368" cy="16" r="10"/>
	<circle fill="none" stroke="#000000" stroke-width="2" stroke-miterlimit="10" cx="368" cy="16" r="4"/>
	<line fill="none" stroke="#000000" stroke-miterlimit="10" x1="364" y1="14" x2="360" y2="10"/>
	<line fill="none" stroke="#000000" stroke-miterlimit="10" x1="366" y1="12" x2="362" y2="8"/>
	<line fill="none" stroke="#000000" stroke-miterlimit="10" x1="366" y1="20" x2="362" y2="24"/>
	<line fill="none" stroke="#000000" stroke-miterlimit="10" x1="364" y1="18" x2="360" y2="22"/>
	<line fill="none" stroke="#000000" stroke-miterlimit="10" x1="372" y1="18" x2="376" y2="22"/>
	<line fill="none" stroke="#000000" stroke-miterlimit="10" x1="370" y1="20" x2="374" y2="24"/>
	<line fill="none" stroke="#000000" stroke-miterlimit="10" x1="370" y1="12" x2="374" y2="8"/>
	<line fill="none" stroke="#000000" stroke-miterlimit="10" x1="372" y1="14" x2="376" y2="10"/>
	<circle fill="none" stroke="#000000" stroke-width="2" stroke-miterlimit="10" cx="400" cy="16" r="10"/>
	<circle fill="none" stroke="#000000" stroke-width="2" stroke-miterlimit="10" cx="400" cy="16" r="4"/>
	<line fill="none" stroke="#000000" stroke-miterlimit="10" x1="396" y1="14" x2="392" y2="10"/>
	<line fill="none" stroke="#000000" stroke-miterlimit="10" x1="398" y1="12" x2="394" y2="8"/>
	<line fill="none" stroke="#000000" stroke-miterlimit="10" x1="398" y1="20" x2="394" y2="24"/>
	<line fill="none" stroke="#000000" stroke-miterlimit="10" x1="396" y1="18" x2="392" y2="22"/>
	<line fill="none" stroke="#000000" stroke-miterlimit="10" x1="404" y1="18" x2="408" y2="22"/>
	<line fill="none" stroke="#000000" stroke-miterlimit="10" x1="402" y1="20" x2="406" y2="24"/>
	<line fill="none" stroke="#000000" stroke-miterlimit="10" x1="402" y1="12" x2="406" y2="8"/>
	<line fill="none" stroke="#000000" stroke-miterlimit="10" x1="404" y1="14" x2="408" y2="10"/>
	<circle fill="none" stroke="#000000" stroke-width="2" stroke-miterlimit="10" cx="432" cy="16" r="10"/>
	<circle fill="none" stroke="#000000" stroke-width="2" stroke-miterlimit="10" cx="432" cy="16" r="4"/>
	<line fill="none" stroke="#000000" stroke-miterlimit="10" x1="428" y1="14" x2="424" y2="10"/>
	<line fill="none" stroke="#000000" stroke-miterlimit="10" x1="430" y1="12" x2="426" y2="8"/>
	<line fill="none" stroke="#000000" stroke-miterlimit="10" x1="430" y1="20" x2="426" y2="24"/>
	<line fill="none" stroke="#000000" stroke-miterlimit="10" x1="428" y1="18" x2="424" y2="22"/>
	<line fill="none" stroke="#000000" stroke-miterlimit="10" x1="436" y1="18" x2="440" y2="22"/>
	<line fill="none" stroke="#000000" stroke-miterlimit="10" x1="434" y1="20" x2="438" y2="24"/>
	<line fill="none" stroke="#000000" stroke-miterlimit="10" x1="434" y1="12" x2="438" y2="8"/>
	<line fill="none" stroke="#000000" stroke-miterlimit="10" x1="436" y1="14" x2="440" y2="10"/>
	<circle fill="none" stroke="#000000" stroke-width="2" stroke-miterlimit="10" cx="464" cy="16" r="10"/>
	<circle fill="none" stroke="#000000" stroke-width="2" stroke-miterlimit="10" cx="464" cy="16" r="4"/>
	<line fill="none" stroke="#000000" stroke-miterlimit="10" x1="460" y1="14" x2="456" y2="10"/>
	<line fill="none" stroke="#000000" stroke-miterlimit="10" x1="462" y1="12" x2="458" y2="8"/>
	<line fill="none" stroke="#000000" stroke-miterlimit="10" x1="462" y1="20" x2="458" y2="24"/>
	<line fill="none" stroke="#000000" stroke-miterlimit="10" x1="460" y1="18" x2="456" y2="22"/>
	<line fill="none" stroke="#000000" stroke-miterlimit="10" x1="468" y1="18" x2="472" y2="22"/>
	<line fill="none" stroke="#000000" stroke-miterlimit="10" x1="466" y1="20" x2="470" y2="24"/>
	<line fill="none" stroke="#000000" stroke-miterlimit="10" x1="466" y1="12" x2="470" y2="8"/>
	<line fill="none" stroke="#000000" stroke-miterlimit="10" x1="468" y1="14" x2="472" y2="10"/>
	<circle fill="none" stroke="#000000" stroke-width="2" stroke-miterlimit="10" cx="496" cy="16" r="10"/>
	<circle fill="none" stroke="#000000" stroke-width="2" stroke-miterlimit="10" cx="496" cy="16" r="4"/>
	<line fill="none" stroke="#000000" stroke-miterlimit="10" x1="492" y1="14" x2="488" y2="10"/>
	<line fill="none" stroke="#000000" stroke-miterlimit="10" x1="494" y1="12" x2="490" y2="8"/>
	<line fill="none" stroke="#000000" stroke-miterlimit="10" x1="494" y1="20" x2="490" y2="24"/>
	<line fill="none" stroke="#000000" stroke-miterlimit="10" x1="492" y1="18" x2="488" y2="22"/>
	<line fill="none" stroke="#000000" stroke-miterlimit="10" x1="500" y1="18" x2="504" y2="22"/>
	<line fill="none" stroke="#000000" stroke-miterlimit="10" x1="498" y1="20" x2="502" y2="24"/>
	<line fill="none" stroke="#000000" stroke-miterlimit="10" x1="498" y1="12" x2="502" y2="8"/>
	<line fill="none" stroke="#000000" stroke-miterlimit="10" x1="500" y1="14" x2="504" y2="10"/>
</g>
<g id="Layer_4">
</g>
</svg>
