<?xml version="1.0" encoding="iso-8859-1"?>
<!-- Generator: Adobe Illustrator 16.2.1, SVG Export Plug-In . SVG Version: 6.00 Build 0)  -->
<!DOCTYPE svg PUBLIC "-//W3C//DTD SVG 1.1 Tiny//EN" "http://www.w3.org/Graphics/SVG/1.1/DTD/svg11-tiny.dtd">
<svg version="1.1" baseProfile="tiny" xmlns="http://www.w3.org/2000/svg" xmlns:xlink="http://www.w3.org/1999/xlink" x="0px"
	 y="0px" width="512px" height="32px" viewBox="0 0 512 32" xml:space="preserve">
<g id="Layer_2_copy">
</g>
<g id="Layer_2">
</g>
<g id="Layer_1">
	<g>
		<path d="M25,25H9c-1.654,0-3-1.346-3-3v-9c0-1.654,1.346-3,3-3h2.586l1-1C13.165,8.421,14.182,8,15,8h4
			c0.818,0,1.835,0.421,2.414,1l1,1H25c1.654,0,3,1.346,3,3v9C28,23.654,26.654,25,25,25z M9,12c-0.552,0-1,0.448-1,1v9
			c0,0.552,0.448,1,1,1h16c0.552,0,1-0.448,1-1v-9c0-0.552-0.448-1-1-1h-3c-0.266,0-0.52-0.105-0.707-0.293L20,10.414
			C19.799,10.213,19.285,10,19,10h-4c-0.285,0-0.799,0.213-1,0.414l-1.293,1.293C12.52,11.895,12.266,12,12,12H9z"/>
	</g>
	<circle fill="none" stroke="#000000" stroke-miterlimit="10" cx="17" cy="17.5" r="3.5"/>
	<path d="M11,20c0,0.55-0.45,1-1,1H8c-0.55,0-1-0.45-1-1v-5c0-0.55,0.45-1,1-1h2c0.55,0,1,0.45,1,1V20z"/>
	<path d="M27,20c0,0.55-0.45,1-1,1h-2c-0.55,0-1-0.45-1-1v-5c0-0.55,0.45-1,1-1h2c0.55,0,1,0.45,1,1V20z"/>
	<rect x="16" y="11" width="2" height="1"/>
	<g>
		<path d="M57,25H41c-1.654,0-3-1.346-3-3v-9c0-1.654,1.346-3,3-3h2.586l1-1C45.165,8.421,46.182,8,47,8h4
			c0.818,0,1.835,0.421,2.414,1l1,1H57c1.654,0,3,1.346,3,3v9C60,23.654,58.654,25,57,25z M41,12c-0.552,0-1,0.448-1,1v9
			c0,0.552,0.448,1,1,1h16c0.552,0,1-0.448,1-1v-9c0-0.552-0.448-1-1-1h-3c-0.266,0-0.52-0.105-0.707-0.293L52,10.414
			C51.799,10.213,51.285,10,51,10h-4c-0.285,0-0.799,0.213-1,0.414l-1.293,1.293C44.52,11.895,44.266,12,44,12H41z"/>
	</g>
	<circle fill="none" stroke="#000000" stroke-miterlimit="10" cx="49" cy="17.5" r="3.5"/>
	<path d="M43,20c0,0.55-0.45,1-1,1h-2c-0.55,0-1-0.45-1-1v-5c0-0.55,0.45-1,1-1h2c0.55,0,1,0.45,1,1V20z"/>
	<path d="M59,20c0,0.55-0.45,1-1,1h-2c-0.55,0-1-0.45-1-1v-5c0-0.55,0.45-1,1-1h2c0.55,0,1,0.45,1,1V20z"/>
	<rect x="48" y="11" width="2" height="1"/>
	<g>
		<path d="M89,25H73c-1.654,0-3-1.346-3-3v-9c0-1.654,1.346-3,3-3h2.586l1-1C77.165,8.421,78.182,8,79,8h4
			c0.818,0,1.835,0.421,2.414,1l1,1H89c1.654,0,3,1.346,3,3v9C92,23.654,90.654,25,89,25z M73,12c-0.552,0-1,0.448-1,1v9
			c0,0.552,0.448,1,1,1h16c0.552,0,1-0.448,1-1v-9c0-0.552-0.448-1-1-1h-3c-0.266,0-0.52-0.105-0.707-0.293L84,10.414
			C83.799,10.213,83.285,10,83,10h-4c-0.285,0-0.799,0.213-1,0.414l-1.293,1.293C76.52,11.895,76.266,12,76,12H73z"/>
	</g>
	<circle fill="none" stroke="#000000" stroke-miterlimit="10" cx="81" cy="17.5" r="3.5"/>
	<path d="M75,20c0,0.55-0.45,1-1,1h-2c-0.55,0-1-0.45-1-1v-5c0-0.55,0.45-1,1-1h2c0.55,0,1,0.45,1,1V20z"/>
	<path d="M91,20c0,0.55-0.45,1-1,1h-2c-0.55,0-1-0.45-1-1v-5c0-0.55,0.45-1,1-1h2c0.55,0,1,0.45,1,1V20z"/>
	<rect x="80" y="11" width="2" height="1"/>
	<g>
		<path d="M121,25h-16c-1.654,0-3-1.346-3-3v-9c0-1.654,1.346-3,3-3h2.586l1-1c0.579-0.579,1.596-1,2.414-1h4
			c0.818,0,1.835,0.421,2.414,1l1,1H121c1.654,0,3,1.346,3,3v9C124,23.654,122.654,25,121,25z M105,12c-0.552,0-1,0.448-1,1v9
			c0,0.552,0.448,1,1,1h16c0.552,0,1-0.448,1-1v-9c0-0.552-0.448-1-1-1h-3c-0.266,0-0.52-0.105-0.707-0.293L116,10.414
			c-0.201-0.201-0.715-0.414-1-0.414h-4c-0.285,0-0.799,0.213-1,0.414l-1.293,1.293C108.52,11.895,108.266,12,108,12H105z"/>
	</g>
	<circle fill="none" stroke="#000000" stroke-miterlimit="10" cx="113" cy="17.5" r="3.5"/>
	<path d="M107,20c0,0.55-0.45,1-1,1h-2c-0.55,0-1-0.45-1-1v-5c0-0.55,0.45-1,1-1h2c0.55,0,1,0.45,1,1V20z"/>
	<path d="M123,20c0,0.55-0.45,1-1,1h-2c-0.55,0-1-0.45-1-1v-5c0-0.55,0.45-1,1-1h2c0.55,0,1,0.45,1,1V20z"/>
	<rect x="112" y="11" width="2" height="1"/>
	<g>
		<path d="M153,25h-16c-1.654,0-3-1.346-3-3v-9c0-1.654,1.346-3,3-3h2.586l1-1c0.579-0.579,1.596-1,2.414-1h4
			c0.818,0,1.835,0.421,2.414,1l1,1H153c1.654,0,3,1.346,3,3v9C156,23.654,154.654,25,153,25z M137,12c-0.552,0-1,0.448-1,1v9
			c0,0.552,0.448,1,1,1h16c0.552,0,1-0.448,1-1v-9c0-0.552-0.448-1-1-1h-3c-0.266,0-0.52-0.105-0.707-0.293L148,10.414
			c-0.201-0.201-0.715-0.414-1-0.414h-4c-0.285,0-0.799,0.213-1,0.414l-1.293,1.293C140.52,11.895,140.266,12,140,12H137z"/>
	</g>
	<circle fill="none" stroke="#000000" stroke-miterlimit="10" cx="145" cy="17.5" r="3.5"/>
	<path d="M139,20c0,0.55-0.45,1-1,1h-2c-0.55,0-1-0.45-1-1v-5c0-0.55,0.45-1,1-1h2c0.55,0,1,0.45,1,1V20z"/>
	<path d="M155,20c0,0.55-0.45,1-1,1h-2c-0.55,0-1-0.45-1-1v-5c0-0.55,0.45-1,1-1h2c0.55,0,1,0.45,1,1V20z"/>
	<rect x="144" y="11" width="2" height="1"/>
	<g>
		<path d="M185,25h-16c-1.654,0-3-1.346-3-3v-9c0-1.654,1.346-3,3-3h2.586l1-1c0.579-0.579,1.596-1,2.414-1h4
			c0.818,0,1.835,0.421,2.414,1l1,1H185c1.654,0,3,1.346,3,3v9C188,23.654,186.654,25,185,25z M169,12c-0.552,0-1,0.448-1,1v9
			c0,0.552,0.448,1,1,1h16c0.552,0,1-0.448,1-1v-9c0-0.552-0.448-1-1-1h-3c-0.266,0-0.52-0.105-0.707-0.293L180,10.414
			c-0.201-0.201-0.715-0.414-1-0.414h-4c-0.285,0-0.799,0.213-1,0.414l-1.293,1.293C172.52,11.895,172.266,12,172,12H169z"/>
	</g>
	<circle fill="none" stroke="#000000" stroke-miterlimit="10" cx="177" cy="17.5" r="3.5"/>
	<path d="M171,20c0,0.55-0.45,1-1,1h-2c-0.55,0-1-0.45-1-1v-5c0-0.55,0.45-1,1-1h2c0.55,0,1,0.45,1,1V20z"/>
	<path d="M187,20c0,0.55-0.45,1-1,1h-2c-0.55,0-1-0.45-1-1v-5c0-0.55,0.45-1,1-1h2c0.55,0,1,0.45,1,1V20z"/>
	<rect x="176" y="11" width="2" height="1"/>
	<g>
		<path d="M217,25h-16c-1.654,0-3-1.346-3-3v-9c0-1.654,1.346-3,3-3h2.586l1-1c0.579-0.579,1.596-1,2.414-1h4
			c0.818,0,1.835,0.421,2.414,1l1,1H217c1.654,0,3,1.346,3,3v9C220,23.654,218.654,25,217,25z M201,12c-0.552,0-1,0.448-1,1v9
			c0,0.552,0.448,1,1,1h16c0.552,0,1-0.448,1-1v-9c0-0.552-0.448-1-1-1h-3c-0.266,0-0.52-0.105-0.707-0.293L212,10.414
			c-0.201-0.201-0.715-0.414-1-0.414h-4c-0.285,0-0.799,0.213-1,0.414l-1.293,1.293C204.52,11.895,204.266,12,204,12H201z"/>
	</g>
	<circle fill="none" stroke="#000000" stroke-miterlimit="10" cx="209" cy="17.5" r="3.5"/>
	<path d="M203,20c0,0.55-0.45,1-1,1h-2c-0.55,0-1-0.45-1-1v-5c0-0.55,0.45-1,1-1h2c0.55,0,1,0.45,1,1V20z"/>
	<path d="M219,20c0,0.55-0.45,1-1,1h-2c-0.55,0-1-0.45-1-1v-5c0-0.55,0.45-1,1-1h2c0.55,0,1,0.45,1,1V20z"/>
	<rect x="208" y="11" width="2" height="1"/>
	<g>
		<path d="M249,25h-16c-1.654,0-3-1.346-3-3v-9c0-1.654,1.346-3,3-3h2.586l1-1c0.579-0.579,1.596-1,2.414-1h4
			c0.818,0,1.835,0.421,2.414,1l1,1H249c1.654,0,3,1.346,3,3v9C252,23.654,250.654,25,249,25z M233,12c-0.552,0-1,0.448-1,1v9
			c0,0.552,0.448,1,1,1h16c0.552,0,1-0.448,1-1v-9c0-0.552-0.448-1-1-1h-3c-0.266,0-0.52-0.105-0.707-0.293L244,10.414
			c-0.201-0.201-0.715-0.414-1-0.414h-4c-0.285,0-0.799,0.213-1,0.414l-1.293,1.293C236.52,11.895,236.266,12,236,12H233z"/>
	</g>
	<circle fill="none" stroke="#000000" stroke-miterlimit="10" cx="241" cy="17.5" r="3.5"/>
	<path d="M235,20c0,0.55-0.45,1-1,1h-2c-0.55,0-1-0.45-1-1v-5c0-0.55,0.45-1,1-1h2c0.55,0,1,0.45,1,1V20z"/>
	<path d="M251,20c0,0.55-0.45,1-1,1h-2c-0.55,0-1-0.45-1-1v-5c0-0.55,0.45-1,1-1h2c0.55,0,1,0.45,1,1V20z"/>
	<rect x="240" y="11" width="2" height="1"/>
	<g>
		<path d="M281,25h-16c-1.654,0-3-1.346-3-3v-9c0-1.654,1.346-3,3-3h2.586l1-1c0.579-0.579,1.596-1,2.414-1h4
			c0.818,0,1.835,0.421,2.414,1l1,1H281c1.654,0,3,1.346,3,3v9C284,23.654,282.654,25,281,25z M265,12c-0.552,0-1,0.448-1,1v9
			c0,0.552,0.448,1,1,1h16c0.552,0,1-0.448,1-1v-9c0-0.552-0.448-1-1-1h-3c-0.266,0-0.52-0.105-0.707-0.293L276,10.414
			c-0.201-0.201-0.715-0.414-1-0.414h-4c-0.285,0-0.799,0.213-1,0.414l-1.293,1.293C268.52,11.895,268.266,12,268,12H265z"/>
	</g>
	<circle fill="none" stroke="#000000" stroke-miterlimit="10" cx="273" cy="17.5" r="3.5"/>
	<path d="M267,20c0,0.55-0.45,1-1,1h-2c-0.55,0-1-0.45-1-1v-5c0-0.55,0.45-1,1-1h2c0.55,0,1,0.45,1,1V20z"/>
	<path d="M283,20c0,0.55-0.45,1-1,1h-2c-0.55,0-1-0.45-1-1v-5c0-0.55,0.45-1,1-1h2c0.55,0,1,0.45,1,1V20z"/>
	<rect x="272" y="11" width="2" height="1"/>
	<g>
		<path d="M313,25h-16c-1.654,0-3-1.346-3-3v-9c0-1.654,1.346-3,3-3h2.586l1-1c0.579-0.579,1.596-1,2.414-1h4
			c0.818,0,1.835,0.421,2.414,1l1,1H313c1.654,0,3,1.346,3,3v9C316,23.654,314.654,25,313,25z M297,12c-0.552,0-1,0.448-1,1v9
			c0,0.552,0.448,1,1,1h16c0.552,0,1-0.448,1-1v-9c0-0.552-0.448-1-1-1h-3c-0.266,0-0.52-0.105-0.707-0.293L308,10.414
			c-0.201-0.201-0.715-0.414-1-0.414h-4c-0.285,0-0.799,0.213-1,0.414l-1.293,1.293C300.52,11.895,300.266,12,300,12H297z"/>
	</g>
	<circle fill="none" stroke="#000000" stroke-miterlimit="10" cx="305" cy="17.5" r="3.5"/>
	<path d="M299,20c0,0.55-0.45,1-1,1h-2c-0.55,0-1-0.45-1-1v-5c0-0.55,0.45-1,1-1h2c0.55,0,1,0.45,1,1V20z"/>
	<path d="M315,20c0,0.55-0.45,1-1,1h-2c-0.55,0-1-0.45-1-1v-5c0-0.55,0.45-1,1-1h2c0.55,0,1,0.45,1,1V20z"/>
	<rect x="304" y="11" width="2" height="1"/>
	<g>
		<path d="M345,25h-16c-1.654,0-3-1.346-3-3v-9c0-1.654,1.346-3,3-3h2.586l1-1c0.579-0.579,1.596-1,2.414-1h4
			c0.818,0,1.835,0.421,2.414,1l1,1H345c1.654,0,3,1.346,3,3v9C348,23.654,346.654,25,345,25z M329,12c-0.552,0-1,0.448-1,1v9
			c0,0.552,0.448,1,1,1h16c0.552,0,1-0.448,1-1v-9c0-0.552-0.448-1-1-1h-3c-0.266,0-0.52-0.105-0.707-0.293L340,10.414
			c-0.201-0.201-0.715-0.414-1-0.414h-4c-0.285,0-0.799,0.213-1,0.414l-1.293,1.293C332.52,11.895,332.266,12,332,12H329z"/>
	</g>
	<circle fill="none" stroke="#000000" stroke-miterlimit="10" cx="337" cy="17.5" r="3.5"/>
	<path d="M331,20c0,0.55-0.45,1-1,1h-2c-0.55,0-1-0.45-1-1v-5c0-0.55,0.45-1,1-1h2c0.55,0,1,0.45,1,1V20z"/>
	<path d="M347,20c0,0.55-0.45,1-1,1h-2c-0.55,0-1-0.45-1-1v-5c0-0.55,0.45-1,1-1h2c0.55,0,1,0.45,1,1V20z"/>
	<rect x="336" y="11" width="2" height="1"/>
	<g>
		<path d="M377,25h-16c-1.654,0-3-1.346-3-3v-9c0-1.654,1.346-3,3-3h2.586l1-1c0.579-0.579,1.596-1,2.414-1h4
			c0.818,0,1.835,0.421,2.414,1l1,1H377c1.654,0,3,1.346,3,3v9C380,23.654,378.654,25,377,25z M361,12c-0.552,0-1,0.448-1,1v9
			c0,0.552,0.448,1,1,1h16c0.552,0,1-0.448,1-1v-9c0-0.552-0.448-1-1-1h-3c-0.266,0-0.52-0.105-0.707-0.293L372,10.414
			c-0.201-0.201-0.715-0.414-1-0.414h-4c-0.285,0-0.799,0.213-1,0.414l-1.293,1.293C364.52,11.895,364.266,12,364,12H361z"/>
	</g>
	<circle fill="none" stroke="#000000" stroke-miterlimit="10" cx="369" cy="17.5" r="3.5"/>
	<path d="M363,20c0,0.55-0.45,1-1,1h-2c-0.55,0-1-0.45-1-1v-5c0-0.55,0.45-1,1-1h2c0.55,0,1,0.45,1,1V20z"/>
	<path d="M379,20c0,0.55-0.45,1-1,1h-2c-0.55,0-1-0.45-1-1v-5c0-0.55,0.45-1,1-1h2c0.55,0,1,0.45,1,1V20z"/>
	<rect x="368" y="11" width="2" height="1"/>
	<g>
		<path d="M409,25h-16c-1.654,0-3-1.346-3-3v-9c0-1.654,1.346-3,3-3h2.586l1-1c0.579-0.579,1.596-1,2.414-1h4
			c0.818,0,1.835,0.421,2.414,1l1,1H409c1.654,0,3,1.346,3,3v9C412,23.654,410.654,25,409,25z M393,12c-0.552,0-1,0.448-1,1v9
			c0,0.552,0.448,1,1,1h16c0.552,0,1-0.448,1-1v-9c0-0.552-0.448-1-1-1h-3c-0.266,0-0.52-0.105-0.707-0.293L404,10.414
			c-0.201-0.201-0.715-0.414-1-0.414h-4c-0.285,0-0.799,0.213-1,0.414l-1.293,1.293C396.52,11.895,396.266,12,396,12H393z"/>
	</g>
	<circle fill="none" stroke="#000000" stroke-miterlimit="10" cx="401" cy="17.5" r="3.5"/>
	<path d="M395,20c0,0.55-0.45,1-1,1h-2c-0.55,0-1-0.45-1-1v-5c0-0.55,0.45-1,1-1h2c0.55,0,1,0.45,1,1V20z"/>
	<path d="M411,20c0,0.55-0.45,1-1,1h-2c-0.55,0-1-0.45-1-1v-5c0-0.55,0.45-1,1-1h2c0.55,0,1,0.45,1,1V20z"/>
	<rect x="400" y="11" width="2" height="1"/>
	<g>
		<path d="M441,25h-16c-1.654,0-3-1.346-3-3v-9c0-1.654,1.346-3,3-3h2.586l1-1c0.579-0.579,1.596-1,2.414-1h4
			c0.818,0,1.835,0.421,2.414,1l1,1H441c1.654,0,3,1.346,3,3v9C444,23.654,442.654,25,441,25z M425,12c-0.552,0-1,0.448-1,1v9
			c0,0.552,0.448,1,1,1h16c0.552,0,1-0.448,1-1v-9c0-0.552-0.448-1-1-1h-3c-0.266,0-0.52-0.105-0.707-0.293L436,10.414
			c-0.201-0.201-0.715-0.414-1-0.414h-4c-0.285,0-0.799,0.213-1,0.414l-1.293,1.293C428.52,11.895,428.266,12,428,12H425z"/>
	</g>
	<circle fill="none" stroke="#000000" stroke-miterlimit="10" cx="433" cy="17.5" r="3.5"/>
	<path d="M427,20c0,0.55-0.45,1-1,1h-2c-0.55,0-1-0.45-1-1v-5c0-0.55,0.45-1,1-1h2c0.55,0,1,0.45,1,1V20z"/>
	<path d="M443,20c0,0.55-0.45,1-1,1h-2c-0.55,0-1-0.45-1-1v-5c0-0.55,0.45-1,1-1h2c0.55,0,1,0.45,1,1V20z"/>
	<rect x="432" y="11" width="2" height="1"/>
	<g>
		<path d="M473,25h-16c-1.654,0-3-1.346-3-3v-9c0-1.654,1.346-3,3-3h2.586l1-1c0.579-0.579,1.596-1,2.414-1h4
			c0.818,0,1.835,0.421,2.414,1l1,1H473c1.654,0,3,1.346,3,3v9C476,23.654,474.654,25,473,25z M457,12c-0.552,0-1,0.448-1,1v9
			c0,0.552,0.448,1,1,1h16c0.552,0,1-0.448,1-1v-9c0-0.552-0.448-1-1-1h-3c-0.266,0-0.52-0.105-0.707-0.293L468,10.414
			c-0.201-0.201-0.715-0.414-1-0.414h-4c-0.285,0-0.799,0.213-1,0.414l-1.293,1.293C460.52,11.895,460.266,12,460,12H457z"/>
	</g>
	<circle fill="none" stroke="#000000" stroke-miterlimit="10" cx="465" cy="17.5" r="3.5"/>
	<path d="M459,20c0,0.55-0.45,1-1,1h-2c-0.55,0-1-0.45-1-1v-5c0-0.55,0.45-1,1-1h2c0.55,0,1,0.45,1,1V20z"/>
	<path d="M475,20c0,0.55-0.45,1-1,1h-2c-0.55,0-1-0.45-1-1v-5c0-0.55,0.45-1,1-1h2c0.55,0,1,0.45,1,1V20z"/>
	<rect x="464" y="11" width="2" height="1"/>
	<g>
		<path d="M505,25h-16c-1.654,0-3-1.346-3-3v-9c0-1.654,1.346-3,3-3h2.586l1-1c0.579-0.579,1.596-1,2.414-1h4
			c0.818,0,1.835,0.421,2.414,1l1,1H505c1.654,0,3,1.346,3,3v9C508,23.654,506.654,25,505,25z M489,12c-0.552,0-1,0.448-1,1v9
			c0,0.552,0.448,1,1,1h16c0.552,0,1-0.448,1-1v-9c0-0.552-0.448-1-1-1h-3c-0.266,0-0.52-0.105-0.707-0.293L500,10.414
			c-0.201-0.201-0.715-0.414-1-0.414h-4c-0.285,0-0.799,0.213-1,0.414l-1.293,1.293C492.52,11.895,492.266,12,492,12H489z"/>
	</g>
	<circle fill="none" stroke="#000000" stroke-miterlimit="10" cx="497" cy="17.5" r="3.5"/>
	<path d="M491,20c0,0.55-0.45,1-1,1h-2c-0.55,0-1-0.45-1-1v-5c0-0.55,0.45-1,1-1h2c0.55,0,1,0.45,1,1V20z"/>
	<path d="M507,20c0,0.55-0.45,1-1,1h-2c-0.55,0-1-0.45-1-1v-5c0-0.55,0.45-1,1-1h2c0.55,0,1,0.45,1,1V20z"/>
	<rect x="496" y="11" width="2" height="1"/>
</g>
<g id="Layer_4">
</g>
</svg>
