<?xml version="1.0" encoding="iso-8859-1"?>
<!-- Generator: Adobe Illustrator 16.2.1, SVG Export Plug-In . SVG Version: 6.00 Build 0)  -->
<!DOCTYPE svg PUBLIC "-//W3C//DTD SVG 1.1 Tiny//EN" "http://www.w3.org/Graphics/SVG/1.1/DTD/svg11-tiny.dtd">
<svg version="1.1" baseProfile="tiny" xmlns="http://www.w3.org/2000/svg" xmlns:xlink="http://www.w3.org/1999/xlink" x="0px"
	 y="0px" width="512px" height="32px" viewBox="0 0 512 32" xml:space="preserve">
<g id="Layer_2_copy">
</g>
<g id="Layer_2">
</g>
<g id="Layer_1">
	<path d="M21.603,9.437c-0.374-0.156-0.804-0.069-1.09,0.217c-1.264,1.262-3.321,1.264-4.586-0.001
		c-2.045-2.044-5.37-2.043-7.414,0.001C8.325,9.841,8.22,10.095,8.22,10.36v13c0,0.552,0.448,1,1,1s1-0.448,1-1v-4.553
		c1.271-0.998,3.121-0.911,4.293,0.26c2.045,2.043,5.371,2.043,7.414,0c0.188-0.188,0.293-0.442,0.293-0.707v-8
		C22.22,9.956,21.976,9.591,21.603,9.437z M14.513,11.067c1.541,1.539,3.808,1.918,5.707,1.139v2.311
		c-1.446,0.915-3.387,0.748-4.646-0.51c-1.447-1.447-3.598-1.744-5.354-0.928v-2.271C11.491,9.81,13.341,9.896,14.513,11.067z
		 M15.927,17.652c-1.022-1.021-2.365-1.532-3.707-1.532c-0.681,0-1.361,0.131-2,0.395v-2.311c1.446-0.916,3.387-0.75,4.646,0.51
		c0.925,0.924,2.139,1.386,3.354,1.386c0.687,0,1.366-0.164,2-0.459v2.272C18.948,18.909,17.098,18.823,15.927,17.652z"/>
	<path d="M53.603,9.437c-0.374-0.156-0.804-0.069-1.09,0.217c-1.264,1.262-3.321,1.264-4.586-0.001
		c-2.045-2.044-5.37-2.043-7.414,0.001c-0.188,0.188-0.293,0.441-0.293,0.707v13c0,0.552,0.448,1,1,1s1-0.448,1-1v-4.553
		c1.271-0.998,3.121-0.911,4.293,0.26c2.045,2.043,5.371,2.043,7.414,0c0.188-0.188,0.293-0.442,0.293-0.707v-8
		C54.22,9.956,53.976,9.591,53.603,9.437z M46.513,11.067c1.541,1.539,3.808,1.918,5.707,1.139v2.311
		c-1.446,0.915-3.387,0.748-4.646-0.51c-1.447-1.447-3.598-1.744-5.354-0.928v-2.271C43.491,9.81,45.341,9.896,46.513,11.067z
		 M47.927,17.652c-1.022-1.021-2.365-1.532-3.707-1.532c-0.681,0-1.361,0.131-2,0.395v-2.311c1.446-0.916,3.387-0.75,4.646,0.51
		c0.925,0.924,2.139,1.386,3.354,1.386c0.687,0,1.366-0.164,2-0.459v2.272C50.948,18.909,49.098,18.823,47.927,17.652z"/>
	<path d="M85.603,9.437c-0.374-0.156-0.804-0.069-1.09,0.217c-1.264,1.262-3.321,1.264-4.586-0.001
		c-2.045-2.044-5.37-2.043-7.414,0.001c-0.188,0.188-0.293,0.441-0.293,0.707v13c0,0.552,0.448,1,1,1s1-0.448,1-1v-4.553
		c1.271-0.998,3.121-0.911,4.293,0.26c2.045,2.043,5.371,2.043,7.414,0c0.188-0.188,0.293-0.442,0.293-0.707v-8
		C86.22,9.956,85.976,9.591,85.603,9.437z M78.513,11.067c1.541,1.539,3.808,1.918,5.707,1.139v2.311
		c-1.446,0.915-3.387,0.748-4.646-0.51c-1.447-1.447-3.598-1.744-5.354-0.928v-2.271C75.491,9.81,77.341,9.896,78.513,11.067z
		 M79.927,17.652c-1.022-1.021-2.365-1.532-3.707-1.532c-0.681,0-1.361,0.131-2,0.395v-2.311c1.446-0.916,3.387-0.75,4.646,0.51
		c0.925,0.924,2.139,1.386,3.354,1.386c0.687,0,1.366-0.164,2-0.459v2.272C82.948,18.909,81.098,18.823,79.927,17.652z"/>
	<path d="M117.603,9.437c-0.374-0.156-0.804-0.069-1.09,0.217c-1.264,1.262-3.321,1.264-4.586-0.001
		c-2.045-2.044-5.37-2.043-7.414,0.001c-0.188,0.188-0.293,0.441-0.293,0.707v13c0,0.552,0.448,1,1,1s1-0.448,1-1v-4.553
		c1.271-0.998,3.121-0.911,4.293,0.26c2.045,2.043,5.371,2.043,7.414,0c0.188-0.188,0.293-0.442,0.293-0.707v-8
		C118.22,9.956,117.976,9.591,117.603,9.437z M110.513,11.067c1.541,1.539,3.808,1.918,5.707,1.139v2.311
		c-1.446,0.915-3.387,0.748-4.646-0.51c-1.447-1.447-3.598-1.744-5.354-0.928v-2.271C107.491,9.81,109.341,9.896,110.513,11.067z
		 M111.927,17.652c-1.022-1.021-2.365-1.532-3.707-1.532c-0.681,0-1.361,0.131-2,0.395v-2.311c1.446-0.916,3.387-0.75,4.646,0.51
		c0.925,0.924,2.139,1.386,3.354,1.386c0.687,0,1.366-0.164,2-0.459v2.272C114.948,18.909,113.098,18.823,111.927,17.652z"/>
	<path d="M149.603,9.437c-0.374-0.156-0.804-0.069-1.09,0.217c-1.264,1.262-3.321,1.264-4.586-0.001
		c-2.045-2.044-5.37-2.043-7.414,0.001c-0.188,0.188-0.293,0.441-0.293,0.707v13c0,0.552,0.448,1,1,1s1-0.448,1-1v-4.553
		c1.271-0.998,3.121-0.911,4.293,0.26c2.045,2.043,5.371,2.043,7.414,0c0.188-0.188,0.293-0.442,0.293-0.707v-8
		C150.22,9.956,149.976,9.591,149.603,9.437z M142.513,11.067c1.541,1.539,3.808,1.918,5.707,1.139v2.311
		c-1.446,0.915-3.387,0.748-4.646-0.51c-1.447-1.447-3.598-1.744-5.354-0.928v-2.271C139.491,9.81,141.341,9.896,142.513,11.067z
		 M143.927,17.652c-1.022-1.021-2.365-1.532-3.707-1.532c-0.681,0-1.361,0.131-2,0.395v-2.311c1.446-0.916,3.387-0.75,4.646,0.51
		c0.925,0.924,2.139,1.386,3.354,1.386c0.687,0,1.366-0.164,2-0.459v2.272C146.948,18.909,145.098,18.823,143.927,17.652z"/>
	<path d="M181.603,9.437c-0.374-0.156-0.804-0.069-1.09,0.217c-1.264,1.262-3.321,1.264-4.586-0.001
		c-2.045-2.044-5.37-2.043-7.414,0.001c-0.188,0.188-0.293,0.441-0.293,0.707v13c0,0.552,0.448,1,1,1s1-0.448,1-1v-4.553
		c1.271-0.998,3.121-0.911,4.293,0.26c2.045,2.043,5.371,2.043,7.414,0c0.188-0.188,0.293-0.442,0.293-0.707v-8
		C182.22,9.956,181.976,9.591,181.603,9.437z M174.513,11.067c1.541,1.539,3.808,1.918,5.707,1.139v2.311
		c-1.446,0.915-3.387,0.748-4.646-0.51c-1.447-1.447-3.598-1.744-5.354-0.928v-2.271C171.491,9.81,173.341,9.896,174.513,11.067z
		 M175.927,17.652c-1.022-1.021-2.365-1.532-3.707-1.532c-0.681,0-1.361,0.131-2,0.395v-2.311c1.446-0.916,3.387-0.75,4.646,0.51
		c0.925,0.924,2.139,1.386,3.354,1.386c0.687,0,1.366-0.164,2-0.459v2.272C178.948,18.909,177.098,18.823,175.927,17.652z"/>
	<path d="M213.603,9.437c-0.374-0.156-0.804-0.069-1.09,0.217c-1.264,1.262-3.321,1.264-4.586-0.001
		c-2.045-2.044-5.37-2.043-7.414,0.001c-0.188,0.188-0.293,0.441-0.293,0.707v13c0,0.552,0.448,1,1,1s1-0.448,1-1v-4.553
		c1.271-0.998,3.121-0.911,4.293,0.26c2.045,2.043,5.371,2.043,7.414,0c0.188-0.188,0.293-0.442,0.293-0.707v-8
		C214.22,9.956,213.976,9.591,213.603,9.437z M206.513,11.067c1.541,1.539,3.808,1.918,5.707,1.139v2.311
		c-1.446,0.915-3.387,0.748-4.646-0.51c-1.447-1.447-3.598-1.744-5.354-0.928v-2.271C203.491,9.81,205.341,9.896,206.513,11.067z
		 M207.927,17.652c-1.022-1.021-2.365-1.532-3.707-1.532c-0.681,0-1.361,0.131-2,0.395v-2.311c1.446-0.916,3.387-0.75,4.646,0.51
		c0.925,0.924,2.139,1.386,3.354,1.386c0.687,0,1.366-0.164,2-0.459v2.272C210.948,18.909,209.098,18.823,207.927,17.652z"/>
	<path d="M245.603,9.437c-0.374-0.156-0.804-0.069-1.09,0.217c-1.264,1.262-3.321,1.264-4.586-0.001
		c-2.045-2.044-5.37-2.043-7.414,0.001c-0.188,0.188-0.293,0.441-0.293,0.707v13c0,0.552,0.448,1,1,1s1-0.448,1-1v-4.553
		c1.271-0.998,3.121-0.911,4.293,0.26c2.045,2.043,5.371,2.043,7.414,0c0.188-0.188,0.293-0.442,0.293-0.707v-8
		C246.22,9.956,245.976,9.591,245.603,9.437z M238.513,11.067c1.541,1.539,3.808,1.918,5.707,1.139v2.311
		c-1.446,0.915-3.387,0.748-4.646-0.51c-1.447-1.447-3.598-1.744-5.354-0.928v-2.271C235.491,9.81,237.341,9.896,238.513,11.067z
		 M239.927,17.652c-1.022-1.021-2.365-1.532-3.707-1.532c-0.681,0-1.361,0.131-2,0.395v-2.311c1.446-0.916,3.387-0.75,4.646,0.51
		c0.925,0.924,2.139,1.386,3.354,1.386c0.687,0,1.366-0.164,2-0.459v2.272C242.948,18.909,241.098,18.823,239.927,17.652z"/>
	<path d="M277.603,9.437c-0.374-0.156-0.804-0.069-1.09,0.217c-1.264,1.262-3.321,1.264-4.586-0.001
		c-2.045-2.044-5.37-2.043-7.414,0.001c-0.188,0.188-0.293,0.441-0.293,0.707v13c0,0.552,0.448,1,1,1s1-0.448,1-1v-4.553
		c1.271-0.998,3.121-0.911,4.293,0.26c2.045,2.043,5.371,2.043,7.414,0c0.188-0.188,0.293-0.442,0.293-0.707v-8
		C278.22,9.956,277.976,9.591,277.603,9.437z M270.513,11.067c1.541,1.539,3.808,1.918,5.707,1.139v2.311
		c-1.446,0.915-3.387,0.748-4.646-0.51c-1.447-1.447-3.598-1.744-5.354-0.928v-2.271C267.491,9.81,269.341,9.896,270.513,11.067z
		 M271.927,17.652c-1.022-1.021-2.365-1.532-3.707-1.532c-0.681,0-1.361,0.131-2,0.395v-2.311c1.446-0.916,3.387-0.75,4.646,0.51
		c0.925,0.924,2.139,1.386,3.354,1.386c0.687,0,1.366-0.164,2-0.459v2.272C274.948,18.909,273.098,18.823,271.927,17.652z"/>
	<path d="M309.603,9.437c-0.374-0.156-0.804-0.069-1.09,0.217c-1.264,1.262-3.321,1.264-4.586-0.001
		c-2.045-2.044-5.37-2.043-7.414,0.001c-0.188,0.188-0.293,0.441-0.293,0.707v13c0,0.552,0.448,1,1,1s1-0.448,1-1v-4.553
		c1.271-0.998,3.121-0.911,4.293,0.26c2.045,2.043,5.371,2.043,7.414,0c0.188-0.188,0.293-0.442,0.293-0.707v-8
		C310.22,9.956,309.976,9.591,309.603,9.437z M302.513,11.067c1.541,1.539,3.808,1.918,5.707,1.139v2.311
		c-1.446,0.915-3.387,0.748-4.646-0.51c-1.447-1.447-3.598-1.744-5.354-0.928v-2.271C299.49,9.81,301.341,9.896,302.513,11.067z
		 M303.927,17.652c-1.022-1.021-2.364-1.532-3.707-1.532c-0.681,0-1.361,0.131-2,0.395v-2.311c1.446-0.916,3.387-0.75,4.646,0.51
		c0.925,0.924,2.139,1.386,3.354,1.386c0.687,0,1.366-0.164,2-0.459v2.272C306.948,18.909,305.098,18.823,303.927,17.652z"/>
	<path d="M341.603,9.437c-0.374-0.156-0.804-0.069-1.09,0.217c-1.264,1.262-3.321,1.264-4.586-0.001
		c-2.045-2.044-5.37-2.043-7.414,0.001c-0.188,0.188-0.293,0.441-0.293,0.707v13c0,0.552,0.448,1,1,1s1-0.448,1-1v-4.553
		c1.271-0.998,3.121-0.911,4.293,0.26c2.045,2.043,5.371,2.043,7.414,0c0.188-0.188,0.293-0.442,0.293-0.707v-8
		C342.22,9.956,341.976,9.591,341.603,9.437z M334.513,11.067c1.541,1.539,3.808,1.918,5.707,1.139v2.311
		c-1.446,0.915-3.387,0.748-4.646-0.51c-1.447-1.447-3.598-1.744-5.354-0.928v-2.271C331.49,9.81,333.341,9.896,334.513,11.067z
		 M335.927,17.652c-1.022-1.021-2.364-1.532-3.707-1.532c-0.681,0-1.361,0.131-2,0.395v-2.311c1.446-0.916,3.387-0.75,4.646,0.51
		c0.925,0.924,2.139,1.386,3.354,1.386c0.687,0,1.366-0.164,2-0.459v2.272C338.948,18.909,337.098,18.823,335.927,17.652z"/>
	<path d="M373.603,9.437c-0.374-0.156-0.804-0.069-1.09,0.217c-1.264,1.262-3.321,1.264-4.586-0.001
		c-2.045-2.044-5.37-2.043-7.414,0.001c-0.188,0.188-0.293,0.441-0.293,0.707v13c0,0.552,0.448,1,1,1s1-0.448,1-1v-4.553
		c1.271-0.998,3.121-0.911,4.293,0.26c2.045,2.043,5.371,2.043,7.414,0c0.188-0.188,0.293-0.442,0.293-0.707v-8
		C374.22,9.956,373.976,9.591,373.603,9.437z M366.513,11.067c1.541,1.539,3.808,1.918,5.707,1.139v2.311
		c-1.446,0.915-3.387,0.748-4.646-0.51c-1.447-1.447-3.598-1.744-5.354-0.928v-2.271C363.49,9.81,365.341,9.896,366.513,11.067z
		 M367.927,17.652c-1.022-1.021-2.364-1.532-3.707-1.532c-0.681,0-1.361,0.131-2,0.395v-2.311c1.446-0.916,3.387-0.75,4.646,0.51
		c0.925,0.924,2.139,1.386,3.354,1.386c0.687,0,1.366-0.164,2-0.459v2.272C370.948,18.909,369.098,18.823,367.927,17.652z"/>
	<path d="M405.603,9.437c-0.374-0.156-0.804-0.069-1.09,0.217c-1.264,1.262-3.321,1.264-4.586-0.001
		c-2.045-2.044-5.37-2.043-7.414,0.001c-0.188,0.188-0.293,0.441-0.293,0.707v13c0,0.552,0.448,1,1,1s1-0.448,1-1v-4.553
		c1.271-0.998,3.121-0.911,4.293,0.26c2.045,2.043,5.371,2.043,7.414,0c0.188-0.188,0.293-0.442,0.293-0.707v-8
		C406.22,9.956,405.976,9.591,405.603,9.437z M398.513,11.067c1.541,1.539,3.808,1.918,5.707,1.139v2.311
		c-1.446,0.915-3.387,0.748-4.646-0.51c-1.447-1.447-3.598-1.744-5.354-0.928v-2.271C395.49,9.81,397.341,9.896,398.513,11.067z
		 M399.927,17.652c-1.022-1.021-2.364-1.532-3.707-1.532c-0.681,0-1.361,0.131-2,0.395v-2.311c1.446-0.916,3.387-0.75,4.646,0.51
		c0.925,0.924,2.139,1.386,3.354,1.386c0.687,0,1.366-0.164,2-0.459v2.272C402.948,18.909,401.098,18.823,399.927,17.652z"/>
	<path d="M437.603,9.437c-0.374-0.156-0.804-0.069-1.09,0.217c-1.264,1.262-3.321,1.264-4.586-0.001
		c-2.045-2.044-5.37-2.043-7.414,0.001c-0.188,0.188-0.293,0.441-0.293,0.707v13c0,0.552,0.448,1,1,1s1-0.448,1-1v-4.553
		c1.271-0.998,3.121-0.911,4.293,0.26c2.045,2.043,5.371,2.043,7.414,0c0.188-0.188,0.293-0.442,0.293-0.707v-8
		C438.22,9.956,437.976,9.591,437.603,9.437z M430.513,11.067c1.541,1.539,3.808,1.918,5.707,1.139v2.311
		c-1.446,0.915-3.387,0.748-4.646-0.51c-1.447-1.447-3.598-1.744-5.354-0.928v-2.271C427.49,9.81,429.341,9.896,430.513,11.067z
		 M431.927,17.652c-1.022-1.021-2.364-1.532-3.707-1.532c-0.681,0-1.361,0.131-2,0.395v-2.311c1.446-0.916,3.387-0.75,4.646,0.51
		c0.925,0.924,2.139,1.386,3.354,1.386c0.687,0,1.366-0.164,2-0.459v2.272C434.948,18.909,433.098,18.823,431.927,17.652z"/>
	<path d="M469.603,9.437c-0.374-0.156-0.804-0.069-1.09,0.217c-1.264,1.262-3.321,1.264-4.586-0.001
		c-2.045-2.044-5.37-2.043-7.414,0.001c-0.188,0.188-0.293,0.441-0.293,0.707v13c0,0.552,0.448,1,1,1s1-0.448,1-1v-4.553
		c1.271-0.998,3.121-0.911,4.293,0.26c2.045,2.043,5.371,2.043,7.414,0c0.188-0.188,0.293-0.442,0.293-0.707v-8
		C470.22,9.956,469.976,9.591,469.603,9.437z M462.513,11.067c1.541,1.539,3.808,1.918,5.707,1.139v2.311
		c-1.446,0.915-3.387,0.748-4.646-0.51c-1.447-1.447-3.598-1.744-5.354-0.928v-2.271C459.49,9.81,461.341,9.896,462.513,11.067z
		 M463.927,17.652c-1.022-1.021-2.364-1.532-3.707-1.532c-0.681,0-1.361,0.131-2,0.395v-2.311c1.446-0.916,3.387-0.75,4.646,0.51
		c0.925,0.924,2.139,1.386,3.354,1.386c0.687,0,1.366-0.164,2-0.459v2.272C466.948,18.909,465.098,18.823,463.927,17.652z"/>
	<path d="M501.603,9.437c-0.374-0.156-0.804-0.069-1.09,0.217c-1.264,1.262-3.321,1.264-4.586-0.001
		c-2.045-2.044-5.37-2.043-7.414,0.001c-0.188,0.188-0.293,0.441-0.293,0.707v13c0,0.552,0.448,1,1,1s1-0.448,1-1v-4.553
		c1.271-0.998,3.121-0.911,4.293,0.26c2.045,2.043,5.371,2.043,7.414,0c0.188-0.188,0.293-0.442,0.293-0.707v-8
		C502.22,9.956,501.976,9.591,501.603,9.437z M494.513,11.067c1.541,1.539,3.808,1.918,5.707,1.139v2.311
		c-1.446,0.915-3.387,0.748-4.646-0.51c-1.447-1.447-3.598-1.744-5.354-0.928v-2.271C491.49,9.81,493.341,9.896,494.513,11.067z
		 M495.927,17.652c-1.022-1.021-2.364-1.532-3.707-1.532c-0.681,0-1.361,0.131-2,0.395v-2.311c1.446-0.916,3.387-0.75,4.646,0.51
		c0.925,0.924,2.139,1.386,3.354,1.386c0.687,0,1.366-0.164,2-0.459v2.272C498.948,18.909,497.098,18.823,495.927,17.652z"/>
</g>
<g id="Layer_4">
</g>
</svg>
