<?xml version="1.0" encoding="iso-8859-1"?>
<!-- Generator: Adobe Illustrator 16.2.1, SVG Export Plug-In . SVG Version: 6.00 Build 0)  -->
<!DOCTYPE svg PUBLIC "-//W3C//DTD SVG 1.1 Tiny//EN" "http://www.w3.org/Graphics/SVG/1.1/DTD/svg11-tiny.dtd">
<svg version="1.1" baseProfile="tiny" xmlns="http://www.w3.org/2000/svg" xmlns:xlink="http://www.w3.org/1999/xlink" x="0px"
	 y="0px" width="512px" height="32px" viewBox="0 0 512 32" xml:space="preserve">
<g id="Layer_2_copy">
</g>
<g id="Layer_2">
</g>
<g id="Layer_1">
	<g>
		<g>
			<path d="M14,9c2.757,0,5,2.243,5,5s-2.243,5-5,5s-5-2.243-5-5S11.243,9,14,9 M14,8c-3.312,0-6,2.687-6,6c0,3.312,2.688,6,6,6
				s6-2.688,6-6C20,10.687,17.312,8,14,8L14,8z"/>
		</g>
	</g>
	<g>
		<g>
			<path d="M46.375,9c2.757,0,5,2.243,5,5s-2.243,5-5,5s-5-2.243-5-5S43.618,9,46.375,9 M46.375,8c-3.312,0-6,2.687-6,6
				c0,3.312,2.688,6,6,6s6-2.688,6-6C52.375,10.687,49.688,8,46.375,8L46.375,8z"/>
		</g>
	</g>
	<g>
		<g>
			<path d="M78.75,9c2.757,0,5,2.243,5,5s-2.243,5-5,5s-5-2.243-5-5S75.993,9,78.75,9 M78.75,8c-3.312,0-6,2.687-6,6
				c0,3.312,2.688,6,6,6s6-2.688,6-6C84.75,10.687,82.062,8,78.75,8L78.75,8z"/>
		</g>
	</g>
	<g>
		<g>
			<path d="M111.125,9c2.757,0,5,2.243,5,5s-2.243,5-5,5s-5-2.243-5-5S108.368,9,111.125,9 M111.125,8c-3.312,0-6,2.687-6,6
				c0,3.312,2.688,6,6,6s6-2.688,6-6C117.125,10.687,114.438,8,111.125,8L111.125,8z"/>
		</g>
	</g>
	<g>
		<g>
			<path d="M143.5,9c2.757,0,5,2.243,5,5s-2.243,5-5,5s-5-2.243-5-5S140.743,9,143.5,9 M143.5,8c-3.312,0-6,2.687-6,6
				c0,3.312,2.688,6,6,6s6-2.688,6-6C149.5,10.687,146.812,8,143.5,8L143.5,8z"/>
		</g>
	</g>
	<g>
		<g>
			<path d="M175.875,9c2.757,0,5,2.243,5,5s-2.243,5-5,5s-5-2.243-5-5S173.118,9,175.875,9 M175.875,8c-3.312,0-6,2.687-6,6
				c0,3.312,2.688,6,6,6s6-2.688,6-6C181.875,10.687,179.188,8,175.875,8L175.875,8z"/>
		</g>
	</g>
	<g>
		<g>
			<path d="M208.25,9c2.757,0,5,2.243,5,5s-2.243,5-5,5s-5-2.243-5-5S205.493,9,208.25,9 M208.25,8c-3.312,0-6,2.687-6,6
				c0,3.312,2.688,6,6,6s6-2.688,6-6C214.25,10.687,211.562,8,208.25,8L208.25,8z"/>
		</g>
	</g>
	<g>
		<g>
			<path d="M240.625,9c2.757,0,5,2.243,5,5s-2.243,5-5,5s-5-2.243-5-5S237.868,9,240.625,9 M240.625,8c-3.312,0-6,2.687-6,6
				c0,3.312,2.688,6,6,6s6-2.688,6-6C246.625,10.687,243.938,8,240.625,8L240.625,8z"/>
		</g>
	</g>
	<g>
		<g>
			<path d="M273,9c2.757,0,5,2.243,5,5s-2.243,5-5,5s-5-2.243-5-5S270.243,9,273,9 M273,8c-3.312,0-6,2.687-6,6c0,3.312,2.688,6,6,6
				s6-2.688,6-6C279,10.687,276.312,8,273,8L273,8z"/>
		</g>
	</g>
	<g>
		<g>
			<path d="M305.375,9c2.757,0,5,2.243,5,5s-2.243,5-5,5s-5-2.243-5-5S302.618,9,305.375,9 M305.375,8c-3.312,0-6,2.687-6,6
				c0,3.312,2.688,6,6,6s6-2.688,6-6C311.375,10.687,308.688,8,305.375,8L305.375,8z"/>
		</g>
	</g>
	<g>
		<g>
			<path d="M337.75,9c2.757,0,5,2.243,5,5s-2.243,5-5,5s-5-2.243-5-5S334.993,9,337.75,9 M337.75,8c-3.312,0-6,2.687-6,6
				c0,3.312,2.688,6,6,6s6-2.688,6-6C343.75,10.687,341.062,8,337.75,8L337.75,8z"/>
		</g>
	</g>
	<g>
		<g>
			<path d="M370.125,9c2.757,0,5,2.243,5,5s-2.243,5-5,5s-5-2.243-5-5S367.368,9,370.125,9 M370.125,8c-3.312,0-6,2.687-6,6
				c0,3.312,2.688,6,6,6s6-2.688,6-6C376.125,10.687,373.438,8,370.125,8L370.125,8z"/>
		</g>
	</g>
	<g>
		<g>
			<path d="M402.625,9c2.757,0,5,2.243,5,5s-2.243,5-5,5s-5-2.243-5-5S399.868,9,402.625,9 M402.625,8c-3.312,0-6,2.687-6,6
				c0,3.312,2.688,6,6,6s6-2.688,6-6C408.625,10.687,405.938,8,402.625,8L402.625,8z"/>
		</g>
	</g>
	<g>
		<g>
			<path d="M434.875,9c2.757,0,5,2.243,5,5s-2.243,5-5,5s-5-2.243-5-5S432.118,9,434.875,9 M434.875,8c-3.312,0-6,2.687-6,6
				c0,3.312,2.688,6,6,6s6-2.688,6-6C440.875,10.687,438.188,8,434.875,8L434.875,8z"/>
		</g>
	</g>
	<g>
		<g>
			<path d="M467.25,9c2.757,0,5,2.243,5,5s-2.243,5-5,5s-5-2.243-5-5S464.493,9,467.25,9 M467.25,8c-3.312,0-6,2.687-6,6
				c0,3.312,2.688,6,6,6s6-2.688,6-6C473.25,10.687,470.562,8,467.25,8L467.25,8z"/>
		</g>
	</g>
	<path d="M24.586,19.172l-2.14-2.141C22.791,16.082,23,15.068,23,14c0-4.963-4.038-9-9-9s-9,4.037-9,9s4.038,9,9,9
		c1.068,0,2.082-0.209,3.032-0.555l2.14,2.141c0.766,0.766,1.815,1.205,2.879,1.205c1.014,0,1.957-0.385,2.656-1.084
		C26.2,23.215,26.146,20.731,24.586,19.172z M14,21c-3.86,0-7-3.141-7-7s3.14-7,7-7s7,3.141,7,7c0,1.268-0.343,2.453-0.935,3.479
		c0,0,0,0,0-0.001c-0.619,1.074-1.512,1.969-2.586,2.587c0,0,0,0,0,0C16.453,20.656,15.267,21,14,21z M23.293,23.293
		c-0.682,0.682-1.963,0.622-2.707-0.121l-2.382-2.382c0.051-0.031,0.106-0.056,0.156-0.088c0.935-0.609,1.732-1.407,2.342-2.341
		c0.033-0.051,0.057-0.106,0.088-0.157l2.382,2.382C23.952,21.365,24.006,22.58,23.293,23.293z"/>
	<path d="M56.362,20.25l-1.905-2.353c0.442-0.907,0.756-1.894,0.868-2.956c0.519-4.936-3.075-9.373-8.01-9.892
		c-4.936-0.519-9.373,3.074-9.892,8.01c-0.519,4.937,3.074,9.373,8.01,9.892c1.062,0.112,2.092,0.01,3.073-0.234l1.905,2.353
		c0.681,0.842,1.679,1.388,2.737,1.499c1.008,0.106,1.987-0.178,2.755-0.801C57.544,24.44,57.75,21.965,56.362,20.25z
		 M45.643,20.962c-3.839-0.403-6.633-3.854-6.23-7.693c0.403-3.838,3.854-6.633,7.693-6.229c3.839,0.404,6.633,3.855,6.23,7.693
		c-0.132,1.261-0.598,2.404-1.293,3.363c0,0,0,0,0-0.001c-0.728,1.003-1.709,1.8-2.842,2.302l0,0
		C48.119,20.877,46.903,21.095,45.643,20.962z M54.646,24.214c-0.749,0.607-2.018,0.414-2.68-0.403l-2.12-2.618
		c0.054-0.024,0.111-0.043,0.164-0.07c0.993-0.509,1.87-1.219,2.574-2.083c0.038-0.048,0.068-0.1,0.104-0.147l2.12,2.618
		C55.502,22.366,55.429,23.579,54.646,24.214z"/>
	<path d="M88.029,21.261l-1.648-2.539c0.534-0.857,0.95-1.805,1.172-2.851c1.032-4.854-2.079-9.643-6.932-10.674
		c-4.854-1.032-9.643,2.078-10.675,6.932c-1.032,4.854,2.079,9.644,6.933,10.675c1.044,0.223,2.079,0.229,3.081,0.088l1.648,2.539
		c0.59,0.907,1.525,1.556,2.566,1.777c0.992,0.211,1.995,0.03,2.823-0.509C88.767,25.55,89.23,23.11,88.029,21.261z M77.294,20.848
		c-3.776-0.803-6.194-4.527-5.392-8.303s4.527-6.194,8.302-5.392s6.194,4.527,5.392,8.303c-0.264,1.24-0.846,2.328-1.638,3.209
		c0,0,0,0,0-0.001c-0.829,0.922-1.888,1.611-3.068,1.992c0,0.001,0,0.001,0,0.001C79.766,21.021,78.534,21.11,77.294,20.848z
		 M85.908,25.022c-0.809,0.525-2.05,0.2-2.623-0.682l-1.835-2.824c0.056-0.021,0.115-0.033,0.17-0.055
		c1.042-0.401,1.987-1.016,2.778-1.803c0.042-0.042,0.078-0.092,0.119-0.135l1.834,2.825C86.953,23.273,86.753,24.474,85.908,25.022
		z"/>
	<path d="M119.595,22.189l-1.374-2.696c0.622-0.796,1.134-1.696,1.464-2.712c1.534-4.72-1.059-9.807-5.778-11.341
		c-4.72-1.533-9.807,1.059-11.341,5.778c-1.533,4.721,1.059,9.807,5.779,11.341c1.016,0.33,2.044,0.444,3.055,0.409l1.374,2.697
		c0.492,0.965,1.354,1.707,2.366,2.036c0.964,0.313,1.98,0.238,2.861-0.211C119.88,26.534,120.596,24.155,119.595,22.189z
		 M108.962,20.657c-3.671-1.192-5.687-5.149-4.494-8.82c1.192-3.671,5.149-5.687,8.82-4.494s5.687,5.149,4.494,8.82
		c-0.392,1.205-1.084,2.228-1.964,3.021c0,0,0,0,0-0.001c-0.92,0.83-2.047,1.405-3.259,1.661h0
		C111.401,21.088,110.167,21.049,108.962,20.657z M117.092,25.71c-0.859,0.438-2.06-0.015-2.537-0.952l-1.529-3.001
		c0.058-0.014,0.118-0.021,0.175-0.035c1.077-0.291,2.083-0.804,2.951-1.503c0.047-0.038,0.087-0.084,0.132-0.122l1.529,3.001
		C118.313,24.08,117.99,25.252,117.092,25.71z"/>
	<path d="M151.066,23.031l-1.084-2.826c0.701-0.728,1.305-1.568,1.739-2.544c2.019-4.534-0.028-9.864-4.561-11.883
		c-4.534-2.019-9.864,0.028-11.883,4.562c-2.019,4.533,0.028,9.864,4.562,11.883c0.975,0.434,1.986,0.655,2.995,0.727l1.084,2.826
		c0.388,1.01,1.167,1.838,2.14,2.271c0.926,0.412,1.944,0.444,2.867,0.09C150.896,27.381,151.857,25.09,151.066,23.031z
		 M140.653,20.395c-3.526-1.569-5.118-5.715-3.548-9.241s5.716-5.118,9.242-3.548c3.526,1.57,5.117,5.717,3.547,9.242
		c-0.516,1.158-1.312,2.102-2.269,2.799c0,0,0,0,0-0.001c-1.002,0.729-2.183,1.183-3.415,1.312l0,0
		C143.033,21.079,141.81,20.91,140.653,20.395z M148.209,26.27c-0.9,0.346-2.046-0.23-2.424-1.211l-1.207-3.145
		c0.06-0.009,0.12-0.009,0.179-0.018c1.102-0.177,2.155-0.581,3.091-1.186c0.05-0.033,0.095-0.074,0.145-0.108l1.208,3.146
		C149.596,24.776,149.15,25.908,148.209,26.27z"/>
	<path d="M182.457,23.771l-0.783-2.924c0.773-0.649,1.461-1.422,1.996-2.348c2.481-4.298,1.003-9.813-3.294-12.295
		c-4.297-2.48-9.813-1.003-12.294,3.295s-1.003,9.813,3.294,12.295c0.925,0.533,1.907,0.859,2.903,1.035l0.783,2.924
		c0.28,1.045,0.969,1.951,1.891,2.483c0.878,0.507,1.887,0.645,2.842,0.389C181.833,28.08,183.027,25.902,182.457,23.771z
		 M172.375,20.062c-3.343-1.931-4.492-6.221-2.562-9.562s6.219-4.492,9.562-2.562c3.343,1.931,4.492,6.221,2.562,9.562
		c-0.634,1.098-1.524,1.953-2.549,2.546c0,0,0,0,0-0.001c-1.073,0.621-2.294,0.949-3.534,0.947c0,0,0,0,0,0
		C174.671,20.991,173.472,20.695,172.375,20.062z M179.276,26.694c-0.931,0.249-2.011-0.443-2.284-1.458l-0.872-3.254
		c0.06-0.002,0.12,0.005,0.179,0.002c1.114-0.061,2.204-0.353,3.198-0.856c0.054-0.028,0.103-0.063,0.155-0.093l0.872,3.254
		C180.811,25.354,180.25,26.434,179.276,26.694z"/>
	<path d="M213.774,24.408l-0.473-2.99c0.837-0.566,1.603-1.262,2.23-2.127c2.917-4.015,2.023-9.654-1.991-12.571
		s-9.654-2.024-12.571,1.991c-2.917,4.015-2.023,9.654,1.991,12.57c0.864,0.629,1.807,1.055,2.778,1.334l0.474,2.99
		c0.169,1.068,0.76,2.041,1.621,2.667c0.82,0.597,1.809,0.839,2.786,0.685C212.703,28.627,214.119,26.586,213.774,24.408z
		 M204.135,19.664c-3.123-2.27-3.817-6.655-1.548-9.777c2.269-3.123,6.655-3.818,9.777-1.549c3.123,2.269,3.817,6.655,1.549,9.777
		c-0.745,1.025-1.72,1.783-2.802,2.266h0c-1.132,0.505-2.38,0.703-3.613,0.572c0,0,0,0,0,0
		C206.322,20.828,205.16,20.408,204.135,19.664z M210.306,26.981c-0.952,0.151-1.954-0.651-2.119-1.688l-0.527-3.328
		c0.06,0.005,0.119,0.018,0.178,0.021c1.114,0.056,2.229-0.121,3.271-0.518c0.056-0.022,0.108-0.053,0.164-0.076l0.527,3.327
		C211.972,25.809,211.301,26.823,210.306,26.981z"/>
	<path d="M245.031,24.927l-0.158-3.022c0.892-0.475,1.726-1.088,2.44-1.882c3.321-3.688,3.021-9.39-0.667-12.711
		c-3.688-3.32-9.39-3.022-12.71,0.667c-3.321,3.688-3.021,9.389,0.667,12.709c0.793,0.715,1.687,1.238,2.624,1.617l0.158,3.023
		c0.057,1.08,0.543,2.109,1.334,2.822c0.753,0.678,1.711,1.023,2.699,0.971C243.525,29.012,245.146,27.129,245.031,24.927z
		 M235.941,19.201c-2.869-2.582-3.101-7.018-0.518-9.885c2.583-2.868,7.018-3.102,9.886-0.519c2.868,2.583,3.101,7.019,0.518,9.886
		c-0.848,0.942-1.897,1.594-3.023,1.961c0,0,0,0,0-0.001c-1.178,0.385-2.441,0.451-3.653,0.192c0,0,0,0,0,0
		C237.994,20.588,236.882,20.05,235.941,19.201z M241.312,27.124c-0.962,0.051-1.875-0.851-1.931-1.901l-0.176-3.363
		c0.059,0.01,0.116,0.029,0.174,0.039c1.103,0.172,2.229,0.113,3.307-0.174c0.058-0.016,0.114-0.04,0.171-0.057l0.176,3.363
		C243.092,26.133,242.319,27.071,241.312,27.124z"/>
	<path d="M276.24,25.327l0.159-3.022c0.936-0.379,1.829-0.902,2.623-1.617c3.688-3.32,3.987-9.021,0.667-12.709
		c-3.321-3.688-9.022-3.988-12.711-0.667c-3.688,3.321-3.986,9.022-0.666,12.71c0.714,0.794,1.548,1.408,2.44,1.883l-0.159,3.022
		c-0.057,1.081,0.319,2.155,1.031,2.946c0.678,0.753,1.596,1.197,2.583,1.248C274.316,29.232,276.125,27.53,276.24,25.327z
		 M267.799,18.684c-2.583-2.868-2.35-7.303,0.518-9.886c2.868-2.583,7.303-2.351,9.886,0.519c2.583,2.867,2.35,7.303-0.519,9.885
		c-0.942,0.849-2.052,1.387-3.211,1.635c0,0,0,0,0-0.001c-1.212,0.259-2.475,0.193-3.653-0.19c0,0,0,0,0,0
		C269.695,20.277,268.646,19.625,267.799,18.684z M272.312,27.124c-0.963-0.05-1.776-1.043-1.721-2.093l0.176-3.363
		c0.057,0.016,0.112,0.041,0.169,0.057c1.078,0.287,2.205,0.346,3.307,0.174c0.06-0.01,0.118-0.029,0.176-0.039l-0.176,3.363
		C274.186,26.324,273.319,27.177,272.312,27.124z"/>
	<path d="M307.413,25.604l0.474-2.99c0.971-0.277,1.914-0.705,2.779-1.332c4.014-2.918,4.907-8.557,1.99-12.572
		c-2.917-4.015-8.557-4.908-12.57-1.99c-4.016,2.916-4.908,8.556-1.992,12.57c0.629,0.865,1.393,1.562,2.23,2.127l-0.473,2.99
		c-0.17,1.069,0.091,2.176,0.717,3.037c0.596,0.82,1.461,1.357,2.438,1.512C305.091,29.285,307.068,27.781,307.413,25.604z
		 M299.713,18.114c-2.27-3.122-1.574-7.509,1.548-9.778c3.122-2.268,7.509-1.572,9.778,1.549c2.268,3.123,1.572,7.51-1.549,9.777
		c-1.026,0.746-2.188,1.164-3.365,1.29c0,0,0,0,0.001-0.001c-1.232,0.131-2.481-0.066-3.613-0.572
		c0.001,0.001,0.001,0.001,0.001,0.001C301.432,19.896,300.457,19.14,299.713,18.114z M303.318,26.98
		c-0.951-0.15-1.656-1.223-1.492-2.262l0.527-3.326c0.055,0.021,0.107,0.053,0.162,0.073c1.043,0.399,2.156,0.574,3.27,0.519
		c0.061-0.003,0.121-0.016,0.18-0.021l-0.526,3.327C305.266,26.379,304.315,27.138,303.318,26.98z"/>
	<path d="M338.564,25.754l0.783-2.925c0.994-0.175,1.977-0.501,2.902-1.035c4.298-2.481,5.775-7.997,3.295-12.294
		c-2.482-4.299-7.997-5.775-12.295-3.295c-4.298,2.482-5.775,7.996-3.295,12.295c0.535,0.925,1.223,1.698,1.996,2.348l-0.783,2.924
		c-0.279,1.046-0.137,2.174,0.396,3.096c0.506,0.878,1.312,1.502,2.267,1.758C335.869,29.172,337.993,27.884,338.564,25.754z
		 M331.688,17.5c-1.93-3.343-0.779-7.633,2.562-9.562s7.633-0.78,9.562,2.562c1.93,3.342,0.779,7.632-2.562,9.562
		c-1.098,0.634-2.297,0.929-3.48,0.931l0,0c-1.238,0.002-2.461-0.326-3.533-0.947l0,0C333.212,19.452,332.322,18.598,331.688,17.5z
		 M334.349,26.693c-0.931-0.249-1.521-1.389-1.249-2.404l0.872-3.254c0.053,0.029,0.102,0.064,0.153,0.091
		c0.996,0.505,2.086,0.797,3.199,0.857c0.061,0.003,0.121-0.003,0.18-0.001l-0.871,3.254
		C336.348,26.301,335.322,26.955,334.349,26.693z"/>
	<path d="M369.706,25.774l1.085-2.826c1.008-0.07,2.019-0.292,2.994-0.726c4.534-2.02,6.581-7.35,4.562-11.883
		c-2.02-4.534-7.35-6.58-11.883-4.562c-4.534,2.019-6.58,7.349-4.562,11.882c0.435,0.977,1.038,1.818,1.739,2.545l-1.085,2.826
		c-0.388,1.01-0.362,2.146,0.07,3.119c0.413,0.926,1.147,1.632,2.071,1.986C366.669,28.893,368.916,27.834,369.706,25.774z
		 M363.73,16.848c-1.569-3.525,0.021-7.672,3.548-9.242c3.525-1.569,7.672,0.021,9.241,3.547c1.57,3.526-0.021,7.673-3.547,9.242
		c-1.158,0.516-2.381,0.685-3.56,0.562c0,0,0,0,0.001,0c-1.232-0.128-2.413-0.581-3.415-1.312c0,0.001,0,0.001,0,0.001
		C365.042,18.949,364.246,18.006,363.73,16.848z M365.416,26.27c-0.9-0.346-1.367-1.54-0.991-2.522l1.207-3.145
		c0.05,0.034,0.095,0.075,0.144,0.106c0.938,0.606,1.99,1.01,3.091,1.188c0.06,0.01,0.121,0.009,0.181,0.017l-1.208,3.145
		C367.444,26.087,366.356,26.631,365.416,26.27z"/>
	<path d="M463.213,25.067l1.905-2.353c0.979,0.245,2.01,0.347,3.072,0.235c4.936-0.52,8.528-4.956,8.01-9.892
		s-4.956-8.529-9.892-8.01c-4.936,0.519-8.529,4.956-8.01,9.892c0.111,1.062,0.426,2.048,0.868,2.956l-1.905,2.354
		c-0.682,0.842-1.008,1.931-0.896,2.989c0.105,1.008,0.587,1.905,1.355,2.528C459.359,27.095,461.824,26.782,463.213,25.067z
		 M460.288,14.731c-0.403-3.839,2.392-7.29,6.229-7.693c3.838-0.404,7.289,2.391,7.693,6.229c0.403,3.838-2.392,7.29-6.229,7.694
		c-1.261,0.132-2.477-0.087-3.559-0.566c0,0,0,0,0.001,0c-1.133-0.503-2.116-1.299-2.843-2.303c0,0.001,0,0.001,0,0.001
		C460.887,17.135,460.42,15.992,460.288,14.731z M458.979,24.213c-0.75-0.606-0.824-1.887-0.162-2.705l2.12-2.618
		c0.035,0.048,0.065,0.101,0.103,0.146c0.705,0.867,1.581,1.576,2.573,2.084c0.054,0.028,0.111,0.047,0.165,0.073l-2.119,2.616
		C460.965,24.666,459.763,24.848,458.979,24.213z"/>
	<path d="M432.021,25.428l1.647-2.539c1,0.141,2.034,0.133,3.079-0.09c4.854-1.035,7.961-5.825,6.926-10.68
		c-1.035-4.854-5.826-7.959-10.68-6.924s-7.961,5.826-6.925,10.68c0.223,1.045,0.639,1.991,1.175,2.848l-1.647,2.541
		c-0.59,0.909-0.799,2.025-0.577,3.066c0.211,0.992,0.784,1.834,1.614,2.372C428.402,27.85,430.82,27.279,432.021,25.428z
		 M428.025,15.457c-0.805-3.774,1.612-7.501,5.387-8.307c3.773-0.805,7.499,1.611,8.306,5.387c0.805,3.773-1.611,7.502-5.387,8.307
		c-1.239,0.264-2.472,0.174-3.598-0.188c0,0,0,0,0.001-0.001c-1.18-0.382-2.241-1.069-3.069-1.991c0,0.002,0,0.002,0,0.002
		C428.874,17.784,428.289,16.697,428.025,15.457z M427.721,25.023c-0.81-0.523-1.019-1.789-0.446-2.673l1.833-2.827
		c0.04,0.045,0.076,0.094,0.118,0.135c0.792,0.788,1.738,1.4,2.777,1.803c0.057,0.021,0.116,0.033,0.172,0.055l-1.832,2.824
		C429.743,25.266,428.567,25.572,427.721,25.023z"/>
	<path d="M400.858,25.662l1.373-2.696c1.009,0.035,2.037-0.081,3.053-0.412c4.718-1.537,7.308-6.626,5.771-11.346
		c-1.537-4.719-6.628-7.306-11.346-5.769c-4.719,1.537-7.309,6.627-5.77,11.346c0.33,1.016,0.843,1.914,1.466,2.709l-1.373,2.7
		c-0.49,0.966-0.581,2.097-0.252,3.109c0.312,0.966,0.972,1.742,1.853,2.19C397.513,28.451,399.857,27.631,400.858,25.662z
		 M395.841,16.165c-1.195-3.669,0.819-7.628,4.487-8.825c3.669-1.194,7.627,0.818,8.824,4.488c1.195,3.67-0.817,7.63-4.487,8.825
		c-1.205,0.392-2.44,0.431-3.599,0.19c0,0,0,0,0.001-0.002c-1.213-0.256-2.34-0.828-3.261-1.659c0,0.002,0,0.002,0,0.002
		C396.929,18.391,396.232,17.371,395.841,16.165z M396.538,25.711c-0.859-0.436-1.199-1.672-0.723-2.611l1.527-3.004
		c0.044,0.041,0.085,0.086,0.131,0.122c0.87,0.7,1.876,1.211,2.951,1.503c0.059,0.014,0.119,0.02,0.176,0.035l-1.525,3
		C398.575,25.74,397.438,26.168,396.538,25.711z"/>
	<g>
		<g>
			<path d="M499.625,9c2.757,0,5,2.243,5,5s-2.243,5-5,5s-5-2.243-5-5S496.868,9,499.625,9 M499.625,8c-3.312,0-6,2.687-6,6
				c0,3.312,2.688,6,6,6s6-2.688,6-6C505.625,10.687,502.938,8,499.625,8L499.625,8z"/>
		</g>
	</g>
	<path d="M494.453,24.586l2.141-2.141c0.949,0.346,1.963,0.555,3.031,0.555c4.963,0,9-4.037,9-9s-4.037-9-9-9s-9,4.037-9,9
		c0,1.068,0.209,2.082,0.555,3.031l-2.141,2.141c-0.766,0.766-1.205,1.814-1.205,2.879c0,1.014,0.385,1.957,1.084,2.656
		C490.41,26.199,492.894,26.146,494.453,24.586z M492.625,14c0-3.859,3.141-7,7-7s7,3.141,7,7s-3.141,7-7,7
		c-1.268,0-2.453-0.344-3.479-0.935h0.001c-1.074-0.618-1.969-1.513-2.587-2.587c0,0.001,0,0.001,0,0.001
		C492.969,16.453,492.625,15.268,492.625,14z M490.332,23.293c-0.682-0.682-0.622-1.963,0.121-2.707l2.382-2.382
		c0.031,0.051,0.056,0.106,0.088,0.155c0.609,0.936,1.407,1.732,2.341,2.342c0.051,0.033,0.106,0.058,0.157,0.089l-2.382,2.382
		C492.26,23.951,491.045,24.006,490.332,23.293z"/>
	<g>
		<path d="M33,14c0,0,0.125-0.334,0.312-0.571C33.5,13.163,33.75,13.004,34,13c0.25,0.002,0.5,0.159,0.688,0.426
			C34.875,13.663,35,14,35,14s-0.125,0.337-0.312,0.574C34.5,14.841,34.25,14.998,34,15c-0.25-0.004-0.5-0.163-0.688-0.429
			C33.125,14.334,33,14,33,14z"/>
		<path d="M65,14c0,0,0.25-0.334,0.625-0.571C66,13.163,66.5,13.004,67,13c0.5,0.002,1,0.159,1.375,0.426C68.75,13.663,69,14,69,14
			s-0.25,0.337-0.625,0.574C68,14.841,67.5,14.998,67,15c-0.5-0.004-1-0.163-1.375-0.429C65.25,14.334,65,14,65,14z"/>
		<path d="M97,14c0,0,0.375-0.334,0.938-0.571C98.5,13.163,99.25,13.004,100,13c0.75,0.002,1.5,0.159,2.062,0.426
			C102.625,13.663,103,14,103,14s-0.375,0.337-0.938,0.574C101.5,14.841,100.75,14.998,100,15c-0.75-0.004-1.5-0.163-2.062-0.429
			C97.375,14.334,97,14,97,14z"/>
		<path d="M129,14c0,0,0.5-0.334,1.25-0.571C131,13.163,132,13.004,133,13c1,0.002,2,0.159,2.75,0.426C136.5,13.663,137,14,137,14
			s-0.5,0.337-1.25,0.574C135,14.841,134,14.998,133,15c-1-0.004-2-0.163-2.75-0.429C129.5,14.334,129,14,129,14z"/>
		<path d="M161,14c0,0,0.625-0.334,1.562-0.571C163.5,13.163,164.75,13.004,166,13c1.25,0.002,2.5,0.159,3.438,0.426
			C170.375,13.663,171,14,171,14s-0.625,0.337-1.562,0.574C168.5,14.841,167.25,14.998,166,15c-1.25-0.004-2.5-0.163-3.438-0.429
			C161.625,14.334,161,14,161,14z"/>
		<path d="M193,14c0,0,0.75-0.334,1.875-0.571C196,13.163,197.5,13.004,199,13c1.5,0.002,3,0.159,4.125,0.426
			C204.25,13.663,205,14,205,14s-0.75,0.337-1.875,0.574C202,14.841,200.5,14.998,199,15c-1.5-0.004-3-0.163-4.125-0.429
			C193.75,14.334,193,14,193,14z"/>
		<path d="M225,14c0,0,0.875-0.334,2.188-0.571C228.5,13.163,230.25,13.004,232,13c1.75,0.002,3.5,0.159,4.812,0.426
			C238.125,13.663,239,14,239,14s-0.875,0.337-2.188,0.574C235.5,14.841,233.75,14.998,232,15c-1.75-0.004-3.5-0.163-4.812-0.429
			C225.875,14.334,225,14,225,14z"/>
		<path d="M257,14c0,0,1-0.334,2.5-0.571c0.75-0.129,1.625-0.235,2.562-0.307C263,13.046,264,13,265,13s2,0.042,2.938,0.119
			c0.938,0.07,1.812,0.178,2.562,0.307C272,13.663,273,14,273,14s-1,0.337-2.5,0.574c-0.75,0.129-1.625,0.236-2.562,0.307
			C267,14.958,266,15,265,15s-2-0.046-2.938-0.122c-0.938-0.071-1.812-0.178-2.562-0.307C258,14.334,257,14,257,14z"/>
		<path d="M289,14c0,0,1.125-0.334,2.812-0.571c0.844-0.129,1.828-0.235,2.883-0.307C295.75,13.046,296.875,13,298,13
			s2.25,0.042,3.305,0.119c1.055,0.07,2.039,0.178,2.883,0.307C305.875,13.663,307,14,307,14s-1.125,0.337-2.812,0.574
			c-0.844,0.129-1.828,0.236-2.883,0.307C300.25,14.958,299.125,15,298,15s-2.25-0.046-3.305-0.122
			c-1.055-0.071-2.039-0.178-2.883-0.307C290.125,14.334,289,14,289,14z"/>
		<path d="M321,14c0,0,1.25-0.334,3.125-0.571c0.938-0.129,2.031-0.235,3.203-0.307C328.5,13.046,329.75,13,331,13
			s2.5,0.042,3.672,0.119c1.172,0.07,2.266,0.178,3.203,0.307C339.75,13.663,341,14,341,14s-1.25,0.337-3.125,0.574
			c-0.938,0.129-2.031,0.236-3.203,0.307C333.5,14.958,332.25,15,331,15s-2.5-0.046-3.672-0.122
			c-1.172-0.071-2.266-0.178-3.203-0.307C322.25,14.334,321,14,321,14z"/>
		<path d="M353,14c0,0,1.375-0.334,3.438-0.571c1.031-0.129,2.234-0.235,3.523-0.307C361.25,13.046,362.625,13,364,13
			s2.75,0.042,4.039,0.119c1.289,0.07,2.492,0.178,3.523,0.307C373.625,13.663,375,14,375,14s-1.375,0.337-3.438,0.574
			c-1.031,0.129-2.234,0.236-3.523,0.307C366.75,14.958,365.375,15,364,15s-2.75-0.046-4.039-0.122
			c-1.289-0.071-2.492-0.178-3.523-0.307C354.375,14.334,353,14,353,14z"/>
		<path d="M385,14c0,0,1.5-0.334,3.75-0.571c1.125-0.129,2.438-0.235,3.844-0.307C394,13.046,395.5,13,397,13s3,0.042,4.406,0.119
			c1.406,0.07,2.719,0.178,3.844,0.307C407.5,13.663,409,14,409,14s-1.5,0.337-3.75,0.574c-1.125,0.129-2.438,0.236-3.844,0.307
			C400,14.958,398.5,15,397,15s-3-0.046-4.406-0.122c-1.406-0.071-2.719-0.178-3.844-0.307C386.5,14.334,385,14,385,14z"/>
		<path d="M417,14c0,0,1.625-0.334,4.062-0.571c1.219-0.129,2.641-0.235,4.164-0.307c0.762-0.026,1.549-0.083,2.349-0.087
			c0.8-0.012,1.612-0.022,2.425-0.034c0.812,0.011,1.625,0.022,2.425,0.033c0.8,0.001,1.587,0.06,2.349,0.085
			c1.523,0.07,2.945,0.178,4.164,0.307C441.375,13.663,443,14,443,14s-1.625,0.337-4.062,0.574
			c-1.219,0.129-2.641,0.236-4.164,0.307c-0.762,0.025-1.549,0.084-2.349,0.085c-0.8,0.011-1.612,0.022-2.425,0.033
			c-0.812-0.012-1.625-0.022-2.425-0.034c-0.8-0.004-1.587-0.061-2.349-0.087c-1.523-0.071-2.945-0.178-4.164-0.307
			C418.625,14.334,417,14,417,14z"/>
		<path d="M449,14c0,0,1.75-0.334,4.375-0.571c1.312-0.129,2.844-0.235,4.484-0.307c0.82-0.026,1.668-0.083,2.529-0.087
			c0.861-0.012,1.736-0.022,2.611-0.034c0.875,0.011,1.75,0.022,2.611,0.033c0.861,0.001,1.709,0.06,2.529,0.085
			c1.641,0.07,3.172,0.178,4.484,0.307C475.25,13.663,477,14,477,14s-1.75,0.337-4.375,0.574c-1.312,0.129-2.844,0.236-4.484,0.307
			c-0.82,0.025-1.668,0.084-2.529,0.085c-0.861,0.011-1.736,0.022-2.611,0.033c-0.875-0.012-1.75-0.022-2.611-0.034
			c-0.861-0.004-1.709-0.061-2.529-0.087c-1.641-0.071-3.172-0.178-4.484-0.307C450.75,14.334,449,14,449,14z"/>
		<path d="M481,14c0,0,1.875-0.334,4.688-0.571c1.406-0.129,3.047-0.235,4.805-0.307c0.879-0.026,1.787-0.083,2.71-0.087
			c0.923-0.012,1.86-0.022,2.798-0.034c0.938,0.011,1.875,0.022,2.798,0.033c0.923,0.001,1.831,0.06,2.71,0.085
			c1.758,0.07,3.398,0.178,4.805,0.307C509.125,13.663,511,14,511,14s-1.875,0.337-4.688,0.574
			c-1.406,0.129-3.047,0.236-4.805,0.307c-0.879,0.025-1.787,0.084-2.71,0.085c-0.923,0.011-1.86,0.022-2.798,0.033
			c-0.938-0.012-1.875-0.022-2.798-0.034c-0.923-0.004-1.831-0.061-2.71-0.087c-1.758-0.071-3.398-0.178-4.805-0.307
			C482.875,14.334,481,14,481,14z"/>
	</g>
	<g>
		<path d="M172.445,13.603c-0.273-0.229-0.664-0.505-1.133-0.762c-0.078-0.043-0.17-0.076-0.252-0.116
			c-0.109,0.41-0.186,0.832-0.186,1.275s0.077,0.865,0.186,1.275c0.082-0.04,0.174-0.073,0.252-0.116
			c0.469-0.257,0.859-0.532,1.133-0.762c0.137-0.1,0.244-0.224,0.317-0.289c0.073-0.07,0.112-0.108,0.112-0.108
			s-0.039-0.038-0.112-0.108C172.689,13.826,172.582,13.702,172.445,13.603z"/>
		<path d="M206.609,13.603c-0.328-0.229-0.797-0.505-1.359-0.762c-0.527-0.24-1.142-0.436-1.795-0.58
			c-0.204,0.544-0.33,1.125-0.33,1.739s0.126,1.195,0.33,1.739c0.653-0.145,1.268-0.34,1.795-0.58
			c0.562-0.257,1.031-0.532,1.359-0.762c0.164-0.1,0.293-0.224,0.381-0.289c0.088-0.07,0.135-0.108,0.135-0.108
			s-0.047-0.038-0.135-0.108C206.902,13.826,206.773,13.702,206.609,13.603z"/>
		<path d="M241.023,13.603c-0.383-0.229-0.93-0.505-1.586-0.762c-0.963-0.376-2.163-0.65-3.423-0.771
			c-0.25,0.595-0.389,1.247-0.389,1.931s0.14,1.336,0.389,1.931c1.261-0.121,2.46-0.396,3.423-0.771
			c0.656-0.257,1.203-0.532,1.586-0.762c0.191-0.1,0.342-0.224,0.444-0.289c0.103-0.07,0.157-0.108,0.157-0.108
			s-0.055-0.038-0.157-0.108C241.365,13.826,241.215,13.702,241.023,13.603z"/>
		<path d="M273.5,12.841c-1.396-0.478-3.227-0.784-5.085-0.824C268.15,12.626,268,13.295,268,14s0.15,1.374,0.415,1.982
			c1.859-0.039,3.689-0.346,5.085-0.823c0.75-0.248,1.375-0.529,1.812-0.762C275.75,14.175,276,14,276,14s-0.25-0.175-0.688-0.397
			C274.875,13.37,274.25,13.089,273.5,12.841z"/>
		<path d="M307.562,12.841c-1.688-0.513-3.938-0.843-6.188-0.84c-0.197,0-0.392,0.017-0.588,0.021
			c-0.264,0.607-0.412,1.274-0.412,1.978s0.148,1.37,0.412,1.978c0.196,0.005,0.391,0.021,0.588,0.021
			c2.25,0.003,4.5-0.327,6.188-0.84c0.844-0.248,1.547-0.529,2.039-0.762c0.492-0.223,0.773-0.397,0.773-0.397
			s-0.281-0.175-0.773-0.397C309.109,13.37,308.406,13.089,307.562,12.841z"/>
		<path d="M334.75,12.001c-0.537,0-1.072,0.019-1.603,0.049c-0.256,0.6-0.397,1.259-0.397,1.95s0.142,1.351,0.397,1.95
			c0.53,0.03,1.065,0.049,1.603,0.049c2.5,0.003,5-0.327,6.875-0.84c0.376-0.1,0.719-0.204,1.039-0.31
			c0.048-0.277,0.086-0.559,0.086-0.85s-0.038-0.572-0.086-0.85c-0.32-0.105-0.663-0.21-1.039-0.31
			C339.75,12.328,337.25,11.998,334.75,12.001z"/>
		<path d="M365.504,12.104c-0.241,0.586-0.379,1.225-0.379,1.896s0.138,1.311,0.379,1.896c0.859,0.064,1.739,0.102,2.621,0.103
			c2.423,0.003,4.844-0.254,6.796-0.665c0.12-0.428,0.204-0.869,0.204-1.334s-0.084-0.906-0.204-1.334
			c-1.952-0.411-4.373-0.668-6.796-0.665C367.243,12.002,366.363,12.039,365.504,12.104z"/>
		<path d="M397.985,12.163c-0.227,0.569-0.36,1.187-0.36,1.837s0.134,1.268,0.36,1.837c1.18,0.103,2.408,0.161,3.64,0.162
			c1.977,0.002,3.948-0.143,5.71-0.387c0.175-0.509,0.29-1.045,0.29-1.612s-0.115-1.104-0.29-1.612
			c-1.762-0.244-3.733-0.389-5.71-0.387C400.394,12.002,399.165,12.061,397.985,12.163z"/>
		<path d="M430.342,12.224C430.129,12.777,430,13.372,430,14s0.129,1.223,0.342,1.776c1.49,0.141,3.073,0.222,4.658,0.223
			c1.584,0.001,3.167-0.077,4.657-0.217C439.87,15.227,440,14.63,440,14s-0.13-1.227-0.343-1.782
			c-1.49-0.14-3.073-0.218-4.657-0.217C433.415,12.002,431.832,12.083,430.342,12.224z"/>
		<path d="M462.571,12.287c-0.197,0.537-0.321,1.108-0.321,1.713s0.124,1.176,0.321,1.713c1.795,0.179,3.734,0.285,5.679,0.286
			c1.222,0.001,2.44-0.041,3.625-0.114c0.238-0.583,0.375-1.218,0.375-1.885s-0.137-1.302-0.375-1.885
			c-1.185-0.073-2.403-0.115-3.625-0.114C466.306,12.002,464.366,12.108,462.571,12.287z"/>
		<path d="M494.929,12.345c-0.185,0.521-0.304,1.072-0.304,1.655s0.119,1.135,0.304,1.655c2.087,0.216,4.391,0.343,6.696,0.344
			c0.873,0.001,1.744-0.019,2.604-0.052c0.255-0.599,0.396-1.257,0.396-1.947s-0.141-1.349-0.396-1.947
			c-0.86-0.033-1.731-0.053-2.604-0.052C499.319,12.002,497.016,12.129,494.929,12.345z"/>
	</g>
</g>
<g id="Layer_4">
</g>
</svg>
